# Blender 5.2.1 LTS
# www.blender.org
o DocPart_forearm
v -0.005690 0.051674 -0.048920
v 0.013081 0.050554 -0.049130
v 0.045066 0.008949 -0.053772
v 0.046836 -0.007950 -0.056119
v 0.038736 -0.023551 -0.057748
v 0.006117 -0.036282 -0.057754
v -0.011088 -0.033955 -0.057133
v -0.025527 -0.026327 -0.056304
v -0.042850 0.015500 -0.052381
v -0.037123 0.031840 -0.050300
v -0.024218 0.045104 -0.049132
v -0.006309 0.050068 -0.069629
v -0.023370 0.044105 -0.070035
v 0.011310 0.049213 -0.069653
v 0.041866 0.009777 -0.073305
v 0.043522 -0.006973 -0.074992
v 0.036382 -0.022071 -0.076707
v -0.022152 -0.022325 -0.074953
v -0.009205 -0.030035 -0.075861
v -0.039721 0.016416 -0.071838
v -0.035380 0.031971 -0.070720
v -0.003894 0.044749 -0.122282
v -0.017888 0.039658 -0.122778
v 0.010720 0.043548 -0.122506
v 0.037447 0.010736 -0.125546
v 0.038221 -0.004133 -0.126006
v 0.031674 -0.018052 -0.126209
v -0.014063 -0.014330 -0.125846
v -0.004580 -0.021311 -0.126309
v -0.030112 0.017760 -0.124481
v -0.027836 0.029960 -0.123784
v -0.002154 0.042965 -0.153910
v -0.015095 0.038057 -0.154048
v 0.011572 0.040787 -0.154275
v 0.035026 0.008845 -0.157743
v 0.035744 -0.005060 -0.158022
v 0.029221 -0.018007 -0.157933
v 0.019566 -0.025293 -0.126530
v 0.018208 -0.023910 -0.158262
v 0.006646 -0.025713 -0.126587
v -0.002235 -0.017731 -0.158671
v 0.007427 -0.022742 -0.158591
v -0.011229 -0.011586 -0.158509
v -0.025272 0.017404 -0.156068
v -0.023836 0.028803 -0.154943
v -0.000720 0.042625 -0.167447
v -0.013013 0.038491 -0.167918
v 0.012156 0.039934 -0.167622
v 0.034222 0.007664 -0.170884
v 0.034859 -0.005713 -0.171681
v 0.029043 -0.017924 -0.171936
v 0.018217 -0.023837 -0.172291
v -0.001467 -0.016499 -0.172181
v 0.007715 -0.022278 -0.172213
v -0.010350 -0.010174 -0.171859
v -0.022743 0.018307 -0.169793
v -0.021473 0.029660 -0.168923
v 0.006197 -0.033261 -0.076822
v 0.023642 -0.033159 -0.058058
v 0.022301 -0.031089 -0.077403
v 0.029758 0.020506 -0.169708
v 0.030352 0.021653 -0.156501
v 0.031388 0.023959 -0.124674
v 0.034808 0.025720 -0.071587
v 0.037112 0.025154 -0.051374
v 0.022709 0.032042 -0.168576
v 0.022718 0.032809 -0.155181
v 0.022756 0.035430 -0.123637
v 0.024827 0.039740 -0.070319
v 0.027111 0.039833 -0.049796
v -0.006026 0.052674 -0.026628
v 0.013760 0.051282 -0.027030
v 0.028933 0.040175 -0.028221
v 0.039723 0.024983 -0.030038
v 0.048605 0.008526 -0.032691
v 0.049772 -0.010828 -0.035632
v 0.040536 -0.027471 -0.037247
v 0.023699 -0.037254 -0.036943
v 0.004773 -0.040274 -0.036853
v -0.013327 -0.038187 -0.036971
v -0.028552 -0.030896 -0.037043
v -0.045803 0.014229 -0.031642
v -0.038542 0.031082 -0.028801
v -0.024783 0.045353 -0.027158
v -0.005904 0.048012 -0.088349
v 0.010225 0.047429 -0.088570
v 0.023246 0.039084 -0.089209
v 0.032803 0.026273 -0.090115
v 0.039465 0.011560 -0.091283
v 0.041243 -0.005265 -0.092663
v 0.034612 -0.020301 -0.094043
v 0.021482 -0.028764 -0.094603
v 0.006662 -0.030368 -0.094079
v -0.007467 -0.026478 -0.093148
v -0.019093 -0.018721 -0.092222
v -0.036400 0.017231 -0.090282
v -0.033045 0.031447 -0.089492
v -0.021788 0.042354 -0.088709
v -0.021323 0.007601 -0.170617
v -0.023130 0.006584 -0.157298
v -0.027154 0.005918 -0.124894
v -0.034406 0.003575 -0.090942
v -0.038394 0.001541 -0.073037
v -0.042575 -0.000638 -0.054246
v -0.046597 -0.002647 -0.034373
v -0.016993 -0.001917 -0.171132
v -0.018113 -0.003066 -0.157988
v -0.021747 -0.004996 -0.125378
v -0.028509 -0.008637 -0.091605
v -0.032417 -0.011544 -0.074083
v -0.036351 -0.014636 -0.055372
v -0.039843 -0.017917 -0.036158
v 0.014431 0.050944 -0.005273
v -0.005265 0.053252 -0.005424
v -0.024609 0.046210 -0.006595
v -0.039679 0.031346 -0.008294
v -0.048309 0.014004 -0.011073
v -0.049439 -0.004096 -0.014036
v -0.043292 -0.020656 -0.016234
v -0.031786 -0.034587 -0.017286
v -0.015684 -0.041900 -0.016598
v 0.003582 -0.043642 -0.016096
v 0.023590 -0.041329 -0.016166
v 0.041429 -0.031607 -0.016466
v 0.052079 -0.014188 -0.014912
v 0.052181 0.007231 -0.012162
v 0.042944 0.025335 -0.009249
v 0.030148 0.040083 -0.006904
v -0.003268 0.043638 -0.138802
v 0.011119 0.041865 -0.139095
v 0.022740 0.033752 -0.140157
v 0.030849 0.022719 -0.141140
v 0.036095 0.009912 -0.141859
v 0.036806 -0.004235 -0.142217
v 0.030192 -0.018023 -0.142342
v 0.018245 -0.024414 -0.142782
v 0.006712 -0.023843 -0.142998
v -0.003519 -0.019264 -0.142768
v -0.012643 -0.012674 -0.142467
v -0.019704 -0.003718 -0.142063
v -0.024872 0.006421 -0.141501
v -0.027622 0.017541 -0.140672
v -0.025802 0.029088 -0.139849
v -0.016597 0.038487 -0.139109
v -0.004704 0.046210 -0.105579
v 0.010656 0.045190 -0.105887
v 0.022904 0.037223 -0.106878
v 0.031880 0.025302 -0.107740
v 0.038525 0.011436 -0.108571
v 0.039438 -0.004169 -0.109358
v 0.033059 -0.018847 -0.110157
v 0.020635 -0.026754 -0.110631
v 0.006637 -0.027834 -0.110557
v -0.006036 -0.023566 -0.110015
v -0.016393 -0.015909 -0.109353
v -0.024754 -0.006426 -0.108842
v -0.030527 0.004970 -0.108279
v -0.033061 0.017593 -0.107587
v -0.030233 0.030615 -0.106810
v -0.019593 0.040848 -0.106038
vn -0.5480 0.8359 -0.0317
vn -0.1417 0.9895 -0.0278
vn -0.1447 0.9880 -0.0537
vn -0.5416 0.8394 -0.0463
vn 0.3438 0.9385 -0.0322
vn 0.3380 0.9388 -0.0666
vn 0.8505 0.5168 -0.0974
vn 0.8343 0.5398 -0.1118
vn 0.9479 0.2857 -0.1408
vn 0.9457 0.2951 -0.1365
vn 0.9652 -0.2049 -0.1625
vn 0.9731 -0.1561 -0.1693
vn -0.2693 -0.9383 -0.2168
vn -0.5924 -0.7682 -0.2427
vn -0.5974 -0.7589 -0.2594
vn -0.3049 -0.9245 -0.2287
vn -0.9582 -0.1943 -0.2099
vn -0.9708 -0.1627 -0.1764
vn -0.9679 0.2235 -0.1151
vn -0.9757 0.1704 -0.1379
vn -0.8286 0.5568 -0.0588
vn -0.8447 0.5307 -0.0698
vn -0.1448 0.9854 -0.0891
vn -0.5315 0.8422 -0.0906
vn 0.3201 0.9429 -0.0920
vn 0.8587 0.5047 -0.0892
vn 0.9556 0.2696 -0.1191
vn 0.9761 -0.1548 -0.1523
vn -0.6147 -0.7457 -0.2570
vn -0.3629 -0.9046 -0.2234
vn -0.9461 -0.2318 -0.2262
vn -0.9805 0.1072 -0.1645
vn -0.8543 0.5077 -0.1113
vn -0.5200 0.8449 -0.1255
vn -0.1398 0.9842 -0.1089
vn -0.1350 0.9865 -0.0932
vn -0.5268 0.8433 -0.1069
vn 0.3101 0.9453 -0.1008
vn 0.3248 0.9416 -0.0892
vn 0.8555 0.5126 -0.0727
vn 0.8534 0.5167 -0.0693
vn 0.9651 0.2525 -0.0693
vn 0.9670 0.2425 -0.0776
vn 0.9816 -0.1681 -0.0903
vn 0.9797 -0.1817 -0.0843
vn -0.4558 -0.8738 -0.1696
vn -0.6657 -0.7204 -0.1944
vn -0.6816 -0.7154 -0.1535
vn -0.4801 -0.8658 -0.1411
vn -0.9286 -0.3304 -0.1691
vn -0.9283 -0.3063 -0.2110
vn -0.9824 0.0170 -0.1859
vn -0.9867 -0.0162 -0.1615
vn -0.8593 0.4871 -0.1560
vn -0.8697 0.4730 -0.1409
vn -0.5398 0.8367 -0.0923
vn -0.1188 0.9904 -0.0709
vn -0.0967 0.9941 -0.0486
vn -0.5481 0.8329 -0.0760
vn 0.3543 0.9329 -0.0649
vn 0.3796 0.9242 -0.0430
vn 0.8841 0.4627 -0.0654
vn 0.8696 0.4895 -0.0644
vn 0.9730 0.2184 -0.0750
vn 0.9765 0.2030 -0.0723
vn 0.9778 -0.1969 -0.0722
vn 0.9781 -0.2015 -0.0525
vn 0.7232 -0.6881 -0.0587
vn 0.7211 -0.6922 -0.0294
vn -0.4964 -0.8598 -0.1195
vn -0.6852 -0.7177 -0.1238
vn -0.6787 -0.7251 -0.1167
vn -0.5169 -0.8498 -0.1028
vn -0.9399 -0.3148 -0.1325
vn -0.9341 -0.3334 -0.1278
vn -0.9898 -0.0269 -0.1399
vn -0.9881 -0.0191 -0.1523
vn -0.8822 0.4519 -0.1320
vn -0.8927 0.4311 -0.1317
vn -0.0383 0.7880 -0.6145
vn -0.3834 0.6802 -0.6248
vn 0.3208 0.6997 -0.6384
vn 0.5898 0.3187 -0.7420
vn 0.7087 0.1513 -0.6891
vn 0.7160 -0.1562 -0.6804
vn 0.5325 -0.5289 -0.6608
vn -0.4808 -0.4829 -0.7319
vn -0.3690 -0.5752 -0.7301
vn -0.6711 -0.1556 -0.7248
vn -0.6635 0.0377 -0.7472
vn -0.6490 0.3473 -0.6769
vn 0.7124 -0.6771 -0.1846
vn 0.7421 -0.6485 -0.1697
vn 0.3560 -0.9206 -0.1605
vn 0.3269 -0.9262 -0.1879
vn 0.0247 -0.9813 -0.1910
vn 0.0178 -0.9841 -0.1770
vn 0.7473 -0.6477 -0.1480
vn 0.7535 -0.6475 -0.1139
vn 0.7441 -0.6621 -0.0894
vn 0.2264 -0.9722 -0.0594
vn 0.1967 -0.9800 -0.0300
vn -0.2281 -0.9692 -0.0931
vn -0.2860 -0.9561 -0.0637
vn 0.1175 -0.7239 -0.6798
vn -0.2347 -0.7020 -0.6724
vn 0.3438 -0.9285 -0.1405
vn -0.0405 -0.9845 -0.1704
vn -0.1265 -0.9816 -0.1427
vn -0.1718 -0.9781 -0.1177
vn 0.3108 -0.9423 -0.1245
vn 0.2813 -0.9548 -0.0963
vn 0.4868 0.5266 -0.6969
vn 0.7103 0.7021 -0.0498
vn 0.6949 0.7166 -0.0603
vn 0.6814 0.7277 -0.0788
vn 0.6756 0.7322 -0.0856
vn 0.6989 0.7100 -0.0863
vn 0.7117 0.6981 -0.0780
vn 0.6996 0.7117 -0.0637
vn 0.3034 0.9470 -0.1053
vn -0.1468 0.9824 -0.1156
vn 0.6823 0.7259 -0.0868
vn 0.8568 0.5101 -0.0747
vn 0.9610 0.2627 -0.0859
vn 0.9808 -0.1535 -0.1201
vn 0.7558 -0.6395 -0.1407
vn 0.3288 -0.9332 -0.1448
vn -0.0875 -0.9824 -0.1649
vn -0.4149 -0.8867 -0.2039
vn -0.6381 -0.7323 -0.2378
vn -0.9351 -0.2721 -0.2272
vn -0.9810 0.0564 -0.1856
vn -0.8557 0.4950 -0.1511
vn -0.5225 0.8430 -0.1282
vn -0.6071 -0.3334 -0.7213
vn -0.8353 -0.5373 -0.1166
vn -0.8368 -0.5339 -0.1213
vn -0.8291 -0.5343 -0.1647
vn -0.8154 -0.5378 -0.2141
vn -0.8075 -0.5348 -0.2486
vn -0.8099 -0.5260 -0.2597
vn -0.8187 -0.5170 -0.2499
vn -0.8363 -0.5007 -0.2233
vn -0.1128 0.7233 0.6813
vn 0.2694 0.6331 0.7257
vn -0.4564 0.5668 0.6859
vn -0.6414 0.3352 0.6901
vn -0.7784 0.1059 0.6187
vn -0.8051 -0.1972 0.5593
vn -0.7334 -0.4436 0.5151
vn -0.5537 -0.6810 0.4792
vn -0.2709 -0.7963 0.5408
vn -0.0157 -0.8118 0.5838
vn 0.2378 -0.8008 0.5497
vn 0.5716 -0.6385 0.5153
vn 0.7907 -0.2696 0.5496
vn 0.8050 0.0976 0.5853
vn 0.7114 0.3430 0.6134
vn 0.5664 0.4777 0.6716
s 1
f 84//1 71//2 1//3
f 84//1 1//3 11//4
f 71//2 72//5 2//6
f 71//2 2//6 1//3
f 65//7 74//8 75//9
f 65//7 75//9 3//10
f 75//9 76//11 4//12
f 75//9 4//12 3//10
f 80//13 81//14 8//15
f 80//13 8//15 7//16
f 104//17 105//18 82//19
f 104//17 82//19 9//20
f 82//19 83//21 10//22
f 82//19 10//22 9//20
f 83//21 84//1 11//4
f 83//21 11//4 10//22
f 11//4 1//3 12//23
f 11//4 12//23 13//24
f 1//3 2//6 14//25
f 1//3 14//25 12//23
f 64//26 65//7 3//10
f 64//26 3//10 15//27
f 3//10 4//12 16//28
f 3//10 16//28 15//27
f 7//16 8//15 18//29
f 7//16 18//29 19//30
f 103//31 104//17 9//20
f 103//31 9//20 20//32
f 9//20 10//22 21//33
f 9//20 21//33 20//32
f 10//22 11//4 13//24
f 10//22 13//24 21//33
f 160//34 145//35 22//36
f 160//34 22//36 23//37
f 145//35 146//38 24//39
f 145//35 24//39 22//36
f 63//40 148//41 149//42
f 63//40 149//42 25//43
f 149//42 150//44 26//45
f 149//42 26//45 25//43
f 154//46 155//47 28//48
f 154//46 28//48 29//49
f 101//50 157//51 158//52
f 101//50 158//52 30//53
f 158//52 159//54 31//55
f 158//52 31//55 30//53
f 159//54 160//34 23//37
f 159//54 23//37 31//55
f 144//56 129//57 32//58
f 144//56 32//58 33//59
f 129//57 130//60 34//61
f 129//57 34//61 32//58
f 62//62 132//63 133//64
f 62//62 133//64 35//65
f 133//64 134//66 36//67
f 133//64 36//67 35//65
f 134//66 135//68 37//69
f 134//66 37//69 36//67
f 138//70 139//71 43//72
f 138//70 43//72 41//73
f 100//74 141//75 142//76
f 100//74 142//76 44//77
f 142//76 143//78 45//79
f 142//76 45//79 44//77
f 143//78 144//56 33//59
f 143//78 33//59 45//79
f 33//59 32//58 46//80
f 33//59 46//80 47//81
f 32//58 34//61 48//82
f 32//58 48//82 46//80
f 61//83 62//62 35//65
f 61//83 35//65 49//84
f 35//65 36//67 50//85
f 35//65 50//85 49//84
f 36//67 37//69 51//86
f 36//67 51//86 50//85
f 41//73 43//72 55//87
f 41//73 55//87 53//88
f 99//89 100//74 44//77
f 99//89 44//77 56//90
f 44//77 45//79 57//91
f 44//77 57//91 56//90
f 45//79 33//59 47//81
f 45//79 47//81 57//91
f 4//12 76//11 77//92
f 4//12 77//92 5//93
f 59//94 78//95 79//96
f 59//94 79//96 6//97
f 79//96 80//13 7//16
f 79//96 7//16 6//97
f 17//98 16//28 4//12
f 17//98 4//12 5//93
f 26//45 150//44 151//99
f 26//45 151//99 27//100
f 135//68 136//101 39//102
f 135//68 39//102 37//69
f 137//103 138//70 41//73
f 137//103 41//73 42//104
f 37//69 39//102 52//105
f 37//69 52//105 51//86
f 42//104 41//73 53//88
f 42//104 53//88 54//106
f 60//107 59//94 6//97
f 60//107 6//97 58//108
f 58//108 6//97 7//16
f 58//108 7//16 19//30
f 39//102 42//104 54//106
f 39//102 54//106 52//105
f 136//101 137//103 42//104
f 136//101 42//104 39//102
f 153//109 154//46 29//49
f 153//109 29//49 40//110
f 152//111 153//109 40//110
f 152//111 40//110 38//112
f 151//99 152//111 38//112
f 151//99 38//112 27//100
f 60//107 17//98 5//93
f 60//107 5//93 59//94
f 77//92 78//95 59//94
f 77//92 59//94 5//93
f 66//113 67//114 62//62
f 66//113 62//62 61//83
f 67//114 131//115 132//63
f 67//114 132//63 62//62
f 68//116 147//117 148//41
f 68//116 148//41 63//40
f 69//118 70//119 65//7
f 69//118 65//7 64//26
f 70//119 73//120 74//8
f 70//119 74//8 65//7
f 34//61 67//114 66//113
f 34//61 66//113 48//82
f 130//60 131//115 67//114
f 130//60 67//114 34//61
f 146//38 147//117 68//116
f 146//38 68//116 24//39
f 2//6 70//119 69//118
f 2//6 69//118 14//25
f 72//5 73//120 70//119
f 72//5 70//119 2//6
f 12//23 14//25 86//121
f 12//23 86//121 85//122
f 14//25 69//118 87//123
f 14//25 87//123 86//121
f 88//124 87//123 69//118
f 88//124 69//118 64//26
f 89//125 88//124 64//26
f 89//125 64//26 15//27
f 15//27 16//28 90//126
f 15//27 90//126 89//125
f 91//127 90//126 16//28
f 91//127 16//28 17//98
f 60//107 92//128 91//127
f 60//107 91//127 17//98
f 58//108 93//129 92//128
f 58//108 92//128 60//107
f 58//108 19//30 94//130
f 58//108 94//130 93//129
f 19//30 18//29 95//131
f 19//30 95//131 94//130
f 102//132 103//31 20//32
f 102//132 20//32 96//133
f 20//32 21//33 97//134
f 20//32 97//134 96//133
f 21//33 13//24 98//135
f 21//33 98//135 97//134
f 13//24 12//23 85//122
f 13//24 85//122 98//135
f 106//136 107//137 100//74
f 106//136 100//74 99//89
f 107//137 140//138 141//75
f 107//137 141//75 100//74
f 108//139 156//140 157//51
f 108//139 157//51 101//50
f 109//141 110//142 103//31
f 109//141 103//31 102//132
f 110//142 111//143 104//17
f 110//142 104//17 103//31
f 111//143 112//144 105//18
f 111//143 105//18 104//17
f 43//72 107//137 106//136
f 43//72 106//136 55//87
f 139//71 140//138 107//137
f 139//71 107//137 43//72
f 155//47 156//140 108//139
f 155//47 108//139 28//48
f 18//29 110//142 109//141
f 18//29 109//141 95//131
f 8//15 111//143 110//142
f 8//15 110//142 18//29
f 81//14 112//144 111//143
f 81//14 111//143 8//15
f 114//145 113//146 72//5
f 114//145 72//5 71//2
f 115//147 114//145 71//2
f 115//147 71//2 84//1
f 116//148 115//147 84//1
f 116//148 84//1 83//21
f 117//149 116//148 83//21
f 117//149 83//21 82//19
f 105//18 118//150 117//149
f 105//18 117//149 82//19
f 112//144 119//151 118//150
f 112//144 118//150 105//18
f 120//152 119//151 112//144
f 120//152 112//144 81//14
f 121//153 120//152 81//14
f 121//153 81//14 80//13
f 122//154 121//153 80//13
f 122//154 80//13 79//96
f 79//96 78//95 123//155
f 79//96 123//155 122//154
f 124//156 123//155 78//95
f 124//156 78//95 77//92
f 77//92 76//11 125//157
f 77//92 125//157 124//156
f 126//158 125//157 76//11
f 126//158 76//11 75//9
f 75//9 74//8 127//159
f 75//9 127//159 126//158
f 74//8 73//120 128//160
f 74//8 128//160 127//159
f 113//146 128//160 73//120
f 113//146 73//120 72//5
f 22//36 24//39 130//60
f 22//36 130//60 129//57
f 24//39 68//116 131//115
f 24//39 131//115 130//60
f 132//63 131//115 68//116
f 132//63 68//116 63//40
f 133//64 132//63 63//40
f 133//64 63//40 25//43
f 25//43 26//45 134//66
f 25//43 134//66 133//64
f 26//45 27//100 135//68
f 26//45 135//68 134//66
f 27//100 38//112 136//101
f 27//100 136//101 135//68
f 38//112 40//110 137//103
f 38//112 137//103 136//101
f 40//110 29//49 138//70
f 40//110 138//70 137//103
f 29//49 28//48 139//71
f 29//49 139//71 138//70
f 28//48 108//139 140//138
f 28//48 140//138 139//71
f 141//75 140//138 108//139
f 141//75 108//139 101//50
f 142//76 141//75 101//50
f 142//76 101//50 30//53
f 30//53 31//55 143//78
f 30//53 143//78 142//76
f 31//55 23//37 144//56
f 31//55 144//56 143//78
f 23//37 22//36 129//57
f 23//37 129//57 144//56
f 85//122 86//121 146//38
f 85//122 146//38 145//35
f 86//121 87//123 147//117
f 86//121 147//117 146//38
f 148//41 147//117 87//123
f 148//41 87//123 88//124
f 149//42 148//41 88//124
f 149//42 88//124 89//125
f 89//125 90//126 150//44
f 89//125 150//44 149//42
f 151//99 150//44 90//126
f 151//99 90//126 91//127
f 91//127 92//128 152//111
f 91//127 152//111 151//99
f 92//128 93//129 153//109
f 92//128 153//109 152//111
f 93//129 94//130 154//46
f 93//129 154//46 153//109
f 94//130 95//131 155//47
f 94//130 155//47 154//46
f 95//131 109//141 156//140
f 95//131 156//140 155//47
f 157//51 156//140 109//141
f 157//51 109//141 102//132
f 158//52 157//51 102//132
f 158//52 102//132 96//133
f 96//133 97//134 159//54
f 96//133 159//54 158//52
f 97//134 98//135 160//34
f 97//134 160//34 159//54
f 98//135 85//122 145//35
f 98//135 145//35 160//34
f 99//89 56//90 66//113
f 128//160 116//148 122//154
f 57//91 47//81 56//90
f 47//81 46//80 56//90
f 46//80 48//82 56//90
f 48//82 66//113 56//90
f 66//113 61//83 106//136
f 61//83 49//84 53//88
f 55//87 61//83 53//88
f 49//84 50//85 53//88
f 50//85 51//86 54//106
f 53//88 50//85 54//106
f 51//86 52//105 54//106
f 55//87 106//136 61//83
f 106//136 99//89 66//113
f 128//160 113//146 114//145
f 114//145 115//147 128//160
f 115//147 116//148 128//160
f 116//148 117//149 121//153
f 117//149 118//150 119//151
f 121//153 117//149 119//151
f 119//151 120//152 121//153
f 121//153 122//154 116//148
f 122//154 123//155 127//159
f 123//155 124//156 125//157
f 127//159 123//155 126//158
f 125//157 126//158 123//155
f 127//159 128//160 122//154
