# Blender 5.2.1 LTS
# www.blender.org
o DocPart_upper_arm
v -0.049207 0.041436 0.003012
v -0.061544 0.020930 0.000191
v -0.027478 0.059829 0.006968
v -0.009805 0.070676 0.008421
v -0.018881 0.054472 -0.114463
v -0.001841 0.059903 -0.114144
v -0.005100 0.057329 -0.128145
v -0.020579 0.052370 -0.129071
v 0.020784 0.045391 -0.127636
v 0.024108 0.049187 -0.113046
v 0.045038 0.024046 -0.115989
v 0.048425 0.022134 -0.131312
v -0.042811 0.022360 -0.115024
v -0.033285 0.038337 -0.130626
v -0.041810 0.020830 -0.130913
v -0.033941 0.039161 -0.114829
v 0.057400 0.002393 -0.132200
v 0.054022 0.005360 -0.116775
v 0.050932 -0.016231 -0.116645
v 0.052573 -0.021599 -0.133086
v -0.027023 -0.037132 -0.115083
v -0.049509 0.002727 -0.130839
v -0.028873 -0.041329 -0.134041
v -0.047307 0.004031 -0.114781
v 0.038911 -0.037363 -0.140857
v 0.042144 -0.031936 -0.126125
v 0.033227 -0.041206 -0.129609
v 0.004411 -0.053870 -0.136018
v 0.004942 -0.050208 -0.146235
v -0.011523 -0.055049 -0.122647
v -0.022292 -0.047820 -0.122738
v 0.031679 -0.045811 -0.116735
v 0.002138 -0.057801 -0.122933
v 0.041595 -0.032330 -0.115127
v -0.007482 -0.052755 -0.133521
v -0.014837 -0.048455 -0.140300
v 0.059494 -0.000377 -0.147735
v 0.056432 -0.022652 -0.149570
v 0.051366 0.020119 -0.146078
v 0.020552 0.043665 -0.142517
v -0.016003 0.054429 -0.177084
v -0.003775 0.056692 -0.177273
v -0.002037 0.051886 -0.192054
v -0.023558 0.045971 -0.189142
v -0.005809 0.057237 -0.140686
v -0.021084 0.052549 -0.141887
v -0.033159 0.039114 -0.144450
v -0.042909 0.021986 -0.145853
v -0.033906 -0.043787 -0.152674
v -0.051354 0.003485 -0.146481
v -0.014975 -0.047633 -0.156104
v 0.005171 -0.048130 -0.158107
v 0.043000 -0.038665 -0.153548
v 0.016886 0.042253 -0.188259
v 0.060176 -0.003901 -0.197975
v 0.058482 -0.026494 -0.200442
v 0.045291 -0.043606 -0.202187
v 0.002352 -0.052047 -0.202304
v -0.017384 -0.051356 -0.202702
v -0.039087 0.026877 -0.193279
v -0.034101 -0.044582 -0.203234
v -0.049468 0.008316 -0.196958
v -0.001597 0.048424 -0.210312
v -0.022223 0.042579 -0.210926
v 0.018286 0.043648 -0.209640
v 0.058001 -0.002409 -0.217013
v 0.056668 -0.024625 -0.219527
v 0.044467 -0.042132 -0.221092
v 0.004134 -0.051900 -0.221178
v -0.038145 0.026533 -0.213038
v -0.047563 0.008147 -0.216120
v -0.032153 -0.042922 -0.222416
v -0.015769 -0.050159 -0.221652
v 0.019964 -0.050495 -0.133757
v 0.022774 -0.046177 -0.144899
v 0.017905 -0.055163 -0.120052
v 0.024562 -0.045910 -0.156760
v 0.025015 -0.051869 -0.202304
v 0.025217 -0.050965 -0.221132
v 0.044069 -0.037767 -0.064003
v 0.032270 -0.055606 -0.064542
v 0.014728 -0.066009 -0.064670
v -0.004966 -0.068480 -0.064998
v -0.024056 -0.063057 -0.064466
v -0.035731 -0.050901 -0.064101
v -0.038710 -0.036864 -0.063589
v -0.050122 0.011417 -0.061532
v -0.047570 0.029305 -0.060693
v -0.035323 0.045993 -0.058779
v -0.017815 0.056904 -0.057131
v -0.000011 0.062872 -0.057216
v 0.029643 0.056680 -0.060359
v 0.052061 0.029060 -0.062258
v 0.054421 0.005522 -0.063522
v 0.051055 -0.017203 -0.063768
v 0.042387 -0.041901 -0.021596
v 0.051623 0.000013 -0.000087
v 0.050525 0.022735 0.000644
v 0.032757 0.056844 0.002339
v 0.006262 0.072497 0.007941
v -0.029922 0.055890 -0.014346
v -0.045925 0.037404 -0.017386
v -0.051896 0.017588 -0.019074
v -0.041304 -0.034381 -0.019453
v -0.038990 -0.050894 -0.019908
v -0.027052 -0.063583 -0.019388
v -0.009645 -0.069799 -0.018916
v 0.011360 -0.068485 -0.019950
v 0.030358 -0.058896 -0.021308
v -0.000250 0.061402 -0.077640
v 0.027453 0.054391 -0.079714
v 0.050448 0.028196 -0.082608
v 0.052610 0.006785 -0.083723
v 0.050523 -0.015681 -0.083587
v 0.042973 -0.035572 -0.083407
v 0.032247 -0.052860 -0.084410
v 0.016050 -0.063370 -0.085523
v -0.002691 -0.065675 -0.086669
v -0.020013 -0.061050 -0.086411
v -0.031834 -0.050217 -0.085622
v -0.036395 -0.036688 -0.084087
v -0.047868 0.012607 -0.080837
v -0.044934 0.029960 -0.080624
v -0.032744 0.044488 -0.079121
v -0.016819 0.056038 -0.077965
v -0.011709 0.068027 -0.012718
v 0.004245 0.072050 -0.014159
v 0.034435 0.058705 -0.017757
v 0.052543 0.024399 -0.020102
v 0.052109 0.002650 -0.020599
v 0.048079 -0.019726 -0.021098
v 0.019889 0.040641 -0.170217
v 0.061264 -0.003756 -0.180135
v 0.059021 -0.026508 -0.182407
v 0.045697 -0.043009 -0.184510
v 0.025542 -0.050614 -0.185406
v 0.003844 -0.050362 -0.185786
v -0.016424 -0.050756 -0.185400
v -0.034627 -0.045835 -0.185434
v -0.051439 0.007147 -0.178705
v -0.041583 0.025056 -0.174736
v -0.030284 0.042068 -0.170535
v -0.019740 0.055192 -0.165785
v -0.005127 0.059225 -0.164482
v 0.031770 -0.057573 -0.042874
v 0.013134 -0.067750 -0.042143
v -0.007715 -0.069801 -0.041588
v -0.025939 -0.063939 -0.041682
v -0.037991 -0.051098 -0.041837
v -0.039051 -0.035216 -0.040786
v -0.050706 0.014462 -0.040250
v -0.045830 0.033536 -0.038805
v -0.032557 0.051674 -0.036702
v -0.015764 0.063815 -0.035740
v 0.001081 0.068797 -0.036812
v 0.033444 0.058580 -0.038620
v 0.053247 0.026405 -0.041641
v 0.054085 0.004208 -0.042204
v 0.050315 -0.018338 -0.042663
v 0.043821 -0.040082 -0.042961
v -0.016336 -0.057749 -0.105970
v -0.000603 -0.061953 -0.106285
v 0.017189 -0.059669 -0.104144
v 0.032402 -0.049431 -0.101897
v 0.042089 -0.033514 -0.100370
v 0.049791 -0.015077 -0.100932
v 0.051387 0.006172 -0.101443
v 0.047618 0.025666 -0.100707
v 0.025992 0.052441 -0.098378
v 0.000126 0.062210 -0.098005
v -0.016485 0.058485 -0.098719
v -0.032234 0.046655 -0.099545
v -0.043671 0.031703 -0.099613
v -0.047366 0.012424 -0.098675
v -0.035028 -0.035407 -0.102485
v -0.027303 -0.048444 -0.104982
v 0.049948 0.017640 -0.214431
v 0.052698 0.016639 -0.195508
v 0.053338 0.017395 -0.177634
v 0.034777 0.032466 -0.211462
v 0.036807 0.030884 -0.192198
v 0.038219 0.032332 -0.174316
v 0.036308 0.033894 -0.144329
v 0.034288 0.035023 -0.128815
v 0.034992 0.038062 -0.113305
v 0.037649 0.041222 -0.099399
v 0.040298 0.043968 -0.080754
v 0.042667 0.045444 -0.061027
v 0.044838 0.045380 -0.040939
v 0.045809 0.044727 -0.019895
v 0.043695 0.042871 0.000403
v -0.049194 -0.011406 -0.219480
v -0.051399 -0.012398 -0.200276
v -0.052738 -0.014203 -0.181962
v -0.053709 -0.015732 -0.147719
v -0.048548 -0.015490 -0.128954
v -0.046364 -0.012764 -0.113232
v -0.046448 -0.006881 -0.098768
v -0.044831 -0.005646 -0.081782
v -0.043390 -0.004343 -0.061317
v -0.044424 -0.002071 -0.039960
v -0.046848 0.000135 -0.019357
v -0.053915 0.002959 -0.000220
v -0.043117 -0.028959 -0.221637
v -0.045605 -0.030841 -0.202402
v -0.047220 -0.032875 -0.184312
v -0.048333 -0.033440 -0.149735
v -0.037273 -0.031616 -0.127475
v -0.034570 -0.026184 -0.110383
v -0.041892 -0.022133 -0.100124
v -0.039536 -0.022540 -0.082718
v -0.036649 -0.021863 -0.061412
v -0.036459 -0.018911 -0.039359
v -0.039342 -0.017234 -0.018780
v -0.046751 -0.014853 0.000032
v 0.008204 0.052986 -0.165738
v 0.008322 0.054012 -0.141238
v 0.008602 0.054629 -0.128516
v 0.012103 0.057839 -0.114431
v 0.013940 0.060139 -0.097949
v 0.013370 0.060339 -0.079183
v 0.016155 0.063007 -0.058175
v 0.018529 0.066798 -0.037944
v 0.020271 0.067932 -0.016014
v 0.019828 0.066670 0.004770
v 0.006931 0.051220 -0.176425
v 0.060877 -0.002182 -0.163344
v 0.052707 0.018548 -0.161268
v 0.038225 0.033016 -0.158732
v 0.020993 0.041648 -0.155797
v 0.008785 0.054277 -0.153409
v -0.005791 0.058505 -0.152188
v -0.021327 0.053857 -0.153494
v -0.032696 0.039971 -0.156985
v -0.043096 0.023599 -0.159879
v -0.052054 0.005743 -0.162126
v -0.053615 -0.014936 -0.164427
v -0.048552 -0.033387 -0.166732
v -0.034442 -0.045427 -0.168733
v -0.015330 -0.048753 -0.170626
v 0.004961 -0.048388 -0.171717
v 0.025410 -0.048314 -0.170447
v 0.044743 -0.041264 -0.168214
v 0.058192 -0.025071 -0.165492
v -0.009776 -0.022207 -0.069246
v -0.015996 0.023908 -0.064701
v -0.021957 -0.024036 -0.109435
v -0.033811 0.015986 -0.105607
v -0.019666 -0.022950 -0.148853
v -0.034059 0.018060 -0.145252
v -0.010817 -0.073282 -0.099877
v 0.014661 -0.071192 -0.101608
v -0.056690 -0.048634 -0.097169
v 0.038439 -0.057780 -0.102189
v 0.054731 -0.030031 -0.102772
v 0.058721 0.000020 -0.103581
v 0.051142 -0.029170 -0.103833
v 0.054939 0.000054 -0.104246
v 0.036486 -0.054012 -0.103163
v 0.013478 -0.067287 -0.101964
v -0.011586 -0.069850 -0.100279
v 0.047066 0.025635 -0.103649
v 0.051847 0.027080 -0.102401
v 0.010802 0.061692 -0.103014
v 0.011266 0.066273 -0.102364
v -0.043675 0.053927 -0.099348
v -0.015430 0.065357 -0.101096
v -0.015303 0.062116 -0.101720
v 0.032984 0.052499 -0.101426
v 0.030405 0.049514 -0.102157
v -0.037649 -0.065060 -0.097520
v -0.037287 -0.061775 -0.097973
v -0.049544 0.048601 -0.101579
v -0.022799 -0.025334 -0.170975
vn -0.0865 0.9912 -0.0999
vn -0.5571 0.8303 -0.0181
vn -0.5049 0.8526 -0.1347
vn -0.0604 0.9830 -0.1736
vn 0.3940 0.9031 -0.1709
vn 0.3997 0.8850 -0.2387
vn 0.6168 0.7392 -0.2706
vn 0.5931 0.7862 -0.1735
vn 0.8586 0.5100 -0.0524
vn 0.8227 0.5643 0.0686
vn 0.6514 0.7555 -0.0695
vn 0.7187 0.6629 -0.2099
vn -0.9291 0.3520 -0.1138
vn -0.7897 0.5930 -0.1573
vn -0.8211 0.5707 -0.0069
vn -0.9129 0.4075 0.0233
vn 0.9878 0.1183 0.1017
vn 0.9787 0.1239 0.1638
vn 0.9388 -0.3214 0.1243
vn 0.8680 -0.4594 0.1887
vn -0.9236 -0.2798 0.2620
vn -0.9128 -0.3787 0.1530
vn -0.9962 0.0865 0.0050
vn -0.9765 0.1745 0.1267
vn -0.7829 -0.5576 -0.2760
vn -0.4542 -0.8597 -0.2338
vn -0.4873 -0.8514 -0.1940
vn -0.8304 -0.5260 -0.1836
vn -0.9944 0.1043 -0.0176
vn -0.9717 -0.2344 0.0278
vn -0.9664 -0.2469 0.0709
vn -0.9998 0.0022 -0.0210
vn -0.9100 0.4107 -0.0565
vn -0.6945 0.7191 -0.0240
vn -0.7067 0.7024 -0.0853
vn -0.8942 0.4378 -0.0932
vn -0.4323 0.9017 -0.0039
vn -0.4121 0.9102 -0.0405
vn -0.0403 0.9984 -0.0392
vn -0.1205 0.9924 -0.0254
vn 0.3524 0.9305 -0.1001
vn 0.2337 0.9696 -0.0724
vn 0.5319 0.8367 -0.1303
vn 0.5964 0.7816 -0.1830
vn 0.9319 0.3369 -0.1343
vn 0.9050 0.3988 -0.1482
vn 0.7398 0.6353 -0.2216
vn 0.7416 0.6522 -0.1574
vn 0.9962 0.0085 -0.0865
vn 0.9982 0.0597 -0.0105
vn 0.9715 -0.2286 -0.0632
vn 0.9662 -0.2573 0.0150
vn -0.8272 0.5347 -0.1726
vn -0.9700 -0.0159 -0.2427
vn -0.9215 0.0569 0.3841
vn -0.6895 0.5027 0.5214
vn -0.8503 -0.4417 -0.2861
vn -0.9645 -0.2548 -0.0694
vn -0.7220 -0.6808 -0.1233
vn -0.8499 -0.5131 -0.1200
vn -0.5993 -0.7898 0.1301
vn -0.3445 -0.9275 -0.1451
vn 0.9866 0.1136 0.1173
vn 0.8816 -0.4293 0.1961
vn 0.8239 0.5646 0.0499
vn 0.5981 0.8011 -0.0202
vn -0.3997 0.8814 -0.2516
vn 0.1157 0.9597 -0.2560
vn 0.0893 0.9708 -0.2228
vn -0.5692 0.7990 -0.1939
vn -0.0347 0.9985 0.0432
vn -0.5470 0.8353 0.0554
vn 0.4530 0.8913 -0.0196
vn 0.5914 0.8048 -0.0500
vn -0.8172 0.5744 0.0467
vn -0.5131 0.8541 -0.0849
vn 0.0746 0.9939 -0.0810
vn -0.7731 0.6282 -0.0877
vn 0.5450 0.8327 -0.0984
vn 0.5239 0.8354 -0.1663
vn 0.8921 -0.4442 -0.0822
vn 0.8792 -0.4717 -0.0666
vn 0.8404 -0.5418 -0.0118
vn 0.7852 -0.6152 0.0704
vn -0.3680 -0.8950 -0.2522
vn -0.2681 -0.9172 -0.2947
vn -0.8897 0.4506 0.0737
vn -0.9845 -0.1188 0.1289
vn -0.9600 0.2684 0.0794
vn -0.1357 -0.9902 0.0320
vn -0.4217 -0.8970 0.1325
vn 0.8313 0.5508 -0.0741
vn 0.8320 0.5532 -0.0427
vn 0.9910 0.1330 -0.0138
vn 0.9869 0.1399 -0.0803
vn 0.9250 -0.3793 0.0243
vn 0.9319 -0.3554 -0.0728
vn -0.8172 0.5706 -0.0816
vn -0.8449 0.5319 -0.0577
vn -0.9896 -0.0882 -0.1132
vn -0.9924 -0.0969 -0.0758
vn -0.9564 0.2875 -0.0523
vn -0.9497 0.3021 -0.0819
vn -0.5086 -0.8608 -0.0158
vn -0.5786 -0.8096 -0.0985
vn -0.2010 -0.9793 -0.0230
vn -0.1296 -0.9892 0.0687
vn 0.0840 0.7549 -0.6505
vn -0.3080 0.6190 -0.7225
vn 0.4985 0.8638 -0.0736
vn 0.2286 0.7855 -0.5750
vn 0.5457 0.4553 -0.7035
vn 0.6856 0.2015 -0.6996
vn 0.6764 -0.1617 -0.7186
vn -0.5677 0.4911 -0.6607
vn -0.6614 0.2898 -0.6918
vn -0.6717 0.0297 -0.7403
vn -0.1445 -0.6931 -0.7062
vn -0.3722 -0.5221 -0.7674
vn 0.6008 -0.7941 0.0921
vn 0.6707 -0.7387 -0.0663
vn 0.3514 -0.9324 -0.0846
vn 0.4146 -0.8816 -0.2254
vn 0.0309 -0.9474 -0.3185
vn 0.0499 -0.9752 -0.2157
vn 0.0037 -0.9661 -0.2583
vn 0.0369 -0.9993 -0.0094
vn 0.2385 -0.9673 0.0866
vn 0.5498 -0.8124 0.1944
vn 0.5833 -0.8094 0.0685
vn 0.6083 -0.7928 -0.0378
vn 0.1972 -0.9803 0.0084
vn 0.1749 -0.9792 0.1032
vn 0.0009 -0.9940 0.1091
vn -0.0114 -0.9997 0.0219
vn 0.4903 -0.4720 -0.7327
vn 0.1756 -0.7332 -0.6569
vn 0.0846 -0.6780 -0.7302
vn 0.3646 -0.9090 -0.2019
vn 0.7179 -0.6804 -0.1473
vn 0.7089 -0.6966 -0.1101
vn 0.3414 -0.9302 -0.1350
vn -0.0713 -0.9841 -0.1626
vn -0.0448 -0.9740 -0.2221
vn 0.7044 -0.6932 -0.1526
vn 0.3909 -0.8914 -0.2292
vn -0.5082 0.4763 0.7176
vn -0.6585 0.7512 -0.0462
vn 0.3198 -0.9441 -0.0798
vn 0.6905 -0.7198 -0.0715
vn 0.6703 -0.7417 -0.0222
vn 0.2931 -0.9556 -0.0313
vn -0.1074 -0.9934 -0.0393
vn -0.5326 -0.8448 -0.0510
vn -0.5113 -0.8507 -0.1217
vn -0.0825 -0.9916 -0.0992
vn -0.8717 -0.4733 -0.1269
vn -0.9077 -0.4155 -0.0596
vn -0.9969 0.0408 -0.0672
vn -0.9967 -0.0413 -0.0702
vn -0.9918 -0.1159 -0.0538
vn -0.9340 -0.3557 0.0338
vn -0.9206 -0.3898 -0.0221
vn -0.9976 -0.0635 -0.0288
vn -0.9207 0.3829 -0.0762
vn -0.9008 0.4300 -0.0605
vn -0.6934 0.7125 -0.1071
vn -0.6799 0.7261 -0.1025
vn 0.5372 0.8289 -0.1561
vn 0.2180 0.9601 -0.1749
vn 0.2851 0.9461 -0.1535
vn 0.6182 0.7789 -0.1058
vn 0.9725 -0.2307 -0.0309
vn 0.9989 -0.0262 -0.0376
vn 0.9973 -0.0631 0.0377
vn 0.9734 -0.2255 0.0400
vn 0.9531 0.2959 -0.0637
vn 0.9744 0.2249 0.0028
vn 0.7717 0.6275 -0.1032
vn 0.8334 0.5503 -0.0513
vn -0.4368 0.8873 -0.1480
vn -0.4281 0.8908 -0.1523
vn -0.0953 0.9779 -0.1861
vn -0.1490 0.9736 -0.1732
vn 0.8981 -0.4365 -0.0530
vn 0.9023 -0.4311 0.0078
vn -0.9208 -0.3483 -0.1756
vn -0.4664 -0.6333 0.6176
vn -0.3899 0.9177 -0.0760
vn -0.1659 0.6575 0.7350
vn 0.1027 0.6687 0.7364
vn 0.0064 0.9976 -0.0689
vn 0.6755 0.7363 0.0389
vn 0.3937 0.9191 -0.0180
vn 0.4292 0.5607 0.7081
vn 0.5502 0.4303 0.7157
vn 0.9821 0.1755 0.0677
vn 0.8687 0.4920 0.0581
vn 0.6388 0.2935 0.7112
vn 0.6195 -0.0444 0.7837
vn 0.9939 -0.0678 0.0873
vn 0.7427 -0.3265 0.5846
vn 0.9910 0.1227 0.0526
vn 0.8339 0.5518 0.0079
vn 0.9079 -0.4019 0.1190
vn 0.5573 -0.8147 0.1601
vn 0.1773 -0.9735 0.1442
vn 0.0160 -0.9941 0.1071
vn -0.0902 -0.9918 0.0906
vn -0.4347 -0.8991 0.0525
vn -0.9627 0.2704 0.0134
vn -0.9952 -0.0951 -0.0215
vn -0.8718 0.4896 0.0145
vn -0.8092 0.5876 0.0025
vn -0.5518 0.8327 0.0468
vn 0.0072 0.9985 0.0549
vn 0.5786 0.8132 -0.0624
vn 0.5128 0.8582 -0.0214
vn 0.5007 -0.5894 0.6340
vn 0.2308 -0.7173 0.6574
vn -0.0960 -0.7485 0.6562
vn -0.4384 -0.6505 0.6202
vn -0.7388 -0.3497 0.5761
vn -0.7868 -0.0147 0.6170
vn 0.7324 -0.3983 0.5522
vn 0.6868 -0.3258 0.6497
vn 0.4360 0.6650 -0.6063
vn 0.6014 0.7985 -0.0264
vn 0.5675 0.8213 -0.0579
vn 0.5806 0.8135 -0.0326
vn 0.5642 0.8216 -0.0822
vn -0.5781 -0.2324 -0.7822
vn -0.8747 -0.4670 -0.1298
vn -0.8630 -0.4989 -0.0791
vn -0.8421 -0.5392 -0.0121
vn -0.7871 -0.5872 0.1888
vn -0.7045 -0.6426 0.3011
vn -0.8458 -0.5215 -0.1123
vn -0.9255 -0.3046 -0.2251
vn -0.9566 -0.2809 0.0776
vn -0.9898 -0.1393 0.0285
vn -0.9901 -0.1286 -0.0570
vn -0.7236 -0.3285 0.6071
vn 0.4692 -0.6502 -0.5976
vn -0.3731 0.9277 -0.0131
vn 0.7223 -0.2549 -0.6429
vn -0.5267 0.1601 -0.8348
vn -0.5660 -0.0191 -0.8242
vn 0.7561 0.0394 -0.6532
vn 0.5255 -0.5299 -0.6656
vn 0.1756 -0.7121 -0.6797
vn -0.1892 0.5219 -0.8318
vn -0.3907 0.3783 -0.8392
vn 0.6660 0.3211 -0.6733
vn -0.5611 -0.1964 -0.8041
vn 0.4783 0.5201 -0.7076
vn -0.3876 -0.4766 -0.7891
vn -0.1178 -0.5714 -0.8121
vn 0.1907 0.6956 -0.6927
vn 0.0069 0.5576 -0.8301
vn -0.1405 -0.7368 -0.6614
vn -0.1369 0.6896 -0.7111
vn 0.0540 -0.6116 -0.7893
vn 0.2262 -0.4775 -0.8490
vn 0.1973 0.5243 -0.8284
vn -0.3724 -0.6609 -0.6515
vn 0.3330 0.4655 -0.8200
vn 0.8910 0.4196 -0.1732
vn 0.9848 0.1411 -0.1015
vn 0.9922 0.0979 -0.0777
vn 0.8653 0.4940 -0.0851
vn 0.6087 0.7524 -0.2518
vn 0.9955 0.0629 0.0707
vn 0.8533 0.4190 -0.3103
vn 0.9786 0.0346 -0.2029
s 1
f 7//1 8//2 5//3
f 7//1 5//3 6//4
f 218//5 219//6 10//7
f 218//5 10//7 9//8
f 11//9 12//10 184//11
f 11//9 184//11 185//12
f 13//13 16//14 14//15
f 13//13 14//15 15//16
f 5//3 8//2 14//15
f 5//3 14//15 16//14
f 12//10 11//9 18//17
f 12//10 18//17 17//18
f 19//19 20//20 17//18
f 19//19 17//18 18//17
f 196//21 197//22 24//23
f 196//21 24//23 22//24
f 176//25 161//26 119//27
f 176//25 119//27 120//28
f 174//29 198//30 199//31
f 174//29 199//31 122//32
f 123//33 124//34 172//35
f 123//33 172//35 173//36
f 125//37 171//38 172//35
f 125//37 172//35 124//34
f 170//39 171//38 125//37
f 170//39 125//37 110//40
f 220//41 221//42 111//43
f 220//41 111//43 169//44
f 112//45 168//46 186//47
f 112//45 186//47 187//48
f 113//49 167//50 168//46
f 113//49 168//46 112//45
f 114//51 166//52 167//50
f 114//51 167//50 113//49
f 102//53 103//54 2//55
f 102//53 2//55 1//56
f 175//57 176//25 120//28
f 175//57 120//28 121//58
f 31//59 21//60 23//61
f 31//59 23//61 36//62
f 37//63 17//18 20//20
f 37//63 20//20 38//64
f 39//65 12//10 17//18
f 39//65 17//18 37//63
f 39//65 183//66 184//11
f 39//65 184//11 12//10
f 41//67 42//68 43//69
f 41//67 43//69 44//70
f 8//2 7//1 45//71
f 8//2 45//71 46//72
f 217//73 218//5 9//8
f 217//73 9//8 40//74
f 47//75 14//15 8//2
f 47//75 8//2 46//72
f 143//76 144//77 42//68
f 143//76 42//68 41//67
f 41//67 44//70 142//78
f 41//67 142//78 143//76
f 216//79 226//80 42//68
f 216//79 42//68 144//77
f 114//51 115//81 165//82
f 114//51 165//82 166//52
f 34//83 26//84 20//20
f 34//83 20//20 19//19
f 30//85 31//59 36//62
f 30//85 36//62 35//86
f 14//15 47//75 48//87
f 14//15 48//87 15//16
f 195//88 196//21 22//24
f 195//88 22//24 50//89
f 51//90 36//62 23//61
f 51//90 23//61 49//91
f 178//92 179//93 133//94
f 178//92 133//94 55//95
f 134//96 56//97 55//95
f 134//96 55//95 133//94
f 60//98 141//99 142//78
f 60//98 142//78 44//70
f 193//100 194//101 140//102
f 193//100 140//102 62//103
f 139//104 61//105 59//106
f 139//104 59//106 138//107
f 44//70 43//69 63//108
f 44//70 63//108 64//109
f 63//108 43//69 54//110
f 63//108 54//110 65//111
f 177//112 178//92 55//95
f 177//112 55//95 66//113
f 66//113 55//95 56//97
f 66//113 56//97 67//114
f 70//115 60//98 44//70
f 70//115 44//70 64//109
f 173//36 174//29 122//32
f 173//36 122//32 123//33
f 22//24 24//23 13//13
f 22//24 13//13 15//16
f 50//89 22//24 15//16
f 50//89 15//16 48//87
f 62//103 140//102 141//99
f 62//103 141//99 60//98
f 70//115 71//116 62//103
f 70//115 62//103 60//98
f 62//103 71//116 192//117
f 62//103 192//117 193//100
f 73//118 59//106 61//105
f 73//118 61//105 72//119
f 25//120 20//20 26//84
f 25//120 26//84 27//121
f 75//122 74//123 28//124
f 75//122 28//124 29//125
f 29//125 28//124 35//86
f 29//125 35//86 36//62
f 33//126 30//85 35//86
f 33//126 35//86 28//124
f 52//127 29//125 36//62
f 52//127 36//62 51//90
f 77//128 75//122 29//125
f 77//128 29//125 52//127
f 38//64 20//20 25//120
f 38//64 25//120 53//129
f 56//97 134//96 135//130
f 56//97 135//130 57//131
f 78//132 136//133 137//134
f 78//132 137//134 58//135
f 58//135 137//134 138//107
f 58//135 138//107 59//106
f 67//114 56//97 57//131
f 67//114 57//131 68//136
f 79//137 78//132 58//135
f 79//137 58//135 69//138
f 58//135 59//106 73//118
f 58//135 73//118 69//138
f 78//132 79//137 68//136
f 78//132 68//136 57//131
f 136//133 78//132 57//131
f 136//133 57//131 135//130
f 75//122 77//128 53//129
f 75//122 53//129 25//120
f 74//123 75//122 25//120
f 74//123 25//120 27//121
f 163//139 164//140 116//141
f 163//139 116//141 117//142
f 115//81 116//141 164//140
f 115//81 164//140 165//82
f 118//143 119//27 161//26
f 118//143 161//26 162//144
f 32//145 27//121 26//84
f 32//145 26//84 34//83
f 28//124 74//123 76//146
f 28//124 76//146 33//126
f 32//145 76//146 74//123
f 32//145 74//123 27//121
f 162//144 163//139 117//142
f 162//144 117//142 118//143
f 102//53 1//56 3//147
f 102//53 3//147 101//148
f 82//149 81//150 145//151
f 82//149 145//151 146//152
f 147//153 148//154 84//155
f 147//153 84//155 83//156
f 85//157 84//155 148//154
f 85//157 148//154 149//158
f 149//158 150//159 86//160
f 149//158 86//160 85//157
f 87//161 200//162 201//163
f 87//161 201//163 151//164
f 88//165 87//161 151//164
f 88//165 151//164 152//166
f 89//167 88//165 152//166
f 89//167 152//166 153//168
f 92//169 222//170 223//171
f 92//169 223//171 156//172
f 95//173 94//174 158//175
f 95//173 158//175 159//176
f 93//177 157//178 158//175
f 93//177 158//175 94//174
f 188//179 189//180 157//178
f 188//179 157//178 93//177
f 90//181 154//182 155//183
f 90//181 155//183 91//184
f 82//149 146//152 147//153
f 82//149 147//153 83//156
f 80//185 160//186 145//151
f 80//185 145//151 81//150
f 221//42 222//170 92//169
f 221//42 92//169 111//43
f 93//177 112//45 187//48
f 93//177 187//48 188//179
f 94//174 113//49 112//45
f 94//174 112//45 93//177
f 95//173 114//51 113//49
f 95//173 113//49 94//174
f 95//173 80//185 115//81
f 95//173 115//81 114//51
f 80//185 81//150 116//141
f 80//185 116//141 115//81
f 117//142 116//141 81//150
f 117//142 81//150 82//149
f 118//143 117//142 82//149
f 118//143 82//149 83//156
f 83//156 84//155 119//27
f 83//156 119//27 118//143
f 120//28 119//27 84//155
f 120//28 84//155 85//157
f 121//58 120//28 85//157
f 121//58 85//157 86//160
f 122//32 199//31 200//162
f 122//32 200//162 87//161
f 123//33 122//32 87//161
f 123//33 87//161 88//165
f 88//165 89//167 124//34
f 88//165 124//34 123//33
f 90//181 125//37 124//34
f 90//181 124//34 89//167
f 110//40 125//37 90//181
f 110//40 90//181 91//184
f 103//54 202//187 203//188
f 103//54 203//188 2//55
f 126//189 4//190 100//191
f 126//189 100//191 127//192
f 128//193 224//194 225//195
f 128//193 225//195 99//196
f 129//197 190//198 191//199
f 129//197 191//199 98//200
f 130//201 129//197 98//200
f 130//201 98//200 97//202
f 80//185 95//173 159//176
f 80//185 159//176 160//186
f 90//181 89//167 153//168
f 90//181 153//168 154//182
f 3//147 4//190 126//189
f 3//147 126//189 101//148
f 39//65 37//63 227//203
f 39//65 227//203 228//204
f 38//64 244//205 227//203
f 38//64 227//203 37//63
f 243//206 244//205 38//64
f 243//206 38//64 53//129
f 77//128 242//207 243//206
f 77//128 243//206 53//129
f 241//208 242//207 77//128
f 241//208 77//128 52//127
f 240//209 241//208 52//127
f 240//209 52//127 51//90
f 49//91 239//210 240//209
f 49//91 240//209 51//90
f 236//211 237//212 195//88
f 236//211 195//88 50//89
f 235//213 236//211 50//89
f 235//213 50//89 48//87
f 234//214 235//213 48//87
f 234//214 48//87 47//75
f 233//215 234//214 47//75
f 233//215 47//75 46//72
f 46//72 45//71 232//216
f 46//72 232//216 233//215
f 230//217 231//218 217//73
f 230//217 217//73 40//74
f 146//152 145//151 109//219
f 146//152 109//219 108//220
f 147//153 146//152 108//220
f 147//153 108//220 107//221
f 106//222 148//154 147//153
f 106//222 147//153 107//221
f 149//158 148//154 106//222
f 149//158 106//222 105//223
f 104//224 150//159 149//158
f 104//224 149//158 105//223
f 151//164 201//163 202//187
f 151//164 202//187 103//54
f 152//166 151//164 103//54
f 152//166 103//54 102//53
f 153//168 152//166 102//53
f 153//168 102//53 101//148
f 154//182 153//168 101//148
f 154//182 101//148 126//189
f 155//183 154//182 126//189
f 155//183 126//189 127//192
f 156//172 223//171 224//194
f 156//172 224//194 128//193
f 157//178 189//180 190//198
f 157//178 190//198 129//197
f 158//175 157//178 129//197
f 158//175 129//197 130//201
f 159//176 158//175 130//201
f 159//176 130//201 131//225
f 160//186 159//176 131//225
f 160//186 131//225 96//226
f 145//151 160//186 96//226
f 145//151 96//226 109//219
f 162//144 161//26 30//85
f 162//144 30//85 33//126
f 76//146 163//139 162//144
f 76//146 162//144 33//126
f 76//146 32//145 164//140
f 76//146 164//140 163//139
f 165//82 164//140 32//145
f 165//82 32//145 34//83
f 166//52 165//82 34//83
f 166//52 34//83 19//19
f 167//50 166//52 19//19
f 167//50 19//19 18//17
f 168//46 167//50 18//17
f 168//46 18//17 11//9
f 185//12 186//47 168//46
f 185//12 168//46 11//9
f 219//6 220//41 169//44
f 219//6 169//44 10//7
f 6//4 5//3 171//38
f 6//4 171//38 170//39
f 172//35 171//38 5//3
f 172//35 5//3 16//14
f 173//36 172//35 16//14
f 173//36 16//14 13//13
f 13//13 24//23 174//29
f 13//13 174//29 173//36
f 24//23 197//22 198//30
f 24//23 198//30 174//29
f 21//60 31//59 176//25
f 21//60 176//25 175//57
f 31//59 30//85 161//26
f 31//59 161//26 176//25
f 180//227 181//228 178//92
f 180//227 178//92 177//112
f 181//228 182//229 179//93
f 181//228 179//93 178//92
f 39//65 228//204 229//230
f 39//65 229//230 183//66
f 54//110 181//228 180//227
f 54//110 180//227 65//111
f 54//110 132//231 182//229
f 54//110 182//229 181//228
f 183//66 229//230 230//217
f 183//66 230//217 40//74
f 184//11 183//66 40//74
f 184//11 40//74 9//8
f 185//12 184//11 9//8
f 185//12 9//8 10//7
f 169//44 186//47 185//12
f 169//44 185//12 10//7
f 187//48 186//47 169//44
f 187//48 169//44 111//43
f 188//179 187//48 111//43
f 188//179 111//43 92//169
f 92//169 156//172 189//180
f 92//169 189//180 188//179
f 190//198 189//180 156//172
f 190//198 156//172 128//193
f 191//199 190//198 128//193
f 191//199 128//193 99//196
f 193//100 192//117 204//232
f 193//100 204//232 205//233
f 205//233 206//234 194//101
f 205//233 194//101 193//100
f 195//88 237//212 238//235
f 195//88 238//235 207//236
f 207//236 208//237 196//21
f 207//236 196//21 195//88
f 208//237 209//238 197//22
f 208//237 197//22 196//21
f 198//30 197//22 209//238
f 198//30 209//238 210//239
f 199//31 198//30 210//239
f 199//31 210//239 211//240
f 200//162 199//31 211//240
f 200//162 211//240 212//241
f 201//163 200//162 212//241
f 201//163 212//241 213//242
f 202//187 201//163 213//242
f 202//187 213//242 214//243
f 203//188 202//187 214//243
f 203//244 214//244 215//245
f 205//233 204//232 72//119
f 205//233 72//119 61//105
f 61//105 139//104 206//234
f 61//105 206//234 205//233
f 207//236 238//235 239//210
f 207//236 239//210 49//91
f 49//91 23//61 208//237
f 49//91 208//237 207//236
f 21//60 209//238 208//237
f 21//60 208//237 23//61
f 210//239 209//238 21//60
f 210//239 21//60 175//57
f 211//240 210//239 175//57
f 211//240 175//57 121//58
f 212//241 211//240 121//58
f 212//241 121//58 86//160
f 213//242 212//241 86//160
f 213//242 86//160 150//159
f 214//243 213//242 150//159
f 214//243 150//159 104//224
f 45//71 217//73 231//218
f 45//71 231//218 232//216
f 7//1 218//5 217//73
f 7//1 217//73 45//71
f 6//4 219//6 218//5
f 6//4 218//5 7//1
f 170//39 220//41 219//6
f 170//39 219//6 6//4
f 110//40 221//42 220//41
f 110//40 220//41 170//39
f 91//184 222//170 221//42
f 91//184 221//42 110//40
f 223//171 222//170 91//184
f 223//171 91//184 155//183
f 224//194 223//171 155//183
f 224//194 155//183 127//192
f 225//195 224//194 127//192
f 225//195 127//192 100//191
f 43//69 42//68 226//80
f 43//69 226//80 54//110
f 54//110 226//80 216//79
f 54//110 216//79 132//231
f 228//204 227//203 133//94
f 228//204 133//94 179//93
f 229//230 228//204 179//93
f 229//230 179//93 182//229
f 230//217 229//230 182//229
f 230//217 182//229 132//231
f 216//79 231//218 230//217
f 216//79 230//217 132//231
f 232//216 231//218 216//79
f 232//216 216//79 144//77
f 233//215 232//216 144//77
f 233//215 144//77 143//76
f 143//76 142//78 234//214
f 143//76 234//214 233//215
f 142//78 141//99 235//213
f 142//78 235//213 234//214
f 141//99 140//102 236//211
f 141//99 236//211 235//213
f 140//102 194//101 237//212
f 140//102 237//212 236//211
f 238//235 237//212 194//101
f 238//235 194//101 206//234
f 239//210 238//235 206//234
f 239//210 206//234 139//104
f 240//209 239//210 139//104
f 240//209 139//104 138//107
f 138//107 137//134 241//208
f 138//107 241//208 240//209
f 137//134 136//133 242//207
f 137//134 242//207 241//208
f 243//206 242//207 136//133
f 243//206 136//133 135//130
f 135//130 134//96 244//205
f 135//130 244//205 243//206
f 227//203 244//205 134//96
f 227//203 134//96 133//94
f 255//246 257//247 258//248
f 255//246 258//248 256//249
f 254//250 252//251 260//252
f 254//250 260//252 259//253
f 259//253 257//247 255//246
f 259//253 255//246 254//250
f 263//254 256//249 258//248
f 263//254 258//248 262//255
f 269//256 263//254 262//255
f 269//256 262//255 270//257
f 264//258 265//259 269//256
f 264//258 269//256 270//257
f 261//260 260//252 252//251
f 261//260 252//251 251//261
f 267//262 265//259 264//258
f 267//262 264//258 268//263
f 266//264 267//262 268//263
f 272//265 261//260 251//261
f 272//265 251//261 271//266
f 271//266 253//267 272//265
f 248//268 247//269 249//270
f 248//268 249//270 250//271
f 273//272 248//268 250//271
f 250//271 249//270 274//273
f 246//274 245//275 247//269
f 246//274 247//269 248//268
f 131//225 97//202 214//243
f 180//227 69//138 70//115
f 3//147 1//56 203//188
f 1//56 2//55 203//188
f 203//244 215//245 214//244
f 100//191 4//190 225//195
f 4//190 3//147 225//195
f 99//196 225//195 3//147
f 98//200 191//199 3//147
f 191//199 99//196 3//147
f 131//225 130//201 97//202
f 97//202 98//200 214//243
f 214//243 98//200 3//147
f 3//147 203//188 214//243
f 214//243 104//224 107//221
f 104//224 105//223 106//222
f 107//221 104//224 106//222
f 107//221 108//220 214//243
f 108//220 109//219 214//243
f 109//219 96//226 214//243
f 96//226 131//225 214//243
f 64//109 63//108 65//111
f 65//111 180//227 70//115
f 180//227 177//112 69//138
f 177//112 66//113 79//137
f 66//113 67//114 79//137
f 67//114 68//136 79//137
f 79//137 69//138 177//112
f 69//138 73//118 71//116
f 65//111 70//115 64//109
f 73//118 72//119 204//232
f 204//232 192//117 73//118
f 192//117 71//116 73//118
f 71//116 70//115 69//138
