# Blender 4.0.2
# www.blender.org
mtllib DocPart_forearm.mtl
o DocPart_forearm
v -0.005690 0.051674 -0.048920
v 0.013081 0.050554 -0.049130
v 0.045066 0.008949 -0.053772
v 0.046836 -0.007950 -0.056119
v 0.038736 -0.023551 -0.057748
v 0.006117 -0.036282 -0.057754
v -0.011088 -0.033955 -0.057133
v -0.025527 -0.026327 -0.056304
v -0.042850 0.015500 -0.052381
v -0.037123 0.031840 -0.050300
v -0.024218 0.045104 -0.049132
v -0.006309 0.050068 -0.069629
v -0.023370 0.044105 -0.070035
v 0.011310 0.049213 -0.069653
v 0.041866 0.009777 -0.073305
v 0.043522 -0.006973 -0.074992
v 0.036382 -0.022071 -0.076707
v -0.022152 -0.022325 -0.074953
v -0.009205 -0.030035 -0.075861
v -0.039721 0.016416 -0.071838
v -0.035380 0.031971 -0.070720
v -0.003894 0.044749 -0.122282
v -0.017888 0.039658 -0.122778
v 0.010720 0.043548 -0.122506
v 0.037447 0.010736 -0.125546
v 0.038221 -0.004133 -0.126006
v 0.031674 -0.018052 -0.126209
v -0.014063 -0.014330 -0.125846
v -0.004580 -0.021311 -0.126309
v -0.030112 0.017760 -0.124481
v -0.027836 0.029960 -0.123784
v -0.002154 0.042965 -0.153910
v -0.015095 0.038057 -0.154048
v 0.011572 0.040787 -0.154275
v 0.035026 0.008845 -0.157743
v 0.035744 -0.005060 -0.158022
v 0.029221 -0.018007 -0.157933
v 0.019566 -0.025293 -0.126530
v 0.018208 -0.023910 -0.158262
v 0.006646 -0.025713 -0.126587
v -0.002235 -0.017731 -0.158671
v 0.007427 -0.022742 -0.158591
v -0.011229 -0.011586 -0.158509
v -0.025272 0.017404 -0.156068
v -0.023836 0.028803 -0.154943
v -0.000720 0.042625 -0.167447
v -0.013013 0.038491 -0.167918
v 0.012156 0.039934 -0.167622
v 0.034222 0.007664 -0.170884
v 0.034859 -0.005713 -0.171681
v 0.029043 -0.017924 -0.171936
v 0.018217 -0.023837 -0.172291
v -0.001467 -0.016499 -0.172181
v 0.007715 -0.022278 -0.172213
v -0.010350 -0.010174 -0.171859
v -0.022743 0.018307 -0.169793
v -0.021473 0.029660 -0.168923
v 0.006197 -0.033261 -0.076822
v 0.023642 -0.033159 -0.058058
v 0.022301 -0.031089 -0.077403
v 0.029758 0.020506 -0.169708
v 0.030352 0.021653 -0.156501
v 0.031388 0.023959 -0.124674
v 0.034808 0.025720 -0.071587
v 0.037112 0.025154 -0.051374
v 0.022709 0.032042 -0.168576
v 0.022718 0.032809 -0.155181
v 0.022756 0.035430 -0.123637
v 0.024827 0.039740 -0.070319
v 0.027111 0.039833 -0.049796
v -0.006026 0.052674 -0.026628
v 0.013760 0.051282 -0.027030
v 0.028933 0.040175 -0.028221
v 0.039723 0.024983 -0.030038
v 0.048605 0.008526 -0.032691
v 0.049772 -0.010828 -0.035632
v 0.040536 -0.027471 -0.037247
v 0.023699 -0.037254 -0.036943
v 0.004773 -0.040274 -0.036853
v -0.013327 -0.038187 -0.036971
v -0.028552 -0.030896 -0.037043
v -0.045803 0.014229 -0.031642
v -0.038542 0.031082 -0.028801
v -0.024783 0.045353 -0.027158
v -0.005904 0.048012 -0.088349
v 0.010225 0.047429 -0.088570
v 0.023246 0.039084 -0.089209
v 0.032803 0.026273 -0.090115
v 0.039465 0.011560 -0.091283
v 0.041243 -0.005265 -0.092663
v 0.034612 -0.020301 -0.094043
v 0.021482 -0.028764 -0.094603
v 0.006662 -0.030368 -0.094079
v -0.007467 -0.026478 -0.093148
v -0.019093 -0.018721 -0.092222
v -0.036400 0.017231 -0.090282
v -0.033045 0.031447 -0.089492
v -0.021788 0.042354 -0.088709
v -0.021323 0.007601 -0.170617
v -0.023130 0.006584 -0.157298
v -0.027154 0.005918 -0.124894
v -0.034406 0.003575 -0.090942
v -0.038394 0.001541 -0.073037
v -0.042575 -0.000638 -0.054246
v -0.046597 -0.002647 -0.034373
v -0.016993 -0.001917 -0.171132
v -0.018113 -0.003066 -0.157988
v -0.021747 -0.004996 -0.125378
v -0.028509 -0.008637 -0.091605
v -0.032417 -0.011544 -0.074083
v -0.036351 -0.014636 -0.055372
v -0.039843 -0.017917 -0.036158
v 0.014431 0.050944 -0.005273
v -0.005265 0.053252 -0.005424
v -0.024609 0.046210 -0.006595
v -0.039679 0.031346 -0.008294
v -0.048309 0.014004 -0.011073
v -0.049439 -0.004096 -0.014036
v -0.043292 -0.020656 -0.016234
v -0.031786 -0.034587 -0.017286
v -0.015684 -0.041900 -0.016598
v 0.003582 -0.043642 -0.016096
v 0.023590 -0.041329 -0.016166
v 0.041429 -0.031607 -0.016466
v 0.052079 -0.014188 -0.014912
v 0.052181 0.007231 -0.012162
v 0.042944 0.025335 -0.009249
v 0.030148 0.040083 -0.006904
v -0.003268 0.043638 -0.138802
v 0.011119 0.041865 -0.139095
v 0.022740 0.033752 -0.140157
v 0.030849 0.022719 -0.141140
v 0.036095 0.009912 -0.141859
v 0.036806 -0.004235 -0.142217
v 0.030192 -0.018023 -0.142342
v 0.018245 -0.024414 -0.142782
v 0.006712 -0.023843 -0.142998
v -0.003519 -0.019264 -0.142768
v -0.012643 -0.012674 -0.142467
v -0.019704 -0.003718 -0.142063
v -0.024872 0.006421 -0.141501
v -0.027622 0.017541 -0.140672
v -0.025802 0.029088 -0.139849
v -0.016597 0.038487 -0.139109
v -0.004704 0.046210 -0.105579
v 0.010656 0.045190 -0.105887
v 0.022904 0.037223 -0.106878
v 0.031880 0.025302 -0.107740
v 0.038525 0.011436 -0.108571
v 0.039438 -0.004169 -0.109358
v 0.033059 -0.018847 -0.110157
v 0.020635 -0.026754 -0.110631
v 0.006637 -0.027834 -0.110557
v -0.006036 -0.023566 -0.110015
v -0.016393 -0.015909 -0.109353
v -0.024754 -0.006426 -0.108842
v -0.030527 0.004970 -0.108279
v -0.033061 0.017593 -0.107587
v -0.030233 0.030615 -0.106810
v -0.019593 0.040848 -0.106038
vn -0.5480 0.8359 -0.0317
vn -0.1417 0.9895 -0.0278
vn -0.1447 0.9880 -0.0537
vn -0.5416 0.8394 -0.0463
vn 0.3438 0.9385 -0.0322
vn 0.3380 0.9388 -0.0666
vn 0.8505 0.5168 -0.0974
vn 0.8343 0.5398 -0.1118
vn 0.9479 0.2857 -0.1408
vn 0.9457 0.2951 -0.1365
vn 0.9652 -0.2049 -0.1625
vn 0.9731 -0.1561 -0.1693
vn -0.2692 -0.9384 -0.2168
vn -0.5924 -0.7682 -0.2427
vn -0.5974 -0.7589 -0.2594
vn -0.3049 -0.9245 -0.2287
vn -0.9582 -0.1943 -0.2099
vn -0.9708 -0.1627 -0.1764
vn -0.9679 0.2235 -0.1151
vn -0.9757 0.1704 -0.1379
vn -0.8286 0.5568 -0.0588
vn -0.8447 0.5307 -0.0698
vn -0.1448 0.9854 -0.0891
vn -0.5315 0.8422 -0.0906
vn 0.3201 0.9429 -0.0920
vn 0.8587 0.5047 -0.0892
vn 0.9556 0.2696 -0.1191
vn 0.9761 -0.1548 -0.1523
vn -0.6147 -0.7457 -0.2570
vn -0.3629 -0.9046 -0.2234
vn -0.9461 -0.2318 -0.2262
vn -0.9805 0.1072 -0.1645
vn -0.8543 0.5077 -0.1113
vn -0.5200 0.8449 -0.1255
vn -0.1398 0.9842 -0.1089
vn -0.1350 0.9865 -0.0932
vn -0.5268 0.8433 -0.1069
vn 0.3101 0.9453 -0.1008
vn 0.3247 0.9416 -0.0889
vn 0.8555 0.5126 -0.0727
vn 0.8534 0.5167 -0.0693
vn 0.9651 0.2525 -0.0693
vn 0.9670 0.2425 -0.0776
vn 0.9816 -0.1681 -0.0903
vn 0.9797 -0.1817 -0.0843
vn -0.4558 -0.8738 -0.1696
vn -0.6657 -0.7204 -0.1944
vn -0.6816 -0.7154 -0.1535
vn -0.4801 -0.8658 -0.1411
vn -0.9286 -0.3304 -0.1691
vn -0.9283 -0.3063 -0.2110
vn -0.9824 0.0170 -0.1859
vn -0.9867 -0.0162 -0.1615
vn -0.8593 0.4871 -0.1560
vn -0.8697 0.4730 -0.1409
vn -0.5398 0.8367 -0.0923
vn -0.1188 0.9904 -0.0709
vn -0.0967 0.9941 -0.0486
vn -0.5481 0.8330 -0.0761
vn 0.3543 0.9329 -0.0649
vn 0.3796 0.9242 -0.0430
vn 0.8841 0.4627 -0.0654
vn 0.8696 0.4895 -0.0644
vn 0.9730 0.2184 -0.0750
vn 0.9765 0.2030 -0.0723
vn 0.9778 -0.1970 -0.0722
vn 0.9781 -0.2014 -0.0525
vn 0.7232 -0.6881 -0.0587
vn 0.7211 -0.6922 -0.0294
vn -0.4964 -0.8598 -0.1195
vn -0.6852 -0.7177 -0.1238
vn -0.6787 -0.7251 -0.1167
vn -0.5169 -0.8498 -0.1028
vn -0.9399 -0.3148 -0.1325
vn -0.9341 -0.3334 -0.1278
vn -0.9898 -0.0269 -0.1399
vn -0.9881 -0.0191 -0.1523
vn -0.8822 0.4519 -0.1320
vn -0.8927 0.4311 -0.1317
vn -0.0643 0.9978 -0.0163
vn -0.5410 0.8384 -0.0656
vn 0.4099 0.9121 -0.0006
vn 0.9025 0.4291 -0.0356
vn 0.9809 0.1890 -0.0450
vn 0.9788 -0.2031 -0.0273
vn 0.7188 -0.6952 0.0039
vn -0.6908 -0.7138 -0.1152
vn -0.5613 -0.8238 -0.0792
vn -0.9511 -0.2566 -0.1721
vn -0.9814 0.0103 -0.1915
vn -0.8943 0.4222 -0.1486
vn 0.7124 -0.6771 -0.1846
vn 0.7421 -0.6485 -0.1697
vn 0.3560 -0.9206 -0.1605
vn 0.3269 -0.9262 -0.1879
vn 0.0247 -0.9813 -0.1910
vn 0.0178 -0.9841 -0.1770
vn 0.7473 -0.6477 -0.1480
vn 0.7535 -0.6475 -0.1139
vn 0.7441 -0.6621 -0.0894
vn 0.2264 -0.9722 -0.0594
vn 0.1967 -0.9800 -0.0300
vn -0.2281 -0.9692 -0.0931
vn -0.2860 -0.9561 -0.0637
vn 0.1689 -0.9855 0.0137
vn -0.3525 -0.9356 -0.0219
vn 0.3438 -0.9285 -0.1406
vn -0.0405 -0.9845 -0.1704
vn -0.1263 -0.9817 -0.1428
vn -0.1718 -0.9781 -0.1177
vn 0.3108 -0.9423 -0.1245
vn 0.2813 -0.9548 -0.0963
vn 0.7393 0.6733 -0.0110
vn 0.7103 0.7021 -0.0498
vn 0.6949 0.7166 -0.0603
vn 0.6813 0.7278 -0.0788
vn 0.6756 0.7322 -0.0856
vn 0.6989 0.7100 -0.0864
vn 0.7117 0.6981 -0.0780
vn 0.6996 0.7117 -0.0637
vn 0.3034 0.9470 -0.1053
vn -0.1468 0.9824 -0.1156
vn 0.6823 0.7259 -0.0868
vn 0.8568 0.5101 -0.0747
vn 0.9610 0.2627 -0.0859
vn 0.9808 -0.1535 -0.1201
vn 0.7558 -0.6395 -0.1408
vn 0.3288 -0.9332 -0.1448
vn -0.0875 -0.9824 -0.1649
vn -0.4148 -0.8868 -0.2039
vn -0.6381 -0.7323 -0.2378
vn -0.9351 -0.2721 -0.2273
vn -0.9810 0.0564 -0.1856
vn -0.8557 0.4950 -0.1511
vn -0.5225 0.8430 -0.1282
vn -0.8469 -0.5140 -0.1363
vn -0.8353 -0.5373 -0.1166
vn -0.8368 -0.5339 -0.1213
vn -0.8291 -0.5343 -0.1647
vn -0.8154 -0.5378 -0.2141
vn -0.8075 -0.5348 -0.2486
vn -0.8099 -0.5260 -0.2597
vn -0.8187 -0.5170 -0.2499
vn -0.8363 -0.5007 -0.2234
vn -0.1004 0.9944 -0.0338
vn 0.3591 0.9333 -0.0063
vn -0.5282 0.8469 -0.0612
vn -0.8072 0.5851 -0.0782
vn -0.9572 0.2673 -0.1108
vn -0.9794 -0.1263 -0.1577
vn -0.8564 -0.4774 -0.1968
vn -0.5956 -0.7761 -0.2070
vn -0.2493 -0.9527 -0.1736
vn 0.0089 -0.9878 -0.1556
vn 0.2975 -0.9418 -0.1569
vn 0.6762 -0.7183 -0.1638
vn 0.9568 -0.2527 -0.1438
vn 0.9608 0.2476 -0.1244
vn 0.8180 0.5679 -0.0915
vn 0.6593 0.7510 -0.0362
vt 0.769042 0.856839
vt 0.768417 0.844977
vt 0.775645 0.844819
vt 0.775888 0.856764
vt 0.768021 0.833195
vt 0.775529 0.833192
vt 0.775622 0.811065
vt 0.767584 0.811063
vt 0.767842 0.800344
vt 0.775990 0.800229
vt 0.768158 0.789588
vt 0.776321 0.789447
vt 0.770223 0.748804
vt 0.770995 0.739943
vt 0.779304 0.740378
vt 0.778402 0.749273
vt 0.781233 0.722882
vt 0.772477 0.722436
vt 0.772390 0.713040
vt 0.782185 0.713735
vt 0.769796 0.879650
vt 0.769498 0.868440
vt 0.776320 0.868516
vt 0.777028 0.879870
vt 0.782858 0.844751
vt 0.782748 0.856657
vt 0.783105 0.833091
vt 0.783711 0.810955
vt 0.784096 0.800148
vt 0.784490 0.789124
vt 0.787600 0.740477
vt 0.786692 0.749277
vt 0.790273 0.723325
vt 0.792689 0.714570
vt 0.782845 0.868410
vt 0.783256 0.879680
vt 0.795027 0.856988
vt 0.796164 0.845080
vt 0.802599 0.845137
vt 0.801016 0.856939
vt 0.797196 0.833274
vt 0.803865 0.833061
vt 0.805822 0.810132
vt 0.798784 0.810516
vt 0.799301 0.799507
vt 0.806520 0.799012
vt 0.799849 0.788505
vt 0.807168 0.787936
vt 0.802332 0.748490
vt 0.803078 0.740053
vt 0.810340 0.739747
vt 0.809689 0.748074
vt 0.811591 0.723366
vt 0.804899 0.723500
vt 0.806146 0.714964
vt 0.812145 0.714850
vt 0.792685 0.879983
vt 0.793876 0.868755
vt 0.799243 0.868924
vt 0.797368 0.880110
vt 0.807530 0.856850
vt 0.809433 0.844708
vt 0.816246 0.844514
vt 0.814074 0.856610
vt 0.810999 0.832525
vt 0.818293 0.832293
vt 0.821697 0.808438
vt 0.813402 0.809379
vt 0.814362 0.798099
vt 0.822605 0.796911
vt 0.815020 0.786992
vt 0.823192 0.785626
vt 0.815599 0.775805
vt 0.823834 0.774309
vt 0.817334 0.747499
vt 0.817800 0.739304
vt 0.825488 0.738328
vt 0.825162 0.746307
vt 0.826207 0.723243
vt 0.818638 0.723414
vt 0.818668 0.715129
vt 0.826560 0.715690
vt 0.803166 0.880200
vt 0.805412 0.868894
vt 0.811914 0.868711
vt 0.809955 0.879759
vt 0.822257 0.844162
vt 0.819793 0.856256
vt 0.824497 0.831917
vt 0.827912 0.807805
vt 0.829059 0.796001
vt 0.830053 0.784418
vt 0.830886 0.772638
vt 0.832033 0.736815
vt 0.831706 0.744502
vt 0.832805 0.722810
vt 0.833640 0.716285
vt 0.817295 0.868091
vt 0.814937 0.879196
vt 0.768343 0.778729
vt 0.776489 0.778730
vt 0.776751 0.768383
vt 0.768500 0.768164
vt 0.769223 0.758177
vt 0.777555 0.758506
vt 0.784905 0.778501
vt 0.800357 0.777404
vt 0.807802 0.776766
vt 0.816074 0.765568
vt 0.824420 0.764092
vt 0.816714 0.756192
vt 0.824808 0.754872
vt 0.831433 0.761883
vt 0.831504 0.752856
vt 0.785567 0.768185
vt 0.786040 0.758418
vt 0.801674 0.757477
vt 0.808953 0.756885
vt 0.800948 0.767088
vt 0.808294 0.766454
vt 0.826476 0.819712
vt 0.820209 0.820134
vt 0.812254 0.820770
vt 0.804866 0.821434
vt 0.798109 0.821712
vt 0.783365 0.821942
vt 0.775415 0.822030
vt 0.767592 0.821965
vt 0.790547 0.833127
vt 0.789787 0.844953
vt 0.791445 0.821747
vt 0.791904 0.810708
vt 0.792192 0.799817
vt 0.792570 0.788896
vt 0.793126 0.778067
vt 0.793667 0.767628
vt 0.794221 0.757900
vt 0.794809 0.748905
vt 0.795625 0.740301
vt 0.797981 0.723508
vt 0.799875 0.714955
vt 0.788696 0.868545
vt 0.788593 0.879735
vt 0.789145 0.856761
vt 0.832322 0.729600
vt 0.825894 0.730713
vt 0.818276 0.731359
vt 0.810998 0.731615
vt 0.803911 0.731791
vt 0.796604 0.731887
vt 0.788725 0.731873
vt 0.780274 0.731666
vt 0.771875 0.731287
vt 0.761628 0.844802
vt 0.761094 0.833185
vt 0.762398 0.856664
vt 0.763224 0.868118
vt 0.764406 0.879550
vt 0.765320 0.722230
vt 0.767078 0.712767
vt 0.764188 0.730991
vt 0.763252 0.739447
vt 0.762258 0.748176
vt 0.761472 0.757684
vt 0.760892 0.767836
vt 0.760600 0.778592
vt 0.760496 0.789582
vt 0.760544 0.800430
vt 0.760600 0.811112
vt 0.760762 0.821931
s 1
usemtl PackedMaterial0mat.002
f 84/1/1 71/2/2 1/3/3
f 84/1/1 1/3/3 11/4/4
f 71/2/2 72/5/5 2/6/6
f 71/2/2 2/6/6 1/3/3
f 65/7/7 74/8/8 75/9/9
f 65/7/7 75/9/9 3/10/10
f 75/9/9 76/11/11 4/12/12
f 75/9/9 4/12/12 3/10/10
f 80/13/13 81/14/14 8/15/15
f 80/13/13 8/15/15 7/16/16
f 104/17/17 105/18/18 82/19/19
f 104/17/17 82/19/19 9/20/20
f 82/21/19 83/22/21 10/23/22
f 82/21/19 10/23/22 9/24/20
f 83/22/21 84/1/1 11/4/4
f 83/22/21 11/4/4 10/23/22
f 11/4/4 1/3/3 12/25/23
f 11/4/4 12/25/23 13/26/24
f 1/3/3 2/6/6 14/27/25
f 1/3/3 14/27/25 12/25/23
f 64/28/26 65/7/7 3/10/10
f 64/28/26 3/10/10 15/29/27
f 3/10/10 4/12/12 16/30/28
f 3/10/10 16/30/28 15/29/27
f 7/16/16 8/15/15 18/31/29
f 7/16/16 18/31/29 19/32/30
f 103/33/31 104/17/17 9/20/20
f 103/33/31 9/20/20 20/34/32
f 9/24/20 10/23/22 21/35/33
f 9/24/20 21/35/33 20/36/32
f 10/23/22 11/4/4 13/26/24
f 10/23/22 13/26/24 21/35/33
f 160/37/34 145/38/35 22/39/36
f 160/37/34 22/39/36 23/40/37
f 145/38/35 146/41/38 24/42/39
f 145/38/35 24/42/39 22/39/36
f 63/43/40 148/44/41 149/45/42
f 63/43/40 149/45/42 25/46/43
f 149/45/42 150/47/44 26/48/45
f 149/45/42 26/48/45 25/46/43
f 154/49/46 155/50/47 28/51/48
f 154/49/46 28/51/48 29/52/49
f 101/53/50 157/54/51 158/55/52
f 101/53/50 158/55/52 30/56/53
f 158/57/52 159/58/54 31/59/55
f 158/57/52 31/59/55 30/60/53
f 159/58/54 160/37/34 23/40/37
f 159/58/54 23/40/37 31/59/55
f 144/61/56 129/62/57 32/63/58
f 144/61/56 32/63/58 33/64/59
f 129/62/57 130/65/60 34/66/61
f 129/62/57 34/66/61 32/63/58
f 62/67/62 132/68/63 133/69/64
f 62/67/62 133/69/64 35/70/65
f 133/69/64 134/71/66 36/72/67
f 133/69/64 36/72/67 35/70/65
f 134/71/66 135/73/68 37/74/69
f 134/71/66 37/74/69 36/72/67
f 138/75/70 139/76/71 43/77/72
f 138/75/70 43/77/72 41/78/73
f 100/79/74 141/80/75 142/81/76
f 100/79/74 142/81/76 44/82/77
f 142/83/76 143/84/78 45/85/79
f 142/83/76 45/85/79 44/86/77
f 143/84/78 144/61/56 33/64/59
f 143/84/78 33/64/59 45/85/79
f 33/64/59 32/63/58 46/87/80
f 33/64/59 46/87/80 47/88/81
f 32/63/58 34/66/61 48/89/82
f 32/63/58 48/89/82 46/87/80
f 61/90/83 62/67/62 35/70/65
f 61/90/83 35/70/65 49/91/84
f 35/70/65 36/72/67 50/92/85
f 35/70/65 50/92/85 49/91/84
f 36/72/67 37/74/69 51/93/86
f 36/72/67 51/93/86 50/92/85
f 41/78/73 43/77/72 55/94/87
f 41/78/73 55/94/87 53/95/88
f 99/96/89 100/79/74 44/82/77
f 99/96/89 44/82/77 56/97/90
f 44/86/77 45/85/79 57/98/91
f 44/86/77 57/98/91 56/99/90
f 45/85/79 33/64/59 47/88/81
f 45/85/79 47/88/81 57/98/91
f 4/12/12 76/11/11 77/100/92
f 4/12/12 77/100/92 5/101/93
f 59/102/94 78/103/95 79/104/96
f 59/102/94 79/104/96 6/105/97
f 79/104/96 80/13/13 7/16/16
f 79/104/96 7/16/16 6/105/97
f 17/106/98 16/30/28 4/12/12
f 17/106/98 4/12/12 5/101/93
f 26/48/45 150/47/44 151/107/99
f 26/48/45 151/107/99 27/108/100
f 135/73/68 136/109/101 39/110/102
f 135/73/68 39/110/102 37/74/69
f 137/111/103 138/75/70 41/78/73
f 137/111/103 41/78/73 42/112/104
f 37/74/69 39/110/102 52/113/105
f 37/74/69 52/113/105 51/93/86
f 42/112/104 41/78/73 53/95/88
f 42/112/104 53/95/88 54/114/106
f 60/115/107 59/102/94 6/105/97
f 60/115/107 6/105/97 58/116/108
f 58/116/108 6/105/97 7/16/16
f 58/116/108 7/16/16 19/32/30
f 39/110/102 42/112/104 54/114/106
f 39/110/102 54/114/106 52/113/105
f 136/109/101 137/111/103 42/112/104
f 136/109/101 42/112/104 39/110/102
f 153/117/109 154/49/46 29/52/49
f 153/117/109 29/52/49 40/118/110
f 152/119/111 153/117/109 40/118/110
f 152/119/111 40/118/110 38/120/112
f 151/107/99 152/119/111 38/120/112
f 151/107/99 38/120/112 27/108/100
f 60/115/107 17/106/98 5/101/93
f 60/115/107 5/101/93 59/102/94
f 77/100/92 78/103/95 59/102/94
f 77/100/92 59/102/94 5/101/93
f 66/121/113 67/122/114 62/67/62
f 66/121/113 62/67/62 61/90/83
f 67/122/114 131/123/115 132/68/63
f 67/122/114 132/68/63 62/67/62
f 68/124/116 147/125/117 148/44/41
f 68/124/116 148/44/41 63/43/40
f 69/126/118 70/127/119 65/7/7
f 69/126/118 65/7/7 64/28/26
f 70/127/119 73/128/120 74/8/8
f 70/127/119 74/8/8 65/7/7
f 34/66/61 67/122/114 66/121/113
f 34/66/61 66/121/113 48/89/82
f 130/65/60 131/123/115 67/122/114
f 130/65/60 67/122/114 34/66/61
f 146/41/38 147/125/117 68/124/116
f 146/41/38 68/124/116 24/42/39
f 2/6/6 70/127/119 69/126/118
f 2/6/6 69/126/118 14/27/25
f 72/5/5 73/128/120 70/127/119
f 72/5/5 70/127/119 2/6/6
f 12/25/23 14/27/25 86/129/121
f 12/25/23 86/129/121 85/130/122
f 14/27/25 69/126/118 87/131/123
f 14/27/25 87/131/123 86/129/121
f 88/132/124 87/131/123 69/126/118
f 88/132/124 69/126/118 64/28/26
f 89/133/125 88/132/124 64/28/26
f 89/133/125 64/28/26 15/29/27
f 15/29/27 16/30/28 90/134/126
f 15/29/27 90/134/126 89/133/125
f 91/135/127 90/134/126 16/30/28
f 91/135/127 16/30/28 17/106/98
f 60/115/107 92/136/128 91/135/127
f 60/115/107 91/135/127 17/106/98
f 58/116/108 93/137/129 92/136/128
f 58/116/108 92/136/128 60/115/107
f 58/116/108 19/32/30 94/138/130
f 58/116/108 94/138/130 93/137/129
f 19/32/30 18/31/29 95/139/131
f 19/32/30 95/139/131 94/138/130
f 102/140/132 103/33/31 20/34/32
f 102/140/132 20/34/32 96/141/133
f 20/36/32 21/35/33 97/142/134
f 20/36/32 97/142/134 96/143/133
f 21/35/33 13/26/24 98/144/135
f 21/35/33 98/144/135 97/142/134
f 13/26/24 12/25/23 85/130/122
f 13/26/24 85/130/122 98/144/135
f 106/145/136 107/146/137 100/79/74
f 106/145/136 100/79/74 99/96/89
f 107/146/137 140/147/138 141/80/75
f 107/146/137 141/80/75 100/79/74
f 108/148/139 156/149/140 157/54/51
f 108/148/139 157/54/51 101/53/50
f 109/150/141 110/151/142 103/33/31
f 109/150/141 103/33/31 102/140/132
f 110/151/142 111/152/143 104/17/17
f 110/151/142 104/17/17 103/33/31
f 111/152/143 112/153/144 105/18/18
f 111/152/143 105/18/18 104/17/17
f 43/77/72 107/146/137 106/145/136
f 43/77/72 106/145/136 55/94/87
f 139/76/71 140/147/138 107/146/137
f 139/76/71 107/146/137 43/77/72
f 155/50/47 156/149/140 108/148/139
f 155/50/47 108/148/139 28/51/48
f 18/31/29 110/151/142 109/150/141
f 18/31/29 109/150/141 95/139/131
f 8/15/15 111/152/143 110/151/142
f 8/15/15 110/151/142 18/31/29
f 81/14/14 112/153/144 111/152/143
f 81/14/14 111/152/143 8/15/15
f 114/154/145 113/155/146 72/5/5
f 114/154/145 72/5/5 71/2/2
f 115/156/147 114/154/145 71/2/2
f 115/156/147 71/2/2 84/1/1
f 116/157/148 115/156/147 84/1/1
f 116/157/148 84/1/1 83/22/21
f 117/158/149 116/157/148 83/22/21
f 117/158/149 83/22/21 82/21/19
f 105/18/18 118/159/150 117/160/149
f 105/18/18 117/160/149 82/19/19
f 112/153/144 119/161/151 118/159/150
f 112/153/144 118/159/150 105/18/18
f 120/162/152 119/161/151 112/153/144
f 120/162/152 112/153/144 81/14/14
f 121/163/153 120/162/152 81/14/14
f 121/163/153 81/14/14 80/13/13
f 122/164/154 121/163/153 80/13/13
f 122/164/154 80/13/13 79/104/96
f 79/104/96 78/103/95 123/165/155
f 79/104/96 123/165/155 122/164/154
f 124/166/156 123/165/155 78/103/95
f 124/166/156 78/103/95 77/100/92
f 77/100/92 76/11/11 125/167/157
f 77/100/92 125/167/157 124/166/156
f 126/168/158 125/167/157 76/11/11
f 126/168/158 76/11/11 75/9/9
f 75/9/9 74/8/8 127/169/159
f 75/9/9 127/169/159 126/168/158
f 74/8/8 73/128/120 128/170/160
f 74/8/8 128/170/160 127/169/159
f 113/155/146 128/170/160 73/128/120
f 113/155/146 73/128/120 72/5/5
f 22/39/36 24/42/39 130/65/60
f 22/39/36 130/65/60 129/62/57
f 24/42/39 68/124/116 131/123/115
f 24/42/39 131/123/115 130/65/60
f 132/68/63 131/123/115 68/124/116
f 132/68/63 68/124/116 63/43/40
f 133/69/64 132/68/63 63/43/40
f 133/69/64 63/43/40 25/46/43
f 25/46/43 26/48/45 134/71/66
f 25/46/43 134/71/66 133/69/64
f 26/48/45 27/108/100 135/73/68
f 26/48/45 135/73/68 134/71/66
f 27/108/100 38/120/112 136/109/101
f 27/108/100 136/109/101 135/73/68
f 38/120/112 40/118/110 137/111/103
f 38/120/112 137/111/103 136/109/101
f 40/118/110 29/52/49 138/75/70
f 40/118/110 138/75/70 137/111/103
f 29/52/49 28/51/48 139/76/71
f 29/52/49 139/76/71 138/75/70
f 28/51/48 108/148/139 140/147/138
f 28/51/48 140/147/138 139/76/71
f 141/80/75 140/147/138 108/148/139
f 141/80/75 108/148/139 101/53/50
f 142/81/76 141/80/75 101/53/50
f 142/81/76 101/53/50 30/56/53
f 30/60/53 31/59/55 143/84/78
f 30/60/53 143/84/78 142/83/76
f 31/59/55 23/40/37 144/61/56
f 31/59/55 144/61/56 143/84/78
f 23/40/37 22/39/36 129/62/57
f 23/40/37 129/62/57 144/61/56
f 85/130/122 86/129/121 146/41/38
f 85/130/122 146/41/38 145/38/35
f 86/129/121 87/131/123 147/125/117
f 86/129/121 147/125/117 146/41/38
f 148/44/41 147/125/117 87/131/123
f 148/44/41 87/131/123 88/132/124
f 149/45/42 148/44/41 88/132/124
f 149/45/42 88/132/124 89/133/125
f 89/133/125 90/134/126 150/47/44
f 89/133/125 150/47/44 149/45/42
f 151/107/99 150/47/44 90/134/126
f 151/107/99 90/134/126 91/135/127
f 91/135/127 92/136/128 152/119/111
f 91/135/127 152/119/111 151/107/99
f 92/136/128 93/137/129 153/117/109
f 92/136/128 153/117/109 152/119/111
f 93/137/129 94/138/130 154/49/46
f 93/137/129 154/49/46 153/117/109
f 94/138/130 95/139/131 155/50/47
f 94/138/130 155/50/47 154/49/46
f 95/139/131 109/150/141 156/149/140
f 95/139/131 156/149/140 155/50/47
f 157/54/51 156/149/140 109/150/141
f 157/54/51 109/150/141 102/140/132
f 158/55/52 157/54/51 102/140/132
f 158/55/52 102/140/132 96/141/133
f 96/143/133 97/142/134 159/58/54
f 96/143/133 159/58/54 158/57/52
f 97/142/134 98/144/135 160/37/34
f 97/142/134 160/37/34 159/58/54
f 98/144/135 85/130/122 145/38/35
f 98/144/135 145/38/35 160/37/34
