# Blender 4.0.2
# www.blender.org
o DocPart2_left_hand
v -0.160099 0.112661 0.878152
v -0.168735 0.121110 0.876628
v -0.167315 0.123582 0.869145
v -0.156679 0.116231 0.870382
v -0.153505 0.105402 0.870947
v -0.157964 0.101387 0.878140
v -0.161725 0.065469 0.877355
v -0.155374 0.063806 0.869006
v -0.164932 0.042016 0.866760
v -0.174355 0.044561 0.874311
v -0.165915 0.053680 0.876510
v -0.157321 0.050443 0.869079
v -0.188601 0.042393 0.872836
v -0.180624 0.037065 0.862465
v -0.209696 0.062745 0.856327
v -0.211266 0.067110 0.868267
v -0.202493 0.049065 0.868778
v -0.199997 0.047579 0.858453
v -0.211783 0.085221 0.857385
v -0.212395 0.085798 0.869319
v -0.196022 0.122320 0.873316
v -0.194849 0.124014 0.866849
v -0.185451 0.126452 0.874728
v -0.182950 0.127559 0.869078
v -0.171547 0.137889 1.132939
v -0.150026 0.131973 1.135851
v -0.193472 0.126642 1.154777
v -0.190470 0.128256 1.136734
v -0.234848 0.082246 1.144858
v -0.233760 0.082101 1.127018
v -0.232604 0.059494 1.142586
v -0.232068 0.059508 1.124551
v -0.134499 0.112879 1.131714
v -0.132001 0.111058 1.150256
v -0.139482 0.041420 1.121758
v -0.138957 0.040167 1.139557
v -0.122146 0.093149 1.146287
v -0.124115 0.094319 1.128034
v -0.156199 0.034646 1.122290
v -0.157160 0.035246 1.139592
v -0.171987 0.134426 1.114681
v -0.151361 0.128581 1.114067
v -0.191869 0.129650 1.115353
v -0.231585 0.083593 1.107980
v -0.230252 0.061377 1.105465
v -0.135438 0.112535 1.111955
v -0.126020 0.094149 1.108872
v -0.141431 0.043080 1.102576
v -0.157815 0.035844 1.103340
v -0.170894 0.131675 1.051073
v -0.152364 0.125106 1.050862
v -0.189663 0.130555 1.050863
v -0.221649 0.088950 1.046221
v -0.223418 0.072051 1.043874
v -0.151055 0.053674 1.043689
v -0.165494 0.046046 1.042860
v -0.133732 0.095501 1.047612
v -0.139461 0.111842 1.049693
v -0.170273 0.130069 1.030364
v -0.153213 0.124105 1.029958
v -0.187892 0.129213 1.030340
v -0.218447 0.089777 1.026688
v -0.220103 0.073027 1.025001
v -0.154430 0.057676 1.025040
v -0.167376 0.049966 1.024132
v -0.136860 0.096417 1.028155
v -0.141202 0.111972 1.029273
v -0.172688 0.124749 0.977711
v -0.158692 0.119659 0.977215
v -0.187301 0.123548 0.977487
v -0.214028 0.090738 0.974446
v -0.214802 0.075868 0.973987
v -0.162518 0.065671 0.974147
v -0.172001 0.058690 0.973684
v -0.146470 0.097761 0.975513
v -0.148745 0.109961 0.976210
v -0.174427 0.122965 0.946082
v -0.161486 0.118058 0.945945
v -0.188154 0.120788 0.945717
v -0.211606 0.088846 0.942250
v -0.212324 0.074941 0.941971
v -0.208255 0.061949 0.973783
v -0.205801 0.061994 0.942060
v -0.165351 0.068416 0.941485
v -0.174346 0.062271 0.941322
v -0.151309 0.097405 0.943926
v -0.152745 0.108803 0.945050
v -0.175861 0.122626 0.932546
v -0.163568 0.118492 0.932075
v -0.188737 0.119935 0.932371
v -0.210803 0.087664 0.929108
v -0.211441 0.074288 0.928312
v -0.205625 0.062078 0.928056
v -0.166230 0.069826 0.928134
v -0.175114 0.063503 0.927812
v -0.153837 0.098308 0.930200
v -0.155107 0.109662 0.931070
v -0.212022 0.069872 0.889149
v -0.211536 0.071754 0.902598
v -0.204578 0.058985 0.902671
v -0.204881 0.055266 0.889547
v -0.211583 0.086422 0.903497
v -0.212594 0.086303 0.890282
v -0.194867 0.120895 0.893932
v -0.192242 0.120146 0.906581
v -0.184270 0.125155 0.894247
v -0.179782 0.123685 0.906998
v -0.169418 0.120294 0.894719
v -0.166702 0.119589 0.906800
v -0.161351 0.110762 0.894809
v -0.159790 0.110219 0.906156
v -0.160645 0.099778 0.893654
v -0.159318 0.099413 0.905357
v -0.168330 0.069724 0.893028
v -0.168174 0.070984 0.903904
v -0.175723 0.060967 0.891871
v -0.176099 0.063476 0.903349
v -0.193923 0.052679 0.902930
v -0.193105 0.047782 0.889905
v -0.182747 0.052171 0.890742
v -0.183811 0.055536 0.902993
v -0.219281 0.042993 1.140483
v -0.218875 0.042396 1.122805
v -0.198599 0.034133 1.122688
v -0.199126 0.035388 1.139586
v -0.177428 0.035640 1.139206
v -0.175936 0.033955 1.122688
v -0.218051 0.043870 1.103901
v -0.198801 0.035037 1.103860
v -0.177720 0.034102 1.103814
v -0.215317 0.056450 1.042244
v -0.200223 0.046841 1.041935
v -0.182698 0.043718 1.042239
v -0.212964 0.057930 1.023286
v -0.196147 0.054708 0.973463
v -0.194789 0.056091 0.941731
v -0.183228 0.054288 0.973406
v -0.184009 0.057259 0.941401
v -0.194797 0.056164 0.927702
v -0.184295 0.057722 0.927779
v -0.198883 0.048912 1.022590
v -0.182778 0.046740 1.023171
v -0.149729 0.060679 0.857800
v -0.149575 0.111094 0.860359
v -0.209511 0.101419 0.862406
v -0.209064 0.102397 0.871116
v -0.208996 0.101010 0.891697
v -0.207566 0.099947 0.904533
v -0.206338 0.100506 0.930284
v -0.206933 0.101654 0.943492
v -0.207969 0.103960 0.975318
v -0.211390 0.105721 1.028405
v -0.213695 0.105154 1.048619
v -0.223532 0.103642 1.110562
v -0.226284 0.102641 1.129486
v -0.226922 0.103397 1.147360
v -0.204138 0.114085 0.864303
v -0.203001 0.114324 0.872479
v -0.202993 0.112544 0.892977
v -0.201458 0.111481 0.905526
v -0.199291 0.112043 0.931416
v -0.199298 0.112810 0.944812
v -0.199336 0.115431 0.976356
v -0.201408 0.119741 1.029674
v -0.203693 0.119834 1.050197
v -0.208361 0.118468 1.113532
v -0.210391 0.116886 1.132795
v -0.211803 0.118334 1.150678
v -0.170557 0.132675 1.073365
v -0.190343 0.131284 1.072963
v -0.205515 0.120176 1.071772
v -0.216305 0.104985 1.069955
v -0.225187 0.088527 1.067301
v -0.226355 0.069173 1.064360
v -0.217118 0.052530 1.062746
v -0.200281 0.042747 1.063049
v -0.181355 0.039727 1.063140
v -0.163255 0.041814 1.063022
v -0.148030 0.049105 1.062950
v -0.130780 0.094231 1.068351
v -0.138041 0.111083 1.071193
v -0.151800 0.125355 1.072835
v -0.170677 0.128012 1.011644
v -0.186806 0.127430 1.011423
v -0.199827 0.119085 1.010783
v -0.209385 0.106274 1.009878
v -0.216046 0.091561 1.008710
v -0.217824 0.074735 1.007329
v -0.211194 0.059700 1.005950
v -0.198063 0.051237 1.005390
v -0.183245 0.049633 1.005913
v -0.169115 0.053523 1.006845
v -0.157489 0.061280 1.007771
v -0.140182 0.097232 1.009712
v -0.143537 0.111449 1.010501
v -0.154794 0.122355 1.011285
v -0.150500 0.096811 0.861098
v -0.155730 0.092751 0.869962
v -0.158274 0.089757 0.877867
v -0.159538 0.088581 0.893355
v -0.159023 0.088691 0.904752
v -0.155257 0.087603 0.929376
v -0.153451 0.086586 0.942696
v -0.149427 0.085919 0.975099
v -0.142175 0.083576 1.009051
v -0.138187 0.081542 1.026957
v -0.134007 0.079363 1.045747
v -0.129986 0.077354 1.065620
v -0.124390 0.074596 1.105513
v -0.122186 0.073604 1.124716
v -0.120845 0.071800 1.143030
v -0.153904 0.078958 0.860820
v -0.157258 0.078863 0.869083
v -0.159983 0.077910 0.877488
v -0.162165 0.078675 0.893143
v -0.162460 0.079362 0.904229
v -0.159587 0.078084 0.928861
v -0.158467 0.076935 0.942005
v -0.154835 0.075005 0.974615
v -0.148073 0.071364 1.008388
v -0.144165 0.068457 1.025911
v -0.140231 0.065365 1.044621
v -0.136739 0.062085 1.063835
v -0.130466 0.057043 1.103355
v -0.127978 0.055161 1.122590
v -0.126365 0.053127 1.140680
v -0.152767 0.078908 0.852459
v -0.170587 0.121104 0.884619
v -0.186651 0.125832 0.882974
v -0.196887 0.121506 0.882145
v -0.203381 0.113394 0.881757
v -0.209384 0.101912 0.880492
v -0.212697 0.086104 0.879245
v -0.211866 0.068795 0.878170
v -0.204807 0.051855 0.877981
v -0.191267 0.044772 0.879779
v -0.179377 0.048594 0.881365
v -0.172144 0.057800 0.882915
v -0.166687 0.068032 0.884248
v -0.161931 0.078390 0.884896
v -0.159299 0.089030 0.885378
v -0.160398 0.100301 0.885179
v -0.161922 0.111450 0.885776
v -0.174907 0.128647 0.862678
v -0.183198 0.128854 0.862019
v -0.195322 0.124302 0.859809
v -0.204211 0.114591 0.857350
v -0.208796 0.102821 0.855540
v -0.210761 0.094100 0.852789
v -0.172077 0.037612 0.864936
v -0.185183 0.040236 0.867989
v -0.190181 0.039801 0.859746
v -0.177464 0.040415 0.869396
v -0.192177 0.042256 0.865784
v -0.158254 0.037249 1.154366
v -0.178544 0.037613 1.153275
v -0.198994 0.037687 1.154545
v -0.191015 0.130946 1.094720
v -0.171319 0.133254 1.094569
v -0.151975 0.126212 1.093399
v -0.136904 0.111348 1.091699
v -0.128274 0.094006 1.088920
v -0.127144 0.075906 1.085957
v -0.133291 0.059345 1.083759
v -0.144797 0.045415 1.082707
v -0.160899 0.038101 1.083394
v -0.180165 0.036360 1.083896
v -0.200173 0.038673 1.083827
v -0.218013 0.048395 1.083527
v -0.228662 0.065813 1.085081
v -0.228765 0.087232 1.087830
v -0.219527 0.105336 1.090744
v -0.206731 0.120084 1.093089
v -0.173313 0.123640 0.961191
v -0.187700 0.121865 0.960898
v -0.199322 0.113753 0.959835
v -0.207429 0.102720 0.958853
v -0.212676 0.089913 0.958133
v -0.213387 0.075766 0.957775
v -0.206774 0.061978 0.957651
v -0.194826 0.055587 0.957210
v -0.183293 0.056158 0.956995
v -0.173061 0.060737 0.957225
v -0.163938 0.067326 0.957526
v -0.156877 0.076283 0.957930
v -0.151710 0.086421 0.958493
v -0.148959 0.097541 0.959321
v -0.150779 0.109089 0.960144
v -0.159983 0.118488 0.960884
v -0.171877 0.126210 0.994414
v -0.187237 0.125191 0.994105
v -0.199485 0.117223 0.993115
v -0.208461 0.105302 0.992252
v -0.215106 0.091437 0.991421
v -0.216019 0.075832 0.990635
v -0.209640 0.061154 0.989835
v -0.197216 0.053247 0.989362
v -0.183218 0.052167 0.989436
v -0.170546 0.056435 0.989978
v -0.160188 0.064092 0.990640
v -0.151827 0.073575 0.991151
v -0.146054 0.084971 0.991714
v -0.143520 0.097593 0.992406
v -0.146348 0.110616 0.993183
v -0.156988 0.120849 0.993955
v -0.205039 0.061096 0.915332
v -0.194368 0.055467 0.915195
v -0.184411 0.057415 0.915283
v -0.176039 0.064102 0.915439
v -0.167512 0.070804 0.915798
v -0.161231 0.078980 0.916214
v -0.157416 0.088198 0.916835
v -0.156944 0.098809 0.917675
v -0.157774 0.109838 0.918272
v -0.165403 0.118981 0.918964
v -0.177636 0.122704 0.919471
v -0.190104 0.119858 0.919246
v -0.200110 0.111487 0.918343
v -0.206552 0.099924 0.917402
v -0.210785 0.086982 0.916407
v -0.211174 0.073380 0.915568
v -0.129459 0.097892 1.111711
v -0.143150 0.100084 1.068884
v -0.180480 0.102514 0.960144
v -0.186801 0.056910 1.011669
v -0.202551 0.059702 0.957795
v -0.205314 0.063373 0.897600
v -0.209908 0.064397 0.899182
v -0.180325 0.105385 0.901874
v -0.185596 0.109658 0.902280
v -0.162512 0.018339 1.054732
v -0.166384 0.017516 1.054012
v -0.188334 0.027947 1.007578
v -0.166097 0.056381 1.054913
v -0.154578 0.058673 1.111671
v -0.116610 0.123031 1.070759
v -0.130460 0.120409 1.019637
v -0.145647 0.136049 0.962626
v -0.150270 0.141114 0.903850
v -0.167687 0.054603 1.053914
v -0.185019 0.059088 1.011133
v -0.200465 0.062268 0.957849
v -0.147026 0.135896 0.903625
v -0.210731 0.026665 0.895554
v -0.206010 0.027138 0.894982
v -0.130866 0.115709 1.033329
v -0.161264 0.095053 1.019266
v -0.156389 0.012241 1.093112
v -0.159213 0.034436 1.100238
v -0.152853 0.017017 1.072356
v -0.154102 0.057192 1.083778
v -0.139061 0.095859 1.134748
v -0.142117 0.058569 1.148646
v -0.121881 0.125036 1.050195
v -0.139124 0.108154 0.947874
v -0.167043 0.067047 0.937598
v -0.179164 0.020838 0.926771
v -0.141125 0.116539 0.898991
v -0.163458 0.074718 0.882270
v -0.145082 0.041238 1.025714
v -0.124321 0.081816 1.032384
v -0.173700 0.011661 0.969941
v -0.164494 0.061385 0.976205
v -0.137125 0.100365 0.979551
v -0.152730 0.051809 0.994072
v -0.134922 0.090357 1.001451
v -0.142006 0.039833 1.024857
v -0.120162 0.078489 1.030824
v -0.150105 0.046055 1.008905
v -0.128341 0.085700 1.017342
vn 0.7948 0.4576 0.3987
vn 0.6962 0.5129 0.5022
vn 0.3240 0.8546 0.4059
vn 0.4606 0.8434 0.2765
vn 0.9022 0.0637 0.4266
vn 0.9294 0.0835 0.3594
vn 0.7685 -0.2053 0.6060
vn 0.8433 -0.0226 0.5370
vn 0.9150 -0.0345 0.4019
vn 0.9318 -0.1518 0.3296
vn 0.3735 -0.6369 0.6744
vn 0.6637 -0.3410 0.6658
vn 0.5520 -0.4180 0.7215
vn 0.2575 -0.7351 0.6272
vn 0.0833 -0.8207 0.5653
vn 0.0511 -0.8398 0.5404
vn -0.2052 -0.8990 0.3869
vn -0.2121 -0.9039 0.3714
vn -0.9431 -0.3317 -0.0220
vn -0.7298 -0.6835 0.0144
vn -0.6908 -0.7192 0.0741
vn -0.9664 -0.2554 -0.0279
vn -0.9985 0.0508 -0.0225
vn -0.9963 0.0776 -0.0369
vn -0.5694 0.8191 0.0694
vn -0.5462 0.8327 0.0913
vn -0.8441 0.5325 0.0629
vn -0.8313 0.5532 0.0538
vn -0.0460 0.9880 0.1475
vn -0.0433 0.9688 0.2442
vn -0.1748 0.9625 0.2073
vn -0.5658 0.8223 0.0602
vn -0.4988 0.8636 -0.0734
vn -0.5983 0.8010 -0.0227
vn -0.5675 0.8213 -0.0577
vn -0.5641 0.8216 -0.0822
vn -0.9250 -0.3793 0.0243
vn -0.9910 0.1330 -0.0137
vn -0.9878 0.1360 -0.0762
vn -0.9319 -0.3553 -0.0728
vn 0.5764 -0.8116 -0.0957
vn 0.8750 -0.4682 -0.1229
vn 0.8630 -0.4989 -0.0791
vn 0.5085 -0.8609 -0.0157
vn 0.1298 -0.9892 0.0687
vn 0.2010 -0.9793 -0.0230
vn 0.5692 0.7990 -0.1939
vn 0.5163 0.8484 -0.1168
vn 0.0069 0.9974 -0.0724
vn -0.0892 0.9708 -0.2229
vn -0.4093 0.9123 0.0111
vn -0.6288 0.7776 -0.0006
vn -0.9802 0.1692 -0.1024
vn -0.9358 -0.3295 -0.1253
vn 0.8031 0.5892 -0.0892
vn 0.8171 0.5707 -0.0815
vn 0.9497 0.3023 -0.0814
vn 0.8449 0.5318 -0.0578
vn 0.9564 0.2875 -0.0523
vn 0.9541 0.2833 -0.0969
vn 0.8693 -0.4670 -0.1617
vn 0.5993 -0.7854 -0.1547
vn 0.2434 -0.9643 -0.1047
vn 0.1010 0.9941 -0.0398
vn 0.5278 0.8465 -0.0696
vn 0.5497 0.8349 -0.0274
vn 0.1436 0.9893 -0.0256
vn -0.3591 0.9332 -0.0111
vn -0.3429 0.9389 -0.0290
vn -0.6584 0.7516 -0.0407
vn -0.6989 0.7127 -0.0604
vn -0.9546 -0.2588 -0.1475
vn -0.9598 0.2472 -0.1332
vn -0.9501 0.2806 -0.1365
vn -0.9670 -0.2015 -0.1557
vn 0.5936 -0.7759 -0.2136
vn 0.2465 -0.9518 -0.1823
vn 0.2676 -0.9395 -0.2139
vn 0.5899 -0.7714 -0.2387
vn 0.8546 -0.4792 -0.1999
vn 0.8346 -0.5057 -0.2185
vn 0.8054 0.5864 -0.0862
vn 0.9556 0.2713 -0.1150
vn 0.9669 0.2288 -0.1128
vn 0.8290 0.5567 -0.0536
vn 0.5415 0.8397 -0.0418
vn 0.5315 0.8422 -0.0906
vn 0.1448 0.9854 -0.0891
vn 0.1447 0.9882 -0.0498
vn -0.3201 0.9429 -0.0920
vn -0.3376 0.9391 -0.0635
vn -0.6990 0.7099 -0.0860
vn -0.7112 0.6988 -0.0772
vn -0.9471 0.2917 -0.1337
vn -0.9555 0.2704 -0.1181
vn -0.9764 -0.1541 -0.1514
vn -0.9744 -0.1529 -0.1649
vn 0.3046 -0.9262 -0.2222
vn 0.3629 -0.9047 -0.2234
vn 0.6147 -0.7457 -0.2569
vn 0.5953 -0.7613 -0.2568
vn 0.8091 -0.5270 -0.2599
vn 0.8170 -0.5190 -0.2513
vn 0.9757 0.1729 -0.1349
vn 0.9803 0.1088 -0.1647
vn 0.8543 0.5077 -0.1113
vn 0.8451 0.5306 -0.0654
vn 0.5226 0.8429 -0.1281
vn 0.1469 0.9824 -0.1155
vn -0.3040 0.9467 -0.1061
vn -0.6816 0.7264 -0.0880
vn -0.9611 0.2628 -0.0844
vn -0.9810 -0.1528 -0.1192
vn 0.4148 -0.8871 -0.2025
vn 0.6388 -0.7319 -0.2373
vn 0.8071 -0.5351 -0.2497
vn 0.9807 0.0573 -0.1870
vn 0.8557 0.4947 -0.1516
vn 0.5268 0.8432 -0.1072
vn 0.5413 0.8360 -0.0905
vn 0.1184 0.9907 -0.0679
vn 0.1341 0.9866 -0.0926
vn -0.3548 0.9329 -0.0620
vn -0.3227 0.9423 -0.0893
vn -0.6962 0.7155 -0.0586
vn -0.6817 0.7273 -0.0797
vn -0.9668 0.2432 -0.0783
vn -0.9728 0.2199 -0.0734
vn -0.9782 -0.1964 -0.0678
vn -0.9796 -0.1823 -0.0850
vn -0.7218 -0.6899 -0.0555
vn -0.7444 -0.6617 -0.0898
vn 0.4814 -0.8650 -0.1416
vn 0.4974 -0.8594 -0.1182
vn 0.6852 -0.7178 -0.1233
vn 0.6812 -0.7160 -0.1528
vn 0.8370 -0.5336 -0.1213
vn 0.8289 -0.5346 -0.1647
vn 0.9868 -0.0159 -0.1612
vn 0.9898 -0.0272 -0.1396
vn 0.8822 0.4522 -0.1316
vn 0.8699 0.4727 -0.1407
vn 0.5491 0.8321 -0.0784
vn 0.5408 0.8389 -0.0613
vn 0.0643 0.9979 -0.0125
vn 0.0964 0.9940 -0.0522
vn -0.4118 0.9113 0.0018
vn -0.3791 0.9242 -0.0460
vn -0.7410 0.6714 -0.0087
vn -0.7122 0.7000 -0.0528
vn -0.9753 0.2070 -0.0766
vn -0.9812 0.1886 -0.0418
vn -0.9789 -0.2025 -0.0266
vn -0.9781 -0.2002 -0.0571
vn -0.7191 -0.6949 0.0063
vn -0.7196 -0.6936 -0.0322
vn 0.5173 -0.8495 -0.1042
vn 0.5627 -0.8229 -0.0783
vn 0.6908 -0.7138 -0.1152
vn 0.6787 -0.7250 -0.1172
vn 0.8488 -0.5118 -0.1329
vn 0.8367 -0.5345 -0.1194
vn 0.9876 -0.0218 -0.1555
vn 0.9828 0.0066 -0.1844
vn 0.8956 0.4213 -0.1431
vn 0.8925 0.4312 -0.1321
vn -0.9686 -0.2408 0.0612
vn -0.7354 -0.6551 0.1734
vn -0.7195 -0.6769 0.1552
vn -0.9671 -0.2422 0.0776
vn -0.9890 0.1324 0.0660
vn -0.9935 0.1039 0.0469
vn -0.8095 0.5753 0.1172
vn -0.7912 0.5998 0.1193
vn -0.4892 0.8627 0.1277
vn -0.5573 0.8158 0.1544
vn 0.0312 0.9977 0.0599
vn -0.0513 0.9935 0.1015
vn 0.5698 0.8204 -0.0475
vn 0.5481 0.8362 -0.0196
vn 0.9237 0.3624 -0.1245
vn 0.9221 0.3819 -0.0627
vn 0.9898 0.0533 -0.1322
vn 0.9951 0.0902 -0.0411
vn 0.7939 -0.5818 0.1766
vn 0.9098 -0.4108 0.0593
vn 0.8915 -0.4517 -0.0338
vn 0.7645 -0.6443 0.0214
vn -0.4634 -0.8656 0.1896
vn -0.4812 -0.8628 0.1548
vn 0.6946 -0.7124 0.1005
vn 0.7184 -0.6298 0.2955
vn -0.1270 -0.9434 0.3063
vn -0.1242 -0.9607 0.2483
vn 0.5032 -0.7858 0.3595
vn 0.4941 -0.8440 0.2086
vn -0.6083 -0.7928 -0.0378
vn -0.5832 -0.8094 0.0684
vn -0.1971 -0.9804 0.0084
vn 0.0115 -0.9997 0.0219
vn -0.0009 -0.9940 0.1091
vn -0.1752 -0.9791 0.1035
vn -0.6306 -0.7649 -0.1315
vn -0.2288 -0.9677 -0.1055
vn 0.0090 -0.9965 -0.0833
vn -0.7103 -0.6811 -0.1777
vn -0.6805 -0.7139 -0.1651
vn -0.3306 -0.9264 -0.1802
vn -0.0217 -0.9828 -0.1832
vn -0.0161 -0.9875 -0.1568
vn -0.2921 -0.9423 -0.1634
vn -0.7469 -0.6484 -0.1473
vn -0.7402 -0.6514 -0.1667
vn -0.7547 -0.6408 -0.1407
vn -0.2276 -0.9721 -0.0570
vn -0.2817 -0.9546 -0.0972
vn 0.1710 -0.9780 -0.1192
vn 0.2286 -0.9694 -0.0899
vn -0.1686 -0.9855 0.0170
vn -0.1983 -0.9796 -0.0328
vn 0.2858 -0.9559 -0.0672
vn 0.3528 -0.9355 -0.0191
vn -0.3439 -0.9284 -0.1406
vn 0.0404 -0.9845 -0.1705
vn -0.0142 -0.9848 -0.1730
vn -0.3592 -0.9201 -0.1561
vn 0.0874 -0.9826 -0.1639
vn -0.3288 -0.9333 -0.1440
vn 0.9687 0.0913 0.2309
vn 0.9522 0.1548 0.2633
vn 0.9624 0.0115 0.2714
vn -0.7153 -0.6957 0.0662
vn -0.1426 -0.9834 0.1119
vn 0.4267 -0.9014 0.0739
vn 0.6254 -0.7802 -0.0123
vn 0.7183 -0.6907 -0.0832
vn 0.8636 -0.4871 -0.1303
vn 0.9805 0.0269 -0.1945
vn 0.9101 0.3828 -0.1585
vn 0.5519 0.8320 -0.0568
vn 0.0387 0.9989 0.0254
vn -0.4475 0.8923 0.0594
vn -0.7693 0.6367 0.0529
vn -0.9865 0.1628 0.0176
vn -0.9749 -0.2211 0.0254
vn -0.1773 -0.9736 0.1440
vn -0.0162 -0.9941 0.1074
vn 0.0904 -0.9918 0.0903
vn 0.5172 0.8527 0.0740
vn -0.0879 0.9936 0.0706
vn -0.6117 0.7880 0.0704
vn -0.8285 0.5576 0.0508
vn -0.9964 0.0837 -0.0103
vn -0.9722 -0.2342 0.0005
vn -0.7451 -0.6599 0.0966
vn -0.1591 -0.9342 0.3193
vn 0.3985 -0.7561 0.5192
vn 0.6366 -0.5170 0.5723
vn 0.7983 -0.4254 0.4264
vn 0.9299 -0.3030 0.2087
vn 0.9857 0.0940 0.1395
vn 0.8939 0.4282 0.1324
vn -0.9460 0.3240 -0.0023
vn -0.9606 0.2776 0.0145
vn -0.9345 0.3458 0.0849
vn -0.9415 0.3365 0.0164
vn -0.9252 0.3670 0.0964
vn -0.9158 0.4002 0.0320
vn -0.9025 0.4296 -0.0297
vn -0.8833 0.4637 -0.0693
vn -0.8555 0.5126 -0.0728
vn -0.8696 0.4895 -0.0646
vn -0.8591 0.5041 -0.0884
vn -0.8566 0.5106 -0.0744
vn -0.8507 0.5163 -0.0986
vn -0.8180 0.5669 -0.0974
vn -0.8367 0.5371 -0.1072
vn -0.8352 0.5463 -0.0636
vn -0.8264 0.5596 -0.0624
vn -0.8319 0.5532 -0.0427
vn -0.8408 0.5413 0.0119
vn 0.1390 0.9842 -0.1093
vn -0.3097 0.9456 -0.0993
vn -0.6764 0.7318 -0.0835
vn -0.8529 0.5174 -0.0700
vn -0.9648 0.2533 -0.0702
vn -0.9814 -0.1686 -0.0914
vn -0.7531 -0.6478 -0.1148
vn -0.3109 -0.9423 -0.1245
vn 0.1255 -0.9818 -0.1426
vn 0.4569 -0.8730 -0.1709
vn 0.6660 -0.7199 -0.1956
vn 0.8155 -0.5378 -0.2136
vn 0.9826 0.0173 -0.1851
vn 0.8596 0.4867 -0.1556
vn 0.5202 0.8448 -0.1253
vn 0.9279 -0.1392 0.3458
vn 0.9723 -0.1415 0.1860
vn 0.9625 -0.1142 0.2461
vn 0.9952 -0.0981 -0.0037
vn 0.9900 -0.0798 0.1161
vn 0.9858 -0.1428 -0.0878
vn 0.9639 -0.2054 -0.1696
vn 0.9519 -0.2586 -0.1644
vn 0.9392 -0.3145 -0.1381
vn 0.9286 -0.3305 -0.1688
vn 0.9341 -0.3334 -0.1278
vn 0.9346 -0.2722 -0.2291
vn 0.9284 -0.3064 -0.2104
vn 0.9459 -0.2321 -0.2269
vn 0.9585 -0.1924 -0.2103
vn 0.9714 -0.1613 -0.1744
vn 0.9794 -0.1263 -0.1573
vn 0.9902 -0.0861 -0.1099
vn 0.9857 -0.1057 -0.1315
vn 0.9924 -0.0969 -0.0759
vn -0.9570 0.2899 -0.0043
vn 0.9977 0.0365 -0.0574
vn -0.1946 -0.9164 0.3497
vn 0.1080 0.9384 0.3282
vn -0.9857 0.1679 -0.0107
vn -0.5301 0.8144 0.2363
vn -0.4047 0.6335 -0.6595
vn -0.6073 0.4985 -0.6187
vn -0.7746 0.5887 0.2313
vn 0.1956 -0.2493 -0.9485
vn 0.2116 -0.1094 -0.9712
vn -0.9328 -0.0387 0.3584
vn -0.5467 -0.0536 0.8356
vn -0.7841 0.2043 0.5861
vn -0.8837 0.3153 0.3459
vn -0.7588 0.2153 0.6147
vn -0.7990 0.5136 0.3129
vn -0.5373 -0.1419 0.8314
vn -0.9742 0.2046 0.0954
vn -0.9750 -0.1811 0.1287
vn -0.9751 -0.2218 -0.0047
vn -0.9970 0.0057 0.0770
vn -0.9618 0.2467 0.1188
vn -0.8093 0.5868 0.0277
vn -0.7973 0.6025 -0.0357
vn -0.4780 0.8778 -0.0316
vn -0.5110 0.8116 0.2832
vn -0.7135 0.6720 0.1985
vn -0.8144 0.5399 0.2127
vn -0.5408 0.8411 0.0118
vn -0.7294 0.6486 0.2177
vn -0.5402 0.8038 0.2492
vn -0.8252 0.3723 -0.4247
vn 0.1755 0.0180 -0.9843
vn 0.1804 0.1127 -0.9771
vn -0.7865 -0.0052 -0.6176
vn -0.9338 0.2726 0.2318
vn -0.9786 0.1963 0.0615
vn -0.7269 0.5878 0.3551
vn -0.8843 0.3184 0.3415
vn -0.8584 0.2422 0.4521
vn -0.6935 0.5473 0.4686
vn -0.9046 0.2303 0.3586
vn -0.7111 0.5829 0.3931
vn -0.3993 0.2146 0.8913
vn -0.4989 -0.0081 0.8666
vn 0.2453 -0.2499 0.9367
vn 0.1900 -0.3451 0.9191
vn -0.9170 0.3879 0.0932
vn -0.7607 0.6330 0.1435
vn -0.7433 0.6665 0.0570
vn -0.9163 0.3978 0.0461
vn -0.9969 0.0084 0.0783
vn -0.9634 -0.0495 0.2633
s 1
f 1//1 4//2 3//3
f 1//1 3//3 2//4
f 5//5 4//2 1//1
f 5//5 1//1 6//6
f 7//7 8//8 213//9
f 7//7 213//9 214//10
f 9//11 12//12 11//13
f 9//11 11//13 10//14
f 250//15 253//16 251//17
f 250//15 251//17 14//18
f 15//19 18//20 17//21
f 15//19 17//21 16//22
f 19//23 15//19 16//22
f 19//23 16//22 20//24
f 21//25 22//26 157//27
f 21//25 157//27 158//28
f 23//29 24//30 22//26
f 23//29 22//26 21//25
f 3//3 24//30 23//29
f 3//3 23//29 2//4
f 245//31 246//32 22//26
f 245//31 22//26 24//30
f 28//33 167//34 168//35
f 28//33 168//35 27//36
f 31//37 29//38 30//39
f 31//37 30//39 32//40
f 35//41 225//42 226//43
f 35//41 226//43 36//44
f 36//44 40//45 39//46
f 36//44 39//46 35//41
f 26//47 42//48 41//49
f 26//47 41//49 25//50
f 41//49 43//51 28//33
f 41//49 28//33 25//50
f 28//33 43//51 166//52
f 28//33 166//52 167//34
f 44//53 45//54 32//40
f 44//53 32//40 30//39
f 46//55 42//48 26//47
f 46//55 26//47 33//56
f 38//57 33//56 34//58
f 38//57 34//58 37//59
f 46//55 33//56 38//57
f 46//55 38//57 47//60
f 224//61 225//42 35//41
f 224//61 35//41 48//62
f 49//63 48//62 35//41
f 49//63 35//41 39//46
f 259//64 260//65 182//66
f 259//64 182//66 169//67
f 258//68 259//64 169//67
f 258//68 169//67 170//69
f 273//70 258//68 170//69
f 273//70 170//69 171//71
f 270//72 271//73 173//74
f 270//72 173//74 174//75
f 265//76 266//77 178//78
f 265//76 178//78 179//79
f 264//80 265//76 179//79
f 264//80 179//79 223//81
f 261//82 262//83 180//84
f 261//82 180//84 181//85
f 260//65 261//82 181//85
f 260//65 181//85 182//66
f 51//86 60//87 59//88
f 51//86 59//88 50//89
f 50//89 59//88 61//90
f 50//89 61//90 52//91
f 52//91 61//90 164//92
f 52//91 164//92 165//93
f 53//94 62//95 63//96
f 53//94 63//96 54//97
f 56//98 65//99 64//100
f 56//98 64//100 55//101
f 55//101 64//100 221//102
f 55//101 221//102 222//103
f 57//104 66//105 67//106
f 57//104 67//106 58//107
f 58//107 67//106 60//87
f 58//107 60//87 51//86
f 60//87 196//108 183//109
f 60//87 183//109 59//88
f 59//88 183//109 184//110
f 59//88 184//110 61//90
f 61//90 184//110 185//111
f 61//90 185//111 164//92
f 62//95 187//112 188//113
f 62//95 188//113 63//96
f 65//99 192//114 193//115
f 65//99 193//115 64//100
f 64//100 193//115 220//116
f 64//100 220//116 221//102
f 66//105 194//117 195//118
f 66//105 195//118 67//106
f 67//106 195//118 196//108
f 67//106 196//108 60//87
f 69//119 289//120 274//121
f 69//119 274//121 68//122
f 68//122 274//121 275//123
f 68//122 275//123 70//124
f 70//124 275//123 276//125
f 70//124 276//125 163//126
f 71//127 278//128 279//129
f 71//127 279//129 72//130
f 72//130 279//129 280//131
f 72//130 280//131 82//132
f 74//133 283//134 284//135
f 74//133 284//135 73//136
f 73//136 284//135 285//137
f 73//136 285//137 219//138
f 75//139 287//140 288//141
f 75//139 288//141 76//142
f 76//142 288//141 289//120
f 76//142 289//120 69//119
f 78//143 89//144 88//145
f 78//143 88//145 77//146
f 77//146 88//145 90//147
f 77//146 90//147 79//148
f 79//148 90//147 161//149
f 79//148 161//149 162//150
f 80//151 91//152 92//153
f 80//151 92//153 81//154
f 81//154 92//153 93//155
f 81//154 93//155 83//156
f 85//157 95//158 94//159
f 85//157 94//159 84//160
f 84//160 94//159 217//161
f 84//160 217//161 218//162
f 86//163 96//164 97//165
f 86//163 97//165 87//166
f 87//166 97//165 89//144
f 87//166 89//144 78//143
f 98//167 101//168 100//169
f 98//167 100//169 99//170
f 102//171 103//172 98//167
f 102//171 98//167 99//170
f 159//173 160//174 105//175
f 159//173 105//175 104//176
f 104//176 105//175 107//177
f 104//176 107//177 106//178
f 106//178 107//177 109//179
f 106//178 109//179 108//180
f 108//180 109//179 111//181
f 108//180 111//181 110//182
f 110//182 111//181 113//183
f 110//182 113//183 112//184
f 114//185 215//186 216//187
f 114//185 216//187 115//188
f 251//17 254//189 252//190
f 251//17 252//190 14//18
f 12//12 8//8 7//7
f 12//12 7//7 11//13
f 115//188 117//191 116//192
f 115//188 116//192 114//185
f 101//168 119//193 118//194
f 101//168 118//194 100//169
f 120//195 121//196 118//194
f 120//195 118//194 119//193
f 120//195 116//192 117//191
f 120//195 117//191 121//196
f 32//40 123//197 122//198
f 32//40 122//198 31//37
f 124//199 127//200 126//201
f 124//199 126//201 125//202
f 127//200 39//46 40//45
f 127//200 40//45 126//201
f 45//54 128//203 123//197
f 45//54 123//197 32//40
f 129//204 130//205 127//200
f 129//204 127//200 124//199
f 127//200 130//205 49//63
f 127//200 49//63 39//46
f 174//75 175//206 269//207
f 174//75 269//207 270//72
f 176//208 177//209 267//210
f 176//208 267//210 268//211
f 266//77 267//210 177//209
f 266//77 177//209 178//78
f 134//212 131//213 54//97
f 134//212 54//97 63//96
f 188//113 189//214 134//212
f 188//113 134//212 63//96
f 82//132 280//131 281//215
f 82//132 281//215 135//216
f 137//217 282//218 283//134
f 137//217 283//134 74//133
f 83//156 93//155 139//219
f 83//156 139//219 136//220
f 138//221 140//222 95//158
f 138//221 95//158 85//157
f 141//223 142//224 133//225
f 141//223 133//225 132//226
f 142//224 65//99 56//98
f 142//224 56//98 133//225
f 136//220 139//219 140//222
f 136//220 140//222 138//221
f 135//216 281//215 282//218
f 135//216 282//218 137//217
f 142//224 191//227 192//114
f 142//224 192//114 65//99
f 142//224 141//223 190//228
f 142//224 190//228 191//227
f 141//223 134//212 189//214
f 141//223 189//214 190//228
f 141//223 132//226 131//213
f 141//223 131//213 134//212
f 268//211 269//207 175//206
f 268//211 175//206 176//208
f 124//199 123//197 128//203
f 124//199 128//203 129//204
f 125//202 122//198 123//197
f 125//202 123//197 124//199
f 143//229 8//8 12//12
f 144//230 4//2 5//5
f 143//229 212//231 213//9
f 143//229 213//9 8//8
f 306//232 307//233 139//219
f 306//232 139//219 93//155
f 307//233 308//234 140//222
f 307//233 140//222 139//219
f 308//234 309//235 95//158
f 308//234 95//158 140//222
f 94//159 95//158 309//235
f 94//159 309//235 310//236
f 310//236 311//237 217//161
f 310//236 217//161 94//159
f 313//238 314//239 97//165
f 313//238 97//165 96//164
f 314//239 315//240 89//144
f 314//239 89//144 97//165
f 315//240 316//241 88//145
f 315//240 88//145 89//144
f 316//241 317//242 90//147
f 316//241 90//147 88//145
f 317//242 318//243 161//149
f 317//242 161//149 90//147
f 91//152 320//244 321//245
f 91//152 321//245 92//153
f 321//245 306//232 93//155
f 321//245 93//155 92//153
f 257//246 122//198 125//202
f 126//201 256//247 257//246
f 126//201 257//246 125//202
f 40//45 255//248 256//247
f 40//45 256//247 126//201
f 228//249 229//250 106//178
f 228//249 106//178 108//180
f 106//178 229//250 230//251
f 106//178 230//251 104//176
f 104//176 230//251 231//252
f 104//176 231//252 159//173
f 233//253 234//254 98//167
f 233//253 98//167 103//172
f 234//254 235//255 101//168
f 234//254 101//168 98//167
f 101//168 235//255 236//256
f 101//168 236//256 119//193
f 119//193 236//256 237//257
f 119//193 237//257 120//195
f 237//257 238//258 116//192
f 237//257 116//192 120//195
f 238//258 239//259 114//185
f 238//258 114//185 116//192
f 114//185 239//259 240//260
f 114//185 240//260 215//186
f 242//261 243//262 110//182
f 242//261 110//182 112//184
f 108//180 110//182 243//262
f 108//180 243//262 228//249
f 146//263 145//264 19//23
f 146//263 19//23 20//24
f 147//265 232//266 233//253
f 147//265 233//253 103//172
f 103//172 102//171 148//267
f 103//172 148//267 147//265
f 319//268 320//244 91//152
f 319//268 91//152 149//269
f 150//270 149//269 91//152
f 150//270 91//152 80//151
f 151//271 277//272 278//128
f 151//271 278//128 71//127
f 152//273 186//274 187//112
f 152//273 187//112 62//95
f 153//275 152//273 62//95
f 153//275 62//95 53//94
f 271//73 272//276 172//277
f 271//73 172//277 173//74
f 155//278 154//279 44//53
f 155//278 44//53 30//39
f 156//280 155//278 30//39
f 156//280 30//39 29//38
f 158//28 157//27 145//264
f 158//28 145//264 146//263
f 159//173 231//252 232//266
f 159//173 232//266 147//265
f 147//265 148//267 160//174
f 147//265 160//174 159//173
f 318//243 319//268 149//269
f 318//243 149//269 161//149
f 162//150 161//149 149//269
f 162//150 149//269 150//270
f 163//126 276//125 277//272
f 163//126 277//272 151//271
f 164//92 185//111 186//274
f 164//92 186//274 152//273
f 165//93 164//92 152//273
f 165//93 152//273 153//275
f 272//276 273//70 171//71
f 272//276 171//71 172//277
f 167//34 166//52 154//279
f 167//34 154//279 155//278
f 168//35 167//34 155//278
f 168//35 155//278 156//280
f 246//32 247//281 157//27
f 246//32 157//27 22//26
f 170//69 169//67 50//89
f 170//69 50//89 52//91
f 171//71 170//69 52//91
f 171//71 52//91 165//93
f 172//277 171//71 165//93
f 172//277 165//93 153//275
f 173//74 172//277 153//275
f 173//74 153//275 53//94
f 174//75 173//74 53//94
f 174//75 53//94 54//97
f 54//97 131//213 175//206
f 54//97 175//206 174//75
f 176//208 175//206 131//213
f 176//208 131//213 132//226
f 132//226 133//225 177//209
f 132//226 177//209 176//208
f 178//78 177//209 133//225
f 178//78 133//225 56//98
f 179//79 178//78 56//98
f 179//79 56//98 55//101
f 222//103 223//81 179//79
f 222//103 179//79 55//101
f 181//85 180//84 57//104
f 181//85 57//104 58//107
f 182//66 181//85 58//107
f 182//66 58//107 51//86
f 169//67 182//66 51//86
f 169//67 51//86 50//89
f 184//110 183//109 290//282
f 184//110 290//282 291//283
f 185//111 184//110 291//283
f 185//111 291//283 292//284
f 186//274 185//111 292//284
f 186//274 292//284 293//285
f 187//112 186//274 293//285
f 187//112 293//285 294//286
f 188//113 187//112 294//286
f 188//113 294//286 295//287
f 295//287 296//288 189//214
f 295//287 189//214 188//113
f 190//228 189//214 296//288
f 190//228 296//288 297//289
f 191//227 190//228 297//289
f 191//227 297//289 298//290
f 192//114 191//227 298//290
f 192//114 298//290 299//291
f 193//115 192//114 299//291
f 193//115 299//291 300//292
f 300//292 301//293 220//116
f 300//292 220//116 193//115
f 195//118 194//117 303//294
f 195//118 303//294 304//295
f 196//108 195//118 304//295
f 196//108 304//295 305//296
f 183//109 196//108 305//296
f 183//109 305//296 290//282
f 198//297 197//298 144//230
f 198//297 144//230 5//5
f 199//299 198//297 5//5
f 199//299 5//5 6//6
f 200//300 241//301 242//261
f 200//300 242//261 112//184
f 201//302 200//300 112//184
f 201//302 112//184 113//183
f 312//303 313//238 96//164
f 312//303 96//164 202//304
f 203//305 202//304 96//164
f 203//305 96//164 86//163
f 204//306 286//307 287//140
f 204//306 287//140 75//139
f 194//117 205//308 302//309
f 194//117 302//309 303//294
f 206//310 205//308 194//117
f 206//310 194//117 66//105
f 207//311 206//310 66//105
f 207//311 66//105 57//104
f 180//84 208//312 207//311
f 180//84 207//311 57//104
f 262//83 263//313 208//312
f 262//83 208//312 180//84
f 38//57 210//314 209//315
f 38//57 209//315 47//60
f 211//316 210//314 38//57
f 211//316 38//57 37//59
f 247//281 248//317 145//264
f 247//281 145//264 157//27
f 213//9 212//231 197//298
f 213//9 197//298 198//297
f 214//10 213//9 198//297
f 214//10 198//297 199//299
f 215//186 240//260 241//301
f 215//186 241//301 200//300
f 216//187 215//186 200//300
f 216//187 200//300 201//302
f 311//237 312//303 202//304
f 311//237 202//304 217//161
f 218//162 217//161 202//304
f 218//162 202//304 203//305
f 219//138 285//137 286//307
f 219//138 286//307 204//306
f 301//293 302//309 205//308
f 301//293 205//308 220//116
f 221//102 220//116 205//308
f 221//102 205//308 206//310
f 222//103 221//102 206//310
f 222//103 206//310 207//311
f 207//311 208//312 223//81
f 207//311 223//81 222//103
f 263//313 264//80 223//81
f 263//313 223//81 208//312
f 209//315 210//314 225//42
f 209//315 225//42 224//61
f 226//43 225//42 210//314
f 226//43 210//314 211//316
f 143//229 227//318 212//231
f 2//4 23//29 229//250
f 2//4 229//250 228//249
f 230//251 229//250 23//29
f 230//251 23//29 21//25
f 231//252 230//251 21//25
f 231//252 21//25 158//28
f 232//266 231//252 158//28
f 232//266 158//28 146//263
f 233//253 232//266 146//263
f 233//253 146//263 20//24
f 16//22 234//254 233//253
f 16//22 233//253 20//24
f 17//21 235//255 234//254
f 17//21 234//254 16//22
f 236//256 235//255 17//21
f 236//256 17//21 13//319
f 237//257 236//256 13//319
f 237//257 13//319 10//14
f 11//13 238//258 237//257
f 11//13 237//257 10//14
f 7//7 239//259 238//258
f 7//7 238//258 11//13
f 240//260 239//259 7//7
f 240//260 7//7 214//10
f 241//301 240//260 214//10
f 241//301 214//10 199//299
f 242//261 241//301 199//299
f 242//261 199//299 6//6
f 1//1 243//262 242//261
f 1//1 242//261 6//6
f 228//249 243//262 1//1
f 228//249 1//1 2//4
f 24//30 3//3 244//320
f 24//30 244//320 245//31
f 249//321 19//23 145//264
f 249//321 145//264 248//317
f 13//319 251//17 253//16
f 13//319 253//16 10//14
f 17//21 18//20 252//190
f 17//21 252//190 254//189
f 10//14 253//16 250//15
f 10//14 250//15 9//11
f 17//21 254//189 251//17
f 17//21 251//17 13//319
f 41//49 259//64 258//68
f 41//49 258//68 43//51
f 42//48 260//65 259//64
f 42//48 259//64 41//49
f 46//55 261//82 260//65
f 46//55 260//65 42//48
f 47//60 262//83 261//82
f 47//60 261//82 46//55
f 209//315 263//313 262//83
f 209//315 262//83 47//60
f 224//61 264//80 263//313
f 224//61 263//313 209//315
f 48//62 265//76 264//80
f 48//62 264//80 224//61
f 49//63 266//77 265//76
f 49//63 265//76 48//62
f 130//205 267//210 266//77
f 130//205 266//77 49//63
f 268//211 267//210 130//205
f 268//211 130//205 129//204
f 129//204 128//203 269//207
f 129//204 269//207 268//211
f 270//72 269//207 128//203
f 270//72 128//203 45//54
f 44//53 271//73 270//72
f 44//53 270//72 45//54
f 154//279 272//276 271//73
f 154//279 271//73 44//53
f 166//52 273//70 272//276
f 166//52 272//276 154//279
f 43//51 258//68 273//70
f 43//51 273//70 166//52
f 275//123 274//121 77//146
f 275//123 77//146 79//148
f 276//125 275//123 79//148
f 276//125 79//148 162//150
f 277//272 276//125 162//150
f 277//272 162//150 150//270
f 278//128 277//272 150//270
f 278//128 150//270 80//151
f 279//129 278//128 80//151
f 279//129 80//151 81//154
f 280//131 279//129 81//154
f 280//131 81//154 83//156
f 281//215 280//131 83//156
f 281//215 83//156 136//220
f 282//218 281//215 136//220
f 282//218 136//220 138//221
f 283//134 282//218 138//221
f 283//134 138//221 85//157
f 284//135 283//134 85//157
f 284//135 85//157 84//160
f 285//137 284//135 84//160
f 285//137 84//160 218//162
f 286//307 285//137 218//162
f 286//307 218//162 203//305
f 287//140 286//307 203//305
f 287//140 203//305 86//163
f 288//141 287//140 86//163
f 288//141 86//163 87//166
f 289//120 288//141 87//166
f 289//120 87//166 78//143
f 274//121 289//120 78//143
f 274//121 78//143 77//146
f 291//283 290//282 68//122
f 291//283 68//122 70//124
f 292//284 291//283 70//124
f 292//284 70//124 163//126
f 293//285 292//284 163//126
f 293//285 163//126 151//271
f 294//286 293//285 151//271
f 294//286 151//271 71//127
f 295//287 294//286 71//127
f 295//287 71//127 72//130
f 72//130 82//132 296//288
f 72//130 296//288 295//287
f 297//289 296//288 82//132
f 297//289 82//132 135//216
f 298//290 297//289 135//216
f 298//290 135//216 137//217
f 299//291 298//290 137//217
f 299//291 137//217 74//133
f 300//292 299//291 74//133
f 300//292 74//133 73//136
f 219//138 301//293 300//292
f 219//138 300//292 73//136
f 204//306 302//309 301//293
f 204//306 301//293 219//138
f 303//294 302//309 204//306
f 303//294 204//306 75//139
f 304//295 303//294 75//139
f 304//295 75//139 76//142
f 305//296 304//295 76//142
f 305//296 76//142 69//119
f 290//282 305//296 69//119
f 290//282 69//119 68//122
f 100//169 118//194 307//233
f 100//169 307//233 306//232
f 121//196 308//234 307//233
f 121//196 307//233 118//194
f 117//191 309//235 308//234
f 117//191 308//234 121//196
f 310//236 309//235 117//191
f 310//236 117//191 115//188
f 216//187 311//237 310//236
f 216//187 310//236 115//188
f 201//302 312//303 311//237
f 201//302 311//237 216//187
f 113//183 313//238 312//303
f 113//183 312//303 201//302
f 111//181 314//239 313//238
f 111//181 313//238 113//183
f 109//179 315//240 314//239
f 109//179 314//239 111//181
f 107//177 316//241 315//240
f 107//177 315//240 109//179
f 105//175 317//242 316//241
f 105//175 316//241 107//177
f 160//174 318//243 317//242
f 160//174 317//242 105//175
f 148//267 319//268 318//243
f 148//267 318//243 160//174
f 102//171 320//244 319//268
f 102//171 319//268 148//267
f 321//245 320//244 102//171
f 321//245 102//171 99//170
f 100//169 306//232 321//245
f 100//169 321//245 99//170
f 338//322 339//323 330//324
f 338//322 330//324 324//325
f 339//323 343//326 329//327
f 339//323 329//327 330//324
f 333//328 332//329 340//330
f 333//328 340//330 325//331
f 334//332 341//333 325//331
f 334//332 325//331 340//330
f 334//332 340//330 332//329
f 334//332 332//329 331//334
f 351//335 334//332 331//334
f 351//335 331//334 350//336
f 351//335 350//336 348//337
f 351//335 348//337 349//338
f 335//339 322//340 351//335
f 351//335 349//338 335//339
f 352//341 322//340 335//339
f 346//342 337//343 347//344
f 347//344 337//343 338//322
f 347//344 338//322 324//325
f 324//325 342//345 341//333
f 324//325 341//333 347//344
f 347//344 354//346 346//342
f 323//347 354//346 347//344
f 334//332 351//335 322//340
f 334//332 322//340 323//347
f 347//344 341//333 334//332
f 347//344 334//332 323//347
f 336//348 354//346 323//347
f 328//349 330//324 329//327
f 328//349 329//327 327//350
f 327//350 345//351 344//352
f 327//350 344//352 328//349
f 326//353 342//345 328//349
f 325//331 341//333 342//345
f 325//331 342//345 326//353
f 333//328 325//331 326//353
f 328//349 342//345 324//325
f 328//349 324//325 330//324
f 352//341 335//339 353//354
f 364//355 363//356 365//357
f 364//355 365//357 366//358
f 366//358 365//357 369//359
f 366//358 369//359 370//360
f 361//361 360//362 367//363
f 361//361 367//363 368//364
f 370//360 369//359 360//362
f 370//360 360//362 361//361
f 356//365 355//366 358//367
f 356//365 358//367 359//368
f 363//356 364//355 355//366
f 363//356 355//366 356//365
f 356//365 357//369 362//370
f 356//365 362//370 363//356
f 357//369 356//365 359//368
