# Blender 4.0.2
# www.blender.org
mtllib DocPart_upper_arm.mtl
o DocPart_upper_arm
v -0.049207 0.041436 0.003012
v -0.061544 0.020930 0.000191
v -0.027478 0.059829 0.006968
v -0.009805 0.070676 0.008421
v -0.018881 0.054472 -0.114463
v -0.001841 0.059903 -0.114144
v -0.005100 0.057329 -0.128145
v -0.020579 0.052370 -0.129071
v 0.020784 0.045391 -0.127636
v 0.024108 0.049187 -0.113046
v 0.045038 0.024046 -0.115989
v 0.048425 0.022134 -0.131312
v -0.042811 0.022360 -0.115024
v -0.033285 0.038337 -0.130626
v -0.041810 0.020830 -0.130913
v -0.033941 0.039161 -0.114829
v 0.057400 0.002393 -0.132200
v 0.054022 0.005360 -0.116775
v 0.050932 -0.016231 -0.116645
v 0.052573 -0.021599 -0.133086
v -0.027023 -0.037132 -0.115083
v -0.049509 0.002727 -0.130839
v -0.028873 -0.041329 -0.134041
v -0.047307 0.004031 -0.114781
v 0.038911 -0.037363 -0.140857
v 0.042144 -0.031936 -0.126125
v 0.033227 -0.041206 -0.129609
v 0.004411 -0.053870 -0.136018
v 0.004942 -0.050208 -0.146235
v -0.011523 -0.055049 -0.122647
v -0.022292 -0.047820 -0.122738
v 0.031679 -0.045811 -0.116735
v 0.002138 -0.057801 -0.122933
v 0.041595 -0.032330 -0.115127
v -0.007482 -0.052755 -0.133521
v -0.014837 -0.048455 -0.140300
v 0.059494 -0.000377 -0.147735
v 0.056432 -0.022652 -0.149570
v 0.051366 0.020119 -0.146078
v 0.020552 0.043665 -0.142517
v -0.016003 0.054429 -0.177084
v -0.003775 0.056692 -0.177273
v -0.002037 0.051886 -0.192054
v -0.023558 0.045971 -0.189142
v -0.005809 0.057237 -0.140686
v -0.021084 0.052549 -0.141887
v -0.033159 0.039114 -0.144450
v -0.042909 0.021986 -0.145853
v -0.033906 -0.043787 -0.152674
v -0.051354 0.003485 -0.146481
v -0.014975 -0.047633 -0.156104
v 0.005171 -0.048130 -0.158107
v 0.043000 -0.038665 -0.153548
v 0.016886 0.042253 -0.188259
v 0.060176 -0.003901 -0.197975
v 0.058482 -0.026494 -0.200442
v 0.045291 -0.043606 -0.202187
v 0.002352 -0.052047 -0.202304
v -0.017384 -0.051356 -0.202702
v -0.039087 0.026877 -0.193279
v -0.034101 -0.044582 -0.203234
v -0.049468 0.008316 -0.196958
v -0.001597 0.048424 -0.210312
v -0.022223 0.042579 -0.210926
v 0.018286 0.043648 -0.209640
v 0.058001 -0.002409 -0.217013
v 0.056668 -0.024625 -0.219527
v 0.044467 -0.042132 -0.221092
v 0.004134 -0.051900 -0.221178
v -0.038145 0.026533 -0.213038
v -0.047563 0.008147 -0.216120
v -0.032153 -0.042922 -0.222416
v -0.015769 -0.050159 -0.221652
v 0.019964 -0.050495 -0.133757
v 0.022774 -0.046177 -0.144899
v 0.017905 -0.055163 -0.120052
v 0.024562 -0.045910 -0.156760
v 0.025015 -0.051869 -0.202304
v 0.025217 -0.050965 -0.221132
v 0.044069 -0.037767 -0.064003
v 0.032270 -0.055606 -0.064542
v 0.014728 -0.066009 -0.064670
v -0.004966 -0.068480 -0.064998
v -0.024056 -0.063057 -0.064466
v -0.035731 -0.050901 -0.064101
v -0.038710 -0.036864 -0.063589
v -0.050122 0.011417 -0.061532
v -0.047570 0.029305 -0.060693
v -0.035323 0.045993 -0.058779
v -0.017815 0.056904 -0.057131
v -0.000011 0.062872 -0.057216
v 0.029643 0.056680 -0.060359
v 0.052061 0.029060 -0.062258
v 0.054421 0.005522 -0.063522
v 0.051055 -0.017203 -0.063768
v 0.042387 -0.041901 -0.021596
v 0.051623 0.000013 -0.000087
v 0.050525 0.022735 0.000644
v 0.032757 0.056844 0.002339
v 0.006262 0.072497 0.007941
v -0.029922 0.055890 -0.014346
v -0.045925 0.037404 -0.017386
v -0.051896 0.017588 -0.019074
v -0.041304 -0.034381 -0.019453
v -0.038990 -0.050894 -0.019908
v -0.027052 -0.063583 -0.019388
v -0.009645 -0.069799 -0.018916
v 0.011360 -0.068485 -0.019950
v 0.030358 -0.058896 -0.021308
v -0.000250 0.061402 -0.077640
v 0.027453 0.054391 -0.079714
v 0.050448 0.028196 -0.082608
v 0.052610 0.006785 -0.083723
v 0.050523 -0.015681 -0.083587
v 0.042973 -0.035572 -0.083407
v 0.032247 -0.052860 -0.084410
v 0.016050 -0.063370 -0.085523
v -0.002691 -0.065675 -0.086669
v -0.020013 -0.061050 -0.086411
v -0.031834 -0.050217 -0.085622
v -0.036395 -0.036688 -0.084087
v -0.047868 0.012607 -0.080837
v -0.044934 0.029960 -0.080624
v -0.032744 0.044488 -0.079121
v -0.016819 0.056038 -0.077965
v -0.011709 0.068027 -0.012718
v 0.004245 0.072050 -0.014159
v 0.034435 0.058705 -0.017757
v 0.052543 0.024399 -0.020102
v 0.052109 0.002650 -0.020599
v 0.048079 -0.019726 -0.021098
v 0.019889 0.040641 -0.170217
v 0.061264 -0.003756 -0.180135
v 0.059021 -0.026508 -0.182407
v 0.045697 -0.043009 -0.184510
v 0.025542 -0.050614 -0.185406
v 0.003844 -0.050362 -0.185786
v -0.016424 -0.050756 -0.185400
v -0.034627 -0.045835 -0.185434
v -0.051439 0.007147 -0.178705
v -0.041583 0.025056 -0.174736
v -0.030284 0.042068 -0.170535
v -0.019740 0.055192 -0.165785
v -0.005127 0.059225 -0.164482
v 0.031770 -0.057573 -0.042874
v 0.013134 -0.067750 -0.042143
v -0.007715 -0.069801 -0.041588
v -0.025939 -0.063939 -0.041682
v -0.037991 -0.051098 -0.041837
v -0.039051 -0.035216 -0.040786
v -0.050706 0.014462 -0.040250
v -0.045830 0.033536 -0.038805
v -0.032557 0.051674 -0.036702
v -0.015764 0.063815 -0.035740
v 0.001081 0.068797 -0.036812
v 0.033444 0.058580 -0.038620
v 0.053247 0.026405 -0.041641
v 0.054085 0.004208 -0.042204
v 0.050315 -0.018338 -0.042663
v 0.043821 -0.040082 -0.042961
v -0.016336 -0.057749 -0.105970
v -0.000603 -0.061953 -0.106285
v 0.017189 -0.059669 -0.104144
v 0.032402 -0.049431 -0.101897
v 0.042089 -0.033514 -0.100370
v 0.049791 -0.015077 -0.100932
v 0.051387 0.006172 -0.101443
v 0.047618 0.025666 -0.100707
v 0.025992 0.052441 -0.098378
v 0.000126 0.062210 -0.098005
v -0.016485 0.058485 -0.098719
v -0.032234 0.046655 -0.099545
v -0.043671 0.031703 -0.099613
v -0.047366 0.012424 -0.098675
v -0.035028 -0.035407 -0.102485
v -0.027303 -0.048444 -0.104982
v 0.049948 0.017640 -0.214431
v 0.052698 0.016639 -0.195508
v 0.053338 0.017395 -0.177634
v 0.034777 0.032466 -0.211462
v 0.036807 0.030884 -0.192198
v 0.038219 0.032332 -0.174316
v 0.036308 0.033894 -0.144329
v 0.034288 0.035023 -0.128815
v 0.034992 0.038062 -0.113305
v 0.037649 0.041222 -0.099399
v 0.040298 0.043968 -0.080754
v 0.042667 0.045444 -0.061027
v 0.044838 0.045380 -0.040939
v 0.045809 0.044727 -0.019895
v 0.043695 0.042871 0.000403
v -0.049194 -0.011406 -0.219480
v -0.051399 -0.012398 -0.200276
v -0.052738 -0.014203 -0.181962
v -0.053709 -0.015732 -0.147719
v -0.048548 -0.015490 -0.128954
v -0.046364 -0.012764 -0.113232
v -0.046448 -0.006881 -0.098768
v -0.044831 -0.005646 -0.081782
v -0.043390 -0.004343 -0.061317
v -0.044424 -0.002071 -0.039960
v -0.046848 0.000135 -0.019357
v -0.053915 0.002959 -0.000220
v -0.043117 -0.028959 -0.221637
v -0.045605 -0.030841 -0.202402
v -0.047220 -0.032875 -0.184312
v -0.048333 -0.033440 -0.149735
v -0.037273 -0.031616 -0.127475
v -0.034570 -0.026184 -0.110383
v -0.041892 -0.022133 -0.100124
v -0.039536 -0.022540 -0.082718
v -0.036649 -0.021863 -0.061412
v -0.036459 -0.018911 -0.039359
v -0.039342 -0.017234 -0.018780
v -0.046751 -0.014853 0.000032
v 0.008204 0.052986 -0.165738
v 0.008322 0.054012 -0.141238
v 0.008602 0.054629 -0.128516
v 0.012103 0.057839 -0.114431
v 0.013940 0.060139 -0.097949
v 0.013370 0.060339 -0.079183
v 0.016155 0.063007 -0.058175
v 0.018529 0.066798 -0.037944
v 0.020271 0.067932 -0.016014
v 0.019828 0.066670 0.004770
v 0.006931 0.051220 -0.176425
v 0.060877 -0.002182 -0.163344
v 0.052707 0.018548 -0.161268
v 0.038225 0.033016 -0.158732
v 0.020993 0.041648 -0.155797
v 0.008785 0.054277 -0.153409
v -0.005791 0.058505 -0.152188
v -0.021327 0.053857 -0.153494
v -0.032696 0.039971 -0.156985
v -0.043096 0.023599 -0.159879
v -0.052054 0.005743 -0.162126
v -0.053615 -0.014936 -0.164427
v -0.048552 -0.033387 -0.166732
v -0.034442 -0.045427 -0.168733
v -0.015330 -0.048753 -0.170626
v 0.004961 -0.048388 -0.171717
v 0.025410 -0.048314 -0.170447
v 0.044743 -0.041264 -0.168214
v 0.058192 -0.025071 -0.165492
v -0.009776 -0.022207 -0.069246
v -0.015996 0.023908 -0.064701
v -0.021957 -0.024036 -0.109435
v -0.033811 0.015986 -0.105607
v -0.019666 -0.022950 -0.148853
v -0.034059 0.018060 -0.145252
v -0.010817 -0.073282 -0.099877
v 0.014661 -0.071192 -0.101608
v -0.056690 -0.048634 -0.097169
v 0.038439 -0.057780 -0.102189
v 0.054731 -0.030031 -0.102772
v 0.058721 0.000020 -0.103581
v 0.051142 -0.029170 -0.103833
v 0.054939 0.000054 -0.104246
v 0.036486 -0.054012 -0.103163
v 0.013478 -0.067287 -0.101964
v -0.011586 -0.069850 -0.100279
v 0.047066 0.025635 -0.103649
v 0.051847 0.027080 -0.102401
v 0.010802 0.061692 -0.103014
v 0.011266 0.066273 -0.102364
v -0.043675 0.053927 -0.099348
v -0.015430 0.065357 -0.101096
v -0.015303 0.062116 -0.101720
v 0.032984 0.052499 -0.101426
v 0.030405 0.049514 -0.102157
v -0.037649 -0.065060 -0.097520
v -0.037287 -0.061775 -0.097973
v -0.049544 0.048601 -0.101579
v -0.022799 -0.025334 -0.170975
vn -0.0865 0.9912 -0.0999
vn -0.5571 0.8303 -0.0181
vn -0.5049 0.8526 -0.1348
vn -0.0604 0.9830 -0.1736
vn 0.3940 0.9031 -0.1709
vn 0.3997 0.8850 -0.2387
vn 0.6168 0.7392 -0.2706
vn 0.5931 0.7862 -0.1735
vn 0.8586 0.5100 -0.0524
vn 0.8227 0.5643 0.0686
vn 0.6514 0.7555 -0.0695
vn 0.7187 0.6629 -0.2099
vn -0.9291 0.3520 -0.1138
vn -0.7897 0.5930 -0.1573
vn -0.8211 0.5707 -0.0069
vn -0.9129 0.4075 0.0233
vn 0.9878 0.1183 0.1017
vn 0.9787 0.1239 0.1638
vn 0.9388 -0.3214 0.1243
vn 0.8680 -0.4594 0.1887
vn -0.9236 -0.2798 0.2620
vn -0.9128 -0.3787 0.1530
vn -0.9962 0.0865 0.0050
vn -0.9765 0.1745 0.1267
vn -0.7829 -0.5576 -0.2760
vn -0.4542 -0.8597 -0.2338
vn -0.4873 -0.8514 -0.1940
vn -0.8305 -0.5260 -0.1836
vn -0.9944 0.1043 -0.0176
vn -0.9717 -0.2344 0.0278
vn -0.9664 -0.2469 0.0709
vn -0.9998 0.0022 -0.0210
vn -0.9100 0.4107 -0.0565
vn -0.6945 0.7191 -0.0240
vn -0.7067 0.7024 -0.0853
vn -0.8942 0.4378 -0.0932
vn -0.4323 0.9017 -0.0039
vn -0.4121 0.9102 -0.0405
vn -0.0403 0.9984 -0.0392
vn -0.1205 0.9924 -0.0254
vn 0.3524 0.9305 -0.1001
vn 0.2337 0.9696 -0.0724
vn 0.5319 0.8367 -0.1303
vn 0.5964 0.7816 -0.1830
vn 0.9319 0.3369 -0.1343
vn 0.9050 0.3988 -0.1482
vn 0.7398 0.6353 -0.2216
vn 0.7416 0.6522 -0.1574
vn 0.9962 0.0085 -0.0865
vn 0.9982 0.0597 -0.0105
vn 0.9715 -0.2286 -0.0632
vn 0.9662 -0.2573 0.0150
vn -0.8272 0.5347 -0.1726
vn -0.9700 -0.0159 -0.2427
vn -0.9273 0.0591 -0.3697
vn -0.7156 0.6645 -0.2153
vn -0.8503 -0.4417 -0.2861
vn -0.9645 -0.2548 -0.0694
vn -0.7220 -0.6808 -0.1233
vn -0.8499 -0.5131 -0.1200
vn -0.5993 -0.7898 0.1301
vn -0.3445 -0.9275 -0.1451
vn 0.9866 0.1136 0.1173
vn 0.8816 -0.4293 0.1961
vn 0.8239 0.5646 0.0499
vn 0.5981 0.8011 -0.0202
vn -0.3997 0.8814 -0.2516
vn 0.1157 0.9597 -0.2560
vn 0.0893 0.9708 -0.2228
vn -0.5692 0.7990 -0.1939
vn -0.0346 0.9985 0.0432
vn -0.5470 0.8353 0.0554
vn 0.4530 0.8913 -0.0196
vn 0.5914 0.8048 -0.0500
vn -0.8172 0.5744 0.0467
vn -0.5131 0.8541 -0.0849
vn 0.0746 0.9939 -0.0810
vn -0.7731 0.6282 -0.0877
vn 0.5450 0.8327 -0.0984
vn 0.5239 0.8354 -0.1663
vn 0.8921 -0.4442 -0.0822
vn 0.8792 -0.4717 -0.0666
vn 0.8404 -0.5418 -0.0118
vn 0.7852 -0.6152 0.0704
vn -0.3680 -0.8950 -0.2522
vn -0.2681 -0.9172 -0.2947
vn -0.8897 0.4506 0.0737
vn -0.9845 -0.1188 0.1289
vn -0.9600 0.2684 0.0794
vn -0.1357 -0.9902 0.0320
vn -0.4217 -0.8970 0.1325
vn 0.8313 0.5508 -0.0741
vn 0.8320 0.5532 -0.0427
vn 0.9910 0.1330 -0.0138
vn 0.9869 0.1399 -0.0802
vn 0.9250 -0.3793 0.0243
vn 0.9319 -0.3554 -0.0728
vn -0.8172 0.5706 -0.0816
vn -0.8449 0.5319 -0.0577
vn -0.9896 -0.0882 -0.1132
vn -0.9924 -0.0969 -0.0758
vn -0.9564 0.2875 -0.0523
vn -0.9497 0.3021 -0.0819
vn -0.5086 -0.8608 -0.0158
vn -0.5786 -0.8096 -0.0985
vn -0.2010 -0.9793 -0.0230
vn -0.1296 -0.9892 0.0687
vn -0.0069 0.9974 -0.0724
vn -0.5159 0.8487 -0.1163
vn 0.4985 0.8638 -0.0736
vn 0.4124 0.9109 0.0111
vn 0.8289 0.5566 -0.0564
vn 0.9801 0.1728 -0.0981
vn 0.9388 -0.3241 -0.1169
vn -0.8030 0.5894 -0.0887
vn -0.9540 0.2837 -0.0967
vn -0.9856 -0.1101 -0.1280
vn -0.2436 -0.9642 -0.1049
vn -0.6021 -0.7839 -0.1514
vn 0.6008 -0.7941 0.0921
vn 0.6707 -0.7387 -0.0663
vn 0.3514 -0.9324 -0.0846
vn 0.4146 -0.8816 -0.2254
vn 0.0309 -0.9474 -0.3185
vn 0.0499 -0.9752 -0.2157
vn 0.0037 -0.9661 -0.2583
vn 0.0369 -0.9993 -0.0094
vn 0.2385 -0.9673 0.0866
vn 0.5498 -0.8124 0.1944
vn 0.5833 -0.8094 0.0685
vn 0.6083 -0.7928 -0.0378
vn 0.1972 -0.9803 0.0084
vn 0.1749 -0.9792 0.1032
vn 0.0009 -0.9940 0.1091
vn -0.0114 -0.9997 0.0219
vn 0.6261 -0.7695 -0.1261
vn 0.2350 -0.9670 -0.0982
vn -0.0146 -0.9968 -0.0789
vn 0.3648 -0.9089 -0.2020
vn 0.7179 -0.6804 -0.1473
vn 0.7089 -0.6966 -0.1101
vn 0.3414 -0.9302 -0.1350
vn -0.0713 -0.9841 -0.1626
vn -0.0448 -0.9740 -0.2221
vn 0.7044 -0.6932 -0.1526
vn 0.3909 -0.8914 -0.2292
vn -0.5995 0.7969 -0.0743
vn -0.6585 0.7512 -0.0462
vn 0.3198 -0.9441 -0.0798
vn 0.6905 -0.7198 -0.0715
vn 0.6703 -0.7417 -0.0222
vn 0.2931 -0.9556 -0.0313
vn -0.1074 -0.9934 -0.0393
vn -0.5326 -0.8448 -0.0510
vn -0.5113 -0.8507 -0.1217
vn -0.0825 -0.9916 -0.0992
vn -0.8717 -0.4733 -0.1269
vn -0.9076 -0.4155 -0.0597
vn -0.9969 0.0408 -0.0672
vn -0.9967 -0.0413 -0.0702
vn -0.9918 -0.1159 -0.0538
vn -0.9340 -0.3557 0.0338
vn -0.9206 -0.3898 -0.0222
vn -0.9976 -0.0635 -0.0288
vn -0.9206 0.3829 -0.0762
vn -0.9008 0.4300 -0.0605
vn -0.6934 0.7125 -0.1071
vn -0.6799 0.7261 -0.1025
vn 0.5372 0.8289 -0.1561
vn 0.2180 0.9601 -0.1749
vn 0.2851 0.9461 -0.1535
vn 0.6182 0.7789 -0.1058
vn 0.9725 -0.2307 -0.0309
vn 0.9989 -0.0262 -0.0376
vn 0.9973 -0.0631 0.0377
vn 0.9734 -0.2255 0.0400
vn 0.9531 0.2959 -0.0637
vn 0.9744 0.2249 0.0028
vn 0.7717 0.6275 -0.1032
vn 0.8334 0.5503 -0.0513
vn -0.4367 0.8873 -0.1480
vn -0.4281 0.8908 -0.1523
vn -0.0953 0.9779 -0.1861
vn -0.1490 0.9736 -0.1732
vn 0.8981 -0.4365 -0.0530
vn 0.9023 -0.4311 0.0078
vn -0.9208 -0.3483 -0.1757
vn -0.8916 -0.3396 -0.2996
vn -0.3900 0.9177 -0.0760
vn -0.2964 0.9537 -0.0506
vn 0.1439 0.9893 -0.0258
vn 0.0064 0.9976 -0.0689
vn 0.6755 0.7363 0.0389
vn 0.3937 0.9191 -0.0180
vn 0.4743 0.8788 0.0522
vn 0.6943 0.7095 0.1207
vn 0.9821 0.1755 0.0677
vn 0.8687 0.4920 0.0581
vn 0.8603 0.5012 0.0932
vn 0.9796 0.2010 0.0033
vn 0.9948 -0.0858 0.0556
vn 0.9944 -0.0753 -0.0747
vn 0.9910 0.1227 0.0526
vn 0.8339 0.5518 0.0079
vn 0.9079 -0.4019 0.1190
vn 0.5573 -0.8147 0.1601
vn 0.1773 -0.9735 0.1442
vn 0.0160 -0.9941 0.1071
vn -0.0902 -0.9918 0.0906
vn -0.4347 -0.8991 0.0525
vn -0.9627 0.2704 0.0134
vn -0.9952 -0.0951 -0.0215
vn -0.8718 0.4897 0.0145
vn -0.8092 0.5876 0.0025
vn -0.5518 0.8327 0.0468
vn 0.0072 0.9985 0.0549
vn 0.5786 0.8132 -0.0624
vn 0.5128 0.8582 -0.0214
vn 0.6550 -0.7553 0.0198
vn 0.2637 -0.9646 0.0051
vn -0.1397 -0.9902 0.0031
vn -0.5502 -0.8350 -0.0023
vn -0.9056 -0.4237 -0.0190
vn -0.9966 0.0094 -0.0816
vn 0.9728 -0.2265 0.0492
vn 0.9016 -0.4305 0.0422
vn 0.6357 0.7719 0.0052
vn 0.6014 0.7985 -0.0264
vn 0.5675 0.8213 -0.0579
vn 0.5806 0.8135 -0.0326
vn 0.5642 0.8216 -0.0822
vn -0.8702 -0.4674 -0.1558
vn -0.8747 -0.4670 -0.1298
vn -0.8630 -0.4989 -0.0791
vn -0.8421 -0.5392 -0.0121
vn -0.7871 -0.5872 0.1888
vn -0.7046 -0.6426 0.3010
vn -0.8458 -0.5215 -0.1123
vn -0.9255 -0.3046 -0.2251
vn -0.9566 -0.2809 0.0776
vn -0.9898 -0.1393 0.0285
vn -0.9901 -0.1286 -0.0570
vn -0.9680 -0.1881 -0.1660
vn -0.9265 -0.2677 -0.2645
vn 0.7223 -0.2549 -0.6429
vn -0.5267 0.1601 -0.8349
vn -0.5660 -0.0191 -0.8242
vn 0.7561 0.0394 -0.6533
vn 0.5255 -0.5299 -0.6656
vn 0.1756 -0.7121 -0.6798
vn -0.1892 0.5219 -0.8318
vn -0.3907 0.3783 -0.8392
vn 0.6660 0.3211 -0.6733
vn -0.5611 -0.1964 -0.8041
vn 0.4783 0.5201 -0.7076
vn -0.3876 -0.4766 -0.7891
vn -0.1178 -0.5714 -0.8122
vn 0.1907 0.6955 -0.6927
vn 0.0069 0.5575 -0.8301
vn -0.1405 -0.7368 -0.6614
vn -0.1369 0.6896 -0.7111
vn 0.0539 -0.6116 -0.7893
vn 0.2262 -0.4775 -0.8490
vn 0.1973 0.5243 -0.8284
vn -0.3724 -0.6609 -0.6516
vn 0.3330 0.4655 -0.8200
vn 0.8910 0.4196 -0.1732
vn 0.9848 0.1411 -0.1015
vn 0.9922 0.0979 -0.0777
vn 0.8653 0.4940 -0.0851
vn 0.6087 0.7524 -0.2518
vn 0.9955 0.0628 0.0707
vn 0.8533 0.4190 -0.3103
vn 0.9786 0.0346 -0.2029
vt 0.723109 0.844413
vt 0.724253 0.853196
vt 0.715364 0.853581
vt 0.714445 0.844394
vt 0.722261 0.835943
vt 0.713718 0.835664
vt 0.713075 0.827135
vt 0.721668 0.827529
vt 0.711516 0.809099
vt 0.720741 0.808702
vt 0.721279 0.818715
vt 0.712167 0.818416
vt 0.718026 0.873227
vt 0.716464 0.863043
vt 0.725665 0.862466
vt 0.727192 0.872425
vt 0.710975 0.799186
vt 0.720287 0.799251
vt 0.710026 0.788555
vt 0.719839 0.785320
vt 0.725223 0.722625
vt 0.715640 0.723016
vt 0.716070 0.714830
vt 0.726255 0.714190
vt 0.703320 0.742623
vt 0.702793 0.749859
vt 0.691996 0.749732
vt 0.692512 0.742298
vt 0.706864 0.714495
vt 0.705791 0.722719
vt 0.694260 0.721979
vt 0.695399 0.713915
vt 0.696676 0.874456
vt 0.695004 0.863975
vt 0.706399 0.863509
vt 0.707772 0.873981
vt 0.693951 0.854131
vt 0.705223 0.853862
vt 0.704345 0.844454
vt 0.693072 0.844531
vt 0.703637 0.835634
vt 0.692468 0.835521
vt 0.692071 0.826901
vt 0.703251 0.827201
vt 0.691717 0.809339
vt 0.702493 0.809096
vt 0.702967 0.818536
vt 0.691756 0.818382
vt 0.691313 0.800112
vt 0.702066 0.799801
vt 0.691212 0.789855
vt 0.701627 0.789325
vt 0.659284 0.877444
vt 0.660420 0.887840
vt 0.646728 0.887668
vt 0.647569 0.878421
vt 0.704163 0.735616
vt 0.692998 0.735334
vt 0.712748 0.743637
vt 0.714452 0.736492
vt 0.722994 0.737836
vt 0.721488 0.747108
vt 0.727349 0.798793
vt 0.727369 0.787021
vt 0.727404 0.809249
vt 0.727770 0.819089
vt 0.744406 0.850906
vt 0.744270 0.844450
vt 0.748362 0.844409
vt 0.748291 0.856274
vt 0.729725 0.844278
vt 0.731098 0.852868
vt 0.728961 0.836188
vt 0.728223 0.827920
vt 0.732599 0.862023
vt 0.740845 0.852466
vt 0.739829 0.844216
vt 0.741856 0.860427
vt 0.739477 0.836808
vt 0.743170 0.838575
vt 0.691137 0.780783
vt 0.701537 0.780538
vt 0.710710 0.780419
vt 0.715221 0.779507
vt 0.711924 0.750221
vt 0.717394 0.751536
vt 0.734415 0.871717
vt 0.732749 0.722156
vt 0.734845 0.712945
vt 0.729305 0.746859
vt 0.730246 0.738443
vt 0.746347 0.810272
vt 0.738356 0.809655
vt 0.737885 0.800238
vt 0.746287 0.800205
vt 0.738195 0.788451
vt 0.746135 0.789522
vt 0.750651 0.868745
vt 0.743857 0.870101
vt 0.751379 0.722586
vt 0.743451 0.722622
vt 0.744310 0.713690
vt 0.752720 0.713400
vt 0.741940 0.738461
vt 0.749170 0.738432
vt 0.748206 0.747014
vt 0.741162 0.746794
vt 0.754630 0.844517
vt 0.755657 0.856458
vt 0.746120 0.833136
vt 0.753996 0.833082
vt 0.753451 0.810896
vt 0.753378 0.800404
vt 0.753321 0.789527
vt 0.757000 0.868082
vt 0.709558 0.884834
vt 0.699490 0.885290
vt 0.728860 0.882610
vt 0.719542 0.883745
vt 0.737570 0.881240
vt 0.752110 0.879800
vt 0.745849 0.880553
vt 0.759214 0.879740
vt 0.760444 0.712925
vt 0.758702 0.722329
vt 0.755399 0.747642
vt 0.756386 0.739027
vt 0.722157 0.774370
vt 0.717056 0.773000
vt 0.723099 0.765160
vt 0.717461 0.764837
vt 0.717767 0.757122
vt 0.723011 0.756608
vt 0.711035 0.757253
vt 0.728789 0.755742
vt 0.728620 0.765367
vt 0.727925 0.775726
vt 0.739091 0.777343
vt 0.746191 0.778272
vt 0.746475 0.766917
vt 0.739692 0.766335
vt 0.740261 0.756016
vt 0.747161 0.756342
vt 0.753402 0.778454
vt 0.753766 0.767451
vt 0.754485 0.757068
vt 0.701772 0.764790
vt 0.701528 0.772572
vt 0.691165 0.772613
vt 0.691306 0.764812
vt 0.691609 0.757230
vt 0.702097 0.757190
vt 0.710244 0.772374
vt 0.710407 0.764679
vt 0.647746 0.867662
vt 0.658459 0.866409
vt 0.680007 0.764851
vt 0.679859 0.772659
vt 0.668343 0.772524
vt 0.668664 0.764552
vt 0.669103 0.756779
vt 0.669329 0.749295
vt 0.680750 0.749616
vt 0.680514 0.757192
vt 0.681093 0.742075
vt 0.669523 0.741966
vt 0.669673 0.735023
vt 0.681321 0.735057
vt 0.681970 0.713475
vt 0.681810 0.721445
vt 0.670287 0.721443
vt 0.670895 0.713765
vt 0.683019 0.875239
vt 0.682823 0.886195
vt 0.671440 0.887180
vt 0.670584 0.876419
vt 0.682362 0.864789
vt 0.669922 0.865599
vt 0.680199 0.826891
vt 0.680600 0.835756
vt 0.668657 0.836370
vt 0.668370 0.827298
vt 0.680160 0.789897
vt 0.680104 0.799855
vt 0.667910 0.799948
vt 0.668097 0.790079
vt 0.679842 0.810074
vt 0.667782 0.810229
vt 0.679899 0.818291
vt 0.668104 0.818571
vt 0.681625 0.854689
vt 0.669483 0.855392
vt 0.669046 0.845730
vt 0.681030 0.845023
vt 0.680096 0.780894
vt 0.668190 0.780948
vt 0.657724 0.714530
vt 0.658196 0.721751
vt 0.647757 0.722011
vt 0.647271 0.715120
vt 0.658104 0.856126
vt 0.647704 0.857128
vt 0.647648 0.847278
vt 0.657847 0.846485
vt 0.657456 0.828038
vt 0.657606 0.837095
vt 0.647654 0.837763
vt 0.647530 0.828645
vt 0.657046 0.810302
vt 0.657212 0.819186
vt 0.647263 0.819647
vt 0.647222 0.810264
vt 0.657158 0.800109
vt 0.647434 0.799973
vt 0.732956 0.799383
vt 0.733060 0.809667
vt 0.733116 0.787812
vt 0.733635 0.776437
vt 0.734146 0.765808
vt 0.734665 0.755818
vt 0.735467 0.746840
vt 0.736316 0.738576
vt 0.739426 0.713057
vt 0.738550 0.722227
vt 0.739460 0.870940
vt 0.741211 0.880926
vt 0.737579 0.861419
vt 0.736214 0.852716
vt 0.735030 0.844103
vt 0.733716 0.828255
vt 0.734485 0.836288
vt 0.657890 0.772309
vt 0.658070 0.764253
vt 0.658193 0.756517
vt 0.658360 0.749130
vt 0.658437 0.741948
vt 0.658430 0.735127
vt 0.657450 0.790224
vt 0.657634 0.780887
vt 0.753580 0.821656
vt 0.746320 0.820423
vt 0.738976 0.819963
vt 0.733437 0.819644
vt 0.739137 0.829435
vt 0.757468 0.730917
vt 0.750160 0.730913
vt 0.742689 0.730770
vt 0.737278 0.730650
vt 0.731507 0.730550
vt 0.724225 0.730483
vt 0.715122 0.730073
vt 0.704884 0.729583
vt 0.693510 0.728893
vt 0.681594 0.728395
vt 0.669921 0.728384
vt 0.658414 0.728534
vt 0.648027 0.728690
vt 0.000000 0.000000
s 1
usemtl PackedMaterial0mat.002
f 7/1/1 8/2/2 5/3/3
f 7/1/1 5/3/3 6/4/4
f 218/5/5 219/6/6 10/7/7
f 218/5/5 10/7/7 9/8/8
f 11/9/9 12/10/10 184/11/11
f 11/9/9 184/11/11 185/12/12
f 13/13/13 16/14/14 14/15/15
f 13/13/13 14/15/15 15/16/16
f 5/3/3 8/2/2 14/15/15
f 5/3/3 14/15/15 16/14/14
f 12/10/10 11/9/9 18/17/17
f 12/10/10 18/17/17 17/18/18
f 19/19/19 20/20/20 17/18/18
f 19/19/19 17/18/18 18/17/17
f 196/21/21 197/22/22 24/23/23
f 196/21/21 24/23/23 22/24/24
f 176/25/25 161/26/26 119/27/27
f 176/25/25 119/27/27 120/28/28
f 174/29/29 198/30/30 199/31/31
f 174/29/29 199/31/31 122/32/32
f 123/33/33 124/34/34 172/35/35
f 123/33/33 172/35/35 173/36/36
f 125/37/37 171/38/38 172/35/35
f 125/37/37 172/35/35 124/34/34
f 170/39/39 171/38/38 125/37/37
f 170/39/39 125/37/37 110/40/40
f 220/41/41 221/42/42 111/43/43
f 220/41/41 111/43/43 169/44/44
f 112/45/45 168/46/46 186/47/47
f 112/45/45 186/47/47 187/48/48
f 113/49/49 167/50/50 168/46/46
f 113/49/49 168/46/46 112/45/45
f 114/51/51 166/52/52 167/50/50
f 114/51/51 167/50/50 113/49/49
f 102/53/53 103/54/54 2/55/55
f 102/53/53 2/55/55 1/56/56
f 175/57/57 176/25/25 120/28/28
f 175/57/57 120/28/28 121/58/58
f 31/59/59 21/60/60 23/61/61
f 31/59/59 23/61/61 36/62/62
f 37/63/63 17/18/18 20/20/20
f 37/63/63 20/20/20 38/64/64
f 39/65/65 12/10/10 17/18/18
f 39/65/65 17/18/18 37/63/63
f 39/65/65 183/66/66 184/11/11
f 39/65/65 184/11/11 12/10/10
f 41/67/67 42/68/68 43/69/69
f 41/67/67 43/69/69 44/70/70
f 8/2/2 7/1/1 45/71/71
f 8/2/2 45/71/71 46/72/72
f 217/73/73 218/5/5 9/8/8
f 217/73/73 9/8/8 40/74/74
f 47/75/75 14/15/15 8/2/2
f 47/75/75 8/2/2 46/72/72
f 143/76/76 144/77/77 42/68/68
f 143/76/76 42/68/68 41/67/67
f 41/67/67 44/70/70 142/78/78
f 41/67/67 142/78/78 143/76/76
f 216/79/79 226/80/80 42/68/68
f 216/79/79 42/68/68 144/77/77
f 114/51/51 115/81/81 165/82/82
f 114/51/51 165/82/82 166/52/52
f 34/83/83 26/84/84 20/20/20
f 34/83/83 20/20/20 19/19/19
f 30/85/85 31/59/59 36/62/62
f 30/85/85 36/62/62 35/86/86
f 14/15/15 47/75/75 48/87/87
f 14/15/15 48/87/87 15/16/16
f 195/88/88 196/21/21 22/24/24
f 195/88/88 22/24/24 50/89/89
f 51/90/90 36/62/62 23/61/61
f 51/90/90 23/61/61 49/91/91
f 178/92/92 179/93/93 133/94/94
f 178/92/92 133/94/94 55/95/95
f 134/96/96 56/97/97 55/95/95
f 134/96/96 55/95/95 133/94/94
f 60/98/98 141/99/99 142/78/78
f 60/98/98 142/78/78 44/70/70
f 193/100/100 194/101/101 140/102/102
f 193/100/100 140/102/102 62/103/103
f 139/104/104 61/105/105 59/106/106
f 139/104/104 59/106/106 138/107/107
f 44/70/70 43/69/69 63/108/108
f 44/70/70 63/108/108 64/109/109
f 63/108/108 43/69/69 54/110/110
f 63/108/108 54/110/110 65/111/111
f 177/112/112 178/92/92 55/95/95
f 177/112/112 55/95/95 66/113/113
f 66/113/113 55/95/95 56/97/97
f 66/113/113 56/97/97 67/114/114
f 70/115/115 60/98/98 44/70/70
f 70/115/115 44/70/70 64/109/109
f 173/36/36 174/116/29 122/117/32
f 173/36/36 122/117/32 123/33/33
f 22/118/24 24/119/23 13/13/13
f 22/118/24 13/13/13 15/16/16
f 50/120/89 22/118/24 15/16/16
f 50/120/89 15/16/16 48/87/87
f 62/121/103 140/122/102 141/99/99
f 62/121/103 141/99/99 60/98/98
f 70/115/115 71/123/116 62/121/103
f 70/115/115 62/121/103 60/98/98
f 62/103/103 71/124/116 192/125/117
f 62/103/103 192/125/117 193/100/100
f 73/126/118 59/106/106 61/105/105
f 73/126/118 61/105/105 72/127/119
f 25/128/120 20/20/20 26/84/84
f 25/128/120 26/84/84 27/129/121
f 75/130/122 74/131/123 28/132/124
f 75/130/122 28/132/124 29/133/125
f 29/133/125 28/132/124 35/86/86
f 29/133/125 35/86/86 36/62/62
f 33/134/126 30/85/85 35/86/86
f 33/134/126 35/86/86 28/132/124
f 52/135/127 29/133/125 36/62/62
f 52/135/127 36/62/62 51/90/90
f 77/136/128 75/130/122 29/133/125
f 77/136/128 29/133/125 52/135/127
f 38/64/64 20/20/20 25/128/120
f 38/64/64 25/128/120 53/137/129
f 56/97/97 134/96/96 135/138/130
f 56/97/97 135/138/130 57/139/131
f 78/140/132 136/141/133 137/142/134
f 78/140/132 137/142/134 58/143/135
f 58/143/135 137/142/134 138/107/107
f 58/143/135 138/107/107 59/106/106
f 67/114/114 56/97/97 57/139/131
f 67/114/114 57/139/131 68/144/136
f 79/145/137 78/140/132 58/143/135
f 79/145/137 58/143/135 69/146/138
f 58/143/135 59/106/106 73/126/118
f 58/143/135 73/126/118 69/146/138
f 78/140/132 79/145/137 68/144/136
f 78/140/132 68/144/136 57/139/131
f 136/141/133 78/140/132 57/139/131
f 136/141/133 57/139/131 135/138/130
f 75/130/122 77/136/128 53/137/129
f 75/130/122 53/137/129 25/128/120
f 74/131/123 75/130/122 25/128/120
f 74/131/123 25/128/120 27/129/121
f 163/147/139 164/148/140 116/149/141
f 163/147/139 116/149/141 117/150/142
f 115/81/81 116/149/141 164/148/140
f 115/81/81 164/148/140 165/82/82
f 118/151/143 119/27/27 161/26/26
f 118/151/143 161/26/26 162/152/144
f 32/153/145 27/129/121 26/84/84
f 32/153/145 26/84/84 34/83/83
f 28/132/124 74/131/123 76/154/146
f 28/132/124 76/154/146 33/134/126
f 32/153/145 76/154/146 74/131/123
f 32/153/145 74/131/123 27/129/121
f 162/152/144 163/147/139 117/150/142
f 162/152/144 117/150/142 118/151/143
f 102/53/53 1/56/56 3/155/147
f 102/53/53 3/155/147 101/156/148
f 82/157/149 81/158/150 145/159/151
f 82/157/149 145/159/151 146/160/152
f 147/161/153 148/162/154 84/163/155
f 147/161/153 84/163/155 83/164/156
f 85/165/157 84/163/155 148/162/154
f 85/165/157 148/162/154 149/166/158
f 149/166/158 150/167/159 86/168/160
f 149/166/158 86/168/160 85/165/157
f 87/169/161 200/170/162 201/171/163
f 87/169/161 201/171/163 151/172/164
f 88/173/165 87/174/161 151/175/164
f 88/173/165 151/175/164 152/176/166
f 89/177/167 88/173/165 152/176/166
f 89/177/167 152/176/166 153/178/168
f 92/179/169 222/180/170 223/181/171
f 92/179/169 223/181/171 156/182/172
f 95/183/173 94/184/174 158/185/175
f 95/183/173 158/185/175 159/186/176
f 93/187/177 157/188/178 158/185/175
f 93/187/177 158/185/175 94/184/174
f 188/189/179 189/190/180 157/188/178
f 188/189/179 157/188/178 93/187/177
f 90/191/181 154/192/182 155/193/183
f 90/191/181 155/193/183 91/194/184
f 82/157/149 146/160/152 147/161/153
f 82/157/149 147/161/153 83/164/156
f 80/195/185 160/196/186 145/159/151
f 80/195/185 145/159/151 81/158/150
f 221/42/42 222/180/170 92/179/169
f 221/42/42 92/179/169 111/43/43
f 93/187/177 112/45/45 187/48/48
f 93/187/177 187/48/48 188/189/179
f 94/184/174 113/49/49 112/45/45
f 94/184/174 112/45/45 93/187/177
f 95/183/173 114/51/51 113/49/49
f 95/183/173 113/49/49 94/184/174
f 95/183/173 80/195/185 115/81/81
f 95/183/173 115/81/81 114/51/51
f 80/195/185 81/158/150 116/149/141
f 80/195/185 116/149/141 115/81/81
f 117/150/142 116/149/141 81/158/150
f 117/150/142 81/158/150 82/157/149
f 118/151/143 117/150/142 82/157/149
f 118/151/143 82/157/149 83/164/156
f 83/164/156 84/163/155 119/27/27
f 83/164/156 119/27/27 118/151/143
f 120/28/28 119/27/27 84/163/155
f 120/28/28 84/163/155 85/165/157
f 121/58/58 120/28/28 85/165/157
f 121/58/58 85/165/157 86/168/160
f 122/32/32 199/31/31 200/170/162
f 122/32/32 200/170/162 87/169/161
f 123/33/33 122/117/32 87/174/161
f 123/33/33 87/174/161 88/173/165
f 88/173/165 89/177/167 124/34/34
f 88/173/165 124/34/34 123/33/33
f 90/191/181 125/37/37 124/34/34
f 90/191/181 124/34/34 89/177/167
f 110/40/40 125/37/37 90/191/181
f 110/40/40 90/191/181 91/194/184
f 103/197/54 202/198/187 203/199/188
f 103/197/54 203/199/188 2/200/55
f 126/201/189 4/202/190 100/203/191
f 126/201/189 100/203/191 127/204/192
f 128/205/193 224/206/194 225/207/195
f 128/205/193 225/207/195 99/208/196
f 129/209/197 190/210/198 191/211/199
f 129/209/197 191/211/199 98/212/200
f 130/213/201 129/209/197 98/212/200
f 130/213/201 98/212/200 97/214/202
f 80/195/185 95/183/173 159/186/176
f 80/195/185 159/186/176 160/196/186
f 90/191/181 89/177/167 153/178/168
f 90/191/181 153/178/168 154/192/182
f 3/155/147 4/202/190 126/201/189
f 3/155/147 126/201/189 101/156/148
f 39/65/65 37/63/63 227/215/203
f 39/65/65 227/215/203 228/216/204
f 38/64/64 244/217/205 227/215/203
f 38/64/64 227/215/203 37/63/63
f 243/218/206 244/217/205 38/64/64
f 243/218/206 38/64/64 53/137/129
f 77/136/128 242/219/207 243/218/206
f 77/136/128 243/218/206 53/137/129
f 241/220/208 242/219/207 77/136/128
f 241/220/208 77/136/128 52/135/127
f 240/221/209 241/220/208 52/135/127
f 240/221/209 52/135/127 51/90/90
f 49/91/91 239/222/210 240/221/209
f 49/91/91 240/221/209 51/90/90
f 236/223/211 237/224/212 195/88/88
f 236/223/211 195/88/88 50/89/89
f 235/225/213 236/226/211 50/120/89
f 235/225/213 50/120/89 48/87/87
f 234/227/214 235/225/213 48/87/87
f 234/227/214 48/87/87 47/75/75
f 233/228/215 234/227/214 47/75/75
f 233/228/215 47/75/75 46/72/72
f 46/72/72 45/71/71 232/229/216
f 46/72/72 232/229/216 233/228/215
f 230/230/217 231/231/218 217/73/73
f 230/230/217 217/73/73 40/74/74
f 146/160/152 145/159/151 109/232/219
f 146/160/152 109/232/219 108/233/220
f 147/161/153 146/160/152 108/233/220
f 147/161/153 108/233/220 107/234/221
f 106/235/222 148/162/154 147/161/153
f 106/235/222 147/161/153 107/234/221
f 149/166/158 148/162/154 106/235/222
f 149/166/158 106/235/222 105/236/223
f 104/237/224 150/167/159 149/166/158
f 104/237/224 149/166/158 105/236/223
f 151/172/164 201/171/163 202/198/187
f 151/172/164 202/198/187 103/197/54
f 152/176/166 151/175/164 103/54/54
f 152/176/166 103/54/54 102/53/53
f 153/178/168 152/176/166 102/53/53
f 153/178/168 102/53/53 101/156/148
f 154/192/182 153/178/168 101/156/148
f 154/192/182 101/156/148 126/201/189
f 155/193/183 154/192/182 126/201/189
f 155/193/183 126/201/189 127/204/192
f 156/182/172 223/181/171 224/206/194
f 156/182/172 224/206/194 128/205/193
f 157/188/178 189/190/180 190/210/198
f 157/188/178 190/210/198 129/209/197
f 158/185/175 157/188/178 129/209/197
f 158/185/175 129/209/197 130/213/201
f 159/186/176 158/185/175 130/213/201
f 159/186/176 130/213/201 131/238/225
f 160/196/186 159/186/176 131/238/225
f 160/196/186 131/238/225 96/239/226
f 145/159/151 160/196/186 96/239/226
f 145/159/151 96/239/226 109/232/219
f 162/152/144 161/26/26 30/85/85
f 162/152/144 30/85/85 33/134/126
f 76/154/146 163/147/139 162/152/144
f 76/154/146 162/152/144 33/134/126
f 76/154/146 32/153/145 164/148/140
f 76/154/146 164/148/140 163/147/139
f 165/82/82 164/148/140 32/153/145
f 165/82/82 32/153/145 34/83/83
f 166/52/52 165/82/82 34/83/83
f 166/52/52 34/83/83 19/19/19
f 167/50/50 166/52/52 19/19/19
f 167/50/50 19/19/19 18/17/17
f 168/46/46 167/50/50 18/17/17
f 168/46/46 18/17/17 11/9/9
f 185/12/12 186/47/47 168/46/46
f 185/12/12 168/46/46 11/9/9
f 219/6/6 220/41/41 169/44/44
f 219/6/6 169/44/44 10/7/7
f 6/4/4 5/3/3 171/38/38
f 6/4/4 171/38/38 170/39/39
f 172/35/35 171/38/38 5/3/3
f 172/35/35 5/3/3 16/14/14
f 173/36/36 172/35/35 16/14/14
f 173/36/36 16/14/14 13/13/13
f 13/13/13 24/119/23 174/116/29
f 13/13/13 174/116/29 173/36/36
f 24/23/23 197/22/22 198/30/30
f 24/23/23 198/30/30 174/29/29
f 21/60/60 31/59/59 176/25/25
f 21/60/60 176/25/25 175/57/57
f 31/59/59 30/85/85 161/26/26
f 31/59/59 161/26/26 176/25/25
f 180/240/227 181/241/228 178/92/92
f 180/240/227 178/92/92 177/112/112
f 181/241/228 182/242/229 179/93/93
f 181/241/228 179/93/93 178/92/92
f 39/65/65 228/216/204 229/243/230
f 39/65/65 229/243/230 183/66/66
f 54/110/110 181/241/228 180/240/227
f 54/110/110 180/240/227 65/111/111
f 54/110/110 132/244/231 182/242/229
f 54/110/110 182/242/229 181/241/228
f 183/66/66 229/243/230 230/230/217
f 183/66/66 230/230/217 40/74/74
f 184/11/11 183/66/66 40/74/74
f 184/11/11 40/74/74 9/8/8
f 185/12/12 184/11/11 9/8/8
f 185/12/12 9/8/8 10/7/7
f 169/44/44 186/47/47 185/12/12
f 169/44/44 185/12/12 10/7/7
f 187/48/48 186/47/47 169/44/44
f 187/48/48 169/44/44 111/43/43
f 188/189/179 187/48/48 111/43/43
f 188/189/179 111/43/43 92/179/169
f 92/179/169 156/182/172 189/190/180
f 92/179/169 189/190/180 188/189/179
f 190/210/198 189/190/180 156/182/172
f 190/210/198 156/182/172 128/205/193
f 191/211/199 190/210/198 128/205/193
f 191/211/199 128/205/193 99/208/196
f 193/100/100 192/125/117 204/245/232
f 193/100/100 204/245/232 205/246/233
f 205/246/233 206/247/234 194/101/101
f 205/246/233 194/101/101 193/100/100
f 195/88/88 237/224/212 238/248/235
f 195/88/88 238/248/235 207/249/236
f 207/249/236 208/250/237 196/21/21
f 207/249/236 196/21/21 195/88/88
f 208/250/237 209/251/238 197/22/22
f 208/250/237 197/22/22 196/21/21
f 198/30/30 197/22/22 209/251/238
f 198/30/30 209/251/238 210/252/239
f 199/31/31 198/30/30 210/252/239
f 199/31/31 210/252/239 211/253/240
f 200/170/162 199/31/31 211/253/240
f 200/170/162 211/253/240 212/254/241
f 201/171/163 200/170/162 212/254/241
f 201/171/163 212/254/241 213/255/242
f 202/198/187 201/171/163 213/255/242
f 202/198/187 213/255/242 214/256/243
f 203/199/188 202/198/187 214/256/243
f 203/199/188 214/256/243 215/257/244
f 205/246/233 204/245/232 72/127/119
f 205/246/233 72/127/119 61/105/105
f 61/105/105 139/104/104 206/247/234
f 61/105/105 206/247/234 205/246/233
f 207/249/236 238/248/235 239/222/210
f 207/249/236 239/222/210 49/91/91
f 49/91/91 23/61/61 208/250/237
f 49/91/91 208/250/237 207/249/236
f 21/60/60 209/251/238 208/250/237
f 21/60/60 208/250/237 23/61/61
f 210/252/239 209/251/238 21/60/60
f 210/252/239 21/60/60 175/57/57
f 211/253/240 210/252/239 175/57/57
f 211/253/240 175/57/57 121/58/58
f 212/254/241 211/253/240 121/58/58
f 212/254/241 121/58/58 86/168/160
f 213/255/242 212/254/241 86/168/160
f 213/255/242 86/168/160 150/167/159
f 214/256/243 213/255/242 150/167/159
f 214/256/243 150/167/159 104/237/224
f 45/71/71 217/73/73 231/231/218
f 45/71/71 231/231/218 232/229/216
f 7/1/1 218/5/5 217/73/73
f 7/1/1 217/73/73 45/71/71
f 6/4/4 219/6/6 218/5/5
f 6/4/4 218/5/5 7/1/1
f 170/39/39 220/41/41 219/6/6
f 170/39/39 219/6/6 6/4/4
f 110/40/40 221/42/42 220/41/41
f 110/40/40 220/41/41 170/39/39
f 91/194/184 222/180/170 221/42/42
f 91/194/184 221/42/42 110/40/40
f 223/181/171 222/180/170 91/194/184
f 223/181/171 91/194/184 155/193/183
f 224/206/194 223/181/171 155/193/183
f 224/206/194 155/193/183 127/204/192
f 225/207/195 224/206/194 127/204/192
f 225/207/195 127/204/192 100/203/191
f 43/69/69 42/68/68 226/80/80
f 43/69/69 226/80/80 54/110/110
f 54/110/110 226/80/80 216/79/79
f 54/110/110 216/79/79 132/244/231
f 228/216/204 227/215/203 133/94/94
f 228/216/204 133/94/94 179/93/93
f 229/243/230 228/216/204 179/93/93
f 229/243/230 179/93/93 182/242/229
f 230/230/217 229/243/230 182/242/229
f 230/230/217 182/242/229 132/244/231
f 216/79/79 231/231/218 230/230/217
f 216/79/79 230/230/217 132/244/231
f 232/229/216 231/231/218 216/79/79
f 232/229/216 216/79/79 144/77/77
f 233/228/215 232/229/216 144/77/77
f 233/228/215 144/77/77 143/76/76
f 143/76/76 142/78/78 234/227/214
f 143/76/76 234/227/214 233/228/215
f 142/78/78 141/99/99 235/225/213
f 142/78/78 235/225/213 234/227/214
f 141/99/99 140/122/102 236/226/211
f 141/99/99 236/226/211 235/225/213
f 140/102/102 194/101/101 237/224/212
f 140/102/102 237/224/212 236/223/211
f 238/248/235 237/224/212 194/101/101
f 238/248/235 194/101/101 206/247/234
f 239/222/210 238/248/235 206/247/234
f 239/222/210 206/247/234 139/104/104
f 240/221/209 239/222/210 139/104/104
f 240/221/209 139/104/104 138/107/107
f 138/107/107 137/142/134 241/220/208
f 138/107/107 241/220/208 240/221/209
f 137/142/134 136/141/133 242/219/207
f 137/142/134 242/219/207 241/220/208
f 243/218/206 242/219/207 136/141/133
f 243/218/206 136/141/133 135/138/130
f 135/138/130 134/96/96 244/217/205
f 135/138/130 244/217/205 243/218/206
f 227/215/203 244/217/205 134/96/96
f 227/215/203 134/96/96 133/94/94
usemtl PackedMaterial1mat.003
f 255/258/245 257/258/246 258/258/247
f 255/258/245 258/258/247 256/258/248
f 254/258/249 252/258/250 260/258/251
f 254/258/249 260/258/251 259/258/252
f 259/258/252 257/258/246 255/258/245
f 259/258/252 255/258/245 254/258/249
f 263/258/253 256/258/248 258/258/247
f 263/258/253 258/258/247 262/258/254
f 269/258/255 263/258/253 262/258/254
f 269/258/255 262/258/254 270/258/256
f 264/258/257 265/258/258 269/258/255
f 264/258/257 269/258/255 270/258/256
f 261/258/259 260/258/251 252/258/250
f 261/258/259 252/258/250 251/258/260
f 267/258/261 265/258/258 264/258/257
f 267/258/261 264/258/257 268/258/262
f 266/258/263 267/258/261 268/258/262
f 272/258/264 261/258/259 251/258/260
f 272/258/264 251/258/260 271/258/265
f 271/258/265 253/258/266 272/258/264
f 248/258/267 247/258/268 249/258/269
f 248/258/267 249/258/269 250/258/270
f 273/258/271 248/258/267 250/258/270
f 250/258/270 249/258/269 274/258/272
f 246/258/273 245/258/274 247/258/268
f 246/258/273 247/258/268 248/258/267
