# Blender 5.2.1 LTS
# www.blender.org
o DocSeat_thigh
v 0.036208 -0.041405 0.500000
v 0.061461 -0.049938 0.500000
v -0.119904 -0.043475 0.500000
v -0.108659 -0.057120 0.500000
v 0.026734 0.061139 0.500000
v 0.043527 0.105375 0.500000
v -0.077746 -0.047393 0.500000
v -0.050788 -0.042845 0.500000
v 0.046619 0.114372 0.500000
v -0.025927 0.017284 0.500000
v -0.030434 0.060494 0.500000
v -0.160840 0.083040 0.500000
v 0.163498 0.060571 0.500000
v 0.161639 0.093678 0.500000
v 0.126572 0.126688 0.500000
v 0.054189 0.118409 0.500000
v 0.086374 0.137402 0.500000
v 0.117930 0.130583 0.500000
v -0.035087 0.071943 0.500000
v -0.054582 0.119210 0.500000
v 0.023500 0.050424 0.500000
v 0.014732 0.012296 0.500000
v 0.131778 0.120412 0.500000
v 0.154876 0.098471 0.500000
v 0.025579 -0.019680 0.500000
v -0.144258 0.121754 0.500000
v -0.132163 0.130959 0.500000
v -0.102531 0.140041 0.500000
v -0.062674 0.123643 0.500000
v -0.172277 0.042262 0.500000
v 0.162296 0.052853 0.500000
v 0.160881 0.044177 0.500000
v 0.161978 0.005567 0.500000
v -0.036785 -0.025701 0.500000
v -0.023582 -0.005021 0.500000
v -0.162226 0.079102 0.500000
v -0.166971 -0.000665 0.500000
v 0.149194 -0.006842 0.500000
v 0.128720 -0.020069 0.500000
v -0.175466 0.022092 0.500000
v -0.159108 0.088144 0.500000
v -0.156135 0.112232 0.500000
v -0.151691 -0.018871 0.500000
v -0.139661 -0.031560 0.500000
v 0.160818 0.016227 0.500000
v 0.105872 -0.035250 0.500000
v 0.095362 -0.053991 0.500000
v 0.084799 -0.058775 0.500000
v 0.002198 -0.065551 0.793452
v 0.044311 -0.073998 0.779199
v 0.012308 -0.016591 0.765602
v 0.002937 -0.018980 0.774037
v 0.000227 0.035073 0.782059
v 0.003732 0.042097 0.762736
v 0.102465 -0.102974 0.792585
v 0.098646 0.137213 0.757044
v 0.146980 0.113334 0.765337
v 0.144229 0.115426 0.713288
v 0.097982 0.130498 0.707698
v 0.189812 -0.026405 0.776163
v 0.153582 -0.075641 0.763157
v 0.014336 -0.016650 0.734117
v 0.005526 0.040138 0.725920
v 0.173338 0.077264 0.754900
v 0.188178 0.028118 0.788313
v 0.185617 0.031314 0.718543
v 0.105361 -0.101089 0.751300
v 0.022245 0.094256 0.798248
v 0.017259 0.087008 0.734063
v 0.046026 -0.060597 0.695619
v 0.044950 -0.071850 0.739176
v 0.008244 -0.017947 0.693842
v 0.190399 0.034265 0.658605
v 0.143673 0.116196 0.656246
v 0.189163 -0.020500 0.717887
v 0.180759 -0.017621 0.659014
v 0.107887 -0.092965 0.702245
v 0.104012 -0.074093 0.648490
v 0.150995 -0.055824 0.655324
v 0.154151 -0.067571 0.710077
v 0.018191 0.048834 0.642006
v 0.007145 0.045185 0.696013
v 0.035489 0.081760 0.696492
v 0.045599 0.086360 0.650841
v 0.099566 0.124372 0.653862
v 0.005621 -0.010996 0.641785
v 0.043853 -0.057109 0.643135
v 0.186382 0.040483 0.593067
v 0.174402 -0.010608 0.589018
v 0.146791 -0.047310 0.589877
v 0.098533 -0.059454 0.590030
v 0.039135 -0.052358 0.584729
v 0.046833 0.100133 0.590636
v 0.023099 0.045887 0.587991
v 0.098534 0.111871 0.590629
v 0.007522 -0.000150 0.586517
v 0.171783 0.073277 0.535659
v 0.145436 0.090971 0.538299
v 0.167181 -0.004008 0.538254
v 0.134959 -0.032260 0.530343
v 0.087005 -0.063662 0.529491
v 0.036723 -0.044965 0.531984
v 0.025794 0.054329 0.537130
v 0.044821 0.109691 0.536407
v 0.089459 0.133607 0.535293
v 0.011341 0.006791 0.533572
v -0.037536 -0.072415 0.780976
v -0.007809 -0.018783 0.760166
v -0.006437 0.039125 0.766095
v -0.150888 -0.079303 0.796363
v -0.102089 -0.101902 0.782514
v -0.134740 0.114193 0.706710
v -0.132009 0.123862 0.751690
v -0.089996 0.137895 0.759801
v -0.091516 0.132684 0.704543
v -0.185609 -0.033435 0.758428
v -0.155382 -0.077212 0.749108
v -0.011065 -0.017059 0.726709
v -0.008831 0.040959 0.731954
v -0.134371 0.127530 0.795063
v -0.175092 0.087285 0.747871
v -0.195863 0.017974 0.712870
v -0.192862 0.017000 0.766653
v -0.104317 -0.099269 0.740695
v -0.024220 0.108746 0.797910
v -0.028339 0.089882 0.743983
v -0.051733 -0.065134 0.681240
v -0.048944 -0.071558 0.733245
v -0.169539 0.087322 0.781344
v -0.195775 0.019701 0.655807
v -0.143118 0.113835 0.654989
v -0.184850 -0.021537 0.647417
v -0.186775 -0.029066 0.707935
v -0.159854 -0.059928 0.641865
v -0.111795 -0.075025 0.635444
v -0.106764 -0.087479 0.688593
v -0.159203 -0.068196 0.699146
v -0.013748 0.051139 0.642283
v -0.046076 0.090793 0.647413
v -0.035288 0.099725 0.701719
v -0.010848 0.043602 0.692941
v -0.093791 0.125722 0.648304
v -0.050797 -0.050348 0.633052
v -0.147851 0.121546 0.601206
v -0.184283 0.025711 0.592516
v -0.154375 -0.051718 0.581533
v -0.117218 -0.066865 0.577027
v -0.051256 -0.045044 0.577629
v -0.022604 0.052687 0.589086
v -0.059392 0.090206 0.592543
v -0.097789 0.118251 0.596362
v -0.139420 0.110196 0.540478
v -0.168337 0.037004 0.533207
v -0.175629 -0.008156 0.532149
v -0.145388 -0.041069 0.526515
v -0.109839 -0.061071 0.523577
v -0.051074 -0.042888 0.525608
v -0.028832 0.053316 0.538963
v -0.051310 0.108107 0.545193
v -0.102972 0.136716 0.543713
v -0.022605 -0.007988 0.529329
v 0.045630 0.126963 0.781323
v -0.172382 0.084412 0.538791
v -0.051574 0.113732 0.748971
v -0.100434 0.112836 0.565379
v -0.012294 0.051400 0.734143
v -0.024255 0.066579 0.697519
v -0.178453 0.088277 0.713849
v -0.183315 0.083328 0.661022
v -0.170196 0.076168 0.598191
v -0.160733 0.082833 0.502936
v 0.163461 0.024515 0.532594
v 0.167913 0.049546 0.534674
v 0.164015 0.078538 0.594410
v -0.009805 -0.024420 0.683734
v -0.012412 -0.024192 0.635565
v -0.018103 -0.013690 0.583301
v -0.179910 -0.018047 0.587246
v 0.177514 0.074961 0.716639
v 0.176588 0.081199 0.658588
v 0.019010 0.075194 0.647578
v 0.028822 0.088128 0.590698
v 0.130650 0.111063 0.593477
v 0.132417 0.122242 0.558909
v 0.123709 0.118126 0.535457
v 0.155175 0.110321 0.597194
v 0.149808 0.111906 0.568728
v 0.025112 0.090794 0.715868
v 0.047583 0.111233 0.700226
v 0.066396 0.112731 0.653679
v 0.077543 0.101235 0.587504
v -0.014482 0.069671 0.736318
v -0.027612 0.085637 0.593790
v -0.181970 -0.033815 0.800000
v -0.145566 -0.081532 0.800000
v -0.099228 -0.102387 0.800000
v -0.025700 0.109735 0.800000
v -0.052684 0.126419 0.800000
v 0.100848 0.135795 0.800000
v -0.180253 -0.036241 0.800000
v -0.150602 -0.079056 0.800000
v 0.022613 0.095420 0.800000
v 0.043672 0.129777 0.800000
v 0.145624 0.115344 0.800000
v 0.115951 0.128353 0.800000
v -0.056618 0.128748 0.800000
v -0.167829 -0.054316 0.800000
v -0.182624 -0.029671 0.800000
v 0.000076 0.062006 0.800000
v 0.021641 0.095153 0.800000
v 0.051594 0.132627 0.800000
v 0.153216 0.104968 0.800000
v -0.056739 0.128867 0.800000
v 0.001049 0.072496 0.800000
v 0.019955 0.093303 0.800000
v -0.021316 0.105891 0.800000
v 0.075848 0.131441 0.800000
v 0.101883 -0.102961 0.800000
v 0.185623 -0.028267 0.800000
v 0.186652 -0.006008 0.800000
v -0.167549 0.084338 0.800000
v -0.188768 0.017878 0.800000
v 0.091237 -0.099804 0.800000
v 0.041275 -0.077699 0.800000
v -0.041497 -0.079566 0.800000
v 0.132047 -0.087467 0.800000
v 0.172180 -0.045806 0.800000
v -0.179474 0.048084 0.800000
v -0.056973 -0.083188 0.800000
v 0.026416 -0.081842 0.800000
v 0.001555 -0.070331 0.800000
v 0.167317 0.072283 0.800000
v 0.150849 -0.077550 0.800000
v 0.146589 -0.079812 0.800000
v 0.186634 0.026954 0.800000
v 0.170406 0.065008 0.800000
v -0.134811 0.127228 0.800000
v -0.024834 0.109899 0.800000
v -0.091071 0.132691 0.800000
v -0.109938 0.130171 0.800000
v -0.006232 -0.069941 0.800000
v -0.057015 0.129022 0.800000
v -0.160812 0.097900 0.800000
v 0.167515 0.070953 0.800000
vn 0.6386 0.1484 0.7551
vn -0.0076 0.7323 0.6810
vn -0.5323 0.5452 0.6476
vn -0.0409 0.6904 0.7222
vn -0.6568 0.2368 0.7159
vn -0.3451 0.3204 0.8822
vn -0.6710 0.1934 0.7158
vn -0.5426 0.4010 0.7381
vn -0.1220 0.7058 0.6978
vn -0.4513 0.6083 0.6529
vn -0.6940 0.0452 0.7185
vn -0.6631 -0.1008 0.7417
vn -0.5699 -0.3907 0.7229
vn -0.6720 -0.2702 0.6895
vn -0.5555 -0.3967 0.7308
vn 0.2862 -0.6456 0.7080
vn -0.2927 -0.6210 0.7271
vn 0.4658 0.7154 0.5209
vn 0.4971 0.5050 0.7056
vn 0.2600 0.6946 0.6708
vn 0.2997 0.7375 0.6052
vn 0.1189 -0.6795 0.7240
vn -0.2182 -0.9095 0.3537
vn -0.2410 -0.8748 0.4203
vn 0.0045 -0.6983 0.7158
vn -0.3235 -0.7102 0.6253
vn 0.3292 -0.6336 0.7001
vn 0.5390 -0.4057 0.7382
vn 0.0419 -0.7690 0.6379
vn 0.3229 -0.6322 0.7043
vn 0.4953 -0.5604 0.6638
vn 0.6620 -0.2828 0.6941
vn 0.6584 0.0063 0.7527
vn 0.6871 0.0957 0.7202
vn 0.6483 0.3487 0.6768
vn 0.6849 0.1629 0.7102
vn 0.3061 0.6207 0.7218
vn 0.6434 0.3613 0.6749
vn 0.8194 0.4228 0.3871
vn 0.1469 0.9232 0.3550
vn 0.4789 0.6248 0.6166
vn -0.5930 0.6228 0.5103
vn -0.8018 0.4593 0.3824
vn -0.4678 -0.5453 0.6956
vn 0.0053 -0.7845 0.6201
vn 0.1496 0.8203 0.5521
vn 0.0429 0.8138 0.5795
vn -0.4096 0.7028 0.5817
vn -0.9796 0.1767 -0.0960
vn -0.9301 0.3528 -0.1024
vn -0.6129 0.5686 -0.5487
vn -0.5698 0.0593 -0.8196
vn 0.0224 0.9520 0.3054
vn 0.0816 0.8062 -0.5860
vn -0.3964 0.6758 -0.6214
vn 0.6717 0.7393 0.0480
vn 0.6893 0.3747 -0.6201
vn 0.6512 0.4821 -0.5862
vn 0.7444 0.6612 0.0937
vn 0.8827 0.4416 -0.1606
vn 0.6949 0.4585 -0.5540
vn 0.4488 0.6416 -0.6220
vn 0.5605 0.5203 -0.6443
vn 0.4667 0.6778 -0.5681
vn 0.5642 0.8215 -0.0827
vn -0.1003 0.9808 0.1672
vn 0.2722 0.7417 -0.6131
vn -0.0748 0.7694 -0.6343
vn -0.7040 0.2212 -0.6749
vn 0.6767 -0.0857 -0.7313
vn 0.9722 0.2212 -0.0771
vn 0.7152 0.1810 -0.6750
vn -0.9941 -0.0651 -0.0871
vn -0.9573 0.2876 -0.0287
vn -0.6913 0.2555 -0.6759
vn -0.6882 0.2117 -0.6939
vn -0.1464 -0.9699 -0.1944
vn -0.3005 -0.4140 -0.8592
vn -0.1810 -0.7373 -0.6508
vn -0.5585 0.5965 -0.5764
vn -0.6385 0.7568 0.1398
vn 0.6442 -0.0699 -0.7617
vn 0.6514 -0.0524 -0.7569
vn -0.6266 0.2524 -0.7374
vn -0.3257 0.6299 -0.7050
vn 0.6502 0.0317 -0.7591
vn 0.4230 -0.4499 -0.7866
vn 0.3008 -0.4375 -0.8474
vn 0.6946 -0.1871 -0.6947
vn 0.6433 -0.5304 -0.5521
vn 0.0110 -0.7624 -0.6470
vn -0.2301 -0.6006 -0.7658
vn 0.3173 -0.4045 -0.8577
vn -0.5069 -0.5799 -0.6378
vn -0.6554 -0.2611 -0.7087
vn 0.6965 0.0871 -0.7123
vn 0.7121 -0.1708 -0.6810
vn 0.5853 -0.4268 -0.6894
vn 0.3409 0.6651 -0.6645
vn 0.1978 -0.6350 -0.7468
vn 0.4168 -0.6603 -0.6247
vn -0.4690 -0.3920 -0.7914
vn -0.5552 -0.2946 -0.7778
vn -0.7728 0.1788 -0.6090
vn -0.5602 0.5136 -0.6499
vn -0.4157 -0.4297 -0.8016
vn -0.7843 0.0353 -0.6194
vn -0.7467 0.0191 -0.6648
vn -0.7182 0.2383 -0.6537
vn -0.9647 0.1260 -0.2313
vn -0.8731 -0.3053 -0.3801
vn 0.0123 -0.3120 -0.9500
vn -0.0191 0.4040 -0.9146
vn 0.0437 -0.9983 -0.0384
vn 0.0316 -0.9933 -0.1114
vn 0.6597 -0.7506 -0.0384
vn -0.4723 -0.8197 -0.3240
vn 0.0344 -0.7349 -0.6773
vn -0.9469 -0.3212 -0.0157
vn -0.6088 -0.7856 -0.1100
vn -0.6605 -0.7459 -0.0859
vn -0.9427 -0.3332 -0.0152
vn 0.0574 -0.9762 -0.2089
vn 0.6070 -0.7702 -0.1958
vn 0.6525 -0.7408 -0.1599
vn 0.0451 -0.9762 -0.2123
vn -0.9690 -0.2408 -0.0550
vn -0.5570 -0.8235 -0.1077
vn 0.0803 -0.9880 -0.1317
vn 0.5775 -0.7936 -0.1914
vn -0.5719 -0.8168 -0.0762
vn -0.9895 -0.1349 -0.0525
vn -0.6467 -0.7589 -0.0762
vn 0.2068 -0.9670 -0.1486
vn 0.9793 0.1852 0.0815
vn 0.9500 -0.3109 0.0295
vn 0.9481 -0.3090 -0.0749
vn -0.6420 -0.7643 0.0612
vn -0.0221 -0.9978 -0.0627
vn -0.6410 -0.7666 -0.0376
vn 0.0016 -0.9922 -0.1246
vn 0.4680 -0.8078 -0.3585
vn 0.8687 -0.2641 -0.4191
vn -0.5261 0.8504 -0.0098
vn -0.8778 0.4735 0.0730
vn 0.6190 -0.7768 -0.1157
vn -0.4729 0.8802 -0.0387
vn -0.8445 0.5340 0.0397
vn -0.6257 -0.7717 -0.1137
vn -0.0010 -0.9794 -0.2021
vn -0.9236 -0.3816 0.0357
vn -0.9232 -0.3831 -0.0307
vn -0.7807 0.6058 -0.1532
vn -0.7953 0.5329 -0.2890
vn -0.4076 0.8932 -0.1901
vn 0.2235 -0.7376 0.6372
vn 0.6008 0.7316 -0.3222
vn 0.0767 0.9941 -0.0764
vn 0.9513 0.2120 -0.2239
vn -0.9943 0.0690 0.0811
vn -0.9965 0.0690 0.0477
vn 0.1944 0.9744 -0.1131
vn -0.4544 0.8898 -0.0430
vn -0.8265 0.5620 0.0329
vn -0.4515 0.8922 -0.0127
vn 0.1944 0.9760 -0.0984
vn -0.3552 0.9347 -0.0131
vn 0.2925 0.9467 -0.1345
vn -0.9914 0.0751 -0.1075
vn 0.9264 -0.3224 -0.1947
vn 0.6119 -0.7515 -0.2467
vn 0.9132 -0.3404 -0.2240
vn 0.9831 -0.0475 -0.1766
vn 0.9571 -0.1572 -0.2433
vn -0.8892 0.4516 -0.0733
vn -0.9864 0.0563 -0.1547
vn -0.8639 0.5006 -0.0560
vn 0.5625 -0.8102 -0.1650
vn 0.4930 -0.8567 -0.1518
vn 0.0052 -0.9822 -0.1879
vn -0.6427 -0.7193 -0.2637
vn -0.9466 -0.2729 -0.1714
vn 0.9884 0.1488 0.0292
vn 0.9096 0.4108 0.0618
vn 0.8982 0.4370 0.0485
vn 0.5677 0.8231 -0.0153
vn 0.6559 0.7548 -0.0065
vn -0.9595 0.2720 -0.0727
vn -0.9791 0.1652 -0.1184
vn -0.9852 0.1335 -0.1073
vn -0.8639 0.5035 -0.0113
vn -0.9706 0.2305 -0.0698
vn -0.7316 0.6772 0.0785
vn -0.8222 0.5686 0.0272
vn 0.9854 0.1614 -0.0541
vn 0.9350 -0.3390 -0.1046
vn 0.9867 0.0805 -0.1410
vn 0.8954 0.4425 -0.0493
vn 0.4043 0.9138 -0.0390
vn 0.9180 0.3732 -0.1342
vn 0.3648 0.9293 -0.0581
vn 0.7944 0.5751 -0.1956
vn 0.6644 0.7460 -0.0449
vn 0.1015 0.9922 0.0726
vn -0.8159 0.5005 -0.2895
vn -0.8047 0.5434 -0.2391
vn -0.0096 0.9960 -0.0891
vn -0.0732 0.9893 -0.1260
vn -0.5574 0.8302 0.0083
vn -0.3053 0.9161 0.2599
vn -0.2746 0.9609 0.0364
vn -0.5500 0.8121 -0.1952
vn -0.2951 0.9225 0.2490
vn 0.1578 0.9870 0.0319
vn -0.6035 0.7706 -0.2047
vn 0.3907 0.8751 0.2857
vn 0.7734 0.6214 -0.1252
vn 0.5394 0.8369 -0.0931
vn 0.7832 0.6171 -0.0761
vn 0.4411 0.6937 0.5694
vn 0.9460 0.2998 -0.1235
vn 0.9801 0.1919 -0.0502
vn 0.9604 0.2767 -0.0337
vn 0.8966 0.4196 -0.1419
vn 0.9329 0.3394 -0.1203
vn 0.7071 0.7004 -0.0970
vn -0.9922 0.0684 -0.1042
vn -0.9212 -0.3766 -0.0979
vn -0.9518 -0.2574 -0.1668
vn -0.6153 -0.7776 -0.1292
vn -0.6161 -0.7690 -0.1706
vn 0.0418 -0.9899 -0.1356
vn 0.5095 -0.8552 -0.0951
vn 0.5475 -0.8344 -0.0632
vn 0.9437 -0.3233 -0.0701
vn 0.8797 -0.4709 -0.0665
vn 0.8983 -0.4270 -0.1035
vn 0.9258 -0.3564 -0.1258
vn 0.9559 -0.2868 -0.0640
vn 0.9334 0.3552 -0.0507
vn 0.9760 0.1593 -0.1486
vn 0.4372 0.8926 0.1103
vn 0.7579 0.6514 0.0359
vn -0.3867 0.8134 0.4346
s 1
f 244//1 217//2 202//3
f 239//4 221//5 209//6
f 221//5 228//7 209//6
f 243//8 221//5 240//9
f 240//9 237//10 243//8
f 222//11 208//12 207//13
f 228//7 222//11 207//13
f 208//12 194//14 200//15
f 200//15 207//13 208//12
f 207//13 229//16 228//7
f 195//17 229//16 207//13
f 198//18 206//19 239//4
f 197//20 198//18 209//6
f 209//6 198//18 239//4
f 242//21 239//4 206//19
f 241//22 231//23 209//6
f 209//6 228//7 229//16
f 231//23 230//24 224//25
f 224//25 223//26 226//27
f 224//25 226//27 227//28
f 223//26 218//29 226//27
f 226//27 234//30 227//28
f 234//30 233//31 227//28
f 227//28 219//32 220//33
f 220//33 235//34 236//35
f 244//1 232//36 205//37
f 232//36 212//38 205//37
f 220//33 236//35 224//25
f 236//35 244//1 209//6
f 216//39 238//40 197//20
f 224//25 236//35 209//6
f 227//28 220//33 224//25
f 212//38 204//41 205//37
f 215//42 214//43 209//6
f 207//13 201//44 195//17
f 195//17 196//45 229//16
f 231//23 224//25 209//6
f 216//39 197//20 209//6
f 205//37 199//46 217//2
f 211//47 203//48 202//3
f 217//2 211//47 202//3
f 215//42 209//6 202//3
f 171//49 163//50 42//51 41//52
f 160//53 28//54 27//55
f 159//56 19//57 20//58
f 98//59 97//60 14//61 24//62
f 98//59 23//63 15//64 185//65
f 105//66 185//65 15//64 18//67
f 105//66 18//67 17//68
f 171//49 41//52 12//69
f 97//60 13//70 14//61
f 159//56 158//71 11//72 19//57
f 106//73 103//74 5//75 21//76
f 156//77 3//78 4//79
f 98//59 24//62 23//63
f 160//53 27//55 26//80 152//81
f 31//82 32//83 5//75
f 13//70 31//82 23//63
f 6//84 16//85 23//63
f 12//69 41//52 19//57
f 45//86 38//87 39//88
f 45//86 33//89 38//87
f 47//90 48//91 2//92
f 32//83 45//86 39//88
f 32//83 39//88 5//75
f 39//88 46//93 21//76
f 14//61 13//70 24//62
f 39//88 21//76 5//75
f 16//85 17//68 18//67
f 2//92 1//94 25//95
f 10//96 35//97 34//98
f 29//99 20//58 19//57
f 7//100 4//79 3//78
f 34//98 8//101 7//100
f 43//102 37//103 30//104
f 27//55 29//99 41//52
f 29//99 19//57 41//52
f 42//51 26//80 41//52
f 26//80 27//55 41//52
f 6//84 9//105 16//85
f 18//67 23//63 16//85
f 46//93 47//90 2//92
f 13//70 23//63 24//62
f 3//78 44//106 10//96
f 37//103 40//107 30//104
f 46//93 2//92 25//95
f 6//84 31//82 5//75
f 25//95 22//108 46//93
f 18//67 15//64 23//63
f 27//55 28//54 29//99
f 22//108 21//76 46//93
f 11//72 10//96 43//102
f 30//104 11//72 43//102
f 44//106 43//102 10//96
f 19//57 11//72 30//104
f 30//104 36//109 19//57
f 36//109 12//69 19//57
f 34//98 7//100 10//96
f 7//100 3//78 10//96
f 23//63 31//82 6//84
f 54//110 51//111 52//112
f 54//110 52//112 53//113
f 226//27 218//29 55//114
f 226//27 55//114 67//115 234//30
f 234//30 67//115 61//116 233//31
f 51//111 50//117 49//118
f 51//111 49//118 52//112
f 72//119 70//120 71//121
f 72//119 71//121 62//122
f 78//123 79//124 80//125
f 78//123 80//125 77//126
f 72//119 86//127 87//128
f 72//119 87//128 70//120
f 50//117 71//121 67//115
f 50//117 67//115 55//114
f 87//128 78//123 77//126
f 87//128 77//126 70//120
f 78//123 91//129 90//130
f 78//123 90//130 79//124
f 78//123 87//128 92//131
f 78//123 92//131 91//129
f 96//132 92//131 87//128
f 96//132 87//128 86//127
f 102//133 101//134 91//129
f 102//133 91//129 92//131
f 96//132 106//73 102//133
f 96//132 102//133 92//131
f 235//34 65//135 236//35
f 67//115 77//126 80//125
f 67//115 80//125 61//116
f 71//121 50//117 51//111
f 71//121 51//111 62//122
f 71//121 70//120 77//126
f 71//121 77//126 67//115
f 220//33 219//32 60//136
f 220//33 60//136 65//135 235//34
f 61//116 80//125 75//137
f 61//116 75//137 60//136
f 207//13 110//138 201//44
f 111//139 110//138 117//140
f 111//139 117//140 124//141
f 107//142 108//143 52//112
f 107//142 52//112 49//118
f 237//10 120//144 129//145 243//8
f 243//8 129//145 221//5
f 128//146 107//142 111//139
f 128//146 111//139 124//141
f 129//145 120//144 113//147
f 129//145 113//147 121//148
f 124//141 117//140 137//149
f 124//141 137//149 136//150
f 116//151 133//152 137//149
f 116//151 137//149 117//140
f 224//25 50//117 55//114 223//26
f 223//26 55//114 218//29
f 69//153 68//154 162//155
f 195//17 201//44 110//138
f 195//17 110//138 111//139 196//45
f 196//45 111//139 107//142 229//16
f 229//16 107//142 225//156
f 238//40 216//39 125//157
f 197//20 238//40 125//157
f 114//158 113//147 120//144
f 125//157 53//113 109//159
f 123//160 129//145 121//148
f 123//160 121//148 122//161
f 133//152 116//151 123//160
f 133//152 123//160 122//161
f 113//147 114//158 115//162
f 113//147 115//162 112//163
f 168//164 122//161 121//148
f 168//164 121//148 113//147
f 168//164 113//147 112//163
f 131//165 112//163 115//162
f 131//165 115//162 142//166
f 144//167 131//165 142//166
f 144//167 142//166 151//168
f 171//49 153//169 163//50
f 30//104 153//169 171//49 36//109
f 36//109 171//49 12//69
f 89//170 90//130 100//171
f 89//170 100//171 99//172
f 89//170 99//172 172//173
f 13//70 97//60 173//174 31//82
f 231//23 49//118 50//117 230//24
f 230//24 50//117 224//25
f 225//156 107//142 49//118 241//22
f 241//22 49//118 231//23
f 152//81 163//50 170//175
f 163//50 153//169 145//176
f 170//175 163//50 145//176
f 169//177 131//165 144//167
f 169//177 144//167 170//175
f 127//178 128//146 124//141
f 127//178 124//141 136//150
f 143//179 127//178 136//150
f 143//179 136//150 135//180
f 197//20 125//157 198//18
f 240//9 120//144 237//10
f 43//102 44//106 155//181
f 43//102 155//181 154//182 37//103
f 236//35 65//135 66//183 244//1
f 244//1 66//183 64//184 232//36
f 65//135 60//136 75//137
f 65//135 75//137 66//183
f 64//184 66//183 179//185
f 58//186 57//187 64//184
f 58//186 64//184 179//185
f 82//188 72//119 62//122
f 82//188 62//122 63//189
f 86//127 72//119 82//188
f 86//127 82//188 81//190
f 81//190 82//188 181//191
f 96//132 86//127 81//190
f 96//132 81//190 94//192
f 103//74 106//73 96//132
f 103//74 96//132 94//192
f 104//193 103//74 94//192
f 104//193 94//192 182//194
f 6//84 5//75 103//74
f 6//84 103//74 104//193 9//105
f 182//194 94//192 81//190
f 182//194 81//190 181//191
f 73//195 66//183 75//137
f 73//195 75//137 76//196
f 76//196 75//137 80//125
f 76//196 80//125 79//124
f 88//197 73//195 76//196
f 76//196 79//124 90//130
f 76//196 90//130 89//170
f 76//196 89//170 88//197
f 88//197 89//170 172//173
f 88//197 172//173 173//174
f 173//174 97//60 88//197
f 179//185 66//183 73//195
f 179//185 73//195 180//198
f 9//105 104//193 105//66 16//85
f 16//85 105//66 17//68
f 217//2 162//155 211//47
f 45//86 32//83 172//173
f 45//86 172//173 99//172 33//89
f 1//94 102//133 106//73 25//95
f 25//95 106//73 22//108
f 74//199 58//186 179//185
f 74//199 179//185 180//198
f 180//198 73//195 174//200
f 98//59 185//65 184//201
f 98//59 184//201 187//202
f 73//195 88//197 174//200
f 174//200 88//197 97//60
f 174//200 97//60 98//59
f 98//59 187//202 174//200
f 186//203 74//199 180//198
f 183//204 74//199 186//203
f 186//203 180//198 174//200
f 186//203 174//200 187//202
f 187//202 184//201 183//204
f 187//202 183//204 186//203
f 62//122 51//111 54//110
f 62//122 54//110 63//189
f 63//189 54//110 68//154
f 63//189 68//154 69//153
f 63//189 69//153 188//205
f 83//206 82//188 63//189
f 83//206 63//189 188//205
f 59//207 58//186 74//199
f 59//207 74//199 85//208
f 84//209 181//191 82//188
f 84//209 82//188 83//206
f 182//194 181//191 84//209
f 182//194 84//209 93//210
f 93//210 104//193 182//194
f 95//211 85//208 74//199
f 95//211 74//199 183//204
f 190//212 85//208 95//211
f 191//213 84//209 190//212
f 191//213 190//212 95//211
f 105//66 95//211 183//204
f 105//66 183//204 184//201
f 191//213 95//211 105//66
f 184//201 185//65 105//66
f 105//66 104//193 93//210
f 105//66 93//210 191//213
f 191//213 93//210 84//209
f 56//214 57//187 58//186
f 56//214 58//186 59//207
f 205//37 204//41 57//187
f 205//37 57//187 56//214 199//46
f 56//214 59//207 189//215
f 189//215 188//205 69//153
f 189//215 69//153 56//214
f 56//214 69//153 162//155
f 189//215 59//207 85//208
f 189//215 85//208 190//212
f 83//206 188//205 189//215
f 190//212 84//209 83//206
f 190//212 83//206 189//215
f 100//171 90//130 91//129
f 100//171 91//129 101//134
f 33//89 99//172 100//171 38//87
f 38//87 100//171 39//88
f 39//88 100//171 101//134 46//93
f 46//93 101//134 47//90
f 48//91 101//134 102//133 2//92
f 2//92 102//133 1//94
f 47//90 101//134 48//91
f 170//175 144//167 152//81
f 42//51 163//50 152//81 26//80
f 144//167 165//216 160//53
f 144//167 151//168 165//216
f 165//216 159//56 160//53
f 152//81 144//167 160//53
f 140//217 115//162 164//218
f 198//18 125//157 126//219 206//19
f 206//19 126//219 164//218 213//220
f 115//162 114//158 164//218
f 109//159 53//113 52//112
f 109//159 52//112 108//143
f 166//221 119//222 141//223
f 166//221 141//223 167//224
f 109//159 119//222 166//221
f 192//225 126//219 125//157
f 192//225 125//157 109//159
f 192//225 166//221 167//224
f 192//225 167//224 140//217
f 140//217 167//224 139//226
f 140//217 139//226 142//166
f 140//217 142//166 115//162
f 164//218 126//219 140//217
f 140//217 126//219 192//225
f 192//225 109//159 166//221
f 168//164 112//163 131//165
f 168//164 131//165 169//177
f 130//227 170//175 145//176
f 40//107 37//103 154//182
f 130//227 122//161 168//164
f 130//227 168//164 169//177
f 132//228 133//152 122//161
f 132//228 122//161 130//227
f 130//227 169//177 170//175
f 178//229 145//176 153//169
f 134//230 137//149 133//152
f 134//230 133//152 132//228
f 132//228 130//227 145//176
f 132//228 145//176 178//229
f 178//229 153//169 154//182
f 178//229 154//182 155//181
f 178//229 155//181 146//231
f 134//230 135//180 136//150
f 134//230 136//150 137//149
f 134//230 132//228 178//229
f 134//230 178//229 146//231
f 147//232 148//233 143//179
f 135//180 134//230 146//231
f 135//180 146//231 147//232
f 147//232 146//231 155//181
f 147//232 155//181 156//77
f 143//179 135//180 147//232
f 156//77 157//234 148//233
f 156//77 148//233 147//232
f 118//235 119//222 109//159
f 118//235 109//159 108//143
f 118//235 108//143 107//142
f 118//235 107//142 128//146
f 175//236 141//223 119//222
f 175//236 119//222 118//235
f 127//178 143//179 175//236
f 118//235 128//146 127//178
f 118//235 127//178 175//236
f 175//236 143//179 176//237
f 176//237 143//179 148//233
f 176//237 148//233 177//238
f 177//238 148//233 157//234
f 177//238 157//234 161//239
f 10//96 11//72 158//71
f 10//96 158//71 161//239 35//97
f 138//240 141//223 175//236
f 138//240 175//236 176//237
f 139//226 167//224 141//223
f 139//226 141//223 138//240
f 149//241 138//240 176//237
f 149//241 176//237 177//238
f 149//241 177//238 161//239
f 149//241 161//239 158//71
f 151//168 142//166 139//226
f 151//168 139//226 150//242
f 165//216 151//168 150//242
f 193//243 149//241 158//71
f 193//243 158//71 159//56
f 165//216 150//242 159//56
f 159//56 150//242 193//243
f 29//99 28//54 160//53
f 29//99 160//53 159//56 20//58
f 138//240 149//241 193//243
f 150//242 139//226 138//240
f 150//242 138//240 193//243
f 114//158 120//144 240//9 239//4
f 114//158 239//4 242//21
f 221//5 239//4 240//9
f 161//239 157//234 8//101 34//98
f 213//220 242//21 206//19
f 61//116 227//28 233//31
f 161//239 34//98 35//97
f 129//145 123//160 222//11 228//7
f 129//145 228//7 221//5
f 61//116 60//136 219//32 227//28
f 157//234 156//77 4//79 7//100
f 54//110 214//43 215//42 68//154
f 156//77 155//181 44//106 3//78
f 173//174 172//173 32//83 31//82
f 210//244 215//42 202//3
f 114//158 242//21 213//220 164//218
f 64//184 212//38 232//36
f 68//154 215//42 210//244
f 54//110 53//113 209//6 214//43
f 125//157 216//39 209//6 53//113
f 123//160 208//12 222//11
f 157//234 7//100 8//101
f 244//1 205//37 217//2
f 225//156 241//22 209//6
f 229//16 225//156 209//6
f 64//184 57//187 204//41 212//38
f 162//155 203//48 211//47
f 68//154 210//244 202//3
f 162//155 68//154 202//3 203//48
f 117//140 110//138 207//13 200//15
f 162//155 217//2 199//46 56//214
f 117//140 200//15 194//14 116//151
f 123//160 116//151 194//14 208//12
f 106//73 21//76 22//108
f 154//182 153//169 30//104 40//107
f 209//6 244//1 202//3
