# Blender 4.0.2
# www.blender.org
o Armrest_L
v -0.327043 -0.294669 0.979978
v -0.327043 -0.302713 0.982018
v -0.328243 -0.294544 0.980869
v -0.327043 -0.300409 0.981051
v -0.327736 -0.299333 0.981018
v -0.327892 -0.300321 0.981681
v -0.327892 -0.294632 0.980239
v -0.327043 -0.294614 1.039651
v -0.327043 -0.286319 1.039394
v -0.328243 -0.286444 1.038503
v -0.327043 -0.292132 1.039945
v -0.327736 -0.291088 1.039680
v -0.327892 -0.286355 1.039133
v -0.327892 -0.292221 1.039315
v -0.327043 0.233639 0.905729
v -0.328243 0.233764 0.906621
v -0.327043 0.241934 0.905472
v -0.327892 0.233676 0.905990
v -0.327736 0.238409 0.905443
v -0.327892 0.239541 0.905809
v -0.327043 0.239453 0.905178
v -0.327043 0.241989 0.965145
v -0.327043 0.250034 0.963106
v -0.328243 0.241864 0.964254
v -0.327043 0.247730 0.964072
v -0.327736 0.246653 0.964106
v -0.327892 0.247641 0.963442
v -0.327892 0.241953 0.964884
v -0.249443 -0.294669 0.979978
v -0.248243 -0.294544 0.980869
v -0.249443 -0.302713 0.982018
v -0.248595 -0.294632 0.980239
v -0.248751 -0.299333 0.981018
v -0.248595 -0.300321 0.981681
v -0.249443 -0.300409 0.981051
v -0.249443 -0.286319 1.039394
v -0.249443 -0.294614 1.039651
v -0.248243 -0.286444 1.038503
v -0.249443 -0.292132 1.039945
v -0.248751 -0.291088 1.039680
v -0.248595 -0.292221 1.039315
v -0.248595 -0.286355 1.039133
v -0.249443 0.233639 0.905729
v -0.249443 0.241934 0.905472
v -0.248243 0.233764 0.906621
v -0.249443 0.239453 0.905178
v -0.248751 0.238409 0.905443
v -0.248595 0.239541 0.905809
v -0.248595 0.233676 0.905990
v -0.249443 0.241989 0.965145
v -0.248243 0.241864 0.964254
v -0.249443 0.250034 0.963106
v -0.248595 0.241953 0.964884
v -0.248751 0.246653 0.964106
v -0.248595 0.247641 0.963442
v -0.249443 0.247730 0.964072
vn -0.0000 -0.9903 0.1392
vn 1.0000 -0.0000 -0.0000
vn -0.0000 0.1392 0.9903
vn -1.0000 -0.0000 -0.0000
vn -0.0000 0.9903 -0.1392
vn -0.2965 -0.1656 -0.9406
vn -0.4863 -0.3380 -0.8058
vn -0.9193 -0.1091 -0.3781
vn -0.6788 -0.1394 0.7209
vn -0.2317 0.0918 0.9685
vn -0.8747 0.0272 0.4840
vn -0.2317 -0.0918 -0.9685
vn -0.8747 -0.0272 -0.4840
vn -0.6788 0.1394 -0.7209
vn -0.2965 0.1656 0.9406
vn -0.4863 0.3380 0.8058
vn -0.9193 0.1091 0.3781
vn 0.2317 -0.1787 -0.9562
vn 0.8747 -0.1073 -0.4727
vn 0.6788 -0.3327 -0.6546
vn 0.2965 0.1001 0.9498
vn 0.4863 -0.1028 0.8677
vn 0.9193 -0.0006 0.3935
vn 0.2965 -0.1001 -0.9498
vn 0.4863 0.1028 -0.8677
vn 0.9193 0.0006 -0.3935
vn 0.2317 0.1787 0.9562
vn 0.8747 0.1073 0.4727
vn 0.6788 0.3327 0.6546
vn -0.2967 -0.1329 -0.9457
vn -0.8754 -0.0673 -0.4787
vn -0.9435 -0.3281 0.0461
vn -0.9982 -0.0596 0.0084
vn -0.2967 0.1329 0.9457
vn -0.8754 0.0673 0.4787
vn -0.9435 0.3281 -0.0461
vn -0.9982 0.0596 -0.0084
vn -0.0000 -0.0943 -0.9955
vn -0.0000 0.1176 -0.9931
vn -0.0000 0.1837 0.9830
vn -0.0000 0.3868 0.9222
vn 0.9982 0.0596 -0.0084
vn 0.9435 0.3281 -0.0461
vn 0.2967 -0.1329 -0.9457
vn 0.8754 -0.0673 -0.4787
vn 0.2967 0.1329 0.9457
vn 0.8754 0.0673 0.4787
vn 0.9435 -0.3281 0.0461
vn 0.9982 -0.0596 0.0084
vn -0.0000 -0.1837 -0.9830
vn -0.0000 -0.3868 -0.9222
vn -0.0000 0.0943 0.9955
vn -0.0000 -0.1176 0.9931
vn -0.0000 -0.1392 -0.9903
vn -0.2317 -0.1787 -0.9562
vn -0.6788 -0.3327 -0.6546
vn -0.8747 -0.1073 -0.4727
vn -0.4863 -0.1028 0.8677
vn -0.2965 0.1001 0.9498
vn -0.9193 -0.0006 0.3935
vn -0.2965 -0.1001 -0.9498
vn -0.9193 0.0006 -0.3935
vn -0.4863 0.1028 -0.8677
vn -0.2317 0.1787 0.9562
vn -0.6788 0.3327 0.6546
vn -0.8747 0.1073 0.4727
vn 0.2965 -0.1656 -0.9406
vn 0.9193 -0.1091 -0.3781
vn 0.4863 -0.3380 -0.8058
vn 0.2317 0.0918 0.9685
vn 0.6788 -0.1394 0.7209
vn 0.8747 0.0272 0.4840
vn 0.2317 -0.0918 -0.9685
vn 0.6788 0.1394 -0.7209
vn 0.8747 -0.0272 -0.4840
vn 0.2965 0.1656 0.9406
vn 0.9193 0.1091 0.3781
vn 0.4863 0.3380 0.8058
s 0
f 37//1 2//1 31//1
f 51//2 30//2 45//2
f 22//3 36//3 50//3
f 10//4 16//4 3//4
f 23//5 44//5 17//5
f 1//6 5//6 7//6
f 2//7 5//7 4//7
f 3//8 5//8 6//8
f 8//9 12//9 14//9
f 9//10 12//10 11//10
f 10//11 12//11 13//11
f 15//12 19//12 21//12
f 16//13 19//13 18//13
f 17//14 19//14 20//14
f 22//15 26//15 28//15
f 23//16 26//16 25//16
f 24//17 26//17 27//17
f 29//18 33//18 35//18
f 30//19 33//19 32//19
f 31//20 33//20 34//20
f 36//21 40//21 42//21
f 37//22 40//22 39//22
f 38//23 40//23 41//23
f 43//24 47//24 49//24
f 44//25 47//25 46//25
f 45//26 47//26 48//26
f 50//27 54//27 56//27
f 51//28 54//28 53//28
f 52//29 54//29 55//29
f 1//30 18//30 15//30
f 7//31 16//31 18//31
f 8//32 6//32 2//32
f 14//33 3//33 6//33
f 22//34 13//34 9//34
f 28//35 10//35 13//35
f 17//36 27//36 23//36
f 20//37 24//37 27//37
f 15//38 46//38 43//38
f 21//39 44//39 46//39
f 50//40 25//40 22//40
f 56//41 23//41 25//41
f 45//42 55//42 51//42
f 48//43 52//43 55//43
f 43//44 32//44 29//44
f 49//45 30//45 32//45
f 36//46 53//46 50//46
f 42//47 51//47 53//47
f 31//48 41//48 37//48
f 34//49 38//49 41//49
f 29//50 4//50 1//50
f 35//51 2//51 4//51
f 9//52 39//52 36//52
f 11//53 37//53 39//53
f 43//54 1//54 15//54
f 37//1 8//1 2//1
f 51//2 38//2 30//2
f 22//3 9//3 36//3
f 10//4 24//4 16//4
f 23//5 52//5 44//5
f 1//55 4//55 5//55
f 2//56 6//56 5//56
f 3//57 7//57 5//57
f 8//58 11//58 12//58
f 9//59 13//59 12//59
f 10//60 14//60 12//60
f 15//61 18//61 19//61
f 16//62 20//62 19//62
f 17//63 21//63 19//63
f 22//64 25//64 26//64
f 23//65 27//65 26//65
f 24//66 28//66 26//66
f 29//67 32//67 33//67
f 30//68 34//68 33//68
f 31//69 35//69 33//69
f 36//70 39//70 40//70
f 37//71 41//71 40//71
f 38//72 42//72 40//72
f 43//73 46//73 47//73
f 44//74 48//74 47//74
f 45//75 49//75 47//75
f 50//76 53//76 54//76
f 51//77 55//77 54//77
f 52//78 56//78 54//78
f 1//30 7//30 18//30
f 7//31 3//31 16//31
f 8//32 14//32 6//32
f 14//33 10//33 3//33
f 22//34 28//34 13//34
f 28//35 24//35 10//35
f 17//36 20//36 27//36
f 20//37 16//37 24//37
f 15//38 21//38 46//38
f 21//39 17//39 44//39
f 50//40 56//40 25//40
f 56//41 52//41 23//41
f 45//42 48//42 55//42
f 48//43 44//43 52//43
f 43//44 49//44 32//44
f 49//45 45//45 30//45
f 36//46 42//46 53//46
f 42//47 38//47 51//47
f 31//48 34//48 41//48
f 34//49 30//49 38//49
f 29//50 35//50 4//50
f 35//51 31//51 2//51
f 9//52 11//52 39//52
f 11//53 8//53 37//53
f 43//54 29//54 1//54
