# Blender 4.0.2
# www.blender.org
o Backrest
v -0.232800 0.123612 0.927323
v -0.232800 0.127093 0.937704
v -0.240000 0.128683 0.936859
v -0.232800 0.123974 0.930714
v -0.236957 0.124838 0.931841
v -0.237891 0.127559 0.937457
v -0.237891 0.125097 0.930116
v -0.232800 0.454972 1.554355
v -0.232800 0.461632 1.563046
v -0.240000 0.456562 1.553510
v -0.232800 0.459023 1.560850
v -0.236957 0.458571 1.559503
v -0.237891 0.460147 1.560253
v -0.237891 0.455438 1.554107
v -0.232800 0.226388 0.872677
v -0.240000 0.231458 0.882213
v -0.232800 0.233047 0.881368
v -0.237891 0.227873 0.875470
v -0.236957 0.229448 0.876219
v -0.237891 0.232582 0.881615
v -0.232800 0.228996 0.874872
v -0.232800 0.564407 1.508399
v -0.232800 0.560926 1.498018
v -0.240000 0.559337 1.498863
v -0.232800 0.564046 1.505009
v -0.236957 0.563182 1.503881
v -0.237891 0.560461 1.498266
v -0.237891 0.562922 1.505606
v 0.232800 0.123612 0.927323
v 0.240000 0.128683 0.936859
v 0.232800 0.127093 0.937704
v 0.237891 0.125097 0.930116
v 0.236957 0.124838 0.931841
v 0.237891 0.127559 0.937457
v 0.232800 0.123974 0.930714
v 0.232800 0.461632 1.563046
v 0.232800 0.454972 1.554355
v 0.240000 0.456562 1.553510
v 0.232800 0.459023 1.560850
v 0.236957 0.458571 1.559503
v 0.237891 0.455438 1.554107
v 0.237891 0.460147 1.560253
v 0.232800 0.226388 0.872677
v 0.232800 0.233047 0.881368
v 0.240000 0.231458 0.882213
v 0.232800 0.228996 0.874872
v 0.236957 0.229448 0.876219
v 0.237891 0.232582 0.881615
v 0.237891 0.227873 0.875470
v 0.232800 0.564407 1.508399
v 0.240000 0.559337 1.498863
v 0.232800 0.560926 1.498018
v 0.237891 0.562922 1.505606
v 0.236957 0.563182 1.503881
v 0.237891 0.560461 1.498266
v 0.232800 0.564046 1.505009
vn -0.0000 -0.8829 0.4695
vn 1.0000 -0.0000 -0.0000
vn -0.0000 0.4695 0.8829
vn -1.0000 -0.0000 -0.0000
vn -0.0000 0.8829 -0.4695
vn -0.2772 -0.9608 0.0055
vn -0.0790 -0.9103 0.4063
vn -0.5137 -0.8025 0.3035
vn -0.1029 -0.8523 0.5128
vn -0.1752 -0.6339 0.7533
vn -0.6094 -0.6051 0.5123
vn -0.1752 0.6339 -0.7533
vn -0.6094 0.6051 -0.5123
vn -0.1029 0.8523 -0.5128
vn -0.2772 0.9608 -0.0055
vn -0.0790 0.9103 -0.4063
vn -0.5137 0.8025 -0.3035
vn 0.1752 -0.9790 0.1043
vn 0.6094 -0.7631 0.2151
vn 0.1029 -0.9017 0.4199
vn 0.2772 -0.5418 0.7935
vn 0.0790 -0.8459 0.5275
vn 0.5137 -0.7003 0.4956
vn 0.2772 0.5418 -0.7935
vn 0.0790 0.8459 -0.5275
vn 0.5137 0.7003 -0.4956
vn 0.1752 0.9790 -0.1043
vn 0.6094 0.7631 -0.2151
vn 0.1029 0.9017 -0.4199
vn -0.5278 -0.3988 -0.7500
vn -0.9639 -0.1250 -0.2350
vn -0.1030 -0.8783 0.4670
vn -0.5167 -0.7559 0.4019
vn -0.5278 0.3988 0.7500
vn -0.9639 0.1250 0.2350
vn -0.1030 0.8783 -0.4670
vn -0.5167 0.7559 -0.4019
vn -0.0000 0.6439 -0.7651
vn -0.0000 0.8485 -0.5292
vn -0.0000 0.9944 -0.1059
vn -0.0000 0.9132 -0.4075
vn 0.5167 0.7559 -0.4019
vn 0.1030 0.8783 -0.4670
vn 0.5278 -0.3988 -0.7500
vn 0.9639 -0.1250 -0.2350
vn 0.5278 0.3988 0.7500
vn 0.9639 0.1250 0.2350
vn 0.1030 -0.8783 0.4670
vn 0.5167 -0.7559 0.4019
vn -0.0000 -0.9944 0.1059
vn -0.0000 -0.9132 0.4075
vn -0.0000 -0.6439 0.7651
vn -0.0000 -0.8485 0.5292
vn -0.0000 -0.4695 -0.8829
vn -0.1752 -0.9790 0.1043
vn -0.1029 -0.9017 0.4199
vn -0.6094 -0.7631 0.2151
vn -0.0790 -0.8459 0.5275
vn -0.2772 -0.5418 0.7935
vn -0.5137 -0.7003 0.4956
vn -0.2772 0.5418 -0.7935
vn -0.5137 0.7003 -0.4956
vn -0.0790 0.8459 -0.5275
vn -0.1752 0.9790 -0.1043
vn -0.1029 0.9017 -0.4199
vn -0.6094 0.7631 -0.2151
vn 0.2772 -0.9608 0.0055
vn 0.5137 -0.8025 0.3035
vn 0.0790 -0.9103 0.4063
vn 0.1752 -0.6339 0.7533
vn 0.1029 -0.8523 0.5128
vn 0.6094 -0.6051 0.5123
vn 0.1752 0.6339 -0.7533
vn 0.1029 0.8523 -0.5128
vn 0.6094 0.6051 -0.5123
vn 0.2772 0.9608 -0.0055
vn 0.5137 0.8025 -0.3035
vn 0.0790 0.9103 -0.4063
vn -0.5277 -0.3988 -0.7500
vn -0.5277 0.3988 0.7500
vn 0.5277 -0.3988 -0.7500
vn 0.5277 0.3988 0.7500
s 0
f 37//1 2//1 31//1
f 51//2 30//2 45//2
f 22//3 36//3 50//3
f 10//4 16//4 3//4
f 23//5 44//5 17//5
f 1//6 5//6 7//6
f 2//7 5//7 4//7
f 3//8 5//8 6//8
f 8//9 12//9 14//9
f 9//10 12//10 11//10
f 10//11 12//11 13//11
f 15//12 19//12 21//12
f 16//13 19//13 18//13
f 17//14 19//14 20//14
f 22//15 26//15 28//15
f 23//16 26//16 25//16
f 24//17 26//17 27//17
f 29//18 33//18 35//18
f 30//19 33//19 32//19
f 31//20 33//20 34//20
f 36//21 40//21 42//21
f 37//22 40//22 39//22
f 38//23 40//23 41//23
f 43//24 47//24 49//24
f 44//25 47//25 46//25
f 45//26 47//26 48//26
f 50//27 54//27 56//27
f 51//28 54//28 53//28
f 52//29 54//29 55//29
f 1//30 18//30 15//30
f 7//31 16//31 18//31
f 8//32 6//32 2//32
f 14//33 3//33 6//33
f 22//34 13//34 9//34
f 28//35 10//35 13//35
f 17//36 27//36 23//36
f 20//37 24//37 27//37
f 15//38 46//38 43//38
f 21//39 44//39 46//39
f 50//40 25//40 22//40
f 56//41 23//41 25//41
f 45//42 55//42 51//42
f 48//43 52//43 55//43
f 43//44 32//44 29//44
f 49//45 30//45 32//45
f 36//46 53//46 50//46
f 42//47 51//47 53//47
f 31//48 41//48 37//48
f 34//49 38//49 41//49
f 29//50 4//50 1//50
f 35//51 2//51 4//51
f 9//52 39//52 36//52
f 11//53 37//53 39//53
f 43//54 1//54 15//54
f 37//1 8//1 2//1
f 51//2 38//2 30//2
f 22//3 9//3 36//3
f 10//4 24//4 16//4
f 23//5 52//5 44//5
f 1//55 4//55 5//55
f 2//56 6//56 5//56
f 3//57 7//57 5//57
f 8//58 11//58 12//58
f 9//59 13//59 12//59
f 10//60 14//60 12//60
f 15//61 18//61 19//61
f 16//62 20//62 19//62
f 17//63 21//63 19//63
f 22//64 25//64 26//64
f 23//65 27//65 26//65
f 24//66 28//66 26//66
f 29//67 32//67 33//67
f 30//68 34//68 33//68
f 31//69 35//69 33//69
f 36//70 39//70 40//70
f 37//71 41//71 40//71
f 38//72 42//72 40//72
f 43//73 46//73 47//73
f 44//74 48//74 47//74
f 45//75 49//75 47//75
f 50//76 53//76 54//76
f 51//77 55//77 54//77
f 52//78 56//78 54//78
f 1//79 7//79 18//79
f 7//31 3//31 16//31
f 8//32 14//32 6//32
f 14//33 10//33 3//33
f 22//80 28//80 13//80
f 28//35 24//35 10//35
f 17//36 20//36 27//36
f 20//37 16//37 24//37
f 15//38 21//38 46//38
f 21//39 17//39 44//39
f 50//40 56//40 25//40
f 56//41 52//41 23//41
f 45//42 48//42 55//42
f 48//43 44//43 52//43
f 43//81 49//81 32//81
f 49//45 45//45 30//45
f 36//82 42//82 53//82
f 42//47 38//47 51//47
f 31//48 34//48 41//48
f 34//49 30//49 38//49
f 29//50 35//50 4//50
f 35//51 31//51 2//51
f 9//52 11//52 39//52
f 11//53 8//53 37//53
f 43//54 29//54 1//54
