# Blender 4.0.2
# www.blender.org
o Curette_Lucas85
v 0.615331 1.054384 0.929375
v 0.615931 1.055000 0.929375
v 0.615507 1.054813 0.929375
v 0.715331 1.054384 0.929375
v 0.714731 1.055000 0.929375
v 0.715155 1.054813 0.929375
v 0.615331 1.053950 0.927472
v 0.615931 1.054505 0.927205
v 0.615507 1.054337 0.927286
v 0.715331 1.053950 0.927472
v 0.714731 1.054505 0.927205
v 0.715155 1.054337 0.927286
v 0.615331 1.052734 0.925947
v 0.615931 1.053117 0.925465
v 0.615507 1.053001 0.925611
v 0.715331 1.052734 0.925947
v 0.714731 1.053117 0.925465
v 0.715155 1.053001 0.925611
v 0.615331 1.050976 0.925100
v 0.615931 1.051113 0.924500
v 0.615507 1.051071 0.924682
v 0.715331 1.050976 0.925100
v 0.714731 1.051113 0.924500
v 0.715155 1.051071 0.924682
v 0.615331 1.049024 0.925100
v 0.615931 1.048887 0.924500
v 0.615507 1.048929 0.924682
v 0.715331 1.049024 0.925100
v 0.714731 1.048887 0.924500
v 0.715155 1.048929 0.924682
v 0.615331 1.047266 0.925947
v 0.615931 1.046883 0.925465
v 0.615507 1.046999 0.925611
v 0.715331 1.047266 0.925947
v 0.714731 1.046883 0.925465
v 0.715155 1.046999 0.925611
v 0.615331 1.046050 0.927472
v 0.615931 1.045495 0.927205
v 0.615507 1.045663 0.927286
v 0.715331 1.046050 0.927472
v 0.714731 1.045495 0.927205
v 0.715155 1.045663 0.927286
v 0.615331 1.045615 0.929375
v 0.615931 1.045000 0.929375
v 0.615507 1.045187 0.929375
v 0.715331 1.045615 0.929375
v 0.714731 1.045000 0.929375
v 0.715155 1.045187 0.929375
v 0.615331 1.046050 0.931277
v 0.615931 1.045495 0.931544
v 0.615507 1.045663 0.931463
v 0.715331 1.046050 0.931277
v 0.714731 1.045495 0.931544
v 0.715155 1.045663 0.931463
v 0.615331 1.047266 0.932803
v 0.615931 1.046883 0.933284
v 0.615507 1.046999 0.933138
v 0.715331 1.047266 0.932803
v 0.714731 1.046883 0.933284
v 0.715155 1.046999 0.933138
v 0.615331 1.049024 0.933649
v 0.615931 1.048887 0.934249
v 0.615507 1.048929 0.934067
v 0.715331 1.049024 0.933649
v 0.714731 1.048887 0.934249
v 0.715155 1.048929 0.934067
v 0.615331 1.050976 0.933649
v 0.615931 1.051113 0.934249
v 0.615507 1.051071 0.934067
v 0.715331 1.050976 0.933649
v 0.714731 1.051113 0.934249
v 0.715155 1.051071 0.934067
v 0.615331 1.052734 0.932803
v 0.615931 1.053117 0.933284
v 0.615507 1.053001 0.933138
v 0.715331 1.052734 0.932803
v 0.714731 1.053117 0.933284
v 0.715155 1.053001 0.933138
v 0.615331 1.053950 0.931277
v 0.615931 1.054505 0.931544
v 0.615507 1.054337 0.931463
v 0.715331 1.053950 0.931277
v 0.714731 1.054505 0.931544
v 0.715155 1.054337 0.931463
v 0.718270 1.054045 0.933272
v 0.718270 1.054045 0.925477
v 0.720086 1.051545 0.933272
v 0.720086 1.051545 0.925477
v 0.720086 1.048455 0.933272
v 0.720086 1.048455 0.925477
v 0.718270 1.045955 0.933272
v 0.718270 1.045955 0.925477
v 0.715331 1.045000 0.933272
v 0.715331 1.045000 0.925477
v 0.712392 1.045955 0.933272
v 0.712392 1.045955 0.925477
v 0.710576 1.048455 0.933272
v 0.710576 1.048455 0.925477
v 0.715331 1.050000 0.924875
v 0.715331 1.050000 0.933875
v 0.710576 1.051545 0.933272
v 0.710576 1.051545 0.925477
v 0.712392 1.054045 0.933272
v 0.712392 1.054045 0.925477
v 0.715331 1.055000 0.933272
v 0.715331 1.055000 0.925477
v 0.720026 1.057446 0.931102
v 0.720086 1.056545 0.931881
v 0.720961 1.056766 0.931102
v 0.720072 1.057044 0.931547
v 0.720392 1.056966 0.931454
v 0.720565 1.056686 0.931547
v 0.720527 1.057152 0.931137
v 0.720448 1.058026 0.929897
v 0.721383 1.057347 0.929897
v 0.721383 1.057347 0.928852
v 0.720448 1.058026 0.928852
v 0.720949 1.057733 0.929931
v 0.721033 1.057849 0.929375
v 0.721482 1.057419 0.929375
v 0.720949 1.057733 0.928818
v 0.720486 1.058143 0.929375
v 0.720026 1.057446 0.927647
v 0.720961 1.056766 0.927647
v 0.720086 1.056545 0.926868
v 0.720527 1.057152 0.927612
v 0.720392 1.056966 0.927295
v 0.720565 1.056686 0.927202
v 0.720072 1.057044 0.927202
v 0.723863 1.052165 0.931102
v 0.723506 1.053264 0.931102
v 0.723025 1.052500 0.931881
v 0.723739 1.052732 0.931137
v 0.723519 1.052661 0.931454
v 0.723307 1.052912 0.931547
v 0.723495 1.052332 0.931547
v 0.724546 1.052386 0.929897
v 0.724546 1.052386 0.928852
v 0.724189 1.053486 0.928852
v 0.724189 1.053486 0.929897
v 0.724668 1.052386 0.929375
v 0.724558 1.052998 0.929375
v 0.724422 1.052954 0.928818
v 0.724288 1.053558 0.929375
v 0.724422 1.052954 0.929931
v 0.723863 1.052165 0.927647
v 0.723025 1.052500 0.926868
v 0.723506 1.053264 0.927647
v 0.723495 1.052332 0.927202
v 0.723519 1.052661 0.927295
v 0.723307 1.052912 0.927202
v 0.723739 1.052732 0.927612
v 0.723506 1.046736 0.931102
v 0.723863 1.047835 0.931102
v 0.723025 1.047500 0.931881
v 0.723739 1.047268 0.931137
v 0.723519 1.047339 0.931454
v 0.723495 1.047668 0.931547
v 0.723307 1.047088 0.931547
v 0.724189 1.046514 0.929897
v 0.724189 1.046514 0.928852
v 0.724546 1.047614 0.928852
v 0.724546 1.047614 0.929897
v 0.724288 1.046442 0.929375
v 0.724558 1.047002 0.929375
v 0.724422 1.047046 0.928818
v 0.724668 1.047614 0.929375
v 0.724422 1.047046 0.929931
v 0.723506 1.046736 0.927647
v 0.723025 1.047500 0.926868
v 0.723863 1.047835 0.927647
v 0.723307 1.047088 0.927202
v 0.723519 1.047339 0.927295
v 0.723495 1.047668 0.927202
v 0.723739 1.047268 0.927612
v 0.720026 1.042554 0.931102
v 0.720961 1.043234 0.931102
v 0.720086 1.043455 0.931881
v 0.720527 1.042848 0.931137
v 0.720392 1.043034 0.931454
v 0.720565 1.043314 0.931547
v 0.720072 1.042956 0.931547
v 0.720448 1.041973 0.929897
v 0.720448 1.041973 0.928852
v 0.721383 1.042653 0.928852
v 0.721383 1.042653 0.929897
v 0.720486 1.041857 0.929375
v 0.721033 1.042151 0.929375
v 0.720949 1.042267 0.928818
v 0.721482 1.042581 0.929375
v 0.720949 1.042267 0.929931
v 0.720026 1.042554 0.927647
v 0.720086 1.043455 0.926868
v 0.720961 1.043234 0.927647
v 0.720072 1.042956 0.927202
v 0.720392 1.043034 0.927295
v 0.720565 1.043314 0.927202
v 0.720527 1.042848 0.927612
v 0.714753 1.041217 0.931102
v 0.715909 1.041217 0.931102
v 0.715331 1.041910 0.931881
v 0.715331 1.041159 0.931137
v 0.715331 1.041390 0.931454
v 0.715636 1.041515 0.931547
v 0.715026 1.041515 0.931547
v 0.714753 1.040499 0.929897
v 0.714753 1.040499 0.928852
v 0.715909 1.040499 0.928852
v 0.715909 1.040499 0.929897
v 0.714715 1.040382 0.929375
v 0.715331 1.040298 0.929375
v 0.715331 1.040441 0.928818
v 0.715947 1.040382 0.929375
v 0.715331 1.040441 0.929931
v 0.714753 1.041217 0.927647
v 0.715331 1.041910 0.926868
v 0.715909 1.041217 0.927647
v 0.715026 1.041515 0.927202
v 0.715331 1.041390 0.927295
v 0.715636 1.041515 0.927202
v 0.715331 1.041159 0.927612
v 0.709701 1.043234 0.931102
v 0.710636 1.042554 0.931102
v 0.710576 1.043455 0.931881
v 0.710134 1.042848 0.931137
v 0.710270 1.043034 0.931454
v 0.710590 1.042956 0.931547
v 0.710097 1.043314 0.931547
v 0.709279 1.042653 0.929897
v 0.709279 1.042653 0.928852
v 0.710214 1.041973 0.928852
v 0.710214 1.041973 0.929897
v 0.709180 1.042581 0.929375
v 0.709628 1.042151 0.929375
v 0.709712 1.042267 0.928818
v 0.710176 1.041857 0.929375
v 0.709712 1.042267 0.929931
v 0.709701 1.043234 0.927647
v 0.710576 1.043455 0.926868
v 0.710636 1.042554 0.927647
v 0.710097 1.043314 0.927202
v 0.710270 1.043034 0.927295
v 0.710590 1.042956 0.927202
v 0.710134 1.042848 0.927612
v 0.706799 1.047835 0.931102
v 0.707156 1.046736 0.931102
v 0.707637 1.047500 0.931881
v 0.706923 1.047268 0.931137
v 0.707142 1.047339 0.931454
v 0.707355 1.047088 0.931547
v 0.707167 1.047668 0.931547
v 0.706116 1.047614 0.929897
v 0.706116 1.047614 0.928852
v 0.706473 1.046514 0.928852
v 0.706473 1.046514 0.929897
v 0.705994 1.047614 0.929375
v 0.706104 1.047002 0.929375
v 0.706240 1.047046 0.928818
v 0.706374 1.046442 0.929375
v 0.706240 1.047046 0.929931
v 0.706799 1.047835 0.927647
v 0.707637 1.047500 0.926868
v 0.707156 1.046736 0.927647
v 0.707167 1.047668 0.927202
v 0.707142 1.047339 0.927295
v 0.707355 1.047088 0.927202
v 0.706923 1.047268 0.927612
v 0.707156 1.053264 0.931102
v 0.706799 1.052165 0.931102
v 0.707637 1.052500 0.931881
v 0.706923 1.052732 0.931137
v 0.707142 1.052661 0.931454
v 0.707167 1.052332 0.931547
v 0.707355 1.052912 0.931547
v 0.706473 1.053486 0.929897
v 0.706473 1.053486 0.928852
v 0.706116 1.052386 0.928852
v 0.706116 1.052386 0.929897
v 0.706374 1.053558 0.929375
v 0.706104 1.052998 0.929375
v 0.706240 1.052954 0.928818
v 0.705994 1.052386 0.929375
v 0.706240 1.052954 0.929931
v 0.707156 1.053264 0.927647
v 0.707637 1.052500 0.926868
v 0.706799 1.052165 0.927647
v 0.707355 1.052912 0.927202
v 0.707142 1.052661 0.927295
v 0.707167 1.052332 0.927202
v 0.706923 1.052732 0.927612
v 0.710636 1.057446 0.931102
v 0.709701 1.056766 0.931102
v 0.710576 1.056545 0.931881
v 0.710134 1.057152 0.931137
v 0.710270 1.056966 0.931454
v 0.710097 1.056686 0.931547
v 0.710590 1.057044 0.931547
v 0.710214 1.058026 0.929897
v 0.710214 1.058026 0.928852
v 0.709279 1.057347 0.928852
v 0.709279 1.057347 0.929897
v 0.710176 1.058143 0.929375
v 0.709628 1.057849 0.929375
v 0.709712 1.057733 0.928818
v 0.709180 1.057419 0.929375
v 0.709712 1.057733 0.929931
v 0.710636 1.057446 0.927647
v 0.710576 1.056545 0.926868
v 0.709701 1.056766 0.927647
v 0.710590 1.057044 0.927202
v 0.710270 1.056966 0.927295
v 0.710097 1.056686 0.927202
v 0.710134 1.057152 0.927612
v 0.715909 1.058783 0.931102
v 0.714753 1.058783 0.931102
v 0.715331 1.058090 0.931881
v 0.715331 1.058841 0.931137
v 0.715331 1.058610 0.931454
v 0.715026 1.058485 0.931547
v 0.715636 1.058485 0.931547
v 0.715909 1.059501 0.929897
v 0.715909 1.059501 0.928852
v 0.714753 1.059501 0.928852
v 0.714753 1.059501 0.929897
v 0.715947 1.059618 0.929375
v 0.715331 1.059702 0.929375
v 0.715331 1.059559 0.928818
v 0.714715 1.059618 0.929375
v 0.715331 1.059559 0.929931
v 0.715909 1.058783 0.927647
v 0.715331 1.058090 0.926868
v 0.714753 1.058783 0.927647
v 0.715636 1.058485 0.927202
v 0.715331 1.058610 0.927295
v 0.715026 1.058485 0.927202
v 0.715331 1.058841 0.927612
vn -0.0000 0.9749 0.2225
vn -0.0000 0.4339 -0.9010
vn -0.0000 -0.0000 -1.0000
vn -0.0000 -0.4339 -0.9010
vn -0.0000 -0.7818 -0.6235
vn -0.0000 -0.9749 -0.2225
vn -0.0000 -0.9749 0.2225
vn -0.0000 -0.7818 0.6235
vn -0.0000 -0.4339 0.9010
vn -0.0000 -0.0000 1.0000
vn -0.0000 0.4339 0.9010
vn -0.0000 0.7818 0.6235
vn -0.0000 0.7818 -0.6235
vn 1.0000 -0.0000 -0.0000
vn -0.0000 0.9749 -0.2225
vn -0.3940 0.8961 -0.2045
vn -0.9219 0.3778 -0.0862
vn 0.3940 0.8961 -0.2045
vn 0.9219 0.3778 -0.0862
vn -0.3940 0.7186 -0.5731
vn -0.9219 0.3029 -0.2416
vn 0.3940 0.7186 -0.5730
vn 0.9219 0.3029 -0.2416
vn -0.3940 0.3988 -0.8281
vn -0.9219 0.1681 -0.3491
vn 0.3940 0.3988 -0.8281
vn 0.9219 0.1681 -0.3491
vn -0.3940 -0.0000 -0.9191
vn -0.9219 -0.0000 -0.3875
vn 0.3940 -0.0000 -0.9191
vn 0.9219 -0.0000 -0.3875
vn -0.3940 -0.3988 -0.8281
vn -0.9219 -0.1681 -0.3491
vn 0.3940 -0.3988 -0.8281
vn 0.9219 -0.1681 -0.3491
vn -0.3940 -0.7186 -0.5730
vn -0.9219 -0.3029 -0.2416
vn 0.3940 -0.7186 -0.5731
vn 0.9219 -0.3029 -0.2416
vn -0.3940 -0.8961 -0.2045
vn -0.9219 -0.3778 -0.0862
vn 0.3940 -0.8961 -0.2045
vn 0.9219 -0.3778 -0.0862
vn -0.3940 -0.8961 0.2045
vn -0.9219 -0.3778 0.0862
vn 0.3940 -0.8961 0.2045
vn 0.9219 -0.3778 0.0862
vn -0.3940 -0.7186 0.5731
vn -0.9219 -0.3029 0.2416
vn 0.3940 -0.7186 0.5730
vn 0.9219 -0.3029 0.2416
vn -0.3940 -0.3988 0.8281
vn -0.9219 -0.1681 0.3491
vn 0.3940 -0.3988 0.8281
vn 0.9219 -0.1681 0.3491
vn -0.3940 -0.0000 0.9191
vn -0.9219 -0.0000 0.3875
vn 0.3940 -0.0000 0.9191
vn 0.9219 -0.0000 0.3875
vn -0.3940 0.3988 0.8281
vn -0.9219 0.1681 0.3491
vn 0.3940 0.3988 0.8281
vn 0.9219 0.1681 0.3491
vn -0.3940 0.7186 0.5730
vn -0.9219 0.3029 0.2416
vn 0.3940 0.7186 0.5731
vn 0.9219 0.3029 0.2416
vn -0.3940 0.8961 0.2045
vn -0.9219 0.3778 0.0862
vn 0.3940 0.8961 0.2045
vn 0.9219 0.3778 0.0862
vn -1.0000 -0.0000 -0.0000
vn 0.0389 0.1196 -0.9921
vn 0.3460 0.2514 -0.9039
vn 0.7040 0.5115 -0.4928
vn 0.4277 -0.0000 0.9039
vn 0.7040 0.5115 0.4928
vn 0.0389 0.1196 0.9921
vn 0.2689 0.8276 0.4928
vn 0.1322 0.4068 -0.9039
vn 0.1322 0.4068 0.9039
vn 0.1018 0.0739 0.9921
vn 0.1018 0.0739 -0.9921
vn 0.2689 0.8276 -0.4928
vn 0.3460 -0.2514 0.9039
vn 0.8702 -0.0000 -0.4928
vn 0.1258 -0.0000 0.9921
vn 0.1258 -0.0000 -0.9921
vn 0.4277 -0.0000 -0.9039
vn 0.8702 -0.0000 0.4928
vn 0.1322 -0.4068 0.9039
vn 0.7040 -0.5115 -0.4928
vn 0.1018 -0.0739 0.9921
vn 0.1018 -0.0739 -0.9921
vn 0.3460 -0.2514 -0.9039
vn 0.7040 -0.5115 0.4928
vn -0.1322 -0.4068 0.9039
vn 0.2689 -0.8276 -0.4928
vn 0.0389 -0.1196 0.9921
vn 0.0389 -0.1196 -0.9921
vn 0.1322 -0.4068 -0.9039
vn 0.2689 -0.8276 0.4928
vn -0.3460 -0.2514 0.9039
vn -0.2689 -0.8276 -0.4928
vn -0.0389 -0.1196 0.9921
vn -0.0389 -0.1196 -0.9921
vn -0.1322 -0.4068 -0.9039
vn -0.2689 -0.8276 0.4928
vn -0.7040 -0.5115 -0.4928
vn -0.1018 -0.0739 0.9921
vn -0.1018 -0.0739 -0.9921
vn -0.3460 -0.2514 -0.9039
vn -0.7040 -0.5115 0.4928
vn -0.4277 -0.0000 0.9039
vn -0.1258 -0.0000 0.9921
vn -0.1258 -0.0000 -0.9921
vn -0.4277 -0.0000 -0.9039
vn -0.8702 -0.0000 0.4928
vn -0.3460 0.2514 0.9039
vn -0.8702 -0.0000 -0.4928
vn -0.1018 0.0739 -0.9921
vn -0.3460 0.2514 -0.9039
vn -0.7040 0.5115 0.4928
vn -0.1322 0.4068 0.9039
vn -0.7040 0.5115 -0.4928
vn -0.1018 0.0739 0.9921
vn -0.0389 0.1196 -0.9921
vn -0.1322 0.4068 -0.9039
vn -0.2689 0.8276 0.4928
vn -0.2689 0.8276 -0.4928
vn -0.0389 0.1196 0.9921
vn 0.3727 0.7071 0.6009
vn 0.3529 0.5278 0.7726
vn 0.5574 0.5729 0.6009
vn 0.4612 0.8583 0.2249
vn 0.6551 0.7140 0.2472
vn 0.6738 0.7039 -0.2249
vn 0.4766 0.8436 -0.2472
vn 0.3727 0.7071 -0.6009
vn 0.5574 0.5729 -0.6009
vn 0.3930 0.4987 -0.7726
vn 0.7877 0.1359 0.6009
vn 0.7171 0.3530 0.6009
vn 0.5957 0.2196 0.7726
vn 0.9496 0.1926 0.2472
vn 0.9588 0.1734 -0.2249
vn 0.8815 0.4024 -0.2472
vn 0.8776 0.4233 0.2249
vn 0.7877 0.1359 -0.6009
vn 0.6110 0.1725 -0.7726
vn 0.7171 0.3530 -0.6009
vn 0.7171 -0.3530 0.6009
vn 0.7877 -0.1359 0.6009
vn 0.6110 -0.1725 0.7726
vn 0.8815 -0.4024 0.2472
vn 0.8776 -0.4233 -0.2249
vn 0.9496 -0.1926 -0.2472
vn 0.9588 -0.1734 0.2249
vn 0.7171 -0.3530 -0.6009
vn 0.5957 -0.2196 -0.7726
vn 0.7877 -0.1359 -0.6009
vn 0.3727 -0.7071 0.6009
vn 0.5574 -0.5729 0.6009
vn 0.3930 -0.4987 0.7726
vn 0.4766 -0.8436 0.2472
vn 0.4612 -0.8583 -0.2249
vn 0.6551 -0.7140 -0.2472
vn 0.6738 -0.7039 0.2249
vn 0.3727 -0.7071 -0.6009
vn 0.3529 -0.5278 -0.7726
vn 0.5574 -0.5729 -0.6009
vn -0.1142 -0.7911 0.6009
vn 0.1142 -0.7911 0.6009
vn 0.0248 -0.6344 0.7726
vn -0.1103 -0.9627 0.2472
vn -0.1314 -0.9655 -0.2249
vn 0.1103 -0.9627 -0.2472
vn 0.1314 -0.9655 0.2249
vn -0.1142 -0.7911 -0.6009
vn -0.0248 -0.6344 -0.7726
vn 0.1142 -0.7911 -0.6009
vn -0.5574 -0.5729 0.6009
vn -0.3727 -0.7071 0.6009
vn -0.3529 -0.5278 0.7726
vn -0.6551 -0.7140 0.2472
vn -0.6738 -0.7039 -0.2249
vn -0.4766 -0.8436 -0.2472
vn -0.4612 -0.8583 0.2249
vn -0.5574 -0.5729 -0.6009
vn -0.3930 -0.4987 -0.7726
vn -0.3727 -0.7071 -0.6009
vn -0.7877 -0.1359 0.6009
vn -0.7171 -0.3530 0.6009
vn -0.5957 -0.2196 0.7726
vn -0.9496 -0.1926 0.2472
vn -0.9588 -0.1734 -0.2249
vn -0.8815 -0.4024 -0.2472
vn -0.8776 -0.4233 0.2249
vn -0.7877 -0.1359 -0.6009
vn -0.6110 -0.1725 -0.7726
vn -0.7171 -0.3530 -0.6009
vn -0.7171 0.3530 0.6009
vn -0.7877 0.1359 0.6009
vn -0.6110 0.1725 0.7726
vn -0.8815 0.4024 0.2472
vn -0.8776 0.4233 -0.2249
vn -0.9496 0.1926 -0.2472
vn -0.9588 0.1734 0.2249
vn -0.7171 0.3530 -0.6009
vn -0.5957 0.2196 -0.7726
vn -0.7877 0.1359 -0.6009
vn -0.3727 0.7071 0.6009
vn -0.5574 0.5729 0.6009
vn -0.3930 0.4987 0.7726
vn -0.4766 0.8436 0.2472
vn -0.4612 0.8583 -0.2249
vn -0.6551 0.7140 -0.2472
vn -0.6738 0.7039 0.2249
vn -0.3727 0.7071 -0.6009
vn -0.3529 0.5278 -0.7726
vn -0.5574 0.5729 -0.6009
vn 0.1142 0.7911 0.6009
vn -0.1142 0.7911 0.6009
vn -0.0248 0.6344 0.7726
vn 0.1103 0.9627 0.2472
vn 0.1314 0.9655 -0.2249
vn -0.1103 0.9627 -0.2472
vn -0.1314 0.9655 0.2249
vn 0.1142 0.7911 -0.6009
vn 0.0248 0.6344 -0.7726
vn -0.1142 0.7911 -0.6009
vn 0.5946 0.6230 0.5082
vn 0.4088 0.7580 0.5082
vn 0.5946 0.6230 -0.5082
vn 0.4088 0.7580 -0.5082
vn 0.8473 0.1545 0.5082
vn 0.7763 0.3730 0.5082
vn 0.8473 0.1545 -0.5082
vn 0.7763 0.3730 -0.5082
vn 0.6231 0.4527 0.6378
vn 0.4689 0.3407 0.8149
vn 0.6231 0.4527 -0.6378
vn 0.4689 0.3407 -0.8149
vn 0.7876 0.5723 -0.2284
vn 0.7876 0.5723 0.2284
vn 0.7762 -0.3730 0.5082
vn 0.8472 -0.1545 0.5082
vn 0.7763 -0.3730 -0.5082
vn 0.8473 -0.1545 -0.5082
vn 0.7702 -0.0000 -0.6378
vn 0.5796 -0.0000 -0.8149
vn 0.9736 -0.0000 -0.2284
vn 0.9736 -0.0000 0.2283
vn 0.5796 -0.0000 0.8149
vn 0.7702 -0.0000 0.6378
vn 0.4088 -0.7580 0.5082
vn 0.5946 -0.6230 0.5082
vn 0.4088 -0.7580 -0.5082
vn 0.5946 -0.6230 -0.5082
vn 0.6231 -0.4527 -0.6378
vn 0.4689 -0.3407 -0.8149
vn 0.7876 -0.5723 -0.2284
vn 0.7876 -0.5723 0.2284
vn 0.4689 -0.3407 0.8149
vn 0.6231 -0.4527 0.6378
vn -0.1149 -0.8535 0.5082
vn 0.1149 -0.8535 0.5082
vn -0.1149 -0.8535 -0.5082
vn 0.1149 -0.8535 -0.5082
vn 0.2380 -0.7325 -0.6378
vn 0.1791 -0.5512 -0.8149
vn 0.3009 -0.9259 -0.2284
vn 0.3009 -0.9259 0.2284
vn 0.1791 -0.5512 0.8149
vn 0.2380 -0.7325 0.6378
vn -0.5946 -0.6230 0.5082
vn -0.4088 -0.7580 0.5082
vn -0.5946 -0.6230 -0.5082
vn -0.4088 -0.7580 -0.5082
vn -0.2380 -0.7325 -0.6378
vn -0.1791 -0.5513 -0.8149
vn -0.3009 -0.9259 -0.2284
vn -0.3009 -0.9259 0.2284
vn -0.1791 -0.5513 0.8149
vn -0.2380 -0.7325 0.6378
vn -0.8473 -0.1545 0.5082
vn -0.7762 -0.3730 0.5082
vn -0.8473 -0.1545 -0.5082
vn -0.7763 -0.3730 -0.5082
vn -0.7876 -0.5723 -0.2284
vn -0.7876 -0.5723 0.2284
vn -0.4689 -0.3407 0.8149
vn -0.6231 -0.4527 0.6378
vn -0.4689 -0.3407 -0.8149
vn -0.6231 -0.4527 -0.6378
vn -0.7763 0.3730 0.5082
vn -0.8472 0.1545 0.5082
vn -0.7763 0.3730 -0.5082
vn -0.8472 0.1545 -0.5082
vn -0.5796 -0.0000 -0.8149
vn -0.7702 -0.0000 -0.6378
vn -0.9736 -0.0000 0.2284
vn -0.9736 -0.0000 -0.2284
vn -0.7702 -0.0000 0.6378
vn -0.5796 -0.0000 0.8149
vn -0.4088 0.7580 0.5082
vn -0.5946 0.6230 0.5082
vn -0.4088 0.7580 -0.5082
vn -0.5946 0.6230 -0.5082
vn -0.4689 0.3407 -0.8149
vn -0.6231 0.4527 -0.6378
vn -0.7876 0.5723 0.2284
vn -0.7876 0.5723 -0.2284
vn -0.6231 0.4527 0.6378
vn -0.4689 0.3407 0.8149
vn 0.1149 0.8535 0.5082
vn -0.1149 0.8535 0.5082
vn 0.1149 0.8535 -0.5082
vn -0.1149 0.8535 -0.5082
vn -0.1791 0.5513 -0.8149
vn -0.2380 0.7325 -0.6378
vn -0.3009 0.9259 0.2284
vn -0.3009 0.9259 -0.2284
vn -0.2380 0.7325 0.6378
vn -0.1791 0.5513 0.8149
vn 0.1791 0.5513 -0.8149
vn 0.2380 0.7325 -0.6378
vn 0.3009 0.9259 0.2284
vn 0.3009 0.9259 -0.2284
vn 0.2380 0.7325 0.6378
vn 0.1791 0.5512 0.8149
vn 0.3460 0.2514 0.9039
vn -0.3940 0.7186 -0.5730
vn 0.3940 0.7186 -0.5731
vn -0.3940 -0.7186 -0.5731
vn 0.3940 -0.7186 -0.5730
vn -0.3940 -0.7186 0.5730
vn 0.3940 -0.7186 0.5731
vn -0.3940 0.7186 0.5731
vn 0.3940 0.7186 0.5730
vn 0.3483 0.7354 0.5813
vn 0.3930 0.4987 0.7726
vn 0.5918 0.5585 0.5813
vn 0.4766 0.8436 0.2472
vn 0.6738 0.7039 0.2249
vn 0.6551 0.7140 -0.2472
vn 0.4612 0.8583 -0.2249
vn 0.3483 0.7354 -0.5813
vn 0.5918 0.5585 -0.5813
vn 0.3529 0.5278 -0.7726
vn 0.8070 0.1040 0.5813
vn 0.7140 0.3903 0.5813
vn 0.6110 0.1725 0.7726
vn 0.9588 0.1734 0.2249
vn 0.9496 0.1926 -0.2472
vn 0.8776 0.4233 -0.2249
vn 0.8815 0.4024 0.2472
vn 0.8070 0.1040 -0.5813
vn 0.5957 0.2196 -0.7726
vn 0.7140 0.3903 -0.5813
vn 0.7140 -0.3903 0.5813
vn 0.8070 -0.1040 0.5813
vn 0.5957 -0.2196 0.7726
vn 0.8776 -0.4233 0.2249
vn 0.8815 -0.4024 -0.2472
vn 0.9588 -0.1734 -0.2249
vn 0.9496 -0.1926 0.2472
vn 0.7140 -0.3903 -0.5813
vn 0.6111 -0.1725 -0.7726
vn 0.8070 -0.1040 -0.5813
vn 0.3482 -0.7354 0.5813
vn 0.5918 -0.5585 0.5813
vn 0.3529 -0.5278 0.7726
vn 0.4612 -0.8583 0.2249
vn 0.4766 -0.8436 -0.2472
vn 0.6738 -0.7039 -0.2249
vn 0.6551 -0.7140 0.2472
vn 0.3482 -0.7354 -0.5813
vn 0.3930 -0.4987 -0.7726
vn 0.5918 -0.5585 -0.5813
vn -0.1505 -0.7996 0.5813
vn 0.1505 -0.7996 0.5813
vn -0.0248 -0.6344 0.7726
vn -0.1314 -0.9655 0.2249
vn -0.1103 -0.9627 -0.2472
vn 0.1314 -0.9655 -0.2249
vn 0.1103 -0.9627 0.2472
vn -0.1505 -0.7996 -0.5813
vn 0.0248 -0.6344 -0.7726
vn 0.1505 -0.7996 -0.5813
vn -0.5918 -0.5585 0.5813
vn -0.3483 -0.7354 0.5813
vn -0.3930 -0.4987 0.7726
vn -0.6738 -0.7039 0.2249
vn -0.6551 -0.7140 -0.2472
vn -0.4612 -0.8583 -0.2249
vn -0.4766 -0.8436 0.2472
vn -0.5918 -0.5585 -0.5813
vn -0.3529 -0.5278 -0.7726
vn -0.3483 -0.7354 -0.5813
vn -0.8070 -0.1040 0.5813
vn -0.7140 -0.3902 0.5813
vn -0.6110 -0.1725 0.7726
vn -0.9588 -0.1734 0.2249
vn -0.9496 -0.1926 -0.2472
vn -0.8776 -0.4233 -0.2249
vn -0.8815 -0.4024 0.2472
vn -0.8070 -0.1040 -0.5813
vn -0.5957 -0.2196 -0.7726
vn -0.7140 -0.3902 -0.5813
vn -0.7140 0.3903 0.5813
vn -0.8070 0.1040 0.5813
vn -0.5957 0.2196 0.7726
vn -0.8776 0.4233 0.2249
vn -0.8815 0.4024 -0.2472
vn -0.9588 0.1734 -0.2249
vn -0.9496 0.1926 0.2472
vn -0.7140 0.3903 -0.5813
vn -0.6110 0.1725 -0.7726
vn -0.8070 0.1040 -0.5813
vn -0.3482 0.7354 0.5813
vn -0.5918 0.5585 0.5813
vn -0.3529 0.5278 0.7726
vn -0.4612 0.8583 0.2249
vn -0.4766 0.8436 -0.2472
vn -0.6738 0.7039 -0.2249
vn -0.6551 0.7140 0.2472
vn -0.3482 0.7354 -0.5813
vn -0.3930 0.4987 -0.7726
vn -0.5918 0.5585 -0.5813
vn 0.1505 0.7997 0.5813
vn -0.1505 0.7996 0.5813
vn 0.0248 0.6344 0.7726
vn 0.1314 0.9655 0.2249
vn 0.1103 0.9627 -0.2472
vn -0.1314 0.9655 -0.2249
vn -0.1103 0.9627 0.2472
vn 0.1505 0.7997 -0.5813
vn -0.0248 0.6344 -0.7726
vn -0.1505 0.7996 -0.5813
vn 0.7763 -0.3730 0.5082
vn 0.8473 -0.1545 0.5082
vn 0.8472 -0.1545 -0.5082
vn 0.9736 -0.0000 -0.2283
vn 0.9736 -0.0000 0.2284
vn 0.1791 -0.5513 -0.8149
vn 0.1791 -0.5513 0.8149
vn -0.8472 -0.1545 0.5082
vn -0.7763 -0.3730 0.5082
vn -0.8472 -0.1545 -0.5082
vn -0.7762 -0.3730 -0.5082
vn -0.8473 0.1545 -0.5082
vn -0.1791 0.5512 0.8149
vn 0.1791 0.5512 -0.8149
vn 0.1791 0.5513 0.8149
s 0
f 83//1 2//1 80//1
f 17//2 20//2 14//2
f 23//3 26//3 20//3
f 29//4 32//4 26//4
f 35//5 38//5 32//5
f 41//6 44//6 38//6
f 47//7 50//7 44//7
f 53//8 56//8 50//8
f 59//9 62//9 56//9
f 65//10 68//10 62//10
f 71//11 74//11 68//11
f 77//12 80//12 74//12
f 11//13 14//13 8//13
f 76//14 52//14 28//14
f 5//15 8//15 2//15
f 8//16 3//16 2//16
f 3//17 7//17 1//17
f 5//18 12//18 11//18
f 6//19 10//19 12//19
f 8//20 15//20 9//20
f 9//21 13//21 7//21
f 11//22 18//22 17//22
f 12//23 16//23 18//23
f 20//24 15//24 14//24
f 21//25 13//25 15//25
f 17//26 24//26 23//26
f 24//27 16//27 22//27
f 26//28 21//28 20//28
f 27//29 19//29 21//29
f 23//30 30//30 29//30
f 24//31 28//31 30//31
f 32//32 27//32 26//32
f 27//33 31//33 25//33
f 29//34 36//34 35//34
f 30//35 34//35 36//35
f 38//36 33//36 32//36
f 39//37 31//37 33//37
f 41//38 36//38 42//38
f 42//39 34//39 40//39
f 44//40 39//40 38//40
f 45//41 37//41 39//41
f 41//42 48//42 47//42
f 48//43 40//43 46//43
f 50//44 45//44 44//44
f 45//45 49//45 43//45
f 47//46 54//46 53//46
f 48//47 52//47 54//47
f 50//48 57//48 51//48
f 51//49 55//49 49//49
f 53//50 60//50 59//50
f 54//51 58//51 60//51
f 62//52 57//52 56//52
f 63//53 55//53 57//53
f 59//54 66//54 65//54
f 66//55 58//55 64//55
f 68//56 63//56 62//56
f 69//57 61//57 63//57
f 65//58 72//58 71//58
f 66//59 70//59 72//59
f 74//60 69//60 68//60
f 69//61 73//61 67//61
f 71//62 78//62 77//62
f 72//63 76//63 78//63
f 80//64 75//64 74//64
f 81//65 73//65 75//65
f 83//66 78//66 84//66
f 84//67 76//67 82//67
f 2//68 81//68 80//68
f 3//69 79//69 81//69
f 83//70 6//70 5//70
f 6//71 82//71 4//71
f 19//72 43//72 67//72
f 99//73 106//73 86//73
f 86//74 147//74 88//74
f 116//75 148//75 124//75
f 87//76 155//76 132//76
f 109//77 140//77 115//77
f 105//78 100//78 85//78
f 321//79 107//79 114//79
f 331//80 86//80 106//80
f 105//81 108//81 316//81
f 85//82 100//82 87//82
f 99//83 86//83 88//83
f 322//84 123//84 330//84
f 155//85 91//85 178//85
f 138//86 171//86 146//86
f 87//87 100//87 89//87
f 99//88 88//88 90//88
f 147//89 90//89 88//89
f 130//90 163//90 137//90
f 91//91 201//91 178//91
f 169//92 185//92 194//92
f 89//93 100//93 91//93
f 99//94 90//94 92//94
f 170//95 92//95 90//95
f 153//96 186//96 160//96
f 93//97 224//97 201//97
f 184//98 217//98 192//98
f 91//99 100//99 93//99
f 99//100 92//100 94//100
f 193//101 94//101 92//101
f 183//102 200//102 209//102
f 95//103 247//103 224//103
f 207//104 240//104 215//104
f 93//105 100//105 95//105
f 99//106 94//106 96//106
f 216//107 96//107 94//107
f 206//108 223//108 232//108
f 238//109 254//109 263//109
f 95//110 100//110 97//110
f 99//111 96//111 98//111
f 96//112 262//112 98//112
f 229//113 246//113 255//113
f 97//114 270//114 247//114
f 97//115 100//115 101//115
f 99//116 98//116 102//116
f 98//117 285//117 102//117
f 245//118 278//118 252//118
f 270//119 103//119 293//119
f 253//120 286//120 261//120
f 99//121 102//121 104//121
f 285//122 104//122 102//122
f 268//123 301//123 275//123
f 293//124 105//124 316//124
f 276//125 309//125 284//125
f 101//126 100//126 103//126
f 99//127 104//127 106//127
f 104//128 331//128 106//128
f 298//129 315//129 324//129
f 299//130 332//130 307//130
f 103//131 100//131 105//131
f 110//132 113//132 107//132
f 108//133 111//133 110//133
f 113//134 112//134 109//134
f 114//135 119//135 122//135
f 115//136 119//136 118//136
f 116//137 119//137 120//137
f 117//138 119//138 121//138
f 126//139 129//139 123//139
f 128//140 126//140 124//140
f 125//141 127//141 128//141
f 133//142 136//142 130//142
f 135//143 133//143 131//143
f 132//144 134//144 135//144
f 137//145 142//145 145//145
f 138//146 142//146 141//146
f 139//147 142//147 143//147
f 140//148 142//148 144//148
f 149//149 152//149 146//149
f 147//150 150//150 149//150
f 152//151 151//151 148//151
f 156//152 159//152 153//152
f 158//153 156//153 154//153
f 155//154 157//154 158//154
f 160//155 165//155 168//155
f 161//156 165//156 164//156
f 162//157 165//157 166//157
f 163//158 165//158 167//158
f 172//159 175//159 169//159
f 170//160 173//160 172//160
f 175//161 174//161 171//161
f 179//162 182//162 176//162
f 181//163 179//163 177//163
f 178//164 180//164 181//164
f 183//165 188//165 191//165
f 184//166 188//166 187//166
f 185//167 188//167 189//167
f 186//168 188//168 190//168
f 195//169 198//169 192//169
f 193//170 196//170 195//170
f 198//171 197//171 194//171
f 202//172 205//172 199//172
f 204//173 202//173 200//173
f 201//174 203//174 204//174
f 206//175 211//175 214//175
f 207//176 211//176 210//176
f 208//177 211//177 212//177
f 209//178 211//178 213//178
f 218//179 221//179 215//179
f 216//180 219//180 218//180
f 221//181 220//181 217//181
f 225//182 228//182 222//182
f 227//183 225//183 223//183
f 224//184 226//184 227//184
f 229//185 234//185 237//185
f 230//186 234//186 233//186
f 231//187 234//187 235//187
f 232//188 234//188 236//188
f 241//189 244//189 238//189
f 239//190 242//190 241//190
f 244//191 243//191 240//191
f 248//192 251//192 245//192
f 250//193 248//193 246//193
f 247//194 249//194 250//194
f 252//195 257//195 260//195
f 253//196 257//196 256//196
f 254//197 257//197 258//197
f 255//198 257//198 259//198
f 264//199 267//199 261//199
f 262//200 265//200 264//200
f 267//201 266//201 263//201
f 271//202 274//202 268//202
f 273//203 271//203 269//203
f 270//204 272//204 273//204
f 275//205 280//205 283//205
f 276//206 280//206 279//206
f 277//207 280//207 281//207
f 278//208 280//208 282//208
f 287//209 290//209 284//209
f 285//210 288//210 287//210
f 290//211 289//211 286//211
f 294//212 297//212 291//212
f 296//213 294//213 292//213
f 293//214 295//214 296//214
f 298//215 303//215 306//215
f 299//216 303//216 302//216
f 300//217 303//217 304//217
f 301//218 303//218 305//218
f 310//219 313//219 307//219
f 308//220 311//220 310//220
f 313//221 312//221 309//221
f 317//222 320//222 314//222
f 319//223 317//223 315//223
f 316//224 318//224 319//224
f 321//225 326//225 329//225
f 322//226 326//226 325//226
f 323//227 326//227 327//227
f 324//228 326//228 328//228
f 333//229 336//229 330//229
f 331//230 334//230 333//230
f 336//231 335//231 332//231
f 109//232 118//232 113//232
f 113//233 114//233 107//233
f 116//234 126//234 121//234
f 126//235 117//235 121//235
f 137//236 133//236 130//236
f 133//237 140//237 131//237
f 146//238 143//238 138//238
f 152//239 139//239 143//239
f 131//240 112//240 135//240
f 112//241 132//241 135//241
f 148//242 128//242 124//242
f 128//243 147//243 125//243
f 139//244 120//244 144//244
f 120//245 140//245 144//245
f 160//246 156//246 153//246
f 156//247 163//247 154//247
f 169//248 166//248 161//248
f 175//249 162//249 166//249
f 146//250 174//250 149//250
f 174//251 147//251 149//251
f 138//252 167//252 162//252
f 141//253 163//253 167//253
f 155//254 136//254 132//254
f 158//255 130//255 136//255
f 183//256 179//256 176//256
f 179//257 186//257 177//257
f 184//258 198//258 189//258
f 198//259 185//259 189//259
f 169//260 197//260 172//260
f 197//261 170//261 172//261
f 161//262 190//262 185//262
f 190//263 160//263 186//263
f 178//264 159//264 155//264
f 181//265 153//265 159//265
f 206//266 202//266 199//266
f 202//267 209//267 200//267
f 215//268 212//268 207//268
f 221//269 208//269 212//269
f 217//270 195//270 192//270
f 195//271 216//271 193//271
f 184//272 213//272 208//272
f 187//273 209//273 213//273
f 178//274 204//274 182//274
f 182//275 200//275 176//275
f 229//276 225//276 222//276
f 225//277 232//277 223//277
f 230//278 244//278 235//278
f 244//279 231//279 235//279
f 240//280 218//280 215//280
f 218//281 239//281 216//281
f 207//282 236//282 231//282
f 236//283 206//283 232//283
f 224//284 205//284 201//284
f 205//285 223//285 199//285
f 252//286 248//286 245//286
f 248//287 255//287 246//287
f 261//288 258//288 253//288
f 267//289 254//289 258//289
f 254//290 233//290 259//290
f 233//291 255//291 259//291
f 224//292 250//292 228//292
f 228//293 246//293 222//293
f 239//294 266//294 262//294
f 241//295 263//295 266//295
f 275//296 271//296 268//296
f 271//297 278//297 269//297
f 276//298 290//298 281//298
f 290//299 277//299 281//299
f 285//300 264//300 289//300
f 264//301 286//301 289//301
f 278//302 256//302 252//302
f 282//303 253//303 256//303
f 245//304 273//304 269//304
f 251//305 270//305 273//305
f 298//306 294//306 291//306
f 294//307 301//307 292//307
f 299//308 313//308 304//308
f 313//309 300//309 304//309
f 285//310 312//310 308//310
f 312//311 284//311 309//311
f 275//312 305//312 279//312
f 279//313 300//313 276//313
f 268//314 296//314 292//314
f 296//315 270//315 293//315
f 321//316 317//316 314//316
f 317//317 324//317 315//317
f 330//318 327//318 322//318
f 336//319 323//319 327//319
f 308//320 335//320 331//320
f 310//321 332//321 335//321
f 298//322 328//322 302//322
f 328//323 299//323 302//323
f 315//324 297//324 319//324
f 297//325 316//325 319//325
f 331//326 129//326 125//326
f 333//327 123//327 129//327
f 114//328 325//328 321//328
f 122//329 322//329 325//329
f 107//330 320//330 110//330
f 320//331 108//331 110//331
f 85//332 132//332 108//332
f 83//1 5//1 2//1
f 17//2 23//2 20//2
f 23//3 29//3 26//3
f 29//4 35//4 32//4
f 35//5 41//5 38//5
f 41//6 47//6 44//6
f 47//7 53//7 50//7
f 53//8 59//8 56//8
f 59//9 65//9 62//9
f 65//10 71//10 68//10
f 71//11 77//11 74//11
f 77//12 83//12 80//12
f 11//13 17//13 14//13
f 16//14 10//14 4//14
f 4//14 82//14 76//14
f 76//14 70//14 64//14
f 64//14 58//14 52//14
f 52//14 46//14 40//14
f 40//14 34//14 28//14
f 28//14 22//14 16//14
f 16//14 4//14 76//14
f 76//14 64//14 52//14
f 52//14 40//14 28//14
f 28//14 16//14 76//14
f 5//15 11//15 8//15
f 8//16 9//16 3//16
f 3//17 9//17 7//17
f 5//18 6//18 12//18
f 6//19 4//19 10//19
f 8//333 14//333 15//333
f 9//21 15//21 13//21
f 11//334 12//334 18//334
f 12//23 10//23 16//23
f 20//24 21//24 15//24
f 21//25 19//25 13//25
f 17//26 18//26 24//26
f 24//27 18//27 16//27
f 26//28 27//28 21//28
f 27//29 25//29 19//29
f 23//30 24//30 30//30
f 24//31 22//31 28//31
f 32//32 33//32 27//32
f 27//33 33//33 31//33
f 29//34 30//34 36//34
f 30//35 28//35 34//35
f 38//335 39//335 33//335
f 39//37 37//37 31//37
f 41//336 35//336 36//336
f 42//39 36//39 34//39
f 44//40 45//40 39//40
f 45//41 43//41 37//41
f 41//42 42//42 48//42
f 48//43 42//43 40//43
f 50//44 51//44 45//44
f 45//45 51//45 49//45
f 47//46 48//46 54//46
f 48//47 46//47 52//47
f 50//337 56//337 57//337
f 51//49 57//49 55//49
f 53//338 54//338 60//338
f 54//51 52//51 58//51
f 62//52 63//52 57//52
f 63//53 61//53 55//53
f 59//54 60//54 66//54
f 66//55 60//55 58//55
f 68//56 69//56 63//56
f 69//57 67//57 61//57
f 65//58 66//58 72//58
f 66//59 64//59 70//59
f 74//60 75//60 69//60
f 69//61 75//61 73//61
f 71//62 72//62 78//62
f 72//63 70//63 76//63
f 80//339 81//339 75//339
f 81//65 79//65 73//65
f 83//340 77//340 78//340
f 84//67 78//67 76//67
f 2//68 3//68 81//68
f 3//69 1//69 79//69
f 83//70 84//70 6//70
f 6//71 84//71 82//71
f 79//72 1//72 7//72
f 7//72 13//72 19//72
f 19//72 25//72 31//72
f 31//72 37//72 43//72
f 43//72 49//72 55//72
f 55//72 61//72 67//72
f 67//72 73//72 79//72
f 79//72 7//72 19//72
f 19//72 31//72 43//72
f 43//72 55//72 67//72
f 67//72 79//72 19//72
f 86//74 125//74 147//74
f 116//75 139//75 148//75
f 87//76 89//76 155//76
f 109//77 131//77 140//77
f 321//79 314//79 107//79
f 331//80 125//80 86//80
f 105//81 85//81 108//81
f 322//84 117//84 123//84
f 155//85 89//85 91//85
f 138//86 162//86 171//86
f 147//89 170//89 90//89
f 130//90 154//90 163//90
f 91//91 93//91 201//91
f 169//92 161//92 185//92
f 170//95 193//95 92//95
f 153//96 177//96 186//96
f 93//97 95//97 224//97
f 184//98 208//98 217//98
f 193//101 216//101 94//101
f 183//102 176//102 200//102
f 95//103 97//103 247//103
f 207//104 231//104 240//104
f 216//107 239//107 96//107
f 206//108 199//108 223//108
f 238//109 230//109 254//109
f 96//112 239//112 262//112
f 229//113 222//113 246//113
f 97//114 101//114 270//114
f 98//117 262//117 285//117
f 245//118 269//118 278//118
f 270//119 101//119 103//119
f 253//120 277//120 286//120
f 285//122 308//122 104//122
f 268//123 292//123 301//123
f 293//124 103//124 105//124
f 276//125 300//125 309//125
f 104//128 308//128 331//128
f 298//129 291//129 315//129
f 299//130 323//130 332//130
f 110//341 111//341 113//341
f 108//342 112//342 111//342
f 113//343 111//343 112//343
f 114//344 118//344 119//344
f 115//345 120//345 119//345
f 116//346 121//346 119//346
f 117//347 122//347 119//347
f 126//348 127//348 129//348
f 128//349 127//349 126//349
f 125//350 129//350 127//350
f 133//351 134//351 136//351
f 135//352 134//352 133//352
f 132//353 136//353 134//353
f 137//354 141//354 142//354
f 138//355 143//355 142//355
f 139//356 144//356 142//356
f 140//357 145//357 142//357
f 149//358 150//358 152//358
f 147//359 151//359 150//359
f 152//360 150//360 151//360
f 156//361 157//361 159//361
f 158//362 157//362 156//362
f 155//363 159//363 157//363
f 160//364 164//364 165//364
f 161//365 166//365 165//365
f 162//366 167//366 165//366
f 163//367 168//367 165//367
f 172//368 173//368 175//368
f 170//369 174//369 173//369
f 175//370 173//370 174//370
f 179//371 180//371 182//371
f 181//372 180//372 179//372
f 178//373 182//373 180//373
f 183//374 187//374 188//374
f 184//375 189//375 188//375
f 185//376 190//376 188//376
f 186//377 191//377 188//377
f 195//378 196//378 198//378
f 193//379 197//379 196//379
f 198//380 196//380 197//380
f 202//381 203//381 205//381
f 204//382 203//382 202//382
f 201//383 205//383 203//383
f 206//384 210//384 211//384
f 207//385 212//385 211//385
f 208//386 213//386 211//386
f 209//387 214//387 211//387
f 218//388 219//388 221//388
f 216//389 220//389 219//389
f 221//390 219//390 220//390
f 225//391 226//391 228//391
f 227//392 226//392 225//392
f 224//393 228//393 226//393
f 229//394 233//394 234//394
f 230//395 235//395 234//395
f 231//396 236//396 234//396
f 232//397 237//397 234//397
f 241//398 242//398 244//398
f 239//399 243//399 242//399
f 244//400 242//400 243//400
f 248//401 249//401 251//401
f 250//402 249//402 248//402
f 247//403 251//403 249//403
f 252//404 256//404 257//404
f 253//405 258//405 257//405
f 254//406 259//406 257//406
f 255//407 260//407 257//407
f 264//408 265//408 267//408
f 262//409 266//409 265//409
f 267//410 265//410 266//410
f 271//411 272//411 274//411
f 273//412 272//412 271//412
f 270//413 274//413 272//413
f 275//414 279//414 280//414
f 276//415 281//415 280//415
f 277//416 282//416 280//416
f 278//417 283//417 280//417
f 287//418 288//418 290//418
f 285//419 289//419 288//419
f 290//420 288//420 289//420
f 294//421 295//421 297//421
f 296//422 295//422 294//422
f 293//423 297//423 295//423
f 298//424 302//424 303//424
f 299//425 304//425 303//425
f 300//426 305//426 303//426
f 301//427 306//427 303//427
f 310//428 311//428 313//428
f 308//429 312//429 311//429
f 313//430 311//430 312//430
f 317//431 318//431 320//431
f 319//432 318//432 317//432
f 316//433 320//433 318//433
f 321//434 325//434 326//434
f 322//435 327//435 326//435
f 323//436 328//436 326//436
f 324//437 329//437 326//437
f 333//438 334//438 336//438
f 331//439 335//439 334//439
f 336//440 334//440 335//440
f 109//232 115//232 118//232
f 113//233 118//233 114//233
f 116//234 124//234 126//234
f 126//235 123//235 117//235
f 137//236 145//236 133//236
f 133//237 145//237 140//237
f 146//238 152//238 143//238
f 152//239 148//239 139//239
f 131//240 109//240 112//240
f 112//241 108//241 132//241
f 148//242 151//242 128//242
f 128//243 151//243 147//243
f 139//244 116//244 120//244
f 120//245 115//245 140//245
f 160//441 168//441 156//441
f 156//442 168//442 163//442
f 169//248 175//248 166//248
f 175//443 171//443 162//443
f 146//250 171//250 174//250
f 174//251 170//251 147//251
f 138//444 141//444 167//444
f 141//445 137//445 163//445
f 155//254 158//254 136//254
f 158//255 154//255 130//255
f 183//256 191//256 179//256
f 179//257 191//257 186//257
f 184//258 192//258 198//258
f 198//259 194//259 185//259
f 169//260 194//260 197//260
f 197//261 193//261 170//261
f 161//262 164//262 190//262
f 190//263 164//263 160//263
f 178//264 181//264 159//264
f 181//265 177//265 153//265
f 206//266 214//266 202//266
f 202//267 214//267 209//267
f 215//268 221//268 212//268
f 221//269 217//269 208//269
f 217//270 220//270 195//270
f 195//446 220//446 216//446
f 184//272 187//272 213//272
f 187//273 183//273 209//273
f 178//447 201//447 204//447
f 182//275 204//275 200//275
f 229//276 237//276 225//276
f 225//277 237//277 232//277
f 230//278 238//278 244//278
f 244//279 240//279 231//279
f 240//280 243//280 218//280
f 218//281 243//281 239//281
f 207//282 210//282 236//282
f 236//283 210//283 206//283
f 224//284 227//284 205//284
f 205//285 227//285 223//285
f 252//448 260//448 248//448
f 248//449 260//449 255//449
f 261//450 267//450 258//450
f 267//451 263//451 254//451
f 254//290 230//290 233//290
f 233//291 229//291 255//291
f 224//292 247//292 250//292
f 228//293 250//293 246//293
f 239//294 241//294 266//294
f 241//295 238//295 263//295
f 275//296 283//296 271//296
f 271//297 283//297 278//297
f 276//298 284//298 290//298
f 290//452 286//452 277//452
f 285//300 262//300 264//300
f 264//301 261//301 286//301
f 278//302 282//302 256//302
f 282//303 277//303 253//303
f 245//304 251//304 273//304
f 251//305 247//305 270//305
f 298//306 306//306 294//306
f 294//307 306//307 301//307
f 299//308 307//308 313//308
f 313//309 309//309 300//309
f 285//310 287//310 312//310
f 312//311 287//311 284//311
f 275//312 301//312 305//312
f 279//313 305//313 300//313
f 268//314 274//314 296//314
f 296//315 274//315 270//315
f 321//316 329//316 317//316
f 317//317 329//317 324//317
f 330//318 336//318 327//318
f 336//319 332//319 323//319
f 308//320 310//320 335//320
f 310//321 307//321 332//321
f 298//322 324//322 328//322
f 328//323 323//323 299//323
f 315//324 291//324 297//324
f 297//453 293//453 316//453
f 331//454 333//454 129//454
f 333//327 330//327 123//327
f 114//328 122//328 325//328
f 122//329 117//329 322//329
f 107//330 314//330 320//330
f 320//455 316//455 108//455
f 85//332 87//332 132//332
