# Blender 4.0.2
# www.blender.org
o Elevator_Cryer74
v 0.524362 1.052040 0.932010
v 0.524652 1.052801 0.931735
v 0.524347 1.052462 0.931818
v 0.536362 1.058040 0.932010
v 0.535579 1.058264 0.931735
v 0.536033 1.058305 0.931818
v 0.524821 1.051121 0.930761
v 0.525189 1.051726 0.930274
v 0.524861 1.051435 0.930421
v 0.536821 1.057121 0.930761
v 0.536116 1.057190 0.930274
v 0.536546 1.057277 0.930421
v 0.525477 1.049809 0.930081
v 0.525957 1.050191 0.929479
v 0.525595 1.049967 0.929661
v 0.537477 1.055809 0.930081
v 0.536883 1.055655 0.929479
v 0.537280 1.055810 0.929661
v 0.526201 1.048362 0.930105
v 0.526802 1.048500 0.929507
v 0.526403 1.048350 0.929688
v 0.538201 1.054362 0.930105
v 0.537729 1.053963 0.929507
v 0.538089 1.054193 0.929688
v 0.526848 1.047068 0.930828
v 0.527559 1.046987 0.930353
v 0.527127 1.046903 0.930497
v 0.538848 1.053068 0.930828
v 0.538486 1.052450 0.930353
v 0.538812 1.052746 0.930497
v 0.527290 1.046183 0.932107
v 0.528077 1.045952 0.931849
v 0.527621 1.045913 0.931927
v 0.539290 1.052183 0.932107
v 0.539003 1.051415 0.931849
v 0.539307 1.051756 0.931927
v 0.527441 1.045882 0.933690
v 0.528253 1.045600 0.933699
v 0.527790 1.045577 0.933696
v 0.539441 1.051882 0.933690
v 0.539179 1.051063 0.933699
v 0.539475 1.051420 0.933696
v 0.527269 1.046225 0.935261
v 0.528052 1.046001 0.935536
v 0.527598 1.045960 0.935453
v 0.539269 1.052225 0.935261
v 0.538979 1.051464 0.935536
v 0.539284 1.051803 0.935453
v 0.526810 1.047143 0.936511
v 0.527515 1.047075 0.936997
v 0.527084 1.046987 0.936850
v 0.538810 1.053144 0.936511
v 0.538442 1.052538 0.936997
v 0.538770 1.052830 0.936850
v 0.526154 1.048456 0.937191
v 0.526747 1.048610 0.937793
v 0.526351 1.048455 0.937610
v 0.538154 1.054456 0.937191
v 0.537674 1.054073 0.937793
v 0.538036 1.054298 0.937610
v 0.525430 1.049903 0.937167
v 0.525902 1.050301 0.937765
v 0.525542 1.050072 0.937583
v 0.537430 1.055903 0.937167
v 0.536828 1.055765 0.937765
v 0.537228 1.055915 0.937583
v 0.524783 1.051197 0.936443
v 0.525145 1.051815 0.936919
v 0.524819 1.051519 0.936775
v 0.536783 1.057197 0.936443
v 0.536072 1.057278 0.936919
v 0.536504 1.057362 0.936775
v 0.524341 1.052082 0.935164
v 0.524628 1.052850 0.935423
v 0.524324 1.052508 0.935344
v 0.536341 1.058082 0.935164
v 0.535554 1.058313 0.935423
v 0.536009 1.058351 0.935344
v 0.524190 1.052383 0.933582
v 0.524452 1.053202 0.933572
v 0.524156 1.052845 0.933575
v 0.536190 1.058383 0.933582
v 0.535378 1.058665 0.933572
v 0.535841 1.058688 0.933575
v 0.435815 1.053517 0.933636
v 0.436415 1.054132 0.933636
v 0.435991 1.053946 0.933636
v 0.525815 1.053517 0.933636
v 0.525215 1.054132 0.933636
v 0.525640 1.053946 0.933636
v 0.435815 1.053083 0.931733
v 0.436415 1.053637 0.931466
v 0.435991 1.053469 0.931547
v 0.525815 1.053083 0.931733
v 0.525215 1.053637 0.931466
v 0.525640 1.053469 0.931547
v 0.435815 1.051866 0.930208
v 0.436415 1.052250 0.929726
v 0.435991 1.052133 0.929872
v 0.525815 1.051866 0.930208
v 0.525215 1.052250 0.929726
v 0.525640 1.052133 0.929872
v 0.435815 1.050108 0.929361
v 0.436415 1.050245 0.928761
v 0.435991 1.050203 0.928943
v 0.525815 1.050108 0.929361
v 0.525215 1.050245 0.928761
v 0.525640 1.050203 0.928943
v 0.435815 1.048157 0.929361
v 0.436415 1.048020 0.928761
v 0.435991 1.048061 0.928943
v 0.525815 1.048157 0.929361
v 0.525215 1.048020 0.928761
v 0.525640 1.048061 0.928943
v 0.435815 1.046399 0.930208
v 0.436415 1.046015 0.929726
v 0.435991 1.046131 0.929872
v 0.525815 1.046399 0.930208
v 0.525215 1.046015 0.929726
v 0.525640 1.046131 0.929872
v 0.435815 1.045182 0.931733
v 0.436415 1.044627 0.931466
v 0.435991 1.044796 0.931547
v 0.525815 1.045182 0.931733
v 0.525215 1.044627 0.931466
v 0.525640 1.044796 0.931547
v 0.435815 1.044748 0.933636
v 0.436415 1.044132 0.933636
v 0.435991 1.044319 0.933636
v 0.525815 1.044748 0.933636
v 0.525215 1.044132 0.933636
v 0.525640 1.044319 0.933636
v 0.435815 1.045182 0.935538
v 0.436415 1.044627 0.935805
v 0.435991 1.044796 0.935724
v 0.525815 1.045182 0.935538
v 0.525215 1.044627 0.935805
v 0.525640 1.044796 0.935724
v 0.435815 1.046399 0.937064
v 0.436415 1.046015 0.937545
v 0.435991 1.046131 0.937399
v 0.525815 1.046399 0.937064
v 0.525215 1.046015 0.937545
v 0.525640 1.046131 0.937399
v 0.435815 1.048157 0.937910
v 0.436415 1.048020 0.938510
v 0.435991 1.048061 0.938328
v 0.525815 1.048157 0.937910
v 0.525215 1.048020 0.938510
v 0.525640 1.048061 0.938328
v 0.435815 1.050108 0.937910
v 0.436415 1.050245 0.938510
v 0.435991 1.050203 0.938328
v 0.525815 1.050108 0.937910
v 0.525215 1.050245 0.938510
v 0.525640 1.050203 0.938328
v 0.435815 1.051866 0.937064
v 0.436415 1.052250 0.937545
v 0.435991 1.052133 0.937399
v 0.525815 1.051866 0.937064
v 0.525215 1.052250 0.937545
v 0.525640 1.052133 0.937399
v 0.435815 1.053083 0.935538
v 0.436415 1.053637 0.935805
v 0.435991 1.053469 0.935724
v 0.525815 1.053083 0.935538
v 0.525215 1.053637 0.935805
v 0.525640 1.053469 0.935724
v 0.537815 1.055132 0.938136
v 0.537815 1.055132 0.929136
v 0.539393 1.057304 0.937098
v 0.538781 1.056461 0.937695
v 0.539106 1.056909 0.937453
v 0.540460 1.057798 0.935886
v 0.539534 1.058471 0.935886
v 0.539857 1.057942 0.936310
v 0.540042 1.058197 0.935886
v 0.540814 1.058286 0.933636
v 0.539888 1.058959 0.933636
v 0.540393 1.058681 0.933636
v 0.539534 1.058471 0.931386
v 0.540460 1.057798 0.931386
v 0.539857 1.057942 0.930961
v 0.540042 1.058197 0.931386
v 0.538781 1.056461 0.929576
v 0.539393 1.057304 0.930173
v 0.539106 1.056909 0.929818
v 0.539378 1.055640 0.937695
v 0.540369 1.055962 0.937098
v 0.539904 1.055811 0.937453
v 0.541522 1.055735 0.935886
v 0.541168 1.056824 0.935886
v 0.541118 1.056206 0.936310
v 0.541418 1.056303 0.935886
v 0.542095 1.055921 0.933636
v 0.541741 1.057010 0.933636
v 0.541987 1.056488 0.933636
v 0.541168 1.056824 0.931386
v 0.541522 1.055735 0.931386
v 0.541118 1.056206 0.930961
v 0.541418 1.056303 0.931386
v 0.540369 1.055962 0.930173
v 0.539378 1.055640 0.929576
v 0.539904 1.055811 0.929818
v 0.539378 1.054625 0.937695
v 0.540369 1.054303 0.937098
v 0.539904 1.054454 0.937453
v 0.541168 1.053441 0.935886
v 0.541522 1.054530 0.935886
v 0.541118 1.054059 0.936310
v 0.541418 1.053962 0.935886
v 0.541741 1.053255 0.933636
v 0.542095 1.054344 0.933636
v 0.541987 1.053777 0.933636
v 0.541522 1.054530 0.931386
v 0.541168 1.053441 0.931386
v 0.541118 1.054059 0.930961
v 0.541418 1.053962 0.931386
v 0.540369 1.054303 0.930173
v 0.539378 1.054625 0.929576
v 0.539904 1.054454 0.929818
v 0.538781 1.053803 0.937695
v 0.539393 1.052960 0.937098
v 0.539106 1.053356 0.937453
v 0.539534 1.051794 0.935886
v 0.540460 1.052467 0.935886
v 0.539857 1.052323 0.936310
v 0.540042 1.052068 0.935886
v 0.539888 1.051306 0.933636
v 0.540814 1.051979 0.933636
v 0.540393 1.051584 0.933636
v 0.540460 1.052467 0.931386
v 0.539534 1.051794 0.931386
v 0.539857 1.052323 0.930961
v 0.540042 1.052068 0.931386
v 0.539393 1.052960 0.930173
v 0.538781 1.053803 0.929576
v 0.539106 1.053356 0.929818
v 0.537815 1.053490 0.937695
v 0.537815 1.052448 0.937098
v 0.537815 1.052936 0.937453
v 0.537243 1.051421 0.935886
v 0.538388 1.051421 0.935886
v 0.537815 1.051660 0.936310
v 0.537815 1.051344 0.935886
v 0.537243 1.050818 0.933636
v 0.538388 1.050818 0.933636
v 0.537815 1.050747 0.933636
v 0.538388 1.051421 0.931386
v 0.537243 1.051421 0.931386
v 0.537815 1.051660 0.930961
v 0.537815 1.051344 0.931386
v 0.537815 1.052448 0.930173
v 0.537815 1.053490 0.929576
v 0.537815 1.052936 0.929818
v 0.536850 1.053803 0.937695
v 0.536237 1.052960 0.937098
v 0.536525 1.053356 0.937453
v 0.535171 1.052467 0.935886
v 0.536097 1.051794 0.935886
v 0.535774 1.052323 0.936310
v 0.535589 1.052068 0.935886
v 0.534817 1.051979 0.933636
v 0.535743 1.051306 0.933636
v 0.535237 1.051584 0.933636
v 0.536097 1.051794 0.931386
v 0.535171 1.052467 0.931386
v 0.535774 1.052323 0.930961
v 0.535589 1.052068 0.931386
v 0.536237 1.052960 0.930173
v 0.536850 1.053803 0.929576
v 0.536525 1.053356 0.929818
v 0.536253 1.054625 0.937695
v 0.535262 1.054303 0.937098
v 0.535727 1.054454 0.937453
v 0.534109 1.054530 0.935886
v 0.534463 1.053441 0.935886
v 0.534513 1.054059 0.936310
v 0.534213 1.053962 0.935886
v 0.533536 1.054344 0.933636
v 0.533889 1.053255 0.933636
v 0.533644 1.053777 0.933636
v 0.534463 1.053441 0.931386
v 0.534109 1.054530 0.931386
v 0.534513 1.054059 0.930961
v 0.534213 1.053962 0.931386
v 0.535262 1.054303 0.930173
v 0.536253 1.054625 0.929576
v 0.535727 1.054454 0.929818
v 0.536253 1.055640 0.937695
v 0.535262 1.055962 0.937098
v 0.535727 1.055811 0.937453
v 0.534463 1.056824 0.935886
v 0.534109 1.055735 0.935886
v 0.534513 1.056206 0.936310
v 0.534213 1.056303 0.935886
v 0.533889 1.057010 0.933636
v 0.533536 1.055921 0.933636
v 0.533644 1.056488 0.933636
v 0.534109 1.055735 0.931386
v 0.534463 1.056824 0.931386
v 0.534513 1.056206 0.930961
v 0.534213 1.056303 0.931386
v 0.535262 1.055962 0.930173
v 0.536253 1.055640 0.929576
v 0.535727 1.055811 0.929818
v 0.536850 1.056461 0.937695
v 0.536237 1.057304 0.937098
v 0.536525 1.056909 0.937453
v 0.536097 1.058471 0.935886
v 0.535171 1.057798 0.935886
v 0.535774 1.057942 0.936310
v 0.535589 1.058197 0.935886
v 0.535743 1.058959 0.933636
v 0.534817 1.058286 0.933636
v 0.535237 1.058681 0.933636
v 0.535171 1.057798 0.931386
v 0.536097 1.058471 0.931386
v 0.535774 1.057942 0.930961
v 0.535589 1.058197 0.931386
v 0.536237 1.057304 0.930173
v 0.536850 1.056461 0.929576
v 0.536525 1.056909 0.929818
v 0.537815 1.056775 0.937695
v 0.537815 1.057817 0.937098
v 0.537815 1.057328 0.937453
v 0.538388 1.058843 0.935886
v 0.537243 1.058843 0.935886
v 0.537815 1.058605 0.936310
v 0.537815 1.058921 0.935886
v 0.538388 1.059446 0.933636
v 0.537243 1.059446 0.933636
v 0.537815 1.059518 0.933636
v 0.537243 1.058843 0.931386
v 0.538388 1.058843 0.931386
v 0.537815 1.058605 0.930961
v 0.537815 1.058921 0.931386
v 0.537815 1.057817 0.930173
v 0.537815 1.056775 0.929576
v 0.537815 1.057328 0.929818
vn -0.4345 0.8689 -0.2370
vn 0.0066 -0.0133 -0.9999
vn 0.2000 -0.4000 -0.8944
vn 0.3537 -0.7075 -0.6118
vn 0.4374 -0.8749 -0.2080
vn 0.4345 -0.8689 0.2370
vn 0.3455 -0.6909 0.6350
vn 0.1880 -0.3761 0.9073
vn -0.0066 0.0133 0.9999
vn -0.2000 0.4000 0.8944
vn -0.3537 0.7075 0.6118
vn -0.4374 0.8749 0.2080
vn -0.1880 0.3761 -0.9073
vn 0.8944 0.4472 -0.0000
vn -0.3455 0.6909 -0.6350
vn -0.6700 0.4588 -0.5837
vn -0.9584 -0.1446 -0.2461
vn 0.0349 0.8113 -0.5837
vn 0.6907 0.6800 -0.2461
vn -0.5253 0.1694 -0.8339
vn -0.8974 -0.2666 -0.3516
vn 0.1796 0.5219 -0.8339
vn 0.7517 0.5580 -0.3516
vn -0.3463 -0.1884 -0.9190
vn -0.8220 -0.4174 -0.3874
vn 0.3585 0.1640 -0.9190
vn 0.8271 0.4071 -0.3874
vn -0.1686 -0.5439 -0.8221
vn -0.7471 -0.5673 -0.3466
vn 0.5363 -0.1914 -0.8221
vn 0.9020 0.2573 -0.3466
vn -0.0273 -0.8265 -0.5623
vn -0.6875 -0.6864 -0.2371
vn 0.6776 -0.4740 -0.5623
vn 0.9616 0.1381 -0.2371
vn 0.0496 -0.9803 -0.1912
vn -0.6551 -0.7513 -0.0806
vn 0.7545 -0.6279 -0.1912
vn 0.9940 0.0733 -0.0806
vn 0.0469 -0.9749 0.2178
vn -0.6562 -0.7490 0.0918
vn 0.7518 -0.6224 0.2178
vn 0.9929 0.0756 0.0918
vn -0.0349 -0.8113 0.5837
vn -0.6907 -0.6800 0.2461
vn 0.6700 -0.4588 0.5837
vn 0.9584 0.1446 0.2461
vn -0.1796 -0.5219 0.8339
vn -0.7517 -0.5580 0.3516
vn 0.5253 -0.1694 0.8339
vn 0.8974 0.2666 0.3516
vn -0.3585 -0.1640 0.9190
vn -0.8271 -0.4071 0.3874
vn 0.3463 0.1884 0.9190
vn 0.8220 0.4174 0.3874
vn -0.5363 0.1914 0.8221
vn -0.9020 -0.2573 0.3466
vn 0.1686 0.5439 0.8221
vn 0.7471 0.5673 0.3466
vn -0.6776 0.4740 0.5623
vn -0.9616 -0.1381 0.2371
vn 0.0273 0.8265 0.5623
vn 0.6875 0.6864 0.2371
vn -0.7545 0.6279 0.1912
vn -0.9940 -0.0733 0.0806
vn -0.0496 0.9803 0.1912
vn 0.6551 0.7513 0.0806
vn -0.7518 0.6224 -0.2178
vn -0.9929 -0.0756 -0.0918
vn -0.0469 0.9749 -0.2178
vn 0.6562 0.7490 -0.0918
vn -0.8944 -0.4472 -0.0000
vn -0.0000 0.9749 0.2225
vn -0.0000 0.4339 -0.9010
vn -0.0000 -0.0000 -1.0000
vn -0.0000 -0.4339 -0.9010
vn -0.0000 -0.7818 -0.6235
vn -0.0000 -0.9749 -0.2225
vn -0.0000 -0.9749 0.2225
vn -0.0000 -0.7818 0.6235
vn -0.0000 -0.4339 0.9010
vn -0.0000 -0.0000 1.0000
vn -0.0000 0.4339 0.9010
vn -0.0000 0.7818 0.6235
vn -0.0000 0.7818 -0.6235
vn 1.0000 -0.0000 -0.0000
vn -0.0000 0.9749 -0.2225
vn -0.3940 0.8961 -0.2045
vn -0.9219 0.3777 -0.0862
vn 0.3940 0.8961 -0.2045
vn 0.9219 0.3778 -0.0862
vn -0.3940 0.7186 -0.5730
vn -0.9219 0.3029 -0.2416
vn 0.3940 0.7186 -0.5730
vn 0.9219 0.3029 -0.2416
vn -0.3940 0.3988 -0.8281
vn -0.9219 0.1681 -0.3491
vn 0.3940 0.3988 -0.8281
vn 0.9219 0.1681 -0.3491
vn -0.3940 -0.0000 -0.9191
vn -0.9219 -0.0000 -0.3874
vn 0.3940 -0.0000 -0.9191
vn 0.9219 -0.0000 -0.3875
vn -0.3940 -0.3988 -0.8281
vn -0.9219 -0.1681 -0.3491
vn 0.3940 -0.3988 -0.8281
vn 0.9219 -0.1681 -0.3491
vn -0.3940 -0.7186 -0.5731
vn -0.9219 -0.3029 -0.2416
vn 0.3940 -0.7186 -0.5730
vn 0.9219 -0.3029 -0.2416
vn -0.3940 -0.8961 -0.2045
vn -0.9219 -0.3777 -0.0862
vn 0.3940 -0.8961 -0.2045
vn 0.9219 -0.3778 -0.0862
vn -0.3940 -0.8961 0.2045
vn -0.9219 -0.3778 0.0862
vn 0.3940 -0.8961 0.2045
vn 0.9219 -0.3778 0.0862
vn -0.3940 -0.7186 0.5730
vn -0.9219 -0.3029 0.2416
vn 0.3940 -0.7186 0.5730
vn 0.9219 -0.3029 0.2416
vn -0.3940 -0.3988 0.8281
vn -0.9219 -0.1681 0.3491
vn 0.3940 -0.3988 0.8281
vn 0.9219 -0.1681 0.3491
vn -0.3940 -0.0000 0.9191
vn -0.9219 -0.0000 0.3875
vn 0.3940 -0.0000 0.9191
vn 0.9219 -0.0000 0.3875
vn -0.3940 0.3988 0.8281
vn -0.9219 0.1681 0.3491
vn 0.3940 0.3988 0.8281
vn 0.9219 0.1681 0.3491
vn -0.3940 0.7186 0.5730
vn -0.9219 0.3029 0.2416
vn 0.3940 0.7186 0.5730
vn 0.9219 0.3029 0.2416
vn -0.3940 0.8960 0.2045
vn -0.9219 0.3778 0.0862
vn 0.3940 0.8961 0.2045
vn 0.9219 0.3778 0.0862
vn -1.0000 -0.0000 -0.0000
vn 0.7246 -0.0000 0.6892
vn 0.5862 0.4259 -0.6892
vn 0.7840 0.5696 0.2469
vn 0.2194 0.1594 -0.9625
vn 0.7840 0.5696 -0.2469
vn 0.2239 0.6892 0.6892
vn 0.2994 0.9216 -0.2469
vn 0.2194 0.1594 0.9625
vn 0.2239 0.6892 -0.6892
vn 0.2994 0.9216 0.2469
vn 0.0838 0.2579 0.9625
vn 0.0838 0.2579 -0.9625
vn 0.2712 -0.0000 0.9625
vn 0.2712 -0.0000 -0.9625
vn 0.9690 -0.0000 -0.2469
vn 0.9690 -0.0000 0.2469
vn 0.5862 -0.4259 0.6892
vn 0.7246 -0.0000 -0.6892
vn 0.2194 -0.1594 -0.9625
vn 0.7840 -0.5696 -0.2469
vn 0.7840 -0.5696 0.2469
vn 0.2239 -0.6892 0.6892
vn 0.5862 -0.4259 -0.6892
vn 0.2194 -0.1594 0.9625
vn 0.0838 -0.2579 -0.9625
vn 0.2994 -0.9216 -0.2469
vn 0.2994 -0.9216 0.2469
vn -0.2239 -0.6892 0.6892
vn 0.2239 -0.6892 -0.6892
vn 0.0838 -0.2579 0.9625
vn -0.0838 -0.2579 -0.9625
vn -0.2994 -0.9216 -0.2469
vn -0.2994 -0.9216 0.2469
vn -0.5862 -0.4259 0.6892
vn -0.2239 -0.6892 -0.6892
vn -0.0838 -0.2579 0.9625
vn -0.2194 -0.1594 -0.9625
vn -0.7840 -0.5696 -0.2469
vn -0.7840 -0.5696 0.2469
vn -0.2712 -0.0000 0.9625
vn -0.5862 -0.4259 -0.6892
vn -0.2194 -0.1594 0.9625
vn -0.9690 -0.0000 -0.2469
vn -0.7246 -0.0000 0.6892
vn -0.5862 0.4259 0.6892
vn -0.7246 -0.0000 -0.6892
vn -0.9690 -0.0000 0.2469
vn -0.2712 -0.0000 -0.9625
vn -0.7840 0.5696 0.2469
vn -0.2239 0.6892 0.6892
vn -0.5862 0.4259 -0.6892
vn -0.2194 0.1594 0.9625
vn -0.2194 0.1594 -0.9625
vn -0.7840 0.5696 -0.2469
vn -0.2239 0.6892 -0.6892
vn -0.0838 0.2579 0.9625
vn -0.0838 0.2579 -0.9625
vn -0.2994 0.9216 -0.2469
vn -0.2994 0.9216 0.2469
vn 0.5559 0.5825 0.5930
vn 0.3822 0.7087 0.5930
vn 0.3822 0.7087 -0.5930
vn 0.5559 0.5825 -0.5930
vn 0.7921 0.1445 0.5930
vn 0.7257 0.3487 0.5930
vn 0.7257 0.3487 -0.5930
vn 0.7921 0.1444 -0.5930
vn 0.7257 -0.3487 0.5930
vn 0.7921 -0.1444 0.5930
vn 0.7921 -0.1444 -0.5930
vn 0.7257 -0.3487 -0.5930
vn 0.3822 -0.7087 0.5930
vn 0.5559 -0.5825 0.5930
vn 0.5559 -0.5825 -0.5930
vn 0.3822 -0.7087 -0.5930
vn -0.1074 -0.7980 0.5930
vn 0.1074 -0.7980 0.5930
vn 0.1074 -0.7980 -0.5930
vn -0.1074 -0.7980 -0.5930
vn -0.5559 -0.5825 0.5930
vn -0.3822 -0.7087 0.5930
vn -0.3822 -0.7087 -0.5930
vn -0.5559 -0.5825 -0.5930
vn -0.7921 -0.1444 0.5930
vn -0.7257 -0.3487 0.5930
vn -0.7257 -0.3487 -0.5930
vn -0.7921 -0.1444 -0.5930
vn -0.7257 0.3487 0.5930
vn -0.7921 0.1444 0.5930
vn -0.7921 0.1444 -0.5930
vn -0.7257 0.3487 -0.5930
vn -0.3822 0.7087 0.5930
vn -0.5559 0.5825 0.5930
vn -0.5559 0.5825 -0.5930
vn -0.3822 0.7087 -0.5930
vn 0.1074 0.7980 0.5930
vn -0.1074 0.7980 0.5930
vn -0.1074 0.7980 -0.5930
vn 0.1074 0.7980 -0.5930
vn 0.6673 0.6992 0.2567
vn 0.4587 0.8507 0.2567
vn 0.6614 0.7054 -0.2549
vn 0.4665 0.8470 -0.2549
vn 0.9508 0.1734 0.2567
vn 0.8711 0.4186 0.2567
vn 0.9497 0.1819 -0.2549
vn 0.8753 0.4111 -0.2549
vn 0.3385 0.2459 0.9083
vn 0.4911 0.3568 0.7946
vn 0.3385 0.2459 -0.9083
vn 0.4911 0.3568 -0.7946
vn 0.8711 -0.4186 0.2567
vn 0.9508 -0.1734 0.2567
vn 0.8753 -0.4111 -0.2549
vn 0.9497 -0.1819 -0.2549
vn 0.4184 -0.0000 0.9083
vn 0.6071 -0.0000 0.7946
vn 0.4184 -0.0000 -0.9083
vn 0.6071 -0.0000 -0.7946
vn 0.4587 -0.8507 0.2567
vn 0.6673 -0.6992 0.2567
vn 0.4665 -0.8470 -0.2549
vn 0.6614 -0.7054 -0.2549
vn 0.3385 -0.2459 -0.9083
vn 0.4911 -0.3568 -0.7946
vn 0.4911 -0.3568 0.7946
vn 0.3385 -0.2459 0.9083
vn -0.1289 -0.9579 0.2567
vn 0.1289 -0.9579 0.2567
vn -0.1205 -0.9594 -0.2549
vn 0.1205 -0.9594 -0.2549
vn 0.1293 -0.3979 -0.9083
vn 0.1876 -0.5774 -0.7946
vn 0.1876 -0.5774 0.7946
vn 0.1293 -0.3979 0.9083
vn -0.6673 -0.6992 0.2567
vn -0.4587 -0.8507 0.2567
vn -0.6614 -0.7054 -0.2549
vn -0.4665 -0.8470 -0.2549
vn -0.1293 -0.3979 -0.9083
vn -0.1876 -0.5774 -0.7946
vn -0.1876 -0.5774 0.7946
vn -0.1293 -0.3979 0.9083
vn -0.9508 -0.1734 0.2567
vn -0.8711 -0.4186 0.2567
vn -0.9497 -0.1819 -0.2549
vn -0.8753 -0.4111 -0.2549
vn -0.3385 -0.2459 -0.9083
vn -0.4911 -0.3568 -0.7946
vn -0.4911 -0.3568 0.7946
vn -0.3385 -0.2459 0.9083
vn -0.8711 0.4186 0.2567
vn -0.9508 0.1734 0.2567
vn -0.8753 0.4111 -0.2549
vn -0.9497 0.1819 -0.2549
vn -0.6071 -0.0000 0.7946
vn -0.4184 -0.0000 0.9083
vn -0.6071 -0.0000 -0.7946
vn -0.4184 -0.0000 -0.9083
vn -0.4587 0.8507 0.2567
vn -0.6673 0.6992 0.2567
vn -0.4665 0.8470 -0.2549
vn -0.6614 0.7054 -0.2549
vn -0.4911 0.3568 0.7946
vn -0.3385 0.2459 0.9083
vn -0.4911 0.3568 -0.7946
vn -0.3385 0.2459 -0.9083
vn 0.1289 0.9579 0.2567
vn -0.1289 0.9579 0.2567
vn 0.1205 0.9594 -0.2549
vn -0.1205 0.9594 -0.2549
vn -0.1876 0.5774 -0.7946
vn -0.1293 0.3979 -0.9083
vn -0.1293 0.3979 0.9083
vn -0.1876 0.5774 0.7946
vn 0.1876 0.5774 -0.7946
vn 0.1293 0.3979 -0.9083
vn 0.1293 0.3979 0.9083
vn 0.1876 0.5774 0.7946
vn 0.5862 0.4259 0.6892
vn -0.9219 0.3778 -0.0862
vn -0.9219 -0.0000 -0.3875
vn -0.3940 -0.7186 -0.5730
vn -0.9219 -0.3778 -0.0862
vn -0.3940 -0.7186 0.5731
vn -0.9219 0.3030 0.2416
vn -0.3940 0.8961 0.2045
vn -0.9219 0.3777 0.0862
vn 0.6614 0.7054 0.2549
vn 0.4665 0.8470 0.2549
vn 0.6673 0.6992 -0.2567
vn 0.4587 0.8507 -0.2567
vn 0.9497 0.1819 0.2549
vn 0.8753 0.4111 0.2549
vn 0.9508 0.1734 -0.2567
vn 0.8711 0.4186 -0.2567
vn 0.8753 -0.4111 0.2549
vn 0.9497 -0.1819 0.2549
vn 0.8711 -0.4186 -0.2567
vn 0.9508 -0.1734 -0.2567
vn 0.4665 -0.8470 0.2549
vn 0.6614 -0.7054 0.2549
vn 0.4587 -0.8507 -0.2567
vn 0.6673 -0.6992 -0.2567
vn -0.1205 -0.9594 0.2549
vn 0.1205 -0.9594 0.2549
vn -0.1289 -0.9579 -0.2567
vn 0.1289 -0.9579 -0.2567
vn -0.6614 -0.7054 0.2549
vn -0.4665 -0.8470 0.2549
vn -0.6673 -0.6992 -0.2567
vn -0.4587 -0.8507 -0.2567
vn -0.9497 -0.1819 0.2549
vn -0.8753 -0.4111 0.2549
vn -0.9508 -0.1734 -0.2567
vn -0.8711 -0.4186 -0.2567
vn -0.8753 0.4111 0.2549
vn -0.9497 0.1819 0.2549
vn -0.8711 0.4186 -0.2567
vn -0.9508 0.1734 -0.2567
vn -0.4665 0.8470 0.2549
vn -0.6614 0.7054 0.2549
vn -0.4587 0.8507 -0.2567
vn -0.6673 0.6992 -0.2567
vn 0.1205 0.9594 0.2549
vn -0.1205 0.9594 0.2549
vn 0.1289 0.9579 -0.2567
vn -0.1289 0.9579 -0.2567
s 0
f 83//1 2//1 80//1
f 17//2 20//2 14//2
f 23//3 26//3 20//3
f 29//4 32//4 26//4
f 35//5 38//5 32//5
f 41//6 44//6 38//6
f 47//7 50//7 44//7
f 53//8 56//8 50//8
f 59//9 62//9 56//9
f 65//10 68//10 62//10
f 71//11 74//11 68//11
f 77//12 80//12 74//12
f 11//13 14//13 8//13
f 76//14 52//14 28//14
f 5//15 8//15 2//15
f 8//16 3//16 2//16
f 9//17 1//17 3//17
f 5//18 12//18 11//18
f 12//19 4//19 10//19
f 14//20 9//20 8//20
f 15//21 7//21 9//21
f 11//22 18//22 17//22
f 12//23 16//23 18//23
f 20//24 15//24 14//24
f 21//25 13//25 15//25
f 23//26 18//26 24//26
f 24//27 16//27 22//27
f 26//28 21//28 20//28
f 27//29 19//29 21//29
f 23//30 30//30 29//30
f 24//31 28//31 30//31
f 26//32 33//32 27//32
f 27//33 31//33 25//33
f 29//34 36//34 35//34
f 30//35 34//35 36//35
f 38//36 33//36 32//36
f 39//37 31//37 33//37
f 35//38 42//38 41//38
f 36//39 40//39 42//39
f 44//40 39//40 38//40
f 39//41 43//41 37//41
f 41//42 48//42 47//42
f 42//43 46//43 48//43
f 50//44 45//44 44//44
f 51//45 43//45 45//45
f 47//46 54//46 53//46
f 54//47 46//47 52//47
f 56//48 51//48 50//48
f 57//49 49//49 51//49
f 53//50 60//50 59//50
f 54//51 58//51 60//51
f 62//52 57//52 56//52
f 63//53 55//53 57//53
f 65//54 60//54 66//54
f 66//55 58//55 64//55
f 68//56 63//56 62//56
f 69//57 61//57 63//57
f 65//58 72//58 71//58
f 66//59 70//59 72//59
f 68//60 75//60 69//60
f 69//61 73//61 67//61
f 71//62 78//62 77//62
f 72//63 76//63 78//63
f 80//64 75//64 74//64
f 81//65 73//65 75//65
f 77//66 84//66 83//66
f 78//67 82//67 84//67
f 2//68 81//68 80//68
f 81//69 1//69 79//69
f 83//70 6//70 5//70
f 84//71 4//71 6//71
f 19//72 43//72 67//72
f 164//73 89//73 86//73
f 101//74 104//74 98//74
f 107//75 110//75 104//75
f 110//76 119//76 116//76
f 119//77 122//77 116//77
f 122//78 131//78 128//78
f 131//79 134//79 128//79
f 137//80 140//80 134//80
f 143//81 146//81 140//81
f 149//82 152//82 146//82
f 152//83 161//83 158//83
f 161//84 164//84 158//84
f 92//85 101//85 98//85
f 160//86 136//86 112//86
f 86//87 95//87 92//87
f 86//88 93//88 87//88
f 93//89 85//89 87//89
f 95//90 90//90 96//90
f 90//91 94//91 96//91
f 92//92 99//92 93//92
f 99//93 91//93 93//93
f 101//94 96//94 102//94
f 102//95 94//95 100//95
f 104//96 99//96 98//96
f 105//97 97//97 99//97
f 107//98 102//98 108//98
f 108//99 100//99 106//99
f 104//100 111//100 105//100
f 105//101 109//101 103//101
f 113//102 108//102 114//102
f 114//103 106//103 112//103
f 110//104 117//104 111//104
f 111//105 115//105 109//105
f 119//106 114//106 120//106
f 114//107 118//107 120//107
f 122//108 117//108 116//108
f 117//109 121//109 115//109
f 125//110 120//110 126//110
f 126//111 118//111 124//111
f 122//112 129//112 123//112
f 129//113 121//113 123//113
f 125//114 132//114 131//114
f 132//115 124//115 130//115
f 134//116 129//116 128//116
f 135//117 127//117 129//117
f 131//118 138//118 137//118
f 138//119 130//119 136//119
f 134//120 141//120 135//120
f 141//121 133//121 135//121
f 137//122 144//122 143//122
f 144//123 136//123 142//123
f 146//124 141//124 140//124
f 147//125 139//125 141//125
f 149//126 144//126 150//126
f 144//127 148//127 150//127
f 146//128 153//128 147//128
f 153//129 145//129 147//129
f 149//130 156//130 155//130
f 150//131 154//131 156//131
f 152//132 159//132 153//132
f 159//133 151//133 153//133
f 155//134 162//134 161//134
f 156//135 160//135 162//135
f 164//136 159//136 158//136
f 165//137 157//137 159//137
f 167//138 162//138 168//138
f 168//139 160//139 166//139
f 86//140 165//140 164//140
f 165//141 85//141 163//141
f 167//142 90//142 89//142
f 90//143 166//143 88//143
f 103//144 127//144 151//144
f 193//145 206//145 209//145
f 183//146 198//146 202//146
f 178//147 192//147 196//147
f 170//148 185//148 203//148
f 178//149 198//149 182//149
f 329//150 171//150 175//150
f 331//151 181//151 335//151
f 172//152 169//152 188//152
f 336//153 181//153 186//153
f 331//154 175//154 179//154
f 324//155 169//155 172//155
f 170//156 339//156 185//156
f 188//157 169//157 205//157
f 170//158 203//158 220//158
f 199//159 213//159 215//159
f 191//160 213//160 195//160
f 210//161 223//161 226//161
f 200//162 215//162 219//162
f 170//163 220//163 237//163
f 212//164 232//164 216//164
f 208//165 230//165 212//165
f 227//166 240//166 243//166
f 217//167 232//167 236//167
f 205//168 169//168 222//168
f 170//169 237//169 254//169
f 229//170 249//170 233//170
f 225//171 247//171 229//171
f 244//172 257//172 260//172
f 234//173 249//173 253//173
f 222//174 169//174 239//174
f 170//175 254//175 271//175
f 246//176 266//176 250//176
f 246//177 260//177 264//177
f 261//178 274//178 277//178
f 251//179 266//179 270//179
f 239//180 169//180 256//180
f 170//181 271//181 288//181
f 263//182 283//182 267//182
f 263//183 277//183 281//183
f 273//184 169//184 290//184
f 268//185 283//185 287//185
f 256//186 169//186 273//186
f 280//187 300//187 284//187
f 278//188 291//188 294//188
f 295//189 308//189 311//189
f 285//190 300//190 304//190
f 276//191 298//191 280//191
f 170//192 288//192 305//192
f 293//193 315//193 297//193
f 312//194 325//194 328//194
f 302//195 317//195 321//195
f 290//196 169//196 307//196
f 170//197 305//197 322//197
f 297//198 317//198 301//198
f 319//199 334//199 338//199
f 307//200 169//200 324//200
f 170//201 322//201 339//201
f 314//202 334//202 318//202
f 314//203 328//203 332//203
f 174//204 177//204 176//204
f 177//205 175//205 176//205
f 181//206 184//206 183//206
f 184//207 182//207 183//207
f 191//208 194//208 193//208
f 194//209 192//209 193//209
f 198//210 201//210 200//210
f 201//211 199//211 200//211
f 208//212 211//212 210//212
f 211//213 209//213 210//213
f 215//214 218//214 217//214
f 218//215 216//215 217//215
f 225//216 228//216 227//216
f 228//217 226//217 227//217
f 232//218 235//218 234//218
f 235//219 233//219 234//219
f 242//220 245//220 244//220
f 245//221 243//221 244//221
f 249//222 252//222 251//222
f 252//223 250//223 251//223
f 259//224 262//224 261//224
f 262//225 260//225 261//225
f 266//226 269//226 268//226
f 269//227 267//227 268//227
f 276//228 279//228 278//228
f 279//229 277//229 278//229
f 283//230 286//230 285//230
f 286//231 284//231 285//231
f 293//232 296//232 295//232
f 296//233 294//233 295//233
f 300//234 303//234 302//234
f 303//235 301//235 302//235
f 310//236 313//236 312//236
f 313//237 311//237 312//237
f 317//238 320//238 319//238
f 320//239 318//239 319//239
f 327//240 330//240 329//240
f 330//241 328//241 329//241
f 334//242 337//242 336//242
f 337//243 335//243 336//243
f 178//244 177//244 174//244
f 177//245 179//245 175//245
f 178//246 184//246 180//246
f 184//247 179//247 180//247
f 195//248 194//248 191//248
f 194//249 196//249 192//249
f 195//250 201//250 197//250
f 201//251 196//251 197//251
f 188//252 173//252 172//252
f 173//253 189//253 171//253
f 203//254 187//254 204//254
f 204//255 186//255 202//255
f 212//256 211//256 208//256
f 211//257 213//257 209//257
f 212//258 218//258 214//258
f 218//259 213//259 214//259
f 205//260 190//260 188//260
f 207//261 189//261 190//261
f 220//262 204//262 221//262
f 204//263 219//263 221//263
f 229//264 228//264 225//264
f 228//265 230//265 226//265
f 229//266 235//266 231//266
f 235//267 230//267 231//267
f 220//268 238//268 237//268
f 221//269 236//269 238//269
f 206//270 224//270 223//270
f 207//271 222//271 224//271
f 246//272 245//272 242//272
f 245//273 247//273 243//273
f 246//274 252//274 248//274
f 252//275 247//275 248//275
f 254//276 238//276 255//276
f 238//277 253//277 255//277
f 223//278 241//278 240//278
f 241//279 222//279 239//279
f 263//280 262//280 259//280
f 262//281 264//281 260//281
f 263//282 269//282 265//282
f 269//283 264//283 265//283
f 254//284 272//284 271//284
f 255//285 270//285 272//285
f 240//286 258//286 257//286
f 258//287 239//287 256//287
f 280//288 279//288 276//288
f 279//289 281//289 277//289
f 280//290 286//290 282//290
f 286//291 281//291 282//291
f 271//292 289//292 288//292
f 272//293 287//293 289//293
f 257//294 275//294 274//294
f 275//295 256//295 273//295
f 297//296 296//296 293//296
f 296//297 298//297 294//297
f 297//298 303//298 299//298
f 303//299 298//299 299//299
f 291//300 275//300 292//300
f 275//301 290//301 292//301
f 304//302 289//302 287//302
f 306//303 288//303 289//303
f 314//304 313//304 310//304
f 313//305 315//305 311//305
f 314//306 320//306 316//306
f 320//307 315//307 316//307
f 308//308 292//308 309//308
f 309//309 290//309 307//309
f 304//310 323//310 306//310
f 306//311 322//311 305//311
f 331//312 330//312 327//312
f 330//313 332//313 328//313
f 331//314 337//314 333//314
f 337//315 332//315 333//315
f 338//316 323//316 321//316
f 340//317 322//317 323//317
f 307//318 326//318 309//318
f 309//319 325//319 308//319
f 338//320 187//320 340//320
f 340//321 185//321 339//321
f 172//322 326//322 324//322
f 326//323 171//323 325//323
f 176//324 189//324 192//324
f 83//1 5//1 2//1
f 17//2 23//2 20//2
f 23//3 29//3 26//3
f 29//4 35//4 32//4
f 35//5 41//5 38//5
f 41//6 47//6 44//6
f 47//7 53//7 50//7
f 53//8 59//8 56//8
f 59//9 65//9 62//9
f 65//10 71//10 68//10
f 71//11 77//11 74//11
f 77//12 83//12 80//12
f 11//13 17//13 14//13
f 16//14 10//14 4//14
f 4//14 82//14 76//14
f 76//14 70//14 64//14
f 64//14 58//14 52//14
f 52//14 46//14 40//14
f 40//14 34//14 28//14
f 28//14 22//14 16//14
f 16//14 4//14 76//14
f 76//14 64//14 52//14
f 52//14 40//14 28//14
f 28//14 16//14 76//14
f 5//15 11//15 8//15
f 8//16 9//16 3//16
f 9//17 7//17 1//17
f 5//18 6//18 12//18
f 12//19 6//19 4//19
f 14//20 15//20 9//20
f 15//21 13//21 7//21
f 11//22 12//22 18//22
f 12//23 10//23 16//23
f 20//24 21//24 15//24
f 21//25 19//25 13//25
f 23//26 17//26 18//26
f 24//27 18//27 16//27
f 26//28 27//28 21//28
f 27//29 25//29 19//29
f 23//30 24//30 30//30
f 24//31 22//31 28//31
f 26//32 32//32 33//32
f 27//33 33//33 31//33
f 29//34 30//34 36//34
f 30//35 28//35 34//35
f 38//36 39//36 33//36
f 39//37 37//37 31//37
f 35//38 36//38 42//38
f 36//39 34//39 40//39
f 44//40 45//40 39//40
f 39//41 45//41 43//41
f 41//42 42//42 48//42
f 42//43 40//43 46//43
f 50//44 51//44 45//44
f 51//45 49//45 43//45
f 47//46 48//46 54//46
f 54//47 48//47 46//47
f 56//48 57//48 51//48
f 57//49 55//49 49//49
f 53//50 54//50 60//50
f 54//51 52//51 58//51
f 62//52 63//52 57//52
f 63//53 61//53 55//53
f 65//54 59//54 60//54
f 66//55 60//55 58//55
f 68//56 69//56 63//56
f 69//57 67//57 61//57
f 65//58 66//58 72//58
f 66//59 64//59 70//59
f 68//60 74//60 75//60
f 69//61 75//61 73//61
f 71//62 72//62 78//62
f 72//63 70//63 76//63
f 80//64 81//64 75//64
f 81//65 79//65 73//65
f 77//66 78//66 84//66
f 78//67 76//67 82//67
f 2//68 3//68 81//68
f 81//69 3//69 1//69
f 83//70 84//70 6//70
f 84//71 82//71 4//71
f 79//72 1//72 7//72
f 7//72 13//72 19//72
f 19//72 25//72 31//72
f 31//72 37//72 43//72
f 43//72 49//72 55//72
f 55//72 61//72 67//72
f 67//72 73//72 79//72
f 79//72 7//72 19//72
f 19//72 31//72 43//72
f 43//72 55//72 67//72
f 67//72 79//72 19//72
f 164//73 167//73 89//73
f 101//74 107//74 104//74
f 107//75 113//75 110//75
f 110//76 113//76 119//76
f 119//77 125//77 122//77
f 122//78 125//78 131//78
f 131//79 137//79 134//79
f 137//80 143//80 140//80
f 143//81 149//81 146//81
f 149//82 155//82 152//82
f 152//83 155//83 161//83
f 161//84 167//84 164//84
f 92//85 95//85 101//85
f 100//86 94//86 88//86
f 88//86 166//86 160//86
f 160//86 154//86 148//86
f 148//86 142//86 136//86
f 136//86 130//86 124//86
f 124//86 118//86 112//86
f 112//86 106//86 100//86
f 100//86 88//86 160//86
f 160//86 148//86 136//86
f 136//86 124//86 112//86
f 112//86 100//86 160//86
f 86//87 89//87 95//87
f 86//88 92//88 93//88
f 93//325 91//325 85//325
f 95//90 89//90 90//90
f 90//91 88//91 94//91
f 92//92 98//92 99//92
f 99//93 97//93 91//93
f 101//94 95//94 96//94
f 102//95 96//95 94//95
f 104//96 105//96 99//96
f 105//97 103//97 97//97
f 107//98 101//98 102//98
f 108//99 102//99 100//99
f 104//100 110//100 111//100
f 105//326 111//326 109//326
f 113//102 107//102 108//102
f 114//103 108//103 106//103
f 110//104 116//104 117//104
f 111//105 117//105 115//105
f 119//106 113//106 114//106
f 114//107 112//107 118//107
f 122//327 123//327 117//327
f 117//109 123//109 121//109
f 125//110 119//110 120//110
f 126//111 120//111 118//111
f 122//112 128//112 129//112
f 129//328 127//328 121//328
f 125//114 126//114 132//114
f 132//115 126//115 124//115
f 134//116 135//116 129//116
f 135//117 133//117 127//117
f 131//118 132//118 138//118
f 138//119 132//119 130//119
f 134//329 140//329 141//329
f 141//121 139//121 133//121
f 137//122 138//122 144//122
f 144//123 138//123 136//123
f 146//124 147//124 141//124
f 147//125 145//125 139//125
f 149//126 143//126 144//126
f 144//127 142//127 148//127
f 146//128 152//128 153//128
f 153//129 151//129 145//129
f 149//130 150//130 156//130
f 150//131 148//131 154//131
f 152//132 158//132 159//132
f 159//133 157//133 151//133
f 155//134 156//134 162//134
f 156//135 154//135 160//135
f 164//136 165//136 159//136
f 165//330 163//330 157//330
f 167//138 161//138 162//138
f 168//139 162//139 160//139
f 86//331 87//331 165//331
f 165//332 87//332 85//332
f 167//142 168//142 90//142
f 90//143 168//143 166//143
f 163//144 85//144 91//144
f 91//144 97//144 103//144
f 103//144 109//144 115//144
f 115//144 121//144 127//144
f 127//144 133//144 139//144
f 139//144 145//144 151//144
f 151//144 157//144 163//144
f 163//144 91//144 103//144
f 103//144 115//144 127//144
f 127//144 139//144 151//144
f 151//144 163//144 103//144
f 209//145 191//145 193//145
f 193//145 189//145 206//145
f 206//145 210//145 209//145
f 202//146 186//146 183//146
f 183//146 182//146 198//146
f 198//146 200//146 202//146
f 178//147 174//147 192//147
f 178//149 196//149 198//149
f 175//150 327//150 329//150
f 329//150 325//150 171//150
f 171//150 176//150 175//150
f 331//151 179//151 181//151
f 186//153 338//153 336//153
f 336//153 335//153 181//153
f 181//153 183//153 186//153
f 331//154 327//154 175//154
f 199//159 195//159 213//159
f 191//160 209//160 213//160
f 226//161 208//161 210//161
f 210//161 206//161 223//161
f 223//161 227//161 226//161
f 219//162 202//162 200//162
f 200//162 199//162 215//162
f 215//162 217//162 219//162
f 212//164 230//164 232//164
f 208//165 226//165 230//165
f 243//166 225//166 227//166
f 227//166 223//166 240//166
f 240//166 244//166 243//166
f 236//167 219//167 217//167
f 217//167 216//167 232//167
f 232//167 234//167 236//167
f 229//170 247//170 249//170
f 225//171 243//171 247//171
f 260//172 242//172 244//172
f 244//172 240//172 257//172
f 257//172 261//172 260//172
f 253//173 236//173 234//173
f 234//173 233//173 249//173
f 249//173 251//173 253//173
f 246//176 264//176 266//176
f 246//177 242//177 260//177
f 277//178 259//178 261//178
f 261//178 257//178 274//178
f 274//178 278//178 277//178
f 270//179 253//179 251//179
f 251//179 250//179 266//179
f 266//179 268//179 270//179
f 263//182 281//182 283//182
f 263//183 259//183 277//183
f 287//185 270//185 268//185
f 268//185 267//185 283//185
f 283//185 285//185 287//185
f 280//187 298//187 300//187
f 294//188 276//188 278//188
f 278//188 274//188 291//188
f 291//188 295//188 294//188
f 311//189 293//189 295//189
f 295//189 291//189 308//189
f 308//189 312//189 311//189
f 304//190 287//190 285//190
f 285//190 284//190 300//190
f 300//190 302//190 304//190
f 276//191 294//191 298//191
f 293//193 311//193 315//193
f 328//194 310//194 312//194
f 312//194 308//194 325//194
f 325//194 329//194 328//194
f 321//195 304//195 302//195
f 302//195 301//195 317//195
f 317//195 319//195 321//195
f 297//198 315//198 317//198
f 338//199 321//199 319//199
f 319//199 318//199 334//199
f 334//199 336//199 338//199
f 314//202 332//202 334//202
f 314//203 310//203 328//203
f 178//333 180//333 177//333
f 177//334 180//334 179//334
f 178//335 182//335 184//335
f 184//336 181//336 179//336
f 195//337 197//337 194//337
f 194//338 197//338 196//338
f 195//339 199//339 201//339
f 201//340 198//340 196//340
f 188//252 190//252 173//252
f 173//253 190//253 189//253
f 203//254 185//254 187//254
f 204//255 187//255 186//255
f 212//341 214//341 211//341
f 211//342 214//342 213//342
f 212//343 216//343 218//343
f 218//344 215//344 213//344
f 205//260 207//260 190//260
f 207//261 206//261 189//261
f 220//262 203//262 204//262
f 204//263 202//263 219//263
f 229//345 231//345 228//345
f 228//346 231//346 230//346
f 229//347 233//347 235//347
f 235//348 232//348 230//348
f 220//268 221//268 238//268
f 221//269 219//269 236//269
f 206//270 207//270 224//270
f 207//271 205//271 222//271
f 246//349 248//349 245//349
f 245//350 248//350 247//350
f 246//351 250//351 252//351
f 252//352 249//352 247//352
f 254//276 237//276 238//276
f 238//277 236//277 253//277
f 223//278 224//278 241//278
f 241//279 224//279 222//279
f 263//353 265//353 262//353
f 262//354 265//354 264//354
f 263//355 267//355 269//355
f 269//356 266//356 264//356
f 254//284 255//284 272//284
f 255//285 253//285 270//285
f 240//286 241//286 258//286
f 258//287 241//287 239//287
f 280//357 282//357 279//357
f 279//358 282//358 281//358
f 280//359 284//359 286//359
f 286//360 283//360 281//360
f 271//292 272//292 289//292
f 272//293 270//293 287//293
f 257//294 258//294 275//294
f 275//295 258//295 256//295
f 297//361 299//361 296//361
f 296//362 299//362 298//362
f 297//363 301//363 303//363
f 303//364 300//364 298//364
f 291//300 274//300 275//300
f 275//301 273//301 290//301
f 304//302 306//302 289//302
f 306//303 305//303 288//303
f 314//365 316//365 313//365
f 313//366 316//366 315//366
f 314//367 318//367 320//367
f 320//368 317//368 315//368
f 308//308 291//308 292//308
f 309//309 292//309 290//309
f 304//310 321//310 323//310
f 306//311 323//311 322//311
f 331//369 333//369 330//369
f 330//370 333//370 332//370
f 331//371 335//371 337//371
f 337//372 334//372 332//372
f 338//316 340//316 323//316
f 340//317 339//317 322//317
f 307//318 324//318 326//318
f 309//319 326//319 325//319
f 338//320 186//320 187//320
f 340//321 187//321 185//321
f 172//322 173//322 326//322
f 326//323 173//323 171//323
f 192//324 174//324 176//324
f 176//324 171//324 189//324
f 189//324 193//324 192//324
