# Blender 4.0.2
# www.blender.org
o Elevator_34S
v 0.779233 1.115007 0.929375
v 0.779833 1.115623 0.929375
v 0.779409 1.115436 0.929375
v 0.874233 1.115007 0.929375
v 0.873633 1.115623 0.929375
v 0.874057 1.115436 0.929375
v 0.779233 1.114573 0.927472
v 0.779833 1.115128 0.927205
v 0.779409 1.114960 0.927286
v 0.874233 1.114573 0.927472
v 0.873633 1.115128 0.927205
v 0.874057 1.114960 0.927286
v 0.779233 1.113357 0.925947
v 0.779833 1.113740 0.925465
v 0.779409 1.113624 0.925611
v 0.874233 1.113357 0.925947
v 0.873633 1.113740 0.925465
v 0.874057 1.113624 0.925611
v 0.779233 1.111598 0.925100
v 0.779833 1.111735 0.924500
v 0.779409 1.111694 0.924682
v 0.874233 1.111598 0.925100
v 0.873633 1.111735 0.924500
v 0.874057 1.111694 0.924682
v 0.779233 1.109647 0.925100
v 0.779833 1.109510 0.924500
v 0.779409 1.109552 0.924682
v 0.874233 1.109647 0.925100
v 0.873633 1.109510 0.924500
v 0.874057 1.109552 0.924682
v 0.779233 1.107889 0.925947
v 0.779833 1.107505 0.925465
v 0.779409 1.107622 0.925611
v 0.874233 1.107889 0.925947
v 0.873633 1.107505 0.925465
v 0.874057 1.107622 0.925611
v 0.779233 1.106673 0.927472
v 0.779833 1.106118 0.927205
v 0.779409 1.106286 0.927286
v 0.874233 1.106673 0.927472
v 0.873633 1.106118 0.927205
v 0.874057 1.106286 0.927286
v 0.779233 1.106238 0.929375
v 0.779833 1.105623 0.929375
v 0.779409 1.105809 0.929375
v 0.874233 1.106238 0.929375
v 0.873633 1.105623 0.929375
v 0.874057 1.105809 0.929375
v 0.779233 1.106673 0.931277
v 0.779833 1.106118 0.931544
v 0.779409 1.106286 0.931463
v 0.874233 1.106673 0.931277
v 0.873633 1.106118 0.931544
v 0.874057 1.106286 0.931463
v 0.779233 1.107889 0.932803
v 0.779833 1.107505 0.933284
v 0.779409 1.107622 0.933138
v 0.874233 1.107889 0.932803
v 0.873633 1.107505 0.933284
v 0.874057 1.107622 0.933138
v 0.779233 1.109647 0.933649
v 0.779833 1.109510 0.934249
v 0.779409 1.109552 0.934067
v 0.874233 1.109647 0.933649
v 0.873633 1.109510 0.934249
v 0.874057 1.109552 0.934067
v 0.779233 1.111598 0.933649
v 0.779833 1.111735 0.934249
v 0.779409 1.111694 0.934067
v 0.874233 1.111598 0.933649
v 0.873633 1.111735 0.934249
v 0.874057 1.111694 0.934067
v 0.779233 1.113357 0.932803
v 0.779833 1.113740 0.933284
v 0.779409 1.113624 0.933138
v 0.874233 1.113357 0.932803
v 0.873633 1.113740 0.933284
v 0.874057 1.113624 0.933138
v 0.779233 1.114573 0.931277
v 0.779833 1.115128 0.931544
v 0.779409 1.114960 0.931463
v 0.874233 1.114573 0.931277
v 0.873633 1.115128 0.931544
v 0.874057 1.114960 0.931463
v 0.876615 1.112629 0.934223
v 0.876615 1.112629 0.926342
v 0.877795 1.111004 0.934223
v 0.877795 1.111004 0.926342
v 0.877795 1.108996 0.934223
v 0.877795 1.108996 0.926342
v 0.876615 1.107371 0.934223
v 0.876615 1.107371 0.926342
v 0.874704 1.106750 0.934223
v 0.874704 1.106750 0.926342
v 0.872794 1.107371 0.934223
v 0.872794 1.107371 0.926342
v 0.871614 1.108996 0.934223
v 0.871614 1.108996 0.926342
v 0.874704 1.110000 0.925732
v 0.874704 1.110000 0.934832
v 0.871614 1.111004 0.934223
v 0.871614 1.111004 0.926342
v 0.872794 1.112629 0.934223
v 0.872794 1.112629 0.926342
v 0.874704 1.113250 0.934223
v 0.874704 1.113250 0.926342
v 0.877566 1.114915 0.931993
v 0.877715 1.114143 0.932913
v 0.878495 1.114240 0.931993
v 0.877658 1.114584 0.932496
v 0.877968 1.114491 0.932384
v 0.878151 1.114226 0.932496
v 0.878070 1.114632 0.932019
v 0.877824 1.115271 0.930846
v 0.878753 1.114596 0.930846
v 0.878753 1.114596 0.929718
v 0.877824 1.115271 0.929718
v 0.878328 1.114988 0.930872
v 0.878385 1.115065 0.930282
v 0.878822 1.114646 0.930282
v 0.878328 1.114988 0.929693
v 0.877850 1.115351 0.930282
v 0.877566 1.114915 0.928571
v 0.878495 1.114240 0.928571
v 0.877715 1.114143 0.927652
v 0.878070 1.114632 0.928545
v 0.877968 1.114491 0.928180
v 0.878151 1.114226 0.928068
v 0.877658 1.114584 0.928068
v 0.880263 1.111202 0.931993
v 0.879909 1.112295 0.931993
v 0.879575 1.111583 0.932913
v 0.880150 1.111769 0.932019
v 0.879984 1.111716 0.932384
v 0.879788 1.111972 0.932496
v 0.879977 1.111392 0.932496
v 0.880681 1.111338 0.930846
v 0.880681 1.111338 0.929718
v 0.880326 1.112430 0.929718
v 0.880326 1.112430 0.930846
v 0.880766 1.111338 0.930282
v 0.880659 1.111935 0.930282
v 0.880568 1.111905 0.929693
v 0.880395 1.112480 0.930282
v 0.880568 1.111905 0.930872
v 0.880263 1.111202 0.928571
v 0.879575 1.111583 0.927652
v 0.879909 1.112295 0.928571
v 0.879977 1.111392 0.928068
v 0.879984 1.111716 0.928180
v 0.879788 1.111972 0.928068
v 0.880150 1.111769 0.928545
v 0.879909 1.107705 0.931993
v 0.880263 1.108798 0.931993
v 0.879575 1.108418 0.932913
v 0.880150 1.108231 0.932019
v 0.879984 1.108284 0.932384
v 0.879977 1.108608 0.932496
v 0.879788 1.108028 0.932496
v 0.880326 1.107570 0.930846
v 0.880326 1.107570 0.929718
v 0.880681 1.108662 0.929718
v 0.880681 1.108662 0.930846
v 0.880395 1.107520 0.930282
v 0.880659 1.108065 0.930282
v 0.880568 1.108095 0.929693
v 0.880766 1.108662 0.930282
v 0.880568 1.108095 0.930872
v 0.879909 1.107705 0.928571
v 0.879575 1.108418 0.927652
v 0.880263 1.108798 0.928571
v 0.879788 1.108028 0.928068
v 0.879984 1.108284 0.928180
v 0.879977 1.108608 0.928068
v 0.880150 1.108231 0.928545
v 0.877566 1.105085 0.931993
v 0.878495 1.105760 0.931993
v 0.877715 1.105857 0.932913
v 0.878070 1.105368 0.932019
v 0.877968 1.105509 0.932384
v 0.878151 1.105775 0.932496
v 0.877658 1.105416 0.932496
v 0.877824 1.104729 0.930846
v 0.877824 1.104729 0.929718
v 0.878753 1.105404 0.929718
v 0.878753 1.105404 0.930846
v 0.877850 1.104649 0.930282
v 0.878385 1.104935 0.930282
v 0.878328 1.105012 0.929693
v 0.878822 1.105354 0.930282
v 0.878328 1.105012 0.930872
v 0.877566 1.105085 0.928571
v 0.877715 1.105857 0.927652
v 0.878495 1.105760 0.928571
v 0.877658 1.105416 0.928068
v 0.877968 1.105509 0.928180
v 0.878151 1.105775 0.928068
v 0.878070 1.105368 0.928545
v 0.874130 1.104342 0.931993
v 0.875279 1.104342 0.931993
v 0.874704 1.104879 0.932913
v 0.874704 1.104274 0.932019
v 0.874704 1.104448 0.932384
v 0.875009 1.104555 0.932496
v 0.874400 1.104555 0.932496
v 0.874130 1.103902 0.930846
v 0.874130 1.103902 0.929718
v 0.875279 1.103902 0.929718
v 0.875279 1.103902 0.930846
v 0.874104 1.103822 0.930282
v 0.874704 1.103739 0.930282
v 0.874704 1.103835 0.929693
v 0.875305 1.103822 0.930282
v 0.874704 1.103835 0.930872
v 0.874130 1.104342 0.928571
v 0.874704 1.104879 0.927652
v 0.875279 1.104342 0.928571
v 0.874400 1.104555 0.928068
v 0.874704 1.104448 0.928180
v 0.875009 1.104555 0.928068
v 0.874704 1.104274 0.928545
v 0.870914 1.105760 0.931993
v 0.871843 1.105085 0.931993
v 0.871694 1.105857 0.932913
v 0.871339 1.105368 0.932019
v 0.871441 1.105509 0.932384
v 0.871751 1.105416 0.932496
v 0.871258 1.105775 0.932496
v 0.870656 1.105404 0.930846
v 0.870656 1.105404 0.929718
v 0.871585 1.104729 0.929718
v 0.871585 1.104729 0.930846
v 0.870587 1.105354 0.930282
v 0.871024 1.104935 0.930282
v 0.871081 1.105012 0.929693
v 0.871559 1.104649 0.930282
v 0.871081 1.105012 0.930872
v 0.870914 1.105760 0.928571
v 0.871694 1.105857 0.927652
v 0.871843 1.105085 0.928571
v 0.871258 1.105775 0.928068
v 0.871441 1.105509 0.928180
v 0.871751 1.105416 0.928068
v 0.871339 1.105368 0.928545
v 0.869146 1.108798 0.931993
v 0.869500 1.107705 0.931993
v 0.869834 1.108418 0.932913
v 0.869259 1.108231 0.932019
v 0.869425 1.108284 0.932384
v 0.869621 1.108028 0.932496
v 0.869432 1.108608 0.932496
v 0.868728 1.108662 0.930846
v 0.868728 1.108662 0.929718
v 0.869083 1.107570 0.929718
v 0.869083 1.107570 0.930846
v 0.868643 1.108662 0.930282
v 0.868750 1.108065 0.930282
v 0.868841 1.108095 0.929693
v 0.869014 1.107520 0.930282
v 0.868841 1.108095 0.930872
v 0.869146 1.108798 0.928571
v 0.869834 1.108418 0.927652
v 0.869500 1.107705 0.928571
v 0.869432 1.108608 0.928068
v 0.869425 1.108284 0.928180
v 0.869621 1.108028 0.928068
v 0.869259 1.108231 0.928545
v 0.869500 1.112295 0.931993
v 0.869146 1.111202 0.931993
v 0.869834 1.111583 0.932913
v 0.869259 1.111769 0.932019
v 0.869425 1.111716 0.932384
v 0.869432 1.111392 0.932496
v 0.869621 1.111972 0.932496
v 0.869083 1.112430 0.930846
v 0.869083 1.112430 0.929718
v 0.868728 1.111338 0.929718
v 0.868728 1.111338 0.930846
v 0.869014 1.112480 0.930282
v 0.868750 1.111935 0.930282
v 0.868841 1.111905 0.929693
v 0.868643 1.111338 0.930282
v 0.868841 1.111905 0.930872
v 0.869500 1.112295 0.928571
v 0.869834 1.111583 0.927652
v 0.869146 1.111202 0.928571
v 0.869621 1.111972 0.928068
v 0.869425 1.111716 0.928180
v 0.869432 1.111392 0.928068
v 0.869259 1.111769 0.928545
v 0.871843 1.114915 0.931993
v 0.870914 1.114240 0.931993
v 0.871694 1.114143 0.932913
v 0.871339 1.114632 0.932019
v 0.871441 1.114491 0.932384
v 0.871258 1.114226 0.932496
v 0.871751 1.114584 0.932496
v 0.871585 1.115271 0.930846
v 0.871585 1.115271 0.929718
v 0.870656 1.114596 0.929718
v 0.870656 1.114596 0.930846
v 0.871559 1.115351 0.930282
v 0.871024 1.115065 0.930282
v 0.871081 1.114988 0.929693
v 0.870587 1.114646 0.930282
v 0.871081 1.114988 0.930872
v 0.871843 1.114915 0.928571
v 0.871694 1.114143 0.927652
v 0.870914 1.114240 0.928571
v 0.871751 1.114584 0.928068
v 0.871441 1.114491 0.928180
v 0.871258 1.114226 0.928068
v 0.871339 1.114632 0.928545
v 0.875279 1.115658 0.931993
v 0.874130 1.115658 0.931993
v 0.874704 1.115121 0.932913
v 0.874704 1.115726 0.932019
v 0.874704 1.115552 0.932384
v 0.874400 1.115445 0.932496
v 0.875009 1.115445 0.932496
v 0.875279 1.116098 0.930846
v 0.875279 1.116098 0.929718
v 0.874130 1.116098 0.929718
v 0.874130 1.116098 0.930846
v 0.875305 1.116179 0.930282
v 0.874704 1.116261 0.930282
v 0.874704 1.116165 0.929693
v 0.874104 1.116179 0.930282
v 0.874704 1.116165 0.930872
v 0.875279 1.115658 0.928571
v 0.874704 1.115121 0.927652
v 0.874130 1.115658 0.928571
v 0.875009 1.115445 0.928068
v 0.874704 1.115552 0.928180
v 0.874400 1.115445 0.928068
v 0.874704 1.115726 0.928545
vn -0.0000 0.9749 0.2225
vn -0.0000 0.4339 -0.9010
vn -0.0000 -0.0000 -1.0000
vn -0.0000 -0.4339 -0.9010
vn -0.0000 -0.7818 -0.6235
vn -0.0000 -0.9749 -0.2225
vn -0.0000 -0.9749 0.2225
vn -0.0000 -0.7818 0.6235
vn -0.0000 -0.4339 0.9010
vn -0.0000 -0.0000 1.0000
vn -0.0000 0.4339 0.9010
vn -0.0000 0.7818 0.6235
vn -0.0000 0.7818 -0.6235
vn 1.0000 -0.0000 -0.0000
vn -0.0000 0.9749 -0.2225
vn -0.3940 0.8961 -0.2045
vn -0.9219 0.3778 -0.0862
vn 0.3940 0.8961 -0.2045
vn 0.9219 0.3778 -0.0862
vn -0.3940 0.7186 -0.5730
vn -0.9219 0.3029 -0.2416
vn 0.3940 0.7186 -0.5730
vn 0.9219 0.3029 -0.2416
vn -0.3940 0.3988 -0.8281
vn -0.9219 0.1681 -0.3491
vn 0.3940 0.3988 -0.8281
vn 0.9219 0.1681 -0.3491
vn -0.3940 -0.0000 -0.9191
vn -0.9219 -0.0000 -0.3875
vn 0.3940 -0.0000 -0.9191
vn 0.9219 -0.0000 -0.3875
vn -0.3940 -0.3988 -0.8281
vn -0.9219 -0.1681 -0.3491
vn 0.3940 -0.3988 -0.8281
vn 0.9219 -0.1681 -0.3491
vn -0.3940 -0.7186 -0.5730
vn -0.9219 -0.3029 -0.2416
vn 0.3940 -0.7186 -0.5730
vn 0.9219 -0.3029 -0.2416
vn -0.3940 -0.8961 -0.2045
vn -0.9219 -0.3778 -0.0862
vn 0.3940 -0.8961 -0.2045
vn 0.9219 -0.3778 -0.0862
vn -0.3940 -0.8961 0.2045
vn -0.9219 -0.3778 0.0862
vn 0.3940 -0.8961 0.2045
vn 0.9219 -0.3778 0.0862
vn -0.3940 -0.7186 0.5730
vn -0.9219 -0.3029 0.2416
vn 0.3940 -0.7186 0.5730
vn 0.9219 -0.3029 0.2416
vn -0.3940 -0.3988 0.8281
vn -0.9219 -0.1681 0.3491
vn 0.3940 -0.3988 0.8281
vn 0.9219 -0.1681 0.3491
vn -0.3940 -0.0000 0.9191
vn -0.9219 -0.0000 0.3875
vn 0.3940 -0.0000 0.9191
vn 0.9219 -0.0000 0.3875
vn -0.3940 0.3988 0.8281
vn -0.9219 0.1681 0.3491
vn 0.3940 0.3988 0.8281
vn 0.9219 0.1681 0.3491
vn -0.3940 0.7186 0.5730
vn -0.9219 0.3029 0.2416
vn 0.3940 0.7186 0.5730
vn 0.9219 0.3029 0.2416
vn -0.3940 0.8961 0.2045
vn -0.9219 0.3778 0.0862
vn 0.3940 0.8961 0.2045
vn 0.9219 0.3778 0.0862
vn -1.0000 -0.0000 -0.0000
vn 0.0598 0.1840 0.9811
vn 0.0598 0.1840 -0.9811
vn 0.4796 0.3484 -0.8054
vn 0.7602 0.5523 -0.3421
vn 0.5928 -0.0000 0.8054
vn 0.7602 0.5523 0.3421
vn 0.1565 0.1137 -0.9811
vn 0.2904 0.8937 -0.3421
vn 0.2904 0.8937 0.3421
vn 0.1832 0.5638 -0.8054
vn 0.1832 0.5638 0.8054
vn 0.1565 0.1137 0.9811
vn 0.5928 -0.0000 -0.8054
vn 0.9397 -0.0000 0.3421
vn 0.4796 -0.3484 0.8054
vn 0.9397 -0.0000 -0.3421
vn 0.1935 -0.0000 0.9811
vn 0.1935 -0.0000 -0.9811
vn 0.7602 -0.5523 0.3421
vn 0.1832 -0.5638 0.8054
vn 0.7602 -0.5523 -0.3421
vn 0.1565 -0.1137 0.9811
vn 0.1565 -0.1137 -0.9811
vn 0.4796 -0.3484 -0.8054
vn -0.1832 -0.5638 0.8054
vn 0.2904 -0.8937 -0.3421
vn 0.0598 -0.1840 0.9811
vn 0.0598 -0.1840 -0.9811
vn 0.1832 -0.5638 -0.8054
vn 0.2904 -0.8937 0.3421
vn -0.4796 -0.3484 0.8054
vn -0.2904 -0.8937 -0.3421
vn -0.0598 -0.1840 0.9811
vn -0.0598 -0.1840 -0.9811
vn -0.1832 -0.5638 -0.8054
vn -0.2904 -0.8937 0.3421
vn -0.5928 -0.0000 0.8054
vn -0.7602 -0.5523 -0.3421
vn -0.1565 -0.1137 0.9811
vn -0.1565 -0.1137 -0.9811
vn -0.4796 -0.3484 -0.8054
vn -0.7602 -0.5523 0.3421
vn -0.4796 0.3484 0.8054
vn -0.9397 -0.0000 -0.3421
vn -0.1935 -0.0000 0.9811
vn -0.1935 -0.0000 -0.9811
vn -0.5928 -0.0000 -0.8054
vn -0.9397 -0.0000 0.3421
vn -0.7602 0.5523 -0.3421
vn -0.1565 0.1137 0.9811
vn -0.1565 0.1137 -0.9811
vn -0.4796 0.3484 -0.8054
vn -0.7602 0.5523 0.3421
vn -0.1832 0.5638 0.8054
vn -0.0598 0.1840 0.9811
vn -0.0598 0.1840 -0.9811
vn -0.1832 0.5638 -0.8054
vn -0.2904 0.8937 0.3421
vn -0.2904 0.8937 -0.3421
vn 0.4212 0.7909 0.4440
vn 0.4230 0.6504 0.6309
vn 0.6220 0.6450 0.4440
vn 0.4667 0.8721 0.1468
vn 0.6746 0.7207 0.1598
vn 0.6852 0.7134 -0.1468
vn 0.4769 0.8643 -0.1598
vn 0.4212 0.7909 -0.4440
vn 0.6220 0.6450 -0.4440
vn 0.4879 0.6033 -0.6309
vn 0.8823 0.1562 0.4440
vn 0.8056 0.3923 0.4440
vn 0.7245 0.2776 0.6309
vn 0.9694 0.1865 0.1598
vn 0.9737 0.1744 -0.1468
vn 0.8939 0.4189 -0.1598
vn 0.8902 0.4312 0.1468
vn 0.8823 0.1562 -0.4440
vn 0.7493 0.2013 -0.6309
vn 0.8056 0.3923 -0.4440
vn 0.8056 -0.3923 0.4440
vn 0.8823 -0.1562 0.4440
vn 0.7493 -0.2013 0.6309
vn 0.8939 -0.4189 0.1598
vn 0.8902 -0.4312 -0.1468
vn 0.9694 -0.1865 -0.1598
vn 0.9737 -0.1744 0.1468
vn 0.8056 -0.3923 -0.4440
vn 0.7245 -0.2776 -0.6309
vn 0.8823 -0.1562 -0.4440
vn 0.4212 -0.7909 0.4440
vn 0.6220 -0.6450 0.4440
vn 0.4879 -0.6033 0.6309
vn 0.4769 -0.8643 0.1598
vn 0.4667 -0.8721 -0.1468
vn 0.6746 -0.7207 -0.1598
vn 0.6852 -0.7134 0.1468
vn 0.4212 -0.7909 -0.4440
vn 0.4230 -0.6504 -0.6309
vn 0.6220 -0.6450 -0.4440
vn -0.1241 -0.8874 0.4440
vn 0.1241 -0.8874 0.4440
vn 0.0401 -0.7748 0.6309
vn -0.1222 -0.9796 0.1598
vn -0.1350 -0.9799 -0.1468
vn 0.1222 -0.9796 -0.1598
vn 0.1350 -0.9799 0.1468
vn -0.1241 -0.8874 -0.4440
vn -0.0401 -0.7748 -0.6309
vn 0.1241 -0.8874 -0.4440
vn -0.6220 -0.6450 0.4440
vn -0.4212 -0.7909 0.4440
vn -0.4230 -0.6504 0.6309
vn -0.6746 -0.7207 0.1598
vn -0.6852 -0.7134 -0.1468
vn -0.4769 -0.8643 -0.1598
vn -0.4667 -0.8721 0.1468
vn -0.6220 -0.6450 -0.4440
vn -0.4879 -0.6033 -0.6309
vn -0.4212 -0.7909 -0.4440
vn -0.8823 -0.1562 0.4440
vn -0.8056 -0.3923 0.4440
vn -0.7245 -0.2776 0.6309
vn -0.9694 -0.1865 0.1598
vn -0.9737 -0.1744 -0.1468
vn -0.8939 -0.4189 -0.1598
vn -0.8902 -0.4312 0.1468
vn -0.8823 -0.1562 -0.4440
vn -0.7493 -0.2013 -0.6309
vn -0.8056 -0.3923 -0.4440
vn -0.8056 0.3923 0.4440
vn -0.8823 0.1562 0.4440
vn -0.7493 0.2013 0.6309
vn -0.8939 0.4189 0.1598
vn -0.8902 0.4312 -0.1468
vn -0.9694 0.1865 -0.1598
vn -0.9737 0.1744 0.1468
vn -0.8056 0.3923 -0.4440
vn -0.7245 0.2776 -0.6309
vn -0.8823 0.1562 -0.4440
vn -0.4212 0.7909 0.4440
vn -0.6220 0.6450 0.4440
vn -0.4879 0.6033 0.6309
vn -0.4769 0.8643 0.1598
vn -0.4667 0.8721 -0.1468
vn -0.6746 0.7207 -0.1598
vn -0.6852 0.7134 0.1468
vn -0.4212 0.7909 -0.4440
vn -0.4230 0.6504 -0.6309
vn -0.6220 0.6450 -0.4440
vn 0.1241 0.8874 0.4440
vn -0.1241 0.8874 0.4440
vn -0.0401 0.7748 0.6309
vn 0.1222 0.9796 0.1598
vn 0.1350 0.9799 -0.1468
vn -0.1222 0.9796 -0.1598
vn -0.1350 0.9799 0.1468
vn 0.1241 0.8874 -0.4440
vn 0.0401 0.7748 -0.6309
vn -0.1241 0.8874 -0.4440
vn 0.6456 0.6764 0.3547
vn 0.4438 0.8230 0.3547
vn 0.6456 0.6764 -0.3547
vn 0.4438 0.8230 -0.3547
vn 0.9198 0.1677 0.3547
vn 0.8427 0.4049 0.3547
vn 0.9198 0.1677 -0.3547
vn 0.8427 0.4050 -0.3547
vn 0.5823 0.4231 -0.6942
vn 0.7028 0.5106 -0.4953
vn 0.8000 0.5812 0.1491
vn 0.8000 0.5812 -0.1491
vn 0.7028 0.5106 0.4953
vn 0.5823 0.4231 0.6942
vn 0.8427 -0.4049 0.3547
vn 0.9198 -0.1677 0.3547
vn 0.8427 -0.4050 -0.3547
vn 0.9198 -0.1677 -0.3547
vn 0.7198 -0.0000 -0.6942
vn 0.8687 -0.0000 -0.4953
vn 0.9888 -0.0000 0.1491
vn 0.9888 -0.0000 -0.1491
vn 0.8687 -0.0000 0.4953
vn 0.7198 -0.0000 0.6942
vn 0.4438 -0.8230 0.3547
vn 0.6456 -0.6764 0.3547
vn 0.4438 -0.8230 -0.3547
vn 0.6455 -0.6764 -0.3547
vn 0.7028 -0.5106 0.4953
vn 0.5823 -0.4231 0.6942
vn 0.7028 -0.5106 -0.4953
vn 0.5823 -0.4231 -0.6942
vn 0.8000 -0.5812 -0.1491
vn 0.8000 -0.5812 0.1491
vn -0.1247 -0.9266 0.3547
vn 0.1247 -0.9266 0.3547
vn -0.1247 -0.9266 -0.3547
vn 0.1247 -0.9266 -0.3547
vn 0.2685 -0.8262 -0.4953
vn 0.2224 -0.6846 -0.6942
vn 0.3056 -0.9404 -0.1491
vn 0.3056 -0.9404 0.1491
vn 0.2224 -0.6846 0.6942
vn 0.2685 -0.8262 0.4953
vn -0.6456 -0.6764 0.3547
vn -0.4438 -0.8230 0.3547
vn -0.6456 -0.6764 -0.3547
vn -0.4438 -0.8230 -0.3547
vn -0.2685 -0.8262 -0.4953
vn -0.2224 -0.6846 -0.6942
vn -0.3056 -0.9404 -0.1491
vn -0.3056 -0.9404 0.1491
vn -0.2224 -0.6846 0.6942
vn -0.2685 -0.8262 0.4953
vn -0.9198 -0.1677 0.3547
vn -0.8427 -0.4049 0.3547
vn -0.9198 -0.1677 -0.3547
vn -0.8427 -0.4050 -0.3547
vn -0.7028 -0.5106 -0.4953
vn -0.5823 -0.4231 -0.6942
vn -0.8000 -0.5812 -0.1491
vn -0.8000 -0.5812 0.1491
vn -0.5823 -0.4231 0.6942
vn -0.7028 -0.5106 0.4953
vn -0.8427 0.4050 0.3547
vn -0.9198 0.1677 0.3547
vn -0.8427 0.4050 -0.3547
vn -0.9198 0.1677 -0.3547
vn -0.8687 -0.0000 -0.4953
vn -0.7198 -0.0000 -0.6942
vn -0.9888 -0.0000 -0.1491
vn -0.9888 -0.0000 0.1491
vn -0.7198 -0.0000 0.6942
vn -0.8687 -0.0000 0.4953
vn -0.4438 0.8230 0.3547
vn -0.6456 0.6764 0.3547
vn -0.4438 0.8230 -0.3547
vn -0.6456 0.6764 -0.3547
vn -0.8000 0.5812 -0.1491
vn -0.8000 0.5812 0.1491
vn -0.5823 0.4231 0.6942
vn -0.7028 0.5106 0.4953
vn -0.5823 0.4231 -0.6942
vn -0.7028 0.5106 -0.4953
vn 0.1247 0.9266 0.3547
vn -0.1247 0.9266 0.3547
vn 0.1247 0.9266 -0.3547
vn -0.1247 0.9266 -0.3547
vn -0.2224 0.6846 -0.6942
vn -0.2685 0.8262 -0.4953
vn -0.3056 0.9404 0.1491
vn -0.3056 0.9404 -0.1491
vn -0.2685 0.8262 0.4953
vn -0.2224 0.6846 0.6942
vn 0.2224 0.6846 -0.6942
vn 0.2685 0.8262 -0.4953
vn 0.3056 0.9404 0.1491
vn 0.3056 0.9404 -0.1491
vn 0.2685 0.8262 0.4953
vn 0.2224 0.6846 0.6942
vn 0.4796 0.3484 0.8054
vn 0.3973 0.8131 0.4256
vn 0.4879 0.6033 0.6309
vn 0.6505 0.6291 0.4256
vn 0.4769 0.8643 0.1598
vn 0.6852 0.7134 0.1468
vn 0.6746 0.7207 -0.1598
vn 0.4667 0.8721 -0.1468
vn 0.3973 0.8131 -0.4256
vn 0.6505 0.6291 -0.4256
vn 0.4230 0.6504 -0.6309
vn 0.8960 0.1266 0.4256
vn 0.7993 0.4243 0.4256
vn 0.7493 0.2013 0.6309
vn 0.9737 0.1744 0.1468
vn 0.9694 0.1865 -0.1598
vn 0.8902 0.4312 -0.1468
vn 0.8939 0.4189 0.1598
vn 0.8960 0.1266 -0.4256
vn 0.7245 0.2776 -0.6309
vn 0.7993 0.4243 -0.4256
vn 0.7993 -0.4243 0.4256
vn 0.8960 -0.1266 0.4256
vn 0.7245 -0.2776 0.6309
vn 0.8902 -0.4312 0.1468
vn 0.8939 -0.4189 -0.1598
vn 0.9737 -0.1744 -0.1468
vn 0.9694 -0.1865 0.1598
vn 0.7993 -0.4243 -0.4256
vn 0.7493 -0.2013 -0.6309
vn 0.8960 -0.1266 -0.4256
vn 0.3973 -0.8131 0.4256
vn 0.6505 -0.6291 0.4256
vn 0.4230 -0.6504 0.6309
vn 0.4667 -0.8721 0.1468
vn 0.4769 -0.8643 -0.1598
vn 0.6852 -0.7134 -0.1468
vn 0.6746 -0.7207 0.1598
vn 0.3973 -0.8131 -0.4256
vn 0.4879 -0.6033 -0.6309
vn 0.6505 -0.6291 -0.4256
vn -0.1565 -0.8913 0.4256
vn 0.1565 -0.8913 0.4256
vn -0.0401 -0.7748 0.6309
vn -0.1350 -0.9799 0.1468
vn -0.1222 -0.9796 -0.1598
vn 0.1350 -0.9799 -0.1468
vn 0.1222 -0.9796 0.1598
vn -0.1565 -0.8913 -0.4256
vn 0.0401 -0.7748 -0.6309
vn 0.1565 -0.8913 -0.4256
vn -0.6505 -0.6291 0.4256
vn -0.3973 -0.8131 0.4256
vn -0.4879 -0.6033 0.6309
vn -0.6852 -0.7134 0.1468
vn -0.6746 -0.7207 -0.1598
vn -0.4667 -0.8721 -0.1468
vn -0.4769 -0.8643 0.1598
vn -0.6505 -0.6291 -0.4256
vn -0.4230 -0.6504 -0.6309
vn -0.3973 -0.8131 -0.4256
vn -0.8960 -0.1266 0.4256
vn -0.7993 -0.4243 0.4256
vn -0.7493 -0.2013 0.6309
vn -0.9737 -0.1744 0.1468
vn -0.9694 -0.1865 -0.1598
vn -0.8902 -0.4312 -0.1468
vn -0.8939 -0.4189 0.1598
vn -0.8960 -0.1266 -0.4256
vn -0.7245 -0.2776 -0.6309
vn -0.7993 -0.4243 -0.4256
vn -0.7993 0.4243 0.4256
vn -0.8960 0.1266 0.4256
vn -0.7245 0.2776 0.6309
vn -0.8902 0.4312 0.1468
vn -0.8939 0.4189 -0.1598
vn -0.9737 0.1744 -0.1468
vn -0.9694 0.1865 0.1598
vn -0.7993 0.4243 -0.4256
vn -0.7493 0.2013 -0.6309
vn -0.8960 0.1266 -0.4256
vn -0.3973 0.8131 0.4256
vn -0.6505 0.6291 0.4256
vn -0.4230 0.6504 0.6309
vn -0.4667 0.8721 0.1468
vn -0.4769 0.8643 -0.1598
vn -0.6852 0.7134 -0.1468
vn -0.6746 0.7207 0.1598
vn -0.3973 0.8131 -0.4256
vn -0.4879 0.6033 -0.6309
vn -0.6505 0.6291 -0.4256
vn 0.1565 0.8913 0.4256
vn -0.1565 0.8913 0.4256
vn 0.0401 0.7748 0.6309
vn 0.1350 0.9799 0.1468
vn 0.1222 0.9796 -0.1598
vn -0.1350 0.9799 -0.1468
vn -0.1222 0.9796 0.1598
vn 0.1565 0.8913 -0.4256
vn -0.0401 0.7748 -0.6309
vn -0.1565 0.8913 -0.4256
vn 0.8427 0.4050 0.3547
vn 0.8427 0.4049 -0.3547
vn 0.8427 -0.4050 0.3547
vn 0.8427 -0.4049 -0.3547
vn 0.6455 -0.6764 0.3547
vn 0.6456 -0.6764 -0.3547
vn -0.8427 -0.4050 0.3547
vn -0.8427 -0.4049 -0.3547
s 0
f 83//1 2//1 80//1
f 17//2 20//2 14//2
f 23//3 26//3 20//3
f 29//4 32//4 26//4
f 35//5 38//5 32//5
f 41//6 44//6 38//6
f 47//7 50//7 44//7
f 53//8 56//8 50//8
f 59//9 62//9 56//9
f 65//10 68//10 62//10
f 71//11 74//11 68//11
f 77//12 80//12 74//12
f 11//13 14//13 8//13
f 76//14 52//14 28//14
f 5//15 8//15 2//15
f 8//16 3//16 2//16
f 3//17 7//17 1//17
f 5//18 12//18 11//18
f 6//19 10//19 12//19
f 14//20 9//20 8//20
f 9//21 13//21 7//21
f 11//22 18//22 17//22
f 12//23 16//23 18//23
f 14//24 21//24 15//24
f 21//25 13//25 15//25
f 17//26 24//26 23//26
f 24//27 16//27 22//27
f 26//28 21//28 20//28
f 27//29 19//29 21//29
f 23//30 30//30 29//30
f 24//31 28//31 30//31
f 32//32 27//32 26//32
f 27//33 31//33 25//33
f 35//34 30//34 36//34
f 30//35 34//35 36//35
f 38//36 33//36 32//36
f 39//37 31//37 33//37
f 35//38 42//38 41//38
f 42//39 34//39 40//39
f 44//40 39//40 38//40
f 45//41 37//41 39//41
f 41//42 48//42 47//42
f 48//43 40//43 46//43
f 50//44 45//44 44//44
f 45//45 49//45 43//45
f 47//46 54//46 53//46
f 48//47 52//47 54//47
f 56//48 51//48 50//48
f 51//49 55//49 49//49
f 53//50 60//50 59//50
f 54//51 58//51 60//51
f 56//52 63//52 57//52
f 63//53 55//53 57//53
f 59//54 66//54 65//54
f 66//55 58//55 64//55
f 68//56 63//56 62//56
f 69//57 61//57 63//57
f 65//58 72//58 71//58
f 66//59 70//59 72//59
f 74//60 69//60 68//60
f 69//61 73//61 67//61
f 77//62 72//62 78//62
f 72//63 76//63 78//63
f 80//64 75//64 74//64
f 81//65 73//65 75//65
f 77//66 84//66 83//66
f 84//67 76//67 82//67
f 2//68 81//68 80//68
f 3//69 79//69 81//69
f 83//70 6//70 5//70
f 6//71 82//71 4//71
f 19//72 43//72 67//72
f 105//73 100//73 85//73
f 99//74 106//74 86//74
f 86//75 147//75 88//75
f 124//76 139//76 148//76
f 132//77 89//77 155//77
f 115//78 131//78 140//78
f 99//79 86//79 88//79
f 322//80 123//80 330//80
f 314//81 114//81 321//81
f 331//82 86//82 106//82
f 316//83 85//83 108//83
f 85//84 100//84 87//84
f 88//85 170//85 90//85
f 137//86 154//86 163//86
f 155//87 91//87 178//87
f 138//88 171//88 146//88
f 87//89 100//89 89//89
f 99//90 88//90 90//90
f 153//91 186//91 160//91
f 178//92 93//92 201//92
f 169//93 185//93 194//93
f 89//94 100//94 91//94
f 99//95 90//95 92//95
f 170//96 92//96 90//96
f 93//97 224//97 201//97
f 184//98 217//98 192//98
f 91//99 100//99 93//99
f 99//100 92//100 94//100
f 92//101 216//101 94//101
f 176//102 209//102 183//102
f 95//103 247//103 224//103
f 215//104 231//104 240//104
f 93//105 100//105 95//105
f 99//106 94//106 96//106
f 94//107 239//107 96//107
f 206//108 223//108 232//108
f 247//109 101//109 270//109
f 230//110 263//110 238//110
f 95//111 100//111 97//111
f 99//112 96//112 98//112
f 96//113 262//113 98//113
f 229//114 246//114 255//114
f 101//115 293//115 270//115
f 253//116 286//116 261//116
f 97//117 100//117 101//117
f 99//118 98//118 102//118
f 262//119 102//119 98//119
f 245//120 278//120 252//120
f 284//121 300//121 309//121
f 101//122 100//122 103//122
f 99//123 102//123 104//123
f 285//124 104//124 102//124
f 268//125 301//125 275//125
f 293//126 105//126 316//126
f 103//127 100//127 105//127
f 99//128 104//128 106//128
f 308//129 106//129 104//129
f 298//130 315//130 324//130
f 307//131 323//131 332//131
f 110//132 113//132 107//132
f 108//133 111//133 110//133
f 113//134 112//134 109//134
f 114//135 119//135 122//135
f 115//136 119//136 118//136
f 116//137 119//137 120//137
f 117//138 119//138 121//138
f 126//139 129//139 123//139
f 128//140 126//140 124//140
f 125//141 127//141 128//141
f 133//142 136//142 130//142
f 135//143 133//143 131//143
f 132//144 134//144 135//144
f 137//145 142//145 145//145
f 138//146 142//146 141//146
f 139//147 142//147 143//147
f 140//148 142//148 144//148
f 149//149 152//149 146//149
f 147//150 150//150 149//150
f 152//151 151//151 148//151
f 156//152 159//152 153//152
f 158//153 156//153 154//153
f 155//154 157//154 158//154
f 160//155 165//155 168//155
f 161//156 165//156 164//156
f 162//157 165//157 166//157
f 163//158 165//158 167//158
f 172//159 175//159 169//159
f 170//160 173//160 172//160
f 175//161 174//161 171//161
f 179//162 182//162 176//162
f 181//163 179//163 177//163
f 178//164 180//164 181//164
f 183//165 188//165 191//165
f 184//166 188//166 187//166
f 185//167 188//167 189//167
f 186//168 188//168 190//168
f 195//169 198//169 192//169
f 193//170 196//170 195//170
f 198//171 197//171 194//171
f 202//172 205//172 199//172
f 204//173 202//173 200//173
f 201//174 203//174 204//174
f 206//175 211//175 214//175
f 207//176 211//176 210//176
f 208//177 211//177 212//177
f 209//178 211//178 213//178
f 218//179 221//179 215//179
f 216//180 219//180 218//180
f 221//181 220//181 217//181
f 225//182 228//182 222//182
f 227//183 225//183 223//183
f 224//184 226//184 227//184
f 229//185 234//185 237//185
f 230//186 234//186 233//186
f 231//187 234//187 235//187
f 232//188 234//188 236//188
f 241//189 244//189 238//189
f 239//190 242//190 241//190
f 244//191 243//191 240//191
f 248//192 251//192 245//192
f 250//193 248//193 246//193
f 247//194 249//194 250//194
f 252//195 257//195 260//195
f 253//196 257//196 256//196
f 254//197 257//197 258//197
f 255//198 257//198 259//198
f 264//199 267//199 261//199
f 262//200 265//200 264//200
f 267//201 266//201 263//201
f 271//202 274//202 268//202
f 273//203 271//203 269//203
f 270//204 272//204 273//204
f 275//205 280//205 283//205
f 276//206 280//206 279//206
f 277//207 280//207 281//207
f 278//208 280//208 282//208
f 287//209 290//209 284//209
f 285//210 288//210 287//210
f 290//211 289//211 286//211
f 294//212 297//212 291//212
f 296//213 294//213 292//213
f 293//214 295//214 296//214
f 298//215 303//215 306//215
f 299//216 303//216 302//216
f 300//217 303//217 304//217
f 301//218 303//218 305//218
f 310//219 313//219 307//219
f 308//220 311//220 310//220
f 313//221 312//221 309//221
f 317//222 320//222 314//222
f 319//223 317//223 315//223
f 316//224 318//224 319//224
f 321//225 326//225 329//225
f 322//226 326//226 325//226
f 323//227 326//227 327//227
f 324//228 326//228 328//228
f 333//229 336//229 330//229
f 331//230 334//230 333//230
f 336//231 335//231 332//231
f 115//232 113//232 109//232
f 118//233 107//233 113//233
f 116//234 126//234 121//234
f 126//235 117//235 121//235
f 130//236 145//236 133//236
f 133//237 140//237 131//237
f 146//238 143//238 138//238
f 152//239 139//239 143//239
f 125//240 151//240 147//240
f 128//241 148//241 151//241
f 140//242 120//242 115//242
f 144//243 116//243 120//243
f 131//244 112//244 135//244
f 112//245 132//245 135//245
f 160//246 156//246 153//246
f 168//247 154//247 156//247
f 161//248 175//248 166//248
f 175//249 162//249 166//249
f 147//250 174//250 170//250
f 149//251 171//251 174//251
f 137//252 167//252 141//252
f 141//253 162//253 138//253
f 130//254 158//254 154//254
f 136//255 155//255 158//255
f 183//256 179//256 176//256
f 179//257 186//257 177//257
f 184//258 198//258 189//258
f 189//259 194//259 185//259
f 153//260 181//260 177//260
f 181//261 155//261 178//261
f 194//262 172//262 169//262
f 197//263 170//263 172//263
f 161//264 190//264 185//264
f 190//265 160//265 186//265
f 206//266 202//266 199//266
f 214//267 200//267 202//267
f 215//268 212//268 207//268
f 221//269 208//269 212//269
f 192//270 220//270 195//270
f 220//271 193//271 195//271
f 208//272 187//272 213//272
f 213//273 183//273 209//273
f 178//274 204//274 182//274
f 204//275 176//275 182//275
f 229//276 225//276 222//276
f 237//277 223//277 225//277
f 238//278 235//278 230//278
f 235//279 240//279 231//279
f 215//280 243//280 218//280
f 243//281 216//281 218//281
f 207//282 236//282 231//282
f 236//283 206//283 232//283
f 201//284 227//284 205//284
f 205//285 223//285 199//285
f 245//286 260//286 248//286
f 260//287 246//287 248//287
f 253//288 267//288 258//288
f 267//289 254//289 258//289
f 238//290 266//290 241//290
f 241//291 262//291 239//291
f 254//292 233//292 259//292
f 233//293 255//293 259//293
f 247//294 228//294 224//294
f 250//295 222//295 228//295
f 275//296 271//296 268//296
f 271//297 278//297 269//297
f 284//298 281//298 276//298
f 281//299 286//299 277//299
f 261//300 289//300 264//300
f 289//301 262//301 264//301
f 277//302 256//302 282//302
f 256//303 278//303 282//303
f 270//304 251//304 247//304
f 273//305 245//305 251//305
f 298//306 294//306 291//306
f 306//307 292//307 294//307
f 307//308 304//308 299//308
f 304//309 309//309 300//309
f 276//310 305//310 300//310
f 279//311 301//311 305//311
f 293//312 274//312 270//312
f 296//313 268//313 274//313
f 308//314 287//314 312//314
f 287//315 309//315 312//315
f 321//316 317//316 314//316
f 317//317 324//317 315//317
f 330//318 327//318 322//318
f 336//319 323//319 327//319
f 331//320 310//320 335//320
f 335//321 307//321 332//321
f 324//322 302//322 298//322
f 328//323 299//323 302//323
f 291//324 319//324 315//324
f 297//325 316//325 319//325
f 125//326 333//326 129//326
f 129//327 330//327 123//327
f 321//328 122//328 325//328
f 325//329 117//329 322//329
f 107//330 320//330 110//330
f 320//331 108//331 110//331
f 85//332 132//332 108//332
f 83//1 5//1 2//1
f 17//2 23//2 20//2
f 23//3 29//3 26//3
f 29//4 35//4 32//4
f 35//5 41//5 38//5
f 41//6 47//6 44//6
f 47//7 53//7 50//7
f 53//8 59//8 56//8
f 59//9 65//9 62//9
f 65//10 71//10 68//10
f 71//11 77//11 74//11
f 77//12 83//12 80//12
f 11//13 17//13 14//13
f 16//14 10//14 4//14
f 4//14 82//14 76//14
f 76//14 70//14 64//14
f 64//14 58//14 52//14
f 52//14 46//14 40//14
f 40//14 34//14 28//14
f 28//14 22//14 16//14
f 16//14 4//14 76//14
f 76//14 64//14 52//14
f 52//14 40//14 28//14
f 28//14 16//14 76//14
f 5//15 11//15 8//15
f 8//16 9//16 3//16
f 3//17 9//17 7//17
f 5//18 6//18 12//18
f 6//19 4//19 10//19
f 14//20 15//20 9//20
f 9//21 15//21 13//21
f 11//22 12//22 18//22
f 12//23 10//23 16//23
f 14//24 20//24 21//24
f 21//25 19//25 13//25
f 17//26 18//26 24//26
f 24//27 18//27 16//27
f 26//28 27//28 21//28
f 27//29 25//29 19//29
f 23//30 24//30 30//30
f 24//31 22//31 28//31
f 32//32 33//32 27//32
f 27//33 33//33 31//33
f 35//34 29//34 30//34
f 30//35 28//35 34//35
f 38//36 39//36 33//36
f 39//37 37//37 31//37
f 35//38 36//38 42//38
f 42//39 36//39 34//39
f 44//40 45//40 39//40
f 45//41 43//41 37//41
f 41//42 42//42 48//42
f 48//43 42//43 40//43
f 50//44 51//44 45//44
f 45//45 51//45 49//45
f 47//46 48//46 54//46
f 48//47 46//47 52//47
f 56//48 57//48 51//48
f 51//49 57//49 55//49
f 53//50 54//50 60//50
f 54//51 52//51 58//51
f 56//52 62//52 63//52
f 63//53 61//53 55//53
f 59//54 60//54 66//54
f 66//55 60//55 58//55
f 68//56 69//56 63//56
f 69//57 67//57 61//57
f 65//58 66//58 72//58
f 66//59 64//59 70//59
f 74//60 75//60 69//60
f 69//61 75//61 73//61
f 77//62 71//62 72//62
f 72//63 70//63 76//63
f 80//64 81//64 75//64
f 81//65 79//65 73//65
f 77//66 78//66 84//66
f 84//67 78//67 76//67
f 2//68 3//68 81//68
f 3//69 1//69 79//69
f 83//70 84//70 6//70
f 6//71 84//71 82//71
f 79//72 1//72 7//72
f 7//72 13//72 19//72
f 19//72 25//72 31//72
f 31//72 37//72 43//72
f 43//72 49//72 55//72
f 55//72 61//72 67//72
f 67//72 73//72 79//72
f 79//72 7//72 19//72
f 19//72 31//72 43//72
f 43//72 55//72 67//72
f 67//72 79//72 19//72
f 86//75 125//75 147//75
f 124//76 116//76 139//76
f 132//77 87//77 89//77
f 115//78 109//78 131//78
f 322//80 117//80 123//80
f 314//81 107//81 114//81
f 331//82 125//82 86//82
f 316//83 105//83 85//83
f 88//85 147//85 170//85
f 137//86 130//86 154//86
f 155//87 89//87 91//87
f 138//88 162//88 171//88
f 153//91 177//91 186//91
f 178//92 91//92 93//92
f 169//93 161//93 185//93
f 170//96 193//96 92//96
f 93//97 95//97 224//97
f 184//98 208//98 217//98
f 92//101 193//101 216//101
f 176//102 200//102 209//102
f 95//103 97//103 247//103
f 215//104 207//104 231//104
f 94//107 216//107 239//107
f 206//108 199//108 223//108
f 247//109 97//109 101//109
f 230//110 254//110 263//110
f 96//113 239//113 262//113
f 229//114 222//114 246//114
f 101//115 103//115 293//115
f 253//116 277//116 286//116
f 262//119 285//119 102//119
f 245//120 269//120 278//120
f 284//121 276//121 300//121
f 285//124 308//124 104//124
f 268//125 292//125 301//125
f 293//126 103//126 105//126
f 308//129 331//129 106//129
f 298//130 291//130 315//130
f 307//131 299//131 323//131
f 110//333 111//333 113//333
f 108//334 112//334 111//334
f 113//335 111//335 112//335
f 114//336 118//336 119//336
f 115//337 120//337 119//337
f 116//338 121//338 119//338
f 117//339 122//339 119//339
f 126//340 127//340 129//340
f 128//341 127//341 126//341
f 125//342 129//342 127//342
f 133//343 134//343 136//343
f 135//344 134//344 133//344
f 132//345 136//345 134//345
f 137//346 141//346 142//346
f 138//347 143//347 142//347
f 139//348 144//348 142//348
f 140//349 145//349 142//349
f 149//350 150//350 152//350
f 147//351 151//351 150//351
f 152//352 150//352 151//352
f 156//353 157//353 159//353
f 158//354 157//354 156//354
f 155//355 159//355 157//355
f 160//356 164//356 165//356
f 161//357 166//357 165//357
f 162//358 167//358 165//358
f 163//359 168//359 165//359
f 172//360 173//360 175//360
f 170//361 174//361 173//361
f 175//362 173//362 174//362
f 179//363 180//363 182//363
f 181//364 180//364 179//364
f 178//365 182//365 180//365
f 183//366 187//366 188//366
f 184//367 189//367 188//367
f 185//368 190//368 188//368
f 186//369 191//369 188//369
f 195//370 196//370 198//370
f 193//371 197//371 196//371
f 198//372 196//372 197//372
f 202//373 203//373 205//373
f 204//374 203//374 202//374
f 201//375 205//375 203//375
f 206//376 210//376 211//376
f 207//377 212//377 211//377
f 208//378 213//378 211//378
f 209//379 214//379 211//379
f 218//380 219//380 221//380
f 216//381 220//381 219//381
f 221//382 219//382 220//382
f 225//383 226//383 228//383
f 227//384 226//384 225//384
f 224//385 228//385 226//385
f 229//386 233//386 234//386
f 230//387 235//387 234//387
f 231//388 236//388 234//388
f 232//389 237//389 234//389
f 241//390 242//390 244//390
f 239//391 243//391 242//391
f 244//392 242//392 243//392
f 248//393 249//393 251//393
f 250//394 249//394 248//394
f 247//395 251//395 249//395
f 252//396 256//396 257//396
f 253//397 258//397 257//397
f 254//398 259//398 257//398
f 255//399 260//399 257//399
f 264//400 265//400 267//400
f 262//401 266//401 265//401
f 267//402 265//402 266//402
f 271//403 272//403 274//403
f 273//404 272//404 271//404
f 270//405 274//405 272//405
f 275//406 279//406 280//406
f 276//407 281//407 280//407
f 277//408 282//408 280//408
f 278//409 283//409 280//409
f 287//410 288//410 290//410
f 285//411 289//411 288//411
f 290//412 288//412 289//412
f 294//413 295//413 297//413
f 296//414 295//414 294//414
f 293//415 297//415 295//415
f 298//416 302//416 303//416
f 299//417 304//417 303//417
f 300//418 305//418 303//418
f 301//419 306//419 303//419
f 310//420 311//420 313//420
f 308//421 312//421 311//421
f 313//422 311//422 312//422
f 317//423 318//423 320//423
f 319//424 318//424 317//424
f 316//425 320//425 318//425
f 321//426 325//426 326//426
f 322//427 327//427 326//427
f 323//428 328//428 326//428
f 324//429 329//429 326//429
f 333//430 334//430 336//430
f 331//431 335//431 334//431
f 336//432 334//432 335//432
f 115//232 118//232 113//232
f 118//233 114//233 107//233
f 116//234 124//234 126//234
f 126//235 123//235 117//235
f 130//236 137//236 145//236
f 133//433 145//433 140//433
f 146//238 152//238 143//238
f 152//434 148//434 139//434
f 125//240 128//240 151//240
f 128//241 124//241 148//241
f 140//242 144//242 120//242
f 144//243 139//243 116//243
f 131//244 109//244 112//244
f 112//245 108//245 132//245
f 160//435 168//435 156//435
f 168//247 163//247 154//247
f 161//436 169//436 175//436
f 175//249 171//249 162//249
f 147//250 149//250 174//250
f 149//251 146//251 171//251
f 137//252 163//252 167//252
f 141//253 167//253 162//253
f 130//254 136//254 158//254
f 136//255 132//255 155//255
f 183//256 191//256 179//256
f 179//437 191//437 186//437
f 184//258 192//258 198//258
f 189//438 198//438 194//438
f 153//260 159//260 181//260
f 181//261 159//261 155//261
f 194//262 197//262 172//262
f 197//263 193//263 170//263
f 161//264 164//264 190//264
f 190//265 164//265 160//265
f 206//266 214//266 202//266
f 214//267 209//267 200//267
f 215//268 221//268 212//268
f 221//269 217//269 208//269
f 192//270 217//270 220//270
f 220//271 216//271 193//271
f 208//272 184//272 187//272
f 213//273 187//273 183//273
f 178//274 201//274 204//274
f 204//275 200//275 176//275
f 229//276 237//276 225//276
f 237//277 232//277 223//277
f 238//278 244//278 235//278
f 235//279 244//279 240//279
f 215//280 240//280 243//280
f 243//281 239//281 216//281
f 207//282 210//282 236//282
f 236//283 210//283 206//283
f 201//284 224//284 227//284
f 205//285 227//285 223//285
f 245//286 252//286 260//286
f 260//439 255//439 246//439
f 253//288 261//288 267//288
f 267//440 263//440 254//440
f 238//290 263//290 266//290
f 241//291 266//291 262//291
f 254//292 230//292 233//292
f 233//293 229//293 255//293
f 247//294 250//294 228//294
f 250//295 246//295 222//295
f 275//296 283//296 271//296
f 271//297 283//297 278//297
f 284//298 290//298 281//298
f 281//299 290//299 286//299
f 261//300 286//300 289//300
f 289//301 285//301 262//301
f 277//302 253//302 256//302
f 256//303 252//303 278//303
f 270//304 273//304 251//304
f 273//305 269//305 245//305
f 298//306 306//306 294//306
f 306//307 301//307 292//307
f 307//308 313//308 304//308
f 304//309 313//309 309//309
f 276//310 279//310 305//310
f 279//311 275//311 301//311
f 293//312 296//312 274//312
f 296//313 292//313 268//313
f 308//314 285//314 287//314
f 287//315 284//315 309//315
f 321//316 329//316 317//316
f 317//317 329//317 324//317
f 330//318 336//318 327//318
f 336//319 332//319 323//319
f 331//320 308//320 310//320
f 335//321 310//321 307//321
f 324//322 328//322 302//322
f 328//323 323//323 299//323
f 291//324 297//324 319//324
f 297//325 293//325 316//325
f 125//326 331//326 333//326
f 129//327 333//327 330//327
f 321//328 114//328 122//328
f 325//329 122//329 117//329
f 107//330 314//330 320//330
f 320//331 316//331 108//331
f 85//332 87//332 132//332
