# Blender 4.0.2
# www.blender.org
o Elevator_Buser
v 0.435000 1.114385 0.929375
v 0.435600 1.115000 0.929375
v 0.435175 1.114813 0.929375
v 0.545000 1.114385 0.929375
v 0.544400 1.115000 0.929375
v 0.544824 1.114813 0.929375
v 0.435000 1.113950 0.927472
v 0.435600 1.114505 0.927205
v 0.435175 1.114337 0.927286
v 0.545000 1.113950 0.927472
v 0.544400 1.114505 0.927205
v 0.544824 1.114337 0.927286
v 0.435000 1.112734 0.925947
v 0.435600 1.113117 0.925465
v 0.435175 1.113001 0.925611
v 0.545000 1.112734 0.925947
v 0.544400 1.113117 0.925465
v 0.544824 1.113001 0.925611
v 0.435000 1.110976 0.925100
v 0.435600 1.111113 0.924500
v 0.435175 1.111071 0.924682
v 0.545000 1.110976 0.925100
v 0.544400 1.111113 0.924500
v 0.544824 1.111071 0.924682
v 0.435000 1.109024 0.925100
v 0.435600 1.108887 0.924500
v 0.435175 1.108929 0.924682
v 0.545000 1.109024 0.925100
v 0.544400 1.108887 0.924500
v 0.544824 1.108929 0.924682
v 0.435000 1.107266 0.925947
v 0.435600 1.106883 0.925465
v 0.435175 1.106999 0.925611
v 0.545000 1.107266 0.925947
v 0.544400 1.106883 0.925465
v 0.544824 1.106999 0.925611
v 0.435000 1.106050 0.927472
v 0.435600 1.105495 0.927205
v 0.435175 1.105663 0.927286
v 0.545000 1.106050 0.927472
v 0.544400 1.105495 0.927205
v 0.544824 1.105663 0.927286
v 0.435000 1.105615 0.929375
v 0.435600 1.105000 0.929375
v 0.435175 1.105187 0.929375
v 0.545000 1.105615 0.929375
v 0.544400 1.105000 0.929375
v 0.544824 1.105187 0.929375
v 0.435000 1.106050 0.931277
v 0.435600 1.105495 0.931544
v 0.435175 1.105663 0.931463
v 0.545000 1.106050 0.931277
v 0.544400 1.105495 0.931544
v 0.544824 1.105663 0.931463
v 0.435000 1.107266 0.932803
v 0.435600 1.106883 0.933284
v 0.435175 1.106999 0.933138
v 0.545000 1.107266 0.932803
v 0.544400 1.106883 0.933284
v 0.544824 1.106999 0.933138
v 0.435000 1.109024 0.933649
v 0.435600 1.108887 0.934249
v 0.435175 1.108929 0.934067
v 0.545000 1.109024 0.933649
v 0.544400 1.108887 0.934249
v 0.544824 1.108929 0.934067
v 0.435000 1.110976 0.933649
v 0.435600 1.111113 0.934249
v 0.435175 1.111071 0.934067
v 0.545000 1.110976 0.933649
v 0.544400 1.111113 0.934249
v 0.544824 1.111071 0.934067
v 0.435000 1.112734 0.932803
v 0.435600 1.113117 0.933284
v 0.435175 1.113001 0.933138
v 0.545000 1.112734 0.932803
v 0.544400 1.113117 0.933284
v 0.544824 1.113001 0.933138
v 0.435000 1.113950 0.931277
v 0.435600 1.114505 0.931544
v 0.435175 1.114337 0.931463
v 0.545000 1.113950 0.931277
v 0.544400 1.114505 0.931544
v 0.544824 1.114337 0.931463
v 0.437939 1.114045 0.933272
v 0.437939 1.114045 0.925477
v 0.439755 1.111545 0.933272
v 0.439755 1.111545 0.925477
v 0.439755 1.108455 0.933272
v 0.439755 1.108455 0.925477
v 0.437939 1.105955 0.933272
v 0.437939 1.105955 0.925477
v 0.435000 1.105000 0.933272
v 0.435000 1.105000 0.925477
v 0.432061 1.105955 0.933272
v 0.432061 1.105955 0.925477
v 0.430244 1.108455 0.933272
v 0.430244 1.108455 0.925477
v 0.435000 1.110000 0.924875
v 0.435000 1.110000 0.933875
v 0.430244 1.111545 0.933272
v 0.430244 1.111545 0.925477
v 0.432061 1.114045 0.933272
v 0.432061 1.114045 0.925477
v 0.435000 1.115000 0.933272
v 0.435000 1.115000 0.925477
v 0.439695 1.117446 0.931102
v 0.439755 1.116545 0.931881
v 0.440630 1.116766 0.931102
v 0.439741 1.117044 0.931547
v 0.440060 1.116966 0.931454
v 0.440234 1.116686 0.931547
v 0.440196 1.117152 0.931137
v 0.440117 1.118026 0.929897
v 0.441052 1.117347 0.929897
v 0.441052 1.117347 0.928852
v 0.440117 1.118026 0.928852
v 0.440618 1.117733 0.929931
v 0.440702 1.117849 0.929375
v 0.441151 1.117419 0.929375
v 0.440618 1.117733 0.928818
v 0.440155 1.118143 0.929375
v 0.439695 1.117446 0.927647
v 0.440630 1.116766 0.927647
v 0.439755 1.116545 0.926868
v 0.440196 1.117152 0.927612
v 0.440060 1.116966 0.927295
v 0.440234 1.116686 0.927202
v 0.439741 1.117044 0.927202
v 0.443532 1.112165 0.931102
v 0.443174 1.113264 0.931102
v 0.442694 1.112500 0.931881
v 0.443408 1.112732 0.931137
v 0.443188 1.112661 0.931454
v 0.442975 1.112912 0.931547
v 0.443164 1.112332 0.931547
v 0.444214 1.112386 0.929897
v 0.444214 1.112386 0.928852
v 0.443857 1.113486 0.928852
v 0.443857 1.113486 0.929897
v 0.444337 1.112386 0.929375
v 0.444226 1.112998 0.929375
v 0.444091 1.112954 0.928818
v 0.443956 1.113558 0.929375
v 0.444091 1.112954 0.929931
v 0.443532 1.112165 0.927647
v 0.442694 1.112500 0.926868
v 0.443174 1.113264 0.927647
v 0.443164 1.112332 0.927202
v 0.443188 1.112661 0.927295
v 0.442975 1.112912 0.927202
v 0.443408 1.112732 0.927612
v 0.443174 1.106736 0.931102
v 0.443532 1.107835 0.931102
v 0.442694 1.107500 0.931881
v 0.443408 1.107268 0.931137
v 0.443188 1.107339 0.931454
v 0.443164 1.107668 0.931547
v 0.442975 1.107088 0.931547
v 0.443857 1.106514 0.929897
v 0.443857 1.106514 0.928852
v 0.444214 1.107614 0.928852
v 0.444214 1.107614 0.929897
v 0.443956 1.106442 0.929375
v 0.444226 1.107002 0.929375
v 0.444091 1.107046 0.928818
v 0.444337 1.107614 0.929375
v 0.444091 1.107046 0.929931
v 0.443174 1.106736 0.927647
v 0.442694 1.107500 0.926868
v 0.443532 1.107835 0.927647
v 0.442975 1.107088 0.927202
v 0.443188 1.107339 0.927295
v 0.443164 1.107668 0.927202
v 0.443408 1.107268 0.927612
v 0.439695 1.102554 0.931102
v 0.440630 1.103234 0.931102
v 0.439755 1.103455 0.931881
v 0.440196 1.102848 0.931137
v 0.440060 1.103034 0.931454
v 0.440234 1.103314 0.931547
v 0.439741 1.102956 0.931547
v 0.440117 1.101974 0.929897
v 0.440117 1.101974 0.928852
v 0.441052 1.102653 0.928852
v 0.441052 1.102653 0.929897
v 0.440155 1.101857 0.929375
v 0.440702 1.102151 0.929375
v 0.440618 1.102267 0.928818
v 0.441151 1.102581 0.929375
v 0.440618 1.102267 0.929931
v 0.439695 1.102554 0.927647
v 0.439755 1.103455 0.926868
v 0.440630 1.103234 0.927647
v 0.439741 1.102956 0.927202
v 0.440060 1.103034 0.927295
v 0.440234 1.103314 0.927202
v 0.440196 1.102848 0.927612
v 0.434422 1.101217 0.931102
v 0.435577 1.101217 0.931102
v 0.435000 1.101910 0.931881
v 0.435000 1.101159 0.931137
v 0.435000 1.101390 0.931454
v 0.435304 1.101515 0.931547
v 0.434695 1.101515 0.931547
v 0.434422 1.100499 0.929897
v 0.434422 1.100499 0.928852
v 0.435577 1.100499 0.928852
v 0.435577 1.100499 0.929897
v 0.434384 1.100382 0.929375
v 0.435000 1.100298 0.929375
v 0.435000 1.100441 0.928818
v 0.435615 1.100382 0.929375
v 0.435000 1.100441 0.929931
v 0.434422 1.101217 0.927647
v 0.435000 1.101910 0.926868
v 0.435577 1.101217 0.927647
v 0.434695 1.101515 0.927202
v 0.435000 1.101390 0.927295
v 0.435304 1.101515 0.927202
v 0.435000 1.101159 0.927612
v 0.429369 1.103234 0.931102
v 0.430304 1.102554 0.931102
v 0.430244 1.103455 0.931881
v 0.429803 1.102848 0.931137
v 0.429939 1.103034 0.931454
v 0.430259 1.102956 0.931547
v 0.429766 1.103314 0.931547
v 0.428947 1.102653 0.929897
v 0.428947 1.102653 0.928852
v 0.429882 1.101974 0.928852
v 0.429882 1.101974 0.929897
v 0.428848 1.102581 0.929375
v 0.429297 1.102151 0.929375
v 0.429381 1.102267 0.928818
v 0.429845 1.101857 0.929375
v 0.429381 1.102267 0.929931
v 0.429369 1.103234 0.927647
v 0.430244 1.103455 0.926868
v 0.430304 1.102554 0.927647
v 0.429766 1.103314 0.927202
v 0.429939 1.103034 0.927295
v 0.430259 1.102956 0.927202
v 0.429803 1.102848 0.927612
v 0.426468 1.107835 0.931102
v 0.426825 1.106736 0.931102
v 0.427306 1.107500 0.931881
v 0.426592 1.107268 0.931137
v 0.426811 1.107339 0.931454
v 0.427024 1.107088 0.931547
v 0.426835 1.107668 0.931547
v 0.425785 1.107614 0.929897
v 0.425785 1.107614 0.928852
v 0.426142 1.106514 0.928852
v 0.426142 1.106514 0.929897
v 0.425662 1.107614 0.929375
v 0.425773 1.107002 0.929375
v 0.425909 1.107046 0.928818
v 0.426043 1.106442 0.929375
v 0.425909 1.107046 0.929931
v 0.426468 1.107835 0.927647
v 0.427306 1.107500 0.926868
v 0.426825 1.106736 0.927647
v 0.426835 1.107668 0.927202
v 0.426811 1.107339 0.927295
v 0.427024 1.107088 0.927202
v 0.426592 1.107268 0.927612
v 0.426825 1.113264 0.931102
v 0.426468 1.112165 0.931102
v 0.427306 1.112500 0.931881
v 0.426592 1.112732 0.931137
v 0.426811 1.112661 0.931454
v 0.426835 1.112332 0.931547
v 0.427024 1.112912 0.931547
v 0.426142 1.113486 0.929897
v 0.426142 1.113486 0.928852
v 0.425785 1.112386 0.928852
v 0.425785 1.112386 0.929897
v 0.426043 1.113558 0.929375
v 0.425773 1.112998 0.929375
v 0.425909 1.112954 0.928818
v 0.425662 1.112386 0.929375
v 0.425909 1.112954 0.929931
v 0.426825 1.113264 0.927647
v 0.427306 1.112500 0.926868
v 0.426468 1.112165 0.927647
v 0.427024 1.112912 0.927202
v 0.426811 1.112661 0.927295
v 0.426835 1.112332 0.927202
v 0.426592 1.112732 0.927612
v 0.430304 1.117446 0.931102
v 0.429369 1.116766 0.931102
v 0.430244 1.116545 0.931881
v 0.429803 1.117152 0.931137
v 0.429939 1.116966 0.931454
v 0.429766 1.116686 0.931547
v 0.430259 1.117044 0.931547
v 0.429882 1.118026 0.929897
v 0.429882 1.118026 0.928852
v 0.428947 1.117347 0.928852
v 0.428947 1.117347 0.929897
v 0.429845 1.118143 0.929375
v 0.429297 1.117849 0.929375
v 0.429381 1.117733 0.928818
v 0.428848 1.117419 0.929375
v 0.429381 1.117733 0.929931
v 0.430304 1.117446 0.927647
v 0.430244 1.116545 0.926868
v 0.429369 1.116766 0.927647
v 0.430259 1.117044 0.927202
v 0.429939 1.116966 0.927295
v 0.429766 1.116686 0.927202
v 0.429803 1.117152 0.927612
v 0.435577 1.118783 0.931102
v 0.434422 1.118783 0.931102
v 0.435000 1.118090 0.931881
v 0.435000 1.118841 0.931137
v 0.435000 1.118610 0.931454
v 0.434695 1.118485 0.931547
v 0.435304 1.118485 0.931547
v 0.435577 1.119501 0.929897
v 0.435577 1.119501 0.928852
v 0.434422 1.119501 0.928852
v 0.434422 1.119501 0.929897
v 0.435615 1.119618 0.929375
v 0.435000 1.119702 0.929375
v 0.435000 1.119559 0.928818
v 0.434384 1.119618 0.929375
v 0.435000 1.119559 0.929931
v 0.435577 1.118783 0.927647
v 0.435000 1.118090 0.926868
v 0.434422 1.118783 0.927647
v 0.435304 1.118485 0.927202
v 0.435000 1.118610 0.927295
v 0.434695 1.118485 0.927202
v 0.435000 1.118841 0.927612
v 0.547939 1.114045 0.933272
v 0.547939 1.114045 0.925477
v 0.549755 1.111545 0.933272
v 0.549755 1.111545 0.925477
v 0.549755 1.108455 0.933272
v 0.549755 1.108455 0.925477
v 0.547939 1.105955 0.933272
v 0.547939 1.105955 0.925477
v 0.545000 1.105000 0.933272
v 0.545000 1.105000 0.925477
v 0.542061 1.105955 0.933272
v 0.542061 1.105955 0.925477
v 0.540244 1.108455 0.933272
v 0.540244 1.108455 0.925477
v 0.545000 1.110000 0.924875
v 0.545000 1.110000 0.933875
v 0.540244 1.111545 0.933272
v 0.540244 1.111545 0.925477
v 0.542061 1.114045 0.933272
v 0.542061 1.114045 0.925477
v 0.545000 1.115000 0.933272
v 0.545000 1.115000 0.925477
v 0.549695 1.117446 0.931102
v 0.549755 1.116545 0.931881
v 0.550630 1.116766 0.931102
v 0.549741 1.117044 0.931547
v 0.550060 1.116966 0.931454
v 0.550234 1.116686 0.931547
v 0.550196 1.117152 0.931137
v 0.550117 1.118026 0.929897
v 0.551052 1.117347 0.929897
v 0.551052 1.117347 0.928852
v 0.550117 1.118026 0.928852
v 0.550618 1.117733 0.929931
v 0.550702 1.117849 0.929375
v 0.551151 1.117419 0.929375
v 0.550618 1.117733 0.928818
v 0.550155 1.118143 0.929375
v 0.549695 1.117446 0.927647
v 0.550630 1.116766 0.927647
v 0.549755 1.116545 0.926868
v 0.550196 1.117152 0.927612
v 0.550060 1.116966 0.927295
v 0.550234 1.116686 0.927202
v 0.549741 1.117044 0.927202
v 0.553532 1.112165 0.931102
v 0.553174 1.113264 0.931102
v 0.552694 1.112500 0.931881
v 0.553408 1.112732 0.931137
v 0.553188 1.112661 0.931454
v 0.552975 1.112912 0.931547
v 0.553164 1.112332 0.931547
v 0.554214 1.112386 0.929897
v 0.554214 1.112386 0.928852
v 0.553857 1.113486 0.928852
v 0.553857 1.113486 0.929897
v 0.554337 1.112386 0.929375
v 0.554226 1.112998 0.929375
v 0.554090 1.112954 0.928818
v 0.553956 1.113558 0.929375
v 0.554090 1.112954 0.929931
v 0.553532 1.112165 0.927647
v 0.552694 1.112500 0.926868
v 0.553174 1.113264 0.927647
v 0.553164 1.112332 0.927202
v 0.553188 1.112661 0.927295
v 0.552975 1.112912 0.927202
v 0.553408 1.112732 0.927612
v 0.553174 1.106736 0.931102
v 0.553532 1.107835 0.931102
v 0.552694 1.107500 0.931881
v 0.553408 1.107268 0.931137
v 0.553188 1.107339 0.931454
v 0.553164 1.107668 0.931547
v 0.552975 1.107088 0.931547
v 0.553857 1.106514 0.929897
v 0.553857 1.106514 0.928852
v 0.554214 1.107614 0.928852
v 0.554214 1.107614 0.929897
v 0.553956 1.106442 0.929375
v 0.554226 1.107002 0.929375
v 0.554090 1.107046 0.928818
v 0.554337 1.107614 0.929375
v 0.554090 1.107046 0.929931
v 0.553174 1.106736 0.927647
v 0.552694 1.107500 0.926868
v 0.553532 1.107835 0.927647
v 0.552975 1.107088 0.927202
v 0.553188 1.107339 0.927295
v 0.553164 1.107668 0.927202
v 0.553408 1.107268 0.927612
v 0.549695 1.102554 0.931102
v 0.550630 1.103234 0.931102
v 0.549755 1.103455 0.931881
v 0.550196 1.102848 0.931137
v 0.550060 1.103034 0.931454
v 0.550234 1.103314 0.931547
v 0.549741 1.102956 0.931547
v 0.550117 1.101974 0.929897
v 0.550117 1.101974 0.928852
v 0.551052 1.102653 0.928852
v 0.551052 1.102653 0.929897
v 0.550155 1.101857 0.929375
v 0.550702 1.102151 0.929375
v 0.550618 1.102267 0.928818
v 0.551151 1.102581 0.929375
v 0.550618 1.102267 0.929931
v 0.549695 1.102554 0.927647
v 0.549755 1.103455 0.926868
v 0.550630 1.103234 0.927647
v 0.549741 1.102956 0.927202
v 0.550060 1.103034 0.927295
v 0.550234 1.103314 0.927202
v 0.550196 1.102848 0.927612
v 0.544422 1.101217 0.931102
v 0.545578 1.101217 0.931102
v 0.545000 1.101910 0.931881
v 0.545000 1.101159 0.931137
v 0.545000 1.101390 0.931454
v 0.545304 1.101515 0.931547
v 0.544695 1.101515 0.931547
v 0.544422 1.100499 0.929897
v 0.544422 1.100499 0.928852
v 0.545577 1.100499 0.928852
v 0.545577 1.100499 0.929897
v 0.544384 1.100382 0.929375
v 0.545000 1.100298 0.929375
v 0.545000 1.100441 0.928818
v 0.545615 1.100382 0.929375
v 0.545000 1.100441 0.929931
v 0.544422 1.101217 0.927647
v 0.545000 1.101910 0.926868
v 0.545578 1.101217 0.927647
v 0.544695 1.101515 0.927202
v 0.545000 1.101390 0.927295
v 0.545304 1.101515 0.927202
v 0.545000 1.101159 0.927612
v 0.539369 1.103234 0.931102
v 0.540304 1.102554 0.931102
v 0.540244 1.103455 0.931881
v 0.539803 1.102848 0.931137
v 0.539939 1.103034 0.931454
v 0.540259 1.102956 0.931547
v 0.539766 1.103314 0.931547
v 0.538947 1.102653 0.929897
v 0.538947 1.102653 0.928852
v 0.539882 1.101974 0.928852
v 0.539882 1.101974 0.929897
v 0.538848 1.102581 0.929375
v 0.539297 1.102151 0.929375
v 0.539381 1.102267 0.928818
v 0.539845 1.101857 0.929375
v 0.539381 1.102267 0.929931
v 0.539369 1.103234 0.927647
v 0.540244 1.103455 0.926868
v 0.540304 1.102554 0.927647
v 0.539766 1.103314 0.927202
v 0.539939 1.103034 0.927295
v 0.540259 1.102956 0.927202
v 0.539803 1.102848 0.927612
v 0.536468 1.107835 0.931102
v 0.536825 1.106736 0.931102
v 0.537306 1.107500 0.931881
v 0.536592 1.107268 0.931137
v 0.536811 1.107339 0.931454
v 0.537024 1.107088 0.931547
v 0.536835 1.107668 0.931547
v 0.535785 1.107614 0.929897
v 0.535785 1.107614 0.928852
v 0.536142 1.106514 0.928852
v 0.536142 1.106514 0.929897
v 0.535662 1.107614 0.929375
v 0.535773 1.107002 0.929375
v 0.535909 1.107046 0.928818
v 0.536043 1.106442 0.929375
v 0.535909 1.107046 0.929931
v 0.536468 1.107835 0.927647
v 0.537306 1.107500 0.926868
v 0.536825 1.106736 0.927647
v 0.536835 1.107668 0.927202
v 0.536811 1.107339 0.927295
v 0.537024 1.107088 0.927202
v 0.536592 1.107268 0.927612
v 0.536825 1.113264 0.931102
v 0.536468 1.112165 0.931102
v 0.537306 1.112500 0.931881
v 0.536592 1.112732 0.931137
v 0.536811 1.112661 0.931454
v 0.536835 1.112332 0.931547
v 0.537024 1.112912 0.931547
v 0.536142 1.113486 0.929897
v 0.536142 1.113486 0.928852
v 0.535785 1.112386 0.928852
v 0.535785 1.112386 0.929897
v 0.536043 1.113558 0.929375
v 0.535773 1.112998 0.929375
v 0.535909 1.112954 0.928818
v 0.535662 1.112386 0.929375
v 0.535909 1.112954 0.929931
v 0.536825 1.113264 0.927647
v 0.537306 1.112500 0.926868
v 0.536468 1.112165 0.927647
v 0.537024 1.112912 0.927202
v 0.536811 1.112661 0.927295
v 0.536835 1.112332 0.927202
v 0.536592 1.112732 0.927612
v 0.540304 1.117446 0.931102
v 0.539369 1.116766 0.931102
v 0.540244 1.116545 0.931881
v 0.539803 1.117152 0.931137
v 0.539939 1.116966 0.931454
v 0.539766 1.116686 0.931547
v 0.540259 1.117044 0.931547
v 0.539882 1.118026 0.929897
v 0.539882 1.118026 0.928852
v 0.538947 1.117347 0.928852
v 0.538947 1.117347 0.929897
v 0.539845 1.118143 0.929375
v 0.539297 1.117849 0.929375
v 0.539381 1.117733 0.928818
v 0.538848 1.117419 0.929375
v 0.539381 1.117733 0.929931
v 0.540304 1.117446 0.927647
v 0.540244 1.116545 0.926868
v 0.539369 1.116766 0.927647
v 0.540259 1.117044 0.927202
v 0.539939 1.116966 0.927295
v 0.539766 1.116686 0.927202
v 0.539803 1.117152 0.927612
v 0.545577 1.118783 0.931102
v 0.544422 1.118783 0.931102
v 0.545000 1.118090 0.931881
v 0.545000 1.118841 0.931137
v 0.545000 1.118610 0.931454
v 0.544695 1.118485 0.931547
v 0.545304 1.118485 0.931547
v 0.545577 1.119501 0.929897
v 0.545577 1.119501 0.928852
v 0.544422 1.119501 0.928852
v 0.544422 1.119501 0.929897
v 0.545615 1.119618 0.929375
v 0.545000 1.119702 0.929375
v 0.545000 1.119559 0.928818
v 0.544384 1.119618 0.929375
v 0.545000 1.119559 0.929931
v 0.545577 1.118783 0.927647
v 0.545000 1.118090 0.926868
v 0.544422 1.118783 0.927647
v 0.545304 1.118485 0.927202
v 0.545000 1.118610 0.927295
v 0.544695 1.118485 0.927202
v 0.545000 1.118841 0.927612
vn -0.0000 0.9749 0.2225
vn -0.0000 0.4339 -0.9010
vn -0.0000 -0.0000 -1.0000
vn -0.0000 -0.4339 -0.9010
vn -0.0000 -0.7818 -0.6235
vn -0.0000 -0.9749 -0.2225
vn -0.0000 -0.9749 0.2225
vn -0.0000 -0.7818 0.6235
vn -0.0000 -0.4339 0.9010
vn -0.0000 -0.0000 1.0000
vn -0.0000 0.4339 0.9010
vn -0.0000 0.7818 0.6235
vn -0.0000 0.7818 -0.6235
vn 1.0000 -0.0000 -0.0000
vn -0.0000 0.9749 -0.2225
vn -0.3940 0.8961 -0.2045
vn -0.9219 0.3778 -0.0862
vn 0.3940 0.8961 -0.2045
vn 0.9219 0.3778 -0.0862
vn -0.3940 0.7186 -0.5730
vn -0.9219 0.3029 -0.2416
vn 0.3940 0.7186 -0.5730
vn 0.9219 0.3029 -0.2416
vn -0.3940 0.3988 -0.8281
vn -0.9219 0.1681 -0.3491
vn 0.3940 0.3988 -0.8281
vn 0.9219 0.1681 -0.3491
vn -0.3940 -0.0000 -0.9191
vn -0.9219 -0.0000 -0.3875
vn 0.3940 -0.0000 -0.9191
vn 0.9219 -0.0000 -0.3875
vn -0.3940 -0.3988 -0.8281
vn -0.9219 -0.1681 -0.3491
vn 0.3940 -0.3988 -0.8281
vn 0.9219 -0.1681 -0.3491
vn -0.3940 -0.7186 -0.5730
vn -0.9219 -0.3029 -0.2416
vn 0.3940 -0.7186 -0.5730
vn 0.9219 -0.3029 -0.2416
vn -0.3940 -0.8961 -0.2045
vn -0.9219 -0.3778 -0.0862
vn 0.3940 -0.8961 -0.2045
vn 0.9219 -0.3778 -0.0862
vn -0.3940 -0.8961 0.2045
vn -0.9219 -0.3778 0.0862
vn 0.3940 -0.8961 0.2045
vn 0.9219 -0.3778 0.0862
vn -0.3940 -0.7186 0.5730
vn -0.9219 -0.3029 0.2416
vn 0.3940 -0.7186 0.5730
vn 0.9219 -0.3029 0.2416
vn -0.3940 -0.3988 0.8281
vn -0.9219 -0.1681 0.3491
vn 0.3940 -0.3988 0.8281
vn 0.9219 -0.1681 0.3491
vn -0.3940 -0.0000 0.9191
vn -0.9219 -0.0000 0.3875
vn 0.3940 -0.0000 0.9191
vn 0.9219 -0.0000 0.3875
vn -0.3940 0.3988 0.8281
vn -0.9219 0.1681 0.3491
vn 0.3940 0.3988 0.8281
vn 0.9219 0.1681 0.3491
vn -0.3940 0.7186 0.5730
vn -0.9219 0.3029 0.2416
vn 0.3940 0.7186 0.5730
vn 0.9219 0.3029 0.2416
vn -0.3940 0.8961 0.2045
vn -0.9219 0.3778 0.0862
vn 0.3940 0.8961 0.2045
vn 0.9219 0.3778 0.0862
vn -1.0000 -0.0000 -0.0000
vn 0.7040 0.5115 0.4928
vn 0.0389 0.1196 0.9921
vn 0.0389 0.1196 -0.9921
vn 0.3460 0.2514 -0.9039
vn 0.7040 0.5115 -0.4928
vn 0.4277 -0.0000 0.9039
vn 0.1018 0.0739 -0.9921
vn 0.2689 0.8276 -0.4928
vn 0.2689 0.8276 0.4928
vn 0.1322 0.4068 -0.9039
vn 0.1322 0.4068 0.9039
vn 0.1018 0.0739 0.9921
vn 0.1258 -0.0000 -0.9921
vn 0.4277 -0.0000 -0.9039
vn 0.8702 -0.0000 0.4928
vn 0.3460 -0.2514 0.9039
vn 0.8702 -0.0000 -0.4928
vn 0.1258 -0.0000 0.9921
vn 0.3460 -0.2514 -0.9039
vn 0.7040 -0.5115 0.4928
vn 0.1322 -0.4068 0.9039
vn 0.7040 -0.5115 -0.4928
vn 0.1018 -0.0739 0.9921
vn 0.1018 -0.0739 -0.9921
vn 0.2689 -0.8276 0.4928
vn -0.1322 -0.4068 0.9039
vn 0.2689 -0.8276 -0.4928
vn 0.0389 -0.1196 0.9921
vn 0.0389 -0.1196 -0.9921
vn 0.1322 -0.4068 -0.9039
vn -0.3460 -0.2514 0.9039
vn -0.2689 -0.8276 -0.4928
vn -0.0389 -0.1196 0.9921
vn -0.0389 -0.1196 -0.9921
vn -0.1322 -0.4068 -0.9039
vn -0.2689 -0.8276 0.4928
vn -0.4277 -0.0000 0.9039
vn -0.7040 -0.5115 -0.4928
vn -0.1018 -0.0739 0.9921
vn -0.1018 -0.0739 -0.9921
vn -0.3460 -0.2514 -0.9039
vn -0.7040 -0.5115 0.4928
vn -0.3460 0.2514 0.9039
vn -0.8702 -0.0000 -0.4928
vn -0.1258 -0.0000 0.9921
vn -0.1258 -0.0000 -0.9921
vn -0.4277 -0.0000 -0.9039
vn -0.8702 -0.0000 0.4928
vn -0.1322 0.4068 0.9039
vn -0.7040 0.5115 -0.4928
vn -0.1018 0.0739 0.9921
vn -0.1018 0.0739 -0.9921
vn -0.3460 0.2514 -0.9039
vn -0.7040 0.5115 0.4928
vn -0.2689 0.8276 -0.4928
vn -0.0389 0.1196 0.9921
vn -0.0389 0.1196 -0.9921
vn -0.1322 0.4068 -0.9039
vn -0.2689 0.8276 0.4928
vn 0.3727 0.7071 0.6009
vn 0.3529 0.5278 0.7726
vn 0.5574 0.5729 0.6009
vn 0.4612 0.8583 0.2249
vn 0.6551 0.7140 0.2472
vn 0.6738 0.7039 -0.2249
vn 0.4766 0.8436 -0.2472
vn 0.3727 0.7071 -0.6009
vn 0.5574 0.5729 -0.6009
vn 0.3930 0.4987 -0.7726
vn 0.7877 0.1359 0.6009
vn 0.7171 0.3530 0.6009
vn 0.5957 0.2196 0.7726
vn 0.9496 0.1926 0.2472
vn 0.9588 0.1734 -0.2249
vn 0.8815 0.4024 -0.2472
vn 0.8776 0.4233 0.2249
vn 0.7877 0.1359 -0.6009
vn 0.6110 0.1725 -0.7726
vn 0.7171 0.3530 -0.6009
vn 0.7171 -0.3530 0.6009
vn 0.7877 -0.1359 0.6009
vn 0.6110 -0.1725 0.7726
vn 0.8815 -0.4024 0.2472
vn 0.8776 -0.4233 -0.2249
vn 0.9496 -0.1926 -0.2472
vn 0.9588 -0.1734 0.2249
vn 0.7171 -0.3530 -0.6009
vn 0.5957 -0.2196 -0.7726
vn 0.7877 -0.1359 -0.6009
vn 0.3727 -0.7071 0.6009
vn 0.5574 -0.5729 0.6009
vn 0.3930 -0.4987 0.7726
vn 0.4766 -0.8436 0.2472
vn 0.4612 -0.8583 -0.2249
vn 0.6551 -0.7140 -0.2472
vn 0.6738 -0.7039 0.2249
vn 0.3727 -0.7071 -0.6009
vn 0.3529 -0.5278 -0.7726
vn 0.5574 -0.5729 -0.6009
vn -0.1142 -0.7911 0.6009
vn 0.1142 -0.7911 0.6009
vn 0.0248 -0.6344 0.7726
vn -0.1103 -0.9627 0.2472
vn -0.1314 -0.9655 -0.2249
vn 0.1103 -0.9627 -0.2472
vn 0.1314 -0.9655 0.2249
vn -0.1142 -0.7911 -0.6009
vn -0.0248 -0.6344 -0.7726
vn 0.1142 -0.7911 -0.6009
vn -0.5574 -0.5729 0.6009
vn -0.3727 -0.7071 0.6009
vn -0.3529 -0.5278 0.7726
vn -0.6551 -0.7140 0.2472
vn -0.6738 -0.7039 -0.2249
vn -0.4766 -0.8436 -0.2472
vn -0.4612 -0.8583 0.2249
vn -0.5574 -0.5729 -0.6009
vn -0.3930 -0.4987 -0.7726
vn -0.3727 -0.7071 -0.6009
vn -0.7877 -0.1359 0.6009
vn -0.7171 -0.3530 0.6009
vn -0.5957 -0.2196 0.7726
vn -0.9496 -0.1926 0.2472
vn -0.9588 -0.1734 -0.2249
vn -0.8815 -0.4024 -0.2472
vn -0.8776 -0.4233 0.2249
vn -0.7877 -0.1359 -0.6009
vn -0.6110 -0.1725 -0.7726
vn -0.7171 -0.3530 -0.6009
vn -0.7171 0.3530 0.6009
vn -0.7877 0.1359 0.6009
vn -0.6111 0.1725 0.7726
vn -0.8815 0.4024 0.2472
vn -0.8776 0.4233 -0.2249
vn -0.9496 0.1926 -0.2472
vn -0.9588 0.1734 0.2250
vn -0.7171 0.3530 -0.6009
vn -0.5957 0.2196 -0.7726
vn -0.7877 0.1359 -0.6009
vn -0.3727 0.7071 0.6009
vn -0.5574 0.5729 0.6009
vn -0.3930 0.4987 0.7726
vn -0.4766 0.8436 0.2472
vn -0.4612 0.8583 -0.2249
vn -0.6551 0.7140 -0.2472
vn -0.6738 0.7039 0.2249
vn -0.3727 0.7071 -0.6009
vn -0.3529 0.5278 -0.7726
vn -0.5574 0.5729 -0.6009
vn 0.1142 0.7911 0.6009
vn -0.1142 0.7911 0.6009
vn -0.0248 0.6344 0.7726
vn 0.1103 0.9627 0.2472
vn 0.1314 0.9655 -0.2249
vn -0.1103 0.9627 -0.2472
vn -0.1314 0.9655 0.2249
vn 0.1142 0.7911 -0.6009
vn 0.0248 0.6344 -0.7726
vn -0.1142 0.7911 -0.6009
vn 0.5946 0.6230 0.5082
vn 0.4088 0.7580 0.5082
vn 0.5946 0.6230 -0.5082
vn 0.4088 0.7580 -0.5082
vn 0.8472 0.1545 0.5082
vn 0.7763 0.3730 0.5082
vn 0.8473 0.1545 -0.5082
vn 0.7763 0.3730 -0.5082
vn 0.4689 0.3407 -0.8149
vn 0.6231 0.4527 -0.6378
vn 0.7876 0.5723 0.2284
vn 0.7876 0.5723 -0.2284
vn 0.6231 0.4527 0.6378
vn 0.4689 0.3407 0.8149
vn 0.7763 -0.3730 0.5082
vn 0.8472 -0.1545 0.5082
vn 0.7763 -0.3730 -0.5082
vn 0.8473 -0.1545 -0.5082
vn 0.5796 -0.0000 -0.8149
vn 0.7702 -0.0000 -0.6378
vn 0.9736 -0.0000 0.2284
vn 0.9736 -0.0000 -0.2284
vn 0.7702 -0.0000 0.6378
vn 0.5796 -0.0000 0.8149
vn 0.4088 -0.7580 0.5082
vn 0.5946 -0.6230 0.5082
vn 0.4088 -0.7580 -0.5082
vn 0.5946 -0.6230 -0.5082
vn 0.4689 -0.3407 -0.8149
vn 0.6231 -0.4527 -0.6378
vn 0.7876 -0.5723 0.2284
vn 0.7876 -0.5723 -0.2284
vn 0.6231 -0.4527 0.6378
vn 0.4689 -0.3407 0.8149
vn -0.1149 -0.8535 0.5082
vn 0.1149 -0.8535 0.5082
vn -0.1149 -0.8535 -0.5082
vn 0.1149 -0.8535 -0.5082
vn 0.2380 -0.7325 0.6378
vn 0.1791 -0.5513 0.8149
vn 0.2380 -0.7325 -0.6378
vn 0.1791 -0.5513 -0.8149
vn 0.3009 -0.9259 -0.2284
vn 0.3009 -0.9259 0.2284
vn -0.5946 -0.6230 0.5082
vn -0.4088 -0.7580 0.5082
vn -0.5946 -0.6230 -0.5082
vn -0.4088 -0.7580 -0.5082
vn -0.2380 -0.7325 -0.6378
vn -0.1791 -0.5512 -0.8149
vn -0.3009 -0.9259 -0.2284
vn -0.3009 -0.9259 0.2284
vn -0.1791 -0.5513 0.8149
vn -0.2380 -0.7325 0.6378
vn -0.8473 -0.1545 0.5082
vn -0.7763 -0.3730 0.5082
vn -0.8472 -0.1545 -0.5082
vn -0.7763 -0.3730 -0.5082
vn -0.6231 -0.4527 -0.6378
vn -0.4689 -0.3407 -0.8149
vn -0.7876 -0.5723 -0.2284
vn -0.7876 -0.5723 0.2284
vn -0.4689 -0.3407 0.8149
vn -0.6231 -0.4527 0.6378
vn -0.7763 0.3730 0.5082
vn -0.8473 0.1545 0.5082
vn -0.7763 0.3730 -0.5082
vn -0.8472 0.1545 -0.5082
vn -0.7702 -0.0000 -0.6378
vn -0.5796 -0.0000 -0.8149
vn -0.9736 -0.0000 -0.2284
vn -0.9736 -0.0000 0.2284
vn -0.5796 -0.0000 0.8149
vn -0.7702 -0.0000 0.6378
vn -0.4088 0.7580 0.5082
vn -0.5946 0.6230 0.5082
vn -0.4088 0.7580 -0.5082
vn -0.5946 0.6230 -0.5082
vn -0.6231 0.4527 -0.6378
vn -0.4689 0.3407 -0.8149
vn -0.7876 0.5723 -0.2284
vn -0.7876 0.5723 0.2284
vn -0.4689 0.3407 0.8149
vn -0.6231 0.4527 0.6378
vn 0.1149 0.8535 0.5082
vn -0.1149 0.8535 0.5082
vn 0.1149 0.8535 -0.5082
vn -0.1149 0.8535 -0.5082
vn -0.3009 0.9259 -0.2284
vn -0.3009 0.9259 0.2284
vn -0.1791 0.5513 0.8149
vn -0.2380 0.7325 0.6378
vn -0.1791 0.5513 -0.8149
vn -0.2380 0.7325 -0.6378
vn 0.3009 0.9259 -0.2284
vn 0.3009 0.9259 0.2284
vn 0.1791 0.5513 0.8149
vn 0.2380 0.7325 0.6378
vn 0.1791 0.5513 -0.8149
vn 0.2380 0.7325 -0.6378
vn 0.3460 0.2514 0.9039
vn -0.6110 0.1725 0.7726
vn -0.9588 0.1734 0.2249
vn 0.8473 0.1545 0.5082
vn 0.8473 -0.1545 0.5082
vn -0.1791 -0.5512 0.8149
vn -0.1791 -0.5513 -0.8149
vn -0.8472 0.1545 0.5082
vn -0.8473 0.1545 -0.5082
vn -0.1791 0.5512 -0.8149
vn 0.1791 0.5512 0.8149
vn 0.3483 0.7354 0.5813
vn 0.3930 0.4987 0.7726
vn 0.5918 0.5585 0.5813
vn 0.4766 0.8436 0.2472
vn 0.6738 0.7039 0.2249
vn 0.6551 0.7140 -0.2472
vn 0.4612 0.8583 -0.2249
vn 0.3483 0.7354 -0.5813
vn 0.5918 0.5585 -0.5813
vn 0.3529 0.5278 -0.7726
vn 0.8070 0.1040 0.5813
vn 0.7140 0.3902 0.5813
vn 0.6110 0.1725 0.7726
vn 0.9588 0.1734 0.2249
vn 0.9496 0.1926 -0.2472
vn 0.8776 0.4233 -0.2249
vn 0.8815 0.4024 0.2472
vn 0.8070 0.1040 -0.5813
vn 0.5957 0.2196 -0.7726
vn 0.7140 0.3903 -0.5813
vn 0.7140 -0.3903 0.5813
vn 0.8070 -0.1040 0.5813
vn 0.5957 -0.2196 0.7726
vn 0.8776 -0.4233 0.2249
vn 0.8815 -0.4024 -0.2472
vn 0.9588 -0.1734 -0.2249
vn 0.9496 -0.1926 0.2472
vn 0.7140 -0.3903 -0.5813
vn 0.6110 -0.1725 -0.7726
vn 0.8070 -0.1040 -0.5813
vn 0.3482 -0.7354 0.5813
vn 0.5918 -0.5585 0.5813
vn 0.3529 -0.5278 0.7726
vn 0.4612 -0.8583 0.2249
vn 0.4766 -0.8436 -0.2472
vn 0.6738 -0.7039 -0.2249
vn 0.6551 -0.7140 0.2472
vn 0.3482 -0.7354 -0.5813
vn 0.3930 -0.4987 -0.7726
vn 0.5918 -0.5585 -0.5813
vn -0.1505 -0.7996 0.5813
vn 0.1505 -0.7996 0.5813
vn -0.0248 -0.6344 0.7726
vn -0.1314 -0.9655 0.2249
vn -0.1103 -0.9627 -0.2472
vn 0.1314 -0.9655 -0.2249
vn 0.1103 -0.9627 0.2472
vn -0.1505 -0.7996 -0.5813
vn 0.0248 -0.6344 -0.7726
vn 0.1505 -0.7996 -0.5813
vn -0.5918 -0.5585 0.5813
vn -0.3482 -0.7354 0.5813
vn -0.3930 -0.4987 0.7726
vn -0.6738 -0.7039 0.2249
vn -0.6551 -0.7140 -0.2472
vn -0.4612 -0.8583 -0.2249
vn -0.4766 -0.8436 0.2472
vn -0.5918 -0.5585 -0.5813
vn -0.3529 -0.5278 -0.7726
vn -0.3483 -0.7354 -0.5813
vn -0.8070 -0.1040 0.5813
vn -0.7140 -0.3902 0.5813
vn -0.6110 -0.1725 0.7726
vn -0.9588 -0.1734 0.2249
vn -0.9496 -0.1926 -0.2472
vn -0.8776 -0.4233 -0.2249
vn -0.8815 -0.4024 0.2472
vn -0.8070 -0.1040 -0.5813
vn -0.5957 -0.2196 -0.7726
vn -0.7140 -0.3902 -0.5813
vn -0.7140 0.3902 0.5813
vn -0.8070 0.1040 0.5813
vn -0.5957 0.2196 0.7726
vn -0.8776 0.4233 0.2249
vn -0.8815 0.4024 -0.2472
vn -0.9588 0.1734 -0.2250
vn -0.9496 0.1926 0.2472
vn -0.7140 0.3902 -0.5813
vn -0.6111 0.1725 -0.7726
vn -0.8070 0.1040 -0.5813
vn -0.3482 0.7354 0.5813
vn -0.5918 0.5585 0.5813
vn -0.3529 0.5278 0.7726
vn -0.4612 0.8583 0.2249
vn -0.4766 0.8436 -0.2472
vn -0.6738 0.7039 -0.2249
vn -0.6551 0.7140 0.2472
vn -0.3482 0.7354 -0.5813
vn -0.3930 0.4987 -0.7726
vn -0.5918 0.5585 -0.5813
vn 0.1505 0.7996 0.5813
vn -0.1505 0.7996 0.5813
vn 0.0248 0.6344 0.7726
vn 0.1314 0.9655 0.2249
vn 0.1103 0.9627 -0.2472
vn -0.1314 0.9655 -0.2249
vn -0.1103 0.9627 0.2472
vn 0.1505 0.7996 -0.5813
vn -0.0248 0.6344 -0.7726
vn -0.1505 0.7996 -0.5813
vn 0.8472 0.1545 -0.5082
vn 0.8472 -0.1545 -0.5082
vn 0.1791 -0.5512 0.8149
vn 0.1791 -0.5512 -0.8149
vn -0.8472 -0.1545 0.5082
vn -0.8473 -0.1545 -0.5082
vn -0.7876 -0.5723 0.2283
vn 0.3008 0.9259 0.2284
vn 0.1791 0.5512 -0.8149
vn 0.7140 0.3903 0.5813
vn 0.1505 -0.7997 0.5813
vn 0.1505 -0.7997 -0.5813
vn -0.3483 -0.7354 0.5813
vn -0.7140 0.3903 0.5813
vn -0.9588 0.1734 -0.2249
vn -0.7140 0.3903 -0.5813
vn -0.6110 0.1725 -0.7726
vn 0.1505 0.7997 0.5813
vn 0.1505 0.7997 -0.5813
vn -0.1791 0.5512 0.8149
s 0
f 83//1 2//1 80//1
f 17//2 20//2 14//2
f 23//3 26//3 20//3
f 29//4 32//4 26//4
f 35//5 38//5 32//5
f 41//6 44//6 38//6
f 47//7 50//7 44//7
f 53//8 56//8 50//8
f 59//9 62//9 56//9
f 65//10 68//10 62//10
f 71//11 74//11 68//11
f 77//12 80//12 74//12
f 11//13 14//13 8//13
f 76//14 52//14 28//14
f 5//15 8//15 2//15
f 2//16 9//16 3//16
f 9//17 1//17 3//17
f 5//18 12//18 11//18
f 6//19 10//19 12//19
f 14//20 9//20 8//20
f 9//21 13//21 7//21
f 11//22 18//22 17//22
f 12//23 16//23 18//23
f 14//24 21//24 15//24
f 21//25 13//25 15//25
f 17//26 24//26 23//26
f 18//27 22//27 24//27
f 20//28 27//28 21//28
f 27//29 19//29 21//29
f 29//30 24//30 30//30
f 24//31 28//31 30//31
f 32//32 27//32 26//32
f 33//33 25//33 27//33
f 35//34 30//34 36//34
f 30//35 34//35 36//35
f 38//36 33//36 32//36
f 39//37 31//37 33//37
f 35//38 42//38 41//38
f 42//39 34//39 40//39
f 44//40 39//40 38//40
f 45//41 37//41 39//41
f 47//42 42//42 48//42
f 42//43 46//43 48//43
f 44//44 51//44 45//44
f 51//45 43//45 45//45
f 47//46 54//46 53//46
f 48//47 52//47 54//47
f 56//48 51//48 50//48
f 51//49 55//49 49//49
f 53//50 60//50 59//50
f 54//51 58//51 60//51
f 56//52 63//52 57//52
f 63//53 55//53 57//53
f 59//54 66//54 65//54
f 60//55 64//55 66//55
f 62//56 69//56 63//56
f 69//57 61//57 63//57
f 71//58 66//58 72//58
f 66//59 70//59 72//59
f 74//60 69//60 68//60
f 75//61 67//61 69//61
f 77//62 72//62 78//62
f 72//63 76//63 78//63
f 80//64 75//64 74//64
f 81//65 73//65 75//65
f 77//66 84//66 83//66
f 84//67 76//67 82//67
f 2//68 81//68 80//68
f 3//69 79//69 81//69
f 5//70 84//70 6//70
f 84//71 4//71 6//71
f 19//72 43//72 67//72
f 115//73 131//73 140//73
f 105//74 100//74 85//74
f 99//75 106//75 86//75
f 86//76 147//76 88//76
f 116//77 148//77 124//77
f 87//78 155//78 132//78
f 99//79 86//79 88//79
f 322//80 123//80 330//80
f 321//81 107//81 114//81
f 331//82 86//82 106//82
f 316//83 85//83 108//83
f 85//84 100//84 87//84
f 99//85 88//85 90//85
f 147//86 90//86 88//86
f 130//87 163//87 137//87
f 155//88 91//88 178//88
f 138//89 171//89 146//89
f 87//90 100//90 89//90
f 170//91 92//91 90//91
f 153//92 186//92 160//92
f 91//93 201//93 178//93
f 161//94 194//94 169//94
f 89//95 100//95 91//95
f 99//96 90//96 92//96
f 183//97 200//97 209//97
f 201//98 95//98 224//98
f 184//99 217//99 192//99
f 91//100 100//100 93//100
f 99//101 92//101 94//101
f 193//102 94//102 92//102
f 95//103 247//103 224//103
f 207//104 240//104 215//104
f 93//105 100//105 95//105
f 99//106 94//106 96//106
f 216//107 96//107 94//107
f 199//108 232//108 206//108
f 97//109 270//109 247//109
f 230//110 263//110 238//110
f 95//111 100//111 97//111
f 99//112 96//112 98//112
f 96//113 262//113 98//113
f 229//114 246//114 255//114
f 270//115 103//115 293//115
f 253//116 286//116 261//116
f 97//117 100//117 101//117
f 99//118 98//118 102//118
f 262//119 102//119 98//119
f 252//120 269//120 278//120
f 103//121 316//121 293//121
f 284//122 300//122 309//122
f 101//123 100//123 103//123
f 99//124 102//124 104//124
f 285//125 104//125 102//125
f 268//126 301//126 275//126
f 299//127 332//127 307//127
f 103//128 100//128 105//128
f 99//129 104//129 106//129
f 308//130 106//130 104//130
f 298//131 315//131 324//131
f 110//132 113//132 107//132
f 108//133 111//133 110//133
f 113//134 112//134 109//134
f 114//135 119//135 122//135
f 115//136 119//136 118//136
f 116//137 119//137 120//137
f 117//138 119//138 121//138
f 126//139 129//139 123//139
f 128//140 126//140 124//140
f 125//141 127//141 128//141
f 133//142 136//142 130//142
f 135//143 133//143 131//143
f 132//144 134//144 135//144
f 137//145 142//145 145//145
f 138//146 142//146 141//146
f 139//147 142//147 143//147
f 140//148 142//148 144//148
f 149//149 152//149 146//149
f 147//150 150//150 149//150
f 152//151 151//151 148//151
f 156//152 159//152 153//152
f 158//153 156//153 154//153
f 155//154 157//154 158//154
f 160//155 165//155 168//155
f 161//156 165//156 164//156
f 162//157 165//157 166//157
f 163//158 165//158 167//158
f 172//159 175//159 169//159
f 170//160 173//160 172//160
f 175//161 174//161 171//161
f 179//162 182//162 176//162
f 181//163 179//163 177//163
f 178//164 180//164 181//164
f 183//165 188//165 191//165
f 184//166 188//166 187//166
f 185//167 188//167 189//167
f 186//168 188//168 190//168
f 195//169 198//169 192//169
f 193//170 196//170 195//170
f 198//171 197//171 194//171
f 202//172 205//172 199//172
f 204//173 202//173 200//173
f 201//174 203//174 204//174
f 206//175 211//175 214//175
f 207//176 211//176 210//176
f 208//177 211//177 212//177
f 209//178 211//178 213//178
f 218//179 221//179 215//179
f 216//180 219//180 218//180
f 221//181 220//181 217//181
f 225//182 228//182 222//182
f 227//183 225//183 223//183
f 224//184 226//184 227//184
f 229//185 234//185 237//185
f 230//186 234//186 233//186
f 231//187 234//187 235//187
f 232//188 234//188 236//188
f 241//189 244//189 238//189
f 239//190 242//190 241//190
f 244//191 243//191 240//191
f 248//192 251//192 245//192
f 250//193 248//193 246//193
f 247//194 249//194 250//194
f 252//195 257//195 260//195
f 253//196 257//196 256//196
f 254//197 257//197 258//197
f 255//198 257//198 259//198
f 264//199 267//199 261//199
f 262//200 265//200 264//200
f 267//201 266//201 263//201
f 271//202 274//202 268//202
f 273//203 271//203 269//203
f 270//204 272//204 273//204
f 275//205 280//205 283//205
f 276//206 280//206 279//206
f 277//207 280//207 281//207
f 278//208 280//208 282//208
f 287//209 290//209 284//209
f 285//210 288//210 287//210
f 290//211 289//211 286//211
f 294//212 297//212 291//212
f 296//213 294//213 292//213
f 293//214 295//214 296//214
f 298//215 303//215 306//215
f 299//216 303//216 302//216
f 300//217 303//217 304//217
f 301//218 303//218 305//218
f 310//219 313//219 307//219
f 308//220 311//220 310//220
f 313//221 312//221 309//221
f 317//222 320//222 314//222
f 319//223 317//223 315//223
f 316//224 318//224 319//224
f 321//225 326//225 329//225
f 322//226 326//226 325//226
f 323//227 326//227 327//227
f 324//228 326//228 328//228
f 333//229 336//229 330//229
f 331//230 334//230 333//230
f 336//231 335//231 332//231
f 109//232 118//232 113//232
f 113//233 114//233 107//233
f 116//234 126//234 121//234
f 126//235 117//235 121//235
f 137//236 133//236 130//236
f 133//237 140//237 131//237
f 146//238 143//238 138//238
f 152//239 139//239 143//239
f 147//240 128//240 151//240
f 128//241 148//241 151//241
f 115//242 144//242 120//242
f 144//243 116//243 120//243
f 131//244 112//244 135//244
f 112//245 132//245 135//245
f 160//246 156//246 153//246
f 156//247 163//247 154//247
f 161//248 175//248 166//248
f 175//249 162//249 166//249
f 147//250 174//250 170//250
f 149//251 171//251 174//251
f 163//252 141//252 137//252
f 167//253 138//253 141//253
f 130//254 158//254 154//254
f 136//255 155//255 158//255
f 183//256 179//256 176//256
f 179//257 186//257 177//257
f 184//258 198//258 189//258
f 198//259 185//259 189//259
f 193//260 172//260 197//260
f 172//261 194//261 197//261
f 186//262 164//262 160//262
f 190//263 161//263 164//263
f 177//264 159//264 181//264
f 159//265 178//265 181//265
f 206//266 202//266 199//266
f 202//267 209//267 200//267
f 215//268 212//268 207//268
f 221//269 208//269 212//269
f 176//270 204//270 200//270
f 182//271 201//271 204//271
f 217//272 195//272 192//272
f 220//273 193//273 195//273
f 208//274 187//274 213//274
f 187//275 209//275 213//275
f 222//276 237//276 225//276
f 225//277 232//277 223//277
f 238//278 235//278 230//278
f 244//279 231//279 235//279
f 215//280 243//280 218//280
f 218//281 239//281 216//281
f 207//282 236//282 231//282
f 210//283 232//283 236//283
f 224//284 205//284 201//284
f 227//285 199//285 205//285
f 252//286 248//286 245//286
f 260//287 246//287 248//287
f 261//288 258//288 253//288
f 258//289 263//289 254//289
f 263//290 241//290 238//290
f 241//291 262//291 239//291
f 230//292 259//292 254//292
f 233//293 255//293 259//293
f 247//294 228//294 224//294
f 228//295 246//295 222//295
f 268//296 283//296 271//296
f 271//297 278//297 269//297
f 284//298 281//298 276//298
f 290//299 277//299 281//299
f 286//300 264//300 261//300
f 289//301 262//301 264//301
f 253//302 282//302 277//302
f 256//303 278//303 282//303
f 270//304 251//304 247//304
f 273//305 245//305 251//305
f 298//306 294//306 291//306
f 294//307 301//307 292//307
f 299//308 313//308 304//308
f 313//309 300//309 304//309
f 284//310 312//310 287//310
f 312//311 285//311 287//311
f 276//312 305//312 300//312
f 305//313 275//313 301//313
f 270//314 296//314 274//314
f 296//315 268//315 274//315
f 321//316 317//316 314//316
f 329//317 315//317 317//317
f 330//318 327//318 322//318
f 336//319 323//319 327//319
f 299//320 328//320 323//320
f 302//321 324//321 328//321
f 316//322 297//322 293//322
f 319//323 291//323 297//323
f 308//324 335//324 331//324
f 310//325 332//325 335//325
f 117//326 325//326 122//326
f 325//327 114//327 122//327
f 316//328 110//328 320//328
f 320//329 107//329 314//329
f 331//330 129//330 125//330
f 333//331 123//331 129//331
f 85//332 132//332 108//332
f 339//78 407//78 384//78
f 367//73 383//73 392//73
f 357//74 352//74 337//74
f 351//75 358//75 338//75
f 338//76 399//76 340//76
f 368//77 400//77 376//77
f 351//79 338//79 340//79
f 582//80 369//80 375//80
f 573//81 359//81 366//81
f 583//82 338//82 358//82
f 568//83 337//83 360//83
f 337//84 352//84 339//84
f 351//85 340//85 342//85
f 340//86 422//86 342//86
f 382//87 415//87 389//87
f 407//88 343//88 430//88
f 390//89 423//89 398//89
f 339//90 352//90 341//90
f 351//96 342//96 344//96
f 422//91 344//91 342//91
f 405//92 438//92 412//92
f 343//93 453//93 430//93
f 421//94 437//94 446//94
f 341//95 352//95 343//95
f 344//102 468//102 346//102
f 435//97 452//97 461//97
f 453//98 347//98 476//98
f 436//99 469//99 444//99
f 343//100 352//100 345//100
f 351//101 344//101 346//101
f 458//108 475//108 484//108
f 347//103 499//103 476//103
f 459//104 492//104 467//104
f 345//105 352//105 347//105
f 351//106 346//106 348//106
f 468//107 348//107 346//107
f 499//109 353//109 522//109
f 482//110 515//110 490//110
f 347//111 352//111 349//111
f 351//112 348//112 350//112
f 348//113 514//113 350//113
f 481//114 498//114 507//114
f 353//115 545//115 522//115
f 505//116 538//116 513//116
f 349//117 352//117 353//117
f 351//118 350//118 354//118
f 514//119 354//119 350//119
f 504//120 521//120 530//120
f 355//121 568//121 545//121
f 536//122 552//122 561//122
f 353//123 352//123 355//123
f 351//124 354//124 356//124
f 354//125 560//125 356//125
f 520//126 553//126 527//126
f 551//127 584//127 559//127
f 355//128 352//128 357//128
f 351//129 356//129 358//129
f 560//130 358//130 356//130
f 550//131 567//131 576//131
f 362//132 365//132 359//132
f 360//133 363//133 362//133
f 365//134 364//134 361//134
f 366//135 371//135 374//135
f 367//136 371//136 370//136
f 368//137 371//137 372//137
f 369//138 371//138 373//138
f 378//139 381//139 375//139
f 380//140 378//140 376//140
f 377//141 379//141 380//141
f 385//142 388//142 382//142
f 387//143 385//143 383//143
f 384//144 386//144 387//144
f 389//145 394//145 397//145
f 390//146 394//146 393//146
f 391//147 394//147 395//147
f 392//148 394//148 396//148
f 401//149 404//149 398//149
f 399//150 402//150 401//150
f 404//151 403//151 400//151
f 408//152 411//152 405//152
f 410//153 408//153 406//153
f 407//154 409//154 410//154
f 412//155 417//155 420//155
f 413//156 417//156 416//156
f 414//157 417//157 418//157
f 415//158 417//158 419//158
f 424//159 427//159 421//159
f 422//160 425//160 424//160
f 427//161 426//161 423//161
f 431//162 434//162 428//162
f 433//163 431//163 429//163
f 430//164 432//164 433//164
f 435//165 440//165 443//165
f 436//166 440//166 439//166
f 437//167 440//167 441//167
f 438//168 440//168 442//168
f 447//169 450//169 444//169
f 445//170 448//170 447//170
f 450//171 449//171 446//171
f 454//172 457//172 451//172
f 456//173 454//173 452//173
f 453//174 455//174 456//174
f 458//175 463//175 466//175
f 459//176 463//176 462//176
f 460//177 463//177 464//177
f 461//178 463//178 465//178
f 470//179 473//179 467//179
f 468//180 471//180 470//180
f 473//181 472//181 469//181
f 477//182 480//182 474//182
f 479//183 477//183 475//183
f 476//184 478//184 479//184
f 481//185 486//185 489//185
f 482//186 486//186 485//186
f 483//187 486//187 487//187
f 484//188 486//188 488//188
f 493//189 496//189 490//189
f 491//190 494//190 493//190
f 496//191 495//191 492//191
f 500//192 503//192 497//192
f 502//193 500//193 498//193
f 499//194 501//194 502//194
f 504//195 509//195 512//195
f 505//196 509//196 508//196
f 506//197 509//197 510//197
f 507//198 509//198 511//198
f 516//199 519//199 513//199
f 514//200 517//200 516//200
f 519//201 518//201 515//201
f 523//202 526//202 520//202
f 525//203 523//203 521//203
f 522//333 524//333 525//333
f 527//205 532//205 535//205
f 528//206 532//206 531//206
f 529//207 532//207 533//207
f 530//334 532//334 534//334
f 539//209 542//209 536//209
f 537//210 540//210 539//210
f 542//211 541//211 538//211
f 546//212 549//212 543//212
f 548//213 546//213 544//213
f 545//214 547//214 548//214
f 550//215 555//215 558//215
f 551//216 555//216 554//216
f 552//217 555//217 556//217
f 553//218 555//218 557//218
f 562//219 565//219 559//219
f 560//220 563//220 562//220
f 565//221 564//221 561//221
f 569//222 572//222 566//222
f 571//223 569//223 567//223
f 568//224 570//224 571//224
f 573//225 578//225 581//225
f 574//226 578//226 577//226
f 575//227 578//227 579//227
f 576//228 578//228 580//228
f 585//229 588//229 582//229
f 583//230 586//230 585//230
f 588//231 587//231 584//231
f 361//232 370//232 365//232
f 365//233 366//233 359//233
f 368//234 378//234 373//234
f 378//235 369//235 373//235
f 389//335 385//335 382//335
f 397//237 383//237 385//237
f 390//238 404//238 395//238
f 404//239 391//239 395//239
f 399//240 380//240 403//240
f 403//241 376//241 400//241
f 367//242 396//242 372//242
f 396//243 368//243 372//243
f 383//244 364//244 387//244
f 387//245 360//245 384//245
f 412//246 408//246 405//246
f 420//336 406//336 408//336
f 421//248 418//248 413//248
f 418//249 423//249 414//249
f 399//250 426//250 422//250
f 426//251 398//251 423//251
f 415//252 393//252 389//252
f 419//253 390//253 393//253
f 382//254 410//254 406//254
f 388//255 407//255 410//255
f 428//256 443//256 431//256
f 431//257 438//257 429//257
f 436//258 450//258 441//258
f 450//259 437//259 441//259
f 422//260 449//260 445//260
f 449//261 421//261 446//261
f 438//262 416//262 412//262
f 416//263 437//263 413//263
f 405//264 433//264 429//264
f 411//265 430//265 433//265
f 458//266 454//266 451//266
f 454//267 461//267 452//267
f 467//268 464//268 459//268
f 473//269 460//269 464//269
f 445//273 472//273 468//273
f 447//272 469//272 472//272
f 461//275 439//275 435//275
f 465//274 436//274 439//274
f 452//270 434//270 456//270
f 456//271 430//271 453//271
f 481//276 477//276 474//276
f 477//277 484//277 475//277
f 490//278 487//278 482//278
f 496//279 483//279 487//279
f 475//285 457//285 479//285
f 457//337 476//337 479//337
f 492//280 470//280 467//280
f 470//338 491//338 468//338
f 459//282 488//282 483//282
f 462//283 484//283 488//283
f 504//286 500//286 497//286
f 500//287 507//287 498//287
f 513//288 510//288 505//288
f 519//289 506//289 510//289
f 515//290 493//290 490//290
f 518//291 491//291 493//291
f 482//292 511//292 506//292
f 511//293 481//293 507//293
f 499//294 480//294 476//294
f 480//295 498//295 474//295
f 520//296 535//296 523//296
f 535//339 521//339 523//339
f 528//298 542//298 533//298
f 533//340 538//340 529//340
f 513//300 541//300 516//300
f 541//301 514//301 516//301
f 505//302 534//302 529//302
f 508//303 530//303 534//303
f 522//304 503//304 499//304
f 525//305 497//305 503//305
f 543//306 558//306 546//306
f 546//307 553//307 544//307
f 551//308 565//308 556//308
f 565//309 552//309 556//309
f 536//310 564//310 539//310
f 564//311 537//311 539//311
f 528//312 557//312 552//312
f 557//313 527//313 553//313
f 545//314 526//314 522//314
f 548//315 520//315 526//315
f 566//316 581//316 569//316
f 569//317 576//317 567//317
f 574//318 588//318 579//318
f 588//319 575//319 579//319
f 584//325 562//325 559//325
f 562//341 583//341 560//341
f 551//320 580//320 575//320
f 554//321 576//321 580//321
f 568//322 549//322 545//322
f 549//323 567//323 543//323
f 375//331 585//331 582//331
f 381//330 583//330 585//330
f 574//326 374//326 369//326
f 374//327 573//327 366//327
f 568//342 362//342 572//342
f 572//329 359//329 566//329
f 337//332 384//332 360//332
f 83//1 5//1 2//1
f 17//2 23//2 20//2
f 23//3 29//3 26//3
f 29//4 35//4 32//4
f 35//5 41//5 38//5
f 41//6 47//6 44//6
f 47//7 53//7 50//7
f 53//8 59//8 56//8
f 59//9 65//9 62//9
f 65//10 71//10 68//10
f 71//11 77//11 74//11
f 77//12 83//12 80//12
f 11//13 17//13 14//13
f 16//14 10//14 4//14
f 4//14 82//14 76//14
f 76//14 70//14 64//14
f 64//14 58//14 52//14
f 52//14 46//14 40//14
f 40//14 34//14 28//14
f 28//14 22//14 16//14
f 16//14 4//14 76//14
f 76//14 64//14 52//14
f 52//14 40//14 28//14
f 28//14 16//14 76//14
f 5//15 11//15 8//15
f 2//16 8//16 9//16
f 9//17 7//17 1//17
f 5//18 6//18 12//18
f 6//19 4//19 10//19
f 14//20 15//20 9//20
f 9//21 15//21 13//21
f 11//22 12//22 18//22
f 12//23 10//23 16//23
f 14//24 20//24 21//24
f 21//25 19//25 13//25
f 17//26 18//26 24//26
f 18//27 16//27 22//27
f 20//28 26//28 27//28
f 27//29 25//29 19//29
f 29//30 23//30 24//30
f 24//31 22//31 28//31
f 32//32 33//32 27//32
f 33//33 31//33 25//33
f 35//34 29//34 30//34
f 30//35 28//35 34//35
f 38//36 39//36 33//36
f 39//37 37//37 31//37
f 35//38 36//38 42//38
f 42//39 36//39 34//39
f 44//40 45//40 39//40
f 45//41 43//41 37//41
f 47//42 41//42 42//42
f 42//43 40//43 46//43
f 44//44 50//44 51//44
f 51//45 49//45 43//45
f 47//46 48//46 54//46
f 48//47 46//47 52//47
f 56//48 57//48 51//48
f 51//49 57//49 55//49
f 53//50 54//50 60//50
f 54//51 52//51 58//51
f 56//52 62//52 63//52
f 63//53 61//53 55//53
f 59//54 60//54 66//54
f 60//55 58//55 64//55
f 62//56 68//56 69//56
f 69//57 67//57 61//57
f 71//58 65//58 66//58
f 66//59 64//59 70//59
f 74//60 75//60 69//60
f 75//61 73//61 67//61
f 77//62 71//62 72//62
f 72//63 70//63 76//63
f 80//64 81//64 75//64
f 81//65 79//65 73//65
f 77//66 78//66 84//66
f 84//67 78//67 76//67
f 2//68 3//68 81//68
f 3//69 1//69 79//69
f 5//70 83//70 84//70
f 84//71 82//71 4//71
f 79//72 1//72 7//72
f 7//72 13//72 19//72
f 19//72 25//72 31//72
f 31//72 37//72 43//72
f 43//72 49//72 55//72
f 55//72 61//72 67//72
f 67//72 73//72 79//72
f 79//72 7//72 19//72
f 19//72 31//72 43//72
f 43//72 55//72 67//72
f 67//72 79//72 19//72
f 115//73 109//73 131//73
f 86//76 125//76 147//76
f 116//77 139//77 148//77
f 87//78 89//78 155//78
f 322//80 117//80 123//80
f 321//81 314//81 107//81
f 331//82 125//82 86//82
f 316//83 105//83 85//83
f 147//86 170//86 90//86
f 130//87 154//87 163//87
f 155//88 89//88 91//88
f 138//89 162//89 171//89
f 170//91 193//91 92//91
f 153//92 177//92 186//92
f 91//93 93//93 201//93
f 161//94 185//94 194//94
f 183//97 176//97 200//97
f 201//98 93//98 95//98
f 184//99 208//99 217//99
f 193//102 216//102 94//102
f 95//103 97//103 247//103
f 207//104 231//104 240//104
f 216//107 239//107 96//107
f 199//108 223//108 232//108
f 97//109 101//109 270//109
f 230//110 254//110 263//110
f 96//113 239//113 262//113
f 229//114 222//114 246//114
f 270//115 101//115 103//115
f 253//116 277//116 286//116
f 262//119 285//119 102//119
f 252//120 245//120 269//120
f 103//121 105//121 316//121
f 284//122 276//122 300//122
f 285//125 308//125 104//125
f 268//126 292//126 301//126
f 299//127 323//127 332//127
f 308//130 331//130 106//130
f 298//131 291//131 315//131
f 110//343 111//343 113//343
f 108//344 112//344 111//344
f 113//345 111//345 112//345
f 114//346 118//346 119//346
f 115//347 120//347 119//347
f 116//348 121//348 119//348
f 117//349 122//349 119//349
f 126//350 127//350 129//350
f 128//351 127//351 126//351
f 125//352 129//352 127//352
f 133//353 134//353 136//353
f 135//354 134//354 133//354
f 132//355 136//355 134//355
f 137//356 141//356 142//356
f 138//357 143//357 142//357
f 139//358 144//358 142//358
f 140//359 145//359 142//359
f 149//360 150//360 152//360
f 147//361 151//361 150//361
f 152//362 150//362 151//362
f 156//363 157//363 159//363
f 158//364 157//364 156//364
f 155//365 159//365 157//365
f 160//366 164//366 165//366
f 161//367 166//367 165//367
f 162//368 167//368 165//368
f 163//369 168//369 165//369
f 172//370 173//370 175//370
f 170//371 174//371 173//371
f 175//372 173//372 174//372
f 179//373 180//373 182//373
f 181//374 180//374 179//374
f 178//375 182//375 180//375
f 183//376 187//376 188//376
f 184//377 189//377 188//377
f 185//378 190//378 188//378
f 186//379 191//379 188//379
f 195//380 196//380 198//380
f 193//381 197//381 196//381
f 198//382 196//382 197//382
f 202//383 203//383 205//383
f 204//384 203//384 202//384
f 201//385 205//385 203//385
f 206//386 210//386 211//386
f 207//387 212//387 211//387
f 208//388 213//388 211//388
f 209//389 214//389 211//389
f 218//390 219//390 221//390
f 216//391 220//391 219//391
f 221//392 219//392 220//392
f 225//393 226//393 228//393
f 227//394 226//394 225//394
f 224//395 228//395 226//395
f 229//396 233//396 234//396
f 230//397 235//397 234//397
f 231//398 236//398 234//398
f 232//399 237//399 234//399
f 241//400 242//400 244//400
f 239//401 243//401 242//401
f 244//402 242//402 243//402
f 248//403 249//403 251//403
f 250//404 249//404 248//404
f 247//405 251//405 249//405
f 252//406 256//406 257//406
f 253//407 258//407 257//407
f 254//408 259//408 257//408
f 255//409 260//409 257//409
f 264//410 265//410 267//410
f 262//411 266//411 265//411
f 267//412 265//412 266//412
f 271//413 272//413 274//413
f 273//414 272//414 271//414
f 270//415 274//415 272//415
f 275//416 279//416 280//416
f 276//417 281//417 280//417
f 277//418 282//418 280//418
f 278//419 283//419 280//419
f 287//420 288//420 290//420
f 285//421 289//421 288//421
f 290//422 288//422 289//422
f 294//423 295//423 297//423
f 296//424 295//424 294//424
f 293//425 297//425 295//425
f 298//426 302//426 303//426
f 299//427 304//427 303//427
f 300//428 305//428 303//428
f 301//429 306//429 303//429
f 310//430 311//430 313//430
f 308//431 312//431 311//431
f 313//432 311//432 312//432
f 317//433 318//433 320//433
f 319//434 318//434 317//434
f 316//435 320//435 318//435
f 321//436 325//436 326//436
f 322//437 327//437 326//437
f 323//438 328//438 326//438
f 324//439 329//439 326//439
f 333//440 334//440 336//440
f 331//441 335//441 334//441
f 336//442 334//442 335//442
f 109//232 115//232 118//232
f 113//233 118//233 114//233
f 116//234 124//234 126//234
f 126//235 123//235 117//235
f 137//335 145//335 133//335
f 133//237 145//237 140//237
f 146//443 152//443 143//443
f 152//239 148//239 139//239
f 147//240 125//240 128//240
f 128//241 124//241 148//241
f 115//242 140//242 144//242
f 144//243 139//243 116//243
f 131//244 109//244 112//244
f 112//245 108//245 132//245
f 160//246 168//246 156//246
f 156//247 168//247 163//247
f 161//248 169//248 175//248
f 175//444 171//444 162//444
f 147//250 149//250 174//250
f 149//251 146//251 171//251
f 163//252 167//252 141//252
f 167//253 162//253 138//253
f 130//254 136//254 158//254
f 136//255 132//255 155//255
f 183//256 191//256 179//256
f 179//257 191//257 186//257
f 184//258 192//258 198//258
f 198//259 194//259 185//259
f 193//260 170//260 172//260
f 172//261 169//261 194//261
f 186//262 190//262 164//262
f 190//263 185//263 161//263
f 177//264 153//264 159//264
f 159//265 155//265 178//265
f 206//266 214//266 202//266
f 202//267 214//267 209//267
f 215//268 221//268 212//268
f 221//269 217//269 208//269
f 176//270 182//270 204//270
f 182//445 178//445 201//445
f 217//272 220//272 195//272
f 220//446 216//446 193//446
f 208//274 184//274 187//274
f 187//275 183//275 209//275
f 222//276 229//276 237//276
f 225//277 237//277 232//277
f 238//278 244//278 235//278
f 244//279 240//279 231//279
f 215//280 240//280 243//280
f 218//281 243//281 239//281
f 207//282 210//282 236//282
f 210//283 206//283 232//283
f 224//337 227//337 205//337
f 227//285 223//285 199//285
f 252//447 260//447 248//447
f 260//287 255//287 246//287
f 261//448 267//448 258//448
f 258//289 267//289 263//289
f 263//290 266//290 241//290
f 241//291 266//291 262//291
f 230//292 233//292 259//292
f 233//449 229//449 255//449
f 247//294 250//294 228//294
f 228//295 250//295 246//295
f 268//296 275//296 283//296
f 271//339 283//339 278//339
f 284//298 290//298 281//298
f 290//340 286//340 277//340
f 286//300 289//300 264//300
f 289//301 285//301 262//301
f 253//302 256//302 282//302
f 256//303 252//303 278//303
f 270//304 273//304 251//304
f 273//305 269//305 245//305
f 298//306 306//306 294//306
f 294//307 306//307 301//307
f 299//308 307//308 313//308
f 313//309 309//309 300//309
f 284//310 309//310 312//310
f 312//311 308//311 285//311
f 276//312 279//312 305//312
f 305//313 279//313 275//313
f 270//314 293//314 296//314
f 296//315 292//315 268//315
f 321//316 329//316 317//316
f 329//317 324//317 315//317
f 330//318 336//318 327//318
f 336//319 332//319 323//319
f 299//320 302//320 328//320
f 302//321 298//321 324//321
f 316//322 319//322 297//322
f 319//323 315//323 291//323
f 308//341 310//341 335//341
f 310//325 307//325 332//325
f 117//326 322//326 325//326
f 325//450 321//450 114//450
f 316//342 108//342 110//342
f 320//329 110//329 107//329
f 331//451 333//451 129//451
f 333//331 330//331 123//331
f 85//332 87//332 132//332
f 339//78 341//78 407//78
f 367//73 361//73 383//73
f 338//76 377//76 399//76
f 368//77 391//77 400//77
f 582//80 574//80 369//80
f 573//81 566//81 359//81
f 583//82 377//82 338//82
f 568//83 357//83 337//83
f 340//86 399//86 422//86
f 382//87 406//87 415//87
f 407//88 341//88 343//88
f 390//89 414//89 423//89
f 422//91 445//91 344//91
f 405//92 429//92 438//92
f 343//93 345//93 453//93
f 421//94 413//94 437//94
f 344//102 445//102 468//102
f 435//97 428//97 452//97
f 453//98 345//98 347//98
f 436//99 460//99 469//99
f 458//108 451//108 475//108
f 347//103 349//103 499//103
f 459//104 483//104 492//104
f 468//107 491//107 348//107
f 499//109 349//109 353//109
f 482//110 506//110 515//110
f 348//113 491//113 514//113
f 481//114 474//114 498//114
f 353//115 355//115 545//115
f 505//116 529//116 538//116
f 514//119 537//119 354//119
f 504//120 497//120 521//120
f 355//121 357//121 568//121
f 536//122 528//122 552//122
f 354//125 537//125 560//125
f 520//126 544//126 553//126
f 551//127 575//127 584//127
f 560//130 583//130 358//130
f 550//131 543//131 567//131
f 362//343 363//343 365//343
f 360//344 364//344 363//344
f 365//345 363//345 364//345
f 366//346 370//346 371//346
f 367//347 372//347 371//347
f 368//348 373//348 371//348
f 369//349 374//349 371//349
f 378//350 379//350 381//350
f 380//351 379//351 378//351
f 377//352 381//352 379//352
f 385//353 386//353 388//353
f 387//452 386//452 385//452
f 384//355 388//355 386//355
f 389//356 393//356 394//356
f 390//357 395//357 394//357
f 391//358 396//358 394//358
f 392//359 397//359 394//359
f 401//360 402//360 404//360
f 399//361 403//361 402//361
f 404//362 402//362 403//362
f 408//363 409//363 411//363
f 410//364 409//364 408//364
f 407//365 411//365 409//365
f 412//366 416//366 417//366
f 413//367 418//367 417//367
f 414//368 419//368 417//368
f 415//369 420//369 417//369
f 424//370 425//370 427//370
f 422//371 426//371 425//371
f 427//372 425//372 426//372
f 431//373 432//373 434//373
f 433//374 432//374 431//374
f 430//375 434//375 432//375
f 435//376 439//376 440//376
f 436//377 441//377 440//377
f 437//378 442//378 440//378
f 438//379 443//379 440//379
f 447//380 448//380 450//380
f 445//381 449//381 448//381
f 450//382 448//382 449//382
f 454//383 455//383 457//383
f 456//453 455//453 454//453
f 453//385 457//385 455//385
f 458//386 462//386 463//386
f 459//387 464//387 463//387
f 460//388 465//388 463//388
f 461//389 466//389 463//389
f 470//390 471//390 473//390
f 468//391 472//391 471//391
f 473//454 471//454 472//454
f 477//393 478//393 480//393
f 479//455 478//455 477//455
f 476//395 480//395 478//395
f 481//396 485//396 486//396
f 482//397 487//397 486//397
f 483//398 488//398 486//398
f 484//399 489//399 486//399
f 493//400 494//400 496//400
f 491//401 495//401 494//401
f 496//402 494//402 495//402
f 500//403 501//403 503//403
f 502//404 501//404 500//404
f 499//405 503//405 501//405
f 504//406 508//406 509//406
f 505//407 510//407 509//407
f 506//408 511//408 509//408
f 507//409 512//409 509//409
f 516//410 517//410 519//410
f 514//411 518//411 517//411
f 519//412 517//412 518//412
f 523//456 524//456 526//456
f 525//414 524//414 523//414
f 522//415 526//415 524//415
f 527//416 531//416 532//416
f 528//417 533//417 532//417
f 529//457 534//457 532//457
f 530//419 535//419 532//419
f 539//458 540//458 542//458
f 537//459 541//459 540//459
f 542//422 540//422 541//422
f 546//423 547//423 549//423
f 548//424 547//424 546//424
f 545//425 549//425 547//425
f 550//426 554//426 555//426
f 551//427 556//427 555//427
f 552//428 557//428 555//428
f 553//429 558//429 555//429
f 562//430 563//430 565//430
f 560//431 564//431 563//431
f 565//432 563//432 564//432
f 569//460 570//460 572//460
f 571//434 570//434 569//434
f 568//435 572//435 570//435
f 573//436 577//436 578//436
f 574//437 579//437 578//437
f 575//438 580//438 578//438
f 576//439 581//439 578//439
f 585//461 586//461 588//461
f 583//441 587//441 586//441
f 588//442 586//442 587//442
f 361//232 367//232 370//232
f 365//233 370//233 366//233
f 368//234 376//234 378//234
f 378//235 375//235 369//235
f 389//335 397//335 385//335
f 397//237 392//237 383//237
f 390//238 398//238 404//238
f 404//239 400//239 391//239
f 399//240 377//240 380//240
f 403//241 380//241 376//241
f 367//242 392//242 396//242
f 396//243 391//243 368//243
f 383//244 361//244 364//244
f 387//245 364//245 360//245
f 412//246 420//246 408//246
f 420//336 415//336 406//336
f 421//248 427//248 418//248
f 418//249 427//249 423//249
f 399//250 401//250 426//250
f 426//251 401//251 398//251
f 415//252 419//252 393//252
f 419//253 414//253 390//253
f 382//254 388//254 410//254
f 388//255 384//255 407//255
f 428//256 435//256 443//256
f 431//257 443//257 438//257
f 436//258 444//258 450//258
f 450//259 446//259 437//259
f 422//260 424//260 449//260
f 449//261 424//261 421//261
f 438//262 442//262 416//262
f 416//263 442//263 437//263
f 405//264 411//264 433//264
f 411//265 407//265 430//265
f 458//266 466//266 454//266
f 454//267 466//267 461//267
f 467//268 473//268 464//268
f 473//269 469//269 460//269
f 445//446 447//446 472//446
f 447//272 444//272 469//272
f 461//275 465//275 439//275
f 465//274 460//274 436//274
f 452//270 428//270 434//270
f 456//445 434//445 430//445
f 481//276 489//276 477//276
f 477//277 489//277 484//277
f 490//278 496//278 487//278
f 496//279 492//279 483//279
f 475//285 451//285 457//285
f 457//284 453//284 476//284
f 492//280 495//280 470//280
f 470//281 495//281 491//281
f 459//282 462//282 488//282
f 462//283 458//283 484//283
f 504//286 512//286 500//286
f 500//287 512//287 507//287
f 513//448 519//448 510//448
f 519//289 515//289 506//289
f 515//290 518//290 493//290
f 518//291 514//291 491//291
f 482//292 485//292 511//292
f 511//293 485//293 481//293
f 499//294 502//294 480//294
f 480//295 502//295 498//295
f 520//296 527//296 535//296
f 535//297 530//297 521//297
f 528//298 536//298 542//298
f 533//299 542//299 538//299
f 513//300 538//300 541//300
f 541//301 537//301 514//301
f 505//302 508//302 534//302
f 508//303 504//303 530//303
f 522//304 525//304 503//304
f 525//305 521//305 497//305
f 543//306 550//306 558//306
f 546//307 558//307 553//307
f 551//308 559//308 565//308
f 565//309 561//309 552//309
f 536//310 561//310 564//310
f 564//311 560//311 537//311
f 528//312 531//312 557//312
f 557//313 531//313 527//313
f 545//314 548//314 526//314
f 548//315 544//315 520//315
f 566//316 573//316 581//316
f 569//317 581//317 576//317
f 574//318 582//318 588//318
f 588//319 584//319 575//319
f 584//325 587//325 562//325
f 562//324 587//324 583//324
f 551//320 554//320 580//320
f 554//321 550//321 576//321
f 568//462 571//462 549//462
f 549//323 571//323 567//323
f 375//331 381//331 585//331
f 381//330 377//330 583//330
f 574//326 577//326 374//326
f 374//327 577//327 573//327
f 568//342 360//342 362//342
f 572//329 362//329 359//329
f 337//332 339//332 384//332
