# Blender 4.0.2
# www.blender.org
o Elevator_Molt
v 0.285008 1.112940 0.930147
v 0.285608 1.113555 0.930147
v 0.285183 1.113369 0.930147
v 0.395008 1.112940 0.930147
v 0.394408 1.113555 0.930147
v 0.394832 1.113369 0.930147
v 0.285008 1.112506 0.928244
v 0.285608 1.113060 0.927977
v 0.285183 1.112892 0.928058
v 0.395008 1.112506 0.928244
v 0.394408 1.113060 0.927977
v 0.394832 1.112892 0.928058
v 0.285008 1.111289 0.926719
v 0.285608 1.111673 0.926237
v 0.285183 1.111557 0.926383
v 0.395008 1.111289 0.926719
v 0.394408 1.111673 0.926237
v 0.394832 1.111557 0.926383
v 0.285008 1.109531 0.925872
v 0.285608 1.109668 0.925272
v 0.285183 1.109627 0.925454
v 0.395008 1.109531 0.925872
v 0.394408 1.109668 0.925272
v 0.394832 1.109627 0.925454
v 0.285008 1.107580 0.925872
v 0.285608 1.107443 0.925272
v 0.285183 1.107484 0.925454
v 0.395008 1.107580 0.925872
v 0.394408 1.107443 0.925272
v 0.394832 1.107484 0.925454
v 0.285008 1.105822 0.926719
v 0.285608 1.105438 0.926237
v 0.285183 1.105554 0.926383
v 0.395008 1.105822 0.926719
v 0.394408 1.105438 0.926237
v 0.394832 1.105554 0.926383
v 0.285008 1.104605 0.928244
v 0.285608 1.104051 0.927977
v 0.285183 1.104219 0.928058
v 0.395008 1.104605 0.928244
v 0.394408 1.104051 0.927977
v 0.394832 1.104219 0.928058
v 0.285008 1.104171 0.930147
v 0.285608 1.103555 0.930147
v 0.285183 1.103742 0.930147
v 0.395008 1.104171 0.930147
v 0.394408 1.103555 0.930147
v 0.394832 1.103742 0.930147
v 0.285008 1.104605 0.932049
v 0.285608 1.104051 0.932316
v 0.285183 1.104219 0.932235
v 0.395008 1.104605 0.932049
v 0.394408 1.104051 0.932316
v 0.394832 1.104219 0.932235
v 0.285008 1.105822 0.933575
v 0.285608 1.105438 0.934056
v 0.285183 1.105554 0.933910
v 0.395008 1.105822 0.933575
v 0.394408 1.105438 0.934056
v 0.394832 1.105554 0.933910
v 0.285008 1.107580 0.934421
v 0.285608 1.107443 0.935021
v 0.285183 1.107484 0.934839
v 0.395008 1.107580 0.934421
v 0.394408 1.107443 0.935021
v 0.394832 1.107484 0.934839
v 0.285008 1.109531 0.934421
v 0.285608 1.109668 0.935021
v 0.285183 1.109627 0.934839
v 0.395008 1.109531 0.934421
v 0.394408 1.109668 0.935021
v 0.394832 1.109627 0.934839
v 0.285008 1.111289 0.933575
v 0.285608 1.111673 0.934056
v 0.285183 1.111557 0.933910
v 0.395008 1.111289 0.933575
v 0.394408 1.111673 0.934056
v 0.394832 1.111557 0.933910
v 0.285008 1.112506 0.932049
v 0.285608 1.113060 0.932316
v 0.285183 1.112892 0.932235
v 0.395008 1.112506 0.932049
v 0.394408 1.113060 0.932316
v 0.394832 1.112892 0.932235
v 0.287947 1.112601 0.934044
v 0.287947 1.112601 0.926249
v 0.289763 1.110101 0.934044
v 0.289763 1.110101 0.926249
v 0.289763 1.107010 0.934044
v 0.289763 1.107010 0.926249
v 0.287947 1.104510 0.934044
v 0.287947 1.104510 0.926249
v 0.285008 1.103555 0.934044
v 0.285008 1.103555 0.926249
v 0.282069 1.104510 0.934044
v 0.282069 1.104510 0.926249
v 0.280252 1.107010 0.934044
v 0.280252 1.107010 0.926249
v 0.285008 1.108555 0.925646
v 0.285008 1.108555 0.934646
v 0.280252 1.110101 0.934044
v 0.280252 1.110101 0.926249
v 0.282069 1.112601 0.934044
v 0.282069 1.112601 0.926249
v 0.285008 1.113555 0.934044
v 0.285008 1.113555 0.926249
v 0.289703 1.116001 0.931874
v 0.289763 1.115100 0.932653
v 0.290638 1.115322 0.931874
v 0.289749 1.115599 0.932319
v 0.290068 1.115521 0.932226
v 0.290242 1.115241 0.932319
v 0.290204 1.115708 0.931909
v 0.290125 1.116582 0.930669
v 0.291060 1.115903 0.930669
v 0.291060 1.115903 0.929624
v 0.290125 1.116582 0.929624
v 0.290626 1.116289 0.930703
v 0.290710 1.116404 0.930147
v 0.291159 1.115975 0.930147
v 0.290626 1.116289 0.929590
v 0.290163 1.116698 0.930147
v 0.289703 1.116001 0.928419
v 0.290638 1.115322 0.928419
v 0.289763 1.115100 0.927640
v 0.290204 1.115708 0.928384
v 0.290068 1.115521 0.928067
v 0.290242 1.115241 0.927974
v 0.289749 1.115599 0.927974
v 0.293540 1.110720 0.931874
v 0.293182 1.111819 0.931874
v 0.292702 1.111055 0.932653
v 0.293416 1.111287 0.931909
v 0.293196 1.111216 0.932226
v 0.292983 1.111467 0.932319
v 0.293172 1.110888 0.932319
v 0.294223 1.110942 0.930669
v 0.294223 1.110942 0.929624
v 0.293865 1.112041 0.929624
v 0.293865 1.112041 0.930669
v 0.294345 1.110942 0.930147
v 0.294234 1.111553 0.930147
v 0.294099 1.111509 0.929590
v 0.293964 1.112113 0.930147
v 0.294099 1.111509 0.930703
v 0.293540 1.110720 0.928419
v 0.292702 1.111055 0.927640
v 0.293182 1.111819 0.928419
v 0.293172 1.110888 0.927974
v 0.293196 1.111216 0.928067
v 0.292983 1.111467 0.927974
v 0.293416 1.111287 0.928384
v 0.293182 1.105292 0.931874
v 0.293540 1.106391 0.931874
v 0.292702 1.106055 0.932653
v 0.293416 1.105824 0.931909
v 0.293196 1.105895 0.932226
v 0.293172 1.106223 0.932319
v 0.292983 1.105644 0.932319
v 0.293865 1.105070 0.930669
v 0.293865 1.105070 0.929624
v 0.294223 1.106169 0.929624
v 0.294223 1.106169 0.930669
v 0.293964 1.104998 0.930147
v 0.294234 1.105557 0.930147
v 0.294099 1.105602 0.929590
v 0.294345 1.106169 0.930147
v 0.294099 1.105602 0.930703
v 0.293182 1.105292 0.928419
v 0.292702 1.106055 0.927640
v 0.293540 1.106391 0.928419
v 0.292983 1.105644 0.927974
v 0.293196 1.105895 0.928067
v 0.293172 1.106223 0.927974
v 0.293416 1.105824 0.928384
v 0.289703 1.101110 0.931874
v 0.290638 1.101789 0.931874
v 0.289763 1.102010 0.932653
v 0.290204 1.101403 0.931909
v 0.290068 1.101590 0.932226
v 0.290242 1.101870 0.932319
v 0.289749 1.101512 0.932319
v 0.290125 1.100529 0.930669
v 0.290125 1.100529 0.929624
v 0.291060 1.101208 0.929624
v 0.291060 1.101208 0.930669
v 0.290163 1.100412 0.930147
v 0.290710 1.100707 0.930147
v 0.290626 1.100822 0.929590
v 0.291159 1.101136 0.930147
v 0.290626 1.100822 0.930703
v 0.289703 1.101110 0.928419
v 0.289763 1.102010 0.927640
v 0.290638 1.101789 0.928419
v 0.289749 1.101512 0.927974
v 0.290068 1.101590 0.928067
v 0.290242 1.101870 0.927974
v 0.290204 1.101403 0.928384
v 0.284430 1.099772 0.931874
v 0.285585 1.099772 0.931874
v 0.285008 1.100465 0.932653
v 0.285008 1.099715 0.931909
v 0.285008 1.099946 0.932226
v 0.285312 1.100070 0.932319
v 0.284703 1.100070 0.932319
v 0.284430 1.099054 0.930669
v 0.284430 1.099054 0.929624
v 0.285585 1.099054 0.929624
v 0.285585 1.099054 0.930669
v 0.284392 1.098938 0.930147
v 0.285008 1.098854 0.930147
v 0.285008 1.098997 0.929590
v 0.285623 1.098938 0.930147
v 0.285008 1.098997 0.930703
v 0.284430 1.099772 0.928419
v 0.285008 1.100465 0.927640
v 0.285585 1.099772 0.928419
v 0.284703 1.100070 0.927974
v 0.285008 1.099946 0.928067
v 0.285312 1.100070 0.927974
v 0.285008 1.099715 0.928384
v 0.279377 1.101789 0.931874
v 0.280312 1.101110 0.931874
v 0.280252 1.102010 0.932653
v 0.279811 1.101403 0.931909
v 0.279947 1.101590 0.932226
v 0.280267 1.101512 0.932319
v 0.279774 1.101870 0.932319
v 0.278955 1.101208 0.930669
v 0.278955 1.101208 0.929624
v 0.279890 1.100529 0.929624
v 0.279890 1.100529 0.930669
v 0.278856 1.101136 0.930147
v 0.279305 1.100707 0.930147
v 0.279389 1.100822 0.929590
v 0.279853 1.100412 0.930147
v 0.279389 1.100822 0.930703
v 0.279377 1.101789 0.928419
v 0.280252 1.102010 0.927640
v 0.280312 1.101110 0.928419
v 0.279774 1.101870 0.927974
v 0.279947 1.101590 0.928067
v 0.280267 1.101512 0.927974
v 0.279811 1.101403 0.928384
v 0.276476 1.106391 0.931874
v 0.276833 1.105292 0.931874
v 0.277314 1.106055 0.932653
v 0.276600 1.105824 0.931909
v 0.276819 1.105895 0.932226
v 0.277032 1.105644 0.932319
v 0.276843 1.106223 0.932319
v 0.275793 1.106169 0.930669
v 0.275793 1.106169 0.929624
v 0.276150 1.105070 0.929624
v 0.276150 1.105070 0.930669
v 0.275670 1.106169 0.930147
v 0.275781 1.105557 0.930147
v 0.275917 1.105602 0.929590
v 0.276051 1.104998 0.930147
v 0.275917 1.105602 0.930703
v 0.276476 1.106391 0.928419
v 0.277314 1.106055 0.927640
v 0.276833 1.105292 0.928419
v 0.276843 1.106223 0.927974
v 0.276819 1.105895 0.928067
v 0.277032 1.105644 0.927974
v 0.276600 1.105824 0.928384
v 0.276833 1.111819 0.931874
v 0.276476 1.110720 0.931874
v 0.277314 1.111055 0.932653
v 0.276600 1.111287 0.931909
v 0.276819 1.111216 0.932226
v 0.276843 1.110888 0.932319
v 0.277032 1.111467 0.932319
v 0.276150 1.112041 0.930669
v 0.276150 1.112041 0.929624
v 0.275793 1.110942 0.929624
v 0.275793 1.110942 0.930669
v 0.276051 1.112113 0.930147
v 0.275781 1.111553 0.930147
v 0.275917 1.111509 0.929590
v 0.275670 1.110942 0.930147
v 0.275917 1.111509 0.930703
v 0.276833 1.111819 0.928419
v 0.277314 1.111055 0.927640
v 0.276476 1.110720 0.928419
v 0.277032 1.111467 0.927974
v 0.276819 1.111216 0.928067
v 0.276843 1.110888 0.927974
v 0.276600 1.111287 0.928384
v 0.280312 1.116001 0.931874
v 0.279377 1.115322 0.931874
v 0.280252 1.115100 0.932653
v 0.279811 1.115708 0.931909
v 0.279947 1.115521 0.932226
v 0.279774 1.115241 0.932319
v 0.280267 1.115599 0.932319
v 0.279890 1.116582 0.930669
v 0.279890 1.116582 0.929624
v 0.278955 1.115903 0.929624
v 0.278955 1.115903 0.930669
v 0.279853 1.116698 0.930147
v 0.279305 1.116404 0.930147
v 0.279389 1.116289 0.929590
v 0.278856 1.115975 0.930147
v 0.279389 1.116289 0.930703
v 0.280312 1.116001 0.928419
v 0.280252 1.115100 0.927640
v 0.279377 1.115322 0.928419
v 0.280267 1.115599 0.927974
v 0.279947 1.115521 0.928067
v 0.279774 1.115241 0.927974
v 0.279811 1.115708 0.928384
v 0.285585 1.117339 0.931874
v 0.284430 1.117339 0.931874
v 0.285008 1.116645 0.932653
v 0.285008 1.117396 0.931909
v 0.285008 1.117165 0.932226
v 0.284703 1.117041 0.932319
v 0.285312 1.117041 0.932319
v 0.285585 1.118057 0.930669
v 0.285585 1.118057 0.929624
v 0.284430 1.118057 0.929624
v 0.284430 1.118057 0.930669
v 0.285623 1.118173 0.930147
v 0.285008 1.118257 0.930147
v 0.285008 1.118114 0.929590
v 0.284392 1.118173 0.930147
v 0.285008 1.118114 0.930703
v 0.285585 1.117339 0.928419
v 0.285008 1.116645 0.927640
v 0.284430 1.117339 0.928419
v 0.285312 1.117041 0.927974
v 0.285008 1.117165 0.928067
v 0.284703 1.117041 0.927974
v 0.285008 1.117396 0.928384
v 0.397947 1.112601 0.934044
v 0.397947 1.112601 0.926249
v 0.399763 1.110101 0.934044
v 0.399763 1.110101 0.926249
v 0.399763 1.107010 0.934044
v 0.399763 1.107010 0.926249
v 0.397947 1.104510 0.934044
v 0.397947 1.104510 0.926249
v 0.395008 1.103555 0.934044
v 0.395008 1.103555 0.926249
v 0.392069 1.104510 0.934044
v 0.392069 1.104510 0.926249
v 0.390252 1.107010 0.934044
v 0.390252 1.107010 0.926249
v 0.395008 1.108555 0.925646
v 0.395008 1.108555 0.934646
v 0.390252 1.110101 0.934044
v 0.390252 1.110101 0.926249
v 0.392069 1.112601 0.934044
v 0.392069 1.112601 0.926249
v 0.395008 1.113555 0.934044
v 0.395008 1.113555 0.926249
v 0.399703 1.116001 0.931874
v 0.399763 1.115100 0.932653
v 0.400638 1.115322 0.931874
v 0.399749 1.115599 0.932319
v 0.400068 1.115521 0.932226
v 0.400242 1.115241 0.932319
v 0.400204 1.115708 0.931909
v 0.400125 1.116582 0.930669
v 0.401060 1.115903 0.930669
v 0.401060 1.115903 0.929624
v 0.400125 1.116582 0.929624
v 0.400626 1.116289 0.930703
v 0.400710 1.116404 0.930147
v 0.401159 1.115975 0.930147
v 0.400626 1.116289 0.929590
v 0.400163 1.116698 0.930147
v 0.399703 1.116001 0.928419
v 0.400638 1.115322 0.928419
v 0.399763 1.115100 0.927640
v 0.400204 1.115708 0.928384
v 0.400068 1.115521 0.928067
v 0.400242 1.115241 0.927974
v 0.399749 1.115599 0.927974
v 0.403540 1.110720 0.931874
v 0.403183 1.111819 0.931874
v 0.402702 1.111055 0.932653
v 0.403416 1.111287 0.931909
v 0.403196 1.111216 0.932226
v 0.402983 1.111467 0.932319
v 0.403172 1.110888 0.932319
v 0.404223 1.110942 0.930669
v 0.404223 1.110942 0.929624
v 0.403865 1.112041 0.929624
v 0.403865 1.112041 0.930669
v 0.404345 1.110942 0.930147
v 0.404234 1.111553 0.930147
v 0.404099 1.111509 0.929590
v 0.403964 1.112113 0.930147
v 0.404099 1.111509 0.930703
v 0.403540 1.110720 0.928419
v 0.402702 1.111055 0.927640
v 0.403183 1.111819 0.928419
v 0.403172 1.110888 0.927974
v 0.403196 1.111216 0.928067
v 0.402983 1.111467 0.927974
v 0.403416 1.111287 0.928384
v 0.403183 1.105292 0.931874
v 0.403540 1.106391 0.931874
v 0.402702 1.106055 0.932653
v 0.403416 1.105824 0.931909
v 0.403196 1.105895 0.932226
v 0.403172 1.106223 0.932319
v 0.402983 1.105644 0.932319
v 0.403865 1.105070 0.930669
v 0.403865 1.105070 0.929624
v 0.404223 1.106169 0.929624
v 0.404223 1.106169 0.930669
v 0.403964 1.104998 0.930147
v 0.404234 1.105557 0.930147
v 0.404099 1.105602 0.929590
v 0.404345 1.106169 0.930147
v 0.404099 1.105602 0.930703
v 0.403183 1.105292 0.928419
v 0.402702 1.106055 0.927640
v 0.403540 1.106391 0.928419
v 0.402983 1.105644 0.927974
v 0.403196 1.105895 0.928067
v 0.403172 1.106223 0.927974
v 0.403416 1.105824 0.928384
v 0.399703 1.101110 0.931874
v 0.400638 1.101789 0.931874
v 0.399763 1.102010 0.932653
v 0.400204 1.101403 0.931909
v 0.400068 1.101590 0.932226
v 0.400242 1.101870 0.932319
v 0.399749 1.101512 0.932319
v 0.400125 1.100529 0.930669
v 0.400125 1.100529 0.929624
v 0.401060 1.101208 0.929624
v 0.401060 1.101208 0.930669
v 0.400163 1.100412 0.930147
v 0.400710 1.100707 0.930147
v 0.400626 1.100822 0.929590
v 0.401159 1.101136 0.930147
v 0.400626 1.100822 0.930703
v 0.399703 1.101110 0.928419
v 0.399763 1.102010 0.927640
v 0.400638 1.101789 0.928419
v 0.399749 1.101512 0.927974
v 0.400068 1.101590 0.928067
v 0.400242 1.101870 0.927974
v 0.400204 1.101403 0.928384
v 0.394430 1.099772 0.931874
v 0.395586 1.099772 0.931874
v 0.395008 1.100465 0.932653
v 0.395008 1.099715 0.931909
v 0.395008 1.099946 0.932226
v 0.395312 1.100070 0.932319
v 0.394703 1.100070 0.932319
v 0.394430 1.099054 0.930669
v 0.394430 1.099054 0.929624
v 0.395586 1.099054 0.929624
v 0.395586 1.099054 0.930669
v 0.394392 1.098938 0.930147
v 0.395008 1.098854 0.930147
v 0.395008 1.098997 0.929590
v 0.395623 1.098938 0.930147
v 0.395008 1.098997 0.930703
v 0.394430 1.099772 0.928419
v 0.395008 1.100465 0.927640
v 0.395586 1.099772 0.928419
v 0.394703 1.100070 0.927974
v 0.395008 1.099946 0.928067
v 0.395312 1.100070 0.927974
v 0.395008 1.099715 0.928384
v 0.389377 1.101789 0.931874
v 0.390312 1.101110 0.931874
v 0.390252 1.102010 0.932653
v 0.389811 1.101403 0.931909
v 0.389947 1.101590 0.932226
v 0.390267 1.101512 0.932319
v 0.389774 1.101870 0.932319
v 0.388955 1.101208 0.930669
v 0.388955 1.101208 0.929624
v 0.389890 1.100529 0.929624
v 0.389890 1.100529 0.930669
v 0.388856 1.101136 0.930147
v 0.389305 1.100707 0.930147
v 0.389389 1.100822 0.929590
v 0.389853 1.100412 0.930147
v 0.389389 1.100822 0.930703
v 0.389377 1.101789 0.928419
v 0.390252 1.102010 0.927640
v 0.390312 1.101110 0.928419
v 0.389774 1.101870 0.927974
v 0.389947 1.101590 0.928067
v 0.390267 1.101512 0.927974
v 0.389811 1.101403 0.928384
v 0.386476 1.106391 0.931874
v 0.386833 1.105292 0.931874
v 0.387314 1.106055 0.932653
v 0.386600 1.105824 0.931909
v 0.386819 1.105895 0.932226
v 0.387032 1.105644 0.932319
v 0.386843 1.106223 0.932319
v 0.385793 1.106169 0.930669
v 0.385793 1.106169 0.929624
v 0.386150 1.105070 0.929624
v 0.386150 1.105070 0.930669
v 0.385670 1.106169 0.930147
v 0.385781 1.105557 0.930147
v 0.385917 1.105602 0.929590
v 0.386051 1.104998 0.930147
v 0.385917 1.105602 0.930703
v 0.386476 1.106391 0.928419
v 0.387314 1.106055 0.927640
v 0.386833 1.105292 0.928419
v 0.386843 1.106223 0.927974
v 0.386819 1.105895 0.928067
v 0.387032 1.105644 0.927974
v 0.386600 1.105824 0.928384
v 0.386833 1.111819 0.931874
v 0.386476 1.110720 0.931874
v 0.387314 1.111055 0.932653
v 0.386600 1.111287 0.931909
v 0.386819 1.111216 0.932226
v 0.386843 1.110888 0.932319
v 0.387032 1.111467 0.932319
v 0.386150 1.112041 0.930669
v 0.386150 1.112041 0.929624
v 0.385793 1.110942 0.929624
v 0.385793 1.110942 0.930669
v 0.386051 1.112113 0.930147
v 0.385781 1.111553 0.930147
v 0.385917 1.111509 0.929590
v 0.385670 1.110942 0.930147
v 0.385917 1.111509 0.930703
v 0.386833 1.111819 0.928419
v 0.387314 1.111055 0.927640
v 0.386476 1.110720 0.928419
v 0.387032 1.111467 0.927974
v 0.386819 1.111216 0.928067
v 0.386843 1.110888 0.927974
v 0.386600 1.111287 0.928384
v 0.390312 1.116001 0.931874
v 0.389377 1.115322 0.931874
v 0.390252 1.115100 0.932653
v 0.389811 1.115708 0.931909
v 0.389947 1.115521 0.932226
v 0.389774 1.115241 0.932319
v 0.390267 1.115599 0.932319
v 0.389890 1.116582 0.930669
v 0.389890 1.116582 0.929624
v 0.388955 1.115903 0.929624
v 0.388955 1.115903 0.930669
v 0.389853 1.116698 0.930147
v 0.389305 1.116404 0.930147
v 0.389389 1.116289 0.929590
v 0.388856 1.115975 0.930147
v 0.389389 1.116289 0.930703
v 0.390312 1.116001 0.928419
v 0.390252 1.115100 0.927640
v 0.389377 1.115322 0.928419
v 0.390267 1.115599 0.927974
v 0.389947 1.115521 0.928067
v 0.389774 1.115241 0.927974
v 0.389811 1.115708 0.928384
v 0.395586 1.117339 0.931874
v 0.394430 1.117339 0.931874
v 0.395008 1.116645 0.932653
v 0.395008 1.117396 0.931909
v 0.395008 1.117165 0.932226
v 0.394703 1.117041 0.932319
v 0.395312 1.117041 0.932319
v 0.395586 1.118057 0.930669
v 0.395586 1.118057 0.929624
v 0.394430 1.118057 0.929624
v 0.394430 1.118057 0.930669
v 0.395623 1.118173 0.930147
v 0.395008 1.118257 0.930147
v 0.395008 1.118114 0.929590
v 0.394392 1.118173 0.930147
v 0.395008 1.118114 0.930703
v 0.395586 1.117339 0.928419
v 0.395008 1.116645 0.927640
v 0.394430 1.117339 0.928419
v 0.395312 1.117041 0.927974
v 0.395008 1.117165 0.928067
v 0.394703 1.117041 0.927974
v 0.395008 1.117396 0.928384
vn -0.0000 0.9749 0.2225
vn -0.0000 0.4339 -0.9010
vn -0.0000 -0.0000 -1.0000
vn -0.0000 -0.4339 -0.9010
vn -0.0000 -0.7818 -0.6235
vn -0.0000 -0.9749 -0.2225
vn -0.0000 -0.9749 0.2225
vn -0.0000 -0.7818 0.6235
vn -0.0000 -0.4339 0.9010
vn -0.0000 -0.0000 1.0000
vn -0.0000 0.4339 0.9010
vn -0.0000 0.7818 0.6235
vn -0.0000 0.7818 -0.6235
vn 1.0000 -0.0000 -0.0000
vn -0.0000 0.9749 -0.2225
vn -0.3940 0.8961 -0.2045
vn -0.9219 0.3778 -0.0862
vn 0.3940 0.8961 -0.2045
vn 0.9219 0.3778 -0.0862
vn -0.3940 0.7186 -0.5730
vn -0.9219 0.3029 -0.2416
vn 0.3940 0.7186 -0.5731
vn 0.9219 0.3029 -0.2416
vn -0.3940 0.3988 -0.8281
vn -0.9219 0.1681 -0.3491
vn 0.3940 0.3988 -0.8281
vn 0.9219 0.1681 -0.3491
vn -0.3940 -0.0000 -0.9191
vn -0.9219 -0.0000 -0.3875
vn 0.3940 -0.0000 -0.9191
vn 0.9219 -0.0000 -0.3875
vn -0.3940 -0.3988 -0.8281
vn -0.9219 -0.1681 -0.3491
vn 0.3940 -0.3988 -0.8281
vn 0.9219 -0.1681 -0.3491
vn -0.3940 -0.7186 -0.5731
vn -0.9219 -0.3029 -0.2416
vn 0.3940 -0.7186 -0.5730
vn 0.9219 -0.3029 -0.2416
vn -0.3940 -0.8961 -0.2045
vn -0.9219 -0.3778 -0.0862
vn 0.3940 -0.8961 -0.2045
vn 0.9219 -0.3778 -0.0862
vn -0.3940 -0.8961 0.2045
vn -0.9219 -0.3778 0.0862
vn 0.3940 -0.8961 0.2045
vn 0.9219 -0.3778 0.0862
vn -0.3940 -0.7186 0.5730
vn -0.9219 -0.3029 0.2416
vn 0.3940 -0.7186 0.5731
vn 0.9219 -0.3029 0.2416
vn -0.3940 -0.3988 0.8281
vn -0.9219 -0.1681 0.3491
vn 0.3940 -0.3988 0.8281
vn 0.9219 -0.1681 0.3491
vn -0.3940 -0.0000 0.9191
vn -0.9219 -0.0000 0.3875
vn 0.3940 -0.0000 0.9191
vn 0.9219 -0.0000 0.3875
vn -0.3940 0.3988 0.8281
vn -0.9219 0.1681 0.3491
vn 0.3940 0.3988 0.8281
vn 0.9219 0.1681 0.3491
vn -0.3940 0.7186 0.5731
vn -0.9219 0.3029 0.2416
vn 0.3940 0.7186 0.5730
vn 0.9219 0.3029 0.2416
vn -0.3940 0.8961 0.2045
vn -0.9219 0.3778 0.0862
vn 0.3940 0.8961 0.2045
vn 0.9219 0.3778 0.0862
vn -1.0000 -0.0000 -0.0000
vn 0.4277 -0.0000 0.9039
vn 0.7040 0.5115 0.4928
vn 0.0389 0.1196 0.9921
vn 0.0389 0.1196 -0.9921
vn 0.3460 0.2514 -0.9039
vn 0.7040 0.5115 -0.4928
vn 0.1018 0.0739 0.9921
vn 0.1018 0.0739 -0.9921
vn 0.2689 0.8276 -0.4928
vn 0.2689 0.8276 0.4928
vn 0.1322 0.4068 -0.9039
vn 0.1322 0.4068 0.9039
vn 0.1258 -0.0000 -0.9921
vn 0.4277 -0.0000 -0.9039
vn 0.8702 -0.0000 0.4928
vn 0.3460 -0.2514 0.9039
vn 0.8702 -0.0000 -0.4928
vn 0.1258 -0.0000 0.9921
vn 0.1018 -0.0739 -0.9921
vn 0.3460 -0.2514 -0.9039
vn 0.7040 -0.5115 0.4928
vn 0.1322 -0.4068 0.9039
vn 0.7040 -0.5115 -0.4928
vn 0.1018 -0.0739 0.9921
vn 0.0389 -0.1196 -0.9921
vn 0.1322 -0.4068 -0.9039
vn 0.2689 -0.8276 0.4928
vn -0.1322 -0.4068 0.9039
vn 0.2689 -0.8276 -0.4928
vn 0.0389 -0.1196 0.9921
vn -0.1322 -0.4068 -0.9039
vn -0.2689 -0.8276 0.4928
vn -0.3460 -0.2514 0.9039
vn -0.2689 -0.8276 -0.4928
vn -0.0389 -0.1196 0.9921
vn -0.0389 -0.1196 -0.9921
vn -0.7040 -0.5115 0.4928
vn -0.4277 -0.0000 0.9039
vn -0.7040 -0.5115 -0.4928
vn -0.1018 -0.0739 0.9921
vn -0.1018 -0.0739 -0.9921
vn -0.3460 -0.2514 -0.9039
vn -0.3460 0.2514 0.9039
vn -0.8702 -0.0000 -0.4928
vn -0.1258 -0.0000 0.9921
vn -0.1258 -0.0000 -0.9921
vn -0.4277 -0.0000 -0.9039
vn -0.8702 -0.0000 0.4928
vn -0.1322 0.4068 0.9039
vn -0.7040 0.5115 -0.4928
vn -0.1018 0.0739 0.9921
vn -0.1018 0.0739 -0.9921
vn -0.3460 0.2514 -0.9039
vn -0.7040 0.5115 0.4928
vn -0.2689 0.8276 -0.4928
vn -0.0389 0.1196 0.9921
vn -0.0389 0.1196 -0.9921
vn -0.1322 0.4068 -0.9039
vn -0.2689 0.8276 0.4928
vn 0.3727 0.7071 0.6009
vn 0.3529 0.5278 0.7726
vn 0.5574 0.5729 0.6009
vn 0.4612 0.8583 0.2249
vn 0.6551 0.7140 0.2472
vn 0.6738 0.7039 -0.2249
vn 0.4766 0.8436 -0.2472
vn 0.3727 0.7071 -0.6009
vn 0.5574 0.5729 -0.6009
vn 0.3930 0.4987 -0.7726
vn 0.7877 0.1359 0.6009
vn 0.7171 0.3530 0.6009
vn 0.5957 0.2196 0.7726
vn 0.9496 0.1926 0.2472
vn 0.9588 0.1734 -0.2249
vn 0.8815 0.4024 -0.2472
vn 0.8776 0.4233 0.2249
vn 0.7877 0.1359 -0.6009
vn 0.6110 0.1725 -0.7726
vn 0.7171 0.3530 -0.6009
vn 0.7171 -0.3530 0.6009
vn 0.7877 -0.1359 0.6009
vn 0.6110 -0.1725 0.7726
vn 0.8815 -0.4024 0.2472
vn 0.8776 -0.4233 -0.2249
vn 0.9496 -0.1926 -0.2472
vn 0.9588 -0.1734 0.2249
vn 0.7171 -0.3530 -0.6009
vn 0.5957 -0.2196 -0.7726
vn 0.7877 -0.1359 -0.6009
vn 0.3727 -0.7071 0.6009
vn 0.5574 -0.5729 0.6009
vn 0.3930 -0.4987 0.7726
vn 0.4766 -0.8436 0.2472
vn 0.4612 -0.8583 -0.2249
vn 0.6551 -0.7140 -0.2472
vn 0.6738 -0.7039 0.2249
vn 0.3727 -0.7071 -0.6009
vn 0.3529 -0.5278 -0.7726
vn 0.5574 -0.5729 -0.6009
vn -0.1142 -0.7911 0.6009
vn 0.1142 -0.7911 0.6009
vn 0.0248 -0.6344 0.7726
vn -0.1103 -0.9627 0.2472
vn -0.1314 -0.9655 -0.2249
vn 0.1103 -0.9627 -0.2472
vn 0.1314 -0.9655 0.2249
vn -0.1142 -0.7911 -0.6009
vn -0.0248 -0.6344 -0.7726
vn 0.1142 -0.7911 -0.6009
vn -0.5574 -0.5729 0.6009
vn -0.3727 -0.7071 0.6009
vn -0.3529 -0.5278 0.7726
vn -0.6551 -0.7140 0.2472
vn -0.6738 -0.7039 -0.2249
vn -0.4766 -0.8436 -0.2472
vn -0.4612 -0.8583 0.2249
vn -0.5574 -0.5729 -0.6009
vn -0.3930 -0.4987 -0.7726
vn -0.3727 -0.7071 -0.6009
vn -0.7877 -0.1359 0.6009
vn -0.7171 -0.3530 0.6009
vn -0.5957 -0.2196 0.7726
vn -0.9496 -0.1926 0.2472
vn -0.9588 -0.1734 -0.2249
vn -0.8815 -0.4024 -0.2472
vn -0.8776 -0.4233 0.2249
vn -0.7877 -0.1359 -0.6009
vn -0.6110 -0.1725 -0.7726
vn -0.7171 -0.3530 -0.6009
vn -0.7171 0.3530 0.6009
vn -0.7877 0.1359 0.6009
vn -0.6111 0.1725 0.7726
vn -0.8815 0.4024 0.2472
vn -0.8776 0.4233 -0.2249
vn -0.9496 0.1926 -0.2472
vn -0.9588 0.1734 0.2250
vn -0.7171 0.3530 -0.6009
vn -0.5957 0.2196 -0.7726
vn -0.7877 0.1359 -0.6009
vn -0.3727 0.7071 0.6009
vn -0.5574 0.5729 0.6009
vn -0.3930 0.4987 0.7726
vn -0.4766 0.8436 0.2472
vn -0.4612 0.8583 -0.2249
vn -0.6551 0.7140 -0.2472
vn -0.6738 0.7039 0.2249
vn -0.3727 0.7071 -0.6009
vn -0.3529 0.5278 -0.7726
vn -0.5574 0.5729 -0.6009
vn 0.1142 0.7911 0.6009
vn -0.1142 0.7911 0.6009
vn -0.0248 0.6344 0.7726
vn 0.1103 0.9627 0.2472
vn 0.1314 0.9655 -0.2249
vn -0.1103 0.9627 -0.2472
vn -0.1314 0.9655 0.2249
vn 0.1142 0.7911 -0.6009
vn 0.0248 0.6344 -0.7726
vn -0.1142 0.7911 -0.6009
vn 0.5946 0.6230 0.5082
vn 0.4088 0.7580 0.5082
vn 0.5946 0.6230 -0.5082
vn 0.4088 0.7580 -0.5082
vn 0.8472 0.1545 0.5082
vn 0.7763 0.3730 0.5082
vn 0.8473 0.1545 -0.5082
vn 0.7763 0.3730 -0.5082
vn 0.4689 0.3407 -0.8149
vn 0.6231 0.4527 -0.6378
vn 0.7876 0.5723 0.2284
vn 0.7876 0.5723 -0.2284
vn 0.6231 0.4527 0.6378
vn 0.4689 0.3407 0.8149
vn 0.7763 -0.3730 0.5082
vn 0.8472 -0.1545 0.5082
vn 0.7763 -0.3730 -0.5082
vn 0.8473 -0.1545 -0.5082
vn 0.5796 -0.0000 -0.8149
vn 0.7702 -0.0000 -0.6378
vn 0.9736 -0.0000 0.2284
vn 0.9736 -0.0000 -0.2284
vn 0.7702 -0.0000 0.6378
vn 0.5796 -0.0000 0.8149
vn 0.4088 -0.7580 0.5082
vn 0.5946 -0.6230 0.5082
vn 0.4088 -0.7580 -0.5082
vn 0.5946 -0.6230 -0.5082
vn 0.4689 -0.3407 -0.8149
vn 0.6231 -0.4527 -0.6378
vn 0.7876 -0.5723 0.2284
vn 0.7876 -0.5723 -0.2284
vn 0.6231 -0.4527 0.6378
vn 0.4689 -0.3407 0.8149
vn -0.1149 -0.8535 0.5082
vn 0.1149 -0.8535 0.5082
vn -0.1149 -0.8535 -0.5082
vn 0.1149 -0.8535 -0.5082
vn 0.1791 -0.5512 -0.8149
vn 0.2380 -0.7325 -0.6378
vn 0.3009 -0.9259 0.2284
vn 0.3009 -0.9259 -0.2284
vn 0.2380 -0.7325 0.6378
vn 0.1791 -0.5513 0.8149
vn -0.5946 -0.6230 0.5082
vn -0.4088 -0.7580 0.5082
vn -0.5946 -0.6230 -0.5082
vn -0.4088 -0.7580 -0.5082
vn -0.1791 -0.5512 -0.8149
vn -0.2380 -0.7325 -0.6378
vn -0.3009 -0.9259 0.2284
vn -0.3009 -0.9259 -0.2284
vn -0.2380 -0.7325 0.6378
vn -0.1791 -0.5512 0.8149
vn -0.8473 -0.1545 0.5082
vn -0.7762 -0.3730 0.5082
vn -0.8472 -0.1545 -0.5082
vn -0.7763 -0.3730 -0.5082
vn -0.6231 -0.4527 0.6378
vn -0.4689 -0.3407 0.8149
vn -0.6231 -0.4527 -0.6378
vn -0.4689 -0.3407 -0.8149
vn -0.7876 -0.5723 -0.2284
vn -0.7876 -0.5723 0.2284
vn -0.7763 0.3730 0.5082
vn -0.8473 0.1545 0.5082
vn -0.7763 0.3730 -0.5082
vn -0.8472 0.1545 -0.5082
vn -0.7702 -0.0000 -0.6378
vn -0.5796 -0.0000 -0.8149
vn -0.9736 -0.0000 -0.2284
vn -0.9736 -0.0000 0.2284
vn -0.5796 -0.0000 0.8149
vn -0.7702 -0.0000 0.6378
vn -0.4088 0.7580 0.5082
vn -0.5946 0.6230 0.5082
vn -0.4088 0.7580 -0.5082
vn -0.5946 0.6230 -0.5082
vn -0.6231 0.4527 -0.6378
vn -0.4689 0.3407 -0.8149
vn -0.7876 0.5723 -0.2284
vn -0.7876 0.5723 0.2284
vn -0.4689 0.3407 0.8149
vn -0.6231 0.4527 0.6378
vn 0.1149 0.8535 0.5082
vn -0.1149 0.8535 0.5082
vn 0.1149 0.8535 -0.5082
vn -0.1149 0.8535 -0.5082
vn -0.2380 0.7325 -0.6378
vn -0.1791 0.5513 -0.8149
vn -0.3009 0.9259 -0.2284
vn -0.3009 0.9259 0.2284
vn -0.1791 0.5512 0.8149
vn -0.2380 0.7325 0.6378
vn 0.2380 0.7325 -0.6378
vn 0.1791 0.5512 -0.8149
vn 0.3009 0.9259 -0.2284
vn 0.3009 0.9259 0.2284
vn 0.1791 0.5513 0.8149
vn 0.2380 0.7325 0.6378
vn 0.3460 0.2514 0.9039
vn 0.6111 -0.1725 0.7726
vn -0.6110 0.1725 0.7726
vn -0.9588 0.1734 0.2249
vn 0.8473 0.1545 0.5082
vn 0.8472 0.1545 -0.5082
vn 0.8473 -0.1545 0.5082
vn 0.8472 -0.1545 -0.5082
vn 0.1791 -0.5513 -0.8149
vn -0.8472 -0.1545 0.5082
vn -0.7763 -0.3730 0.5082
vn -0.8473 -0.1545 -0.5082
vn -0.1791 0.5512 -0.8149
vn -0.1791 0.5513 0.8149
vn 0.1791 0.5513 -0.8149
vn -0.3940 0.7186 -0.5731
vn 0.3940 0.7186 -0.5730
vn -0.3940 -0.7186 -0.5730
vn 0.3940 -0.7186 -0.5731
vn -0.3940 -0.7186 0.5731
vn 0.3940 -0.7186 0.5730
vn -0.3940 0.7186 0.5730
vn 0.3940 0.7186 0.5731
vn 0.3483 0.7354 0.5813
vn 0.3930 0.4987 0.7726
vn 0.5918 0.5585 0.5813
vn 0.4766 0.8436 0.2472
vn 0.6738 0.7039 0.2249
vn 0.6551 0.7140 -0.2472
vn 0.4612 0.8583 -0.2249
vn 0.3483 0.7354 -0.5813
vn 0.5918 0.5585 -0.5813
vn 0.3529 0.5278 -0.7726
vn 0.8070 0.1040 0.5813
vn 0.7140 0.3902 0.5813
vn 0.6110 0.1725 0.7726
vn 0.9588 0.1734 0.2249
vn 0.9496 0.1926 -0.2472
vn 0.8776 0.4233 -0.2249
vn 0.8815 0.4024 0.2472
vn 0.8070 0.1040 -0.5813
vn 0.5957 0.2196 -0.7726
vn 0.7140 0.3903 -0.5813
vn 0.7140 -0.3903 0.5813
vn 0.8070 -0.1040 0.5813
vn 0.5957 -0.2196 0.7726
vn 0.8776 -0.4233 0.2249
vn 0.8815 -0.4024 -0.2472
vn 0.9588 -0.1734 -0.2249
vn 0.9496 -0.1926 0.2472
vn 0.7140 -0.3903 -0.5813
vn 0.6110 -0.1725 -0.7726
vn 0.8070 -0.1040 -0.5813
vn 0.3482 -0.7354 0.5813
vn 0.5918 -0.5585 0.5813
vn 0.3529 -0.5278 0.7726
vn 0.4612 -0.8583 0.2249
vn 0.4766 -0.8436 -0.2472
vn 0.6738 -0.7039 -0.2249
vn 0.6551 -0.7140 0.2472
vn 0.3482 -0.7354 -0.5813
vn 0.3930 -0.4987 -0.7726
vn 0.5918 -0.5585 -0.5813
vn -0.1505 -0.7996 0.5813
vn 0.1505 -0.7996 0.5813
vn -0.0248 -0.6344 0.7726
vn -0.1314 -0.9655 0.2249
vn -0.1103 -0.9627 -0.2472
vn 0.1314 -0.9655 -0.2249
vn 0.1103 -0.9627 0.2472
vn -0.1505 -0.7997 -0.5813
vn 0.0248 -0.6344 -0.7726
vn 0.1505 -0.7996 -0.5813
vn -0.5918 -0.5585 0.5813
vn -0.3482 -0.7354 0.5813
vn -0.3930 -0.4987 0.7726
vn -0.6738 -0.7039 0.2249
vn -0.6551 -0.7140 -0.2472
vn -0.4612 -0.8583 -0.2249
vn -0.4766 -0.8436 0.2472
vn -0.5918 -0.5585 -0.5813
vn -0.3529 -0.5278 -0.7726
vn -0.3483 -0.7354 -0.5813
vn -0.8070 -0.1040 0.5813
vn -0.7140 -0.3902 0.5813
vn -0.6110 -0.1725 0.7726
vn -0.9588 -0.1734 0.2249
vn -0.9496 -0.1926 -0.2472
vn -0.8776 -0.4233 -0.2249
vn -0.8815 -0.4024 0.2472
vn -0.8070 -0.1040 -0.5813
vn -0.5957 -0.2196 -0.7726
vn -0.7140 -0.3902 -0.5813
vn -0.7140 0.3902 0.5813
vn -0.8070 0.1040 0.5813
vn -0.5957 0.2196 0.7726
vn -0.8776 0.4233 0.2249
vn -0.8815 0.4024 -0.2472
vn -0.9588 0.1734 -0.2250
vn -0.9496 0.1926 0.2472
vn -0.7140 0.3902 -0.5813
vn -0.6111 0.1725 -0.7726
vn -0.8070 0.1040 -0.5813
vn -0.3482 0.7354 0.5813
vn -0.5918 0.5585 0.5813
vn -0.3529 0.5278 0.7726
vn -0.4612 0.8583 0.2249
vn -0.4766 0.8436 -0.2472
vn -0.6738 0.7039 -0.2249
vn -0.6551 0.7140 0.2472
vn -0.3482 0.7354 -0.5813
vn -0.3930 0.4987 -0.7726
vn -0.5918 0.5585 -0.5813
vn 0.1505 0.7996 0.5813
vn -0.1505 0.7996 0.5813
vn 0.0248 0.6344 0.7726
vn 0.1314 0.9655 0.2249
vn 0.1103 0.9627 -0.2472
vn -0.1314 0.9655 -0.2249
vn -0.1103 0.9627 0.2472
vn 0.1505 0.7996 -0.5813
vn -0.0248 0.6344 -0.7726
vn -0.1505 0.7996 -0.5813
vn 0.1791 -0.5512 0.8149
vn -0.1791 -0.5513 -0.8149
vn -0.1791 -0.5513 0.8149
vn -0.7876 -0.5723 0.2283
vn -0.8472 0.1545 0.5082
vn -0.8473 0.1545 -0.5082
vn 0.1791 0.5512 0.8149
vn 0.7140 0.3902 -0.5813
vn 0.7140 -0.3902 0.5813
vn 0.7140 -0.3902 -0.5813
vn -0.1505 -0.7996 -0.5813
vn -0.7140 -0.3903 -0.5813
vn -0.7140 0.3903 0.5813
vn -0.9588 0.1734 -0.2249
vn -0.7140 0.3903 -0.5813
vn -0.6110 0.1725 -0.7726
vn 0.1505 0.7997 0.5813
vn 0.1505 0.7997 -0.5813
vn 0.3008 -0.9259 0.2284
s 0
f 83//1 2//1 80//1
f 17//2 20//2 14//2
f 23//3 26//3 20//3
f 29//4 32//4 26//4
f 35//5 38//5 32//5
f 41//6 44//6 38//6
f 47//7 50//7 44//7
f 53//8 56//8 50//8
f 59//9 62//9 56//9
f 65//10 68//10 62//10
f 71//11 74//11 68//11
f 77//12 80//12 74//12
f 11//13 14//13 8//13
f 76//14 52//14 28//14
f 5//15 8//15 2//15
f 8//16 3//16 2//16
f 3//17 7//17 1//17
f 5//18 12//18 11//18
f 6//19 10//19 12//19
f 8//20 15//20 9//20
f 9//21 13//21 7//21
f 11//22 18//22 17//22
f 12//23 16//23 18//23
f 20//24 15//24 14//24
f 21//25 13//25 15//25
f 17//26 24//26 23//26
f 24//27 16//27 22//27
f 26//28 21//28 20//28
f 27//29 19//29 21//29
f 23//30 30//30 29//30
f 24//31 28//31 30//31
f 32//32 27//32 26//32
f 27//33 31//33 25//33
f 29//34 36//34 35//34
f 30//35 34//35 36//35
f 38//36 33//36 32//36
f 39//37 31//37 33//37
f 41//38 36//38 42//38
f 42//39 34//39 40//39
f 44//40 39//40 38//40
f 45//41 37//41 39//41
f 41//42 48//42 47//42
f 48//43 40//43 46//43
f 50//44 45//44 44//44
f 45//45 49//45 43//45
f 47//46 54//46 53//46
f 48//47 52//47 54//47
f 50//48 57//48 51//48
f 51//49 55//49 49//49
f 53//50 60//50 59//50
f 54//51 58//51 60//51
f 62//52 57//52 56//52
f 63//53 55//53 57//53
f 59//54 66//54 65//54
f 66//55 58//55 64//55
f 68//56 63//56 62//56
f 69//57 61//57 63//57
f 65//58 72//58 71//58
f 66//59 70//59 72//59
f 74//60 69//60 68//60
f 69//61 73//61 67//61
f 71//62 78//62 77//62
f 72//63 76//63 78//63
f 80//64 75//64 74//64
f 81//65 73//65 75//65
f 83//66 78//66 84//66
f 84//67 76//67 82//67
f 2//68 81//68 80//68
f 3//69 79//69 81//69
f 83//70 6//70 5//70
f 6//71 82//71 4//71
f 19//72 43//72 67//72
f 87//73 155//73 132//73
f 115//74 131//74 140//74
f 105//75 100//75 85//75
f 99//76 106//76 86//76
f 86//77 147//77 88//77
f 116//78 148//78 124//78
f 85//79 100//79 87//79
f 99//80 86//80 88//80
f 322//81 123//81 330//81
f 321//82 107//82 114//82
f 331//83 86//83 106//83
f 316//84 85//84 108//84
f 99//85 88//85 90//85
f 147//86 90//86 88//86
f 130//87 163//87 137//87
f 89//88 178//88 155//88
f 138//89 171//89 146//89
f 87//90 100//90 89//90
f 99//91 90//91 92//91
f 90//92 193//92 92//92
f 153//93 186//93 160//93
f 91//94 201//94 178//94
f 161//95 194//95 169//95
f 89//96 100//96 91//96
f 99//97 92//97 94//97
f 193//98 94//98 92//98
f 176//99 209//99 183//99
f 201//100 95//100 224//100
f 184//101 217//101 192//101
f 91//102 100//102 93//102
f 94//103 239//103 96//103
f 199//104 232//104 206//104
f 95//105 247//105 224//105
f 207//106 240//106 215//106
f 93//107 100//107 95//107
f 99//108 94//108 96//108
f 229//109 246//109 255//109
f 97//110 270//110 247//110
f 230//111 263//111 238//111
f 95//112 100//112 97//112
f 99//113 96//113 98//113
f 96//114 262//114 98//114
f 270//115 103//115 293//115
f 253//116 286//116 261//116
f 97//117 100//117 101//117
f 99//118 98//118 102//118
f 262//119 102//119 98//119
f 245//120 278//120 252//120
f 103//121 316//121 293//121
f 284//122 300//122 309//122
f 101//123 100//123 103//123
f 99//124 102//124 104//124
f 285//125 104//125 102//125
f 268//126 301//126 275//126
f 299//127 332//127 307//127
f 103//128 100//128 105//128
f 99//129 104//129 106//129
f 308//130 106//130 104//130
f 298//131 315//131 324//131
f 110//132 113//132 107//132
f 108//133 111//133 110//133
f 113//134 112//134 109//134
f 114//135 119//135 122//135
f 115//136 119//136 118//136
f 116//137 119//137 120//137
f 117//138 119//138 121//138
f 126//139 129//139 123//139
f 128//140 126//140 124//140
f 125//141 127//141 128//141
f 133//142 136//142 130//142
f 135//143 133//143 131//143
f 132//144 134//144 135//144
f 137//145 142//145 145//145
f 138//146 142//146 141//146
f 139//147 142//147 143//147
f 140//148 142//148 144//148
f 149//149 152//149 146//149
f 147//150 150//150 149//150
f 152//151 151//151 148//151
f 156//152 159//152 153//152
f 158//153 156//153 154//153
f 155//154 157//154 158//154
f 160//155 165//155 168//155
f 161//156 165//156 164//156
f 162//157 165//157 166//157
f 163//158 165//158 167//158
f 172//159 175//159 169//159
f 170//160 173//160 172//160
f 175//161 174//161 171//161
f 179//162 182//162 176//162
f 181//163 179//163 177//163
f 178//164 180//164 181//164
f 183//165 188//165 191//165
f 184//166 188//166 187//166
f 185//167 188//167 189//167
f 186//168 188//168 190//168
f 195//169 198//169 192//169
f 193//170 196//170 195//170
f 198//171 197//171 194//171
f 202//172 205//172 199//172
f 204//173 202//173 200//173
f 201//174 203//174 204//174
f 206//175 211//175 214//175
f 207//176 211//176 210//176
f 208//177 211//177 212//177
f 209//178 211//178 213//178
f 218//179 221//179 215//179
f 216//180 219//180 218//180
f 221//181 220//181 217//181
f 225//182 228//182 222//182
f 227//183 225//183 223//183
f 224//184 226//184 227//184
f 229//185 234//185 237//185
f 230//186 234//186 233//186
f 231//187 234//187 235//187
f 232//188 234//188 236//188
f 241//189 244//189 238//189
f 239//190 242//190 241//190
f 244//191 243//191 240//191
f 248//192 251//192 245//192
f 250//193 248//193 246//193
f 247//194 249//194 250//194
f 252//195 257//195 260//195
f 253//196 257//196 256//196
f 254//197 257//197 258//197
f 255//198 257//198 259//198
f 264//199 267//199 261//199
f 262//200 265//200 264//200
f 267//201 266//201 263//201
f 271//202 274//202 268//202
f 273//203 271//203 269//203
f 270//204 272//204 273//204
f 275//205 280//205 283//205
f 276//206 280//206 279//206
f 277//207 280//207 281//207
f 278//208 280//208 282//208
f 287//209 290//209 284//209
f 285//210 288//210 287//210
f 290//211 289//211 286//211
f 294//212 297//212 291//212
f 296//213 294//213 292//213
f 293//214 295//214 296//214
f 298//215 303//215 306//215
f 299//216 303//216 302//216
f 300//217 303//217 304//217
f 301//218 303//218 305//218
f 310//219 313//219 307//219
f 308//220 311//220 310//220
f 313//221 312//221 309//221
f 317//222 320//222 314//222
f 319//223 317//223 315//223
f 316//224 318//224 319//224
f 321//225 326//225 329//225
f 322//226 326//226 325//226
f 323//227 326//227 327//227
f 324//228 326//228 328//228
f 333//229 336//229 330//229
f 331//230 334//230 333//230
f 336//231 335//231 332//231
f 115//232 113//232 109//232
f 113//233 114//233 107//233
f 124//234 121//234 116//234
f 126//235 117//235 121//235
f 137//236 133//236 130//236
f 133//237 140//237 131//237
f 138//238 152//238 143//238
f 143//239 148//239 139//239
f 147//240 128//240 151//240
f 128//241 148//241 151//241
f 140//242 120//242 115//242
f 144//243 116//243 120//243
f 131//244 112//244 135//244
f 112//245 132//245 135//245
f 153//246 168//246 156//246
f 156//247 163//247 154//247
f 169//248 166//248 161//248
f 175//249 162//249 166//249
f 147//250 174//250 170//250
f 174//251 146//251 171//251
f 163//252 141//252 137//252
f 167//253 138//253 141//253
f 130//254 158//254 154//254
f 136//255 155//255 158//255
f 183//256 179//256 176//256
f 179//257 186//257 177//257
f 184//258 198//258 189//258
f 198//259 185//259 189//259
f 193//260 172//260 197//260
f 172//261 194//261 197//261
f 186//262 164//262 160//262
f 164//263 185//263 161//263
f 177//264 159//264 181//264
f 159//265 178//265 181//265
f 206//266 202//266 199//266
f 202//267 209//267 200//267
f 215//268 212//268 207//268
f 221//269 208//269 212//269
f 193//270 220//270 216//270
f 195//271 217//271 220//271
f 209//272 187//272 183//272
f 213//273 184//273 187//273
f 176//274 204//274 200//274
f 182//275 201//275 204//275
f 222//276 237//276 225//276
f 225//277 232//277 223//277
f 238//278 235//278 230//278
f 244//279 231//279 235//279
f 216//280 243//280 239//280
f 218//281 240//281 243//281
f 206//282 236//282 210//282
f 236//283 207//283 210//283
f 223//284 205//284 227//284
f 205//285 224//285 227//285
f 252//286 248//286 245//286
f 248//287 255//287 246//287
f 253//288 267//288 258//288
f 258//289 263//289 254//289
f 246//290 228//290 250//290
f 228//291 247//291 250//291
f 263//292 241//292 238//292
f 241//293 262//293 239//293
f 230//294 259//294 254//294
f 233//295 255//295 259//295
f 268//296 283//296 271//296
f 271//297 278//297 269//297
f 284//298 281//298 276//298
f 290//299 277//299 281//299
f 286//300 264//300 261//300
f 289//301 262//301 264//301
f 253//302 282//302 277//302
f 256//303 278//303 282//303
f 270//304 251//304 247//304
f 273//305 245//305 251//305
f 291//306 306//306 294//306
f 294//307 301//307 292//307
f 299//308 313//308 304//308
f 313//309 300//309 304//309
f 284//310 312//310 287//310
f 312//311 285//311 287//311
f 300//312 279//312 305//312
f 305//313 275//313 301//313
f 270//314 296//314 274//314
f 296//315 268//315 274//315
f 321//316 317//316 314//316
f 317//317 324//317 315//317
f 330//318 327//318 322//318
f 336//319 323//319 327//319
f 307//320 335//320 310//320
f 335//321 308//321 310//321
f 299//322 328//322 323//322
f 302//323 324//323 328//323
f 293//324 319//324 297//324
f 319//325 291//325 297//325
f 123//326 333//326 330//326
f 129//327 331//327 333//327
f 322//328 122//328 117//328
f 122//329 321//329 114//329
f 316//330 110//330 320//330
f 320//331 107//331 314//331
f 85//332 132//332 108//332
f 339//73 407//73 384//73
f 361//74 392//74 367//74
f 357//75 352//75 337//75
f 351//76 358//76 338//76
f 338//77 399//77 340//77
f 376//78 391//78 400//78
f 358//83 377//83 338//83
f 357//84 360//84 568//84
f 337//79 352//79 339//79
f 351//80 338//80 340//80
f 574//81 375//81 582//81
f 566//82 366//82 573//82
f 390//89 423//89 398//89
f 339//90 352//90 341//90
f 351//85 340//85 342//85
f 340//86 422//86 342//86
f 382//87 415//87 389//87
f 341//88 430//88 407//88
f 341//96 352//96 343//96
f 351//91 342//91 344//91
f 422//92 344//92 342//92
f 405//93 438//93 412//93
f 430//94 345//94 453//94
f 413//95 446//95 421//95
f 351//97 344//97 346//97
f 445//98 346//98 344//98
f 435//99 452//99 461//99
f 345//100 476//100 453//100
f 436//101 469//101 444//101
f 343//102 352//102 345//102
f 351//108 346//108 348//108
f 468//103 348//103 346//103
f 451//104 484//104 458//104
f 347//105 499//105 476//105
f 459//106 492//106 467//106
f 345//107 352//107 347//107
f 351//113 348//113 350//113
f 348//114 514//114 350//114
f 481//109 498//109 507//109
f 349//110 522//110 499//110
f 482//111 515//111 490//111
f 347//112 352//112 349//112
f 514//119 354//119 350//119
f 497//120 530//120 504//120
f 353//115 545//115 522//115
f 505//116 538//116 513//116
f 349//117 352//117 353//117
f 351//118 350//118 354//118
f 520//126 553//126 527//126
f 545//121 357//121 568//121
f 536//122 552//122 561//122
f 353//123 352//123 355//123
f 351//124 354//124 356//124
f 537//125 356//125 354//125
f 551//127 584//127 559//127
f 355//128 352//128 357//128
f 351//129 356//129 358//129
f 356//130 583//130 358//130
f 550//131 567//131 576//131
f 362//132 365//132 359//132
f 360//133 363//133 362//133
f 365//134 364//134 361//134
f 366//135 371//135 374//135
f 367//136 371//136 370//136
f 368//137 371//137 372//137
f 369//138 371//138 373//138
f 378//139 381//139 375//139
f 380//140 378//140 376//140
f 377//141 379//141 380//141
f 385//142 388//142 382//142
f 387//143 385//143 383//143
f 384//144 386//144 387//144
f 389//145 394//145 397//145
f 390//146 394//146 393//146
f 391//147 394//147 395//147
f 392//148 394//148 396//148
f 401//149 404//149 398//149
f 399//150 402//150 401//150
f 404//151 403//151 400//151
f 408//152 411//152 405//152
f 410//153 408//153 406//153
f 407//333 409//333 410//333
f 412//155 417//155 420//155
f 413//156 417//156 416//156
f 414//157 417//157 418//157
f 415//158 417//158 419//158
f 424//159 427//159 421//159
f 422//160 425//160 424//160
f 427//161 426//161 423//161
f 431//162 434//162 428//162
f 433//163 431//163 429//163
f 430//164 432//164 433//164
f 435//165 440//165 443//165
f 436//166 440//166 439//166
f 437//167 440//167 441//167
f 438//168 440//168 442//168
f 447//169 450//169 444//169
f 445//170 448//170 447//170
f 450//171 449//171 446//171
f 454//172 457//172 451//172
f 456//173 454//173 452//173
f 453//174 455//174 456//174
f 458//175 463//175 466//175
f 459//176 463//176 462//176
f 460//177 463//177 464//177
f 461//178 463//178 465//178
f 470//179 473//179 467//179
f 468//180 471//180 470//180
f 473//181 472//181 469//181
f 477//182 480//182 474//182
f 479//183 477//183 475//183
f 476//184 478//184 479//184
f 481//185 486//185 489//185
f 482//186 486//186 485//186
f 483//187 486//187 487//187
f 484//188 486//188 488//188
f 493//189 496//189 490//189
f 491//190 494//190 493//190
f 496//191 495//191 492//191
f 500//192 503//192 497//192
f 502//193 500//193 498//193
f 499//194 501//194 502//194
f 504//195 509//195 512//195
f 505//196 509//196 508//196
f 506//197 509//197 510//197
f 507//198 509//198 511//198
f 516//199 519//199 513//199
f 514//200 517//200 516//200
f 519//201 518//201 515//201
f 523//202 526//202 520//202
f 525//203 523//203 521//203
f 522//334 524//334 525//334
f 527//205 532//205 535//205
f 528//206 532//206 531//206
f 529//207 532//207 533//207
f 530//335 532//335 534//335
f 539//209 542//209 536//209
f 537//210 540//210 539//210
f 542//211 541//211 538//211
f 546//212 549//212 543//212
f 548//213 546//213 544//213
f 545//214 547//214 548//214
f 550//215 555//215 558//215
f 551//216 555//216 554//216
f 552//217 555//217 556//217
f 553//218 555//218 557//218
f 562//219 565//219 559//219
f 560//220 563//220 562//220
f 565//221 564//221 561//221
f 569//222 572//222 566//222
f 571//223 569//223 567//223
f 568//224 570//224 571//224
f 573//225 578//225 581//225
f 574//226 578//226 577//226
f 575//227 578//227 579//227
f 576//228 578//228 580//228
f 585//229 588//229 582//229
f 583//230 586//230 585//230
f 588//231 587//231 584//231
f 361//232 370//232 365//232
f 365//233 366//233 359//233
f 376//234 373//234 368//234
f 378//235 369//235 373//235
f 389//336 385//336 382//336
f 397//237 383//237 385//237
f 390//337 404//337 395//337
f 395//239 400//239 391//239
f 400//241 380//241 376//241
f 403//240 377//240 380//240
f 368//243 396//243 391//243
f 396//242 367//242 392//242
f 384//245 364//245 360//245
f 364//244 383//244 361//244
f 405//246 420//246 408//246
f 408//338 415//338 406//338
f 421//248 418//248 413//248
f 427//339 414//339 418//339
f 390//253 419//253 414//253
f 393//252 415//252 419//252
f 407//255 388//255 384//255
f 410//254 382//254 388//254
f 399//250 426//250 422//250
f 401//251 423//251 426//251
f 428//256 443//256 431//256
f 431//257 438//257 429//257
f 444//258 441//258 436//258
f 450//259 437//259 441//259
f 422//260 449//260 445//260
f 449//261 421//261 446//261
f 438//262 416//262 412//262
f 442//263 413//263 416//263
f 405//264 433//264 429//264
f 433//265 407//265 430//265
f 458//266 454//266 451//266
f 466//267 452//267 454//267
f 467//268 464//268 459//268
f 473//269 460//269 464//269
f 445//340 472//340 468//340
f 472//271 444//271 469//271
f 461//272 439//272 435//272
f 439//273 460//273 436//273
f 428//274 456//274 452//274
f 456//275 430//275 453//275
f 474//276 489//276 477//276
f 477//277 484//277 475//277
f 490//278 487//278 482//278
f 496//279 483//279 487//279
f 491//280 470//280 495//280
f 470//281 492//281 495//281
f 458//282 488//282 462//282
f 488//283 459//283 462//283
f 475//284 457//284 479//284
f 457//285 476//285 479//285
f 497//341 512//341 500//341
f 500//342 507//342 498//342
f 513//343 510//343 505//343
f 519//289 506//289 510//289
f 514//293 493//293 518//293
f 493//292 515//292 518//292
f 507//295 485//295 481//295
f 485//294 506//294 482//294
f 474//290 502//290 498//290
f 480//291 499//291 502//291
f 527//296 523//296 520//296
f 535//297 521//297 523//297
f 536//298 533//298 528//298
f 542//299 529//299 533//299
f 514//301 541//301 537//301
f 516//300 538//300 541//300
f 530//303 508//303 504//303
f 534//302 505//302 508//302
f 497//305 525//305 521//305
f 525//304 499//304 522//304
f 550//306 546//306 543//306
f 546//307 553//307 544//307
f 559//308 556//308 551//308
f 565//309 552//309 556//309
f 520//315 548//315 544//315
f 526//314 545//314 548//314
f 536//310 564//310 539//310
f 564//311 537//311 539//311
f 552//312 531//312 557//312
f 557//313 527//313 553//313
f 573//316 569//316 566//316
f 569//317 576//317 567//317
f 582//318 579//318 574//318
f 588//319 575//319 579//319
f 584//320 562//320 559//320
f 562//344 583//344 560//344
f 551//322 580//322 575//322
f 554//323 576//323 580//323
f 545//345 571//345 549//345
f 549//325 567//325 543//325
f 375//326 585//326 582//326
f 585//346 377//346 583//346
f 369//328 577//328 374//328
f 374//329 573//329 366//329
f 568//330 362//330 572//330
f 362//331 566//331 572//331
f 337//332 384//332 360//332
f 83//1 5//1 2//1
f 17//2 23//2 20//2
f 23//3 29//3 26//3
f 29//4 35//4 32//4
f 35//5 41//5 38//5
f 41//6 47//6 44//6
f 47//7 53//7 50//7
f 53//8 59//8 56//8
f 59//9 65//9 62//9
f 65//10 71//10 68//10
f 71//11 77//11 74//11
f 77//12 83//12 80//12
f 11//13 17//13 14//13
f 16//14 10//14 4//14
f 4//14 82//14 76//14
f 76//14 70//14 64//14
f 64//14 58//14 52//14
f 52//14 46//14 40//14
f 40//14 34//14 28//14
f 28//14 22//14 16//14
f 16//14 4//14 76//14
f 76//14 64//14 52//14
f 52//14 40//14 28//14
f 28//14 16//14 76//14
f 5//15 11//15 8//15
f 8//16 9//16 3//16
f 3//17 9//17 7//17
f 5//18 6//18 12//18
f 6//19 4//19 10//19
f 8//347 14//347 15//347
f 9//21 15//21 13//21
f 11//348 12//348 18//348
f 12//23 10//23 16//23
f 20//24 21//24 15//24
f 21//25 19//25 13//25
f 17//26 18//26 24//26
f 24//27 18//27 16//27
f 26//28 27//28 21//28
f 27//29 25//29 19//29
f 23//30 24//30 30//30
f 24//31 22//31 28//31
f 32//32 33//32 27//32
f 27//33 33//33 31//33
f 29//34 30//34 36//34
f 30//35 28//35 34//35
f 38//349 39//349 33//349
f 39//37 37//37 31//37
f 41//350 35//350 36//350
f 42//39 36//39 34//39
f 44//40 45//40 39//40
f 45//41 43//41 37//41
f 41//42 42//42 48//42
f 48//43 42//43 40//43
f 50//44 51//44 45//44
f 45//45 51//45 49//45
f 47//46 48//46 54//46
f 48//47 46//47 52//47
f 50//351 56//351 57//351
f 51//49 57//49 55//49
f 53//352 54//352 60//352
f 54//51 52//51 58//51
f 62//52 63//52 57//52
f 63//53 61//53 55//53
f 59//54 60//54 66//54
f 66//55 60//55 58//55
f 68//56 69//56 63//56
f 69//57 67//57 61//57
f 65//58 66//58 72//58
f 66//59 64//59 70//59
f 74//60 75//60 69//60
f 69//61 75//61 73//61
f 71//62 72//62 78//62
f 72//63 70//63 76//63
f 80//353 81//353 75//353
f 81//65 79//65 73//65
f 83//354 77//354 78//354
f 84//67 78//67 76//67
f 2//68 3//68 81//68
f 3//69 1//69 79//69
f 83//70 84//70 6//70
f 6//71 84//71 82//71
f 79//72 1//72 7//72
f 7//72 13//72 19//72
f 19//72 25//72 31//72
f 31//72 37//72 43//72
f 43//72 49//72 55//72
f 55//72 61//72 67//72
f 67//72 73//72 79//72
f 79//72 7//72 19//72
f 19//72 31//72 43//72
f 43//72 55//72 67//72
f 67//72 79//72 19//72
f 87//73 89//73 155//73
f 115//74 109//74 131//74
f 86//77 125//77 147//77
f 116//78 139//78 148//78
f 322//81 117//81 123//81
f 321//82 314//82 107//82
f 331//83 125//83 86//83
f 316//84 105//84 85//84
f 147//86 170//86 90//86
f 130//87 154//87 163//87
f 89//88 91//88 178//88
f 138//89 162//89 171//89
f 90//92 170//92 193//92
f 153//93 177//93 186//93
f 91//94 93//94 201//94
f 161//95 185//95 194//95
f 193//98 216//98 94//98
f 176//99 200//99 209//99
f 201//100 93//100 95//100
f 184//101 208//101 217//101
f 94//103 216//103 239//103
f 199//104 223//104 232//104
f 95//105 97//105 247//105
f 207//106 231//106 240//106
f 229//109 222//109 246//109
f 97//110 101//110 270//110
f 230//111 254//111 263//111
f 96//114 239//114 262//114
f 270//115 101//115 103//115
f 253//116 277//116 286//116
f 262//119 285//119 102//119
f 245//120 269//120 278//120
f 103//121 105//121 316//121
f 284//122 276//122 300//122
f 285//125 308//125 104//125
f 268//126 292//126 301//126
f 299//127 323//127 332//127
f 308//130 331//130 106//130
f 298//131 291//131 315//131
f 110//355 111//355 113//355
f 108//356 112//356 111//356
f 113//357 111//357 112//357
f 114//358 118//358 119//358
f 115//359 120//359 119//359
f 116//360 121//360 119//360
f 117//361 122//361 119//361
f 126//362 127//362 129//362
f 128//363 127//363 126//363
f 125//364 129//364 127//364
f 133//365 134//365 136//365
f 135//366 134//366 133//366
f 132//367 136//367 134//367
f 137//368 141//368 142//368
f 138//369 143//369 142//369
f 139//370 144//370 142//370
f 140//371 145//371 142//371
f 149//372 150//372 152//372
f 147//373 151//373 150//373
f 152//374 150//374 151//374
f 156//375 157//375 159//375
f 158//376 157//376 156//376
f 155//377 159//377 157//377
f 160//378 164//378 165//378
f 161//379 166//379 165//379
f 162//380 167//380 165//380
f 163//381 168//381 165//381
f 172//382 173//382 175//382
f 170//383 174//383 173//383
f 175//384 173//384 174//384
f 179//385 180//385 182//385
f 181//386 180//386 179//386
f 178//387 182//387 180//387
f 183//388 187//388 188//388
f 184//389 189//389 188//389
f 185//390 190//390 188//390
f 186//391 191//391 188//391
f 195//392 196//392 198//392
f 193//393 197//393 196//393
f 198//394 196//394 197//394
f 202//395 203//395 205//395
f 204//396 203//396 202//396
f 201//397 205//397 203//397
f 206//398 210//398 211//398
f 207//399 212//399 211//399
f 208//400 213//400 211//400
f 209//401 214//401 211//401
f 218//402 219//402 221//402
f 216//403 220//403 219//403
f 221//404 219//404 220//404
f 225//405 226//405 228//405
f 227//406 226//406 225//406
f 224//407 228//407 226//407
f 229//408 233//408 234//408
f 230//409 235//409 234//409
f 231//410 236//410 234//410
f 232//411 237//411 234//411
f 241//412 242//412 244//412
f 239//413 243//413 242//413
f 244//414 242//414 243//414
f 248//415 249//415 251//415
f 250//416 249//416 248//416
f 247//417 251//417 249//417
f 252//418 256//418 257//418
f 253//419 258//419 257//419
f 254//420 259//420 257//420
f 255//421 260//421 257//421
f 264//422 265//422 267//422
f 262//423 266//423 265//423
f 267//424 265//424 266//424
f 271//425 272//425 274//425
f 273//426 272//426 271//426
f 270//427 274//427 272//427
f 275//428 279//428 280//428
f 276//429 281//429 280//429
f 277//430 282//430 280//430
f 278//431 283//431 280//431
f 287//432 288//432 290//432
f 285//433 289//433 288//433
f 290//434 288//434 289//434
f 294//435 295//435 297//435
f 296//436 295//436 294//436
f 293//437 297//437 295//437
f 298//438 302//438 303//438
f 299//439 304//439 303//439
f 300//440 305//440 303//440
f 301//441 306//441 303//441
f 310//442 311//442 313//442
f 308//443 312//443 311//443
f 313//444 311//444 312//444
f 317//445 318//445 320//445
f 319//446 318//446 317//446
f 316//447 320//447 318//447
f 321//448 325//448 326//448
f 322//449 327//449 326//449
f 323//450 328//450 326//450
f 324//451 329//451 326//451
f 333//452 334//452 336//452
f 331//453 335//453 334//453
f 336//454 334//454 335//454
f 115//232 118//232 113//232
f 113//233 118//233 114//233
f 124//234 126//234 121//234
f 126//235 123//235 117//235
f 137//336 145//336 133//336
f 133//237 145//237 140//237
f 138//337 146//337 152//337
f 143//239 152//239 148//239
f 147//240 125//240 128//240
f 128//241 124//241 148//241
f 140//242 144//242 120//242
f 144//243 139//243 116//243
f 131//244 109//244 112//244
f 112//245 108//245 132//245
f 153//246 160//246 168//246
f 156//247 168//247 163//247
f 169//248 175//248 166//248
f 175//339 171//339 162//339
f 147//250 149//250 174//250
f 174//251 149//251 146//251
f 163//252 167//252 141//252
f 167//253 162//253 138//253
f 130//254 136//254 158//254
f 136//255 132//255 155//255
f 183//256 191//256 179//256
f 179//257 191//257 186//257
f 184//258 192//258 198//258
f 198//259 194//259 185//259
f 193//260 170//260 172//260
f 172//261 169//261 194//261
f 186//262 190//262 164//262
f 164//263 190//263 185//263
f 177//264 153//264 159//264
f 159//265 155//265 178//265
f 206//266 214//266 202//266
f 202//267 214//267 209//267
f 215//268 221//268 212//268
f 221//269 217//269 208//269
f 193//340 195//340 220//340
f 195//271 192//271 217//271
f 209//272 213//272 187//272
f 213//273 208//273 184//273
f 176//274 182//274 204//274
f 182//455 178//455 201//455
f 222//276 229//276 237//276
f 225//277 237//277 232//277
f 238//278 244//278 235//278
f 244//279 240//279 231//279
f 216//456 218//456 243//456
f 218//281 215//281 240//281
f 206//282 232//282 236//282
f 236//283 231//283 207//283
f 223//284 199//284 205//284
f 205//457 201//457 224//457
f 252//341 260//341 248//341
f 248//342 260//342 255//342
f 253//343 261//343 267//343
f 258//289 267//289 263//289
f 246//290 222//290 228//290
f 228//291 224//291 247//291
f 263//292 266//292 241//292
f 241//293 266//293 262//293
f 230//294 233//294 259//294
f 233//458 229//458 255//458
f 268//296 275//296 283//296
f 271//459 283//459 278//459
f 284//298 290//298 281//298
f 290//460 286//460 277//460
f 286//300 289//300 264//300
f 289//301 285//301 262//301
f 253//302 256//302 282//302
f 256//303 252//303 278//303
f 270//304 273//304 251//304
f 273//305 269//305 245//305
f 291//306 298//306 306//306
f 294//307 306//307 301//307
f 299//308 307//308 313//308
f 313//309 309//309 300//309
f 284//310 309//310 312//310
f 312//311 308//311 285//311
f 300//312 276//312 279//312
f 305//313 279//313 275//313
f 270//314 293//314 296//314
f 296//315 292//315 268//315
f 321//316 329//316 317//316
f 317//317 329//317 324//317
f 330//318 336//318 327//318
f 336//319 332//319 323//319
f 307//320 332//320 335//320
f 335//344 331//344 308//344
f 299//322 302//322 328//322
f 302//323 298//323 324//323
f 293//345 316//345 319//345
f 319//325 315//325 291//325
f 123//326 129//326 333//326
f 129//346 125//346 331//346
f 322//328 325//328 122//328
f 122//329 325//329 321//329
f 316//461 108//461 110//461
f 320//331 110//331 107//331
f 85//332 87//332 132//332
f 339//73 341//73 407//73
f 361//74 383//74 392//74
f 338//77 377//77 399//77
f 376//78 368//78 391//78
f 358//83 583//83 377//83
f 357//84 337//84 360//84
f 574//81 369//81 375//81
f 566//82 359//82 366//82
f 390//89 414//89 423//89
f 340//86 399//86 422//86
f 382//87 406//87 415//87
f 341//88 343//88 430//88
f 422//92 445//92 344//92
f 405//93 429//93 438//93
f 430//94 343//94 345//94
f 413//95 437//95 446//95
f 445//98 468//98 346//98
f 435//99 428//99 452//99
f 345//100 347//100 476//100
f 436//101 460//101 469//101
f 468//103 491//103 348//103
f 451//104 475//104 484//104
f 347//105 349//105 499//105
f 459//106 483//106 492//106
f 348//114 491//114 514//114
f 481//109 474//109 498//109
f 349//110 353//110 522//110
f 482//111 506//111 515//111
f 514//119 537//119 354//119
f 497//120 521//120 530//120
f 353//115 355//115 545//115
f 505//116 529//116 538//116
f 520//126 544//126 553//126
f 545//121 355//121 357//121
f 536//122 528//122 552//122
f 537//125 560//125 356//125
f 551//127 575//127 584//127
f 356//130 560//130 583//130
f 550//131 543//131 567//131
f 362//355 363//355 365//355
f 360//356 364//356 363//356
f 365//357 363//357 364//357
f 366//358 370//358 371//358
f 367//359 372//359 371//359
f 368//360 373//360 371//360
f 369//361 374//361 371//361
f 378//362 379//362 381//362
f 380//363 379//363 378//363
f 377//364 381//364 379//364
f 385//365 386//365 388//365
f 387//366 386//366 385//366
f 384//367 388//367 386//367
f 389//368 393//368 394//368
f 390//369 395//369 394//369
f 391//370 396//370 394//370
f 392//371 397//371 394//371
f 401//372 402//372 404//372
f 399//373 403//373 402//373
f 404//462 402//462 403//462
f 408//463 409//463 411//463
f 410//376 409//376 408//376
f 407//377 411//377 409//377
f 412//378 416//378 417//378
f 413//379 418//379 417//379
f 414//380 419//380 417//380
f 415//381 420//381 417//381
f 424//464 425//464 427//464
f 422//383 426//383 425//383
f 427//384 425//384 426//384
f 431//385 432//385 434//385
f 433//386 432//386 431//386
f 430//387 434//387 432//387
f 435//388 439//388 440//388
f 436//389 441//389 440//389
f 437//390 442//390 440//390
f 438//391 443//391 440//391
f 447//392 448//392 450//392
f 445//393 449//393 448//393
f 450//394 448//394 449//394
f 454//395 455//395 457//395
f 456//396 455//396 454//396
f 453//397 457//397 455//397
f 458//398 462//398 463//398
f 459//399 464//399 463//399
f 460//400 465//400 463//400
f 461//401 466//401 463//401
f 470//465 471//465 473//465
f 468//403 472//403 471//403
f 473//404 471//404 472//404
f 477//405 478//405 480//405
f 479//406 478//406 477//406
f 476//407 480//407 478//407
f 481//408 485//408 486//408
f 482//409 487//409 486//409
f 483//410 488//410 486//410
f 484//411 489//411 486//411
f 493//412 494//412 496//412
f 491//413 495//413 494//413
f 496//414 494//414 495//414
f 500//415 501//415 503//415
f 502//416 501//416 500//416
f 499//417 503//417 501//417
f 504//418 508//418 509//418
f 505//419 510//419 509//419
f 506//420 511//420 509//420
f 507//421 512//421 509//421
f 516//422 517//422 519//422
f 514//423 518//423 517//423
f 519//466 517//466 518//466
f 523//467 524//467 526//467
f 525//426 524//426 523//426
f 522//427 526//427 524//427
f 527//428 531//428 532//428
f 528//429 533//429 532//429
f 529//468 534//468 532//468
f 530//431 535//431 532//431
f 539//469 540//469 542//469
f 537//470 541//470 540//470
f 542//434 540//434 541//434
f 546//435 547//435 549//435
f 548//436 547//436 546//436
f 545//437 549//437 547//437
f 550//438 554//438 555//438
f 551//439 556//439 555//439
f 552//440 557//440 555//440
f 553//441 558//441 555//441
f 562//442 563//442 565//442
f 560//443 564//443 563//443
f 565//444 563//444 564//444
f 569//471 570//471 572//471
f 571//446 570//446 569//446
f 568//447 572//447 570//447
f 573//448 577//448 578//448
f 574//449 579//449 578//449
f 575//450 580//450 578//450
f 576//451 581//451 578//451
f 585//472 586//472 588//472
f 583//453 587//453 586//453
f 588//454 586//454 587//454
f 361//232 367//232 370//232
f 365//233 370//233 366//233
f 376//234 378//234 373//234
f 378//235 375//235 369//235
f 389//236 397//236 385//236
f 397//237 392//237 383//237
f 390//238 398//238 404//238
f 395//239 404//239 400//239
f 400//241 403//241 380//241
f 403//240 399//240 377//240
f 368//243 372//243 396//243
f 396//242 372//242 367//242
f 384//245 387//245 364//245
f 364//244 387//244 383//244
f 405//246 412//246 420//246
f 408//247 420//247 415//247
f 421//248 427//248 418//248
f 427//249 423//249 414//249
f 390//253 393//253 419//253
f 393//252 389//252 415//252
f 407//255 410//255 388//255
f 410//254 406//254 382//254
f 399//250 401//250 426//250
f 401//251 398//251 423//251
f 428//256 435//256 443//256
f 431//257 443//257 438//257
f 444//258 450//258 441//258
f 450//259 446//259 437//259
f 422//260 424//260 449//260
f 449//261 424//261 421//261
f 438//262 442//262 416//262
f 442//263 437//263 413//263
f 405//264 411//264 433//264
f 433//265 411//265 407//265
f 458//266 466//266 454//266
f 466//267 461//267 452//267
f 467//268 473//268 464//268
f 473//269 469//269 460//269
f 445//270 447//270 472//270
f 472//271 447//271 444//271
f 461//473 465//473 439//473
f 439//273 465//273 460//273
f 428//274 434//274 456//274
f 456//455 434//455 430//455
f 474//276 481//276 489//276
f 477//277 489//277 484//277
f 490//278 496//278 487//278
f 496//279 492//279 483//279
f 491//456 468//456 470//456
f 470//281 467//281 492//281
f 458//282 484//282 488//282
f 488//283 483//283 459//283
f 475//284 451//284 457//284
f 457//285 453//285 476//285
f 497//286 504//286 512//286
f 500//342 512//342 507//342
f 513//288 519//288 510//288
f 519//289 515//289 506//289
f 514//293 491//293 493//293
f 493//292 490//292 515//292
f 507//295 511//295 485//295
f 485//294 511//294 506//294
f 474//290 480//290 502//290
f 480//291 476//291 499//291
f 527//296 535//296 523//296
f 535//459 530//459 521//459
f 536//298 542//298 533//298
f 542//299 538//299 529//299
f 514//301 516//301 541//301
f 516//300 513//300 538//300
f 530//303 534//303 508//303
f 534//302 529//302 505//302
f 497//305 503//305 525//305
f 525//304 503//304 499//304
f 550//306 558//306 546//306
f 546//307 558//307 553//307
f 559//308 565//308 556//308
f 565//309 561//309 552//309
f 520//315 526//315 548//315
f 526//314 522//314 545//314
f 536//310 561//310 564//310
f 564//311 560//311 537//311
f 552//312 528//312 531//312
f 557//313 531//313 527//313
f 573//316 581//316 569//316
f 569//317 581//317 576//317
f 582//318 588//318 579//318
f 588//319 584//319 575//319
f 584//320 587//320 562//320
f 562//321 587//321 583//321
f 551//322 554//322 580//322
f 554//323 550//323 576//323
f 545//324 568//324 571//324
f 549//325 571//325 567//325
f 375//326 381//326 585//326
f 585//327 381//327 377//327
f 369//328 574//328 577//328
f 374//329 577//329 573//329
f 568//330 360//330 362//330
f 362//331 359//331 566//331
f 337//332 339//332 384//332
