# Blender 4.0.2
# www.blender.org
o Elevator_301
v 0.619469 1.114385 0.929375
v 0.620069 1.115000 0.929375
v 0.619645 1.114813 0.929375
v 0.714469 1.114385 0.929375
v 0.713869 1.115000 0.929375
v 0.714293 1.114813 0.929375
v 0.619469 1.113950 0.927472
v 0.620069 1.114505 0.927205
v 0.619645 1.114337 0.927286
v 0.714469 1.113950 0.927472
v 0.713869 1.114505 0.927205
v 0.714293 1.114337 0.927286
v 0.619469 1.112734 0.925947
v 0.620069 1.113117 0.925465
v 0.619645 1.113001 0.925611
v 0.714469 1.112734 0.925947
v 0.713869 1.113117 0.925465
v 0.714293 1.113001 0.925611
v 0.619469 1.110976 0.925100
v 0.620069 1.111113 0.924500
v 0.619645 1.111071 0.924682
v 0.714469 1.110976 0.925100
v 0.713869 1.111113 0.924500
v 0.714293 1.111071 0.924682
v 0.619469 1.109024 0.925100
v 0.620069 1.108887 0.924500
v 0.619645 1.108929 0.924682
v 0.714469 1.109024 0.925100
v 0.713869 1.108887 0.924500
v 0.714293 1.108929 0.924682
v 0.619469 1.107266 0.925947
v 0.620069 1.106883 0.925465
v 0.619645 1.106999 0.925611
v 0.714469 1.107266 0.925947
v 0.713869 1.106883 0.925465
v 0.714293 1.106999 0.925611
v 0.619469 1.106050 0.927472
v 0.620069 1.105495 0.927205
v 0.619645 1.105663 0.927286
v 0.714469 1.106050 0.927472
v 0.713869 1.105495 0.927205
v 0.714293 1.105663 0.927286
v 0.619469 1.105615 0.929375
v 0.620069 1.105000 0.929375
v 0.619645 1.105187 0.929375
v 0.714469 1.105615 0.929375
v 0.713869 1.105000 0.929375
v 0.714293 1.105187 0.929375
v 0.619469 1.106050 0.931277
v 0.620069 1.105495 0.931544
v 0.619645 1.105663 0.931463
v 0.714469 1.106050 0.931277
v 0.713869 1.105495 0.931544
v 0.714293 1.105663 0.931463
v 0.619469 1.107266 0.932803
v 0.620069 1.106883 0.933284
v 0.619645 1.106999 0.933138
v 0.714469 1.107266 0.932803
v 0.713869 1.106883 0.933284
v 0.714293 1.106999 0.933138
v 0.619469 1.109024 0.933649
v 0.620069 1.108887 0.934249
v 0.619645 1.108929 0.934067
v 0.714469 1.109024 0.933649
v 0.713869 1.108887 0.934249
v 0.714293 1.108929 0.934067
v 0.619469 1.110976 0.933649
v 0.620069 1.111113 0.934249
v 0.619645 1.111071 0.934067
v 0.714469 1.110976 0.933649
v 0.713869 1.111113 0.934249
v 0.714293 1.111071 0.934067
v 0.619469 1.112734 0.932803
v 0.620069 1.113117 0.933284
v 0.619645 1.113001 0.933138
v 0.714469 1.112734 0.932803
v 0.713869 1.113117 0.933284
v 0.714293 1.113001 0.933138
v 0.619469 1.113950 0.931277
v 0.620069 1.114505 0.931544
v 0.619645 1.114337 0.931463
v 0.714469 1.113950 0.931277
v 0.713869 1.114505 0.931544
v 0.714293 1.114337 0.931463
v 0.716379 1.112629 0.933315
v 0.716379 1.112629 0.925434
v 0.717560 1.111004 0.933315
v 0.717560 1.111004 0.925434
v 0.717560 1.108996 0.933315
v 0.717560 1.108996 0.925434
v 0.716379 1.107371 0.933315
v 0.716379 1.107371 0.925434
v 0.714469 1.106750 0.933315
v 0.714469 1.106750 0.925434
v 0.712558 1.107371 0.933315
v 0.712558 1.107371 0.925434
v 0.711378 1.108996 0.933315
v 0.711378 1.108996 0.925434
v 0.714469 1.110000 0.924825
v 0.714469 1.110000 0.933925
v 0.711378 1.111004 0.933315
v 0.711378 1.111004 0.925434
v 0.712558 1.112629 0.933315
v 0.712558 1.112629 0.925434
v 0.714469 1.113250 0.933315
v 0.714469 1.113250 0.925434
v 0.717330 1.114915 0.931086
v 0.717479 1.114143 0.932005
v 0.718259 1.114240 0.931086
v 0.717422 1.114584 0.931589
v 0.717732 1.114491 0.931477
v 0.717916 1.114226 0.931589
v 0.717834 1.114632 0.931112
v 0.717588 1.115271 0.929938
v 0.718517 1.114596 0.929938
v 0.718517 1.114596 0.928811
v 0.717588 1.115271 0.928811
v 0.718093 1.114988 0.929964
v 0.718149 1.115065 0.929375
v 0.718586 1.114646 0.929375
v 0.718093 1.114988 0.928785
v 0.717615 1.115351 0.929375
v 0.717330 1.114915 0.927663
v 0.718259 1.114240 0.927663
v 0.717479 1.114143 0.926744
v 0.717834 1.114632 0.927638
v 0.717732 1.114491 0.927273
v 0.717916 1.114226 0.927161
v 0.717422 1.114584 0.927161
v 0.720028 1.111202 0.931086
v 0.719673 1.112295 0.931086
v 0.719339 1.111583 0.932005
v 0.719914 1.111769 0.931112
v 0.719749 1.111716 0.931477
v 0.719553 1.111972 0.931589
v 0.719741 1.111392 0.931589
v 0.720445 1.111338 0.929938
v 0.720445 1.111338 0.928811
v 0.720091 1.112430 0.928811
v 0.720091 1.112430 0.929938
v 0.720530 1.111338 0.929375
v 0.720424 1.111935 0.929375
v 0.720332 1.111905 0.928785
v 0.720159 1.112480 0.929375
v 0.720332 1.111905 0.929964
v 0.720028 1.111202 0.927663
v 0.719339 1.111583 0.926744
v 0.719673 1.112295 0.927663
v 0.719741 1.111392 0.927161
v 0.719749 1.111716 0.927273
v 0.719553 1.111972 0.927161
v 0.719914 1.111769 0.927638
v 0.719673 1.107705 0.931086
v 0.720028 1.108798 0.931086
v 0.719339 1.108418 0.932005
v 0.719914 1.108231 0.931112
v 0.719749 1.108284 0.931477
v 0.719741 1.108608 0.931589
v 0.719553 1.108028 0.931589
v 0.720091 1.107570 0.929938
v 0.720091 1.107570 0.928811
v 0.720445 1.108662 0.928811
v 0.720445 1.108662 0.929938
v 0.720159 1.107520 0.929375
v 0.720424 1.108065 0.929375
v 0.720332 1.108095 0.928785
v 0.720530 1.108662 0.929375
v 0.720332 1.108095 0.929964
v 0.719673 1.107705 0.927663
v 0.719339 1.108418 0.926744
v 0.720028 1.108798 0.927663
v 0.719553 1.108028 0.927161
v 0.719749 1.108284 0.927273
v 0.719741 1.108608 0.927161
v 0.719914 1.108231 0.927638
v 0.717330 1.105085 0.931086
v 0.718259 1.105760 0.931086
v 0.717479 1.105857 0.932005
v 0.717834 1.105368 0.931112
v 0.717732 1.105509 0.931477
v 0.717916 1.105775 0.931589
v 0.717422 1.105416 0.931589
v 0.717588 1.104729 0.929938
v 0.717588 1.104729 0.928811
v 0.718517 1.105404 0.928811
v 0.718517 1.105404 0.929938
v 0.717615 1.104649 0.929375
v 0.718149 1.104935 0.929375
v 0.718093 1.105012 0.928785
v 0.718586 1.105354 0.929375
v 0.718093 1.105012 0.929964
v 0.717330 1.105085 0.927663
v 0.717479 1.105857 0.926744
v 0.718259 1.105760 0.927663
v 0.717422 1.105416 0.927161
v 0.717732 1.105509 0.927273
v 0.717916 1.105775 0.927161
v 0.717834 1.105368 0.927638
v 0.713895 1.104342 0.931086
v 0.715043 1.104342 0.931086
v 0.714469 1.104879 0.932005
v 0.714469 1.104274 0.931112
v 0.714469 1.104448 0.931477
v 0.714774 1.104555 0.931589
v 0.714164 1.104555 0.931589
v 0.713895 1.103902 0.929938
v 0.713895 1.103902 0.928811
v 0.715043 1.103902 0.928811
v 0.715043 1.103902 0.929938
v 0.713868 1.103822 0.929375
v 0.714469 1.103739 0.929375
v 0.714469 1.103835 0.928785
v 0.715069 1.103822 0.929375
v 0.714469 1.103835 0.929964
v 0.713895 1.104342 0.927663
v 0.714469 1.104879 0.926744
v 0.715043 1.104342 0.927663
v 0.714164 1.104555 0.927161
v 0.714469 1.104448 0.927273
v 0.714774 1.104555 0.927161
v 0.714469 1.104274 0.927638
v 0.710678 1.105760 0.931086
v 0.711607 1.105085 0.931086
v 0.711459 1.105857 0.932005
v 0.711103 1.105368 0.931112
v 0.711206 1.105509 0.931477
v 0.711515 1.105416 0.931589
v 0.711022 1.105775 0.931589
v 0.710420 1.105404 0.929938
v 0.710420 1.105404 0.928811
v 0.711349 1.104729 0.928811
v 0.711349 1.104729 0.929938
v 0.710351 1.105354 0.929375
v 0.710788 1.104935 0.929375
v 0.710845 1.105012 0.928785
v 0.711323 1.104649 0.929375
v 0.710845 1.105012 0.929964
v 0.710678 1.105760 0.927663
v 0.711459 1.105857 0.926744
v 0.711607 1.105085 0.927663
v 0.711022 1.105775 0.927161
v 0.711206 1.105509 0.927273
v 0.711515 1.105416 0.927161
v 0.711103 1.105368 0.927638
v 0.708910 1.108798 0.931086
v 0.709265 1.107705 0.931086
v 0.709598 1.108418 0.932005
v 0.709023 1.108231 0.931112
v 0.709189 1.108284 0.931477
v 0.709385 1.108028 0.931589
v 0.709197 1.108608 0.931589
v 0.708492 1.108662 0.929938
v 0.708492 1.108662 0.928811
v 0.708847 1.107570 0.928811
v 0.708847 1.107570 0.929938
v 0.708407 1.108662 0.929375
v 0.708514 1.108065 0.929375
v 0.708605 1.108095 0.928785
v 0.708778 1.107520 0.929375
v 0.708605 1.108095 0.929964
v 0.708910 1.108798 0.927663
v 0.709598 1.108418 0.926744
v 0.709265 1.107705 0.927663
v 0.709197 1.108608 0.927161
v 0.709189 1.108284 0.927273
v 0.709385 1.108028 0.927161
v 0.709023 1.108231 0.927638
v 0.709265 1.112295 0.931086
v 0.708910 1.111202 0.931086
v 0.709598 1.111583 0.932005
v 0.709023 1.111769 0.931112
v 0.709189 1.111716 0.931477
v 0.709197 1.111392 0.931589
v 0.709385 1.111972 0.931589
v 0.708847 1.112430 0.929938
v 0.708847 1.112430 0.928811
v 0.708492 1.111338 0.928811
v 0.708492 1.111338 0.929938
v 0.708778 1.112480 0.929375
v 0.708514 1.111935 0.929375
v 0.708605 1.111905 0.928785
v 0.708407 1.111338 0.929375
v 0.708605 1.111905 0.929964
v 0.709265 1.112295 0.927663
v 0.709598 1.111583 0.926744
v 0.708910 1.111202 0.927663
v 0.709385 1.111972 0.927161
v 0.709189 1.111716 0.927273
v 0.709197 1.111392 0.927161
v 0.709023 1.111769 0.927638
v 0.711607 1.114915 0.931086
v 0.710678 1.114240 0.931086
v 0.711459 1.114143 0.932005
v 0.711103 1.114632 0.931112
v 0.711206 1.114491 0.931477
v 0.711022 1.114226 0.931589
v 0.711515 1.114584 0.931589
v 0.711349 1.115271 0.929938
v 0.711349 1.115271 0.928811
v 0.710420 1.114596 0.928811
v 0.710420 1.114596 0.929938
v 0.711323 1.115351 0.929375
v 0.710788 1.115065 0.929375
v 0.710845 1.114988 0.928785
v 0.710351 1.114646 0.929375
v 0.710845 1.114988 0.929964
v 0.711607 1.114915 0.927663
v 0.711459 1.114143 0.926744
v 0.710678 1.114240 0.927663
v 0.711515 1.114584 0.927161
v 0.711206 1.114491 0.927273
v 0.711022 1.114226 0.927161
v 0.711103 1.114632 0.927638
v 0.715043 1.115658 0.931086
v 0.713895 1.115658 0.931086
v 0.714469 1.115121 0.932005
v 0.714469 1.115726 0.931112
v 0.714469 1.115552 0.931477
v 0.714164 1.115445 0.931589
v 0.714774 1.115445 0.931589
v 0.715043 1.116098 0.929938
v 0.715043 1.116098 0.928811
v 0.713895 1.116098 0.928811
v 0.713895 1.116098 0.929938
v 0.715069 1.116179 0.929375
v 0.714469 1.116261 0.929375
v 0.714469 1.116165 0.928785
v 0.713868 1.116179 0.929375
v 0.714469 1.116165 0.929964
v 0.715043 1.115658 0.927663
v 0.714469 1.115121 0.926744
v 0.713895 1.115658 0.927663
v 0.714774 1.115445 0.927161
v 0.714469 1.115552 0.927273
v 0.714164 1.115445 0.927161
v 0.714469 1.115726 0.927638
vn -0.0000 0.9749 0.2225
vn -0.0000 0.4339 -0.9010
vn -0.0000 -0.0000 -1.0000
vn -0.0000 -0.4339 -0.9010
vn -0.0000 -0.7818 -0.6235
vn -0.0000 -0.9749 -0.2225
vn -0.0000 -0.9749 0.2225
vn -0.0000 -0.7818 0.6235
vn -0.0000 -0.4339 0.9010
vn -0.0000 -0.0000 1.0000
vn -0.0000 0.4339 0.9010
vn -0.0000 0.7818 0.6235
vn -0.0000 0.7818 -0.6235
vn 1.0000 -0.0000 -0.0000
vn -0.0000 0.9749 -0.2225
vn -0.3940 0.8961 -0.2045
vn -0.9219 0.3778 -0.0862
vn 0.3940 0.8961 -0.2045
vn 0.9219 0.3778 -0.0862
vn -0.3940 0.7186 -0.5730
vn -0.9219 0.3029 -0.2416
vn 0.3940 0.7186 -0.5730
vn 0.9219 0.3029 -0.2416
vn -0.3940 0.3988 -0.8281
vn -0.9219 0.1681 -0.3491
vn 0.3940 0.3988 -0.8281
vn 0.9219 0.1681 -0.3491
vn -0.3940 -0.0000 -0.9191
vn -0.9219 -0.0000 -0.3875
vn 0.3940 -0.0000 -0.9191
vn 0.9219 -0.0000 -0.3875
vn -0.3940 -0.3988 -0.8281
vn -0.9219 -0.1681 -0.3491
vn 0.3940 -0.3988 -0.8281
vn 0.9219 -0.1681 -0.3491
vn -0.3940 -0.7186 -0.5730
vn -0.9219 -0.3029 -0.2416
vn 0.3940 -0.7186 -0.5730
vn 0.9219 -0.3029 -0.2416
vn -0.3940 -0.8961 -0.2045
vn -0.9219 -0.3778 -0.0862
vn 0.3940 -0.8961 -0.2045
vn 0.9219 -0.3778 -0.0862
vn -0.3940 -0.8961 0.2045
vn -0.9219 -0.3778 0.0862
vn 0.3940 -0.8961 0.2045
vn 0.9219 -0.3778 0.0862
vn -0.3940 -0.7186 0.5730
vn -0.9219 -0.3029 0.2416
vn 0.3940 -0.7186 0.5730
vn 0.9219 -0.3029 0.2416
vn -0.3940 -0.3988 0.8281
vn -0.9219 -0.1681 0.3491
vn 0.3940 -0.3988 0.8281
vn 0.9219 -0.1681 0.3491
vn -0.3940 -0.0000 0.9191
vn -0.9219 -0.0000 0.3875
vn 0.3940 -0.0000 0.9191
vn 0.9219 -0.0000 0.3875
vn -0.3940 0.3988 0.8281
vn -0.9219 0.1681 0.3491
vn 0.3940 0.3988 0.8281
vn 0.9219 0.1681 0.3491
vn -0.3940 0.7186 0.5730
vn -0.9219 0.3029 0.2416
vn 0.3940 0.7186 0.5730
vn 0.9219 0.3029 0.2416
vn -0.3940 0.8961 0.2045
vn -0.9219 0.3778 0.0862
vn 0.3940 0.8961 0.2045
vn 0.9219 0.3778 0.0862
vn -1.0000 -0.0000 -0.0000
vn 0.4796 0.3484 -0.8054
vn 0.7602 0.5523 -0.3421
vn 0.5928 -0.0000 0.8054
vn 0.7602 0.5523 0.3421
vn 0.0598 0.1840 0.9811
vn 0.0598 0.1840 -0.9811
vn 0.1832 0.5638 -0.8054
vn 0.1832 0.5638 0.8054
vn 0.1565 0.1137 0.9811
vn 0.1565 0.1137 -0.9811
vn 0.2904 0.8937 -0.3421
vn 0.2904 0.8937 0.3421
vn 0.4796 -0.3484 0.8054
vn 0.9397 -0.0000 -0.3421
vn 0.1935 -0.0000 0.9811
vn 0.1935 -0.0000 -0.9811
vn 0.5928 -0.0000 -0.8054
vn 0.9397 -0.0000 0.3421
vn 0.1832 -0.5638 0.8054
vn 0.7602 -0.5523 -0.3421
vn 0.1565 -0.1137 0.9811
vn 0.1565 -0.1137 -0.9811
vn 0.4796 -0.3484 -0.8054
vn 0.7602 -0.5523 0.3421
vn 0.2904 -0.8937 -0.3421
vn 0.0598 -0.1840 0.9811
vn 0.0598 -0.1840 -0.9811
vn 0.1832 -0.5638 -0.8054
vn 0.2904 -0.8937 0.3421
vn -0.1832 -0.5638 0.8054
vn -0.0598 -0.1840 0.9811
vn -0.0598 -0.1840 -0.9811
vn -0.1832 -0.5638 -0.8054
vn -0.2904 -0.8937 0.3421
vn -0.4796 -0.3484 0.8054
vn -0.2904 -0.8937 -0.3421
vn -0.1565 -0.1137 -0.9811
vn -0.4796 -0.3484 -0.8054
vn -0.7602 -0.5523 0.3421
vn -0.5928 -0.0000 0.8054
vn -0.7602 -0.5523 -0.3421
vn -0.1565 -0.1137 0.9811
vn -0.1935 -0.0000 -0.9811
vn -0.5928 -0.0000 -0.8054
vn -0.9397 -0.0000 0.3421
vn -0.4796 0.3484 0.8054
vn -0.9397 -0.0000 -0.3421
vn -0.1935 -0.0000 0.9811
vn -0.1565 0.1137 -0.9811
vn -0.4796 0.3484 -0.8054
vn -0.7602 0.5523 0.3421
vn -0.1832 0.5638 0.8054
vn -0.7602 0.5523 -0.3421
vn -0.1565 0.1137 0.9811
vn -0.1832 0.5638 -0.8054
vn -0.2904 0.8937 0.3421
vn -0.2904 0.8937 -0.3421
vn -0.0598 0.1840 0.9811
vn -0.0598 0.1840 -0.9811
vn 0.4212 0.7909 0.4440
vn 0.4230 0.6505 0.6309
vn 0.6220 0.6450 0.4440
vn 0.4667 0.8721 0.1468
vn 0.6746 0.7207 0.1598
vn 0.6852 0.7134 -0.1468
vn 0.4769 0.8643 -0.1598
vn 0.4212 0.7909 -0.4440
vn 0.6220 0.6450 -0.4440
vn 0.4879 0.6033 -0.6309
vn 0.8823 0.1562 0.4440
vn 0.8056 0.3923 0.4440
vn 0.7245 0.2776 0.6309
vn 0.9694 0.1865 0.1598
vn 0.9737 0.1744 -0.1468
vn 0.8939 0.4189 -0.1598
vn 0.8902 0.4312 0.1468
vn 0.8823 0.1562 -0.4440
vn 0.7493 0.2013 -0.6309
vn 0.8056 0.3923 -0.4440
vn 0.8056 -0.3923 0.4440
vn 0.8823 -0.1562 0.4440
vn 0.7493 -0.2013 0.6309
vn 0.8939 -0.4189 0.1598
vn 0.8902 -0.4312 -0.1468
vn 0.9694 -0.1865 -0.1598
vn 0.9737 -0.1744 0.1468
vn 0.8056 -0.3923 -0.4440
vn 0.7245 -0.2776 -0.6309
vn 0.8823 -0.1562 -0.4440
vn 0.4212 -0.7909 0.4440
vn 0.6220 -0.6450 0.4440
vn 0.4879 -0.6033 0.6309
vn 0.4769 -0.8643 0.1598
vn 0.4667 -0.8721 -0.1468
vn 0.6746 -0.7207 -0.1598
vn 0.6852 -0.7134 0.1468
vn 0.4212 -0.7909 -0.4440
vn 0.4230 -0.6505 -0.6309
vn 0.6220 -0.6450 -0.4440
vn -0.1241 -0.8874 0.4440
vn 0.1241 -0.8874 0.4440
vn 0.0401 -0.7748 0.6309
vn -0.1222 -0.9796 0.1598
vn -0.1350 -0.9799 -0.1468
vn 0.1222 -0.9796 -0.1598
vn 0.1350 -0.9799 0.1468
vn -0.1241 -0.8874 -0.4440
vn -0.0401 -0.7748 -0.6309
vn 0.1241 -0.8874 -0.4440
vn -0.6220 -0.6450 0.4440
vn -0.4212 -0.7909 0.4440
vn -0.4230 -0.6505 0.6309
vn -0.6746 -0.7207 0.1598
vn -0.6852 -0.7134 -0.1468
vn -0.4769 -0.8643 -0.1598
vn -0.4667 -0.8721 0.1468
vn -0.6220 -0.6450 -0.4440
vn -0.4879 -0.6033 -0.6309
vn -0.4212 -0.7909 -0.4440
vn -0.8823 -0.1562 0.4440
vn -0.8056 -0.3923 0.4440
vn -0.7245 -0.2776 0.6309
vn -0.9694 -0.1865 0.1598
vn -0.9737 -0.1744 -0.1468
vn -0.8939 -0.4189 -0.1598
vn -0.8902 -0.4312 0.1468
vn -0.8823 -0.1562 -0.4440
vn -0.7493 -0.2013 -0.6309
vn -0.8056 -0.3923 -0.4440
vn -0.8056 0.3923 0.4440
vn -0.8823 0.1562 0.4440
vn -0.7493 0.2013 0.6309
vn -0.8939 0.4189 0.1598
vn -0.8902 0.4312 -0.1468
vn -0.9694 0.1865 -0.1598
vn -0.9737 0.1744 0.1468
vn -0.8056 0.3923 -0.4440
vn -0.7245 0.2776 -0.6309
vn -0.8823 0.1562 -0.4440
vn -0.4212 0.7909 0.4440
vn -0.6220 0.6450 0.4440
vn -0.4879 0.6033 0.6309
vn -0.4769 0.8643 0.1598
vn -0.4667 0.8721 -0.1468
vn -0.6746 0.7207 -0.1598
vn -0.6852 0.7134 0.1468
vn -0.4212 0.7909 -0.4440
vn -0.4230 0.6505 -0.6309
vn -0.6220 0.6450 -0.4440
vn 0.1241 0.8874 0.4440
vn -0.1241 0.8874 0.4440
vn -0.0401 0.7748 0.6309
vn 0.1222 0.9796 0.1598
vn 0.1350 0.9799 -0.1468
vn -0.1222 0.9796 -0.1598
vn -0.1350 0.9799 0.1468
vn 0.1241 0.8874 -0.4440
vn 0.0401 0.7748 -0.6309
vn -0.1241 0.8874 -0.4440
vn 0.6455 0.6764 0.3547
vn 0.4438 0.8230 0.3547
vn 0.6456 0.6764 -0.3547
vn 0.4438 0.8230 -0.3547
vn 0.9198 0.1677 0.3547
vn 0.8427 0.4049 0.3547
vn 0.9198 0.1677 -0.3547
vn 0.8427 0.4050 -0.3547
vn 0.7028 0.5106 -0.4953
vn 0.5823 0.4231 -0.6942
vn 0.8000 0.5812 -0.1491
vn 0.8000 0.5812 0.1491
vn 0.5823 0.4231 0.6942
vn 0.7028 0.5106 0.4953
vn 0.8427 -0.4049 0.3547
vn 0.9198 -0.1677 0.3547
vn 0.8427 -0.4050 -0.3547
vn 0.9198 -0.1677 -0.3547
vn 0.8688 -0.0000 -0.4952
vn 0.7198 -0.0000 -0.6942
vn 0.9888 -0.0000 -0.1491
vn 0.9888 -0.0000 0.1491
vn 0.7198 -0.0000 0.6942
vn 0.8687 -0.0000 0.4953
vn 0.4438 -0.8230 0.3547
vn 0.6455 -0.6764 0.3547
vn 0.4438 -0.8230 -0.3547
vn 0.6456 -0.6764 -0.3547
vn 0.7028 -0.5106 -0.4953
vn 0.5823 -0.4231 -0.6942
vn 0.8000 -0.5812 -0.1491
vn 0.8000 -0.5812 0.1491
vn 0.5823 -0.4231 0.6942
vn 0.7028 -0.5106 0.4953
vn -0.1247 -0.9266 0.3547
vn 0.1247 -0.9266 0.3547
vn -0.1247 -0.9266 -0.3547
vn 0.1247 -0.9266 -0.3547
vn 0.3056 -0.9404 -0.1491
vn 0.3056 -0.9404 0.1491
vn 0.2224 -0.6846 0.6942
vn 0.2685 -0.8262 0.4953
vn 0.2224 -0.6846 -0.6942
vn 0.2685 -0.8262 -0.4953
vn -0.6456 -0.6764 0.3547
vn -0.4438 -0.8230 0.3547
vn -0.6455 -0.6764 -0.3547
vn -0.4438 -0.8230 -0.3547
vn -0.2224 -0.6846 -0.6942
vn -0.2685 -0.8262 -0.4953
vn -0.3056 -0.9404 0.1491
vn -0.3056 -0.9404 -0.1491
vn -0.2685 -0.8262 0.4953
vn -0.2224 -0.6846 0.6942
vn -0.9198 -0.1677 0.3547
vn -0.8427 -0.4049 0.3547
vn -0.9198 -0.1677 -0.3547
vn -0.8427 -0.4050 -0.3547
vn -0.5823 -0.4231 -0.6942
vn -0.7028 -0.5106 -0.4953
vn -0.8000 -0.5812 0.1491
vn -0.8000 -0.5812 -0.1491
vn -0.7028 -0.5106 0.4953
vn -0.5823 -0.4231 0.6942
vn -0.8427 0.4050 0.3547
vn -0.9198 0.1677 0.3547
vn -0.8427 0.4050 -0.3547
vn -0.9198 0.1677 -0.3547
vn -0.7198 -0.0000 -0.6942
vn -0.8687 -0.0000 -0.4953
vn -0.9888 -0.0000 0.1491
vn -0.9888 -0.0000 -0.1491
vn -0.8687 -0.0000 0.4953
vn -0.7198 -0.0000 0.6942
vn -0.4438 0.8230 0.3547
vn -0.6455 0.6764 0.3547
vn -0.4438 0.8230 -0.3547
vn -0.6455 0.6764 -0.3547
vn -0.5823 0.4231 -0.6942
vn -0.7028 0.5106 -0.4953
vn -0.8000 0.5812 0.1491
vn -0.8000 0.5812 -0.1491
vn -0.7028 0.5106 0.4953
vn -0.5823 0.4231 0.6942
vn 0.1247 0.9266 0.3547
vn -0.1247 0.9266 0.3547
vn 0.1247 0.9266 -0.3547
vn -0.1247 0.9266 -0.3547
vn -0.2224 0.6846 -0.6942
vn -0.2685 0.8262 -0.4953
vn -0.3056 0.9404 0.1491
vn -0.3056 0.9404 -0.1491
vn -0.2685 0.8262 0.4953
vn -0.2224 0.6846 0.6942
vn 0.2224 0.6846 -0.6942
vn 0.2685 0.8262 -0.4953
vn 0.3056 0.9404 0.1491
vn 0.3056 0.9404 -0.1491
vn 0.2685 0.8262 0.4953
vn 0.2224 0.6846 0.6942
vn 0.4796 0.3484 0.8054
vn 0.3940 0.7186 -0.5731
vn -0.3940 -0.7186 -0.5731
vn 0.3940 -0.7186 0.5731
vn -0.3940 0.7186 0.5731
vn 0.3973 0.8131 0.4256
vn 0.4879 0.6033 0.6309
vn 0.6505 0.6291 0.4256
vn 0.4769 0.8643 0.1598
vn 0.6852 0.7134 0.1468
vn 0.6746 0.7207 -0.1598
vn 0.4667 0.8721 -0.1468
vn 0.3973 0.8131 -0.4256
vn 0.6505 0.6291 -0.4256
vn 0.4230 0.6505 -0.6309
vn 0.8960 0.1266 0.4256
vn 0.7993 0.4243 0.4256
vn 0.7493 0.2013 0.6309
vn 0.9737 0.1744 0.1468
vn 0.9694 0.1865 -0.1598
vn 0.8902 0.4312 -0.1468
vn 0.8939 0.4189 0.1598
vn 0.8960 0.1266 -0.4256
vn 0.7245 0.2776 -0.6309
vn 0.7993 0.4243 -0.4256
vn 0.7993 -0.4243 0.4256
vn 0.8960 -0.1266 0.4256
vn 0.7245 -0.2776 0.6309
vn 0.8902 -0.4312 0.1468
vn 0.8939 -0.4189 -0.1598
vn 0.9737 -0.1744 -0.1468
vn 0.9694 -0.1865 0.1598
vn 0.7993 -0.4243 -0.4256
vn 0.7493 -0.2013 -0.6309
vn 0.8960 -0.1266 -0.4256
vn 0.3973 -0.8131 0.4256
vn 0.6505 -0.6291 0.4256
vn 0.4230 -0.6505 0.6309
vn 0.4667 -0.8721 0.1468
vn 0.4769 -0.8643 -0.1598
vn 0.6852 -0.7134 -0.1468
vn 0.6746 -0.7207 0.1598
vn 0.3973 -0.8131 -0.4256
vn 0.4879 -0.6033 -0.6309
vn 0.6505 -0.6291 -0.4256
vn -0.1565 -0.8913 0.4256
vn 0.1565 -0.8913 0.4256
vn -0.0401 -0.7748 0.6309
vn -0.1350 -0.9799 0.1468
vn -0.1222 -0.9796 -0.1598
vn 0.1350 -0.9799 -0.1468
vn 0.1222 -0.9796 0.1598
vn -0.1565 -0.8913 -0.4256
vn 0.0401 -0.7748 -0.6309
vn 0.1565 -0.8913 -0.4256
vn -0.6505 -0.6291 0.4256
vn -0.3973 -0.8131 0.4256
vn -0.4879 -0.6033 0.6309
vn -0.6852 -0.7134 0.1468
vn -0.6746 -0.7207 -0.1598
vn -0.4667 -0.8721 -0.1468
vn -0.4769 -0.8643 0.1598
vn -0.6505 -0.6291 -0.4256
vn -0.4230 -0.6505 -0.6309
vn -0.3973 -0.8131 -0.4256
vn -0.8960 -0.1266 0.4256
vn -0.7993 -0.4243 0.4256
vn -0.7493 -0.2013 0.6309
vn -0.9737 -0.1744 0.1468
vn -0.9694 -0.1865 -0.1598
vn -0.8902 -0.4312 -0.1468
vn -0.8939 -0.4189 0.1598
vn -0.8960 -0.1266 -0.4256
vn -0.7245 -0.2776 -0.6309
vn -0.7993 -0.4243 -0.4256
vn -0.7993 0.4243 0.4256
vn -0.8960 0.1266 0.4256
vn -0.7245 0.2776 0.6309
vn -0.8902 0.4312 0.1468
vn -0.8939 0.4189 -0.1598
vn -0.9737 0.1744 -0.1468
vn -0.9694 0.1865 0.1598
vn -0.7993 0.4243 -0.4256
vn -0.7493 0.2013 -0.6309
vn -0.8960 0.1266 -0.4256
vn -0.3973 0.8131 0.4256
vn -0.6505 0.6291 0.4256
vn -0.4230 0.6504 0.6309
vn -0.4667 0.8721 0.1468
vn -0.4769 0.8643 -0.1598
vn -0.6852 0.7134 -0.1468
vn -0.6746 0.7207 0.1598
vn -0.3973 0.8131 -0.4256
vn -0.4879 0.6033 -0.6309
vn -0.6505 0.6291 -0.4256
vn 0.1565 0.8913 0.4256
vn -0.1565 0.8913 0.4256
vn 0.0401 0.7748 0.6309
vn 0.1350 0.9799 0.1468
vn 0.1222 0.9796 -0.1598
vn -0.1350 0.9799 -0.1468
vn -0.1222 0.9796 0.1598
vn 0.1565 0.8913 -0.4256
vn -0.0401 0.7748 -0.6309
vn -0.1565 0.8913 -0.4256
vn 0.6456 0.6764 0.3547
vn 0.8427 0.4050 0.3547
vn 0.8427 0.4049 -0.3547
vn 0.8427 -0.4050 0.3547
vn 0.8427 -0.4049 -0.3547
vn 0.8687 -0.0000 -0.4953
vn 0.8688 -0.0000 0.4952
vn 0.6456 -0.6764 0.3547
vn 0.6455 -0.6764 -0.3547
vn -0.6456 -0.6764 -0.3547
vn -0.8427 -0.4050 0.3547
vn -0.8427 -0.4049 -0.3547
vn -0.6456 0.6764 0.3547
vn -0.6456 0.6764 -0.3547
s 0
f 83//1 2//1 80//1
f 17//2 20//2 14//2
f 23//3 26//3 20//3
f 29//4 32//4 26//4
f 35//5 38//5 32//5
f 41//6 44//6 38//6
f 47//7 50//7 44//7
f 53//8 56//8 50//8
f 59//9 62//9 56//9
f 65//10 68//10 62//10
f 71//11 74//11 68//11
f 77//12 80//12 74//12
f 11//13 14//13 8//13
f 76//14 52//14 28//14
f 5//15 8//15 2//15
f 8//16 3//16 2//16
f 3//17 7//17 1//17
f 5//18 12//18 11//18
f 6//19 10//19 12//19
f 8//20 15//20 9//20
f 9//21 13//21 7//21
f 11//22 18//22 17//22
f 12//23 16//23 18//23
f 14//24 21//24 15//24
f 21//25 13//25 15//25
f 17//26 24//26 23//26
f 24//27 16//27 22//27
f 26//28 21//28 20//28
f 21//29 25//29 19//29
f 23//30 30//30 29//30
f 30//31 22//31 28//31
f 32//32 27//32 26//32
f 27//33 31//33 25//33
f 35//34 30//34 36//34
f 30//35 34//35 36//35
f 38//36 33//36 32//36
f 39//37 31//37 33//37
f 41//38 36//38 42//38
f 42//39 34//39 40//39
f 44//40 39//40 38//40
f 45//41 37//41 39//41
f 41//42 48//42 47//42
f 48//43 40//43 46//43
f 50//44 45//44 44//44
f 45//45 49//45 43//45
f 47//46 54//46 53//46
f 48//47 52//47 54//47
f 50//48 57//48 51//48
f 51//49 55//49 49//49
f 53//50 60//50 59//50
f 54//51 58//51 60//51
f 56//52 63//52 57//52
f 63//53 55//53 57//53
f 59//54 66//54 65//54
f 66//55 58//55 64//55
f 68//56 63//56 62//56
f 63//57 67//57 61//57
f 65//58 72//58 71//58
f 72//59 64//59 70//59
f 74//60 69//60 68//60
f 69//61 73//61 67//61
f 77//62 72//62 78//62
f 72//63 76//63 78//63
f 80//64 75//64 74//64
f 81//65 73//65 75//65
f 83//66 78//66 84//66
f 84//67 76//67 82//67
f 2//68 81//68 80//68
f 3//69 79//69 81//69
f 83//70 6//70 5//70
f 6//71 82//71 4//71
f 19//72 43//72 67//72
f 125//73 88//73 86//73
f 124//74 139//74 148//74
f 87//75 155//75 132//75
f 109//76 140//76 115//76
f 105//77 100//77 85//77
f 99//78 106//78 86//78
f 331//79 86//79 106//79
f 105//80 108//80 316//80
f 85//81 100//81 87//81
f 99//82 86//82 88//82
f 322//83 123//83 330//83
f 314//84 114//84 321//84
f 155//85 91//85 178//85
f 138//86 171//86 146//86
f 87//87 100//87 89//87
f 99//88 88//88 90//88
f 147//89 90//89 88//89
f 137//90 154//90 163//90
f 91//91 201//91 178//91
f 161//92 194//92 169//92
f 89//93 100//93 91//93
f 99//94 90//94 92//94
f 90//95 193//95 92//95
f 153//96 186//96 160//96
f 184//97 217//97 192//97
f 91//98 100//98 93//98
f 99//99 92//99 94//99
f 92//100 216//100 94//100
f 176//101 209//101 183//101
f 93//102 224//102 201//102
f 93//103 100//103 95//103
f 99//104 94//104 96//104
f 216//105 96//105 94//105
f 199//106 232//106 206//106
f 95//107 247//107 224//107
f 207//108 240//108 215//108
f 99//109 96//109 98//109
f 239//110 98//110 96//110
f 222//111 255//111 229//111
f 97//112 270//112 247//112
f 238//113 254//113 263//113
f 95//114 100//114 97//114
f 99//115 98//115 102//115
f 262//116 102//116 98//116
f 245//117 278//117 252//117
f 101//118 293//118 270//118
f 253//119 286//119 261//119
f 97//120 100//120 101//120
f 99//121 102//121 104//121
f 285//122 104//122 102//122
f 268//123 301//123 275//123
f 103//124 316//124 293//124
f 276//125 309//125 284//125
f 101//126 100//126 103//126
f 308//127 106//127 104//127
f 291//128 324//128 298//128
f 307//129 323//129 332//129
f 103//130 100//130 105//130
f 99//131 104//131 106//131
f 110//132 113//132 107//132
f 108//133 111//133 110//133
f 113//134 112//134 109//134
f 114//135 119//135 122//135
f 115//136 119//136 118//136
f 116//137 119//137 120//137
f 117//138 119//138 121//138
f 126//139 129//139 123//139
f 128//140 126//140 124//140
f 125//141 127//141 128//141
f 133//142 136//142 130//142
f 135//143 133//143 131//143
f 132//144 134//144 135//144
f 137//145 142//145 145//145
f 138//146 142//146 141//146
f 139//147 142//147 143//147
f 140//148 142//148 144//148
f 149//149 152//149 146//149
f 147//150 150//150 149//150
f 152//151 151//151 148//151
f 156//152 159//152 153//152
f 158//153 156//153 154//153
f 155//154 157//154 158//154
f 160//155 165//155 168//155
f 161//156 165//156 164//156
f 162//157 165//157 166//157
f 163//158 165//158 167//158
f 172//159 175//159 169//159
f 170//160 173//160 172//160
f 175//161 174//161 171//161
f 179//162 182//162 176//162
f 181//163 179//163 177//163
f 178//164 180//164 181//164
f 183//165 188//165 191//165
f 184//166 188//166 187//166
f 185//167 188//167 189//167
f 186//168 188//168 190//168
f 195//169 198//169 192//169
f 193//170 196//170 195//170
f 198//171 197//171 194//171
f 202//172 205//172 199//172
f 204//173 202//173 200//173
f 201//174 203//174 204//174
f 206//175 211//175 214//175
f 207//176 211//176 210//176
f 208//177 211//177 212//177
f 209//178 211//178 213//178
f 218//179 221//179 215//179
f 216//180 219//180 218//180
f 221//181 220//181 217//181
f 225//182 228//182 222//182
f 227//183 225//183 223//183
f 224//184 226//184 227//184
f 229//185 234//185 237//185
f 230//186 234//186 233//186
f 231//187 234//187 235//187
f 232//188 234//188 236//188
f 241//189 244//189 238//189
f 239//190 242//190 241//190
f 244//191 243//191 240//191
f 248//192 251//192 245//192
f 250//193 248//193 246//193
f 247//194 249//194 250//194
f 252//195 257//195 260//195
f 253//196 257//196 256//196
f 254//197 257//197 258//197
f 255//198 257//198 259//198
f 264//199 267//199 261//199
f 262//200 265//200 264//200
f 267//201 266//201 263//201
f 271//202 274//202 268//202
f 273//203 271//203 269//203
f 270//204 272//204 273//204
f 275//205 280//205 283//205
f 276//206 280//206 279//206
f 277//207 280//207 281//207
f 278//208 280//208 282//208
f 287//209 290//209 284//209
f 285//210 288//210 287//210
f 290//211 289//211 286//211
f 294//212 297//212 291//212
f 296//213 294//213 292//213
f 293//214 295//214 296//214
f 298//215 303//215 306//215
f 299//216 303//216 302//216
f 300//217 303//217 304//217
f 301//218 303//218 305//218
f 310//219 313//219 307//219
f 308//220 311//220 310//220
f 313//221 312//221 309//221
f 317//222 320//222 314//222
f 319//223 317//223 315//223
f 316//224 318//224 319//224
f 321//225 326//225 329//225
f 322//226 326//226 325//226
f 323//227 326//227 327//227
f 324//228 326//228 328//228
f 333//229 336//229 330//229
f 331//230 334//230 333//230
f 336//231 335//231 332//231
f 109//232 118//232 113//232
f 118//233 107//233 113//233
f 116//234 126//234 121//234
f 121//235 123//235 117//235
f 130//236 145//236 133//236
f 145//237 131//237 133//237
f 146//238 143//238 138//238
f 152//239 139//239 143//239
f 124//240 151//240 128//240
f 151//241 125//241 128//241
f 116//242 144//242 139//242
f 120//243 140//243 144//243
f 132//244 112//244 108//244
f 112//245 131//245 109//245
f 160//246 156//246 153//246
f 168//247 154//247 156//247
f 161//248 175//248 166//248
f 166//249 171//249 162//249
f 171//250 149//250 146//250
f 174//251 147//251 149//251
f 138//252 167//252 162//252
f 141//253 163//253 167//253
f 155//254 136//254 132//254
f 158//255 130//255 136//255
f 183//256 179//256 176//256
f 191//257 177//257 179//257
f 192//258 189//258 184//258
f 189//259 194//259 185//259
f 194//260 172//260 169//260
f 197//261 170//261 172//261
f 161//262 190//262 185//262
f 190//263 160//263 186//263
f 155//264 181//264 159//264
f 159//265 177//265 153//265
f 199//266 214//266 202//266
f 202//267 209//267 200//267
f 215//268 212//268 207//268
f 221//269 208//269 212//269
f 184//270 213//270 208//270
f 213//271 183//271 209//271
f 201//272 182//272 178//272
f 182//273 200//273 176//273
f 216//274 195//274 220//274
f 195//275 217//275 220//275
f 229//276 225//276 222//276
f 237//277 223//277 225//277
f 238//278 235//278 230//278
f 235//279 240//279 231//279
f 216//280 243//280 239//280
f 218//281 240//281 243//281
f 232//282 210//282 206//282
f 236//283 207//283 210//283
f 199//284 227//284 223//284
f 227//285 201//285 224//285
f 245//286 260//286 248//286
f 248//287 255//287 246//287
f 261//288 258//288 253//288
f 267//289 254//289 258//289
f 239//290 266//290 262//290
f 241//291 263//291 266//291
f 255//292 233//292 229//292
f 233//293 254//293 230//293
f 222//294 250//294 246//294
f 228//295 247//295 250//295
f 275//296 271//296 268//296
f 271//297 278//297 269//297
f 276//298 290//298 281//298
f 290//299 277//299 281//299
f 262//300 289//300 285//300
f 264//301 286//301 289//301
f 252//302 282//302 256//302
f 282//303 253//303 256//303
f 245//304 273//304 269//304
f 273//305 247//305 270//305
f 298//306 294//306 291//306
f 294//307 301//307 292//307
f 307//308 304//308 299//308
f 304//309 309//309 300//309
f 308//310 287//310 312//310
f 312//311 284//311 309//311
f 275//312 305//312 279//312
f 305//313 276//313 279//313
f 268//314 296//314 292//314
f 274//315 293//315 296//315
f 321//316 317//316 314//316
f 317//317 324//317 315//317
f 322//318 336//318 327//318
f 336//319 323//319 327//319
f 331//320 310//320 335//320
f 335//321 307//321 332//321
f 298//322 328//322 302//322
f 328//323 299//323 302//323
f 315//324 297//324 319//324
f 297//325 316//325 319//325
f 331//326 129//326 125//326
f 333//327 123//327 129//327
f 114//328 325//328 321//328
f 325//329 117//329 322//329
f 314//330 110//330 107//330
f 110//331 316//331 108//331
f 85//332 132//332 108//332
f 83//1 5//1 2//1
f 17//2 23//2 20//2
f 23//3 29//3 26//3
f 29//4 35//4 32//4
f 35//5 41//5 38//5
f 41//6 47//6 44//6
f 47//7 53//7 50//7
f 53//8 59//8 56//8
f 59//9 65//9 62//9
f 65//10 71//10 68//10
f 71//11 77//11 74//11
f 77//12 83//12 80//12
f 11//13 17//13 14//13
f 16//14 10//14 4//14
f 4//14 82//14 76//14
f 76//14 70//14 64//14
f 64//14 58//14 52//14
f 52//14 46//14 40//14
f 40//14 34//14 28//14
f 28//14 22//14 16//14
f 16//14 4//14 76//14
f 76//14 64//14 52//14
f 52//14 40//14 28//14
f 28//14 16//14 76//14
f 5//15 11//15 8//15
f 8//16 9//16 3//16
f 3//17 9//17 7//17
f 5//18 6//18 12//18
f 6//19 4//19 10//19
f 8//20 14//20 15//20
f 9//21 15//21 13//21
f 11//333 12//333 18//333
f 12//23 10//23 16//23
f 14//24 20//24 21//24
f 21//25 19//25 13//25
f 17//26 18//26 24//26
f 24//27 18//27 16//27
f 26//28 27//28 21//28
f 21//29 27//29 25//29
f 23//30 24//30 30//30
f 30//31 24//31 22//31
f 32//32 33//32 27//32
f 27//33 33//33 31//33
f 35//34 29//34 30//34
f 30//35 28//35 34//35
f 38//334 39//334 33//334
f 39//37 37//37 31//37
f 41//38 35//38 36//38
f 42//39 36//39 34//39
f 44//40 45//40 39//40
f 45//41 43//41 37//41
f 41//42 42//42 48//42
f 48//43 42//43 40//43
f 50//44 51//44 45//44
f 45//45 51//45 49//45
f 47//46 48//46 54//46
f 48//47 46//47 52//47
f 50//48 56//48 57//48
f 51//49 57//49 55//49
f 53//335 54//335 60//335
f 54//51 52//51 58//51
f 56//52 62//52 63//52
f 63//53 61//53 55//53
f 59//54 60//54 66//54
f 66//55 60//55 58//55
f 68//56 69//56 63//56
f 63//57 69//57 67//57
f 65//58 66//58 72//58
f 72//59 66//59 64//59
f 74//60 75//60 69//60
f 69//61 75//61 73//61
f 77//62 71//62 72//62
f 72//63 70//63 76//63
f 80//336 81//336 75//336
f 81//65 79//65 73//65
f 83//66 77//66 78//66
f 84//67 78//67 76//67
f 2//68 3//68 81//68
f 3//69 1//69 79//69
f 83//70 84//70 6//70
f 6//71 84//71 82//71
f 79//72 1//72 7//72
f 7//72 13//72 19//72
f 19//72 25//72 31//72
f 31//72 37//72 43//72
f 43//72 49//72 55//72
f 55//72 61//72 67//72
f 67//72 73//72 79//72
f 79//72 7//72 19//72
f 19//72 31//72 43//72
f 43//72 55//72 67//72
f 67//72 79//72 19//72
f 125//73 147//73 88//73
f 124//74 116//74 139//74
f 87//75 89//75 155//75
f 109//76 131//76 140//76
f 331//79 125//79 86//79
f 105//80 85//80 108//80
f 322//83 117//83 123//83
f 314//84 107//84 114//84
f 155//85 89//85 91//85
f 138//86 162//86 171//86
f 147//89 170//89 90//89
f 137//90 130//90 154//90
f 91//91 93//91 201//91
f 161//92 185//92 194//92
f 90//95 170//95 193//95
f 153//96 177//96 186//96
f 184//97 208//97 217//97
f 92//100 193//100 216//100
f 176//101 200//101 209//101
f 93//102 95//102 224//102
f 216//105 239//105 96//105
f 199//106 223//106 232//106
f 95//107 97//107 247//107
f 207//108 231//108 240//108
f 239//110 262//110 98//110
f 222//111 246//111 255//111
f 97//112 101//112 270//112
f 238//113 230//113 254//113
f 262//116 285//116 102//116
f 245//117 269//117 278//117
f 101//118 103//118 293//118
f 253//119 277//119 286//119
f 285//122 308//122 104//122
f 268//123 292//123 301//123
f 103//124 105//124 316//124
f 276//125 300//125 309//125
f 308//127 331//127 106//127
f 291//128 315//128 324//128
f 307//129 299//129 323//129
f 110//337 111//337 113//337
f 108//338 112//338 111//338
f 113//339 111//339 112//339
f 114//340 118//340 119//340
f 115//341 120//341 119//341
f 116//342 121//342 119//342
f 117//343 122//343 119//343
f 126//344 127//344 129//344
f 128//345 127//345 126//345
f 125//346 129//346 127//346
f 133//347 134//347 136//347
f 135//348 134//348 133//348
f 132//349 136//349 134//349
f 137//350 141//350 142//350
f 138//351 143//351 142//351
f 139//352 144//352 142//352
f 140//353 145//353 142//353
f 149//354 150//354 152//354
f 147//355 151//355 150//355
f 152//356 150//356 151//356
f 156//357 157//357 159//357
f 158//358 157//358 156//358
f 155//359 159//359 157//359
f 160//360 164//360 165//360
f 161//361 166//361 165//361
f 162//362 167//362 165//362
f 163//363 168//363 165//363
f 172//364 173//364 175//364
f 170//365 174//365 173//365
f 175//366 173//366 174//366
f 179//367 180//367 182//367
f 181//368 180//368 179//368
f 178//369 182//369 180//369
f 183//370 187//370 188//370
f 184//371 189//371 188//371
f 185//372 190//372 188//372
f 186//373 191//373 188//373
f 195//374 196//374 198//374
f 193//375 197//375 196//375
f 198//376 196//376 197//376
f 202//377 203//377 205//377
f 204//378 203//378 202//378
f 201//379 205//379 203//379
f 206//380 210//380 211//380
f 207//381 212//381 211//381
f 208//382 213//382 211//382
f 209//383 214//383 211//383
f 218//384 219//384 221//384
f 216//385 220//385 219//385
f 221//386 219//386 220//386
f 225//387 226//387 228//387
f 227//388 226//388 225//388
f 224//389 228//389 226//389
f 229//390 233//390 234//390
f 230//391 235//391 234//391
f 231//392 236//392 234//392
f 232//393 237//393 234//393
f 241//394 242//394 244//394
f 239//395 243//395 242//395
f 244//396 242//396 243//396
f 248//397 249//397 251//397
f 250//398 249//398 248//398
f 247//399 251//399 249//399
f 252//400 256//400 257//400
f 253//401 258//401 257//401
f 254//402 259//402 257//402
f 255//403 260//403 257//403
f 264//404 265//404 267//404
f 262//405 266//405 265//405
f 267//406 265//406 266//406
f 271//407 272//407 274//407
f 273//408 272//408 271//408
f 270//409 274//409 272//409
f 275//410 279//410 280//410
f 276//411 281//411 280//411
f 277//412 282//412 280//412
f 278//413 283//413 280//413
f 287//414 288//414 290//414
f 285//415 289//415 288//415
f 290//416 288//416 289//416
f 294//417 295//417 297//417
f 296//418 295//418 294//418
f 293//419 297//419 295//419
f 298//420 302//420 303//420
f 299//421 304//421 303//421
f 300//422 305//422 303//422
f 301//423 306//423 303//423
f 310//424 311//424 313//424
f 308//425 312//425 311//425
f 313//426 311//426 312//426
f 317//427 318//427 320//427
f 319//428 318//428 317//428
f 316//429 320//429 318//429
f 321//430 325//430 326//430
f 322//431 327//431 326//431
f 323//432 328//432 326//432
f 324//433 329//433 326//433
f 333//434 334//434 336//434
f 331//435 335//435 334//435
f 336//436 334//436 335//436
f 109//437 115//437 118//437
f 118//233 114//233 107//233
f 116//234 124//234 126//234
f 121//235 126//235 123//235
f 130//236 137//236 145//236
f 145//438 140//438 131//438
f 146//238 152//238 143//238
f 152//439 148//439 139//439
f 124//240 148//240 151//240
f 151//241 147//241 125//241
f 116//242 120//242 144//242
f 120//243 115//243 140//243
f 132//244 135//244 112//244
f 112//245 135//245 131//245
f 160//440 168//440 156//440
f 168//247 163//247 154//247
f 161//441 169//441 175//441
f 166//249 175//249 171//249
f 171//442 174//442 149//442
f 174//251 170//251 147//251
f 138//252 141//252 167//252
f 141//253 137//253 163//253
f 155//254 158//254 136//254
f 158//443 154//443 130//443
f 183//256 191//256 179//256
f 191//444 186//444 177//444
f 192//258 198//258 189//258
f 189//445 198//445 194//445
f 194//260 197//260 172//260
f 197//261 193//261 170//261
f 161//262 164//262 190//262
f 190//263 164//263 160//263
f 155//264 178//264 181//264
f 159//265 181//265 177//265
f 199//266 206//266 214//266
f 202//267 214//267 209//267
f 215//268 221//268 212//268
f 221//269 217//269 208//269
f 184//270 187//270 213//270
f 213//271 187//271 183//271
f 201//272 204//272 182//272
f 182//273 204//273 200//273
f 216//274 193//274 195//274
f 195//275 192//275 217//275
f 229//276 237//276 225//276
f 237//277 232//277 223//277
f 238//446 244//446 235//446
f 235//279 244//279 240//279
f 216//280 218//280 243//280
f 218//281 215//281 240//281
f 232//282 236//282 210//282
f 236//283 231//283 207//283
f 199//284 205//284 227//284
f 227//285 205//285 201//285
f 245//286 252//286 260//286
f 248//447 260//447 255//447
f 261//288 267//288 258//288
f 267//448 263//448 254//448
f 239//290 241//290 266//290
f 241//291 238//291 263//291
f 255//292 259//292 233//292
f 233//293 259//293 254//293
f 222//294 228//294 250//294
f 228//295 224//295 247//295
f 275//296 283//296 271//296
f 271//297 283//297 278//297
f 276//298 284//298 290//298
f 290//299 286//299 277//299
f 262//300 264//300 289//300
f 264//301 261//301 286//301
f 252//302 278//302 282//302
f 282//303 277//303 253//303
f 245//304 251//304 273//304
f 273//305 251//305 247//305
f 298//306 306//306 294//306
f 294//449 306//449 301//449
f 307//308 313//308 304//308
f 304//450 313//450 309//450
f 308//310 285//310 287//310
f 312//311 287//311 284//311
f 275//312 301//312 305//312
f 305//313 300//313 276//313
f 268//314 274//314 296//314
f 274//315 270//315 293//315
f 321//316 329//316 317//316
f 317//317 329//317 324//317
f 322//318 330//318 336//318
f 336//319 332//319 323//319
f 331//320 308//320 310//320
f 335//321 310//321 307//321
f 298//322 324//322 328//322
f 328//323 323//323 299//323
f 315//324 291//324 297//324
f 297//325 293//325 316//325
f 331//326 333//326 129//326
f 333//327 330//327 123//327
f 114//328 122//328 325//328
f 325//329 122//329 117//329
f 314//330 320//330 110//330
f 110//331 320//331 316//331
f 85//332 87//332 132//332
