# Blender 4.0.2
# www.blender.org
o Elevator_Cryer73
v 0.376486 1.049393 0.945103
v 0.376777 1.050154 0.944828
v 0.376472 1.049815 0.944911
v 0.388486 1.055393 0.945103
v 0.387703 1.055617 0.944828
v 0.388157 1.055658 0.944911
v 0.376946 1.048474 0.943854
v 0.377314 1.049079 0.943367
v 0.376985 1.048787 0.943514
v 0.388946 1.054474 0.943854
v 0.388241 1.054543 0.943367
v 0.388671 1.054630 0.943514
v 0.377602 1.047162 0.943173
v 0.378081 1.047544 0.942572
v 0.377719 1.047320 0.942754
v 0.389602 1.053162 0.943173
v 0.389008 1.053008 0.942572
v 0.389405 1.053163 0.942754
v 0.378325 1.045715 0.943197
v 0.378927 1.045853 0.942600
v 0.378528 1.045703 0.942781
v 0.390325 1.051715 0.943197
v 0.389854 1.051316 0.942600
v 0.390213 1.051546 0.942781
v 0.378972 1.044421 0.943921
v 0.379684 1.044340 0.943445
v 0.379251 1.044256 0.943590
v 0.390972 1.050421 0.943921
v 0.390610 1.049803 0.943445
v 0.390937 1.050099 0.943590
v 0.379415 1.043536 0.945200
v 0.380201 1.043305 0.944942
v 0.379746 1.043266 0.945020
v 0.391415 1.049536 0.945200
v 0.391128 1.048768 0.944942
v 0.391432 1.049109 0.945020
v 0.379565 1.043235 0.946783
v 0.380377 1.042953 0.946792
v 0.379914 1.042930 0.946789
v 0.391565 1.049235 0.946783
v 0.391304 1.048416 0.946792
v 0.391600 1.048773 0.946789
v 0.379394 1.043578 0.948354
v 0.380177 1.043354 0.948629
v 0.379723 1.043313 0.948546
v 0.391394 1.049578 0.948354
v 0.391103 1.048817 0.948629
v 0.391408 1.049156 0.948546
v 0.378934 1.044496 0.949603
v 0.379640 1.044428 0.950090
v 0.379209 1.044340 0.949943
v 0.390934 1.050496 0.949603
v 0.390566 1.049891 0.950090
v 0.390895 1.050183 0.949943
v 0.378278 1.045809 0.950284
v 0.378872 1.045963 0.950886
v 0.378475 1.045808 0.950703
v 0.390278 1.051809 0.950284
v 0.389799 1.051426 0.950886
v 0.390161 1.051651 0.950703
v 0.377555 1.047256 0.950260
v 0.378026 1.047655 0.950857
v 0.377667 1.047425 0.950676
v 0.389555 1.053256 0.950260
v 0.388953 1.053118 0.950857
v 0.389352 1.053268 0.950676
v 0.376908 1.048550 0.949536
v 0.377270 1.049168 0.950012
v 0.376943 1.048872 0.949867
v 0.388908 1.054550 0.949536
v 0.388196 1.054631 0.950012
v 0.388629 1.054715 0.949867
v 0.376465 1.049435 0.948257
v 0.376752 1.050203 0.948515
v 0.376448 1.049861 0.948437
v 0.388465 1.055435 0.948257
v 0.387679 1.055666 0.948515
v 0.388134 1.055704 0.948437
v 0.376315 1.049736 0.946675
v 0.376576 1.050555 0.946665
v 0.376280 1.050198 0.946668
v 0.388315 1.055736 0.946675
v 0.387503 1.056018 0.946665
v 0.387966 1.056041 0.946668
v 0.287940 1.050870 0.946729
v 0.288540 1.051485 0.946729
v 0.288116 1.051299 0.946729
v 0.377940 1.050870 0.946729
v 0.377340 1.051485 0.946729
v 0.377764 1.051299 0.946729
v 0.287940 1.050436 0.944826
v 0.288540 1.050990 0.944559
v 0.288116 1.050822 0.944640
v 0.377940 1.050436 0.944826
v 0.377340 1.050990 0.944559
v 0.377764 1.050822 0.944640
v 0.287940 1.049219 0.943301
v 0.288540 1.049603 0.942819
v 0.288116 1.049487 0.942965
v 0.377940 1.049219 0.943301
v 0.377340 1.049603 0.942819
v 0.377764 1.049487 0.942965
v 0.287940 1.047461 0.942454
v 0.288540 1.047598 0.941854
v 0.288116 1.047556 0.942036
v 0.377940 1.047461 0.942454
v 0.377340 1.047598 0.941854
v 0.377764 1.047556 0.942036
v 0.287940 1.045510 0.942454
v 0.288540 1.045373 0.941854
v 0.288116 1.045414 0.942036
v 0.377940 1.045510 0.942454
v 0.377340 1.045373 0.941854
v 0.377764 1.045414 0.942036
v 0.287940 1.043752 0.943301
v 0.288540 1.043368 0.942819
v 0.288116 1.043484 0.942965
v 0.377940 1.043752 0.943301
v 0.377340 1.043368 0.942819
v 0.377764 1.043484 0.942965
v 0.287940 1.042535 0.944826
v 0.288540 1.041981 0.944559
v 0.288116 1.042149 0.944640
v 0.377940 1.042535 0.944826
v 0.377340 1.041981 0.944559
v 0.377764 1.042149 0.944640
v 0.287940 1.042101 0.946729
v 0.288540 1.041485 0.946729
v 0.288116 1.041672 0.946729
v 0.377940 1.042101 0.946729
v 0.377340 1.041485 0.946729
v 0.377764 1.041672 0.946729
v 0.287940 1.042535 0.948631
v 0.288540 1.041981 0.948898
v 0.288116 1.042149 0.948817
v 0.377940 1.042535 0.948631
v 0.377340 1.041981 0.948898
v 0.377764 1.042149 0.948817
v 0.287940 1.043752 0.950157
v 0.288540 1.043368 0.950638
v 0.288116 1.043484 0.950492
v 0.377940 1.043752 0.950157
v 0.377340 1.043368 0.950638
v 0.377764 1.043484 0.950492
v 0.287940 1.045510 0.951003
v 0.288540 1.045373 0.951603
v 0.288116 1.045414 0.951421
v 0.377940 1.045510 0.951003
v 0.377340 1.045373 0.951603
v 0.377764 1.045414 0.951421
v 0.287940 1.047461 0.951003
v 0.288540 1.047598 0.951603
v 0.288116 1.047556 0.951421
v 0.377940 1.047461 0.951003
v 0.377340 1.047598 0.951603
v 0.377764 1.047556 0.951421
v 0.287940 1.049219 0.950157
v 0.288540 1.049603 0.950638
v 0.288116 1.049487 0.950492
v 0.377940 1.049219 0.950157
v 0.377340 1.049603 0.950638
v 0.377764 1.049487 0.950492
v 0.287940 1.050436 0.948631
v 0.288540 1.050990 0.948898
v 0.288116 1.050822 0.948817
v 0.377940 1.050436 0.948631
v 0.377340 1.050990 0.948898
v 0.377764 1.050822 0.948817
v 0.389940 1.052485 0.951228
v 0.389940 1.052485 0.942229
v 0.391518 1.054657 0.950191
v 0.390906 1.053814 0.950788
v 0.391231 1.054262 0.950546
v 0.392584 1.055151 0.948979
v 0.391658 1.055824 0.948979
v 0.391981 1.055295 0.949403
v 0.392167 1.055550 0.948979
v 0.392939 1.055639 0.946729
v 0.392013 1.056312 0.946729
v 0.392518 1.056034 0.946729
v 0.391658 1.055824 0.944479
v 0.392584 1.055151 0.944479
v 0.391981 1.055295 0.944054
v 0.392167 1.055550 0.944479
v 0.390906 1.053814 0.942669
v 0.391518 1.054657 0.943266
v 0.391231 1.054262 0.942911
v 0.391502 1.052993 0.950788
v 0.392493 1.053315 0.950191
v 0.392029 1.053164 0.950546
v 0.393646 1.053088 0.948979
v 0.393293 1.054177 0.948979
v 0.393243 1.053559 0.949403
v 0.393543 1.053656 0.948979
v 0.394220 1.053274 0.946729
v 0.393866 1.054363 0.946729
v 0.394111 1.053841 0.946729
v 0.393293 1.054177 0.944479
v 0.393646 1.053088 0.944479
v 0.393243 1.053559 0.944054
v 0.393543 1.053656 0.944479
v 0.392493 1.053315 0.943266
v 0.391502 1.052993 0.942669
v 0.392029 1.053164 0.942911
v 0.391502 1.051978 0.950788
v 0.392493 1.051656 0.950191
v 0.392029 1.051807 0.950546
v 0.393293 1.050794 0.948979
v 0.393646 1.051883 0.948979
v 0.393243 1.051412 0.949403
v 0.393543 1.051315 0.948979
v 0.393866 1.050608 0.946729
v 0.394220 1.051697 0.946729
v 0.394111 1.051130 0.946729
v 0.393646 1.051883 0.944479
v 0.393293 1.050794 0.944479
v 0.393243 1.051412 0.944054
v 0.393543 1.051315 0.944479
v 0.392493 1.051656 0.943266
v 0.391502 1.051978 0.942669
v 0.392029 1.051807 0.942911
v 0.390906 1.051156 0.950788
v 0.391518 1.050313 0.950191
v 0.391231 1.050709 0.950546
v 0.391658 1.049147 0.948979
v 0.392584 1.049820 0.948979
v 0.391981 1.049676 0.949403
v 0.392167 1.049421 0.948979
v 0.392013 1.048659 0.946729
v 0.392939 1.049332 0.946729
v 0.392518 1.048937 0.946729
v 0.392584 1.049820 0.944479
v 0.391658 1.049147 0.944479
v 0.391981 1.049676 0.944054
v 0.392167 1.049421 0.944479
v 0.391518 1.050313 0.943266
v 0.390906 1.051156 0.942669
v 0.391231 1.050709 0.942911
v 0.389940 1.050843 0.950788
v 0.389940 1.049801 0.950191
v 0.389940 1.050289 0.950546
v 0.389368 1.048774 0.948979
v 0.390512 1.048774 0.948979
v 0.389940 1.049013 0.949403
v 0.389940 1.048697 0.948979
v 0.389368 1.048171 0.946729
v 0.390512 1.048171 0.946729
v 0.389940 1.048100 0.946729
v 0.390512 1.048774 0.944479
v 0.389368 1.048774 0.944479
v 0.389940 1.049013 0.944054
v 0.389940 1.048697 0.944479
v 0.389940 1.049801 0.943266
v 0.389940 1.050843 0.942669
v 0.389940 1.050289 0.942911
v 0.388974 1.051156 0.950788
v 0.388362 1.050313 0.950191
v 0.388649 1.050709 0.950546
v 0.387296 1.049820 0.948979
v 0.388222 1.049147 0.948979
v 0.387899 1.049676 0.949403
v 0.387713 1.049421 0.948979
v 0.386941 1.049332 0.946729
v 0.387867 1.048659 0.946729
v 0.387362 1.048937 0.946729
v 0.388222 1.049147 0.944479
v 0.387296 1.049820 0.944479
v 0.387899 1.049676 0.944054
v 0.387713 1.049421 0.944479
v 0.388362 1.050313 0.943266
v 0.388974 1.051156 0.942669
v 0.388649 1.050709 0.942911
v 0.388378 1.051978 0.950788
v 0.387387 1.051656 0.950191
v 0.387851 1.051807 0.950546
v 0.386234 1.051883 0.948979
v 0.386587 1.050794 0.948979
v 0.386637 1.051412 0.949403
v 0.386337 1.051315 0.948979
v 0.385660 1.051697 0.946729
v 0.386014 1.050608 0.946729
v 0.385769 1.051130 0.946729
v 0.386587 1.050794 0.944479
v 0.386234 1.051883 0.944479
v 0.386637 1.051412 0.944054
v 0.386337 1.051315 0.944479
v 0.387387 1.051656 0.943266
v 0.388378 1.051978 0.942669
v 0.387851 1.051807 0.942911
v 0.388378 1.052993 0.950788
v 0.387387 1.053315 0.950191
v 0.387851 1.053164 0.950546
v 0.386587 1.054177 0.948979
v 0.386234 1.053088 0.948979
v 0.386637 1.053559 0.949403
v 0.386337 1.053656 0.948979
v 0.386014 1.054363 0.946729
v 0.385660 1.053274 0.946729
v 0.385769 1.053841 0.946729
v 0.386234 1.053088 0.944479
v 0.386587 1.054177 0.944479
v 0.386637 1.053559 0.944054
v 0.386337 1.053656 0.944479
v 0.387387 1.053315 0.943266
v 0.388378 1.052993 0.942669
v 0.387851 1.053164 0.942911
v 0.388974 1.053814 0.950788
v 0.388362 1.054657 0.950191
v 0.388649 1.054262 0.950546
v 0.388222 1.055824 0.948979
v 0.387296 1.055151 0.948979
v 0.387899 1.055295 0.949403
v 0.387713 1.055550 0.948979
v 0.387867 1.056312 0.946729
v 0.386941 1.055639 0.946729
v 0.387362 1.056034 0.946729
v 0.387296 1.055151 0.944479
v 0.388222 1.055824 0.944479
v 0.387899 1.055295 0.944054
v 0.387713 1.055550 0.944479
v 0.388362 1.054657 0.943266
v 0.388974 1.053814 0.942669
v 0.388649 1.054262 0.942911
v 0.389940 1.054128 0.950788
v 0.389940 1.055170 0.950191
v 0.389940 1.054682 0.950546
v 0.390512 1.056197 0.948979
v 0.389368 1.056197 0.948979
v 0.389940 1.055958 0.949403
v 0.389940 1.056274 0.948979
v 0.390512 1.056799 0.946729
v 0.389368 1.056799 0.946729
v 0.389940 1.056871 0.946729
v 0.389368 1.056197 0.944479
v 0.390512 1.056197 0.944479
v 0.389940 1.055958 0.944054
v 0.389940 1.056274 0.944479
v 0.389940 1.055170 0.943266
v 0.389940 1.054128 0.942669
v 0.389940 1.054682 0.942911
vn -0.4345 0.8689 -0.2370
vn 0.0066 -0.0133 -0.9999
vn 0.2000 -0.4000 -0.8944
vn 0.3538 -0.7075 -0.6118
vn 0.4374 -0.8749 -0.2080
vn 0.4345 -0.8689 0.2370
vn 0.3455 -0.6909 0.6350
vn 0.1880 -0.3761 0.9073
vn -0.0066 0.0133 0.9999
vn -0.2000 0.4000 0.8944
vn -0.3538 0.7075 0.6118
vn -0.4374 0.8749 0.2080
vn -0.1880 0.3761 -0.9073
vn 0.8944 0.4472 -0.0000
vn -0.3455 0.6909 -0.6350
vn -0.6700 0.4588 -0.5837
vn -0.9584 -0.1446 -0.2461
vn 0.0349 0.8113 -0.5837
vn 0.6907 0.6800 -0.2461
vn -0.5253 0.1694 -0.8339
vn -0.8974 -0.2666 -0.3516
vn 0.1796 0.5219 -0.8339
vn 0.7517 0.5580 -0.3516
vn -0.3463 -0.1884 -0.9190
vn -0.8220 -0.4174 -0.3874
vn 0.3585 0.1640 -0.9190
vn 0.8271 0.4071 -0.3874
vn -0.1686 -0.5439 -0.8221
vn -0.7471 -0.5673 -0.3466
vn 0.5363 -0.1914 -0.8221
vn 0.9020 0.2573 -0.3466
vn -0.0273 -0.8265 -0.5623
vn -0.6875 -0.6864 -0.2371
vn 0.6776 -0.4740 -0.5623
vn 0.9616 0.1381 -0.2371
vn 0.0496 -0.9803 -0.1912
vn -0.6551 -0.7513 -0.0806
vn 0.7545 -0.6279 -0.1912
vn 0.9940 0.0733 -0.0806
vn 0.0469 -0.9749 0.2178
vn -0.6562 -0.7490 0.0918
vn 0.7518 -0.6224 0.2178
vn 0.9929 0.0756 0.0918
vn -0.0349 -0.8112 0.5837
vn -0.6907 -0.6800 0.2461
vn 0.6700 -0.4588 0.5837
vn 0.9584 0.1446 0.2461
vn -0.1796 -0.5219 0.8339
vn -0.7517 -0.5580 0.3516
vn 0.5253 -0.1694 0.8339
vn 0.8974 0.2666 0.3516
vn -0.3585 -0.1640 0.9190
vn -0.8271 -0.4071 0.3874
vn 0.3463 0.1884 0.9190
vn 0.8220 0.4174 0.3874
vn -0.5363 0.1914 0.8221
vn -0.9020 -0.2573 0.3466
vn 0.1686 0.5439 0.8221
vn 0.7471 0.5673 0.3466
vn -0.6776 0.4740 0.5623
vn -0.9616 -0.1381 0.2371
vn 0.0273 0.8265 0.5623
vn 0.6875 0.6864 0.2371
vn -0.7545 0.6279 0.1912
vn -0.9940 -0.0733 0.0806
vn -0.0496 0.9803 0.1912
vn 0.6551 0.7513 0.0806
vn -0.7518 0.6224 -0.2178
vn -0.9929 -0.0756 -0.0918
vn -0.0469 0.9749 -0.2178
vn 0.6562 0.7490 -0.0918
vn -0.8944 -0.4472 -0.0000
vn -0.0000 0.9749 0.2225
vn -0.0000 0.4339 -0.9010
vn -0.0000 -0.0000 -1.0000
vn -0.0000 -0.4339 -0.9010
vn -0.0000 -0.7818 -0.6235
vn -0.0000 -0.9749 -0.2225
vn -0.0000 -0.9749 0.2225
vn -0.0000 -0.7818 0.6235
vn -0.0000 -0.4339 0.9010
vn -0.0000 -0.0000 1.0000
vn -0.0000 0.4339 0.9010
vn -0.0000 0.7818 0.6235
vn -0.0000 0.7818 -0.6235
vn 1.0000 -0.0000 -0.0000
vn -0.0000 0.9749 -0.2225
vn -0.3940 0.8960 -0.2045
vn -0.9219 0.3778 -0.0862
vn 0.3940 0.8961 -0.2045
vn 0.9219 0.3778 -0.0862
vn -0.3940 0.7186 -0.5730
vn -0.9219 0.3029 -0.2416
vn 0.3940 0.7186 -0.5730
vn 0.9219 0.3029 -0.2416
vn -0.3941 0.3988 -0.8281
vn -0.9219 0.1681 -0.3491
vn 0.3940 0.3988 -0.8281
vn 0.9219 0.1681 -0.3491
vn -0.3940 -0.0000 -0.9191
vn -0.9219 -0.0000 -0.3875
vn 0.3940 -0.0000 -0.9191
vn 0.9219 -0.0000 -0.3875
vn -0.3940 -0.3988 -0.8281
vn -0.9219 -0.1681 -0.3491
vn 0.3940 -0.3988 -0.8281
vn 0.9219 -0.1681 -0.3491
vn -0.3941 -0.7186 -0.5730
vn -0.9219 -0.3029 -0.2416
vn 0.3940 -0.7186 -0.5730
vn 0.9219 -0.3029 -0.2416
vn -0.3940 -0.8961 -0.2045
vn -0.9219 -0.3777 -0.0862
vn 0.3940 -0.8961 -0.2045
vn 0.9219 -0.3778 -0.0862
vn -0.3940 -0.8961 0.2045
vn -0.9219 -0.3778 0.0862
vn 0.3940 -0.8961 0.2045
vn 0.9219 -0.3778 0.0862
vn -0.3940 -0.7186 0.5731
vn -0.9219 -0.3029 0.2416
vn 0.3940 -0.7186 0.5730
vn 0.9219 -0.3029 0.2416
vn -0.3940 -0.3988 0.8281
vn -0.9219 -0.1681 0.3491
vn 0.3940 -0.3988 0.8281
vn 0.9219 -0.1681 0.3491
vn -0.3940 -0.0000 0.9191
vn -0.9219 -0.0000 0.3874
vn 0.3940 -0.0000 0.9191
vn 0.9219 -0.0000 0.3875
vn -0.3940 0.3988 0.8281
vn -0.9219 0.1681 0.3491
vn 0.3940 0.3988 0.8281
vn 0.9219 0.1681 0.3491
vn -0.3940 0.7186 0.5730
vn -0.9219 0.3029 0.2416
vn 0.3940 0.7186 0.5730
vn 0.9219 0.3029 0.2416
vn -0.3940 0.8960 0.2045
vn -0.9219 0.3778 0.0862
vn 0.3940 0.8961 0.2045
vn 0.9219 0.3778 0.0862
vn -1.0000 -0.0000 -0.0000
vn 0.7246 -0.0000 0.6892
vn 0.5862 0.4259 -0.6892
vn 0.7840 0.5696 0.2469
vn 0.2194 0.1594 -0.9625
vn 0.7840 0.5696 -0.2469
vn 0.2239 0.6892 0.6892
vn 0.2994 0.9216 -0.2469
vn 0.2194 0.1594 0.9625
vn 0.2239 0.6892 -0.6892
vn 0.2994 0.9216 0.2469
vn 0.0838 0.2579 0.9625
vn 0.0838 0.2579 -0.9625
vn 0.2712 -0.0000 0.9625
vn 0.2712 -0.0000 -0.9625
vn 0.9690 -0.0000 -0.2469
vn 0.9690 -0.0000 0.2469
vn 0.5862 -0.4259 0.6892
vn 0.7246 -0.0000 -0.6892
vn 0.2194 -0.1594 -0.9625
vn 0.7840 -0.5696 -0.2469
vn 0.7840 -0.5696 0.2469
vn 0.2239 -0.6892 0.6892
vn 0.5862 -0.4259 -0.6892
vn 0.2194 -0.1594 0.9625
vn 0.0838 -0.2579 -0.9625
vn 0.2994 -0.9216 -0.2469
vn 0.2994 -0.9216 0.2469
vn -0.2239 -0.6892 0.6892
vn 0.2239 -0.6892 -0.6892
vn 0.0838 -0.2579 0.9625
vn -0.0838 -0.2579 -0.9625
vn -0.2994 -0.9216 -0.2469
vn -0.2994 -0.9216 0.2469
vn -0.5862 -0.4259 0.6892
vn -0.2239 -0.6892 -0.6892
vn -0.0838 -0.2579 0.9625
vn -0.2194 -0.1594 -0.9625
vn -0.7840 -0.5696 -0.2469
vn -0.7840 -0.5696 0.2469
vn -0.2712 -0.0000 0.9625
vn -0.5862 -0.4259 -0.6892
vn -0.2194 -0.1594 0.9625
vn -0.9690 -0.0000 -0.2469
vn -0.7246 -0.0000 0.6892
vn -0.5862 0.4259 0.6892
vn -0.7246 -0.0000 -0.6892
vn -0.9690 -0.0000 0.2469
vn -0.2712 -0.0000 -0.9625
vn -0.7840 0.5696 0.2469
vn -0.2239 0.6892 0.6892
vn -0.5862 0.4259 -0.6892
vn -0.2194 0.1594 0.9625
vn -0.2194 0.1594 -0.9625
vn -0.7840 0.5696 -0.2469
vn -0.2239 0.6892 -0.6892
vn -0.0838 0.2579 0.9625
vn -0.0838 0.2579 -0.9625
vn -0.2994 0.9216 -0.2469
vn -0.2994 0.9216 0.2469
vn 0.5559 0.5825 0.5930
vn 0.3822 0.7087 0.5930
vn 0.3822 0.7087 -0.5930
vn 0.5559 0.5824 -0.5930
vn 0.7921 0.1444 0.5930
vn 0.7257 0.3487 0.5930
vn 0.7257 0.3487 -0.5930
vn 0.7921 0.1444 -0.5930
vn 0.7257 -0.3487 0.5930
vn 0.7921 -0.1444 0.5930
vn 0.7921 -0.1444 -0.5930
vn 0.7257 -0.3487 -0.5930
vn 0.3822 -0.7087 0.5930
vn 0.5559 -0.5825 0.5930
vn 0.5559 -0.5825 -0.5930
vn 0.3822 -0.7087 -0.5930
vn -0.1074 -0.7980 0.5930
vn 0.1074 -0.7980 0.5930
vn 0.1074 -0.7980 -0.5930
vn -0.1074 -0.7980 -0.5930
vn -0.5559 -0.5825 0.5930
vn -0.3822 -0.7087 0.5930
vn -0.3822 -0.7087 -0.5930
vn -0.5559 -0.5825 -0.5930
vn -0.7921 -0.1444 0.5930
vn -0.7257 -0.3487 0.5930
vn -0.7257 -0.3487 -0.5930
vn -0.7921 -0.1444 -0.5930
vn -0.7257 0.3487 0.5930
vn -0.7921 0.1444 0.5930
vn -0.7921 0.1444 -0.5930
vn -0.7257 0.3487 -0.5930
vn -0.3822 0.7087 0.5930
vn -0.5559 0.5825 0.5930
vn -0.5559 0.5825 -0.5930
vn -0.3822 0.7087 -0.5930
vn 0.1074 0.7980 0.5930
vn -0.1074 0.7980 0.5930
vn -0.1074 0.7980 -0.5930
vn 0.1074 0.7980 -0.5930
vn 0.6673 0.6992 0.2567
vn 0.4587 0.8507 0.2567
vn 0.6614 0.7054 -0.2549
vn 0.4665 0.8470 -0.2549
vn 0.9508 0.1734 0.2567
vn 0.8711 0.4186 0.2567
vn 0.9497 0.1819 -0.2549
vn 0.8753 0.4111 -0.2549
vn 0.3385 0.2459 0.9083
vn 0.4911 0.3568 0.7946
vn 0.3385 0.2459 -0.9083
vn 0.4911 0.3568 -0.7946
vn 0.8711 -0.4186 0.2567
vn 0.9508 -0.1734 0.2567
vn 0.8752 -0.4111 -0.2549
vn 0.9497 -0.1819 -0.2549
vn 0.4184 -0.0000 0.9083
vn 0.6071 -0.0000 0.7946
vn 0.4184 -0.0000 -0.9083
vn 0.6071 -0.0000 -0.7946
vn 0.4587 -0.8507 0.2567
vn 0.6673 -0.6992 0.2567
vn 0.4665 -0.8470 -0.2549
vn 0.6614 -0.7054 -0.2549
vn 0.3385 -0.2459 -0.9083
vn 0.4911 -0.3568 -0.7946
vn 0.4911 -0.3568 0.7946
vn 0.3385 -0.2459 0.9083
vn -0.1289 -0.9579 0.2567
vn 0.1289 -0.9579 0.2567
vn -0.1205 -0.9594 -0.2549
vn 0.1205 -0.9594 -0.2549
vn 0.1293 -0.3979 -0.9083
vn 0.1876 -0.5774 -0.7946
vn 0.1876 -0.5774 0.7946
vn 0.1293 -0.3979 0.9083
vn -0.6673 -0.6992 0.2567
vn -0.4587 -0.8507 0.2567
vn -0.6614 -0.7054 -0.2549
vn -0.4665 -0.8470 -0.2549
vn -0.1293 -0.3979 -0.9083
vn -0.1876 -0.5774 -0.7946
vn -0.1876 -0.5774 0.7946
vn -0.1293 -0.3979 0.9083
vn -0.9508 -0.1734 0.2567
vn -0.8711 -0.4186 0.2567
vn -0.9497 -0.1819 -0.2549
vn -0.8753 -0.4111 -0.2549
vn -0.3385 -0.2459 -0.9083
vn -0.4911 -0.3568 -0.7946
vn -0.4911 -0.3568 0.7946
vn -0.3385 -0.2459 0.9083
vn -0.8711 0.4186 0.2567
vn -0.9508 0.1734 0.2567
vn -0.8752 0.4111 -0.2549
vn -0.9497 0.1819 -0.2549
vn -0.6071 -0.0000 0.7946
vn -0.4184 -0.0000 0.9083
vn -0.6071 -0.0000 -0.7946
vn -0.4184 -0.0000 -0.9083
vn -0.4587 0.8507 0.2567
vn -0.6673 0.6992 0.2567
vn -0.4665 0.8470 -0.2549
vn -0.6614 0.7054 -0.2549
vn -0.4911 0.3568 0.7946
vn -0.3385 0.2459 0.9083
vn -0.4911 0.3568 -0.7946
vn -0.3385 0.2459 -0.9083
vn 0.1289 0.9579 0.2567
vn -0.1289 0.9579 0.2567
vn 0.1205 0.9594 -0.2549
vn -0.1205 0.9594 -0.2549
vn -0.1876 0.5774 -0.7946
vn -0.1293 0.3979 -0.9083
vn -0.1293 0.3979 0.9083
vn -0.1876 0.5774 0.7946
vn 0.1876 0.5774 -0.7946
vn 0.1293 0.3979 -0.9083
vn 0.1293 0.3979 0.9083
vn 0.1876 0.5774 0.7946
vn 0.5862 0.4259 0.6892
vn 0.0349 0.8112 -0.5837
vn -0.3940 0.3988 -0.8281
vn -0.9219 -0.0000 -0.3874
vn -0.3940 -0.7186 -0.5731
vn -0.9219 -0.3778 -0.0862
vn -0.9219 -0.3777 0.0862
vn -0.3940 -0.7186 0.5730
vn -0.9219 -0.0000 0.3875
vn -0.3940 0.8961 0.2045
vn 0.7246 -0.0000 0.6891
vn 0.7246 -0.0000 -0.6891
vn 0.6614 0.7054 0.2549
vn 0.4665 0.8470 0.2549
vn 0.6673 0.6992 -0.2567
vn 0.4587 0.8507 -0.2567
vn 0.9497 0.1819 0.2549
vn 0.8753 0.4111 0.2549
vn 0.9508 0.1734 -0.2567
vn 0.8711 0.4186 -0.2567
vn 0.8753 -0.4111 0.2549
vn 0.9497 -0.1819 0.2549
vn 0.8711 -0.4186 -0.2567
vn 0.9508 -0.1734 -0.2567
vn 0.4665 -0.8470 0.2549
vn 0.6614 -0.7054 0.2549
vn 0.4587 -0.8507 -0.2567
vn 0.6673 -0.6992 -0.2567
vn -0.1205 -0.9594 0.2549
vn 0.1205 -0.9594 0.2549
vn -0.1289 -0.9579 -0.2567
vn 0.1289 -0.9579 -0.2567
vn -0.6614 -0.7054 0.2549
vn -0.4665 -0.8470 0.2549
vn -0.6673 -0.6992 -0.2567
vn -0.4587 -0.8507 -0.2567
vn -0.9497 -0.1819 0.2549
vn -0.8753 -0.4111 0.2549
vn -0.9508 -0.1734 -0.2567
vn -0.8711 -0.4186 -0.2567
vn -0.8753 0.4111 0.2549
vn -0.9497 0.1819 0.2549
vn -0.8711 0.4186 -0.2567
vn -0.9508 0.1734 -0.2567
vn -0.4665 0.8470 0.2549
vn -0.6614 0.7054 0.2549
vn -0.4587 0.8507 -0.2567
vn -0.6673 0.6992 -0.2567
vn 0.1205 0.9594 0.2549
vn -0.1205 0.9594 0.2549
vn 0.1289 0.9579 -0.2567
vn -0.1289 0.9579 -0.2567
s 0
f 83//1 2//1 80//1
f 17//2 20//2 14//2
f 23//3 26//3 20//3
f 29//4 32//4 26//4
f 35//5 38//5 32//5
f 41//6 44//6 38//6
f 47//7 50//7 44//7
f 53//8 56//8 50//8
f 59//9 62//9 56//9
f 65//10 68//10 62//10
f 71//11 74//11 68//11
f 77//12 80//12 74//12
f 11//13 14//13 8//13
f 76//14 52//14 28//14
f 5//15 8//15 2//15
f 8//16 3//16 2//16
f 9//17 1//17 3//17
f 5//18 12//18 11//18
f 12//19 4//19 10//19
f 14//20 9//20 8//20
f 15//21 7//21 9//21
f 11//22 18//22 17//22
f 18//23 10//23 16//23
f 20//24 15//24 14//24
f 21//25 13//25 15//25
f 23//26 18//26 24//26
f 24//27 16//27 22//27
f 26//28 21//28 20//28
f 27//29 19//29 21//29
f 23//30 30//30 29//30
f 24//31 28//31 30//31
f 26//32 33//32 27//32
f 27//33 31//33 25//33
f 29//34 36//34 35//34
f 30//35 34//35 36//35
f 38//36 33//36 32//36
f 33//37 37//37 31//37
f 35//38 42//38 41//38
f 36//39 40//39 42//39
f 44//40 39//40 38//40
f 39//41 43//41 37//41
f 41//42 48//42 47//42
f 42//43 46//43 48//43
f 50//44 45//44 44//44
f 51//45 43//45 45//45
f 47//46 54//46 53//46
f 54//47 46//47 52//47
f 56//48 51//48 50//48
f 57//49 49//49 51//49
f 53//50 60//50 59//50
f 60//51 52//51 58//51
f 62//52 57//52 56//52
f 63//53 55//53 57//53
f 65//54 60//54 66//54
f 66//55 58//55 64//55
f 68//56 63//56 62//56
f 69//57 61//57 63//57
f 65//58 72//58 71//58
f 66//59 70//59 72//59
f 68//60 75//60 69//60
f 69//61 73//61 67//61
f 71//62 78//62 77//62
f 72//63 76//63 78//63
f 80//64 75//64 74//64
f 75//65 79//65 73//65
f 77//66 84//66 83//66
f 78//67 82//67 84//67
f 2//68 81//68 80//68
f 81//69 1//69 79//69
f 83//70 6//70 5//70
f 84//71 4//71 6//71
f 19//72 43//72 67//72
f 167//73 86//73 164//73
f 101//74 104//74 98//74
f 104//75 113//75 110//75
f 113//76 116//76 110//76
f 119//77 122//77 116//77
f 125//78 128//78 122//78
f 128//79 137//79 134//79
f 137//80 140//80 134//80
f 140//81 149//81 146//81
f 146//82 155//82 152//82
f 155//83 158//83 152//83
f 161//84 164//84 158//84
f 92//85 101//85 98//85
f 160//86 136//86 112//86
f 86//87 95//87 92//87
f 92//88 87//88 86//88
f 87//89 91//89 85//89
f 95//90 90//90 96//90
f 96//91 88//91 94//91
f 92//92 99//92 93//92
f 93//93 97//93 91//93
f 101//94 96//94 102//94
f 102//95 94//95 100//95
f 98//96 105//96 99//96
f 99//97 103//97 97//97
f 107//98 102//98 108//98
f 108//99 100//99 106//99
f 110//100 105//100 104//100
f 111//101 103//101 105//101
f 107//102 114//102 113//102
f 108//103 112//103 114//103
f 110//104 117//104 111//104
f 117//105 109//105 111//105
f 113//106 120//106 119//106
f 120//107 112//107 118//107
f 116//108 123//108 117//108
f 123//109 115//109 117//109
f 119//110 126//110 125//110
f 126//111 118//111 124//111
f 128//112 123//112 122//112
f 129//113 121//113 123//113
f 125//114 132//114 131//114
f 132//115 124//115 130//115
f 134//116 129//116 128//116
f 135//117 127//117 129//117
f 131//118 138//118 137//118
f 138//119 130//119 136//119
f 140//120 135//120 134//120
f 135//121 139//121 133//121
f 143//122 138//122 144//122
f 144//123 136//123 142//123
f 146//124 141//124 140//124
f 141//125 145//125 139//125
f 149//126 144//126 150//126
f 144//127 148//127 150//127
f 146//128 153//128 147//128
f 147//129 151//129 145//129
f 155//130 150//130 156//130
f 150//131 154//131 156//131
f 152//132 159//132 153//132
f 159//133 151//133 153//133
f 155//134 162//134 161//134
f 156//135 160//135 162//135
f 158//136 165//136 159//136
f 165//137 157//137 159//137
f 167//138 162//138 168//138
f 162//139 166//139 168//139
f 164//140 87//140 165//140
f 87//141 163//141 165//141
f 89//142 168//142 90//142
f 168//143 88//143 90//143
f 103//144 127//144 151//144
f 193//145 206//145 209//145
f 183//146 198//146 202//146
f 174//147 196//147 178//147
f 170//148 185//148 203//148
f 178//149 198//149 182//149
f 329//150 171//150 175//150
f 331//151 181//151 335//151
f 172//152 169//152 188//152
f 336//153 181//153 186//153
f 331//154 175//154 179//154
f 324//155 169//155 172//155
f 170//156 339//156 185//156
f 188//157 169//157 205//157
f 170//158 203//158 220//158
f 195//159 215//159 199//159
f 195//160 209//160 213//160
f 210//161 223//161 226//161
f 200//162 215//162 219//162
f 170//163 220//163 237//163
f 212//164 232//164 216//164
f 208//165 230//165 212//165
f 227//166 240//166 243//166
f 217//167 232//167 236//167
f 205//168 169//168 222//168
f 170//169 237//169 254//169
f 229//170 249//170 233//170
f 225//171 247//171 229//171
f 244//172 257//172 260//172
f 234//173 249//173 253//173
f 222//174 169//174 239//174
f 170//175 254//175 271//175
f 246//176 266//176 250//176
f 246//177 260//177 264//177
f 261//178 274//178 277//178
f 251//179 266//179 270//179
f 239//180 169//180 256//180
f 170//181 271//181 288//181
f 263//182 283//182 267//182
f 263//183 277//183 281//183
f 273//184 169//184 290//184
f 268//185 283//185 287//185
f 256//186 169//186 273//186
f 280//187 300//187 284//187
f 278//188 291//188 294//188
f 295//189 308//189 311//189
f 285//190 300//190 304//190
f 276//191 298//191 280//191
f 170//192 288//192 305//192
f 297//193 311//193 315//193
f 312//194 325//194 328//194
f 302//195 317//195 321//195
f 290//196 169//196 307//196
f 170//197 305//197 322//197
f 297//198 317//198 301//198
f 319//199 334//199 338//199
f 307//200 169//200 324//200
f 170//201 322//201 339//201
f 314//202 334//202 318//202
f 310//203 332//203 314//203
f 174//204 177//204 176//204
f 177//205 175//205 176//205
f 181//206 184//206 183//206
f 184//207 182//207 183//207
f 191//208 194//208 193//208
f 194//209 192//209 193//209
f 198//210 201//210 200//210
f 201//211 199//211 200//211
f 208//212 211//212 210//212
f 211//213 209//213 210//213
f 215//214 218//214 217//214
f 218//215 216//215 217//215
f 225//216 228//216 227//216
f 228//217 226//217 227//217
f 232//218 235//218 234//218
f 235//219 233//219 234//219
f 242//220 245//220 244//220
f 245//221 243//221 244//221
f 249//222 252//222 251//222
f 252//223 250//223 251//223
f 259//224 262//224 261//224
f 262//225 260//225 261//225
f 266//226 269//226 268//226
f 269//227 267//227 268//227
f 276//228 279//228 278//228
f 279//229 277//229 278//229
f 283//230 286//230 285//230
f 286//231 284//231 285//231
f 293//232 296//232 295//232
f 296//233 294//233 295//233
f 300//234 303//234 302//234
f 303//235 301//235 302//235
f 310//236 313//236 312//236
f 313//237 311//237 312//237
f 317//238 320//238 319//238
f 320//239 318//239 319//239
f 327//240 330//240 329//240
f 330//241 328//241 329//241
f 334//242 337//242 336//242
f 337//243 335//243 336//243
f 178//244 177//244 174//244
f 177//245 179//245 175//245
f 178//246 184//246 180//246
f 184//247 179//247 180//247
f 195//248 194//248 191//248
f 194//249 196//249 192//249
f 195//250 201//250 197//250
f 201//251 196//251 197//251
f 172//252 190//252 173//252
f 190//253 171//253 173//253
f 185//254 204//254 203//254
f 187//255 202//255 204//255
f 212//256 211//256 208//256
f 211//257 213//257 209//257
f 212//258 218//258 214//258
f 218//259 213//259 214//259
f 188//260 207//260 190//260
f 207//261 189//261 190//261
f 220//262 204//262 221//262
f 221//263 202//263 219//263
f 229//264 228//264 225//264
f 228//265 230//265 226//265
f 229//266 235//266 231//266
f 235//267 230//267 231//267
f 220//268 238//268 237//268
f 221//269 236//269 238//269
f 206//270 224//270 223//270
f 224//271 205//271 222//271
f 246//272 245//272 242//272
f 245//273 247//273 243//273
f 246//274 252//274 248//274
f 252//275 247//275 248//275
f 237//276 255//276 254//276
f 255//277 236//277 253//277
f 240//278 224//278 241//278
f 224//279 239//279 241//279
f 263//280 262//280 259//280
f 262//281 264//281 260//281
f 263//282 269//282 265//282
f 269//283 264//283 265//283
f 254//284 272//284 271//284
f 255//285 270//285 272//285
f 257//286 241//286 258//286
f 258//287 239//287 256//287
f 280//288 279//288 276//288
f 279//289 281//289 277//289
f 280//290 286//290 282//290
f 286//291 281//291 282//291
f 271//292 289//292 288//292
f 289//293 270//293 287//293
f 274//294 258//294 275//294
f 275//295 256//295 273//295
f 297//296 296//296 293//296
f 296//297 298//297 294//297
f 297//298 303//298 299//298
f 303//299 298//299 299//299
f 274//300 292//300 291//300
f 275//301 290//301 292//301
f 304//302 289//302 287//302
f 306//303 288//303 289//303
f 314//304 313//304 310//304
f 313//305 315//305 311//305
f 314//306 320//306 316//306
f 320//307 315//307 316//307
f 291//308 309//308 308//308
f 292//309 307//309 309//309
f 321//310 306//310 304//310
f 306//311 322//311 305//311
f 331//312 330//312 327//312
f 330//313 332//313 328//313
f 331//314 337//314 333//314
f 337//315 332//315 333//315
f 338//316 323//316 321//316
f 340//317 322//317 323//317
f 324//318 309//318 307//318
f 326//319 308//319 309//319
f 186//320 340//320 338//320
f 340//321 185//321 339//321
f 324//322 173//322 326//322
f 326//323 171//323 325//323
f 176//324 189//324 192//324
f 83//1 5//1 2//1
f 17//2 23//2 20//2
f 23//3 29//3 26//3
f 29//4 35//4 32//4
f 35//5 41//5 38//5
f 41//6 47//6 44//6
f 47//7 53//7 50//7
f 53//8 59//8 56//8
f 59//9 65//9 62//9
f 65//10 71//10 68//10
f 71//11 77//11 74//11
f 77//12 83//12 80//12
f 11//13 17//13 14//13
f 16//14 10//14 4//14
f 4//14 82//14 76//14
f 76//14 70//14 64//14
f 64//14 58//14 52//14
f 52//14 46//14 40//14
f 40//14 34//14 28//14
f 28//14 22//14 16//14
f 16//14 4//14 76//14
f 76//14 64//14 52//14
f 52//14 40//14 28//14
f 28//14 16//14 76//14
f 5//15 11//15 8//15
f 8//16 9//16 3//16
f 9//17 7//17 1//17
f 5//325 6//325 12//325
f 12//19 6//19 4//19
f 14//20 15//20 9//20
f 15//21 13//21 7//21
f 11//22 12//22 18//22
f 18//23 12//23 10//23
f 20//24 21//24 15//24
f 21//25 19//25 13//25
f 23//26 17//26 18//26
f 24//27 18//27 16//27
f 26//28 27//28 21//28
f 27//29 25//29 19//29
f 23//30 24//30 30//30
f 24//31 22//31 28//31
f 26//32 32//32 33//32
f 27//33 33//33 31//33
f 29//34 30//34 36//34
f 30//35 28//35 34//35
f 38//36 39//36 33//36
f 33//37 39//37 37//37
f 35//38 36//38 42//38
f 36//39 34//39 40//39
f 44//40 45//40 39//40
f 39//41 45//41 43//41
f 41//42 42//42 48//42
f 42//43 40//43 46//43
f 50//44 51//44 45//44
f 51//45 49//45 43//45
f 47//46 48//46 54//46
f 54//47 48//47 46//47
f 56//48 57//48 51//48
f 57//49 55//49 49//49
f 53//50 54//50 60//50
f 60//51 54//51 52//51
f 62//52 63//52 57//52
f 63//53 61//53 55//53
f 65//54 59//54 60//54
f 66//55 60//55 58//55
f 68//56 69//56 63//56
f 69//57 67//57 61//57
f 65//58 66//58 72//58
f 66//59 64//59 70//59
f 68//60 74//60 75//60
f 69//61 75//61 73//61
f 71//62 72//62 78//62
f 72//63 70//63 76//63
f 80//64 81//64 75//64
f 75//65 81//65 79//65
f 77//66 78//66 84//66
f 78//67 76//67 82//67
f 2//68 3//68 81//68
f 81//69 3//69 1//69
f 83//70 84//70 6//70
f 84//71 82//71 4//71
f 79//72 1//72 7//72
f 7//72 13//72 19//72
f 19//72 25//72 31//72
f 31//72 37//72 43//72
f 43//72 49//72 55//72
f 55//72 61//72 67//72
f 67//72 73//72 79//72
f 79//72 7//72 19//72
f 19//72 31//72 43//72
f 43//72 55//72 67//72
f 67//72 79//72 19//72
f 167//73 89//73 86//73
f 101//74 107//74 104//74
f 104//75 107//75 113//75
f 113//76 119//76 116//76
f 119//77 125//77 122//77
f 125//78 131//78 128//78
f 128//79 131//79 137//79
f 137//80 143//80 140//80
f 140//81 143//81 149//81
f 146//82 149//82 155//82
f 155//83 161//83 158//83
f 161//84 167//84 164//84
f 92//85 95//85 101//85
f 100//86 94//86 88//86
f 88//86 166//86 160//86
f 160//86 154//86 148//86
f 148//86 142//86 136//86
f 136//86 130//86 124//86
f 124//86 118//86 112//86
f 112//86 106//86 100//86
f 100//86 88//86 160//86
f 160//86 148//86 136//86
f 136//86 124//86 112//86
f 112//86 100//86 160//86
f 86//87 89//87 95//87
f 92//88 93//88 87//88
f 87//89 93//89 91//89
f 95//90 89//90 90//90
f 96//91 90//91 88//91
f 92//92 98//92 99//92
f 93//93 99//93 97//93
f 101//94 95//94 96//94
f 102//95 96//95 94//95
f 98//326 104//326 105//326
f 99//97 105//97 103//97
f 107//98 101//98 102//98
f 108//99 102//99 100//99
f 110//100 111//100 105//100
f 111//327 109//327 103//327
f 107//102 108//102 114//102
f 108//103 106//103 112//103
f 110//104 116//104 117//104
f 117//105 115//105 109//105
f 113//106 114//106 120//106
f 120//107 114//107 112//107
f 116//328 122//328 123//328
f 123//109 121//109 115//109
f 119//110 120//110 126//110
f 126//111 120//111 118//111
f 128//112 129//112 123//112
f 129//329 127//329 121//329
f 125//114 126//114 132//114
f 132//115 126//115 124//115
f 134//116 135//116 129//116
f 135//330 133//330 127//330
f 131//118 132//118 138//118
f 138//119 132//119 130//119
f 140//331 141//331 135//331
f 135//121 141//121 139//121
f 143//122 137//122 138//122
f 144//123 138//123 136//123
f 146//124 147//124 141//124
f 141//125 147//125 145//125
f 149//126 143//126 144//126
f 144//127 142//127 148//127
f 146//128 152//128 153//128
f 147//332 153//332 151//332
f 155//130 149//130 150//130
f 150//131 148//131 154//131
f 152//132 158//132 159//132
f 159//133 157//133 151//133
f 155//134 156//134 162//134
f 156//135 154//135 160//135
f 158//136 164//136 165//136
f 165//137 163//137 157//137
f 167//138 161//138 162//138
f 162//139 160//139 166//139
f 164//333 86//333 87//333
f 87//141 85//141 163//141
f 89//142 167//142 168//142
f 168//143 166//143 88//143
f 163//144 85//144 91//144
f 91//144 97//144 103//144
f 103//144 109//144 115//144
f 115//144 121//144 127//144
f 127//144 133//144 139//144
f 139//144 145//144 151//144
f 151//144 157//144 163//144
f 163//144 91//144 103//144
f 103//144 115//144 127//144
f 127//144 139//144 151//144
f 151//144 163//144 103//144
f 209//334 191//334 193//334
f 193//145 189//145 206//145
f 206//145 210//145 209//145
f 202//146 186//146 183//146
f 183//146 182//146 198//146
f 198//146 200//146 202//146
f 174//147 192//147 196//147
f 178//149 196//149 198//149
f 175//150 327//150 329//150
f 329//150 325//150 171//150
f 171//150 176//150 175//150
f 331//151 179//151 181//151
f 186//153 338//153 336//153
f 336//153 335//153 181//153
f 181//153 183//153 186//153
f 331//154 327//154 175//154
f 195//159 213//159 215//159
f 195//160 191//160 209//160
f 226//161 208//161 210//161
f 210//161 206//161 223//161
f 223//161 227//161 226//161
f 219//162 202//162 200//162
f 200//335 199//335 215//335
f 215//162 217//162 219//162
f 212//164 230//164 232//164
f 208//165 226//165 230//165
f 243//166 225//166 227//166
f 227//166 223//166 240//166
f 240//166 244//166 243//166
f 236//167 219//167 217//167
f 217//167 216//167 232//167
f 232//167 234//167 236//167
f 229//170 247//170 249//170
f 225//171 243//171 247//171
f 260//172 242//172 244//172
f 244//172 240//172 257//172
f 257//172 261//172 260//172
f 253//173 236//173 234//173
f 234//173 233//173 249//173
f 249//173 251//173 253//173
f 246//176 264//176 266//176
f 246//177 242//177 260//177
f 277//178 259//178 261//178
f 261//178 257//178 274//178
f 274//178 278//178 277//178
f 270//179 253//179 251//179
f 251//179 250//179 266//179
f 266//179 268//179 270//179
f 263//182 281//182 283//182
f 263//183 259//183 277//183
f 287//185 270//185 268//185
f 268//185 267//185 283//185
f 283//185 285//185 287//185
f 280//187 298//187 300//187
f 294//188 276//188 278//188
f 278//188 274//188 291//188
f 291//188 295//188 294//188
f 311//189 293//189 295//189
f 295//189 291//189 308//189
f 308//189 312//189 311//189
f 304//190 287//190 285//190
f 285//190 284//190 300//190
f 300//190 302//190 304//190
f 276//191 294//191 298//191
f 297//193 293//193 311//193
f 328//194 310//194 312//194
f 312//194 308//194 325//194
f 325//194 329//194 328//194
f 321//195 304//195 302//195
f 302//195 301//195 317//195
f 317//195 319//195 321//195
f 297//198 315//198 317//198
f 338//199 321//199 319//199
f 319//199 318//199 334//199
f 334//199 336//199 338//199
f 314//202 332//202 334//202
f 310//203 328//203 332//203
f 178//336 180//336 177//336
f 177//337 180//337 179//337
f 178//338 182//338 184//338
f 184//339 181//339 179//339
f 195//340 197//340 194//340
f 194//341 197//341 196//341
f 195//342 199//342 201//342
f 201//343 198//343 196//343
f 172//252 188//252 190//252
f 190//253 189//253 171//253
f 185//254 187//254 204//254
f 187//255 186//255 202//255
f 212//344 214//344 211//344
f 211//345 214//345 213//345
f 212//346 216//346 218//346
f 218//347 215//347 213//347
f 188//260 205//260 207//260
f 207//261 206//261 189//261
f 220//262 203//262 204//262
f 221//263 204//263 202//263
f 229//348 231//348 228//348
f 228//349 231//349 230//349
f 229//350 233//350 235//350
f 235//351 232//351 230//351
f 220//268 221//268 238//268
f 221//269 219//269 236//269
f 206//270 207//270 224//270
f 224//271 207//271 205//271
f 246//352 248//352 245//352
f 245//353 248//353 247//353
f 246//354 250//354 252//354
f 252//355 249//355 247//355
f 237//276 238//276 255//276
f 255//277 238//277 236//277
f 240//278 223//278 224//278
f 224//279 222//279 239//279
f 263//356 265//356 262//356
f 262//357 265//357 264//357
f 263//358 267//358 269//358
f 269//359 266//359 264//359
f 254//284 255//284 272//284
f 255//285 253//285 270//285
f 257//286 240//286 241//286
f 258//287 241//287 239//287
f 280//360 282//360 279//360
f 279//361 282//361 281//361
f 280//362 284//362 286//362
f 286//363 283//363 281//363
f 271//292 272//292 289//292
f 289//293 272//293 270//293
f 274//294 257//294 258//294
f 275//295 258//295 256//295
f 297//364 299//364 296//364
f 296//365 299//365 298//365
f 297//366 301//366 303//366
f 303//367 300//367 298//367
f 274//300 275//300 292//300
f 275//301 273//301 290//301
f 304//302 306//302 289//302
f 306//303 305//303 288//303
f 314//368 316//368 313//368
f 313//369 316//369 315//369
f 314//370 318//370 320//370
f 320//371 317//371 315//371
f 291//308 292//308 309//308
f 292//309 290//309 307//309
f 321//310 323//310 306//310
f 306//311 323//311 322//311
f 331//372 333//372 330//372
f 330//373 333//373 332//373
f 331//374 335//374 337//374
f 337//375 334//375 332//375
f 338//316 340//316 323//316
f 340//317 339//317 322//317
f 324//318 326//318 309//318
f 326//319 325//319 308//319
f 186//320 187//320 340//320
f 340//321 187//321 185//321
f 324//322 172//322 173//322
f 326//323 173//323 171//323
f 192//324 174//324 176//324
f 176//324 171//324 189//324
f 189//324 193//324 192//324
