# Blender 4.0.2
# www.blender.org
o Forceps_FX151
v 0.513235 0.996496 0.933741
v 0.513905 0.997029 0.933816
v 0.513461 0.996897 0.933793
v 0.531101 0.994303 0.933741
v 0.530580 0.994982 0.933816
v 0.530978 0.994747 0.933793
v 0.513218 0.996363 0.932433
v 0.513885 0.996868 0.932235
v 0.513442 0.996745 0.932295
v 0.531084 0.994169 0.932433
v 0.530560 0.994821 0.932235
v 0.530959 0.994594 0.932295
v 0.513135 0.995680 0.931312
v 0.513784 0.996043 0.930882
v 0.513346 0.995962 0.931012
v 0.531000 0.993486 0.931312
v 0.530458 0.993995 0.930882
v 0.530863 0.993811 0.931012
v 0.513000 0.994582 0.930602
v 0.513621 0.994716 0.930023
v 0.513192 0.994705 0.930198
v 0.530865 0.992388 0.930602
v 0.530295 0.992669 0.930023
v 0.530709 0.992554 0.930198
v 0.512841 0.993286 0.930441
v 0.513429 0.993151 0.929829
v 0.513010 0.993221 0.930015
v 0.530706 0.991093 0.930441
v 0.530103 0.991103 0.929829
v 0.530527 0.991071 0.930015
v 0.512689 0.992050 0.930863
v 0.513245 0.991657 0.930339
v 0.512836 0.991806 0.930498
v 0.530555 0.989857 0.930863
v 0.529920 0.989610 0.930339
v 0.530353 0.989655 0.930498
v 0.512574 0.991118 0.931784
v 0.513107 0.990531 0.931451
v 0.512705 0.990739 0.931552
v 0.530440 0.988925 0.931784
v 0.529782 0.988484 0.931451
v 0.530222 0.988588 0.931552
v 0.512520 0.990675 0.933020
v 0.513041 0.989995 0.932945
v 0.512643 0.990231 0.932968
v 0.530386 0.988481 0.933020
v 0.529716 0.987948 0.932945
v 0.530160 0.988080 0.932968
v 0.512536 0.990808 0.934328
v 0.513061 0.990156 0.934526
v 0.512661 0.990384 0.934466
v 0.530402 0.988614 0.934328
v 0.529736 0.988109 0.934526
v 0.530178 0.988233 0.934466
v 0.512620 0.991491 0.935449
v 0.513162 0.990982 0.935880
v 0.512757 0.991166 0.935749
v 0.530486 0.989298 0.935449
v 0.529837 0.988935 0.935880
v 0.530274 0.989015 0.935749
v 0.512755 0.992589 0.936159
v 0.513325 0.992309 0.936738
v 0.512912 0.992423 0.936563
v 0.530621 0.990396 0.936159
v 0.530000 0.990261 0.936738
v 0.530429 0.990273 0.936563
v 0.512914 0.993885 0.936320
v 0.513517 0.993874 0.936932
v 0.513094 0.993907 0.936746
v 0.530780 0.991691 0.936320
v 0.530192 0.991827 0.936932
v 0.530611 0.991756 0.936746
v 0.513066 0.995121 0.935898
v 0.513701 0.995368 0.936422
v 0.513268 0.995322 0.936263
v 0.530932 0.992927 0.935898
v 0.530375 0.993320 0.936422
v 0.530785 0.993172 0.936263
v 0.513180 0.996053 0.934977
v 0.513839 0.996494 0.935310
v 0.513399 0.996390 0.935209
v 0.531046 0.993859 0.934977
v 0.530514 0.994446 0.935310
v 0.530916 0.994239 0.935209
v 0.512877 0.993586 0.939681
v 0.512877 0.993586 0.927081
v 0.514984 0.996486 0.938402
v 0.514372 0.995643 0.938999
v 0.514697 0.996090 0.938757
v 0.516438 0.997513 0.936531
v 0.515512 0.998186 0.936531
v 0.515835 0.997656 0.936955
v 0.516020 0.997911 0.936531
v 0.516934 0.998195 0.933381
v 0.516008 0.998868 0.933381
v 0.516513 0.998590 0.933381
v 0.515512 0.998186 0.930231
v 0.516438 0.997513 0.930231
v 0.515835 0.997656 0.929806
v 0.516020 0.997911 0.930231
v 0.514372 0.995643 0.927762
v 0.514984 0.996486 0.928359
v 0.514697 0.996090 0.928004
v 0.515296 0.994371 0.938999
v 0.516287 0.994693 0.938402
v 0.515822 0.994542 0.938757
v 0.518066 0.994670 0.936531
v 0.517712 0.995759 0.936531
v 0.517663 0.995140 0.936955
v 0.517963 0.995238 0.936531
v 0.518869 0.994930 0.933381
v 0.518515 0.996019 0.933381
v 0.518761 0.995497 0.933381
v 0.517712 0.995759 0.930231
v 0.518066 0.994670 0.930231
v 0.517663 0.995140 0.929806
v 0.517963 0.995238 0.930231
v 0.516287 0.994693 0.928359
v 0.515296 0.994371 0.927762
v 0.515822 0.994542 0.928004
v 0.515296 0.992800 0.938999
v 0.516287 0.992478 0.938402
v 0.515822 0.992629 0.938757
v 0.517712 0.991413 0.936531
v 0.518066 0.992502 0.936531
v 0.517663 0.992031 0.936955
v 0.517963 0.991933 0.936531
v 0.518515 0.991152 0.933381
v 0.518869 0.992241 0.933381
v 0.518761 0.991674 0.933381
v 0.518066 0.992502 0.930231
v 0.517712 0.991413 0.930231
v 0.517663 0.992031 0.929806
v 0.517963 0.991933 0.930231
v 0.516287 0.992478 0.928359
v 0.515296 0.992800 0.927762
v 0.515822 0.992629 0.928004
v 0.514372 0.991528 0.938999
v 0.514984 0.990685 0.938402
v 0.514697 0.991081 0.938757
v 0.515512 0.988986 0.936531
v 0.516438 0.989659 0.936531
v 0.515835 0.989515 0.936955
v 0.516020 0.989260 0.936531
v 0.516008 0.988303 0.933381
v 0.516934 0.988976 0.933381
v 0.516513 0.988581 0.933381
v 0.516438 0.989659 0.930231
v 0.515512 0.988986 0.930231
v 0.515835 0.989515 0.929806
v 0.516020 0.989260 0.930231
v 0.514984 0.990685 0.928359
v 0.514372 0.991528 0.927762
v 0.514697 0.991081 0.928004
v 0.512877 0.991043 0.938999
v 0.512877 0.990001 0.938402
v 0.512877 0.990490 0.938757
v 0.512305 0.988316 0.936531
v 0.513450 0.988316 0.936531
v 0.512877 0.988554 0.936955
v 0.512877 0.988239 0.936531
v 0.512305 0.987472 0.933381
v 0.513450 0.987472 0.933381
v 0.512877 0.987400 0.933381
v 0.513450 0.988316 0.930231
v 0.512305 0.988316 0.930231
v 0.512877 0.988554 0.929806
v 0.512877 0.988239 0.930231
v 0.512877 0.990001 0.928359
v 0.512877 0.991043 0.927762
v 0.512877 0.990490 0.928004
v 0.511383 0.991528 0.938999
v 0.510770 0.990685 0.938402
v 0.511058 0.991081 0.938757
v 0.509317 0.989659 0.936531
v 0.510243 0.988986 0.936531
v 0.509920 0.989515 0.936955
v 0.509734 0.989260 0.936531
v 0.508821 0.988976 0.933381
v 0.509747 0.988303 0.933381
v 0.509241 0.988581 0.933381
v 0.510243 0.988986 0.930231
v 0.509317 0.989659 0.930231
v 0.509920 0.989515 0.929806
v 0.509734 0.989260 0.930231
v 0.510770 0.990685 0.928359
v 0.511383 0.991528 0.927762
v 0.511058 0.991081 0.928004
v 0.510459 0.992800 0.938999
v 0.509468 0.992478 0.938402
v 0.509933 0.992629 0.938757
v 0.507688 0.992502 0.936531
v 0.508042 0.991413 0.936531
v 0.508092 0.992031 0.936955
v 0.507792 0.991933 0.936531
v 0.506886 0.992241 0.933381
v 0.507240 0.991152 0.933381
v 0.506994 0.991674 0.933381
v 0.508042 0.991413 0.930231
v 0.507688 0.992502 0.930231
v 0.508092 0.992031 0.929806
v 0.507792 0.991933 0.930231
v 0.509468 0.992478 0.928359
v 0.510459 0.992800 0.927762
v 0.509933 0.992629 0.928004
v 0.510459 0.994371 0.938999
v 0.509468 0.994693 0.938402
v 0.509933 0.994542 0.938757
v 0.508042 0.995759 0.936531
v 0.507688 0.994670 0.936531
v 0.508092 0.995140 0.936955
v 0.507792 0.995238 0.936531
v 0.507240 0.996019 0.933381
v 0.506886 0.994930 0.933381
v 0.506994 0.995497 0.933381
v 0.507688 0.994670 0.930231
v 0.508042 0.995759 0.930231
v 0.508092 0.995140 0.929806
v 0.507792 0.995238 0.930231
v 0.509468 0.994693 0.928359
v 0.510459 0.994371 0.927762
v 0.509933 0.994542 0.928004
v 0.511383 0.995643 0.938999
v 0.510770 0.996486 0.938402
v 0.511058 0.996090 0.938757
v 0.510243 0.998186 0.936531
v 0.509317 0.997513 0.936531
v 0.509920 0.997656 0.936955
v 0.509734 0.997911 0.936531
v 0.509747 0.998868 0.933381
v 0.508821 0.998195 0.933381
v 0.509241 0.998590 0.933381
v 0.509317 0.997513 0.930231
v 0.510243 0.998186 0.930231
v 0.509920 0.997656 0.929806
v 0.509734 0.997911 0.930231
v 0.510770 0.996486 0.928359
v 0.511383 0.995643 0.927762
v 0.511058 0.996090 0.928004
v 0.512877 0.996128 0.938999
v 0.512877 0.997170 0.938402
v 0.512877 0.996682 0.938757
v 0.513450 0.998856 0.936531
v 0.512305 0.998856 0.936531
v 0.512877 0.998617 0.936955
v 0.512877 0.998933 0.936531
v 0.513450 0.999700 0.933381
v 0.512305 0.999700 0.933381
v 0.512877 0.999771 0.933381
v 0.512305 0.998856 0.930231
v 0.513450 0.998856 0.930231
v 0.512877 0.998617 0.929806
v 0.512877 0.998933 0.930231
v 0.512877 0.997170 0.928359
v 0.512877 0.996128 0.927762
v 0.512877 0.996682 0.928004
v 0.513311 0.997117 0.932944
v 0.512790 0.997796 0.932869
v 0.513188 0.997561 0.932891
v 0.438870 1.006257 0.932944
v 0.439540 1.006790 0.932869
v 0.439096 1.006658 0.932891
v 0.513291 0.996955 0.934531
v 0.512767 0.997607 0.934728
v 0.513166 0.997380 0.934668
v 0.438850 1.006096 0.934531
v 0.439517 1.006601 0.934728
v 0.439074 1.006477 0.934668
v 0.513189 0.996126 0.935890
v 0.512647 0.996636 0.936321
v 0.513052 0.996452 0.936190
v 0.438748 1.005267 0.935890
v 0.439397 1.005630 0.936321
v 0.438960 1.005549 0.936190
v 0.513026 0.994794 0.936752
v 0.512456 0.995075 0.937331
v 0.512869 0.994960 0.937155
v 0.438585 1.003934 0.936752
v 0.439206 1.004069 0.937331
v 0.438777 1.004058 0.937155
v 0.512833 0.993223 0.936946
v 0.512230 0.993233 0.937559
v 0.512653 0.993200 0.937373
v 0.438392 1.002363 0.936946
v 0.438980 1.002227 0.937559
v 0.438561 1.002298 0.937373
v 0.512649 0.991723 0.936435
v 0.512014 0.991476 0.936959
v 0.512447 0.991521 0.936800
v 0.438208 1.000863 0.936435
v 0.438764 1.000470 0.936959
v 0.438355 1.000619 0.936800
v 0.512510 0.990592 0.935318
v 0.511851 0.990151 0.935650
v 0.512291 0.990255 0.935550
v 0.438069 0.999732 0.935318
v 0.438601 0.999145 0.935650
v 0.438199 0.999353 0.935550
v 0.512444 0.990054 0.933817
v 0.511774 0.989521 0.933892
v 0.512217 0.989653 0.933870
v 0.438003 0.999195 0.933817
v 0.438524 0.998515 0.933892
v 0.438125 0.998751 0.933870
v 0.512464 0.990216 0.932230
v 0.511797 0.989710 0.932033
v 0.512240 0.989834 0.932093
v 0.438023 0.999356 0.932230
v 0.438547 0.998704 0.932033
v 0.438148 0.998932 0.932093
v 0.512565 0.991045 0.930871
v 0.511916 0.990682 0.930440
v 0.512354 0.990762 0.930571
v 0.438124 1.000185 0.930871
v 0.438666 0.999676 0.930440
v 0.438262 0.999860 0.930571
v 0.512729 0.992377 0.930009
v 0.512108 0.992243 0.929430
v 0.512537 0.992254 0.929606
v 0.438288 1.001517 0.930009
v 0.438858 1.001237 0.929430
v 0.438445 1.001351 0.929606
v 0.512922 0.993949 0.929815
v 0.512334 0.994084 0.929202
v 0.512753 0.994013 0.929388
v 0.438481 1.003089 0.929815
v 0.439084 1.003078 0.929202
v 0.438661 1.003111 0.929388
v 0.513106 0.995448 0.930327
v 0.512550 0.995841 0.929802
v 0.512959 0.995693 0.929961
v 0.438665 1.004589 0.930327
v 0.439300 1.004835 0.929802
v 0.438867 1.004790 0.929961
v 0.513245 0.996579 0.931443
v 0.512712 0.997166 0.931111
v 0.513114 0.996959 0.931211
v 0.438804 1.005719 0.931443
v 0.439463 1.006160 0.931111
v 0.439022 1.006056 0.931211
v 0.531029 0.993261 0.933606
v 0.531700 0.993795 0.933533
v 0.531263 0.993662 0.933614
v 0.542940 0.991799 0.930606
v 0.542455 0.992474 0.930824
v 0.542835 0.992241 0.930699
v 0.530816 0.993200 0.932788
v 0.531417 0.993714 0.932451
v 0.531002 0.993587 0.932612
v 0.542726 0.991738 0.929788
v 0.542172 0.992393 0.929742
v 0.542574 0.992166 0.929697
v 0.530588 0.992781 0.932087
v 0.531116 0.993159 0.931524
v 0.530722 0.993073 0.931753
v 0.542499 0.991319 0.929087
v 0.541871 0.991839 0.928815
v 0.542294 0.991653 0.928838
v 0.530391 0.992087 0.931643
v 0.530855 0.992241 0.930936
v 0.530481 0.992223 0.931209
v 0.542301 0.990625 0.928643
v 0.541610 0.990920 0.928227
v 0.542053 0.990802 0.928294
v 0.530263 0.991255 0.931543
v 0.530686 0.991140 0.930803
v 0.530325 0.991203 0.931086
v 0.542174 0.989793 0.928542
v 0.541441 0.989819 0.928094
v 0.541897 0.989783 0.928171
v 0.530231 0.990450 0.931806
v 0.530643 0.990075 0.931152
v 0.530285 0.990217 0.931409
v 0.542142 0.988988 0.928806
v 0.541398 0.988754 0.928443
v 0.541857 0.988797 0.928494
v 0.530300 0.989832 0.932382
v 0.530735 0.989257 0.931914
v 0.530370 0.989460 0.932114
v 0.542211 0.988370 0.929382
v 0.541490 0.987936 0.929205
v 0.541942 0.988039 0.929200
v 0.530457 0.989523 0.933155
v 0.530942 0.988848 0.932937
v 0.530562 0.989081 0.933062
v 0.542368 0.988060 0.930155
v 0.541697 0.987527 0.930228
v 0.542134 0.987660 0.930147
v 0.530670 0.989583 0.933973
v 0.531225 0.988928 0.934019
v 0.530823 0.989155 0.934064
v 0.542581 0.988121 0.930973
v 0.541980 0.987608 0.931310
v 0.542395 0.987735 0.931149
v 0.530898 0.990003 0.934674
v 0.531526 0.989483 0.934946
v 0.531103 0.989669 0.934923
v 0.542809 0.988540 0.931674
v 0.542281 0.988162 0.932237
v 0.542675 0.988248 0.932008
v 0.531096 0.990697 0.935118
v 0.531787 0.990401 0.935534
v 0.531344 0.990520 0.935467
v 0.543006 0.989235 0.932118
v 0.542542 0.989081 0.932825
v 0.542916 0.989099 0.932552
v 0.531223 0.991529 0.935219
v 0.531956 0.991502 0.935667
v 0.531500 0.991539 0.935590
v 0.543134 0.990067 0.932219
v 0.542711 0.990182 0.932958
v 0.543072 0.990118 0.932675
v 0.531255 0.992334 0.934955
v 0.531999 0.992567 0.935318
v 0.531540 0.992525 0.935267
v 0.543166 0.990871 0.931955
v 0.542754 0.991247 0.932609
v 0.543112 0.991104 0.932352
v 0.531186 0.992952 0.934379
v 0.531907 0.993385 0.934556
v 0.531455 0.993283 0.934561
v 0.543097 0.991490 0.931379
v 0.542662 0.992065 0.931847
v 0.543027 0.991862 0.931647
v 0.512444 0.997117 0.933817
v 0.511774 0.997650 0.933892
v 0.512217 0.997518 0.933870
v 0.438003 0.987977 0.933817
v 0.438524 0.988656 0.933892
v 0.438125 0.988421 0.933870
v 0.512510 0.996579 0.935318
v 0.511851 0.997020 0.935650
v 0.512291 0.996916 0.935550
v 0.438069 0.987439 0.935318
v 0.438601 0.988026 0.935650
v 0.438199 0.987818 0.935550
v 0.512649 0.995448 0.936435
v 0.512014 0.995695 0.936959
v 0.512447 0.995650 0.936800
v 0.438208 0.986308 0.936435
v 0.438764 0.986701 0.936959
v 0.438355 0.986552 0.936800
v 0.512833 0.993949 0.936946
v 0.512230 0.993938 0.937559
v 0.512653 0.993971 0.937373
v 0.438392 0.984808 0.936946
v 0.438980 0.984944 0.937559
v 0.438561 0.984873 0.937373
v 0.513026 0.992377 0.936752
v 0.512456 0.992096 0.937331
v 0.512869 0.992211 0.937155
v 0.438585 0.983237 0.936752
v 0.439206 0.983102 0.937331
v 0.438777 0.983114 0.937155
v 0.513189 0.991045 0.935890
v 0.512647 0.990535 0.936321
v 0.513052 0.990719 0.936190
v 0.438748 0.981905 0.935890
v 0.439397 0.981542 0.936321
v 0.438960 0.981622 0.936190
v 0.513291 0.990216 0.934531
v 0.512767 0.989564 0.934728
v 0.513166 0.989791 0.934668
v 0.438850 0.981076 0.934531
v 0.439517 0.980570 0.934728
v 0.439074 0.980694 0.934668
v 0.513311 0.990054 0.932944
v 0.512790 0.989375 0.932869
v 0.513188 0.989610 0.932891
v 0.438870 0.980914 0.932944
v 0.439540 0.980381 0.932869
v 0.439096 0.980513 0.932891
v 0.513245 0.990592 0.931443
v 0.512713 0.990005 0.931111
v 0.513115 0.990213 0.931211
v 0.438804 0.981452 0.931443
v 0.439463 0.981011 0.931111
v 0.439022 0.981115 0.931211
v 0.513106 0.991723 0.930327
v 0.512550 0.991330 0.929802
v 0.512959 0.991479 0.929961
v 0.438665 0.982583 0.930327
v 0.439300 0.982336 0.929802
v 0.438867 0.982381 0.929961
v 0.512922 0.993223 0.929815
v 0.512334 0.993087 0.929202
v 0.512753 0.993158 0.929388
v 0.438481 0.984082 0.929815
v 0.439084 0.984093 0.929202
v 0.438661 0.984060 0.929388
v 0.512729 0.994794 0.930009
v 0.512108 0.994928 0.929430
v 0.512537 0.994917 0.929606
v 0.438288 0.985654 0.930009
v 0.438858 0.985934 0.929430
v 0.438445 0.985820 0.929606
v 0.512565 0.996126 0.930871
v 0.511916 0.996489 0.930440
v 0.512354 0.996409 0.930571
v 0.438124 0.986986 0.930871
v 0.438666 0.987495 0.930440
v 0.438262 0.987311 0.930571
v 0.512464 0.996955 0.932230
v 0.511797 0.997461 0.932033
v 0.512240 0.997337 0.932093
v 0.438023 0.987815 0.932230
v 0.438547 0.988467 0.932033
v 0.438148 0.988240 0.932093
v 0.512520 0.996496 0.933020
v 0.513041 0.997176 0.932945
v 0.512643 0.996940 0.932968
v 0.530386 0.998690 0.933020
v 0.529716 0.999223 0.932945
v 0.530160 0.999091 0.932968
v 0.512574 0.996053 0.931784
v 0.513107 0.996640 0.931451
v 0.512705 0.996432 0.931552
v 0.530440 0.998247 0.931784
v 0.529782 0.998687 0.931451
v 0.530222 0.998583 0.931552
v 0.512689 0.995121 0.930863
v 0.513245 0.995514 0.930339
v 0.512836 0.995365 0.930498
v 0.530555 0.997315 0.930863
v 0.529920 0.997561 0.930339
v 0.530353 0.997516 0.930498
v 0.512841 0.993885 0.930441
v 0.513429 0.994020 0.929829
v 0.513010 0.993950 0.930015
v 0.530706 0.996078 0.930441
v 0.530103 0.996068 0.929829
v 0.530527 0.996101 0.930015
v 0.513000 0.992589 0.930602
v 0.513621 0.992455 0.930023
v 0.513192 0.992466 0.930198
v 0.530866 0.994783 0.930602
v 0.530295 0.994503 0.930023
v 0.530709 0.994617 0.930198
v 0.513135 0.991491 0.931312
v 0.513784 0.991128 0.930881
v 0.513346 0.991209 0.931012
v 0.531000 0.993685 0.931312
v 0.530458 0.993176 0.930881
v 0.530863 0.993360 0.931012
v 0.513218 0.990808 0.932433
v 0.513885 0.990303 0.932235
v 0.513442 0.990426 0.932295
v 0.531084 0.993002 0.932433
v 0.530560 0.992350 0.932235
v 0.530959 0.992577 0.932295
v 0.513235 0.990675 0.933741
v 0.513905 0.990142 0.933816
v 0.513461 0.990274 0.933793
v 0.531101 0.992869 0.933741
v 0.530580 0.992189 0.933816
v 0.530978 0.992425 0.933793
v 0.513180 0.991118 0.934977
v 0.513839 0.990677 0.935310
v 0.513399 0.990781 0.935209
v 0.531046 0.993312 0.934977
v 0.530514 0.992725 0.935310
v 0.530916 0.992932 0.935209
v 0.513066 0.992050 0.935898
v 0.513701 0.991804 0.936422
v 0.513268 0.991849 0.936263
v 0.530932 0.994244 0.935898
v 0.530375 0.993851 0.936422
v 0.530785 0.994000 0.936263
v 0.512914 0.993286 0.936320
v 0.513517 0.993297 0.936932
v 0.513094 0.993264 0.936746
v 0.530780 0.995480 0.936320
v 0.530192 0.995345 0.936932
v 0.530611 0.995415 0.936746
v 0.512755 0.994582 0.936159
v 0.513325 0.994862 0.936738
v 0.512912 0.994748 0.936563
v 0.530621 0.996775 0.936159
v 0.530000 0.996910 0.936738
v 0.530429 0.996899 0.936563
v 0.512620 0.995680 0.935449
v 0.513162 0.996189 0.935880
v 0.512757 0.996005 0.935749
v 0.530486 0.997873 0.935449
v 0.529837 0.998237 0.935880
v 0.530274 0.998156 0.935749
v 0.512536 0.996363 0.934328
v 0.513061 0.997015 0.934526
v 0.512661 0.996788 0.934466
v 0.530402 0.998557 0.934328
v 0.529736 0.999062 0.934526
v 0.530178 0.998939 0.934466
v 0.530457 0.997649 0.933155
v 0.530942 0.998324 0.932937
v 0.530562 0.998090 0.933062
v 0.542368 0.999111 0.930155
v 0.541697 0.999644 0.930228
v 0.542134 0.999511 0.930147
v 0.530300 0.997339 0.932382
v 0.530735 0.997914 0.931914
v 0.530370 0.997711 0.932114
v 0.542211 0.998802 0.929382
v 0.541490 0.999235 0.929205
v 0.541942 0.999132 0.929200
v 0.530231 0.996721 0.931806
v 0.530643 0.997096 0.931152
v 0.530285 0.996954 0.931409
v 0.542142 0.998183 0.928806
v 0.541398 0.998417 0.928443
v 0.541857 0.998375 0.928494
v 0.530263 0.995916 0.931543
v 0.530686 0.996031 0.930803
v 0.530325 0.995968 0.931086
v 0.542174 0.997378 0.928542
v 0.541441 0.997352 0.928094
v 0.541897 0.997389 0.928171
v 0.530391 0.995084 0.931643
v 0.530855 0.994931 0.930936
v 0.530481 0.994948 0.931209
v 0.542301 0.996547 0.928643
v 0.541610 0.996251 0.928227
v 0.542053 0.996369 0.928294
v 0.530588 0.994390 0.932087
v 0.531116 0.994012 0.931524
v 0.530722 0.994098 0.931753
v 0.542499 0.995852 0.929087
v 0.541871 0.995332 0.928815
v 0.542294 0.995519 0.928838
v 0.530816 0.993971 0.932788
v 0.531417 0.993457 0.932451
v 0.531002 0.993584 0.932612
v 0.542726 0.995433 0.929788
v 0.542172 0.994778 0.929742
v 0.542574 0.995005 0.929697
v 0.531029 0.993910 0.933606
v 0.531700 0.993377 0.933533
v 0.531263 0.993510 0.933614
v 0.542940 0.995372 0.930606
v 0.542455 0.994697 0.930824
v 0.542835 0.994930 0.930699
v 0.531186 0.994219 0.934379
v 0.531907 0.993786 0.934556
v 0.531455 0.993889 0.934561
v 0.543097 0.995681 0.931379
v 0.542662 0.995106 0.931847
v 0.543027 0.995309 0.931647
v 0.531255 0.994837 0.934955
v 0.531999 0.994604 0.935318
v 0.531540 0.994646 0.935267
v 0.543166 0.996300 0.931955
v 0.542754 0.995925 0.932609
v 0.543112 0.996067 0.932352
v 0.531223 0.995642 0.935219
v 0.531956 0.995669 0.935667
v 0.531500 0.995632 0.935590
v 0.543134 0.997105 0.932219
v 0.542711 0.996989 0.932958
v 0.543072 0.997053 0.932675
v 0.531096 0.996474 0.935118
v 0.531787 0.996770 0.935534
v 0.531344 0.996652 0.935467
v 0.543006 0.997937 0.932118
v 0.542542 0.998090 0.932825
v 0.542916 0.998072 0.932552
v 0.530898 0.997169 0.934674
v 0.531526 0.997688 0.934946
v 0.531103 0.997502 0.934923
v 0.542809 0.998631 0.931674
v 0.542281 0.999009 0.932237
v 0.542675 0.998923 0.932008
v 0.530670 0.997588 0.933973
v 0.531225 0.998243 0.934019
v 0.530823 0.998016 0.934064
v 0.542581 0.999050 0.930973
v 0.541980 0.999563 0.931310
v 0.542395 0.999436 0.931149
vn 0.1146 0.9335 0.3397
vn 0.0659 0.5364 -0.8414
vn 0.0149 0.1210 -0.9925
vn -0.0391 -0.3185 -0.9471
vn -0.0853 -0.6948 -0.7141
vn -0.1146 -0.9335 -0.3397
vn -0.1212 -0.9874 0.1020
vn -0.1038 -0.8456 0.5236
vn -0.0659 -0.5364 0.8414
vn -0.0149 -0.1210 0.9925
vn 0.0391 0.3185 0.9471
vn 0.0853 0.6948 0.7141
vn 0.1038 0.8456 -0.5236
vn 0.9925 -0.1219 -0.0000
vn 0.1212 0.9874 -0.1020
vn -0.2797 0.9555 -0.0938
vn -0.8680 0.4949 -0.0395
vn 0.5025 0.8595 -0.0938
vn 0.9620 0.2702 -0.0395
vn -0.2957 0.8252 -0.4812
vn -0.8748 0.4400 -0.2029
vn 0.4865 0.7292 -0.4812
vn 0.9552 0.2153 -0.2029
vn -0.3306 0.5410 -0.7733
vn -0.8895 0.3202 -0.3260
vn 0.4516 0.4450 -0.7733
vn 0.9405 0.0955 -0.3260
vn -0.3774 0.1592 -0.9122
vn -0.9093 0.1592 -0.3846
vn 0.4047 0.0632 -0.9122
vn 0.9208 -0.0655 -0.3846
vn -0.4270 -0.2447 -0.8705
vn -0.9302 -0.0110 -0.3670
vn 0.3552 -0.3407 -0.8705
vn 0.8999 -0.2357 -0.3670
vn -0.4695 -0.5906 -0.6564
vn -0.9481 -0.1569 -0.2767
vn 0.3127 -0.6866 -0.6563
vn 0.8820 -0.3816 -0.2767
vn -0.4964 -0.8100 -0.3122
vn -0.9594 -0.2494 -0.1316
vn 0.2857 -0.9060 -0.3122
vn 0.8706 -0.4741 -0.1316
vn -0.5025 -0.8595 0.0938
vn -0.9620 -0.2702 0.0395
vn 0.2797 -0.9555 0.0938
vn 0.8680 -0.4949 0.0395
vn -0.4865 -0.7292 0.4812
vn -0.9552 -0.2153 0.2029
vn 0.2957 -0.8252 0.4812
vn 0.8748 -0.4400 0.2029
vn -0.4516 -0.4450 0.7733
vn -0.9405 -0.0955 0.3260
vn 0.3306 -0.5410 0.7733
vn 0.8895 -0.3202 0.3260
vn -0.4047 -0.0632 0.9122
vn -0.9208 0.0655 0.3846
vn 0.3774 -0.1592 0.9122
vn 0.9093 -0.1592 0.3846
vn -0.3552 0.3407 0.8705
vn -0.8999 0.2357 0.3670
vn 0.4270 0.2447 0.8705
vn 0.9302 0.0110 0.3670
vn -0.3127 0.6866 0.6564
vn -0.8820 0.3816 0.2767
vn 0.4695 0.5906 0.6563
vn 0.9481 0.1569 0.2767
vn -0.2857 0.9060 0.3122
vn -0.8706 0.4741 0.1316
vn 0.4964 0.8100 0.3122
vn 0.9594 0.2494 0.1316
vn -0.9925 0.1219 -0.0000
vn 0.2194 0.1594 -0.9625
vn 0.7840 0.5696 -0.2469
vn 0.2239 0.6892 0.6892
vn 0.7246 -0.0000 0.6892
vn 0.5862 0.4259 -0.6892
vn 0.7840 0.5696 0.2469
vn 0.0838 0.2579 -0.9625
vn 0.2994 0.9216 -0.2469
vn 0.2194 0.1594 0.9625
vn 0.2239 0.6892 -0.6892
vn 0.2994 0.9216 0.2469
vn 0.0838 0.2579 0.9625
vn 0.5862 -0.4259 0.6892
vn 0.7246 -0.0000 -0.6892
vn 0.2712 -0.0000 0.9625
vn 0.2712 -0.0000 -0.9625
vn 0.9690 -0.0000 -0.2469
vn 0.9690 -0.0000 0.2469
vn 0.2239 -0.6892 0.6892
vn 0.5862 -0.4259 -0.6892
vn 0.2194 -0.1594 0.9625
vn 0.2194 -0.1594 -0.9625
vn 0.7840 -0.5696 -0.2469
vn 0.7840 -0.5696 0.2469
vn 0.2239 -0.6892 -0.6892
vn 0.0838 -0.2579 0.9625
vn 0.0838 -0.2579 -0.9625
vn 0.2994 -0.9216 -0.2469
vn 0.2994 -0.9216 0.2469
vn -0.2239 -0.6892 0.6892
vn -0.0838 -0.2579 0.9625
vn -0.0838 -0.2579 -0.9625
vn -0.2994 -0.9216 -0.2469
vn -0.2994 -0.9216 0.2469
vn -0.5862 -0.4259 0.6892
vn -0.2239 -0.6892 -0.6892
vn -0.2194 -0.1594 -0.9625
vn -0.7840 -0.5696 -0.2469
vn -0.7840 -0.5696 0.2469
vn -0.2712 -0.0000 0.9625
vn -0.5862 -0.4259 -0.6892
vn -0.2194 -0.1594 0.9625
vn -0.2712 -0.0000 -0.9625
vn -0.9690 -0.0000 -0.2469
vn -0.7246 -0.0000 0.6892
vn -0.5862 0.4259 0.6892
vn -0.7246 -0.0000 -0.6892
vn -0.9690 -0.0000 0.2469
vn -0.2194 0.1594 -0.9625
vn -0.7840 0.5696 -0.2469
vn -0.7840 0.5696 0.2469
vn -0.2239 0.6892 0.6892
vn -0.5862 0.4259 -0.6892
vn -0.2194 0.1594 0.9625
vn -0.0838 0.2579 -0.9625
vn -0.2994 0.9216 -0.2469
vn -0.2994 0.9216 0.2469
vn -0.2239 0.6892 -0.6892
vn -0.0838 0.2579 0.9625
vn 0.5559 0.5825 0.5930
vn 0.3822 0.7087 0.5930
vn 0.3822 0.7087 -0.5930
vn 0.5559 0.5825 -0.5930
vn 0.7921 0.1444 0.5930
vn 0.7257 0.3487 0.5930
vn 0.7257 0.3487 -0.5930
vn 0.7921 0.1444 -0.5930
vn 0.7257 -0.3487 0.5930
vn 0.7921 -0.1444 0.5930
vn 0.7921 -0.1444 -0.5930
vn 0.7257 -0.3487 -0.5930
vn 0.3822 -0.7087 0.5930
vn 0.5559 -0.5825 0.5930
vn 0.5559 -0.5825 -0.5930
vn 0.3822 -0.7087 -0.5930
vn -0.1074 -0.7980 0.5930
vn 0.1074 -0.7980 0.5930
vn 0.1074 -0.7980 -0.5930
vn -0.1074 -0.7980 -0.5930
vn -0.5559 -0.5825 0.5930
vn -0.3822 -0.7087 0.5930
vn -0.3822 -0.7087 -0.5930
vn -0.5559 -0.5825 -0.5930
vn -0.7921 -0.1444 0.5930
vn -0.7257 -0.3487 0.5930
vn -0.7257 -0.3487 -0.5930
vn -0.7921 -0.1444 -0.5930
vn -0.7257 0.3487 0.5930
vn -0.7921 0.1444 0.5930
vn -0.7921 0.1444 -0.5930
vn -0.7257 0.3487 -0.5930
vn -0.3822 0.7087 0.5930
vn -0.5559 0.5825 0.5930
vn -0.5559 0.5825 -0.5930
vn -0.3822 0.7087 -0.5930
vn 0.1074 0.7980 0.5930
vn -0.1074 0.7980 0.5930
vn -0.1074 0.7980 -0.5930
vn 0.1074 0.7980 -0.5930
vn 0.6673 0.6992 0.2567
vn 0.4587 0.8507 0.2567
vn 0.6613 0.7053 -0.2555
vn 0.4664 0.8469 -0.2555
vn 0.9508 0.1734 0.2567
vn 0.8711 0.4186 0.2567
vn 0.9496 0.1819 -0.2555
vn 0.8751 0.4110 -0.2555
vn 0.4911 0.3568 -0.7946
vn 0.3385 0.2459 -0.9083
vn 0.3385 0.2459 0.9083
vn 0.4911 0.3568 0.7946
vn 0.8711 -0.4186 0.2567
vn 0.9508 -0.1734 0.2567
vn 0.8751 -0.4110 -0.2555
vn 0.9496 -0.1819 -0.2555
vn 0.6071 -0.0000 -0.7946
vn 0.4184 -0.0000 -0.9083
vn 0.4184 -0.0000 0.9083
vn 0.6071 -0.0000 0.7946
vn 0.4587 -0.8507 0.2567
vn 0.6673 -0.6992 0.2567
vn 0.4664 -0.8469 -0.2555
vn 0.6613 -0.7053 -0.2555
vn 0.4911 -0.3568 -0.7946
vn 0.3385 -0.2459 -0.9083
vn 0.3385 -0.2459 0.9083
vn 0.4911 -0.3568 0.7946
vn -0.1289 -0.9579 0.2567
vn 0.1289 -0.9579 0.2567
vn -0.1205 -0.9593 -0.2555
vn 0.1205 -0.9593 -0.2555
vn 0.1293 -0.3979 0.9083
vn 0.1876 -0.5774 0.7946
vn 0.1293 -0.3979 -0.9083
vn 0.1876 -0.5774 -0.7946
vn -0.6673 -0.6992 0.2567
vn -0.4587 -0.8507 0.2567
vn -0.6613 -0.7053 -0.2555
vn -0.4664 -0.8469 -0.2555
vn -0.1293 -0.3979 0.9083
vn -0.1876 -0.5774 0.7946
vn -0.1293 -0.3979 -0.9083
vn -0.1876 -0.5774 -0.7946
vn -0.9508 -0.1734 0.2567
vn -0.8711 -0.4186 0.2567
vn -0.9496 -0.1819 -0.2555
vn -0.8751 -0.4110 -0.2555
vn -0.3385 -0.2459 -0.9083
vn -0.4911 -0.3568 -0.7946
vn -0.4911 -0.3568 0.7946
vn -0.3385 -0.2459 0.9083
vn -0.8711 0.4186 0.2567
vn -0.9508 0.1734 0.2567
vn -0.8751 0.4110 -0.2555
vn -0.9496 0.1819 -0.2555
vn -0.4184 -0.0000 -0.9083
vn -0.6071 -0.0000 -0.7946
vn -0.6071 -0.0000 0.7946
vn -0.4184 -0.0000 0.9083
vn -0.4587 0.8507 0.2567
vn -0.6673 0.6992 0.2567
vn -0.4664 0.8469 -0.2555
vn -0.6613 0.7053 -0.2555
vn -0.3385 0.2459 -0.9083
vn -0.4911 0.3568 -0.7946
vn -0.4911 0.3568 0.7946
vn -0.3385 0.2459 0.9083
vn 0.1289 0.9579 0.2567
vn -0.1289 0.9579 0.2567
vn 0.1205 0.9593 -0.2555
vn -0.1205 0.9593 -0.2555
vn -0.1293 0.3979 -0.9083
vn -0.1876 0.5774 -0.7946
vn -0.1876 0.5774 0.7946
vn -0.1293 0.3979 0.9083
vn 0.1293 0.3979 -0.9083
vn 0.1876 0.5774 -0.7946
vn 0.1876 0.5774 0.7946
vn 0.1293 0.3979 0.9083
vn 0.5862 0.4259 0.6892
vn 0.1146 0.9335 -0.3397
vn 0.0659 0.5364 0.8414
vn 0.0149 0.1210 0.9925
vn -0.0391 -0.3185 0.9471
vn -0.0853 -0.6948 0.7141
vn -0.1146 -0.9335 0.3397
vn -0.1212 -0.9874 -0.1020
vn -0.1038 -0.8456 -0.5236
vn -0.0659 -0.5364 -0.8414
vn -0.0149 -0.1210 -0.9925
vn 0.0391 0.3185 -0.9471
vn 0.0853 0.6948 -0.7141
vn 0.1038 0.8456 0.5236
vn 0.1212 0.9874 0.1020
vn 0.5025 0.8595 0.0938
vn 0.9620 0.2702 0.0395
vn -0.2797 0.9555 0.0938
vn -0.8680 0.4949 0.0395
vn 0.4865 0.7292 0.4812
vn 0.9552 0.2153 0.2029
vn -0.2957 0.8252 0.4812
vn -0.8748 0.4400 0.2029
vn 0.4516 0.4450 0.7733
vn 0.9405 0.0955 0.3260
vn -0.3306 0.5411 0.7733
vn -0.8895 0.3202 0.3260
vn 0.4047 0.0632 0.9122
vn 0.9208 -0.0655 0.3846
vn -0.3774 0.1592 0.9122
vn -0.9093 0.1592 0.3846
vn 0.3552 -0.3407 0.8705
vn 0.8999 -0.2357 0.3670
vn -0.4270 -0.2447 0.8705
vn -0.9302 -0.0110 0.3670
vn 0.3127 -0.6866 0.6563
vn 0.8820 -0.3816 0.2767
vn -0.4695 -0.5906 0.6564
vn -0.9481 -0.1569 0.2767
vn 0.2857 -0.9060 0.3122
vn 0.8706 -0.4741 0.1316
vn -0.4964 -0.8100 0.3122
vn -0.9594 -0.2494 0.1316
vn 0.2797 -0.9555 -0.0938
vn 0.8680 -0.4949 -0.0395
vn -0.5025 -0.8595 -0.0938
vn -0.9620 -0.2702 -0.0395
vn 0.2957 -0.8252 -0.4812
vn 0.8748 -0.4400 -0.2029
vn -0.4865 -0.7292 -0.4812
vn -0.9552 -0.2153 -0.2029
vn 0.3306 -0.5410 -0.7733
vn 0.8895 -0.3202 -0.3260
vn -0.4516 -0.4450 -0.7733
vn -0.9405 -0.0955 -0.3260
vn 0.3774 -0.1592 -0.9122
vn 0.9093 -0.1592 -0.3846
vn -0.4047 -0.0632 -0.9122
vn -0.9208 0.0655 -0.3846
vn 0.4270 0.2447 -0.8705
vn 0.9302 0.0110 -0.3670
vn -0.3551 0.3407 -0.8705
vn -0.8999 0.2357 -0.3670
vn 0.4695 0.5906 -0.6564
vn 0.9481 0.1569 -0.2767
vn -0.3127 0.6866 -0.6564
vn -0.8820 0.3816 -0.2767
vn 0.4964 0.8100 -0.3122
vn 0.9594 0.2494 -0.1316
vn -0.2857 0.9060 -0.3122
vn -0.8706 0.4741 -0.1316
vn 0.1964 0.9235 0.3295
vn -0.1367 0.5613 -0.8163
vn -0.2241 0.1503 -0.9629
vn -0.2671 -0.2905 -0.9188
vn -0.2572 -0.6737 -0.6928
vn -0.1964 -0.9235 -0.3295
vn -0.0967 -0.9904 0.0990
vn 0.0222 -0.8611 0.5079
vn 0.1367 -0.5613 0.8163
vn 0.2241 -0.1503 0.9629
vn 0.2671 0.2905 0.9188
vn 0.2572 0.6737 0.6928
vn -0.0222 0.8611 -0.5079
vn 0.9629 -0.1182 -0.2425
vn 0.0967 0.9904 -0.0990
vn -0.2906 0.9568 0.0046
vn -0.8502 0.4927 0.1852
vn 0.4683 0.8637 -0.1866
vn 0.9251 0.2748 -0.2620
vn -0.3998 0.8380 -0.3713
vn -0.8963 0.4426 0.0268
vn 0.3590 0.7449 -0.5624
vn 0.8791 0.2247 -0.4204
vn -0.5050 0.5625 -0.6547
vn -0.9407 0.3265 -0.0927
vn 0.2538 0.4693 -0.8458
vn 0.8347 0.1085 -0.5399
vn -0.5854 0.1847 -0.7894
vn -0.9745 0.1672 -0.1495
vn 0.1735 0.0915 -0.9806
vn 0.8009 -0.0508 -0.5967
vn -0.6249 -0.2204 -0.7489
vn -0.9912 -0.0036 -0.1324
vn 0.1339 -0.3136 -0.9401
vn 0.7842 -0.2215 -0.5796
vn -0.6158 -0.5726 -0.5412
vn -0.9874 -0.1521 -0.0449
vn 0.1430 -0.6658 -0.7323
vn 0.7880 -0.3700 -0.4920
vn -0.5599 -0.8022 -0.2073
vn -0.9638 -0.2488 0.0959
vn 0.1989 -0.8954 -0.3984
vn 0.8116 -0.4668 -0.3513
vn -0.4683 -0.8637 0.1866
vn -0.9251 -0.2748 0.2620
vn 0.2906 -0.9568 -0.0046
vn 0.8502 -0.4927 -0.1852
vn -0.3590 -0.7449 0.5624
vn -0.8791 -0.2247 0.4204
vn 0.3998 -0.8380 0.3713
vn 0.8963 -0.4426 -0.0268
vn -0.2538 -0.4693 0.8458
vn -0.8347 -0.1085 0.5399
vn 0.5050 -0.5625 0.6547
vn 0.9407 -0.3265 0.0927
vn -0.1735 -0.0915 0.9806
vn -0.8009 0.0508 0.5967
vn 0.5854 -0.1847 0.7894
vn 0.9745 -0.1672 0.1495
vn -0.1339 0.3136 0.9401
vn -0.7842 0.2215 0.5796
vn 0.6249 0.2204 0.7489
vn 0.9912 0.0036 0.1324
vn -0.1430 0.6658 0.7323
vn -0.7880 0.3700 0.4920
vn 0.6158 0.5726 0.5412
vn 0.9874 0.1521 0.0448
vn -0.1989 0.8954 0.3984
vn -0.8116 0.4668 0.3513
vn 0.5599 0.8022 0.2073
vn 0.9638 0.2488 -0.0959
vn -0.9629 0.1182 0.2425
vn -0.1212 0.9874 -0.1020
vn -0.0391 0.3185 0.9471
vn 0.0149 -0.1210 0.9925
vn 0.0659 -0.5364 0.8414
vn 0.1038 -0.8456 0.5236
vn 0.1212 -0.9874 0.1020
vn 0.1146 -0.9335 -0.3397
vn 0.0853 -0.6948 -0.7141
vn 0.0391 -0.3185 -0.9471
vn -0.0149 0.1210 -0.9925
vn -0.0659 0.5364 -0.8414
vn -0.1038 0.8456 -0.5236
vn -0.0853 0.6948 0.7141
vn -0.9925 -0.1219 -0.0000
vn -0.1146 0.9335 0.3397
vn 0.2857 0.9060 0.3122
vn 0.8706 0.4741 0.1316
vn -0.4964 0.8100 0.3122
vn -0.9594 0.2494 0.1316
vn 0.3127 0.6866 0.6563
vn 0.8820 0.3816 0.2767
vn -0.4695 0.5906 0.6563
vn -0.9481 0.1569 0.2767
vn 0.3552 0.3407 0.8705
vn 0.8999 0.2357 0.3670
vn -0.4270 0.2447 0.8705
vn -0.9302 0.0110 0.3670
vn 0.4047 -0.0632 0.9122
vn 0.9208 0.0655 0.3846
vn -0.3774 -0.1592 0.9122
vn -0.9093 -0.1592 0.3846
vn 0.4516 -0.4450 0.7733
vn 0.9405 -0.0955 0.3260
vn -0.3306 -0.5410 0.7733
vn -0.8895 -0.3202 0.3260
vn 0.4865 -0.7292 0.4812
vn 0.9552 -0.2153 0.2029
vn -0.2957 -0.8252 0.4812
vn -0.8748 -0.4400 0.2029
vn 0.5025 -0.8595 0.0938
vn 0.9620 -0.2702 0.0395
vn -0.2797 -0.9555 0.0938
vn -0.8680 -0.4949 0.0396
vn 0.4964 -0.8100 -0.3122
vn 0.9594 -0.2494 -0.1316
vn -0.2857 -0.9060 -0.3122
vn -0.8706 -0.4741 -0.1316
vn 0.4695 -0.5906 -0.6563
vn 0.9481 -0.1569 -0.2767
vn -0.3127 -0.6866 -0.6563
vn -0.8820 -0.3816 -0.2767
vn 0.4270 -0.2447 -0.8705
vn 0.9302 -0.0110 -0.3670
vn -0.3552 -0.3407 -0.8705
vn -0.8999 -0.2357 -0.3670
vn 0.3774 0.1592 -0.9122
vn 0.9093 0.1592 -0.3846
vn -0.4047 0.0632 -0.9122
vn -0.9208 -0.0655 -0.3846
vn 0.3306 0.5410 -0.7733
vn 0.8895 0.3202 -0.3260
vn -0.4516 0.4450 -0.7733
vn -0.9405 0.0955 -0.3260
vn 0.2957 0.8252 -0.4812
vn 0.8748 0.4400 -0.2029
vn -0.4865 0.7292 -0.4812
vn -0.9552 0.2153 -0.2029
vn 0.2797 0.9555 -0.0938
vn 0.8680 0.4949 -0.0395
vn -0.5025 0.8595 -0.0938
vn -0.9620 0.2702 -0.0395
vn 0.9925 0.1219 -0.0000
vn -0.1212 0.9874 0.1020
vn -0.0391 0.3185 -0.9471
vn 0.0149 -0.1210 -0.9925
vn 0.0659 -0.5364 -0.8414
vn 0.1038 -0.8456 -0.5236
vn 0.1212 -0.9874 -0.1020
vn 0.1146 -0.9335 0.3397
vn 0.0853 -0.6948 0.7141
vn 0.0391 -0.3185 0.9471
vn -0.0149 0.1210 0.9925
vn -0.0659 0.5364 0.8414
vn -0.1038 0.8456 0.5236
vn -0.0853 0.6948 -0.7141
vn -0.1146 0.9335 -0.3397
vn -0.4964 0.8100 -0.3122
vn -0.9594 0.2494 -0.1316
vn 0.2857 0.9060 -0.3122
vn 0.8706 0.4741 -0.1316
vn -0.4695 0.5906 -0.6564
vn -0.9481 0.1569 -0.2767
vn 0.3127 0.6866 -0.6563
vn 0.8820 0.3816 -0.2767
vn -0.4270 0.2447 -0.8705
vn -0.9302 0.0110 -0.3670
vn 0.3552 0.3407 -0.8705
vn 0.8999 0.2357 -0.3670
vn -0.3774 -0.1592 -0.9122
vn -0.9093 -0.1592 -0.3846
vn 0.4047 -0.0632 -0.9122
vn 0.9208 0.0655 -0.3846
vn -0.3306 -0.5410 -0.7733
vn -0.8895 -0.3202 -0.3260
vn 0.4516 -0.4450 -0.7733
vn 0.9405 -0.0955 -0.3260
vn -0.2957 -0.8252 -0.4812
vn -0.8748 -0.4400 -0.2029
vn 0.4865 -0.7292 -0.4812
vn 0.9552 -0.2153 -0.2029
vn -0.2797 -0.9555 -0.0938
vn -0.8680 -0.4949 -0.0395
vn 0.5025 -0.8595 -0.0938
vn 0.9620 -0.2702 -0.0395
vn -0.2857 -0.9060 0.3122
vn -0.8706 -0.4741 0.1316
vn 0.4964 -0.8100 0.3122
vn 0.9594 -0.2494 0.1316
vn -0.3127 -0.6866 0.6563
vn -0.8820 -0.3816 0.2767
vn 0.4695 -0.5906 0.6564
vn 0.9481 -0.1569 0.2767
vn -0.3552 -0.3407 0.8705
vn -0.8999 -0.2357 0.3670
vn 0.4270 -0.2447 0.8705
vn 0.9302 -0.0110 0.3670
vn -0.4047 0.0632 0.9122
vn -0.9208 -0.0655 0.3846
vn 0.3774 0.1592 0.9122
vn 0.9093 0.1592 0.3846
vn -0.4516 0.4450 0.7733
vn -0.9405 0.0955 0.3260
vn 0.3306 0.5410 0.7733
vn 0.8895 0.3202 0.3260
vn -0.4865 0.7292 0.4812
vn -0.9552 0.2153 0.2029
vn 0.2957 0.8252 0.4812
vn 0.8748 0.4400 0.2029
vn -0.5025 0.8595 0.0938
vn -0.9620 0.2702 0.0395
vn 0.2797 0.9555 0.0938
vn 0.8680 0.4949 0.0395
vn -0.0967 0.9904 0.0990
vn -0.2671 0.2905 -0.9188
vn -0.2241 -0.1503 -0.9629
vn -0.1367 -0.5613 -0.8163
vn -0.0222 -0.8611 -0.5079
vn 0.0967 -0.9904 -0.0990
vn 0.1964 -0.9235 0.3295
vn 0.2572 -0.6737 0.6928
vn 0.2671 -0.2905 0.9188
vn 0.2241 0.1503 0.9629
vn 0.1367 0.5613 0.8163
vn 0.0222 0.8611 0.5079
vn -0.2572 0.6737 -0.6928
vn 0.9629 0.1182 -0.2425
vn -0.1964 0.9235 -0.3295
vn -0.5599 0.8022 -0.2073
vn -0.9638 0.2488 0.0959
vn 0.1989 0.8954 -0.3984
vn 0.8116 0.4668 -0.3513
vn -0.6158 0.5726 -0.5412
vn -0.9874 0.1521 -0.0449
vn 0.1430 0.6658 -0.7323
vn 0.7880 0.3700 -0.4920
vn -0.6249 0.2204 -0.7489
vn -0.9912 0.0036 -0.1324
vn 0.1339 0.3136 -0.9401
vn 0.7842 0.2215 -0.5796
vn -0.5854 -0.1847 -0.7894
vn -0.9745 -0.1672 -0.1495
vn 0.1735 -0.0915 -0.9806
vn 0.8009 0.0508 -0.5967
vn -0.5050 -0.5625 -0.6547
vn -0.9407 -0.3265 -0.0927
vn 0.2538 -0.4693 -0.8458
vn 0.8347 -0.1085 -0.5399
vn -0.3998 -0.8380 -0.3713
vn -0.8963 -0.4426 0.0268
vn 0.3590 -0.7449 -0.5624
vn 0.8791 -0.2247 -0.4204
vn -0.2906 -0.9568 0.0046
vn -0.8502 -0.4927 0.1852
vn 0.4683 -0.8637 -0.1866
vn 0.9251 -0.2748 -0.2620
vn -0.1989 -0.8954 0.3984
vn -0.8116 -0.4668 0.3513
vn 0.5599 -0.8022 0.2073
vn 0.9638 -0.2488 -0.0959
vn -0.1430 -0.6658 0.7323
vn -0.7880 -0.3700 0.4920
vn 0.6158 -0.5726 0.5412
vn 0.9874 -0.1521 0.0448
vn -0.1339 -0.3136 0.9401
vn -0.7842 -0.2215 0.5796
vn 0.6249 -0.2204 0.7489
vn 0.9912 -0.0036 0.1324
vn -0.1735 0.0915 0.9806
vn -0.8009 -0.0508 0.5967
vn 0.5854 0.1847 0.7894
vn 0.9745 0.1672 0.1495
vn -0.2538 0.4693 0.8458
vn -0.8347 0.1085 0.5399
vn 0.5050 0.5625 0.6547
vn 0.9407 0.3265 0.0927
vn -0.3590 0.7449 0.5624
vn -0.8791 0.2247 0.4204
vn 0.3998 0.8380 0.3713
vn 0.8963 0.4426 -0.0268
vn -0.4683 0.8637 0.1866
vn -0.9251 0.2748 0.2620
vn 0.2906 0.9568 -0.0046
vn 0.8502 0.4927 -0.1852
vn -0.9629 -0.1182 0.2425
vn -0.4695 -0.5906 -0.6563
vn 0.3127 -0.6866 -0.6564
vn -0.3127 0.6866 0.6563
vn 0.4695 0.5906 0.6564
vn 0.6613 0.7053 0.2555
vn 0.4664 0.8469 0.2555
vn 0.6673 0.6992 -0.2567
vn 0.4587 0.8507 -0.2567
vn 0.9496 0.1819 0.2555
vn 0.8751 0.4110 0.2555
vn 0.9508 0.1734 -0.2567
vn 0.8711 0.4186 -0.2567
vn 0.8751 -0.4110 0.2555
vn 0.9496 -0.1819 0.2555
vn 0.8711 -0.4186 -0.2567
vn 0.9508 -0.1734 -0.2567
vn 0.4664 -0.8469 0.2555
vn 0.6613 -0.7053 0.2555
vn 0.4587 -0.8507 -0.2567
vn 0.6673 -0.6992 -0.2567
vn -0.1205 -0.9593 0.2555
vn 0.1205 -0.9593 0.2555
vn -0.1289 -0.9579 -0.2567
vn 0.1289 -0.9579 -0.2567
vn -0.6613 -0.7053 0.2555
vn -0.4664 -0.8469 0.2555
vn -0.6673 -0.6992 -0.2567
vn -0.4587 -0.8507 -0.2567
vn -0.9496 -0.1819 0.2555
vn -0.8751 -0.4110 0.2555
vn -0.9508 -0.1734 -0.2567
vn -0.8711 -0.4186 -0.2567
vn -0.8751 0.4110 0.2555
vn -0.9496 0.1819 0.2555
vn -0.8711 0.4186 -0.2567
vn -0.9508 0.1734 -0.2567
vn -0.4664 0.8469 0.2555
vn -0.6613 0.7053 0.2555
vn -0.4587 0.8507 -0.2567
vn -0.6673 0.6992 -0.2567
vn 0.1205 0.9593 0.2555
vn -0.1205 0.9593 0.2555
vn 0.1289 0.9579 -0.2567
vn -0.1289 0.9579 -0.2567
vn -0.3306 0.5410 0.7733
vn -0.9092 0.1592 0.3846
vn -0.9552 -0.2153 -0.2028
vn -0.9208 0.0655 -0.3845
vn -0.3552 0.3407 -0.8705
vn -0.3127 0.6866 -0.6563
vn 0.9629 -0.1182 -0.2426
vn 0.9874 0.1521 0.0449
vn -0.4695 0.5906 0.6564
vn -0.8680 -0.4949 0.0395
vn -0.4048 0.0632 -0.9122
vn -0.4695 0.5906 -0.6563
vn 0.3127 0.6866 -0.6564
vn -0.3127 -0.6866 0.6564
vn 0.4695 -0.5906 0.6563
vn 0.9874 -0.1521 0.0449
s 0
f 83//1 2//1 80//1
f 17//2 20//2 14//2
f 23//3 26//3 20//3
f 29//4 32//4 26//4
f 35//5 38//5 32//5
f 41//6 44//6 38//6
f 47//7 50//7 44//7
f 53//8 56//8 50//8
f 59//9 62//9 56//9
f 65//10 68//10 62//10
f 71//11 74//11 68//11
f 77//12 80//12 74//12
f 11//13 14//13 8//13
f 76//14 52//14 28//14
f 5//15 8//15 2//15
f 8//16 3//16 2//16
f 9//17 1//17 3//17
f 5//18 12//18 11//18
f 6//19 10//19 12//19
f 14//20 9//20 8//20
f 15//21 7//21 9//21
f 17//22 12//22 18//22
f 12//23 16//23 18//23
f 20//24 15//24 14//24
f 21//25 13//25 15//25
f 23//26 18//26 24//26
f 24//27 16//27 22//27
f 26//28 21//28 20//28
f 27//29 19//29 21//29
f 23//30 30//30 29//30
f 24//31 28//31 30//31
f 26//32 33//32 27//32
f 27//33 31//33 25//33
f 29//34 36//34 35//34
f 30//35 34//35 36//35
f 32//36 39//36 33//36
f 39//37 31//37 33//37
f 35//38 42//38 41//38
f 36//39 40//39 42//39
f 44//40 39//40 38//40
f 45//41 37//41 39//41
f 41//42 48//42 47//42
f 42//43 46//43 48//43
f 50//44 45//44 44//44
f 51//45 43//45 45//45
f 47//46 54//46 53//46
f 48//47 52//47 54//47
f 56//48 51//48 50//48
f 57//49 49//49 51//49
f 59//50 54//50 60//50
f 54//51 58//51 60//51
f 62//52 57//52 56//52
f 63//53 55//53 57//53
f 65//54 60//54 66//54
f 66//55 58//55 64//55
f 68//56 63//56 62//56
f 69//57 61//57 63//57
f 65//58 72//58 71//58
f 66//59 70//59 72//59
f 68//60 75//60 69//60
f 69//61 73//61 67//61
f 71//62 78//62 77//62
f 72//63 76//63 78//63
f 74//64 81//64 75//64
f 81//65 73//65 75//65
f 77//66 84//66 83//66
f 78//67 82//67 84//67
f 2//68 81//68 80//68
f 3//69 79//69 81//69
f 83//70 6//70 5//70
f 84//71 4//71 6//71
f 19//72 43//72 67//72
f 86//73 101//73 119//73
f 94//74 114//74 98//74
f 245//75 87//75 91//75
f 109//76 122//76 125//76
f 99//77 114//77 118//77
f 90//78 112//78 94//78
f 86//79 255//79 101//79
f 247//80 97//80 251//80
f 88//81 85//81 104//81
f 252//82 97//82 102//82
f 243//83 95//83 247//83
f 240//84 85//84 88//84
f 126//85 139//85 142//85
f 116//86 131//86 135//86
f 104//87 85//87 121//87
f 86//88 119//88 136//88
f 115//89 129//89 131//89
f 107//90 129//90 111//90
f 143//91 156//91 159//91
f 133//92 148//92 152//92
f 121//93 85//93 138//93
f 86//94 136//94 153//94
f 128//95 148//95 132//95
f 124//96 146//96 128//96
f 150//97 165//97 169//97
f 138//98 85//98 155//98
f 86//99 153//99 170//99
f 149//100 163//100 165//100
f 141//101 163//101 145//101
f 160//102 173//102 176//102
f 155//103 85//103 172//103
f 86//104 170//104 187//104
f 162//105 182//105 166//105
f 158//106 180//106 162//106
f 177//107 190//107 193//107
f 167//108 182//108 186//108
f 86//109 187//109 204//109
f 183//110 197//110 199//110
f 175//111 197//111 179//111
f 189//112 85//112 206//112
f 184//113 199//113 203//113
f 172//114 85//114 189//114
f 86//115 204//115 221//115
f 196//116 216//116 200//116
f 194//117 207//117 210//117
f 211//118 224//118 227//118
f 201//119 216//119 220//119
f 192//120 214//120 196//120
f 86//121 221//121 238//121
f 213//122 233//122 217//122
f 209//123 231//123 213//123
f 228//124 241//124 244//124
f 218//125 233//125 237//125
f 206//126 85//126 223//126
f 86//127 238//127 255//127
f 230//128 250//128 234//128
f 226//129 248//129 230//129
f 235//130 250//130 254//130
f 223//131 85//131 240//131
f 90//132 93//132 92//132
f 93//133 91//133 92//133
f 97//134 100//134 99//134
f 100//135 98//135 99//135
f 107//136 110//136 109//136
f 110//137 108//137 109//137
f 114//138 117//138 116//138
f 117//139 115//139 116//139
f 124//140 127//140 126//140
f 127//141 125//141 126//141
f 131//142 134//142 133//142
f 134//143 132//143 133//143
f 141//144 144//144 143//144
f 144//145 142//145 143//145
f 148//146 151//146 150//146
f 151//147 149//147 150//147
f 158//148 161//148 160//148
f 161//149 159//149 160//149
f 165//150 168//150 167//150
f 168//151 166//151 167//151
f 175//152 178//152 177//152
f 178//153 176//153 177//153
f 182//154 185//154 184//154
f 185//155 183//155 184//155
f 192//156 195//156 194//156
f 195//157 193//157 194//157
f 199//158 202//158 201//158
f 202//159 200//159 201//159
f 209//160 212//160 211//160
f 212//161 210//161 211//161
f 216//162 219//162 218//162
f 219//163 217//163 218//163
f 226//164 229//164 228//164
f 229//165 227//165 228//165
f 233//166 236//166 235//166
f 236//167 234//167 235//167
f 243//168 246//168 245//168
f 246//169 244//169 245//169
f 250//170 253//170 252//170
f 253//171 251//171 252//171
f 94//172 93//172 90//172
f 93//173 95//173 91//173
f 94//174 100//174 96//174
f 100//175 95//175 96//175
f 111//176 110//176 107//176
f 110//177 112//177 108//177
f 111//178 117//178 113//178
f 117//179 112//179 113//179
f 118//180 103//180 102//180
f 120//181 101//181 103//181
f 104//182 89//182 88//182
f 89//183 105//183 87//183
f 128//184 127//184 124//184
f 127//185 129//185 125//185
f 128//186 134//186 130//186
f 134//187 129//187 130//187
f 118//188 137//188 120//188
f 137//189 119//189 120//189
f 121//190 106//190 104//190
f 123//191 105//191 106//191
f 145//192 144//192 141//192
f 144//193 146//193 142//193
f 145//194 151//194 147//194
f 151//195 146//195 147//195
f 135//196 154//196 137//196
f 154//197 136//197 137//197
f 138//198 123//198 121//198
f 123//199 139//199 122//199
f 162//200 161//200 158//200
f 161//201 163//201 159//201
f 162//202 168//202 164//202
f 168//203 163//203 164//203
f 155//204 140//204 138//204
f 140//205 156//205 139//205
f 153//206 171//206 170//206
f 154//207 169//207 171//207
f 179//208 178//208 175//208
f 178//209 180//209 176//209
f 179//210 185//210 181//210
f 185//211 180//211 181//211
f 172//212 157//212 155//212
f 157//213 173//213 156//213
f 187//214 171//214 188//214
f 171//215 186//215 188//215
f 196//216 195//216 192//216
f 195//217 197//217 193//217
f 196//218 202//218 198//218
f 202//219 197//219 198//219
f 187//220 205//220 204//220
f 188//221 203//221 205//221
f 173//222 191//222 190//222
f 174//223 189//223 191//223
f 213//224 212//224 209//224
f 212//225 214//225 210//225
f 213//226 219//226 215//226
f 219//227 214//227 215//227
f 221//228 205//228 222//228
f 205//229 220//229 222//229
f 190//230 208//230 207//230
f 191//231 206//231 208//231
f 230//232 229//232 226//232
f 229//233 231//233 227//233
f 230//234 236//234 232//234
f 236//235 231//235 232//235
f 221//236 239//236 238//236
f 222//237 237//237 239//237
f 224//238 208//238 225//238
f 208//239 223//239 225//239
f 247//240 246//240 243//240
f 246//241 248//241 244//241
f 247//242 253//242 249//242
f 253//243 248//243 249//243
f 255//244 239//244 256//244
f 239//245 254//245 256//245
f 224//246 242//246 241//246
f 225//247 240//247 242//247
f 101//248 256//248 103//248
f 256//249 102//249 103//249
f 87//250 242//250 89//250
f 242//251 88//251 89//251
f 92//252 105//252 108//252
f 339//253 258//253 336//253
f 273//254 276//254 270//254
f 279//255 282//255 276//255
f 285//256 288//256 282//256
f 291//257 294//257 288//257
f 294//258 303//258 300//258
f 303//259 306//259 300//259
f 306//260 315//260 312//260
f 312//261 321//261 318//261
f 321//262 324//262 318//262
f 327//263 330//263 324//263
f 333//264 336//264 330//264
f 267//265 270//265 264//265
f 332//72 308//72 284//72
f 261//266 264//266 258//266
f 258//267 265//267 259//267
f 265//268 257//268 259//268
f 261//269 268//269 267//269
f 262//270 266//270 268//270
f 270//271 265//271 264//271
f 265//272 269//272 263//272
f 267//273 274//273 273//273
f 268//274 272//274 274//274
f 270//275 277//275 271//275
f 277//276 269//276 271//276
f 279//277 274//277 280//277
f 280//278 272//278 278//278
f 282//279 277//279 276//279
f 283//280 275//280 277//280
f 279//281 286//281 285//281
f 280//282 284//282 286//282
f 282//283 289//283 283//283
f 289//284 281//284 283//284
f 291//285 286//285 292//285
f 286//286 290//286 292//286
f 288//287 295//287 289//287
f 295//288 287//288 289//288
f 297//289 292//289 298//289
f 298//290 290//290 296//290
f 300//291 295//291 294//291
f 301//292 293//292 295//292
f 303//293 298//293 304//293
f 304//294 296//294 302//294
f 306//295 301//295 300//295
f 301//296 305//296 299//296
f 303//297 310//297 309//297
f 304//298 308//298 310//298
f 306//299 313//299 307//299
f 313//300 305//300 307//300
f 309//301 316//301 315//301
f 310//302 314//302 316//302
f 318//303 313//303 312//303
f 319//304 311//304 313//304
f 315//305 322//305 321//305
f 316//306 320//306 322//306
f 318//307 325//307 319//307
f 325//308 317//308 319//308
f 321//309 328//309 327//309
f 322//310 326//310 328//310
f 324//311 331//311 325//311
f 325//312 329//312 323//312
f 333//313 328//313 334//313
f 334//314 326//314 332//314
f 336//315 331//315 330//315
f 337//316 329//316 331//316
f 333//317 340//317 339//317
f 334//318 338//318 340//318
f 336//319 259//319 337//319
f 337//320 257//320 335//320
f 261//321 340//321 262//321
f 340//322 260//322 262//322
f 275//14 299//14 323//14
f 423//323 342//323 420//323
f 357//324 360//324 354//324
f 363//325 366//325 360//325
f 369//326 372//326 366//326
f 375//327 378//327 372//327
f 378//328 387//328 384//328
f 387//329 390//329 384//329
f 390//330 399//330 396//330
f 399//331 402//331 396//331
f 405//332 408//332 402//332
f 408//333 417//333 414//333
f 417//334 420//334 414//334
f 351//335 354//335 348//335
f 416//336 392//336 368//336
f 345//337 348//337 342//337
f 342//338 349//338 343//338
f 343//339 347//339 341//339
f 351//340 346//340 352//340
f 346//341 350//341 352//341
f 354//342 349//342 348//342
f 355//343 347//343 349//343
f 351//344 358//344 357//344
f 352//345 356//345 358//345
f 360//346 355//346 354//346
f 361//347 353//347 355//347
f 363//348 358//348 364//348
f 364//349 356//349 362//349
f 360//350 367//350 361//350
f 367//351 359//351 361//351
f 363//352 370//352 369//352
f 364//353 368//353 370//353
f 366//354 373//354 367//354
f 367//355 371//355 365//355
f 369//356 376//356 375//356
f 370//357 374//357 376//357
f 372//358 379//358 373//358
f 379//359 371//359 373//359
f 381//360 376//360 382//360
f 382//361 374//361 380//361
f 378//362 385//362 379//362
f 385//363 377//363 379//363
f 387//364 382//364 388//364
f 388//365 380//365 386//365
f 390//366 385//366 384//366
f 385//367 389//367 383//367
f 387//368 394//368 393//368
f 394//369 386//369 392//369
f 396//370 391//370 390//370
f 397//371 389//371 391//371
f 399//372 394//372 400//372
f 394//373 398//373 400//373
f 402//374 397//374 396//374
f 403//375 395//375 397//375
f 399//376 406//376 405//376
f 406//377 398//377 404//377
f 408//378 403//378 402//378
f 409//379 401//379 403//379
f 405//380 412//380 411//380
f 406//381 410//381 412//381
f 408//382 415//382 409//382
f 409//383 413//383 407//383
f 411//384 418//384 417//384
f 412//385 416//385 418//385
f 420//386 415//386 414//386
f 421//387 413//387 415//387
f 417//388 424//388 423//388
f 424//389 416//389 422//389
f 342//390 421//390 420//390
f 343//391 419//391 421//391
f 423//392 346//392 345//392
f 346//393 422//393 344//393
f 359//394 383//394 407//394
f 507//395 426//395 504//395
f 438//396 447//396 444//396
f 447//397 450//397 444//397
f 453//398 456//398 450//398
f 459//399 462//399 456//399
f 465//400 468//400 462//400
f 471//401 474//401 468//401
f 477//402 480//402 474//402
f 480//403 489//403 486//403
f 486//404 495//404 492//404
f 492//405 501//405 498//405
f 501//406 504//406 498//406
f 432//407 441//407 438//407
f 500//408 476//408 452//408
f 429//409 432//409 426//409
f 426//410 433//410 427//410
f 433//411 425//411 427//411
f 429//412 436//412 435//412
f 430//413 434//413 436//413
f 438//414 433//414 432//414
f 433//415 437//415 431//415
f 435//416 442//416 441//416
f 436//417 440//417 442//417
f 444//418 439//418 438//418
f 445//419 437//419 439//419
f 447//420 442//420 448//420
f 442//421 446//421 448//421
f 444//422 451//422 445//422
f 451//423 443//423 445//423
f 447//424 454//424 453//424
f 448//425 452//425 454//425
f 450//426 457//426 451//426
f 457//427 449//427 451//427
f 453//428 460//428 459//428
f 454//429 458//429 460//429
f 456//430 463//430 457//430
f 463//431 455//431 457//431
f 459//432 466//432 465//432
f 460//433 464//433 466//433
f 468//434 463//434 462//434
f 463//435 467//435 461//435
f 471//436 466//436 472//436
f 472//437 464//437 470//437
f 474//438 469//438 468//438
f 469//439 473//439 467//439
f 471//440 478//440 477//440
f 472//441 476//441 478//441
f 480//442 475//442 474//442
f 475//443 479//443 473//443
f 483//444 478//444 484//444
f 478//445 482//445 484//445
f 486//446 481//446 480//446
f 481//447 485//447 479//447
f 489//448 484//448 490//448
f 484//449 488//449 490//449
f 486//450 493//450 487//450
f 493//451 485//451 487//451
f 489//452 496//452 495//452
f 496//453 488//453 494//453
f 498//454 493//454 492//454
f 499//455 491//455 493//455
f 501//456 496//456 502//456
f 502//457 494//457 500//457
f 498//458 505//458 499//458
f 505//459 497//459 499//459
f 507//460 502//460 508//460
f 502//461 506//461 508//461
f 504//462 427//462 505//462
f 427//463 503//463 505//463
f 507//464 430//464 429//464
f 430//465 506//465 428//465
f 443//466 467//466 491//466
f 591//467 510//467 588//467
f 525//468 528//468 522//468
f 531//469 534//469 528//469
f 537//470 540//470 534//470
f 543//471 546//471 540//471
f 549//472 552//472 546//472
f 555//473 558//473 552//473
f 561//474 564//474 558//474
f 567//475 570//475 564//475
f 573//476 576//476 570//476
f 576//477 585//477 582//477
f 585//478 588//478 582//478
f 519//479 522//479 516//479
f 584//466 560//466 536//466
f 513//480 516//480 510//480
f 510//481 517//481 511//481
f 511//482 515//482 509//482
f 513//483 520//483 519//483
f 520//484 512//484 518//484
f 516//485 523//485 517//485
f 523//486 515//486 517//486
f 525//487 520//487 526//487
f 520//488 524//488 526//488
f 528//489 523//489 522//489
f 523//490 527//490 521//490
f 531//491 526//491 532//491
f 532//492 524//492 530//492
f 528//493 535//493 529//493
f 535//494 527//494 529//494
f 531//495 538//495 537//495
f 538//496 530//496 536//496
f 534//497 541//497 535//497
f 535//498 539//498 533//498
f 537//499 544//499 543//499
f 544//500 536//500 542//500
f 540//501 547//501 541//501
f 547//502 539//502 541//502
f 549//503 544//503 550//503
f 544//504 548//504 550//504
f 546//505 553//505 547//505
f 553//506 545//506 547//506
f 549//507 556//507 555//507
f 550//508 554//508 556//508
f 558//509 553//509 552//509
f 553//510 557//510 551//510
f 555//511 562//511 561//511
f 562//512 554//512 560//512
f 558//513 565//513 559//513
f 565//514 557//514 559//514
f 567//515 562//515 568//515
f 568//516 560//516 566//516
f 570//517 565//517 564//517
f 571//518 563//518 565//518
f 573//519 568//519 574//519
f 568//520 572//520 574//520
f 570//521 577//521 571//521
f 571//522 575//522 569//522
f 573//523 580//523 579//523
f 580//524 572//524 578//524
f 576//525 583//525 577//525
f 577//526 581//526 575//526
f 579//527 586//527 585//527
f 580//528 584//528 586//528
f 582//529 589//529 583//529
f 589//530 581//530 583//530
f 585//531 592//531 591//531
f 586//532 590//532 592//532
f 510//533 589//533 588//533
f 589//534 509//534 587//534
f 591//535 514//535 513//535
f 592//536 512//536 514//536
f 527//408 551//408 575//408
f 675//537 594//537 672//537
f 609//538 612//538 606//538
f 615//539 618//539 612//539
f 621//540 624//540 618//540
f 624//541 633//541 630//541
f 630//542 639//542 636//542
f 639//543 642//543 636//543
f 645//544 648//544 642//544
f 651//545 654//545 648//545
f 657//546 660//546 654//546
f 663//547 666//547 660//547
f 669//548 672//548 666//548
f 600//549 609//549 606//549
f 668//550 644//550 620//550
f 597//551 600//551 594//551
f 600//552 595//552 594//552
f 601//553 593//553 595//553
f 597//554 604//554 603//554
f 604//555 596//555 602//555
f 606//556 601//556 600//556
f 607//557 599//557 601//557
f 609//558 604//558 610//558
f 604//559 608//559 610//559
f 612//560 607//560 606//560
f 613//561 605//561 607//561
f 609//562 616//562 615//562
f 610//563 614//563 616//563
f 612//564 619//564 613//564
f 613//565 617//565 611//565
f 615//566 622//566 621//566
f 616//567 620//567 622//567
f 624//568 619//568 618//568
f 619//569 623//569 617//569
f 621//570 628//570 627//570
f 622//571 626//571 628//571
f 624//572 631//572 625//572
f 625//573 629//573 623//573
f 627//574 634//574 633//574
f 634//575 626//575 632//575
f 636//576 631//576 630//576
f 631//577 635//577 629//577
f 639//578 634//578 640//578
f 634//579 638//579 640//579
f 636//580 643//580 637//580
f 643//581 635//581 637//581
f 645//582 640//582 646//582
f 640//583 644//583 646//583
f 642//584 649//584 643//584
f 649//585 641//585 643//585
f 645//586 652//586 651//586
f 652//587 644//587 650//587
f 648//588 655//588 649//588
f 655//589 647//589 649//589
f 657//590 652//590 658//590
f 658//591 650//591 656//591
f 660//592 655//592 654//592
f 661//593 653//593 655//593
f 663//594 658//594 664//594
f 658//595 662//595 664//595
f 666//596 661//596 660//596
f 661//597 665//597 659//597
f 663//598 670//598 669//598
f 664//599 668//599 670//599
f 672//600 667//600 666//600
f 673//601 665//601 667//601
f 669//602 676//602 675//602
f 670//603 674//603 676//603
f 594//604 673//604 672//604
f 595//605 671//605 673//605
f 597//606 676//606 598//606
f 598//607 674//607 596//607
f 611//608 635//608 659//608
f 83//1 5//1 2//1
f 17//2 23//2 20//2
f 23//3 29//3 26//3
f 29//4 35//4 32//4
f 35//5 41//5 38//5
f 41//6 47//6 44//6
f 47//7 53//7 50//7
f 53//8 59//8 56//8
f 59//9 65//9 62//9
f 65//10 71//10 68//10
f 71//11 77//11 74//11
f 77//12 83//12 80//12
f 11//13 17//13 14//13
f 16//14 10//14 4//14
f 4//14 82//14 76//14
f 76//14 70//14 64//14
f 64//14 58//14 52//14
f 52//14 46//14 40//14
f 40//14 34//14 28//14
f 28//14 22//14 16//14
f 16//14 4//14 76//14
f 76//14 64//14 52//14
f 52//14 40//14 28//14
f 28//14 16//14 76//14
f 5//15 11//15 8//15
f 8//16 9//16 3//16
f 9//17 7//17 1//17
f 5//18 6//18 12//18
f 6//19 4//19 10//19
f 14//20 15//20 9//20
f 15//21 13//21 7//21
f 17//22 11//22 12//22
f 12//23 10//23 16//23
f 20//24 21//24 15//24
f 21//25 19//25 13//25
f 23//26 17//26 18//26
f 24//27 18//27 16//27
f 26//28 27//28 21//28
f 27//29 25//29 19//29
f 23//30 24//30 30//30
f 24//31 22//31 28//31
f 26//32 32//32 33//32
f 27//33 33//33 31//33
f 29//34 30//34 36//34
f 30//35 28//35 34//35
f 32//609 38//609 39//609
f 39//37 37//37 31//37
f 35//610 36//610 42//610
f 36//39 34//39 40//39
f 44//40 45//40 39//40
f 45//41 43//41 37//41
f 41//42 42//42 48//42
f 42//43 40//43 46//43
f 50//44 51//44 45//44
f 51//45 49//45 43//45
f 47//46 48//46 54//46
f 48//47 46//47 52//47
f 56//48 57//48 51//48
f 57//49 55//49 49//49
f 59//50 53//50 54//50
f 54//51 52//51 58//51
f 62//52 63//52 57//52
f 63//53 61//53 55//53
f 65//54 59//54 60//54
f 66//55 60//55 58//55
f 68//56 69//56 63//56
f 69//57 67//57 61//57
f 65//58 66//58 72//58
f 66//59 64//59 70//59
f 68//60 74//60 75//60
f 69//61 75//61 73//61
f 71//62 72//62 78//62
f 72//63 70//63 76//63
f 74//611 80//611 81//611
f 81//65 79//65 73//65
f 77//612 78//612 84//612
f 78//67 76//67 82//67
f 2//68 3//68 81//68
f 3//69 1//69 79//69
f 83//70 84//70 6//70
f 84//71 82//71 4//71
f 79//72 1//72 7//72
f 7//72 13//72 19//72
f 19//72 25//72 31//72
f 31//72 37//72 43//72
f 43//72 49//72 55//72
f 55//72 61//72 67//72
f 67//72 73//72 79//72
f 79//72 7//72 19//72
f 19//72 31//72 43//72
f 43//72 55//72 67//72
f 67//72 79//72 19//72
f 94//74 112//74 114//74
f 91//75 243//75 245//75
f 245//75 241//75 87//75
f 87//75 92//75 91//75
f 125//76 107//76 109//76
f 109//76 105//76 122//76
f 122//76 126//76 125//76
f 118//77 102//77 99//77
f 99//77 98//77 114//77
f 114//77 116//77 118//77
f 90//78 108//78 112//78
f 247//80 95//80 97//80
f 102//82 254//82 252//82
f 252//82 251//82 97//82
f 97//82 99//82 102//82
f 243//83 91//83 95//83
f 142//85 124//85 126//85
f 126//85 122//85 139//85
f 139//85 143//85 142//85
f 135//86 118//86 116//86
f 116//86 115//86 131//86
f 131//86 133//86 135//86
f 115//89 111//89 129//89
f 107//90 125//90 129//90
f 159//91 141//91 143//91
f 143//91 139//91 156//91
f 156//91 160//91 159//91
f 152//92 135//92 133//92
f 133//92 132//92 148//92
f 148//92 150//92 152//92
f 128//95 146//95 148//95
f 124//96 142//96 146//96
f 169//97 152//97 150//97
f 150//97 149//97 165//97
f 165//97 167//97 169//97
f 149//100 145//100 163//100
f 141//101 159//101 163//101
f 176//102 158//102 160//102
f 160//102 156//102 173//102
f 173//102 177//102 176//102
f 162//105 180//105 182//105
f 158//106 176//106 180//106
f 193//107 175//107 177//107
f 177//107 173//107 190//107
f 190//107 194//107 193//107
f 186//108 169//108 167//108
f 167//108 166//108 182//108
f 182//108 184//108 186//108
f 183//110 179//110 197//110
f 175//111 193//111 197//111
f 203//113 186//113 184//113
f 184//113 183//113 199//113
f 199//113 201//113 203//113
f 196//116 214//116 216//116
f 210//117 192//117 194//117
f 194//117 190//117 207//117
f 207//117 211//117 210//117
f 227//118 209//118 211//118
f 211//118 207//118 224//118
f 224//118 228//118 227//118
f 220//119 203//119 201//119
f 201//119 200//119 216//119
f 216//119 218//119 220//119
f 192//120 210//120 214//120
f 213//122 231//122 233//122
f 209//123 227//123 231//123
f 244//124 226//124 228//124
f 228//124 224//124 241//124
f 241//124 245//124 244//124
f 237//125 220//125 218//125
f 218//125 217//125 233//125
f 233//125 235//125 237//125
f 230//128 248//128 250//128
f 226//129 244//129 248//129
f 254//130 237//130 235//130
f 235//130 234//130 250//130
f 250//130 252//130 254//130
f 94//613 96//613 93//613
f 93//614 96//614 95//614
f 94//615 98//615 100//615
f 100//616 97//616 95//616
f 111//617 113//617 110//617
f 110//618 113//618 112//618
f 111//619 115//619 117//619
f 117//620 114//620 112//620
f 118//180 120//180 103//180
f 120//181 119//181 101//181
f 104//182 106//182 89//182
f 89//183 106//183 105//183
f 128//621 130//621 127//621
f 127//622 130//622 129//622
f 128//623 132//623 134//623
f 134//624 131//624 129//624
f 118//188 135//188 137//188
f 137//189 136//189 119//189
f 121//190 123//190 106//190
f 123//191 122//191 105//191
f 145//625 147//625 144//625
f 144//626 147//626 146//626
f 145//627 149//627 151//627
f 151//628 148//628 146//628
f 135//196 152//196 154//196
f 154//197 153//197 136//197
f 138//198 140//198 123//198
f 123//199 140//199 139//199
f 162//629 164//629 161//629
f 161//630 164//630 163//630
f 162//631 166//631 168//631
f 168//632 165//632 163//632
f 155//204 157//204 140//204
f 140//205 157//205 156//205
f 153//206 154//206 171//206
f 154//207 152//207 169//207
f 179//633 181//633 178//633
f 178//634 181//634 180//634
f 179//635 183//635 185//635
f 185//636 182//636 180//636
f 172//212 174//212 157//212
f 157//213 174//213 173//213
f 187//214 170//214 171//214
f 171//215 169//215 186//215
f 196//637 198//637 195//637
f 195//638 198//638 197//638
f 196//639 200//639 202//639
f 202//640 199//640 197//640
f 187//220 188//220 205//220
f 188//221 186//221 203//221
f 173//222 174//222 191//222
f 174//223 172//223 189//223
f 213//641 215//641 212//641
f 212//642 215//642 214//642
f 213//643 217//643 219//643
f 219//644 216//644 214//644
f 221//228 204//228 205//228
f 205//229 203//229 220//229
f 190//230 191//230 208//230
f 191//231 189//231 206//231
f 230//645 232//645 229//645
f 229//646 232//646 231//646
f 230//647 234//647 236//647
f 236//648 233//648 231//648
f 221//236 222//236 239//236
f 222//237 220//237 237//237
f 224//238 207//238 208//238
f 208//239 206//239 223//239
f 247//649 249//649 246//649
f 246//650 249//650 248//650
f 247//651 251//651 253//651
f 253//652 250//652 248//652
f 255//244 238//244 239//244
f 239//245 237//245 254//245
f 224//246 225//246 242//246
f 225//247 223//247 240//247
f 101//248 255//248 256//248
f 256//249 254//249 102//249
f 87//250 241//250 242//250
f 242//251 240//251 88//251
f 108//252 90//252 92//252
f 92//252 87//252 105//252
f 105//252 109//252 108//252
f 339//253 261//253 258//253
f 273//254 279//254 276//254
f 279//255 285//255 282//255
f 285//256 291//256 288//256
f 291//257 297//257 294//257
f 294//258 297//258 303//258
f 303//259 309//259 306//259
f 306//260 309//260 315//260
f 312//261 315//261 321//261
f 321//262 327//262 324//262
f 327//263 333//263 330//263
f 333//264 339//264 336//264
f 267//265 273//265 270//265
f 272//72 266//72 260//72
f 260//72 338//72 332//72
f 332//72 326//72 320//72
f 320//72 314//72 308//72
f 308//72 302//72 296//72
f 296//72 290//72 284//72
f 284//72 278//72 272//72
f 272//72 260//72 332//72
f 332//72 320//72 308//72
f 308//72 296//72 284//72
f 284//72 272//72 332//72
f 261//266 267//266 264//266
f 258//267 264//267 265//267
f 265//268 263//268 257//268
f 261//269 262//269 268//269
f 262//270 260//270 266//270
f 270//271 271//271 265//271
f 265//272 271//272 269//272
f 267//273 268//273 274//273
f 268//274 266//274 272//274
f 270//275 276//275 277//275
f 277//276 275//276 269//276
f 279//653 273//653 274//653
f 280//278 274//278 272//278
f 282//279 283//279 277//279
f 283//280 281//280 275//280
f 279//281 280//281 286//281
f 280//654 278//654 284//654
f 282//283 288//283 289//283
f 289//284 287//284 281//284
f 291//285 285//285 286//285
f 286//286 284//286 290//286
f 288//287 294//287 295//287
f 295//288 293//288 287//288
f 297//289 291//289 292//289
f 298//290 292//290 290//290
f 300//291 301//291 295//291
f 301//292 299//292 293//292
f 303//293 297//293 298//293
f 304//294 298//294 296//294
f 306//295 307//295 301//295
f 301//296 307//296 305//296
f 303//297 304//297 310//297
f 304//298 302//298 308//298
f 306//299 312//299 313//299
f 313//300 311//300 305//300
f 309//301 310//301 316//301
f 310//655 308//655 314//655
f 318//303 319//303 313//303
f 319//304 317//304 311//304
f 315//305 316//305 322//305
f 316//306 314//306 320//306
f 318//307 324//307 325//307
f 325//308 323//308 317//308
f 321//309 322//309 328//309
f 322//656 320//656 326//656
f 324//311 330//311 331//311
f 325//312 331//312 329//312
f 333//657 327//657 328//657
f 334//314 328//314 326//314
f 336//315 337//315 331//315
f 337//316 335//316 329//316
f 333//658 334//658 340//658
f 334//318 332//318 338//318
f 336//319 258//319 259//319
f 337//320 259//320 257//320
f 261//321 339//321 340//321
f 340//322 338//322 260//322
f 335//14 257//14 263//14
f 263//14 269//14 275//14
f 275//14 281//14 287//14
f 287//14 293//14 299//14
f 299//14 305//14 311//14
f 311//14 317//14 323//14
f 323//14 329//14 335//14
f 335//14 263//14 275//14
f 275//14 287//14 299//14
f 299//14 311//14 323//14
f 323//14 335//14 275//14
f 423//323 345//323 342//323
f 357//324 363//324 360//324
f 363//325 369//325 366//325
f 369//326 375//326 372//326
f 375//327 381//327 378//327
f 378//328 381//328 387//328
f 387//329 393//329 390//329
f 390//330 393//330 399//330
f 399//331 405//331 402//331
f 405//332 411//332 408//332
f 408//333 411//333 417//333
f 417//334 423//334 420//334
f 351//335 357//335 354//335
f 356//336 350//336 344//336
f 344//336 422//336 416//336
f 416//336 410//336 404//336
f 404//659 398//659 392//659
f 392//336 386//336 380//336
f 380//336 374//336 368//336
f 368//336 362//336 356//336
f 356//336 344//336 416//336
f 416//336 404//336 392//336
f 392//336 380//336 368//336
f 368//336 356//336 416//336
f 345//337 351//337 348//337
f 342//338 348//338 349//338
f 343//339 349//339 347//339
f 351//340 345//340 346//340
f 346//341 344//341 350//341
f 354//342 355//342 349//342
f 355//343 353//343 347//343
f 351//344 352//344 358//344
f 352//345 350//345 356//345
f 360//346 361//346 355//346
f 361//347 359//347 353//347
f 363//348 357//348 358//348
f 364//349 358//349 356//349
f 360//350 366//350 367//350
f 367//351 365//351 359//351
f 363//352 364//352 370//352
f 364//353 362//353 368//353
f 366//354 372//354 373//354
f 367//355 373//355 371//355
f 369//356 370//356 376//356
f 370//357 368//357 374//357
f 372//358 378//358 379//358
f 379//359 377//359 371//359
f 381//360 375//360 376//360
f 382//361 376//361 374//361
f 378//362 384//362 385//362
f 385//363 383//363 377//363
f 387//364 381//364 382//364
f 388//365 382//365 380//365
f 390//366 391//366 385//366
f 385//367 391//367 389//367
f 387//368 388//368 394//368
f 394//369 388//369 386//369
f 396//370 397//370 391//370
f 397//371 395//371 389//371
f 399//372 393//372 394//372
f 394//373 392//373 398//373
f 402//374 403//374 397//374
f 403//375 401//375 395//375
f 399//376 400//376 406//376
f 406//377 400//377 398//377
f 408//378 409//378 403//378
f 409//379 407//379 401//379
f 405//380 406//380 412//380
f 406//381 404//381 410//381
f 408//382 414//382 415//382
f 409//383 415//383 413//383
f 411//384 412//384 418//384
f 412//385 410//385 416//385
f 420//386 421//386 415//386
f 421//387 419//387 413//387
f 417//388 418//388 424//388
f 424//660 418//660 416//660
f 342//390 343//390 421//390
f 343//391 341//391 419//391
f 423//392 424//392 346//392
f 346//393 424//393 422//393
f 419//394 341//394 347//394
f 347//394 353//394 359//394
f 359//394 365//394 371//394
f 371//394 377//394 383//394
f 383//394 389//394 395//394
f 395//394 401//394 407//394
f 407//394 413//394 419//394
f 419//394 347//394 359//394
f 359//394 371//394 383//394
f 383//394 395//394 407//394
f 407//394 419//394 359//394
f 507//395 429//395 426//395
f 438//396 441//396 447//396
f 447//397 453//397 450//397
f 453//398 459//398 456//398
f 459//399 465//399 462//399
f 465//400 471//400 468//400
f 471//401 477//401 474//401
f 477//402 483//402 480//402
f 480//403 483//403 489//403
f 486//404 489//404 495//404
f 492//405 495//405 501//405
f 501//406 507//406 504//406
f 432//407 435//407 441//407
f 440//408 434//408 428//408
f 428//408 506//408 500//408
f 500//408 494//408 488//408
f 488//408 482//408 476//408
f 476//408 470//408 464//408
f 464//408 458//408 452//408
f 452//408 446//408 440//408
f 440//408 428//408 500//408
f 500//408 488//408 476//408
f 476//408 464//408 452//408
f 452//408 440//408 500//408
f 429//409 435//409 432//409
f 426//410 432//410 433//410
f 433//411 431//411 425//411
f 429//412 430//412 436//412
f 430//413 428//413 434//413
f 438//414 439//414 433//414
f 433//415 439//415 437//415
f 435//661 436//661 442//661
f 436//417 434//417 440//417
f 444//418 445//418 439//418
f 445//419 443//419 437//419
f 447//420 441//420 442//420
f 442//421 440//421 446//421
f 444//422 450//422 451//422
f 451//423 449//423 443//423
f 447//424 448//424 454//424
f 448//425 446//425 452//425
f 450//426 456//426 457//426
f 457//427 455//427 449//427
f 453//428 454//428 460//428
f 454//429 452//429 458//429
f 456//430 462//430 463//430
f 463//431 461//431 455//431
f 459//432 460//432 466//432
f 460//433 458//433 464//433
f 468//434 469//434 463//434
f 463//435 469//435 467//435
f 471//436 465//436 466//436
f 472//662 466//662 464//662
f 474//438 475//438 469//438
f 469//439 475//439 473//439
f 471//440 472//440 478//440
f 472//441 470//441 476//441
f 480//442 481//442 475//442
f 475//443 481//443 479//443
f 483//444 477//444 478//444
f 478//445 476//445 482//445
f 486//446 487//446 481//446
f 481//447 487//447 485//447
f 489//448 483//448 484//448
f 484//449 482//449 488//449
f 486//450 492//450 493//450
f 493//451 491//451 485//451
f 489//663 490//663 496//663
f 496//453 490//453 488//453
f 498//454 499//454 493//454
f 499//455 497//455 491//455
f 501//456 495//456 496//456
f 502//457 496//457 494//457
f 498//458 504//458 505//458
f 505//459 503//459 497//459
f 507//460 501//460 502//460
f 502//461 500//461 506//461
f 504//462 426//462 427//462
f 427//463 425//463 503//463
f 507//464 508//464 430//464
f 430//465 508//465 506//465
f 503//466 425//466 431//466
f 431//466 437//466 443//466
f 443//466 449//466 455//466
f 455//466 461//466 467//466
f 467//466 473//466 479//466
f 479//466 485//466 491//466
f 491//466 497//466 503//466
f 503//466 431//466 443//466
f 443//466 455//466 467//466
f 467//466 479//466 491//466
f 491//466 503//466 443//466
f 591//467 513//467 510//467
f 525//468 531//468 528//468
f 531//469 537//469 534//469
f 537//470 543//470 540//470
f 543//471 549//471 546//471
f 549//472 555//472 552//472
f 555//473 561//473 558//473
f 561//474 567//474 564//474
f 567//475 573//475 570//475
f 573//476 579//476 576//476
f 576//477 579//477 585//477
f 585//478 591//478 588//478
f 519//479 525//479 522//479
f 524//466 518//466 512//466
f 512//466 590//466 584//466
f 584//466 578//466 572//466
f 572//466 566//466 560//466
f 560//466 554//466 548//466
f 548//466 542//466 536//466
f 536//466 530//466 524//466
f 524//466 512//466 584//466
f 584//466 572//466 560//466
f 560//466 548//466 536//466
f 536//466 524//466 584//466
f 513//480 519//480 516//480
f 510//481 516//481 517//481
f 511//482 517//482 515//482
f 513//483 514//483 520//483
f 520//484 514//484 512//484
f 516//664 522//664 523//664
f 523//486 521//486 515//486
f 525//665 519//665 520//665
f 520//488 518//488 524//488
f 528//489 529//489 523//489
f 523//490 529//490 527//490
f 531//491 525//491 526//491
f 532//492 526//492 524//492
f 528//493 534//493 535//493
f 535//494 533//494 527//494
f 531//495 532//495 538//495
f 538//496 532//496 530//496
f 534//497 540//497 541//497
f 535//498 541//498 539//498
f 537//499 538//499 544//499
f 544//500 538//500 536//500
f 540//501 546//501 547//501
f 547//502 545//502 539//502
f 549//503 543//503 544//503
f 544//504 542//504 548//504
f 546//505 552//505 553//505
f 553//506 551//506 545//506
f 549//507 550//507 556//507
f 550//508 548//508 554//508
f 558//509 559//509 553//509
f 553//510 559//510 557//510
f 555//511 556//511 562//511
f 562//512 556//512 554//512
f 558//666 564//666 565//666
f 565//514 563//514 557//514
f 567//667 561//667 562//667
f 568//516 562//516 560//516
f 570//517 571//517 565//517
f 571//518 569//518 563//518
f 573//519 567//519 568//519
f 568//520 566//520 572//520
f 570//521 576//521 577//521
f 571//522 577//522 575//522
f 573//523 574//523 580//523
f 580//524 574//524 572//524
f 576//525 582//525 583//525
f 577//526 583//526 581//526
f 579//527 580//527 586//527
f 580//528 578//528 584//528
f 582//529 588//529 589//529
f 589//530 587//530 581//530
f 585//531 586//531 592//531
f 586//532 584//532 590//532
f 510//533 511//533 589//533
f 589//534 511//534 509//534
f 591//535 592//535 514//535
f 592//536 590//536 512//536
f 587//408 509//408 515//408
f 515//408 521//408 527//408
f 527//408 533//408 539//408
f 539//408 545//408 551//408
f 551//408 557//408 563//408
f 563//408 569//408 575//408
f 575//408 581//408 587//408
f 587//408 515//408 527//408
f 527//408 539//408 551//408
f 551//408 563//408 575//408
f 575//408 587//408 527//408
f 675//537 597//537 594//537
f 609//538 615//538 612//538
f 615//539 621//539 618//539
f 621//540 627//540 624//540
f 624//541 627//541 633//541
f 630//542 633//542 639//542
f 639//543 645//543 642//543
f 645//544 651//544 648//544
f 651//545 657//545 654//545
f 657//546 663//546 660//546
f 663//547 669//547 666//547
f 669//548 675//548 672//548
f 600//549 603//549 609//549
f 608//550 602//550 596//550
f 596//550 674//550 668//550
f 668//550 662//550 656//550
f 656//550 650//550 644//550
f 644//550 638//550 632//550
f 632//550 626//550 620//550
f 620//550 614//550 608//550
f 608//550 596//550 668//550
f 668//550 656//550 644//550
f 644//550 632//550 620//550
f 620//550 608//550 668//550
f 597//551 603//551 600//551
f 600//552 601//552 595//552
f 601//553 599//553 593//553
f 597//554 598//554 604//554
f 604//555 598//555 596//555
f 606//556 607//556 601//556
f 607//557 605//557 599//557
f 609//558 603//558 604//558
f 604//559 602//559 608//559
f 612//560 613//560 607//560
f 613//561 611//561 605//561
f 609//562 610//562 616//562
f 610//563 608//563 614//563
f 612//564 618//564 619//564
f 613//565 619//565 617//565
f 615//566 616//566 622//566
f 616//567 614//567 620//567
f 624//568 625//568 619//568
f 619//569 625//569 623//569
f 621//570 622//570 628//570
f 622//571 620//571 626//571
f 624//572 630//572 631//572
f 625//573 631//573 629//573
f 627//574 628//574 634//574
f 634//575 628//575 626//575
f 636//576 637//576 631//576
f 631//577 637//577 635//577
f 639//578 633//578 634//578
f 634//579 632//579 638//579
f 636//580 642//580 643//580
f 643//581 641//581 635//581
f 645//582 639//582 640//582
f 640//583 638//583 644//583
f 642//584 648//584 649//584
f 649//585 647//585 641//585
f 645//586 646//586 652//586
f 652//668 646//668 644//668
f 648//588 654//588 655//588
f 655//589 653//589 647//589
f 657//590 651//590 652//590
f 658//591 652//591 650//591
f 660//592 661//592 655//592
f 661//593 659//593 653//593
f 663//594 657//594 658//594
f 658//595 656//595 662//595
f 666//596 667//596 661//596
f 661//597 667//597 665//597
f 663//598 664//598 670//598
f 664//599 662//599 668//599
f 672//600 673//600 667//600
f 673//601 671//601 665//601
f 669//602 670//602 676//602
f 670//603 668//603 674//603
f 594//604 595//604 673//604
f 595//605 593//605 671//605
f 597//606 675//606 676//606
f 598//607 676//607 674//607
f 671//608 593//608 599//608
f 599//608 605//608 611//608
f 611//608 617//608 623//608
f 623//608 629//608 635//608
f 635//608 641//608 647//608
f 647//608 653//608 659//608
f 659//608 665//608 671//608
f 671//608 599//608 611//608
f 611//608 623//608 635//608
f 635//608 647//608 659//608
f 659//608 671//608 611//608
