# Blender 4.0.2
# www.blender.org
o Forceps_FX17
v 0.692227 0.996382 0.933740
v 0.692897 0.996915 0.933815
v 0.692453 0.996783 0.933793
v 0.711284 0.994042 0.933740
v 0.710763 0.994722 0.933815
v 0.711161 0.994486 0.933793
v 0.692211 0.996249 0.932432
v 0.692877 0.996754 0.932235
v 0.692434 0.996631 0.932295
v 0.711267 0.993909 0.932432
v 0.710743 0.994561 0.932235
v 0.711142 0.994334 0.932295
v 0.692127 0.995566 0.931312
v 0.692776 0.995929 0.930881
v 0.692338 0.995848 0.931012
v 0.711184 0.993226 0.931312
v 0.710642 0.993735 0.930881
v 0.711046 0.993551 0.931012
v 0.691992 0.994467 0.930602
v 0.692613 0.994602 0.930023
v 0.692184 0.994591 0.930198
v 0.711049 0.992128 0.930602
v 0.710479 0.992408 0.930023
v 0.710892 0.992294 0.930198
v 0.691833 0.993172 0.930441
v 0.692421 0.993037 0.929829
v 0.692002 0.993107 0.930015
v 0.710890 0.990832 0.930441
v 0.710286 0.990843 0.929829
v 0.710710 0.990810 0.930015
v 0.691681 0.991936 0.930863
v 0.692237 0.991543 0.930339
v 0.691828 0.991692 0.930498
v 0.710738 0.989596 0.930863
v 0.710103 0.989349 0.930339
v 0.710536 0.989395 0.930498
v 0.691567 0.991004 0.931784
v 0.692099 0.990417 0.931451
v 0.691697 0.990624 0.931552
v 0.710623 0.988664 0.931784
v 0.709965 0.988223 0.931451
v 0.710405 0.988327 0.931552
v 0.691512 0.990561 0.933020
v 0.692033 0.989881 0.932945
v 0.691635 0.990117 0.932968
v 0.710569 0.988221 0.933020
v 0.709899 0.987688 0.932945
v 0.710343 0.987820 0.932968
v 0.691528 0.990694 0.934328
v 0.692053 0.990042 0.934526
v 0.691653 0.990269 0.934466
v 0.710585 0.988354 0.934328
v 0.709919 0.987849 0.934526
v 0.710361 0.987972 0.934466
v 0.691612 0.991377 0.935449
v 0.692154 0.990868 0.935880
v 0.691750 0.991052 0.935749
v 0.710669 0.989037 0.935449
v 0.710020 0.988674 0.935880
v 0.710458 0.988755 0.935749
v 0.691747 0.992475 0.936159
v 0.692317 0.992195 0.936738
v 0.691904 0.992309 0.936563
v 0.710804 0.990135 0.936159
v 0.710183 0.990001 0.936738
v 0.710612 0.990012 0.936563
v 0.691906 0.993771 0.936320
v 0.692509 0.993760 0.936932
v 0.692086 0.993793 0.936746
v 0.710963 0.991431 0.936320
v 0.710375 0.991566 0.936932
v 0.710794 0.991496 0.936746
v 0.692058 0.995007 0.935898
v 0.692693 0.995253 0.936422
v 0.692260 0.995208 0.936263
v 0.711115 0.992667 0.935898
v 0.710559 0.993060 0.936422
v 0.710968 0.992911 0.936263
v 0.692172 0.995939 0.934977
v 0.692831 0.996380 0.935310
v 0.692391 0.996275 0.935209
v 0.711229 0.993599 0.934977
v 0.710697 0.994186 0.935310
v 0.711099 0.993979 0.935209
v 0.691869 0.993471 0.939680
v 0.691869 0.993471 0.927080
v 0.693977 0.996371 0.938402
v 0.693364 0.995528 0.938999
v 0.693689 0.995976 0.938757
v 0.695430 0.997398 0.936530
v 0.694504 0.998071 0.936530
v 0.694827 0.997542 0.936955
v 0.695012 0.997797 0.936530
v 0.695926 0.998081 0.933380
v 0.695000 0.998754 0.933380
v 0.695505 0.998476 0.933380
v 0.694504 0.998071 0.930230
v 0.695430 0.997398 0.930230
v 0.694827 0.997542 0.929806
v 0.695012 0.997797 0.930230
v 0.693364 0.995528 0.927762
v 0.693977 0.996371 0.928359
v 0.693689 0.995976 0.928004
v 0.694288 0.994257 0.938999
v 0.695279 0.994579 0.938402
v 0.694814 0.994428 0.938757
v 0.697058 0.994555 0.936530
v 0.696705 0.995644 0.936530
v 0.696655 0.995026 0.936955
v 0.696955 0.995124 0.936530
v 0.697861 0.994816 0.933380
v 0.697507 0.995905 0.933380
v 0.697753 0.995383 0.933380
v 0.696705 0.995644 0.930230
v 0.697058 0.994555 0.930230
v 0.696655 0.995026 0.929806
v 0.696955 0.995124 0.930230
v 0.695279 0.994579 0.928359
v 0.694288 0.994257 0.927762
v 0.694814 0.994428 0.928004
v 0.694288 0.992686 0.938999
v 0.695279 0.992364 0.938402
v 0.694814 0.992515 0.938757
v 0.696705 0.991298 0.936530
v 0.697058 0.992387 0.936530
v 0.696655 0.991916 0.936955
v 0.696955 0.991819 0.936530
v 0.697507 0.991038 0.933380
v 0.697861 0.992126 0.933380
v 0.697753 0.991560 0.933380
v 0.697058 0.992387 0.930230
v 0.696705 0.991298 0.930230
v 0.696655 0.991916 0.929806
v 0.696955 0.991819 0.930230
v 0.695279 0.992364 0.928359
v 0.694288 0.992686 0.927762
v 0.694814 0.992515 0.928004
v 0.693364 0.991414 0.938999
v 0.693977 0.990571 0.938402
v 0.693689 0.990967 0.938757
v 0.694504 0.988871 0.936530
v 0.695430 0.989544 0.936530
v 0.694827 0.989401 0.936955
v 0.695012 0.989146 0.936530
v 0.695000 0.988189 0.933380
v 0.695926 0.988862 0.933380
v 0.695505 0.988467 0.933380
v 0.695430 0.989544 0.930230
v 0.694504 0.988871 0.930230
v 0.694827 0.989401 0.929806
v 0.695012 0.989146 0.930230
v 0.693977 0.990571 0.928359
v 0.693364 0.991414 0.927762
v 0.693689 0.990967 0.928004
v 0.691869 0.990929 0.938999
v 0.691869 0.989887 0.938402
v 0.691869 0.990375 0.938757
v 0.691297 0.988201 0.936530
v 0.692442 0.988201 0.936530
v 0.691869 0.988440 0.936955
v 0.691869 0.988124 0.936530
v 0.691297 0.987357 0.933380
v 0.692442 0.987357 0.933380
v 0.691869 0.987285 0.933380
v 0.692442 0.988201 0.930230
v 0.691297 0.988201 0.930230
v 0.691869 0.988440 0.929806
v 0.691869 0.988124 0.930230
v 0.691869 0.989887 0.928359
v 0.691869 0.990929 0.927762
v 0.691869 0.990375 0.928004
v 0.690375 0.991414 0.938999
v 0.689762 0.990571 0.938402
v 0.690050 0.990967 0.938757
v 0.688309 0.989544 0.936530
v 0.689235 0.988871 0.936530
v 0.688912 0.989401 0.936955
v 0.688727 0.989146 0.936530
v 0.687813 0.988862 0.933380
v 0.688739 0.988189 0.933380
v 0.688234 0.988467 0.933380
v 0.689235 0.988871 0.930230
v 0.688309 0.989544 0.930230
v 0.688912 0.989401 0.929806
v 0.688727 0.989146 0.930230
v 0.689762 0.990571 0.928359
v 0.690375 0.991414 0.927762
v 0.690050 0.990967 0.928004
v 0.689451 0.992686 0.938999
v 0.688460 0.992364 0.938402
v 0.688925 0.992515 0.938757
v 0.686681 0.992387 0.936530
v 0.687034 0.991298 0.936530
v 0.687084 0.991916 0.936955
v 0.686784 0.991819 0.936530
v 0.685878 0.992126 0.933380
v 0.686232 0.991038 0.933380
v 0.685986 0.991560 0.933380
v 0.687034 0.991298 0.930230
v 0.686681 0.992387 0.930230
v 0.687084 0.991916 0.929806
v 0.686784 0.991819 0.930230
v 0.688460 0.992364 0.928359
v 0.689451 0.992686 0.927762
v 0.688925 0.992515 0.928004
v 0.689451 0.994257 0.938999
v 0.688460 0.994579 0.938402
v 0.688925 0.994428 0.938757
v 0.687034 0.995644 0.936530
v 0.686681 0.994555 0.936530
v 0.687084 0.995026 0.936955
v 0.686784 0.995124 0.936530
v 0.686232 0.995905 0.933380
v 0.685878 0.994816 0.933380
v 0.685986 0.995383 0.933380
v 0.686681 0.994555 0.930230
v 0.687034 0.995644 0.930230
v 0.687084 0.995026 0.929806
v 0.686784 0.995124 0.930230
v 0.688460 0.994579 0.928359
v 0.689451 0.994257 0.927762
v 0.688925 0.994428 0.928004
v 0.690375 0.995528 0.938999
v 0.689762 0.996371 0.938402
v 0.690050 0.995976 0.938757
v 0.689235 0.998071 0.936530
v 0.688309 0.997398 0.936530
v 0.688912 0.997542 0.936955
v 0.688727 0.997797 0.936530
v 0.688739 0.998754 0.933380
v 0.687813 0.998081 0.933380
v 0.688234 0.998476 0.933380
v 0.688309 0.997398 0.930230
v 0.689235 0.998071 0.930230
v 0.688912 0.997542 0.929806
v 0.688727 0.997797 0.930230
v 0.689762 0.996371 0.928359
v 0.690375 0.995528 0.927762
v 0.690050 0.995976 0.928004
v 0.691869 0.996014 0.938999
v 0.691869 0.997056 0.938402
v 0.691869 0.996567 0.938757
v 0.692442 0.998741 0.936530
v 0.691297 0.998741 0.936530
v 0.691869 0.998503 0.936955
v 0.691869 0.998818 0.936530
v 0.692442 0.999585 0.933380
v 0.691297 0.999585 0.933380
v 0.691869 0.999657 0.933380
v 0.691297 0.998741 0.930230
v 0.692442 0.998741 0.930230
v 0.691869 0.998503 0.929806
v 0.691869 0.998818 0.930230
v 0.691869 0.997056 0.928359
v 0.691869 0.996014 0.927762
v 0.691869 0.996567 0.928004
v 0.692303 0.997003 0.932944
v 0.691782 0.997682 0.932869
v 0.692181 0.997447 0.932891
v 0.617862 1.006143 0.932944
v 0.618532 1.006676 0.932869
v 0.618088 1.006544 0.932891
v 0.692283 0.996841 0.934530
v 0.691759 0.997493 0.934728
v 0.692158 0.997266 0.934668
v 0.617842 1.005981 0.934530
v 0.618509 1.006487 0.934728
v 0.618066 1.006363 0.934668
v 0.692181 0.996012 0.935890
v 0.691639 0.996521 0.936320
v 0.692044 0.996337 0.936190
v 0.617741 1.005152 0.935890
v 0.618390 1.005515 0.936320
v 0.617952 1.005435 0.936190
v 0.692018 0.994680 0.936752
v 0.691448 0.994960 0.937331
v 0.691861 0.994846 0.937155
v 0.617577 1.003820 0.936752
v 0.618198 1.003954 0.937331
v 0.617769 1.003943 0.937155
v 0.691825 0.993108 0.936946
v 0.691222 0.993119 0.937558
v 0.691645 0.993086 0.937373
v 0.617384 1.002249 0.936946
v 0.617972 1.002113 0.937558
v 0.617553 1.002184 0.937373
v 0.691641 0.991609 0.936434
v 0.691006 0.991362 0.936959
v 0.691439 0.991407 0.936800
v 0.617200 1.000749 0.936434
v 0.617756 1.000356 0.936959
v 0.617347 1.000504 0.936800
v 0.691502 0.990478 0.935318
v 0.690843 0.990037 0.935650
v 0.691284 0.990141 0.935549
v 0.617061 0.999618 0.935318
v 0.617593 0.999031 0.935650
v 0.617191 0.999239 0.935549
v 0.691436 0.989940 0.933817
v 0.690766 0.989407 0.933892
v 0.691210 0.989539 0.933870
v 0.616995 0.999080 0.933817
v 0.617516 0.998401 0.933892
v 0.617117 0.998636 0.933870
v 0.691456 0.990102 0.932230
v 0.690789 0.989596 0.932033
v 0.691232 0.989720 0.932093
v 0.617015 0.999242 0.932230
v 0.617539 0.998590 0.932033
v 0.617140 0.998817 0.932093
v 0.691558 0.990931 0.930871
v 0.690908 0.990568 0.930440
v 0.691346 0.990648 0.930571
v 0.617117 1.000071 0.930871
v 0.617658 0.999561 0.930440
v 0.617254 0.999745 0.930571
v 0.691721 0.992263 0.930009
v 0.691100 0.992128 0.929430
v 0.691529 0.992140 0.929606
v 0.617280 1.001403 0.930009
v 0.617850 1.001122 0.929430
v 0.617437 1.001237 0.929606
v 0.691914 0.993834 0.929815
v 0.691326 0.993970 0.929202
v 0.691745 0.993899 0.929388
v 0.617473 1.002975 0.929815
v 0.618076 1.002964 0.929202
v 0.617653 1.002997 0.929388
v 0.692098 0.995334 0.930326
v 0.691542 0.995727 0.929802
v 0.691951 0.995578 0.929961
v 0.617657 1.004474 0.930326
v 0.618292 1.004721 0.929802
v 0.617859 1.004676 0.929961
v 0.692237 0.996465 0.931443
v 0.691705 0.997052 0.931111
v 0.692107 0.996844 0.931211
v 0.617796 1.005605 0.931443
v 0.618455 1.006046 0.931111
v 0.618014 1.005942 0.931211
v 0.711209 0.993001 0.933606
v 0.711881 0.993534 0.933543
v 0.711443 0.993401 0.933617
v 0.723914 0.991441 0.930606
v 0.723426 0.992117 0.930816
v 0.723808 0.991883 0.930697
v 0.711008 0.992939 0.932785
v 0.711614 0.993452 0.932456
v 0.711196 0.993325 0.932611
v 0.723712 0.991379 0.929785
v 0.723159 0.992034 0.929730
v 0.723561 0.991807 0.929692
v 0.710790 0.992518 0.932082
v 0.711326 0.992895 0.931526
v 0.710929 0.992810 0.931750
v 0.723495 0.990959 0.929082
v 0.722871 0.991478 0.928800
v 0.723294 0.991292 0.928830
v 0.710600 0.991823 0.931636
v 0.711074 0.991976 0.930936
v 0.710696 0.991958 0.931204
v 0.723304 0.990263 0.928636
v 0.722619 0.990558 0.928210
v 0.723061 0.990440 0.928284
v 0.710474 0.990991 0.931536
v 0.710907 0.990875 0.930803
v 0.710541 0.990939 0.931080
v 0.723178 0.989431 0.928536
v 0.722452 0.989457 0.928077
v 0.722906 0.989421 0.928160
v 0.710437 0.990187 0.931801
v 0.710859 0.989810 0.931153
v 0.710497 0.989953 0.931405
v 0.723142 0.988627 0.928801
v 0.722404 0.988393 0.928427
v 0.722862 0.988435 0.928485
v 0.710498 0.989570 0.932378
v 0.710939 0.988994 0.931917
v 0.710571 0.989197 0.932112
v 0.723203 0.988010 0.929378
v 0.722484 0.987576 0.929191
v 0.722936 0.987679 0.929193
v 0.710643 0.989262 0.933154
v 0.711132 0.988586 0.932944
v 0.710750 0.988820 0.933063
v 0.723348 0.987702 0.930154
v 0.722677 0.987169 0.930218
v 0.723114 0.987301 0.930144
v 0.710845 0.989324 0.933975
v 0.711398 0.988669 0.934031
v 0.710996 0.988896 0.934069
v 0.723550 0.987764 0.930975
v 0.722943 0.987251 0.931305
v 0.723361 0.987378 0.931149
v 0.711063 0.989744 0.934678
v 0.711686 0.989225 0.934961
v 0.711263 0.989411 0.934931
v 0.723767 0.988184 0.931678
v 0.723231 0.987807 0.932235
v 0.723628 0.987893 0.932011
v 0.711253 0.990440 0.935124
v 0.711939 0.990145 0.935551
v 0.711497 0.990263 0.935477
v 0.723958 0.988880 0.932124
v 0.723484 0.988727 0.932825
v 0.723862 0.988745 0.932557
v 0.711379 0.991272 0.935225
v 0.712105 0.991246 0.935684
v 0.711651 0.991282 0.935600
v 0.724084 0.989712 0.932225
v 0.723650 0.989828 0.932958
v 0.724016 0.989764 0.932680
v 0.711415 0.992076 0.934960
v 0.712153 0.992310 0.935334
v 0.711695 0.992268 0.935276
v 0.724120 0.990516 0.931960
v 0.723698 0.990893 0.932608
v 0.724060 0.990750 0.932356
v 0.711355 0.992693 0.934383
v 0.712073 0.993127 0.934570
v 0.711621 0.993024 0.934568
v 0.724059 0.991133 0.931383
v 0.723618 0.991709 0.931843
v 0.723986 0.991506 0.931648
v 0.691436 0.997003 0.933817
v 0.690766 0.997536 0.933892
v 0.691210 0.997404 0.933869
v 0.616995 0.987862 0.933817
v 0.617516 0.988542 0.933892
v 0.617117 0.988306 0.933869
v 0.691502 0.996465 0.935318
v 0.690843 0.996906 0.935650
v 0.691284 0.996801 0.935549
v 0.617061 0.987325 0.935318
v 0.617593 0.987912 0.935650
v 0.617191 0.987704 0.935549
v 0.691641 0.995334 0.936434
v 0.691006 0.995581 0.936959
v 0.691439 0.995535 0.936800
v 0.617200 0.986194 0.936434
v 0.617756 0.986587 0.936959
v 0.617347 0.986438 0.936800
v 0.691825 0.993834 0.936946
v 0.691222 0.993824 0.937558
v 0.691645 0.993856 0.937373
v 0.617384 0.984694 0.936946
v 0.617972 0.984830 0.937558
v 0.617553 0.984759 0.937373
v 0.692018 0.992263 0.936752
v 0.691448 0.991982 0.937331
v 0.691861 0.992097 0.937155
v 0.617577 0.983123 0.936752
v 0.618198 0.982988 0.937331
v 0.617769 0.982999 0.937155
v 0.692181 0.990931 0.935890
v 0.691639 0.990421 0.936320
v 0.692044 0.990605 0.936190
v 0.617741 0.981790 0.935890
v 0.618390 0.981427 0.936320
v 0.617952 0.981508 0.936190
v 0.692283 0.990102 0.934530
v 0.691759 0.989450 0.934728
v 0.692158 0.989677 0.934668
v 0.617842 0.980961 0.934530
v 0.618509 0.980456 0.934728
v 0.618066 0.980580 0.934668
v 0.692303 0.989940 0.932944
v 0.691782 0.989261 0.932869
v 0.692181 0.989496 0.932891
v 0.617862 0.980800 0.932944
v 0.618532 0.980267 0.932869
v 0.618088 0.980399 0.932891
v 0.692237 0.990478 0.931443
v 0.691705 0.989891 0.931111
v 0.692107 0.990098 0.931211
v 0.617796 0.981338 0.931443
v 0.618455 0.980897 0.931111
v 0.618015 0.981001 0.931211
v 0.692098 0.991609 0.930326
v 0.691542 0.991216 0.929802
v 0.691951 0.991364 0.929961
v 0.617657 0.982468 0.930326
v 0.618292 0.982222 0.929802
v 0.617859 0.982267 0.929961
v 0.691914 0.993108 0.929815
v 0.691326 0.992973 0.929202
v 0.691745 0.993043 0.929388
v 0.617473 0.983968 0.929815
v 0.618076 0.983979 0.929202
v 0.617653 0.983946 0.929388
v 0.691721 0.994680 0.930009
v 0.691100 0.994814 0.929430
v 0.691529 0.994803 0.929606
v 0.617280 0.985540 0.930009
v 0.617850 0.985820 0.929430
v 0.617437 0.985706 0.929606
v 0.691558 0.996012 0.930871
v 0.690908 0.996375 0.930440
v 0.691346 0.996295 0.930571
v 0.617117 0.986872 0.930871
v 0.617658 0.987381 0.930440
v 0.617254 0.987197 0.930571
v 0.691456 0.996841 0.932230
v 0.690789 0.997346 0.932033
v 0.691232 0.997223 0.932093
v 0.617015 0.987701 0.932230
v 0.617539 0.988352 0.932033
v 0.617140 0.988125 0.932093
v 0.691512 0.996382 0.933020
v 0.692033 0.997061 0.932945
v 0.691635 0.996826 0.932968
v 0.710569 0.998722 0.933020
v 0.709899 0.999255 0.932945
v 0.710343 0.999123 0.932968
v 0.691567 0.995939 0.931784
v 0.692099 0.996526 0.931451
v 0.691697 0.996318 0.931552
v 0.710623 0.998279 0.931784
v 0.709965 0.998719 0.931451
v 0.710405 0.998615 0.931552
v 0.691681 0.995007 0.930863
v 0.692237 0.995400 0.930339
v 0.691828 0.995251 0.930498
v 0.710738 0.997347 0.930863
v 0.710103 0.997593 0.930339
v 0.710536 0.997548 0.930498
v 0.691833 0.993771 0.930441
v 0.692421 0.993906 0.929829
v 0.692002 0.993835 0.930015
v 0.710890 0.996110 0.930441
v 0.710286 0.996100 0.929829
v 0.710710 0.996132 0.930015
v 0.691992 0.992475 0.930601
v 0.692613 0.992341 0.930023
v 0.692184 0.992352 0.930198
v 0.711049 0.994815 0.930601
v 0.710479 0.994534 0.930023
v 0.710892 0.994649 0.930198
v 0.692127 0.991377 0.931312
v 0.692776 0.991014 0.930881
v 0.692338 0.991095 0.931012
v 0.711184 0.993717 0.931312
v 0.710642 0.993208 0.930881
v 0.711046 0.993392 0.931012
v 0.692211 0.990694 0.932432
v 0.692877 0.990188 0.932235
v 0.692434 0.990312 0.932295
v 0.711267 0.993034 0.932432
v 0.710743 0.992382 0.932235
v 0.711142 0.992609 0.932295
v 0.692227 0.990561 0.933740
v 0.692897 0.990027 0.933815
v 0.692453 0.990160 0.933793
v 0.711284 0.992900 0.933740
v 0.710763 0.992221 0.933815
v 0.711161 0.992457 0.933793
v 0.692172 0.991004 0.934977
v 0.692831 0.990563 0.935310
v 0.692391 0.990667 0.935209
v 0.711229 0.993344 0.934977
v 0.710697 0.992757 0.935310
v 0.711099 0.992964 0.935209
v 0.692058 0.991936 0.935898
v 0.692693 0.991689 0.936422
v 0.692260 0.991735 0.936263
v 0.711115 0.994276 0.935898
v 0.710559 0.993883 0.936422
v 0.710968 0.994031 0.936263
v 0.691906 0.993172 0.936320
v 0.692509 0.993183 0.936932
v 0.692086 0.993150 0.936746
v 0.710963 0.995512 0.936320
v 0.710375 0.995376 0.936932
v 0.710794 0.995447 0.936746
v 0.691747 0.994467 0.936159
v 0.692317 0.994748 0.936738
v 0.691904 0.994633 0.936563
v 0.710804 0.996807 0.936159
v 0.710183 0.996942 0.936738
v 0.710612 0.996930 0.936563
v 0.691612 0.995566 0.935449
v 0.692154 0.996075 0.935879
v 0.691749 0.995891 0.935749
v 0.710669 0.997905 0.935449
v 0.710020 0.998268 0.935879
v 0.710458 0.998188 0.935749
v 0.691528 0.996249 0.934328
v 0.692053 0.996900 0.934526
v 0.691653 0.996673 0.934466
v 0.710585 0.998589 0.934328
v 0.709919 0.999094 0.934526
v 0.710361 0.998970 0.934466
v 0.710643 0.997681 0.933154
v 0.711132 0.998356 0.932944
v 0.710750 0.998123 0.933063
v 0.723348 0.999241 0.930154
v 0.722677 0.999774 0.930218
v 0.723114 0.999641 0.930144
v 0.710498 0.997373 0.932378
v 0.710939 0.997949 0.931917
v 0.710571 0.997746 0.932112
v 0.723203 0.998933 0.929378
v 0.722484 0.999366 0.929191
v 0.722936 0.999264 0.929193
v 0.710437 0.996756 0.931801
v 0.710859 0.997132 0.931153
v 0.710497 0.996989 0.931405
v 0.723142 0.998316 0.928801
v 0.722404 0.998550 0.928427
v 0.722862 0.998508 0.928485
v 0.710474 0.995951 0.931536
v 0.710907 0.996068 0.930803
v 0.710541 0.996004 0.931080
v 0.723178 0.997511 0.928536
v 0.722452 0.997485 0.928077
v 0.722906 0.997522 0.928160
v 0.710599 0.995119 0.931636
v 0.711074 0.994967 0.930936
v 0.710696 0.994984 0.931204
v 0.723304 0.996679 0.928636
v 0.722619 0.996384 0.928210
v 0.723061 0.996503 0.928284
v 0.710790 0.994424 0.932082
v 0.711326 0.994047 0.931526
v 0.710929 0.994133 0.931750
v 0.723495 0.995984 0.929082
v 0.722871 0.995465 0.928800
v 0.723294 0.995651 0.928830
v 0.711008 0.994004 0.932785
v 0.711614 0.993491 0.932456
v 0.711196 0.993618 0.932611
v 0.723712 0.995564 0.929785
v 0.723159 0.994908 0.929730
v 0.723561 0.995136 0.929692
v 0.711209 0.993941 0.933606
v 0.711881 0.993408 0.933543
v 0.711443 0.993541 0.933617
v 0.723914 0.995501 0.930606
v 0.723426 0.994826 0.930816
v 0.723808 0.995059 0.930697
v 0.711355 0.994249 0.934383
v 0.712073 0.993816 0.934570
v 0.711621 0.993918 0.934568
v 0.724059 0.995809 0.931383
v 0.723618 0.995233 0.931843
v 0.723986 0.995437 0.931648
v 0.711415 0.994867 0.934960
v 0.712153 0.994632 0.935334
v 0.711695 0.994675 0.935276
v 0.724120 0.996427 0.931960
v 0.723698 0.996050 0.932608
v 0.724060 0.996193 0.932356
v 0.711379 0.995671 0.935225
v 0.712105 0.995697 0.935684
v 0.711651 0.995660 0.935600
v 0.724084 0.997231 0.932225
v 0.723650 0.997114 0.932958
v 0.724016 0.997178 0.932680
v 0.711253 0.996503 0.935124
v 0.711939 0.996798 0.935551
v 0.711497 0.996680 0.935477
v 0.723958 0.998063 0.932124
v 0.723484 0.998215 0.932825
v 0.723862 0.998198 0.932557
v 0.711063 0.997198 0.934678
v 0.711686 0.997718 0.934961
v 0.711263 0.997531 0.934931
v 0.723767 0.998758 0.931678
v 0.723231 0.999135 0.932235
v 0.723628 0.999050 0.932011
v 0.710845 0.997619 0.933975
v 0.711398 0.998274 0.934031
v 0.710996 0.998046 0.934069
v 0.723550 0.999179 0.930975
v 0.722943 0.999691 0.931305
v 0.723361 0.999565 0.931149
vn 0.1146 0.9335 0.3397
vn 0.0659 0.5364 -0.8414
vn 0.0149 0.1210 -0.9925
vn -0.0391 -0.3185 -0.9471
vn -0.0853 -0.6948 -0.7141
vn -0.1146 -0.9335 -0.3397
vn -0.1212 -0.9874 0.1021
vn -0.1038 -0.8456 0.5236
vn -0.0659 -0.5364 0.8414
vn -0.0149 -0.1210 0.9925
vn 0.0391 0.3185 0.9471
vn 0.0853 0.6948 0.7141
vn 0.1038 0.8456 -0.5236
vn 0.9925 -0.1219 -0.0000
vn 0.1212 0.9874 -0.1021
vn -0.2797 0.9555 -0.0938
vn -0.8680 0.4949 -0.0395
vn 0.5025 0.8595 -0.0938
vn 0.9620 0.2702 -0.0395
vn -0.2957 0.8252 -0.4812
vn -0.8748 0.4400 -0.2029
vn 0.4865 0.7292 -0.4812
vn 0.9552 0.2153 -0.2029
vn -0.3306 0.5410 -0.7733
vn -0.8895 0.3202 -0.3260
vn 0.4516 0.4450 -0.7733
vn 0.9405 0.0955 -0.3260
vn -0.3774 0.1592 -0.9122
vn -0.9093 0.1592 -0.3846
vn 0.4047 0.0632 -0.9122
vn 0.9208 -0.0655 -0.3846
vn -0.4270 -0.2447 -0.8705
vn -0.9302 -0.0110 -0.3670
vn 0.3552 -0.3407 -0.8705
vn 0.8999 -0.2357 -0.3670
vn -0.4695 -0.5906 -0.6563
vn -0.9481 -0.1569 -0.2767
vn 0.3127 -0.6866 -0.6563
vn 0.8820 -0.3816 -0.2767
vn -0.4964 -0.8100 -0.3122
vn -0.9594 -0.2494 -0.1316
vn 0.2857 -0.9060 -0.3122
vn 0.8706 -0.4741 -0.1316
vn -0.5025 -0.8595 0.0938
vn -0.9620 -0.2702 0.0395
vn 0.2797 -0.9555 0.0938
vn 0.8680 -0.4949 0.0395
vn -0.4865 -0.7292 0.4812
vn -0.9552 -0.2153 0.2029
vn 0.2957 -0.8252 0.4812
vn 0.8748 -0.4400 0.2029
vn -0.4516 -0.4450 0.7733
vn -0.9405 -0.0955 0.3260
vn 0.3306 -0.5410 0.7733
vn 0.8895 -0.3202 0.3260
vn -0.4047 -0.0632 0.9122
vn -0.9208 0.0655 0.3846
vn 0.3774 -0.1592 0.9122
vn 0.9093 -0.1592 0.3846
vn -0.3552 0.3407 0.8705
vn -0.8999 0.2357 0.3670
vn 0.4270 0.2447 0.8705
vn 0.9302 0.0110 0.3670
vn -0.3127 0.6866 0.6563
vn -0.8820 0.3816 0.2767
vn 0.4695 0.5906 0.6563
vn 0.9481 0.1569 0.2767
vn -0.2857 0.9060 0.3122
vn -0.8706 0.4741 0.1316
vn 0.4964 0.8100 0.3122
vn 0.9594 0.2494 0.1316
vn -0.9925 0.1219 -0.0000
vn 0.2239 0.6892 0.6892
vn 0.7246 -0.0000 0.6892
vn 0.5862 0.4259 -0.6892
vn 0.7840 0.5696 0.2469
vn 0.2194 0.1594 -0.9625
vn 0.7840 0.5696 -0.2469
vn 0.0838 0.2579 -0.9625
vn 0.2994 0.9216 -0.2469
vn 0.2194 0.1594 0.9625
vn 0.2239 0.6892 -0.6892
vn 0.2994 0.9216 0.2469
vn 0.0838 0.2579 0.9625
vn 0.7246 -0.0000 -0.6892
vn 0.2712 -0.0000 0.9625
vn 0.2712 -0.0000 -0.9625
vn 0.9690 -0.0000 -0.2469
vn 0.9690 -0.0000 0.2469
vn 0.5862 -0.4259 0.6892
vn 0.2194 -0.1594 0.9625
vn 0.2194 -0.1594 -0.9625
vn 0.7840 -0.5696 -0.2469
vn 0.7840 -0.5696 0.2469
vn 0.2239 -0.6892 0.6892
vn 0.5862 -0.4259 -0.6892
vn 0.0838 -0.2579 -0.9625
vn 0.2994 -0.9216 -0.2469
vn 0.2994 -0.9216 0.2469
vn -0.2239 -0.6892 0.6892
vn 0.2239 -0.6892 -0.6892
vn 0.0838 -0.2579 0.9625
vn -0.0838 -0.2579 -0.9625
vn -0.2994 -0.9216 -0.2469
vn -0.2994 -0.9216 0.2469
vn -0.5862 -0.4259 0.6892
vn -0.2239 -0.6892 -0.6892
vn -0.0838 -0.2579 0.9625
vn -0.2194 -0.1594 -0.9625
vn -0.7840 -0.5696 -0.2469
vn -0.7840 -0.5696 0.2469
vn -0.2712 -0.0000 0.9625
vn -0.5862 -0.4259 -0.6892
vn -0.2194 -0.1594 0.9625
vn -0.2712 -0.0000 -0.9625
vn -0.9690 -0.0000 -0.2469
vn -0.7246 -0.0000 0.6892
vn -0.5862 0.4259 0.6892
vn -0.7246 -0.0000 -0.6892
vn -0.9690 -0.0000 0.2469
vn -0.7840 0.5696 -0.2469
vn -0.7840 0.5696 0.2469
vn -0.2239 0.6892 0.6892
vn -0.5862 0.4259 -0.6892
vn -0.2194 0.1594 0.9625
vn -0.2194 0.1594 -0.9625
vn -0.2994 0.9216 0.2469
vn -0.2239 0.6892 -0.6892
vn -0.0838 0.2579 0.9625
vn -0.0838 0.2579 -0.9625
vn -0.2994 0.9216 -0.2469
vn 0.5559 0.5825 0.5930
vn 0.3822 0.7087 0.5930
vn 0.3822 0.7087 -0.5930
vn 0.5559 0.5825 -0.5930
vn 0.7921 0.1444 0.5930
vn 0.7257 0.3487 0.5930
vn 0.7257 0.3487 -0.5930
vn 0.7921 0.1444 -0.5930
vn 0.7257 -0.3487 0.5930
vn 0.7921 -0.1444 0.5930
vn 0.7921 -0.1444 -0.5930
vn 0.7257 -0.3487 -0.5930
vn 0.3822 -0.7087 0.5930
vn 0.5559 -0.5825 0.5930
vn 0.5559 -0.5825 -0.5930
vn 0.3822 -0.7087 -0.5930
vn -0.1074 -0.7980 0.5930
vn 0.1074 -0.7980 0.5930
vn 0.1074 -0.7980 -0.5930
vn -0.1074 -0.7980 -0.5930
vn -0.5559 -0.5825 0.5930
vn -0.3822 -0.7087 0.5930
vn -0.3822 -0.7087 -0.5930
vn -0.5559 -0.5825 -0.5930
vn -0.7921 -0.1444 0.5930
vn -0.7257 -0.3487 0.5930
vn -0.7257 -0.3487 -0.5930
vn -0.7921 -0.1444 -0.5930
vn -0.7257 0.3487 0.5930
vn -0.7921 0.1444 0.5930
vn -0.7921 0.1444 -0.5930
vn -0.7257 0.3487 -0.5930
vn -0.3822 0.7087 0.5930
vn -0.5559 0.5825 0.5930
vn -0.5559 0.5825 -0.5930
vn -0.3822 0.7087 -0.5930
vn 0.1074 0.7980 0.5930
vn -0.1074 0.7980 0.5930
vn -0.1074 0.7980 -0.5930
vn 0.1074 0.7980 -0.5930
vn 0.6673 0.6992 0.2567
vn 0.4587 0.8507 0.2567
vn 0.6613 0.7053 -0.2555
vn 0.4664 0.8469 -0.2555
vn 0.9508 0.1734 0.2567
vn 0.8711 0.4186 0.2567
vn 0.9496 0.1819 -0.2555
vn 0.8751 0.4110 -0.2555
vn 0.4911 0.3568 -0.7946
vn 0.3385 0.2459 -0.9083
vn 0.3385 0.2459 0.9083
vn 0.4911 0.3568 0.7946
vn 0.8711 -0.4186 0.2567
vn 0.9508 -0.1734 0.2567
vn 0.8751 -0.4110 -0.2555
vn 0.9496 -0.1819 -0.2555
vn 0.4184 -0.0000 0.9083
vn 0.6071 -0.0000 0.7946
vn 0.4184 -0.0000 -0.9083
vn 0.6071 -0.0000 -0.7946
vn 0.4587 -0.8507 0.2567
vn 0.6673 -0.6992 0.2567
vn 0.4664 -0.8469 -0.2555
vn 0.6613 -0.7053 -0.2555
vn 0.3385 -0.2459 0.9083
vn 0.4911 -0.3568 0.7946
vn 0.3385 -0.2459 -0.9083
vn 0.4911 -0.3568 -0.7946
vn -0.1289 -0.9579 0.2567
vn 0.1289 -0.9579 0.2567
vn -0.1205 -0.9593 -0.2555
vn 0.1205 -0.9593 -0.2555
vn 0.1293 -0.3979 -0.9083
vn 0.1876 -0.5774 -0.7946
vn 0.1876 -0.5774 0.7946
vn 0.1293 -0.3979 0.9083
vn -0.6673 -0.6992 0.2567
vn -0.4587 -0.8507 0.2567
vn -0.6613 -0.7053 -0.2555
vn -0.4664 -0.8469 -0.2555
vn -0.1293 -0.3979 -0.9083
vn -0.1876 -0.5774 -0.7946
vn -0.1876 -0.5774 0.7946
vn -0.1293 -0.3979 0.9083
vn -0.9508 -0.1734 0.2567
vn -0.8711 -0.4186 0.2567
vn -0.9496 -0.1819 -0.2555
vn -0.8751 -0.4110 -0.2555
vn -0.3385 -0.2459 -0.9083
vn -0.4911 -0.3568 -0.7946
vn -0.4911 -0.3568 0.7946
vn -0.3385 -0.2459 0.9083
vn -0.8711 0.4186 0.2567
vn -0.9508 0.1734 0.2567
vn -0.8751 0.4110 -0.2555
vn -0.9496 0.1819 -0.2555
vn -0.4184 -0.0000 -0.9083
vn -0.6071 -0.0000 -0.7946
vn -0.6071 -0.0000 0.7946
vn -0.4184 -0.0000 0.9083
vn -0.4587 0.8507 0.2567
vn -0.6673 0.6992 0.2567
vn -0.4664 0.8469 -0.2555
vn -0.6613 0.7053 -0.2555
vn -0.4911 0.3568 0.7946
vn -0.3385 0.2459 0.9083
vn -0.4911 0.3568 -0.7946
vn -0.3385 0.2459 -0.9083
vn 0.1289 0.9579 0.2567
vn -0.1289 0.9579 0.2567
vn 0.1205 0.9593 -0.2555
vn -0.1205 0.9593 -0.2555
vn -0.1876 0.5774 0.7946
vn -0.1293 0.3979 0.9083
vn -0.1876 0.5774 -0.7946
vn -0.1293 0.3979 -0.9083
vn 0.1876 0.5774 0.7946
vn 0.1293 0.3979 0.9083
vn 0.1876 0.5774 -0.7946
vn 0.1293 0.3979 -0.9083
vn 0.5862 0.4259 0.6892
vn 0.1146 0.9335 -0.3397
vn 0.0659 0.5364 0.8414
vn 0.0149 0.1210 0.9925
vn -0.0391 -0.3185 0.9471
vn -0.0853 -0.6948 0.7141
vn -0.1146 -0.9335 0.3397
vn -0.1212 -0.9874 -0.1020
vn -0.1038 -0.8456 -0.5236
vn -0.0659 -0.5364 -0.8414
vn -0.0149 -0.1210 -0.9925
vn 0.0391 0.3185 -0.9471
vn 0.0853 0.6948 -0.7141
vn 0.1038 0.8456 0.5236
vn 0.1212 0.9874 0.1020
vn 0.5025 0.8595 0.0938
vn 0.9620 0.2702 0.0395
vn -0.2797 0.9555 0.0938
vn -0.8680 0.4949 0.0395
vn 0.4865 0.7292 0.4812
vn 0.9552 0.2153 0.2029
vn -0.2957 0.8252 0.4812
vn -0.8748 0.4400 0.2029
vn 0.4516 0.4450 0.7733
vn 0.9405 0.0955 0.3260
vn -0.3306 0.5410 0.7733
vn -0.8895 0.3202 0.3260
vn 0.4047 0.0632 0.9122
vn 0.9208 -0.0655 0.3846
vn -0.3775 0.1592 0.9122
vn -0.9092 0.1592 0.3846
vn 0.3552 -0.3407 0.8705
vn 0.8999 -0.2357 0.3670
vn -0.4270 -0.2447 0.8705
vn -0.9302 -0.0110 0.3670
vn 0.3127 -0.6866 0.6563
vn 0.8819 -0.3816 0.2767
vn -0.4695 -0.5906 0.6564
vn -0.9481 -0.1569 0.2767
vn 0.2857 -0.9060 0.3122
vn 0.8706 -0.4741 0.1316
vn -0.4965 -0.8100 0.3122
vn -0.9594 -0.2494 0.1316
vn 0.2797 -0.9555 -0.0938
vn 0.8680 -0.4949 -0.0395
vn -0.5025 -0.8595 -0.0938
vn -0.9620 -0.2702 -0.0395
vn 0.2957 -0.8252 -0.4812
vn 0.8748 -0.4400 -0.2029
vn -0.4865 -0.7292 -0.4812
vn -0.9552 -0.2153 -0.2029
vn 0.3306 -0.5410 -0.7733
vn 0.8895 -0.3202 -0.3260
vn -0.4516 -0.4450 -0.7733
vn -0.9405 -0.0955 -0.3260
vn 0.3774 -0.1592 -0.9122
vn 0.9093 -0.1592 -0.3846
vn -0.4048 -0.0632 -0.9122
vn -0.9208 0.0655 -0.3846
vn 0.4270 0.2447 -0.8705
vn 0.9302 0.0110 -0.3670
vn -0.3552 0.3407 -0.8705
vn -0.8999 0.2357 -0.3670
vn 0.4695 0.5906 -0.6563
vn 0.9481 0.1569 -0.2767
vn -0.3127 0.6866 -0.6564
vn -0.8820 0.3816 -0.2767
vn 0.4964 0.8100 -0.3122
vn 0.9594 0.2494 -0.1316
vn -0.2858 0.9060 -0.3122
vn -0.8706 0.4741 -0.1316
vn 0.1916 0.9241 0.3307
vn -0.1247 0.5598 -0.8192
vn -0.2100 0.1486 -0.9664
vn -0.2536 -0.2921 -0.9221
vn -0.2471 -0.6749 -0.6953
vn -0.1916 -0.9241 -0.3307
vn -0.0981 -0.9902 0.0994
vn 0.0147 -0.8602 0.5097
vn 0.1247 -0.5598 0.8192
vn 0.2100 -0.1486 0.9664
vn 0.2536 0.2921 0.9221
vn 0.2471 0.6749 0.6953
vn -0.0147 0.8602 -0.5097
vn 0.9664 -0.1187 -0.2282
vn 0.0981 0.9902 -0.0994
vn -0.2906 0.9568 -0.0014
vn -0.8528 0.4931 0.1719
vn 0.4710 0.8633 -0.1812
vn 0.9289 0.2743 -0.2489
vn -0.3943 0.8374 -0.3786
vn -0.8966 0.4427 0.0129
vn 0.3672 0.7438 -0.5584
vn 0.8852 0.2239 -0.4079
vn -0.4954 0.5613 -0.6630
vn -0.9392 0.3263 -0.1070
vn 0.2662 0.4678 -0.8428
vn 0.8425 0.1075 -0.5278
vn -0.5737 0.1833 -0.7983
vn -0.9722 0.1670 -0.1641
vn 0.1878 0.0898 -0.9781
vn 0.8095 -0.0518 -0.5848
vn -0.6139 -0.2217 -0.7576
vn -0.9891 -0.0038 -0.1469
vn 0.1477 -0.3152 -0.9375
vn 0.7926 -0.2226 -0.5677
vn -0.6078 -0.5736 -0.5491
vn -0.9866 -0.1521 -0.0590
vn 0.1537 -0.6671 -0.7290
vn 0.7951 -0.3709 -0.4798
vn -0.5568 -0.8026 -0.2140
vn -0.9651 -0.2487 0.0822
vn 0.2047 -0.8961 -0.3939
vn 0.8166 -0.4674 -0.3385
vn -0.4710 -0.8633 0.1812
vn -0.9289 -0.2743 0.2489
vn 0.2906 -0.9568 0.0014
vn 0.8528 -0.4931 -0.1719
vn -0.3672 -0.7439 0.5584
vn -0.8852 -0.2239 0.4079
vn 0.3943 -0.8374 0.3786
vn 0.8966 -0.4427 -0.0129
vn -0.2662 -0.4678 0.8428
vn -0.8425 -0.1075 0.5278
vn 0.4954 -0.5613 0.6630
vn 0.9392 -0.3263 0.1070
vn -0.1878 -0.0898 0.9781
vn -0.8095 0.0518 0.5848
vn 0.5737 -0.1833 0.7983
vn 0.9722 -0.1670 0.1641
vn -0.1477 0.3152 0.9375
vn -0.7926 0.2226 0.5677
vn 0.6139 0.2217 0.7576
vn 0.9891 0.0038 0.1469
vn -0.1537 0.6671 0.7289
vn -0.7951 0.3709 0.4798
vn 0.6078 0.5736 0.5491
vn 0.9866 0.1521 0.0590
vn -0.2047 0.8961 0.3939
vn -0.8166 0.4674 0.3385
vn 0.5568 0.8026 0.2140
vn 0.9651 0.2487 -0.0822
vn -0.9664 0.1187 0.2282
vn -0.1212 0.9874 -0.1020
vn -0.0391 0.3185 0.9471
vn 0.0149 -0.1210 0.9925
vn 0.0659 -0.5364 0.8414
vn 0.1038 -0.8456 0.5236
vn 0.1212 -0.9874 0.1020
vn 0.1146 -0.9335 -0.3397
vn 0.0853 -0.6948 -0.7141
vn 0.0391 -0.3185 -0.9471
vn -0.0149 0.1210 -0.9925
vn -0.0659 0.5364 -0.8414
vn -0.1038 0.8456 -0.5236
vn -0.0853 0.6948 0.7141
vn -0.9925 -0.1219 -0.0000
vn -0.1146 0.9335 0.3397
vn 0.2857 0.9060 0.3122
vn 0.8706 0.4741 0.1316
vn -0.4964 0.8100 0.3122
vn -0.9594 0.2494 0.1316
vn 0.3127 0.6866 0.6563
vn 0.8820 0.3816 0.2767
vn -0.4695 0.5906 0.6563
vn -0.9481 0.1569 0.2767
vn 0.3552 0.3407 0.8705
vn 0.8999 0.2357 0.3670
vn -0.4270 0.2447 0.8705
vn -0.9302 0.0110 0.3670
vn 0.4048 -0.0632 0.9122
vn 0.9208 0.0655 0.3846
vn -0.3774 -0.1592 0.9122
vn -0.9093 -0.1592 0.3846
vn 0.4516 -0.4450 0.7733
vn 0.9405 -0.0955 0.3260
vn -0.3306 -0.5411 0.7733
vn -0.8895 -0.3202 0.3260
vn 0.4865 -0.7292 0.4812
vn 0.9552 -0.2153 0.2029
vn -0.2957 -0.8252 0.4812
vn -0.8748 -0.4400 0.2029
vn 0.5025 -0.8595 0.0938
vn 0.9620 -0.2702 0.0395
vn -0.2797 -0.9555 0.0938
vn -0.8680 -0.4949 0.0395
vn 0.4964 -0.8100 -0.3122
vn 0.9594 -0.2494 -0.1316
vn -0.2858 -0.9060 -0.3122
vn -0.8706 -0.4741 -0.1316
vn 0.4695 -0.5906 -0.6563
vn 0.9481 -0.1569 -0.2767
vn -0.3127 -0.6866 -0.6564
vn -0.8819 -0.3816 -0.2767
vn 0.4270 -0.2447 -0.8705
vn 0.9302 -0.0110 -0.3670
vn -0.3552 -0.3407 -0.8705
vn -0.8999 -0.2357 -0.3670
vn 0.3774 0.1592 -0.9122
vn 0.9093 0.1592 -0.3846
vn -0.4047 0.0632 -0.9122
vn -0.9208 -0.0655 -0.3846
vn 0.3306 0.5410 -0.7733
vn 0.8895 0.3202 -0.3260
vn -0.4516 0.4450 -0.7733
vn -0.9405 0.0955 -0.3260
vn 0.2957 0.8252 -0.4812
vn 0.8748 0.4400 -0.2029
vn -0.4865 0.7292 -0.4812
vn -0.9552 0.2153 -0.2029
vn 0.2797 0.9555 -0.0938
vn 0.8680 0.4949 -0.0395
vn -0.5025 0.8595 -0.0938
vn -0.9620 0.2702 -0.0395
vn 0.9925 0.1219 -0.0000
vn -0.1212 0.9874 0.1021
vn -0.0391 0.3185 -0.9471
vn 0.0149 -0.1210 -0.9925
vn 0.0659 -0.5364 -0.8414
vn 0.1038 -0.8456 -0.5236
vn 0.1212 -0.9874 -0.1021
vn 0.1146 -0.9335 0.3397
vn 0.0853 -0.6948 0.7141
vn 0.0391 -0.3185 0.9471
vn -0.0149 0.1210 0.9925
vn -0.0659 0.5364 0.8414
vn -0.1038 0.8456 0.5236
vn -0.0853 0.6948 -0.7141
vn -0.1146 0.9335 -0.3397
vn -0.4964 0.8100 -0.3122
vn -0.9594 0.2494 -0.1316
vn 0.2857 0.9060 -0.3122
vn 0.8706 0.4741 -0.1316
vn -0.4695 0.5906 -0.6563
vn -0.9481 0.1569 -0.2767
vn 0.3127 0.6866 -0.6563
vn 0.8820 0.3816 -0.2767
vn -0.4270 0.2447 -0.8705
vn -0.9302 0.0110 -0.3670
vn 0.3552 0.3407 -0.8705
vn 0.8999 0.2357 -0.3670
vn -0.3774 -0.1592 -0.9122
vn -0.9093 -0.1592 -0.3846
vn 0.4047 -0.0632 -0.9122
vn 0.9208 0.0655 -0.3846
vn -0.3306 -0.5410 -0.7733
vn -0.8895 -0.3202 -0.3260
vn 0.4516 -0.4450 -0.7733
vn 0.9405 -0.0955 -0.3260
vn -0.2957 -0.8252 -0.4812
vn -0.8748 -0.4400 -0.2029
vn 0.4865 -0.7292 -0.4812
vn 0.9552 -0.2153 -0.2029
vn -0.2797 -0.9555 -0.0938
vn -0.8680 -0.4949 -0.0395
vn 0.5025 -0.8595 -0.0938
vn 0.9620 -0.2702 -0.0395
vn -0.2857 -0.9060 0.3122
vn -0.8706 -0.4741 0.1316
vn 0.4964 -0.8100 0.3122
vn 0.9594 -0.2494 0.1316
vn -0.3127 -0.6866 0.6563
vn -0.8820 -0.3816 0.2767
vn 0.4695 -0.5906 0.6563
vn 0.9481 -0.1569 0.2767
vn -0.3552 -0.3407 0.8705
vn -0.8999 -0.2357 0.3670
vn 0.4270 -0.2447 0.8705
vn 0.9302 -0.0110 0.3670
vn -0.4047 0.0632 0.9122
vn -0.9208 -0.0655 0.3846
vn 0.3774 0.1592 0.9122
vn 0.9093 0.1592 0.3846
vn -0.4516 0.4450 0.7733
vn -0.9405 0.0955 0.3260
vn 0.3306 0.5410 0.7733
vn 0.8895 0.3202 0.3260
vn -0.4865 0.7292 0.4812
vn -0.9552 0.2153 0.2029
vn 0.2957 0.8252 0.4812
vn 0.8748 0.4400 0.2029
vn -0.5025 0.8595 0.0938
vn -0.9620 0.2702 0.0395
vn 0.2797 0.9555 0.0938
vn 0.8680 0.4949 0.0395
vn -0.0981 0.9902 0.0994
vn -0.2536 0.2921 -0.9221
vn -0.2100 -0.1486 -0.9664
vn -0.1247 -0.5598 -0.8192
vn -0.0147 -0.8602 -0.5097
vn 0.0981 -0.9902 -0.0994
vn 0.1916 -0.9241 0.3307
vn 0.2471 -0.6749 0.6953
vn 0.2536 -0.2921 0.9221
vn 0.2100 0.1486 0.9664
vn 0.1247 0.5598 0.8192
vn 0.0147 0.8602 0.5097
vn -0.2471 0.6749 -0.6953
vn 0.9664 0.1187 -0.2282
vn -0.1916 0.9241 -0.3307
vn -0.5568 0.8026 -0.2140
vn -0.9651 0.2487 0.0822
vn 0.2047 0.8961 -0.3939
vn 0.8166 0.4674 -0.3385
vn -0.6078 0.5736 -0.5491
vn -0.9866 0.1521 -0.0590
vn 0.1537 0.6671 -0.7289
vn 0.7951 0.3709 -0.4798
vn -0.6139 0.2217 -0.7576
vn -0.9891 0.0038 -0.1469
vn 0.1477 0.3152 -0.9375
vn 0.7926 0.2226 -0.5677
vn -0.5737 -0.1833 -0.7983
vn -0.9722 -0.1670 -0.1641
vn 0.1878 -0.0898 -0.9781
vn 0.8095 0.0518 -0.5848
vn -0.4954 -0.5613 -0.6630
vn -0.9392 -0.3263 -0.1070
vn 0.2662 -0.4678 -0.8428
vn 0.8425 -0.1075 -0.5278
vn -0.3943 -0.8374 -0.3786
vn -0.8966 -0.4427 0.0129
vn 0.3672 -0.7438 -0.5584
vn 0.8852 -0.2239 -0.4079
vn -0.2906 -0.9568 -0.0014
vn -0.8528 -0.4931 0.1719
vn 0.4710 -0.8633 -0.1812
vn 0.9289 -0.2743 -0.2489
vn -0.2047 -0.8961 0.3939
vn -0.8166 -0.4674 0.3385
vn 0.5568 -0.8026 0.2140
vn 0.9651 -0.2487 -0.0822
vn -0.1537 -0.6671 0.7289
vn -0.7951 -0.3709 0.4798
vn 0.6078 -0.5736 0.5491
vn 0.9866 -0.1521 0.0590
vn -0.1477 -0.3152 0.9375
vn -0.7926 -0.2226 0.5677
vn 0.6139 -0.2217 0.7576
vn 0.9891 -0.0038 0.1469
vn -0.1878 0.0898 0.9781
vn -0.8095 -0.0518 0.5848
vn 0.5737 0.1833 0.7983
vn 0.9722 0.1670 0.1641
vn -0.2662 0.4678 0.8428
vn -0.8426 0.1075 0.5278
vn 0.4954 0.5613 0.6630
vn 0.9392 0.3263 0.1070
vn -0.3672 0.7439 0.5584
vn -0.8852 0.2239 0.4079
vn 0.3943 0.8374 0.3786
vn 0.8966 0.4427 -0.0129
vn -0.4710 0.8633 0.1812
vn -0.9289 0.2743 0.2489
vn 0.2906 0.9568 0.0014
vn 0.8528 0.4931 -0.1719
vn -0.9664 -0.1187 0.2282
vn 0.7246 -0.0000 -0.6891
vn -0.5862 -0.4259 0.6891
vn -0.5862 -0.4259 -0.6891
vn 0.6613 0.7053 0.2555
vn 0.4664 0.8469 0.2555
vn 0.6673 0.6992 -0.2567
vn 0.4587 0.8507 -0.2567
vn 0.9496 0.1819 0.2555
vn 0.8751 0.4110 0.2555
vn 0.9508 0.1734 -0.2567
vn 0.8711 0.4186 -0.2567
vn 0.8751 -0.4110 0.2555
vn 0.9496 -0.1819 0.2555
vn 0.8711 -0.4186 -0.2567
vn 0.9508 -0.1734 -0.2567
vn 0.4664 -0.8469 0.2555
vn 0.6613 -0.7053 0.2555
vn 0.4587 -0.8507 -0.2567
vn 0.6673 -0.6992 -0.2567
vn -0.1205 -0.9593 0.2555
vn 0.1205 -0.9593 0.2555
vn -0.1289 -0.9579 -0.2567
vn 0.1289 -0.9579 -0.2567
vn -0.6613 -0.7053 0.2555
vn -0.4664 -0.8469 0.2555
vn -0.6673 -0.6992 -0.2567
vn -0.4587 -0.8507 -0.2567
vn -0.9496 -0.1819 0.2555
vn -0.8751 -0.4110 0.2555
vn -0.9508 -0.1734 -0.2567
vn -0.8711 -0.4186 -0.2567
vn -0.8751 0.4110 0.2555
vn -0.9496 0.1819 0.2555
vn -0.8711 0.4186 -0.2567
vn -0.9508 0.1734 -0.2567
vn -0.4664 0.8469 0.2555
vn -0.6613 0.7053 0.2555
vn -0.4587 0.8507 -0.2567
vn -0.6673 0.6992 -0.2567
vn 0.1205 0.9593 0.2555
vn -0.1205 0.9593 0.2555
vn 0.1289 0.9579 -0.2567
vn -0.1289 0.9579 -0.2567
vn -0.3774 0.1592 0.9123
vn -0.9301 -0.0111 0.3670
vn -0.4964 -0.8100 0.3122
vn -0.4047 -0.0632 -0.9122
vn -0.8998 0.2357 -0.3670
vn -0.3127 0.6866 -0.6563
vn 0.3672 0.7439 -0.5584
vn 0.8426 0.1075 -0.5278
vn 0.1537 -0.6671 -0.7289
vn 0.8966 -0.4427 -0.0128
vn 0.8819 0.3816 0.2767
vn 0.4047 -0.0632 0.9122
vn -0.3306 -0.5410 0.7733
vn -0.8998 -0.2357 -0.3670
vn 0.9092 0.1592 -0.3846
vn 0.1537 0.6671 -0.7290
vn 0.8426 -0.1075 -0.5278
vn 0.3672 -0.7439 -0.5584
vn -0.8425 0.1075 0.5278
s 0
f 83//1 2//1 80//1
f 17//2 20//2 14//2
f 23//3 26//3 20//3
f 29//4 32//4 26//4
f 35//5 38//5 32//5
f 41//6 44//6 38//6
f 47//7 50//7 44//7
f 53//8 56//8 50//8
f 59//9 62//9 56//9
f 65//10 68//10 62//10
f 71//11 74//11 68//11
f 77//12 80//12 74//12
f 11//13 14//13 8//13
f 76//14 52//14 28//14
f 5//15 8//15 2//15
f 8//16 3//16 2//16
f 3//17 7//17 1//17
f 5//18 12//18 11//18
f 6//19 10//19 12//19
f 14//20 9//20 8//20
f 15//21 7//21 9//21
f 17//22 12//22 18//22
f 12//23 16//23 18//23
f 20//24 15//24 14//24
f 21//25 13//25 15//25
f 23//26 18//26 24//26
f 24//27 16//27 22//27
f 26//28 21//28 20//28
f 27//29 19//29 21//29
f 23//30 30//30 29//30
f 24//31 28//31 30//31
f 26//32 33//32 27//32
f 27//33 31//33 25//33
f 29//34 36//34 35//34
f 30//35 34//35 36//35
f 32//36 39//36 33//36
f 39//37 31//37 33//37
f 35//38 42//38 41//38
f 36//39 40//39 42//39
f 44//40 39//40 38//40
f 45//41 37//41 39//41
f 41//42 48//42 47//42
f 48//43 40//43 46//43
f 50//44 45//44 44//44
f 45//45 49//45 43//45
f 47//46 54//46 53//46
f 48//47 52//47 54//47
f 56//48 51//48 50//48
f 57//49 49//49 51//49
f 59//50 54//50 60//50
f 54//51 58//51 60//51
f 62//52 57//52 56//52
f 63//53 55//53 57//53
f 65//54 60//54 66//54
f 66//55 58//55 64//55
f 68//56 63//56 62//56
f 69//57 61//57 63//57
f 65//58 72//58 71//58
f 66//59 70//59 72//59
f 68//60 75//60 69//60
f 69//61 73//61 67//61
f 71//62 78//62 77//62
f 72//63 76//63 78//63
f 74//64 81//64 75//64
f 81//65 73//65 75//65
f 77//66 84//66 83//66
f 78//67 82//67 84//67
f 2//68 81//68 80//68
f 3//69 79//69 81//69
f 83//70 6//70 5//70
f 6//71 82//71 4//71
f 19//72 43//72 67//72
f 245//73 87//73 91//73
f 109//74 122//74 125//74
f 99//75 114//75 118//75
f 90//76 112//76 94//76
f 86//77 101//77 119//77
f 94//78 114//78 98//78
f 86//79 255//79 101//79
f 247//80 97//80 251//80
f 88//81 85//81 104//81
f 252//82 97//82 102//82
f 243//83 95//83 247//83
f 240//84 85//84 88//84
f 116//85 131//85 135//85
f 104//86 85//86 121//86
f 86//87 119//87 136//87
f 111//88 131//88 115//88
f 107//89 129//89 111//89
f 126//90 139//90 142//90
f 121//91 85//91 138//91
f 86//92 136//92 153//92
f 132//93 146//93 148//93
f 124//94 146//94 128//94
f 143//95 156//95 159//95
f 133//96 148//96 152//96
f 86//97 153//97 170//97
f 145//98 165//98 149//98
f 141//99 163//99 145//99
f 160//100 173//100 176//100
f 150//101 165//101 169//101
f 138//102 85//102 155//102
f 86//103 170//103 187//103
f 162//104 182//104 166//104
f 162//105 176//105 180//105
f 177//106 190//106 193//106
f 167//107 182//107 186//107
f 155//108 85//108 172//108
f 86//109 187//109 204//109
f 183//110 197//110 199//110
f 175//111 197//111 179//111
f 189//112 85//112 206//112
f 184//113 199//113 203//113
f 172//114 85//114 189//114
f 86//115 204//115 221//115
f 196//116 216//116 200//116
f 194//117 207//117 210//117
f 211//118 224//118 227//118
f 201//119 216//119 220//119
f 192//120 214//120 196//120
f 217//121 231//121 233//121
f 209//122 231//122 213//122
f 228//123 241//123 244//123
f 218//124 233//124 237//124
f 206//125 85//125 223//125
f 86//126 221//126 238//126
f 230//127 244//127 248//127
f 235//128 250//128 254//128
f 223//129 85//129 240//129
f 86//130 238//130 255//130
f 234//131 248//131 250//131
f 90//132 93//132 92//132
f 93//133 91//133 92//133
f 97//134 100//134 99//134
f 100//135 98//135 99//135
f 107//136 110//136 109//136
f 110//137 108//137 109//137
f 114//138 117//138 116//138
f 117//139 115//139 116//139
f 124//140 127//140 126//140
f 127//141 125//141 126//141
f 131//142 134//142 133//142
f 134//143 132//143 133//143
f 141//144 144//144 143//144
f 144//145 142//145 143//145
f 148//146 151//146 150//146
f 151//147 149//147 150//147
f 158//148 161//148 160//148
f 161//149 159//149 160//149
f 165//150 168//150 167//150
f 168//151 166//151 167//151
f 175//152 178//152 177//152
f 178//153 176//153 177//153
f 182//154 185//154 184//154
f 185//155 183//155 184//155
f 192//156 195//156 194//156
f 195//157 193//157 194//157
f 199//158 202//158 201//158
f 202//159 200//159 201//159
f 209//160 212//160 211//160
f 212//161 210//161 211//161
f 216//162 219//162 218//162
f 219//163 217//163 218//163
f 226//164 229//164 228//164
f 229//165 227//165 228//165
f 233//166 236//166 235//166
f 236//167 234//167 235//167
f 243//168 246//168 245//168
f 246//169 244//169 245//169
f 250//170 253//170 252//170
f 253//171 251//171 252//171
f 94//172 93//172 90//172
f 93//173 95//173 91//173
f 94//174 100//174 96//174
f 100//175 95//175 96//175
f 111//176 110//176 107//176
f 110//177 112//177 108//177
f 111//178 117//178 113//178
f 117//179 112//179 113//179
f 118//180 103//180 102//180
f 103//181 119//181 101//181
f 88//182 106//182 89//182
f 106//183 87//183 89//183
f 128//184 127//184 124//184
f 127//185 129//185 125//185
f 128//186 134//186 130//186
f 134//187 129//187 130//187
f 121//188 106//188 104//188
f 123//189 105//189 106//189
f 136//190 120//190 137//190
f 120//191 135//191 137//191
f 145//192 144//192 141//192
f 144//193 146//193 142//193
f 145//194 151//194 147//194
f 151//195 146//195 147//195
f 138//196 123//196 121//196
f 123//197 139//197 122//197
f 136//198 154//198 153//198
f 137//199 152//199 154//199
f 162//200 161//200 158//200
f 161//201 163//201 159//201
f 162//202 168//202 164//202
f 168//203 163//203 164//203
f 170//204 154//204 171//204
f 171//205 152//205 169//205
f 139//206 157//206 156//206
f 140//207 155//207 157//207
f 179//208 178//208 175//208
f 178//209 180//209 176//209
f 179//210 185//210 181//210
f 185//211 180//211 181//211
f 170//212 188//212 187//212
f 188//213 169//213 186//213
f 173//214 157//214 174//214
f 157//215 172//215 174//215
f 196//216 195//216 192//216
f 195//217 197//217 193//217
f 196//218 202//218 198//218
f 202//219 197//219 198//219
f 187//220 205//220 204//220
f 188//221 203//221 205//221
f 173//222 191//222 190//222
f 174//223 189//223 191//223
f 213//224 212//224 209//224
f 212//225 214//225 210//225
f 213//226 219//226 215//226
f 219//227 214//227 215//227
f 204//228 222//228 221//228
f 205//229 220//229 222//229
f 190//230 208//230 207//230
f 191//231 206//231 208//231
f 230//232 229//232 226//232
f 229//233 231//233 227//233
f 230//234 236//234 232//234
f 236//235 231//235 232//235
f 207//236 225//236 224//236
f 225//237 206//237 223//237
f 237//238 222//238 220//238
f 239//239 221//239 222//239
f 247//240 246//240 243//240
f 246//241 248//241 244//241
f 247//242 253//242 249//242
f 253//243 248//243 249//243
f 224//244 242//244 241//244
f 242//245 223//245 240//245
f 254//246 239//246 237//246
f 256//247 238//247 239//247
f 241//248 89//248 87//248
f 89//249 240//249 88//249
f 102//250 256//250 254//250
f 256//251 101//251 255//251
f 92//252 105//252 108//252
f 339//253 258//253 336//253
f 273//254 276//254 270//254
f 279//255 282//255 276//255
f 282//256 291//256 288//256
f 291//257 294//257 288//257
f 297//258 300//258 294//258
f 303//259 306//259 300//259
f 309//260 312//260 306//260
f 315//261 318//261 312//261
f 321//262 324//262 318//262
f 327//263 330//263 324//263
f 333//264 336//264 330//264
f 267//265 270//265 264//265
f 332//72 308//72 284//72
f 261//266 264//266 258//266
f 258//267 265//267 259//267
f 265//268 257//268 259//268
f 267//269 262//269 268//269
f 268//270 260//270 266//270
f 270//271 265//271 264//271
f 271//272 263//272 265//272
f 267//273 274//273 273//273
f 274//274 266//274 272//274
f 270//275 277//275 271//275
f 277//276 269//276 271//276
f 279//277 274//277 280//277
f 280//278 272//278 278//278
f 282//279 277//279 276//279
f 283//280 275//280 277//280
f 279//281 286//281 285//281
f 280//282 284//282 286//282
f 282//283 289//283 283//283
f 289//284 281//284 283//284
f 291//285 286//285 292//285
f 286//286 290//286 292//286
f 294//287 289//287 288//287
f 289//288 293//288 287//288
f 291//289 298//289 297//289
f 298//290 290//290 296//290
f 294//291 301//291 295//291
f 295//292 299//292 293//292
f 297//293 304//293 303//293
f 298//294 302//294 304//294
f 306//295 301//295 300//295
f 301//296 305//296 299//296
f 303//297 310//297 309//297
f 304//298 308//298 310//298
f 306//299 313//299 307//299
f 307//300 311//300 305//300
f 315//301 310//301 316//301
f 310//302 314//302 316//302
f 318//303 313//303 312//303
f 313//304 317//304 311//304
f 315//305 322//305 321//305
f 316//306 320//306 322//306
f 318//307 325//307 319//307
f 325//308 317//308 319//308
f 321//309 328//309 327//309
f 328//310 320//310 326//310
f 330//311 325//311 324//311
f 331//312 323//312 325//312
f 333//313 328//313 334//313
f 328//314 332//314 334//314
f 336//315 331//315 330//315
f 337//316 329//316 331//316
f 333//317 340//317 339//317
f 334//318 338//318 340//318
f 258//319 337//319 336//319
f 259//320 335//320 337//320
f 339//321 262//321 261//321
f 340//322 260//322 262//322
f 275//14 299//14 323//14
f 423//323 342//323 420//323
f 357//324 360//324 354//324
f 360//325 369//325 366//325
f 366//326 375//326 372//326
f 375//327 378//327 372//327
f 378//328 387//328 384//328
f 387//329 390//329 384//329
f 393//330 396//330 390//330
f 399//331 402//331 396//331
f 405//332 408//332 402//332
f 411//333 414//333 408//333
f 417//334 420//334 414//334
f 348//335 357//335 354//335
f 416//336 392//336 368//336
f 345//337 348//337 342//337
f 342//338 349//338 343//338
f 349//339 341//339 343//339
f 351//340 346//340 352//340
f 346//341 350//341 352//341
f 354//342 349//342 348//342
f 355//343 347//343 349//343
f 351//344 358//344 357//344
f 352//345 356//345 358//345
f 360//346 355//346 354//346
f 361//347 353//347 355//347
f 363//348 358//348 364//348
f 364//349 356//349 362//349
f 366//350 361//350 360//350
f 367//351 359//351 361//351
f 363//352 370//352 369//352
f 370//353 362//353 368//353
f 366//354 373//354 367//354
f 373//355 365//355 367//355
f 369//356 376//356 375//356
f 370//357 374//357 376//357
f 378//358 373//358 372//358
f 373//359 377//359 371//359
f 375//360 382//360 381//360
f 376//361 380//361 382//361
f 378//362 385//362 379//362
f 385//363 377//363 379//363
f 387//364 382//364 388//364
f 382//365 386//365 388//365
f 384//366 391//366 385//366
f 385//367 389//367 383//367
f 387//368 394//368 393//368
f 388//369 392//369 394//369
f 396//370 391//370 390//370
f 397//371 389//371 391//371
f 399//372 394//372 400//372
f 400//373 392//373 398//373
f 402//374 397//374 396//374
f 403//375 395//375 397//375
f 399//376 406//376 405//376
f 406//377 398//377 404//377
f 408//378 403//378 402//378
f 403//379 407//379 401//379
f 405//380 412//380 411//380
f 406//381 410//381 412//381
f 408//382 415//382 409//382
f 409//383 413//383 407//383
f 411//384 418//384 417//384
f 412//385 416//385 418//385
f 420//386 415//386 414//386
f 415//387 419//387 413//387
f 423//388 418//388 424//388
f 424//389 416//389 422//389
f 342//390 421//390 420//390
f 421//391 341//391 419//391
f 345//392 424//392 346//392
f 424//393 344//393 346//393
f 359//394 383//394 407//394
f 504//395 429//395 426//395
f 438//396 447//396 444//396
f 447//397 450//397 444//397
f 450//398 459//398 456//398
f 459//399 462//399 456//399
f 465//400 468//400 462//400
f 471//401 474//401 468//401
f 477//402 480//402 474//402
f 480//403 489//403 486//403
f 489//404 492//404 486//404
f 492//405 501//405 498//405
f 501//406 504//406 498//406
f 435//407 438//407 432//407
f 500//408 476//408 452//408
f 429//409 432//409 426//409
f 432//410 427//410 426//410
f 427//411 431//411 425//411
f 429//412 436//412 435//412
f 436//413 428//413 434//413
f 438//414 433//414 432//414
f 433//415 437//415 431//415
f 435//416 442//416 441//416
f 442//417 434//417 440//417
f 444//418 439//418 438//418
f 439//419 443//419 437//419
f 441//420 448//420 447//420
f 448//421 440//421 446//421
f 450//422 445//422 444//422
f 445//423 449//423 443//423
f 453//424 448//424 454//424
f 454//425 446//425 452//425
f 456//426 451//426 450//426
f 451//427 455//427 449//427
f 453//428 460//428 459//428
f 460//429 452//429 458//429
f 456//430 463//430 457//430
f 463//431 455//431 457//431
f 465//432 460//432 466//432
f 466//433 458//433 464//433
f 468//434 463//434 462//434
f 469//435 461//435 463//435
f 465//436 472//436 471//436
f 466//437 470//437 472//437
f 468//438 475//438 469//438
f 475//439 467//439 469//439
f 471//440 478//440 477//440
f 472//441 476//441 478//441
f 480//442 475//442 474//442
f 481//443 473//443 475//443
f 477//444 484//444 483//444
f 478//445 482//445 484//445
f 480//446 487//446 481//446
f 487//447 479//447 481//447
f 483//448 490//448 489//448
f 490//449 482//449 488//449
f 486//450 493//450 487//450
f 493//451 485//451 487//451
f 495//452 490//452 496//452
f 496//453 488//453 494//453
f 492//454 499//454 493//454
f 493//455 497//455 491//455
f 495//456 502//456 501//456
f 496//457 500//457 502//457
f 504//458 499//458 498//458
f 505//459 497//459 499//459
f 501//460 508//460 507//460
f 508//461 500//461 506//461
f 504//462 427//462 505//462
f 427//463 503//463 505//463
f 429//464 508//464 430//464
f 508//465 428//465 430//465
f 443//466 467//466 491//466
f 591//467 510//467 588//467
f 525//468 528//468 522//468
f 531//469 534//469 528//469
f 537//470 540//470 534//470
f 543//471 546//471 540//471
f 546//472 555//472 552//472
f 552//473 561//473 558//473
f 558//474 567//474 564//474
f 564//475 573//475 570//475
f 570//476 579//476 576//476
f 579//477 582//477 576//477
f 585//478 588//478 582//478
f 519//479 522//479 516//479
f 584//466 560//466 536//466
f 513//480 516//480 510//480
f 510//481 517//481 511//481
f 517//482 509//482 511//482
f 513//483 520//483 519//483
f 514//484 518//484 520//484
f 522//485 517//485 516//485
f 523//486 515//486 517//486
f 525//487 520//487 526//487
f 520//488 524//488 526//488
f 528//489 523//489 522//489
f 529//490 521//490 523//490
f 531//491 526//491 532//491
f 532//492 524//492 530//492
f 534//493 529//493 528//493
f 535//494 527//494 529//494
f 531//495 538//495 537//495
f 532//496 536//496 538//496
f 534//497 541//497 535//497
f 535//498 539//498 533//498
f 537//499 544//499 543//499
f 538//500 542//500 544//500
f 540//501 547//501 541//501
f 547//502 539//502 541//502
f 543//503 550//503 549//503
f 550//504 542//504 548//504
f 552//505 547//505 546//505
f 553//506 545//506 547//506
f 555//507 550//507 556//507
f 550//508 554//508 556//508
f 558//509 553//509 552//509
f 559//510 551//510 553//510
f 555//511 562//511 561//511
f 556//512 560//512 562//512
f 558//513 565//513 559//513
f 565//514 557//514 559//514
f 561//515 568//515 567//515
f 562//516 566//516 568//516
f 570//517 565//517 564//517
f 571//518 563//518 565//518
f 573//519 568//519 574//519
f 574//520 566//520 572//520
f 576//521 571//521 570//521
f 577//522 569//522 571//522
f 579//523 574//523 580//523
f 574//524 578//524 580//524
f 582//525 577//525 576//525
f 577//526 581//526 575//526
f 579//527 586//527 585//527
f 586//528 578//528 584//528
f 582//529 589//529 583//529
f 589//530 581//530 583//530
f 591//531 586//531 592//531
f 592//532 584//532 590//532
f 510//533 589//533 588//533
f 511//534 587//534 589//534
f 591//535 514//535 513//535
f 592//536 512//536 514//536
f 527//408 551//408 575//408
f 672//537 597//537 594//537
f 609//538 612//538 606//538
f 615//539 618//539 612//539
f 621//540 624//540 618//540
f 627//541 630//541 624//541
f 630//542 639//542 636//542
f 639//543 642//543 636//543
f 645//544 648//544 642//544
f 651//545 654//545 648//545
f 657//546 660//546 654//546
f 663//547 666//547 660//547
f 669//548 672//548 666//548
f 603//549 606//549 600//549
f 668//550 644//550 620//550
f 597//551 600//551 594//551
f 600//552 595//552 594//552
f 595//553 599//553 593//553
f 597//554 604//554 603//554
f 598//555 602//555 604//555
f 606//556 601//556 600//556
f 601//557 605//557 599//557
f 603//558 610//558 609//558
f 604//559 608//559 610//559
f 606//560 613//560 607//560
f 613//561 605//561 607//561
f 615//562 610//562 616//562
f 610//563 614//563 616//563
f 618//564 613//564 612//564
f 619//565 611//565 613//565
f 615//566 622//566 621//566
f 616//567 620//567 622//567
f 618//568 625//568 619//568
f 625//569 617//569 619//569
f 621//570 628//570 627//570
f 622//571 626//571 628//571
f 630//572 625//572 624//572
f 631//573 623//573 625//573
f 633//574 628//574 634//574
f 634//575 626//575 632//575
f 636//576 631//576 630//576
f 637//577 629//577 631//577
f 639//578 634//578 640//578
f 634//579 638//579 640//579
f 636//580 643//580 637//580
f 637//581 641//581 635//581
f 645//582 640//582 646//582
f 646//583 638//583 644//583
f 642//584 649//584 643//584
f 649//585 641//585 643//585
f 645//586 652//586 651//586
f 646//587 650//587 652//587
f 654//588 649//588 648//588
f 649//589 653//589 647//589
f 657//590 652//590 658//590
f 658//591 650//591 656//591
f 654//592 661//592 655//592
f 655//593 659//593 653//593
f 657//594 664//594 663//594
f 664//595 656//595 662//595
f 660//596 667//596 661//596
f 667//597 659//597 661//597
f 663//598 670//598 669//598
f 664//599 668//599 670//599
f 672//600 667//600 666//600
f 673//601 665//601 667//601
f 669//602 676//602 675//602
f 670//603 674//603 676//603
f 672//604 595//604 673//604
f 673//605 593//605 671//605
f 675//606 598//606 597//606
f 676//607 596//607 598//607
f 611//608 635//608 659//608
f 83//1 5//1 2//1
f 17//2 23//2 20//2
f 23//3 29//3 26//3
f 29//4 35//4 32//4
f 35//5 41//5 38//5
f 41//6 47//6 44//6
f 47//7 53//7 50//7
f 53//8 59//8 56//8
f 59//9 65//9 62//9
f 65//10 71//10 68//10
f 71//11 77//11 74//11
f 77//12 83//12 80//12
f 11//13 17//13 14//13
f 16//14 10//14 4//14
f 4//14 82//14 76//14
f 76//14 70//14 64//14
f 64//14 58//14 52//14
f 52//14 46//14 40//14
f 40//14 34//14 28//14
f 28//14 22//14 16//14
f 16//14 4//14 76//14
f 76//14 64//14 52//14
f 52//14 40//14 28//14
f 28//14 16//14 76//14
f 5//15 11//15 8//15
f 8//16 9//16 3//16
f 3//17 9//17 7//17
f 5//18 6//18 12//18
f 6//19 4//19 10//19
f 14//20 15//20 9//20
f 15//21 13//21 7//21
f 17//22 11//22 12//22
f 12//23 10//23 16//23
f 20//24 21//24 15//24
f 21//25 19//25 13//25
f 23//26 17//26 18//26
f 24//27 18//27 16//27
f 26//28 27//28 21//28
f 27//29 25//29 19//29
f 23//30 24//30 30//30
f 24//31 22//31 28//31
f 26//32 32//32 33//32
f 27//33 33//33 31//33
f 29//34 30//34 36//34
f 30//35 28//35 34//35
f 32//36 38//36 39//36
f 39//37 37//37 31//37
f 35//38 36//38 42//38
f 36//39 34//39 40//39
f 44//40 45//40 39//40
f 45//41 43//41 37//41
f 41//42 42//42 48//42
f 48//43 42//43 40//43
f 50//44 51//44 45//44
f 45//45 51//45 49//45
f 47//46 48//46 54//46
f 48//47 46//47 52//47
f 56//48 57//48 51//48
f 57//49 55//49 49//49
f 59//50 53//50 54//50
f 54//51 52//51 58//51
f 62//52 63//52 57//52
f 63//53 61//53 55//53
f 65//54 59//54 60//54
f 66//55 60//55 58//55
f 68//56 69//56 63//56
f 69//57 67//57 61//57
f 65//58 66//58 72//58
f 66//59 64//59 70//59
f 68//60 74//60 75//60
f 69//61 75//61 73//61
f 71//62 72//62 78//62
f 72//63 70//63 76//63
f 74//64 80//64 81//64
f 81//65 79//65 73//65
f 77//66 78//66 84//66
f 78//67 76//67 82//67
f 2//68 3//68 81//68
f 3//69 1//69 79//69
f 83//70 84//70 6//70
f 6//71 84//71 82//71
f 79//72 1//72 7//72
f 7//72 13//72 19//72
f 19//72 25//72 31//72
f 31//72 37//72 43//72
f 43//72 49//72 55//72
f 55//72 61//72 67//72
f 67//72 73//72 79//72
f 79//72 7//72 19//72
f 19//72 31//72 43//72
f 43//72 55//72 67//72
f 67//72 79//72 19//72
f 91//73 243//73 245//73
f 245//73 241//73 87//73
f 87//73 92//73 91//73
f 125//74 107//74 109//74
f 109//74 105//74 122//74
f 122//74 126//74 125//74
f 118//75 102//75 99//75
f 99//75 98//75 114//75
f 114//75 116//75 118//75
f 90//76 108//76 112//76
f 94//78 112//78 114//78
f 247//80 95//80 97//80
f 102//82 254//82 252//82
f 252//82 251//82 97//82
f 97//82 99//82 102//82
f 243//83 91//83 95//83
f 135//85 118//85 116//85
f 116//609 115//609 131//609
f 131//85 133//85 135//85
f 111//88 129//88 131//88
f 107//89 125//89 129//89
f 142//90 124//90 126//90
f 126//90 122//90 139//90
f 139//90 143//90 142//90
f 132//93 128//93 146//93
f 124//94 142//94 146//94
f 159//95 141//95 143//95
f 143//95 139//95 156//95
f 156//95 160//95 159//95
f 152//96 135//96 133//96
f 133//96 132//96 148//96
f 148//96 150//96 152//96
f 145//98 163//98 165//98
f 141//99 159//99 163//99
f 176//100 158//100 160//100
f 160//100 156//100 173//100
f 173//100 177//100 176//100
f 169//101 152//101 150//101
f 150//101 149//101 165//101
f 165//101 167//101 169//101
f 162//104 180//104 182//104
f 162//105 158//105 176//105
f 193//610 175//610 177//610
f 177//106 173//106 190//106
f 190//106 194//106 193//106
f 186//107 169//107 167//107
f 167//107 166//107 182//107
f 182//107 184//107 186//107
f 183//110 179//110 197//110
f 175//111 193//111 197//111
f 203//113 186//113 184//113
f 184//611 183//611 199//611
f 199//113 201//113 203//113
f 196//116 214//116 216//116
f 210//117 192//117 194//117
f 194//117 190//117 207//117
f 207//117 211//117 210//117
f 227//118 209//118 211//118
f 211//118 207//118 224//118
f 224//118 228//118 227//118
f 220//119 203//119 201//119
f 201//119 200//119 216//119
f 216//119 218//119 220//119
f 192//120 210//120 214//120
f 217//121 213//121 231//121
f 209//122 227//122 231//122
f 244//123 226//123 228//123
f 228//123 224//123 241//123
f 241//123 245//123 244//123
f 237//124 220//124 218//124
f 218//124 217//124 233//124
f 233//124 235//124 237//124
f 230//127 226//127 244//127
f 254//128 237//128 235//128
f 235//128 234//128 250//128
f 250//128 252//128 254//128
f 234//131 230//131 248//131
f 94//612 96//612 93//612
f 93//613 96//613 95//613
f 94//614 98//614 100//614
f 100//615 97//615 95//615
f 111//616 113//616 110//616
f 110//617 113//617 112//617
f 111//618 115//618 117//618
f 117//619 114//619 112//619
f 118//180 120//180 103//180
f 103//181 120//181 119//181
f 88//182 104//182 106//182
f 106//183 105//183 87//183
f 128//620 130//620 127//620
f 127//621 130//621 129//621
f 128//622 132//622 134//622
f 134//623 131//623 129//623
f 121//188 123//188 106//188
f 123//189 122//189 105//189
f 136//190 119//190 120//190
f 120//191 118//191 135//191
f 145//624 147//624 144//624
f 144//625 147//625 146//625
f 145//626 149//626 151//626
f 151//627 148//627 146//627
f 138//196 140//196 123//196
f 123//197 140//197 139//197
f 136//198 137//198 154//198
f 137//199 135//199 152//199
f 162//628 164//628 161//628
f 161//629 164//629 163//629
f 162//630 166//630 168//630
f 168//631 165//631 163//631
f 170//204 153//204 154//204
f 171//205 154//205 152//205
f 139//206 140//206 157//206
f 140//207 138//207 155//207
f 179//632 181//632 178//632
f 178//633 181//633 180//633
f 179//634 183//634 185//634
f 185//635 182//635 180//635
f 170//212 171//212 188//212
f 188//213 171//213 169//213
f 173//214 156//214 157//214
f 157//215 155//215 172//215
f 196//636 198//636 195//636
f 195//637 198//637 197//637
f 196//638 200//638 202//638
f 202//639 199//639 197//639
f 187//220 188//220 205//220
f 188//221 186//221 203//221
f 173//222 174//222 191//222
f 174//223 172//223 189//223
f 213//640 215//640 212//640
f 212//641 215//641 214//641
f 213//642 217//642 219//642
f 219//643 216//643 214//643
f 204//228 205//228 222//228
f 205//229 203//229 220//229
f 190//230 191//230 208//230
f 191//231 189//231 206//231
f 230//644 232//644 229//644
f 229//645 232//645 231//645
f 230//646 234//646 236//646
f 236//647 233//647 231//647
f 207//236 208//236 225//236
f 225//237 208//237 206//237
f 237//238 239//238 222//238
f 239//239 238//239 221//239
f 247//648 249//648 246//648
f 246//649 249//649 248//649
f 247//650 251//650 253//650
f 253//651 250//651 248//651
f 224//244 225//244 242//244
f 242//245 225//245 223//245
f 254//246 256//246 239//246
f 256//247 255//247 238//247
f 241//248 242//248 89//248
f 89//249 242//249 240//249
f 102//250 103//250 256//250
f 256//251 103//251 101//251
f 108//252 90//252 92//252
f 92//252 87//252 105//252
f 105//252 109//252 108//252
f 339//253 261//253 258//253
f 273//254 279//254 276//254
f 279//255 285//255 282//255
f 282//256 285//256 291//256
f 291//257 297//257 294//257
f 297//258 303//258 300//258
f 303//259 309//259 306//259
f 309//260 315//260 312//260
f 315//261 321//261 318//261
f 321//262 327//262 324//262
f 327//263 333//263 330//263
f 333//264 339//264 336//264
f 267//265 273//265 270//265
f 272//72 266//72 260//72
f 260//72 338//72 332//72
f 332//72 326//72 320//72
f 320//72 314//72 308//72
f 308//72 302//72 296//72
f 296//72 290//72 284//72
f 284//72 278//72 272//72
f 272//72 260//72 332//72
f 332//72 320//72 308//72
f 308//72 296//72 284//72
f 284//72 272//72 332//72
f 261//266 267//266 264//266
f 258//267 264//267 265//267
f 265//268 263//268 257//268
f 267//269 261//269 262//269
f 268//270 262//270 260//270
f 270//271 271//271 265//271
f 271//272 269//272 263//272
f 267//273 268//273 274//273
f 274//274 268//274 266//274
f 270//275 276//275 277//275
f 277//276 275//276 269//276
f 279//277 273//277 274//277
f 280//278 274//278 272//278
f 282//279 283//279 277//279
f 283//280 281//280 275//280
f 279//652 280//652 286//652
f 280//282 278//282 284//282
f 282//283 288//283 289//283
f 289//284 287//284 281//284
f 291//285 285//285 286//285
f 286//653 284//653 290//653
f 294//287 295//287 289//287
f 289//288 295//288 293//288
f 291//289 292//289 298//289
f 298//290 292//290 290//290
f 294//291 300//291 301//291
f 295//292 301//292 299//292
f 297//654 298//654 304//654
f 298//294 296//294 302//294
f 306//295 307//295 301//295
f 301//296 307//296 305//296
f 303//297 304//297 310//297
f 304//298 302//298 308//298
f 306//299 312//299 313//299
f 307//300 313//300 311//300
f 315//301 309//301 310//301
f 310//302 308//302 314//302
f 318//303 319//303 313//303
f 313//304 319//304 317//304
f 315//305 316//305 322//305
f 316//306 314//306 320//306
f 318//307 324//307 325//307
f 325//308 323//308 317//308
f 321//655 322//655 328//655
f 328//310 322//310 320//310
f 330//311 331//311 325//311
f 331//312 329//312 323//312
f 333//313 327//313 328//313
f 328//656 326//656 332//656
f 336//315 337//315 331//315
f 337//316 335//316 329//316
f 333//657 334//657 340//657
f 334//318 332//318 338//318
f 258//319 259//319 337//319
f 259//320 257//320 335//320
f 339//321 340//321 262//321
f 340//322 338//322 260//322
f 335//14 257//14 263//14
f 263//14 269//14 275//14
f 275//14 281//14 287//14
f 287//14 293//14 299//14
f 299//14 305//14 311//14
f 311//14 317//14 323//14
f 323//14 329//14 335//14
f 335//14 263//14 275//14
f 275//14 287//14 299//14
f 299//14 311//14 323//14
f 323//14 335//14 275//14
f 423//323 345//323 342//323
f 357//324 363//324 360//324
f 360//325 363//325 369//325
f 366//326 369//326 375//326
f 375//327 381//327 378//327
f 378//328 381//328 387//328
f 387//329 393//329 390//329
f 393//330 399//330 396//330
f 399//331 405//331 402//331
f 405//332 411//332 408//332
f 411//333 417//333 414//333
f 417//334 423//334 420//334
f 348//335 351//335 357//335
f 356//336 350//336 344//336
f 344//336 422//336 416//336
f 416//336 410//336 404//336
f 404//336 398//336 392//336
f 392//336 386//336 380//336
f 380//336 374//336 368//336
f 368//336 362//336 356//336
f 356//336 344//336 416//336
f 416//336 404//336 392//336
f 392//336 380//336 368//336
f 368//336 356//336 416//336
f 345//337 351//337 348//337
f 342//338 348//338 349//338
f 349//339 347//339 341//339
f 351//340 345//340 346//340
f 346//341 344//341 350//341
f 354//342 355//342 349//342
f 355//343 353//343 347//343
f 351//658 352//658 358//658
f 352//345 350//345 356//345
f 360//346 361//346 355//346
f 361//347 359//347 353//347
f 363//348 357//348 358//348
f 364//659 358//659 356//659
f 366//350 367//350 361//350
f 367//351 365//351 359//351
f 363//352 364//352 370//352
f 370//353 364//353 362//353
f 366//354 372//354 373//354
f 373//355 371//355 365//355
f 369//356 370//356 376//356
f 370//357 368//357 374//357
f 378//358 379//358 373//358
f 373//359 379//359 377//359
f 375//660 376//660 382//660
f 376//361 374//361 380//361
f 378//362 384//362 385//362
f 385//363 383//363 377//363
f 387//364 381//364 382//364
f 382//365 380//365 386//365
f 384//366 390//366 391//366
f 385//367 391//367 389//367
f 387//368 388//368 394//368
f 388//369 386//369 392//369
f 396//370 397//370 391//370
f 397//371 395//371 389//371
f 399//372 393//372 394//372
f 400//661 394//661 392//661
f 402//374 403//374 397//374
f 403//375 401//375 395//375
f 399//376 400//376 406//376
f 406//377 400//377 398//377
f 408//378 409//378 403//378
f 403//379 409//379 407//379
f 405//380 406//380 412//380
f 406//381 404//381 410//381
f 408//382 414//382 415//382
f 409//383 415//383 413//383
f 411//384 412//384 418//384
f 412//385 410//385 416//385
f 420//386 421//386 415//386
f 415//387 421//387 419//387
f 423//388 417//388 418//388
f 424//389 418//389 416//389
f 342//390 343//390 421//390
f 421//391 343//391 341//391
f 345//392 423//392 424//392
f 424//393 422//393 344//393
f 419//394 341//394 347//394
f 347//394 353//394 359//394
f 359//394 365//394 371//394
f 371//394 377//394 383//394
f 383//394 389//394 395//394
f 395//394 401//394 407//394
f 407//394 413//394 419//394
f 419//394 347//394 359//394
f 359//394 371//394 383//394
f 383//394 395//394 407//394
f 407//394 419//394 359//394
f 504//395 507//395 429//395
f 438//396 441//396 447//396
f 447//397 453//397 450//397
f 450//398 453//398 459//398
f 459//399 465//399 462//399
f 465//400 471//400 468//400
f 471//401 477//401 474//401
f 477//402 483//402 480//402
f 480//403 483//403 489//403
f 489//404 495//404 492//404
f 492//405 495//405 501//405
f 501//406 507//406 504//406
f 435//407 441//407 438//407
f 440//408 434//408 428//408
f 428//408 506//408 500//408
f 500//408 494//408 488//408
f 488//408 482//408 476//408
f 476//408 470//408 464//408
f 464//408 458//408 452//408
f 452//408 446//408 440//408
f 440//408 428//408 500//408
f 500//408 488//408 476//408
f 476//408 464//408 452//408
f 452//408 440//408 500//408
f 429//409 435//409 432//409
f 432//410 433//410 427//410
f 427//411 433//411 431//411
f 429//412 430//412 436//412
f 436//413 430//413 428//413
f 438//414 439//414 433//414
f 433//662 439//662 437//662
f 435//416 436//416 442//416
f 442//417 436//417 434//417
f 444//418 445//418 439//418
f 439//419 445//419 443//419
f 441//420 442//420 448//420
f 448//421 442//421 440//421
f 450//663 451//663 445//663
f 445//423 451//423 449//423
f 453//424 447//424 448//424
f 454//425 448//425 446//425
f 456//426 457//426 451//426
f 451//427 457//427 455//427
f 453//664 454//664 460//664
f 460//429 454//429 452//429
f 456//430 462//430 463//430
f 463//431 461//431 455//431
f 465//432 459//432 460//432
f 466//433 460//433 458//433
f 468//434 469//434 463//434
f 469//435 467//435 461//435
f 465//436 466//436 472//436
f 466//437 464//437 470//437
f 468//438 474//438 475//438
f 475//439 473//439 467//439
f 471//440 472//440 478//440
f 472//441 470//441 476//441
f 480//442 481//442 475//442
f 481//443 479//443 473//443
f 477//444 478//444 484//444
f 478//445 476//445 482//445
f 480//446 486//446 487//446
f 487//447 485//447 479//447
f 483//448 484//448 490//448
f 490//665 484//665 482//665
f 486//450 492//450 493//450
f 493//666 491//666 485//666
f 495//452 489//452 490//452
f 496//453 490//453 488//453
f 492//454 498//454 499//454
f 493//455 499//455 497//455
f 495//456 496//456 502//456
f 496//457 494//457 500//457
f 504//458 505//458 499//458
f 505//459 503//459 497//459
f 501//460 502//460 508//460
f 508//461 502//461 500//461
f 504//462 426//462 427//462
f 427//463 425//463 503//463
f 429//464 507//464 508//464
f 508//465 506//465 428//465
f 503//466 425//466 431//466
f 431//466 437//466 443//466
f 443//466 449//466 455//466
f 455//466 461//466 467//466
f 467//466 473//466 479//466
f 479//466 485//466 491//466
f 491//466 497//466 503//466
f 503//466 431//466 443//466
f 443//466 455//466 467//466
f 467//466 479//466 491//466
f 491//466 503//466 443//466
f 591//467 513//467 510//467
f 525//468 531//468 528//468
f 531//469 537//469 534//469
f 537//470 543//470 540//470
f 543//471 549//471 546//471
f 546//472 549//472 555//472
f 552//473 555//473 561//473
f 558//474 561//474 567//474
f 564//475 567//475 573//475
f 570//476 573//476 579//476
f 579//477 585//477 582//477
f 585//478 591//478 588//478
f 519//479 525//479 522//479
f 524//466 518//466 512//466
f 512//466 590//466 584//466
f 584//466 578//466 572//466
f 572//466 566//466 560//466
f 560//466 554//466 548//466
f 548//466 542//466 536//466
f 536//466 530//466 524//466
f 524//466 512//466 584//466
f 584//466 572//466 560//466
f 560//466 548//466 536//466
f 536//466 524//466 584//466
f 513//480 519//480 516//480
f 510//481 516//481 517//481
f 517//482 515//482 509//482
f 513//483 514//483 520//483
f 514//484 512//484 518//484
f 522//485 523//485 517//485
f 523//486 521//486 515//486
f 525//487 519//487 520//487
f 520//488 518//488 524//488
f 528//489 529//489 523//489
f 529//490 527//490 521//490
f 531//491 525//491 526//491
f 532//492 526//492 524//492
f 534//493 535//493 529//493
f 535//494 533//494 527//494
f 531//495 532//495 538//495
f 532//496 530//496 536//496
f 534//497 540//497 541//497
f 535//498 541//498 539//498
f 537//499 538//499 544//499
f 538//500 536//500 542//500
f 540//501 546//501 547//501
f 547//502 545//502 539//502
f 543//503 544//503 550//503
f 550//504 544//504 542//504
f 552//505 553//505 547//505
f 553//506 551//506 545//506
f 555//507 549//507 550//507
f 550//508 548//508 554//508
f 558//509 559//509 553//509
f 559//510 557//510 551//510
f 555//511 556//511 562//511
f 556//512 554//512 560//512
f 558//513 564//513 565//513
f 565//514 563//514 557//514
f 561//515 562//515 568//515
f 562//516 560//516 566//516
f 570//517 571//517 565//517
f 571//518 569//518 563//518
f 573//519 567//519 568//519
f 574//520 568//520 566//520
f 576//521 577//521 571//521
f 577//522 575//522 569//522
f 579//523 573//523 574//523
f 574//524 572//524 578//524
f 582//525 583//525 577//525
f 577//526 583//526 581//526
f 579//527 580//527 586//527
f 586//528 580//528 578//528
f 582//529 588//529 589//529
f 589//530 587//530 581//530
f 591//531 585//531 586//531
f 592//532 586//532 584//532
f 510//533 511//533 589//533
f 511//534 509//534 587//534
f 591//535 592//535 514//535
f 592//536 590//536 512//536
f 587//408 509//408 515//408
f 515//408 521//408 527//408
f 527//408 533//408 539//408
f 539//408 545//408 551//408
f 551//408 557//408 563//408
f 563//408 569//408 575//408
f 575//408 581//408 587//408
f 587//408 515//408 527//408
f 527//408 539//408 551//408
f 551//408 563//408 575//408
f 575//408 587//408 527//408
f 672//537 675//537 597//537
f 609//538 615//538 612//538
f 615//539 621//539 618//539
f 621//540 627//540 624//540
f 627//541 633//541 630//541
f 630//542 633//542 639//542
f 639//543 645//543 642//543
f 645//544 651//544 648//544
f 651//545 657//545 654//545
f 657//546 663//546 660//546
f 663//547 669//547 666//547
f 669//548 675//548 672//548
f 603//549 609//549 606//549
f 608//550 602//550 596//550
f 596//550 674//550 668//550
f 668//550 662//550 656//550
f 656//550 650//550 644//550
f 644//550 638//550 632//550
f 632//550 626//550 620//550
f 620//550 614//550 608//550
f 608//550 596//550 668//550
f 668//550 656//550 644//550
f 644//550 632//550 620//550
f 620//550 608//550 668//550
f 597//551 603//551 600//551
f 600//552 601//552 595//552
f 595//553 601//553 599//553
f 597//554 598//554 604//554
f 598//555 596//555 602//555
f 606//556 607//556 601//556
f 601//557 607//557 605//557
f 603//667 604//667 610//667
f 604//559 602//559 608//559
f 606//560 612//560 613//560
f 613//561 611//561 605//561
f 615//562 609//562 610//562
f 610//563 608//563 614//563
f 618//564 619//564 613//564
f 619//565 617//565 611//565
f 615//566 616//566 622//566
f 616//567 614//567 620//567
f 618//568 624//568 625//568
f 625//569 623//569 617//569
f 621//570 622//570 628//570
f 622//668 620//668 626//668
f 630//572 631//572 625//572
f 631//573 629//573 623//573
f 633//669 627//669 628//669
f 634//575 628//575 626//575
f 636//576 637//576 631//576
f 637//577 635//577 629//577
f 639//578 633//578 634//578
f 634//579 632//579 638//579
f 636//580 642//580 643//580
f 637//581 643//581 641//581
f 645//582 639//582 640//582
f 646//583 640//583 638//583
f 642//584 648//584 649//584
f 649//585 647//585 641//585
f 645//586 646//586 652//586
f 646//587 644//587 650//587
f 654//588 655//588 649//588
f 649//589 655//589 653//589
f 657//590 651//590 652//590
f 658//591 652//591 650//591
f 654//592 660//592 661//592
f 655//593 661//593 659//593
f 657//594 658//594 664//594
f 664//595 658//595 656//595
f 660//596 666//596 667//596
f 667//670 665//670 659//670
f 663//598 664//598 670//598
f 664//599 662//599 668//599
f 672//600 673//600 667//600
f 673//601 671//601 665//601
f 669//602 670//602 676//602
f 670//603 668//603 674//603
f 672//604 594//604 595//604
f 673//605 595//605 593//605
f 675//606 676//606 598//606
f 676//607 674//607 596//607
f 671//608 593//608 599//608
f 599//608 605//608 611//608
f 611//608 617//608 623//608
f 623//608 629//608 635//608
f 635//608 641//608 647//608
f 647//608 653//608 659//608
f 659//608 665//608 671//608
f 671//608 599//608 611//608
f 611//608 623//608 635//608
f 635//608 647//608 659//608
f 659//608 671//608 611//608
