# Blender 4.0.2
# www.blender.org
o Forceps_FX150
v 0.355280 0.995862 0.930983
v 0.355950 0.996395 0.931058
v 0.355507 0.996263 0.931035
v 0.373146 0.993669 0.930983
v 0.372625 0.994348 0.931058
v 0.373024 0.994113 0.931035
v 0.355264 0.995729 0.929675
v 0.355931 0.996235 0.929478
v 0.355488 0.996111 0.929537
v 0.373130 0.993535 0.929675
v 0.372605 0.994187 0.929478
v 0.373005 0.993960 0.929537
v 0.355180 0.995046 0.928555
v 0.355829 0.995409 0.928124
v 0.355392 0.995328 0.928255
v 0.373046 0.992852 0.928555
v 0.372504 0.993361 0.928124
v 0.372909 0.993178 0.928255
v 0.355045 0.993948 0.927844
v 0.355666 0.994082 0.927265
v 0.355237 0.994071 0.927441
v 0.372911 0.991754 0.927844
v 0.372341 0.992035 0.927265
v 0.372754 0.991920 0.927441
v 0.354886 0.992652 0.927684
v 0.355474 0.992517 0.927072
v 0.355055 0.992588 0.927257
v 0.372752 0.990459 0.927684
v 0.372149 0.990469 0.927072
v 0.372572 0.990437 0.927257
v 0.354734 0.991416 0.928106
v 0.355291 0.991023 0.927581
v 0.354881 0.991172 0.927740
v 0.372600 0.989223 0.928106
v 0.371965 0.988976 0.927581
v 0.372398 0.989021 0.927740
v 0.354620 0.990484 0.929026
v 0.355152 0.989897 0.928694
v 0.354750 0.990105 0.928794
v 0.372486 0.988291 0.929026
v 0.371827 0.987850 0.928694
v 0.372267 0.987954 0.928794
v 0.354566 0.990041 0.930263
v 0.355087 0.989362 0.930188
v 0.354688 0.989597 0.930211
v 0.372431 0.987847 0.930263
v 0.371761 0.987314 0.930188
v 0.372205 0.987446 0.930211
v 0.354582 0.990174 0.931571
v 0.355106 0.989522 0.931768
v 0.354707 0.989750 0.931709
v 0.372448 0.987980 0.931571
v 0.371781 0.987475 0.931768
v 0.372224 0.987599 0.931709
v 0.354666 0.990857 0.932691
v 0.355208 0.990348 0.933122
v 0.354803 0.990532 0.932991
v 0.372532 0.988664 0.932691
v 0.371883 0.988301 0.933122
v 0.372320 0.988381 0.932991
v 0.354801 0.991956 0.933402
v 0.355371 0.991675 0.933981
v 0.354957 0.991790 0.933805
v 0.372666 0.989762 0.933402
v 0.372045 0.989627 0.933981
v 0.372474 0.989639 0.933805
v 0.354960 0.993251 0.933562
v 0.355563 0.993240 0.934174
v 0.355139 0.993273 0.933989
v 0.372826 0.991057 0.933562
v 0.372238 0.991193 0.934174
v 0.372656 0.991122 0.933989
v 0.355111 0.994487 0.933140
v 0.355746 0.994734 0.933665
v 0.355313 0.994688 0.933506
v 0.372977 0.992293 0.933140
v 0.372421 0.992686 0.933665
v 0.372830 0.992538 0.933506
v 0.355226 0.995419 0.932220
v 0.355885 0.995860 0.932552
v 0.355444 0.995756 0.932452
v 0.373092 0.993225 0.932220
v 0.372559 0.993812 0.932552
v 0.372961 0.993605 0.932452
v 0.354923 0.992952 0.936923
v 0.354923 0.992952 0.924323
v 0.357030 0.995852 0.935644
v 0.356417 0.995009 0.936242
v 0.356743 0.995456 0.935999
v 0.358484 0.996879 0.933773
v 0.357557 0.997552 0.933773
v 0.357880 0.997022 0.934197
v 0.358066 0.997277 0.933773
v 0.358980 0.997561 0.930623
v 0.358053 0.998234 0.930623
v 0.358559 0.997956 0.930623
v 0.357557 0.997552 0.927473
v 0.358484 0.996879 0.927473
v 0.357880 0.997022 0.927049
v 0.358066 0.997277 0.927473
v 0.356417 0.995009 0.925004
v 0.357030 0.995852 0.925602
v 0.356743 0.995456 0.925247
v 0.357341 0.993737 0.936242
v 0.358332 0.994059 0.935644
v 0.357867 0.993908 0.935999
v 0.360112 0.994036 0.933773
v 0.359758 0.995125 0.933773
v 0.359708 0.994507 0.934197
v 0.360008 0.994604 0.933773
v 0.360915 0.994296 0.930623
v 0.360561 0.995385 0.930623
v 0.360806 0.994863 0.930623
v 0.359758 0.995125 0.927473
v 0.360112 0.994036 0.927473
v 0.359708 0.994507 0.927049
v 0.360008 0.994604 0.927473
v 0.358332 0.994059 0.925602
v 0.357341 0.993737 0.925004
v 0.357867 0.993908 0.925247
v 0.357341 0.992166 0.936242
v 0.358332 0.991844 0.935644
v 0.357867 0.991995 0.935999
v 0.359758 0.990779 0.933773
v 0.360112 0.991868 0.933773
v 0.359708 0.991397 0.934197
v 0.360008 0.991299 0.933773
v 0.360561 0.990518 0.930623
v 0.360915 0.991607 0.930623
v 0.360806 0.991040 0.930623
v 0.360112 0.991868 0.927473
v 0.359758 0.990779 0.927473
v 0.359708 0.991397 0.927049
v 0.360008 0.991299 0.927473
v 0.358332 0.991844 0.925602
v 0.357341 0.992166 0.925004
v 0.357867 0.991995 0.925247
v 0.356417 0.990894 0.936242
v 0.357030 0.990052 0.935644
v 0.356743 0.990447 0.935999
v 0.357557 0.988352 0.933773
v 0.358484 0.989025 0.933773
v 0.357880 0.988881 0.934197
v 0.358066 0.988626 0.933773
v 0.358053 0.987669 0.930623
v 0.358980 0.988342 0.930623
v 0.358559 0.987947 0.930623
v 0.358484 0.989025 0.927473
v 0.357557 0.988352 0.927473
v 0.357880 0.988881 0.927049
v 0.358066 0.988626 0.927473
v 0.357030 0.990052 0.925602
v 0.356417 0.990894 0.925004
v 0.356743 0.990447 0.925247
v 0.354923 0.990409 0.936242
v 0.354923 0.989367 0.935644
v 0.354923 0.989856 0.935999
v 0.354350 0.987682 0.933773
v 0.355495 0.987682 0.933773
v 0.354923 0.987920 0.934197
v 0.354923 0.987605 0.933773
v 0.354350 0.986838 0.930623
v 0.355495 0.986838 0.930623
v 0.354923 0.986766 0.930623
v 0.355495 0.987682 0.927473
v 0.354350 0.987682 0.927473
v 0.354923 0.987920 0.927049
v 0.354923 0.987605 0.927473
v 0.354923 0.989367 0.925602
v 0.354923 0.990409 0.925004
v 0.354923 0.989856 0.925247
v 0.353428 0.990894 0.936242
v 0.352816 0.990052 0.935644
v 0.353103 0.990447 0.935999
v 0.351362 0.989025 0.933773
v 0.352288 0.988352 0.933773
v 0.351965 0.988881 0.934197
v 0.351780 0.988626 0.933773
v 0.350866 0.988342 0.930623
v 0.351792 0.987669 0.930623
v 0.351287 0.987947 0.930623
v 0.352288 0.988352 0.927473
v 0.351362 0.989025 0.927473
v 0.351965 0.988881 0.927049
v 0.351780 0.988626 0.927473
v 0.352816 0.990052 0.925602
v 0.353428 0.990894 0.925004
v 0.353103 0.990447 0.925247
v 0.352505 0.992166 0.936242
v 0.351514 0.991844 0.935644
v 0.351978 0.991995 0.935999
v 0.349734 0.991868 0.933773
v 0.350088 0.990779 0.933773
v 0.350137 0.991397 0.934197
v 0.349838 0.991299 0.933773
v 0.348931 0.991607 0.930623
v 0.349285 0.990518 0.930623
v 0.349040 0.991040 0.930623
v 0.350088 0.990779 0.927473
v 0.349734 0.991868 0.927473
v 0.350137 0.991397 0.927049
v 0.349838 0.991299 0.927473
v 0.351514 0.991844 0.925602
v 0.352505 0.992166 0.925004
v 0.351978 0.991995 0.925247
v 0.352505 0.993737 0.936242
v 0.351514 0.994059 0.935644
v 0.351978 0.993908 0.935999
v 0.350088 0.995125 0.933773
v 0.349734 0.994036 0.933773
v 0.350137 0.994507 0.934197
v 0.349838 0.994604 0.933773
v 0.349285 0.995385 0.930623
v 0.348931 0.994296 0.930623
v 0.349040 0.994863 0.930623
v 0.349734 0.994036 0.927473
v 0.350088 0.995125 0.927473
v 0.350137 0.994507 0.927049
v 0.349838 0.994604 0.927473
v 0.351514 0.994059 0.925602
v 0.352505 0.993737 0.925004
v 0.351978 0.993908 0.925247
v 0.353428 0.995009 0.936242
v 0.352816 0.995852 0.935644
v 0.353103 0.995456 0.935999
v 0.352288 0.997552 0.933773
v 0.351362 0.996879 0.933773
v 0.351965 0.997022 0.934197
v 0.351780 0.997277 0.933773
v 0.351792 0.998234 0.930623
v 0.350866 0.997561 0.930623
v 0.351287 0.997956 0.930623
v 0.351362 0.996879 0.927473
v 0.352288 0.997552 0.927473
v 0.351965 0.997022 0.927049
v 0.351780 0.997277 0.927473
v 0.352816 0.995852 0.925602
v 0.353428 0.995009 0.925004
v 0.353103 0.995456 0.925247
v 0.354923 0.995494 0.936242
v 0.354923 0.996536 0.935644
v 0.354923 0.996048 0.935999
v 0.355495 0.998222 0.933773
v 0.354350 0.998222 0.933773
v 0.354923 0.997983 0.934197
v 0.354923 0.998299 0.933773
v 0.355495 0.999066 0.930623
v 0.354350 0.999066 0.930623
v 0.354923 0.999138 0.930623
v 0.354350 0.998222 0.927473
v 0.355495 0.998222 0.927473
v 0.354923 0.997983 0.927049
v 0.354923 0.998299 0.927473
v 0.354923 0.996536 0.925602
v 0.354923 0.995494 0.925004
v 0.354923 0.996048 0.925247
v 0.355356 0.996483 0.930186
v 0.354835 0.997162 0.930111
v 0.355234 0.996927 0.930134
v 0.280916 1.005623 0.930186
v 0.281586 1.006156 0.930111
v 0.281142 1.006024 0.930134
v 0.355337 0.996321 0.931773
v 0.354812 0.996973 0.931971
v 0.355212 0.996746 0.931911
v 0.280896 1.005462 0.931773
v 0.281562 1.005967 0.931971
v 0.281120 1.005843 0.931911
v 0.355235 0.995492 0.933132
v 0.354693 0.996002 0.933563
v 0.355098 0.995818 0.933432
v 0.280794 1.004633 0.933132
v 0.281443 1.004996 0.933563
v 0.281006 1.004915 0.933432
v 0.355071 0.994160 0.933994
v 0.354501 0.994441 0.934573
v 0.354915 0.994326 0.934398
v 0.280630 1.003300 0.933994
v 0.281251 1.003435 0.934573
v 0.280823 1.003424 0.934398
v 0.354878 0.992589 0.934189
v 0.354275 0.992599 0.934801
v 0.354699 0.992567 0.934615
v 0.280437 1.001729 0.934189
v 0.281025 1.001593 0.934801
v 0.280606 1.001664 0.934615
v 0.354694 0.991089 0.933677
v 0.354059 0.990842 0.934201
v 0.354492 0.990887 0.934042
v 0.280253 1.000229 0.933677
v 0.280809 0.999836 0.934201
v 0.280400 0.999985 0.934042
v 0.354555 0.989958 0.932560
v 0.353897 0.989517 0.932893
v 0.354337 0.989621 0.932792
v 0.280114 0.999098 0.932560
v 0.280647 0.998511 0.932893
v 0.280245 0.998719 0.932792
v 0.354489 0.989420 0.931060
v 0.353819 0.988887 0.931135
v 0.354263 0.989019 0.931112
v 0.280048 0.998561 0.931060
v 0.280569 0.997881 0.931135
v 0.280171 0.998117 0.931112
v 0.354509 0.989582 0.929473
v 0.353843 0.989076 0.929275
v 0.354285 0.989200 0.929335
v 0.280068 0.998722 0.929473
v 0.280593 0.998070 0.929275
v 0.280193 0.998298 0.929335
v 0.354611 0.990411 0.928114
v 0.353962 0.990048 0.927683
v 0.354399 0.990128 0.927814
v 0.280170 0.999551 0.928114
v 0.280712 0.999042 0.927683
v 0.280307 0.999226 0.927814
v 0.354775 0.991743 0.927252
v 0.354154 0.991609 0.926673
v 0.354582 0.991620 0.926848
v 0.280334 1.000883 0.927252
v 0.280904 1.000603 0.926673
v 0.280490 1.000717 0.926848
v 0.354967 0.993315 0.927057
v 0.354380 0.993450 0.926445
v 0.354798 0.993380 0.926630
v 0.280527 1.002455 0.927057
v 0.281130 1.002444 0.926445
v 0.280706 1.002477 0.926630
v 0.355152 0.994814 0.927569
v 0.354595 0.995207 0.927045
v 0.355005 0.995059 0.927204
v 0.280711 1.003955 0.927569
v 0.281345 1.004201 0.927045
v 0.280912 1.004156 0.927204
v 0.355290 0.995945 0.928686
v 0.354758 0.996532 0.928353
v 0.355160 0.996325 0.928454
v 0.280850 1.005085 0.928686
v 0.281508 1.005526 0.928353
v 0.281068 1.005422 0.928454
v 0.373075 0.992628 0.930848
v 0.373745 0.993161 0.930775
v 0.373309 0.993028 0.930856
v 0.384986 0.991165 0.927848
v 0.384500 0.991840 0.928066
v 0.384881 0.991607 0.927942
v 0.372861 0.992567 0.930030
v 0.373463 0.993080 0.929693
v 0.373047 0.992953 0.929854
v 0.384772 0.991104 0.927030
v 0.384218 0.991760 0.926984
v 0.384619 0.991532 0.926939
v 0.372634 0.992147 0.929330
v 0.373161 0.992525 0.928766
v 0.372768 0.992440 0.928996
v 0.384544 0.990685 0.926330
v 0.383916 0.991205 0.926057
v 0.384340 0.991019 0.926081
v 0.372436 0.991453 0.928885
v 0.372900 0.991607 0.928178
v 0.372526 0.991589 0.928451
v 0.384347 0.989991 0.925885
v 0.383655 0.990286 0.925469
v 0.384098 0.990168 0.925536
v 0.372309 0.990621 0.928785
v 0.372732 0.990506 0.928046
v 0.372370 0.990570 0.928328
v 0.384220 0.989159 0.925785
v 0.383487 0.989186 0.925337
v 0.383942 0.989149 0.925414
v 0.372277 0.989816 0.929049
v 0.372689 0.989441 0.928395
v 0.372331 0.989583 0.928652
v 0.384187 0.988354 0.926049
v 0.383444 0.988121 0.925686
v 0.383903 0.988163 0.925737
v 0.372346 0.989198 0.929624
v 0.372780 0.988623 0.929156
v 0.372415 0.988826 0.929357
v 0.384256 0.987736 0.926624
v 0.383535 0.987302 0.926447
v 0.383987 0.987405 0.926442
v 0.372503 0.988889 0.930398
v 0.372988 0.988214 0.930180
v 0.372607 0.988447 0.930305
v 0.384413 0.987426 0.927398
v 0.383743 0.986893 0.927471
v 0.384179 0.987026 0.927390
v 0.372716 0.988950 0.931216
v 0.373270 0.988294 0.931262
v 0.372869 0.988522 0.931307
v 0.384627 0.987487 0.928216
v 0.384025 0.986974 0.928553
v 0.384441 0.987101 0.928392
v 0.372944 0.989369 0.931916
v 0.373572 0.988849 0.932189
v 0.373148 0.989035 0.932165
v 0.384855 0.987906 0.928916
v 0.384327 0.987528 0.929480
v 0.384720 0.987614 0.929250
v 0.373141 0.990063 0.932361
v 0.373833 0.989767 0.932777
v 0.373390 0.989886 0.932710
v 0.385052 0.988601 0.929361
v 0.384588 0.988447 0.930068
v 0.384962 0.988465 0.929795
v 0.373269 0.990895 0.932461
v 0.374001 0.990868 0.932909
v 0.373546 0.990905 0.932832
v 0.385179 0.989433 0.929461
v 0.384756 0.989548 0.930201
v 0.385118 0.989484 0.929918
v 0.373301 0.991700 0.932197
v 0.374044 0.991933 0.932560
v 0.373585 0.991891 0.932509
v 0.385211 0.990237 0.929197
v 0.384799 0.990613 0.929851
v 0.385158 0.990470 0.929594
v 0.373232 0.992318 0.931622
v 0.373953 0.992751 0.931799
v 0.373501 0.992649 0.931804
v 0.385142 0.990856 0.928622
v 0.384708 0.991431 0.929090
v 0.385073 0.991228 0.928889
v 0.354489 0.996483 0.931060
v 0.353819 0.997016 0.931135
v 0.354263 0.996884 0.931112
v 0.280048 0.987343 0.931060
v 0.280569 0.988022 0.931135
v 0.280171 0.987787 0.931112
v 0.354555 0.995945 0.932560
v 0.353897 0.996386 0.932893
v 0.354337 0.996282 0.932792
v 0.280114 0.986805 0.932560
v 0.280647 0.987392 0.932893
v 0.280245 0.987184 0.932792
v 0.354694 0.994814 0.933677
v 0.354059 0.995061 0.934201
v 0.354492 0.995016 0.934042
v 0.280253 0.985674 0.933677
v 0.280809 0.986067 0.934201
v 0.280400 0.985918 0.934042
v 0.354878 0.993315 0.934189
v 0.354275 0.993304 0.934801
v 0.354699 0.993337 0.934615
v 0.280437 0.984174 0.934189
v 0.281025 0.984310 0.934801
v 0.280606 0.984239 0.934615
v 0.355071 0.991743 0.933994
v 0.354501 0.991463 0.934573
v 0.354915 0.991577 0.934398
v 0.280630 0.982603 0.933994
v 0.281251 0.982468 0.934573
v 0.280823 0.982480 0.934398
v 0.355235 0.990411 0.933132
v 0.354693 0.989902 0.933563
v 0.355098 0.990085 0.933432
v 0.280794 0.981271 0.933132
v 0.281443 0.980908 0.933563
v 0.281006 0.980988 0.933432
v 0.355337 0.989582 0.931773
v 0.354812 0.988930 0.931971
v 0.355212 0.989157 0.931911
v 0.280896 0.980442 0.931773
v 0.281562 0.979936 0.931971
v 0.281120 0.980060 0.931911
v 0.355357 0.989420 0.930186
v 0.354835 0.988741 0.930111
v 0.355234 0.988976 0.930134
v 0.280916 0.980280 0.930186
v 0.281586 0.979747 0.930111
v 0.281142 0.979879 0.930134
v 0.355290 0.989958 0.928686
v 0.354758 0.989371 0.928353
v 0.355160 0.989579 0.928454
v 0.280850 0.980818 0.928686
v 0.281508 0.980377 0.928353
v 0.281068 0.980481 0.928454
v 0.355152 0.991089 0.927569
v 0.354595 0.990696 0.927045
v 0.355005 0.990845 0.927204
v 0.280711 0.981949 0.927569
v 0.281345 0.981702 0.927045
v 0.280912 0.981747 0.927204
v 0.354968 0.992589 0.927057
v 0.354380 0.992453 0.926445
v 0.354798 0.992524 0.926630
v 0.280527 0.983448 0.927057
v 0.281130 0.983459 0.926445
v 0.280706 0.983426 0.926630
v 0.354775 0.994160 0.927252
v 0.354154 0.994295 0.926673
v 0.354582 0.994283 0.926848
v 0.280334 0.985020 0.927252
v 0.280904 0.985301 0.926673
v 0.280490 0.985186 0.926848
v 0.354611 0.995492 0.928114
v 0.353962 0.995856 0.927683
v 0.354399 0.995775 0.927814
v 0.280170 0.986352 0.928114
v 0.280712 0.986861 0.927683
v 0.280307 0.986678 0.927814
v 0.354509 0.996321 0.929473
v 0.353843 0.996827 0.929275
v 0.354285 0.996703 0.929335
v 0.280068 0.987181 0.929473
v 0.280593 0.987833 0.929275
v 0.280193 0.987606 0.929335
v 0.354566 0.995862 0.930263
v 0.355087 0.996542 0.930188
v 0.354688 0.996306 0.930211
v 0.372431 0.998056 0.930263
v 0.371761 0.998589 0.930188
v 0.372205 0.998457 0.930211
v 0.354620 0.995419 0.929026
v 0.355152 0.996006 0.928694
v 0.354750 0.995799 0.928794
v 0.372486 0.997613 0.929026
v 0.371827 0.998054 0.928694
v 0.372267 0.997949 0.928794
v 0.354734 0.994487 0.928106
v 0.355291 0.994880 0.927581
v 0.354881 0.994731 0.927740
v 0.372600 0.996681 0.928106
v 0.371965 0.996927 0.927581
v 0.372398 0.996882 0.927740
v 0.354886 0.993251 0.927684
v 0.355474 0.993386 0.927072
v 0.355055 0.993316 0.927257
v 0.372752 0.995445 0.927684
v 0.372149 0.995434 0.927072
v 0.372572 0.995467 0.927257
v 0.355045 0.991956 0.927844
v 0.355666 0.991821 0.927265
v 0.355237 0.991832 0.927441
v 0.372911 0.994149 0.927844
v 0.372341 0.993869 0.927265
v 0.372754 0.993983 0.927441
v 0.355180 0.990857 0.928555
v 0.355829 0.990494 0.928124
v 0.355392 0.990575 0.928255
v 0.373046 0.993051 0.928555
v 0.372504 0.992542 0.928124
v 0.372909 0.992726 0.928255
v 0.355264 0.990174 0.929675
v 0.355931 0.989669 0.929478
v 0.355488 0.989792 0.929537
v 0.373130 0.992368 0.929675
v 0.372605 0.991716 0.929478
v 0.373005 0.991943 0.929537
v 0.355280 0.990041 0.930983
v 0.355950 0.989508 0.931058
v 0.355507 0.989640 0.931035
v 0.373146 0.992235 0.930983
v 0.372625 0.991555 0.931058
v 0.373024 0.991791 0.931035
v 0.355226 0.990484 0.932220
v 0.355885 0.990043 0.932552
v 0.355444 0.990148 0.932452
v 0.373092 0.992678 0.932220
v 0.372559 0.992091 0.932552
v 0.372961 0.992298 0.932452
v 0.355111 0.991416 0.933140
v 0.355746 0.991170 0.933665
v 0.355313 0.991215 0.933506
v 0.372977 0.993610 0.933140
v 0.372421 0.993217 0.933665
v 0.372830 0.993366 0.933506
v 0.354960 0.992652 0.933562
v 0.355563 0.992663 0.934174
v 0.355139 0.992630 0.933989
v 0.372826 0.994846 0.933562
v 0.372238 0.994711 0.934174
v 0.372656 0.994781 0.933989
v 0.354801 0.993948 0.933402
v 0.355371 0.994228 0.933981
v 0.354957 0.994114 0.933805
v 0.372666 0.996141 0.933402
v 0.372045 0.996276 0.933981
v 0.372474 0.996265 0.933805
v 0.354666 0.995046 0.932691
v 0.355208 0.995555 0.933122
v 0.354803 0.995371 0.932991
v 0.372532 0.997240 0.932691
v 0.371883 0.997603 0.933122
v 0.372320 0.997522 0.932991
v 0.354582 0.995729 0.931571
v 0.355106 0.996381 0.931768
v 0.354707 0.996154 0.931709
v 0.372448 0.997923 0.931571
v 0.371781 0.998428 0.931768
v 0.372224 0.998305 0.931709
v 0.372503 0.997015 0.930398
v 0.372988 0.997690 0.930180
v 0.372607 0.997456 0.930305
v 0.384413 0.998477 0.927398
v 0.383743 0.999010 0.927471
v 0.384179 0.998877 0.927390
v 0.372346 0.996705 0.929624
v 0.372780 0.997280 0.929156
v 0.372415 0.997077 0.929357
v 0.384256 0.998168 0.926624
v 0.383535 0.998601 0.926447
v 0.383987 0.998498 0.926442
v 0.372277 0.996087 0.929049
v 0.372689 0.996462 0.928395
v 0.372331 0.996320 0.928652
v 0.384187 0.997549 0.926049
v 0.383444 0.997783 0.925686
v 0.383903 0.997741 0.925737
v 0.372309 0.995282 0.928785
v 0.372732 0.995397 0.928046
v 0.372370 0.995334 0.928328
v 0.384220 0.996745 0.925785
v 0.383487 0.996718 0.925337
v 0.383942 0.996755 0.925414
v 0.372436 0.994450 0.928885
v 0.372900 0.994297 0.928178
v 0.372526 0.994315 0.928451
v 0.384347 0.995913 0.925885
v 0.383655 0.995617 0.925469
v 0.384098 0.995735 0.925536
v 0.372634 0.993756 0.929330
v 0.373161 0.993378 0.928766
v 0.372768 0.993464 0.928996
v 0.384544 0.995218 0.926330
v 0.383916 0.994698 0.926057
v 0.384340 0.994885 0.926081
v 0.372861 0.993337 0.930030
v 0.373463 0.992823 0.929693
v 0.373047 0.992950 0.929854
v 0.384772 0.994799 0.927030
v 0.384218 0.994144 0.926984
v 0.384619 0.994371 0.926939
v 0.373075 0.993276 0.930848
v 0.373745 0.992743 0.930775
v 0.373309 0.992876 0.930856
v 0.384986 0.994738 0.927848
v 0.384500 0.994063 0.928066
v 0.384881 0.994296 0.927942
v 0.373232 0.993585 0.931622
v 0.373953 0.993152 0.931799
v 0.373501 0.993255 0.931804
v 0.385142 0.995048 0.928622
v 0.384708 0.994473 0.929090
v 0.385073 0.994675 0.928889
v 0.373301 0.994204 0.932197
v 0.374044 0.993970 0.932560
v 0.373585 0.994012 0.932509
v 0.385211 0.995666 0.929197
v 0.384799 0.995291 0.929851
v 0.385158 0.995433 0.929594
v 0.373269 0.995008 0.932461
v 0.374001 0.995035 0.932909
v 0.373546 0.994998 0.932832
v 0.385179 0.996471 0.929461
v 0.384756 0.996356 0.930201
v 0.385118 0.996419 0.929918
v 0.373141 0.995840 0.932361
v 0.373833 0.996136 0.932777
v 0.373390 0.996018 0.932710
v 0.385052 0.997303 0.929361
v 0.384588 0.997456 0.930068
v 0.384962 0.997438 0.929795
v 0.372944 0.996535 0.931916
v 0.373572 0.997055 0.932189
v 0.373148 0.996868 0.932165
v 0.384855 0.997997 0.928916
v 0.384327 0.998375 0.929480
v 0.384720 0.998289 0.929250
v 0.372716 0.996954 0.931216
v 0.373270 0.997609 0.931262
v 0.372869 0.997382 0.931307
v 0.384627 0.998416 0.928216
v 0.384025 0.998930 0.928553
v 0.384441 0.998803 0.928392
vn 0.1146 0.9335 0.3397
vn 0.0659 0.5364 -0.8414
vn 0.0149 0.1210 -0.9925
vn -0.0391 -0.3185 -0.9471
vn -0.0853 -0.6948 -0.7141
vn -0.1146 -0.9335 -0.3397
vn -0.1212 -0.9874 0.1020
vn -0.1038 -0.8456 0.5236
vn -0.0659 -0.5364 0.8414
vn -0.0149 -0.1210 0.9925
vn 0.0391 0.3185 0.9471
vn 0.0853 0.6948 0.7141
vn 0.1038 0.8456 -0.5236
vn 0.9925 -0.1219 -0.0000
vn 0.1212 0.9874 -0.1020
vn -0.2797 0.9555 -0.0938
vn -0.8680 0.4949 -0.0395
vn 0.5025 0.8595 -0.0938
vn 0.9620 0.2702 -0.0395
vn -0.2957 0.8252 -0.4812
vn -0.8748 0.4400 -0.2029
vn 0.4865 0.7292 -0.4812
vn 0.9552 0.2153 -0.2029
vn -0.3306 0.5410 -0.7733
vn -0.8895 0.3202 -0.3260
vn 0.4516 0.4450 -0.7733
vn 0.9405 0.0955 -0.3260
vn -0.3774 0.1592 -0.9122
vn -0.9093 0.1592 -0.3846
vn 0.4047 0.0632 -0.9122
vn 0.9208 -0.0655 -0.3846
vn -0.4270 -0.2447 -0.8705
vn -0.9302 -0.0110 -0.3670
vn 0.3552 -0.3407 -0.8705
vn 0.8999 -0.2357 -0.3670
vn -0.4695 -0.5906 -0.6564
vn -0.9481 -0.1569 -0.2767
vn 0.3127 -0.6866 -0.6563
vn 0.8820 -0.3816 -0.2767
vn -0.4964 -0.8100 -0.3122
vn -0.9594 -0.2494 -0.1316
vn 0.2857 -0.9060 -0.3122
vn 0.8706 -0.4741 -0.1316
vn -0.5025 -0.8595 0.0938
vn -0.9620 -0.2702 0.0395
vn 0.2797 -0.9555 0.0938
vn 0.8680 -0.4949 0.0395
vn -0.4865 -0.7292 0.4812
vn -0.9552 -0.2153 0.2029
vn 0.2957 -0.8252 0.4812
vn 0.8748 -0.4400 0.2029
vn -0.4516 -0.4450 0.7733
vn -0.9405 -0.0955 0.3260
vn 0.3306 -0.5410 0.7733
vn 0.8895 -0.3202 0.3260
vn -0.4047 -0.0632 0.9122
vn -0.9208 0.0655 0.3846
vn 0.3774 -0.1592 0.9122
vn 0.9093 -0.1592 0.3846
vn -0.3552 0.3407 0.8705
vn -0.8999 0.2357 0.3670
vn 0.4270 0.2447 0.8705
vn 0.9302 0.0110 0.3670
vn -0.3127 0.6866 0.6564
vn -0.8820 0.3816 0.2767
vn 0.4695 0.5906 0.6563
vn 0.9481 0.1569 0.2767
vn -0.2857 0.9060 0.3122
vn -0.8706 0.4741 0.1316
vn 0.4964 0.8100 0.3122
vn 0.9594 0.2494 0.1316
vn -0.9925 0.1219 -0.0000
vn 0.2194 0.1594 -0.9625
vn 0.7840 0.5696 -0.2469
vn 0.2239 0.6892 0.6892
vn 0.7246 -0.0000 0.6892
vn 0.5862 0.4259 -0.6892
vn 0.7840 0.5696 0.2469
vn 0.2239 0.6892 -0.6892
vn 0.2994 0.9216 0.2469
vn 0.0838 0.2579 0.9625
vn 0.0838 0.2579 -0.9625
vn 0.2994 0.9216 -0.2469
vn 0.2194 0.1594 0.9625
vn 0.9690 -0.0000 -0.2469
vn 0.9690 -0.0000 0.2469
vn 0.5862 -0.4259 0.6892
vn 0.7246 -0.0000 -0.6892
vn 0.2712 -0.0000 0.9625
vn 0.2712 -0.0000 -0.9625
vn 0.7840 -0.5696 0.2469
vn 0.2239 -0.6892 0.6892
vn 0.5862 -0.4259 -0.6892
vn 0.2194 -0.1594 0.9625
vn 0.2194 -0.1594 -0.9625
vn 0.7840 -0.5696 -0.2469
vn -0.2239 -0.6892 0.6892
vn 0.2239 -0.6892 -0.6892
vn 0.0838 -0.2579 0.9625
vn 0.0838 -0.2579 -0.9625
vn 0.2994 -0.9216 -0.2469
vn 0.2994 -0.9216 0.2469
vn -0.5862 -0.4259 0.6892
vn -0.2239 -0.6892 -0.6892
vn -0.0838 -0.2579 0.9625
vn -0.0838 -0.2579 -0.9625
vn -0.2994 -0.9216 -0.2469
vn -0.2994 -0.9216 0.2469
vn -0.2712 -0.0000 0.9625
vn -0.5862 -0.4259 -0.6892
vn -0.2194 -0.1594 0.9625
vn -0.2194 -0.1594 -0.9625
vn -0.7840 -0.5696 -0.2469
vn -0.7840 -0.5696 0.2469
vn -0.7246 -0.0000 -0.6892
vn -0.9690 -0.0000 0.2469
vn -0.2712 -0.0000 -0.9625
vn -0.9690 -0.0000 -0.2469
vn -0.7246 -0.0000 0.6892
vn -0.5862 0.4259 0.6892
vn -0.2194 0.1594 0.9625
vn -0.2194 0.1594 -0.9625
vn -0.7840 0.5696 -0.2469
vn -0.7840 0.5696 0.2469
vn -0.2239 0.6892 0.6892
vn -0.5862 0.4259 -0.6892
vn -0.0838 0.2579 -0.9625
vn -0.2994 0.9216 -0.2469
vn -0.2994 0.9216 0.2469
vn -0.2239 0.6892 -0.6892
vn -0.0838 0.2579 0.9625
vn 0.5559 0.5825 0.5930
vn 0.3822 0.7087 0.5930
vn 0.3822 0.7087 -0.5930
vn 0.5559 0.5825 -0.5930
vn 0.7921 0.1444 0.5930
vn 0.7257 0.3487 0.5930
vn 0.7257 0.3487 -0.5930
vn 0.7921 0.1444 -0.5930
vn 0.7257 -0.3487 0.5930
vn 0.7921 -0.1444 0.5930
vn 0.7921 -0.1444 -0.5930
vn 0.7257 -0.3487 -0.5930
vn 0.3822 -0.7087 0.5930
vn 0.5559 -0.5825 0.5930
vn 0.5559 -0.5825 -0.5930
vn 0.3822 -0.7087 -0.5930
vn -0.1074 -0.7980 0.5930
vn 0.1074 -0.7980 0.5930
vn 0.1074 -0.7980 -0.5930
vn -0.1074 -0.7980 -0.5930
vn -0.5559 -0.5825 0.5930
vn -0.3822 -0.7087 0.5930
vn -0.3822 -0.7087 -0.5930
vn -0.5559 -0.5825 -0.5930
vn -0.7921 -0.1444 0.5930
vn -0.7257 -0.3487 0.5930
vn -0.7257 -0.3487 -0.5930
vn -0.7921 -0.1444 -0.5930
vn -0.7257 0.3487 0.5930
vn -0.7921 0.1444 0.5930
vn -0.7921 0.1444 -0.5930
vn -0.7257 0.3487 -0.5930
vn -0.3822 0.7087 0.5930
vn -0.5559 0.5825 0.5930
vn -0.5559 0.5825 -0.5930
vn -0.3822 0.7087 -0.5930
vn 0.1074 0.7980 0.5930
vn -0.1074 0.7980 0.5930
vn -0.1074 0.7980 -0.5930
vn 0.1074 0.7980 -0.5930
vn 0.6673 0.6992 0.2567
vn 0.4587 0.8507 0.2567
vn 0.6613 0.7053 -0.2555
vn 0.4664 0.8469 -0.2555
vn 0.9508 0.1734 0.2567
vn 0.8711 0.4186 0.2567
vn 0.9496 0.1819 -0.2555
vn 0.8751 0.4110 -0.2555
vn 0.3385 0.2459 -0.9083
vn 0.4911 0.3568 -0.7946
vn 0.4911 0.3568 0.7946
vn 0.3385 0.2459 0.9083
vn 0.8711 -0.4186 0.2567
vn 0.9508 -0.1734 0.2567
vn 0.8751 -0.4110 -0.2555
vn 0.9496 -0.1819 -0.2555
vn 0.6071 -0.0000 0.7946
vn 0.4184 -0.0000 0.9083
vn 0.6071 -0.0000 -0.7946
vn 0.4184 -0.0000 -0.9083
vn 0.4587 -0.8507 0.2567
vn 0.6673 -0.6992 0.2567
vn 0.4664 -0.8469 -0.2555
vn 0.6613 -0.7053 -0.2555
vn 0.4911 -0.3568 0.7946
vn 0.3385 -0.2459 0.9083
vn 0.4911 -0.3568 -0.7946
vn 0.3385 -0.2459 -0.9083
vn -0.1289 -0.9579 0.2567
vn 0.1289 -0.9579 0.2567
vn -0.1205 -0.9593 -0.2555
vn 0.1205 -0.9593 -0.2555
vn 0.1876 -0.5774 -0.7946
vn 0.1293 -0.3979 -0.9083
vn 0.1293 -0.3979 0.9083
vn 0.1876 -0.5774 0.7946
vn -0.6673 -0.6992 0.2567
vn -0.4587 -0.8507 0.2567
vn -0.6613 -0.7053 -0.2555
vn -0.4664 -0.8469 -0.2555
vn -0.1876 -0.5774 -0.7946
vn -0.1293 -0.3979 -0.9083
vn -0.1293 -0.3979 0.9083
vn -0.1876 -0.5774 0.7946
vn -0.9508 -0.1734 0.2567
vn -0.8711 -0.4186 0.2567
vn -0.9496 -0.1819 -0.2555
vn -0.8751 -0.4110 -0.2555
vn -0.4911 -0.3568 -0.7946
vn -0.3385 -0.2459 -0.9083
vn -0.3385 -0.2459 0.9083
vn -0.4911 -0.3568 0.7946
vn -0.8711 0.4186 0.2567
vn -0.9508 0.1734 0.2567
vn -0.8751 0.4110 -0.2555
vn -0.9496 0.1819 -0.2555
vn -0.4184 -0.0000 0.9083
vn -0.6071 -0.0000 0.7946
vn -0.4184 -0.0000 -0.9083
vn -0.6071 -0.0000 -0.7946
vn -0.4587 0.8507 0.2567
vn -0.6673 0.6992 0.2567
vn -0.4664 0.8469 -0.2555
vn -0.6613 0.7053 -0.2555
vn -0.3385 0.2459 0.9083
vn -0.4911 0.3568 0.7946
vn -0.3385 0.2459 -0.9083
vn -0.4911 0.3568 -0.7946
vn 0.1289 0.9579 0.2567
vn -0.1289 0.9579 0.2567
vn 0.1205 0.9593 -0.2555
vn -0.1205 0.9593 -0.2555
vn -0.1293 0.3979 -0.9083
vn -0.1876 0.5774 -0.7946
vn -0.1876 0.5774 0.7946
vn -0.1293 0.3979 0.9083
vn 0.1293 0.3979 -0.9083
vn 0.1876 0.5774 -0.7946
vn 0.1876 0.5774 0.7946
vn 0.1293 0.3979 0.9083
vn 0.5862 0.4259 0.6892
vn 0.1146 0.9335 -0.3397
vn 0.0659 0.5364 0.8414
vn 0.0149 0.1210 0.9925
vn -0.0391 -0.3185 0.9471
vn -0.0853 -0.6948 0.7141
vn -0.1146 -0.9335 0.3397
vn -0.1212 -0.9874 -0.1020
vn -0.1038 -0.8456 -0.5236
vn -0.0659 -0.5364 -0.8414
vn -0.0149 -0.1210 -0.9925
vn 0.0391 0.3185 -0.9471
vn 0.0853 0.6948 -0.7141
vn 0.1038 0.8456 0.5236
vn 0.1212 0.9874 0.1020
vn 0.5025 0.8595 0.0938
vn 0.9620 0.2702 0.0395
vn -0.2797 0.9555 0.0938
vn -0.8680 0.4949 0.0395
vn 0.4865 0.7292 0.4812
vn 0.9552 0.2153 0.2029
vn -0.2957 0.8252 0.4812
vn -0.8748 0.4400 0.2029
vn 0.4516 0.4450 0.7733
vn 0.9405 0.0955 0.3260
vn -0.3306 0.5410 0.7733
vn -0.8895 0.3202 0.3260
vn 0.4047 0.0632 0.9122
vn 0.9208 -0.0655 0.3846
vn -0.3774 0.1592 0.9122
vn -0.9093 0.1592 0.3846
vn 0.3552 -0.3407 0.8705
vn 0.8999 -0.2357 0.3670
vn -0.4270 -0.2447 0.8705
vn -0.9302 -0.0110 0.3670
vn 0.3127 -0.6866 0.6563
vn 0.8820 -0.3816 0.2767
vn -0.4695 -0.5906 0.6563
vn -0.9481 -0.1569 0.2767
vn 0.2857 -0.9060 0.3122
vn 0.8706 -0.4741 0.1316
vn -0.4964 -0.8100 0.3122
vn -0.9594 -0.2494 0.1316
vn 0.2797 -0.9555 -0.0938
vn 0.8680 -0.4949 -0.0395
vn -0.5025 -0.8595 -0.0938
vn -0.9620 -0.2702 -0.0395
vn 0.2957 -0.8252 -0.4812
vn 0.8748 -0.4400 -0.2029
vn -0.4865 -0.7292 -0.4812
vn -0.9552 -0.2153 -0.2028
vn 0.3306 -0.5410 -0.7733
vn 0.8895 -0.3202 -0.3260
vn -0.4516 -0.4450 -0.7733
vn -0.9405 -0.0955 -0.3260
vn 0.3774 -0.1592 -0.9122
vn 0.9093 -0.1592 -0.3846
vn -0.4047 -0.0632 -0.9122
vn -0.9208 0.0655 -0.3846
vn 0.4270 0.2447 -0.8705
vn 0.9302 0.0110 -0.3670
vn -0.3552 0.3407 -0.8705
vn -0.8999 0.2357 -0.3670
vn 0.4695 0.5906 -0.6563
vn 0.9481 0.1569 -0.2767
vn -0.3127 0.6866 -0.6563
vn -0.8820 0.3816 -0.2767
vn 0.4964 0.8100 -0.3122
vn 0.9594 0.2494 -0.1316
vn -0.2857 0.9060 -0.3122
vn -0.8706 0.4741 -0.1316
vn 0.1964 0.9235 0.3295
vn -0.1367 0.5613 -0.8163
vn -0.2241 0.1503 -0.9629
vn -0.2671 -0.2905 -0.9188
vn -0.2572 -0.6737 -0.6928
vn -0.1964 -0.9235 -0.3295
vn -0.0967 -0.9904 0.0990
vn 0.0222 -0.8611 0.5079
vn 0.1367 -0.5613 0.8163
vn 0.2241 -0.1503 0.9629
vn 0.2671 0.2905 0.9188
vn 0.2572 0.6737 0.6928
vn -0.0222 0.8611 -0.5079
vn 0.9629 -0.1182 -0.2425
vn 0.0967 0.9904 -0.0990
vn -0.2906 0.9568 0.0046
vn -0.8502 0.4927 0.1852
vn 0.4683 0.8637 -0.1866
vn 0.9251 0.2748 -0.2620
vn -0.3998 0.8380 -0.3713
vn -0.8963 0.4426 0.0268
vn 0.3590 0.7449 -0.5624
vn 0.8791 0.2247 -0.4204
vn -0.5050 0.5625 -0.6547
vn -0.9407 0.3265 -0.0927
vn 0.2538 0.4693 -0.8458
vn 0.8347 0.1085 -0.5399
vn -0.5854 0.1847 -0.7894
vn -0.9745 0.1672 -0.1495
vn 0.1735 0.0915 -0.9806
vn 0.8009 -0.0508 -0.5967
vn -0.6249 -0.2204 -0.7489
vn -0.9912 -0.0036 -0.1324
vn 0.1339 -0.3136 -0.9401
vn 0.7842 -0.2215 -0.5796
vn -0.6158 -0.5726 -0.5412
vn -0.9874 -0.1521 -0.0448
vn 0.1430 -0.6658 -0.7323
vn 0.7880 -0.3700 -0.4920
vn -0.5599 -0.8022 -0.2073
vn -0.9638 -0.2488 0.0959
vn 0.1989 -0.8954 -0.3984
vn 0.8116 -0.4668 -0.3513
vn -0.4683 -0.8637 0.1866
vn -0.9251 -0.2748 0.2620
vn 0.2906 -0.9568 -0.0046
vn 0.8502 -0.4927 -0.1852
vn -0.3590 -0.7449 0.5624
vn -0.8791 -0.2247 0.4204
vn 0.3998 -0.8380 0.3713
vn 0.8963 -0.4426 -0.0268
vn -0.2538 -0.4693 0.8458
vn -0.8347 -0.1085 0.5399
vn 0.5050 -0.5625 0.6547
vn 0.9407 -0.3265 0.0927
vn -0.1735 -0.0915 0.9806
vn -0.8009 0.0508 0.5967
vn 0.5854 -0.1847 0.7894
vn 0.9745 -0.1672 0.1495
vn -0.1339 0.3136 0.9401
vn -0.7842 0.2215 0.5796
vn 0.6249 0.2204 0.7489
vn 0.9912 0.0036 0.1324
vn -0.1430 0.6658 0.7323
vn -0.7880 0.3700 0.4920
vn 0.6158 0.5726 0.5412
vn 0.9874 0.1521 0.0449
vn -0.1989 0.8954 0.3984
vn -0.8116 0.4668 0.3513
vn 0.5599 0.8022 0.2073
vn 0.9638 0.2488 -0.0959
vn -0.9629 0.1182 0.2425
vn -0.1212 0.9874 -0.1020
vn -0.0391 0.3185 0.9471
vn 0.0149 -0.1210 0.9925
vn 0.0659 -0.5364 0.8414
vn 0.1038 -0.8456 0.5236
vn 0.1212 -0.9874 0.1020
vn 0.1146 -0.9335 -0.3397
vn 0.0853 -0.6948 -0.7141
vn 0.0391 -0.3185 -0.9471
vn -0.0149 0.1210 -0.9925
vn -0.0659 0.5364 -0.8414
vn -0.1038 0.8456 -0.5236
vn -0.0853 0.6948 0.7141
vn -0.9925 -0.1219 -0.0000
vn -0.1146 0.9335 0.3397
vn 0.2857 0.9060 0.3122
vn 0.8706 0.4741 0.1316
vn -0.4964 0.8100 0.3122
vn -0.9594 0.2494 0.1316
vn 0.3127 0.6866 0.6563
vn 0.8820 0.3816 0.2767
vn -0.4695 0.5906 0.6564
vn -0.9481 0.1569 0.2767
vn 0.3552 0.3407 0.8705
vn 0.8999 0.2357 0.3670
vn -0.4270 0.2447 0.8705
vn -0.9302 0.0110 0.3670
vn 0.4047 -0.0632 0.9122
vn 0.9208 0.0655 0.3846
vn -0.3774 -0.1592 0.9122
vn -0.9093 -0.1592 0.3846
vn 0.4516 -0.4450 0.7733
vn 0.9405 -0.0955 0.3260
vn -0.3306 -0.5410 0.7733
vn -0.8895 -0.3202 0.3260
vn 0.4865 -0.7292 0.4812
vn 0.9552 -0.2153 0.2029
vn -0.2957 -0.8252 0.4812
vn -0.8748 -0.4400 0.2029
vn 0.5025 -0.8595 0.0938
vn 0.9620 -0.2702 0.0395
vn -0.2797 -0.9555 0.0938
vn -0.8680 -0.4949 0.0395
vn 0.4964 -0.8100 -0.3122
vn 0.9594 -0.2494 -0.1316
vn -0.2857 -0.9060 -0.3122
vn -0.8706 -0.4741 -0.1316
vn 0.4695 -0.5906 -0.6563
vn 0.9481 -0.1569 -0.2767
vn -0.3127 -0.6866 -0.6564
vn -0.8820 -0.3816 -0.2767
vn 0.4270 -0.2447 -0.8705
vn 0.9302 -0.0110 -0.3670
vn -0.3552 -0.3407 -0.8705
vn -0.8999 -0.2357 -0.3670
vn 0.3774 0.1592 -0.9122
vn 0.9093 0.1592 -0.3846
vn -0.4047 0.0632 -0.9123
vn -0.9208 -0.0655 -0.3846
vn 0.3306 0.5410 -0.7733
vn 0.8895 0.3202 -0.3260
vn -0.4516 0.4450 -0.7733
vn -0.9405 0.0955 -0.3260
vn 0.2957 0.8252 -0.4812
vn 0.8748 0.4400 -0.2029
vn -0.4865 0.7292 -0.4812
vn -0.9552 0.2153 -0.2029
vn 0.2797 0.9555 -0.0938
vn 0.8680 0.4949 -0.0395
vn -0.5025 0.8595 -0.0938
vn -0.9620 0.2702 -0.0395
vn 0.9925 0.1219 -0.0000
vn -0.1212 0.9874 0.1020
vn -0.0391 0.3185 -0.9471
vn 0.0149 -0.1210 -0.9925
vn 0.0659 -0.5364 -0.8414
vn 0.1038 -0.8456 -0.5236
vn 0.1212 -0.9874 -0.1020
vn 0.1146 -0.9335 0.3397
vn 0.0853 -0.6948 0.7141
vn 0.0391 -0.3185 0.9471
vn -0.0149 0.1210 0.9925
vn -0.0659 0.5364 0.8414
vn -0.1038 0.8456 0.5236
vn -0.0853 0.6948 -0.7141
vn -0.1146 0.9335 -0.3397
vn -0.4964 0.8100 -0.3122
vn -0.9594 0.2494 -0.1316
vn 0.2857 0.9060 -0.3122
vn 0.8706 0.4741 -0.1316
vn -0.4695 0.5906 -0.6563
vn -0.9481 0.1569 -0.2767
vn 0.3127 0.6866 -0.6564
vn 0.8820 0.3816 -0.2767
vn -0.4270 0.2447 -0.8705
vn -0.9302 0.0110 -0.3670
vn 0.3552 0.3407 -0.8705
vn 0.8999 0.2357 -0.3670
vn -0.3774 -0.1592 -0.9122
vn -0.9093 -0.1592 -0.3846
vn 0.4047 -0.0632 -0.9122
vn 0.9208 0.0655 -0.3846
vn -0.3306 -0.5410 -0.7733
vn -0.8895 -0.3202 -0.3260
vn 0.4516 -0.4450 -0.7733
vn 0.9405 -0.0955 -0.3260
vn -0.2957 -0.8252 -0.4812
vn -0.8748 -0.4400 -0.2029
vn 0.4865 -0.7292 -0.4812
vn 0.9552 -0.2153 -0.2029
vn -0.2797 -0.9555 -0.0938
vn -0.8680 -0.4949 -0.0395
vn 0.5025 -0.8595 -0.0938
vn 0.9620 -0.2702 -0.0395
vn -0.2857 -0.9060 0.3122
vn -0.8706 -0.4741 0.1316
vn 0.4964 -0.8100 0.3122
vn 0.9594 -0.2494 0.1316
vn -0.3127 -0.6866 0.6564
vn -0.8820 -0.3816 0.2767
vn 0.4695 -0.5906 0.6564
vn 0.9481 -0.1569 0.2767
vn -0.3552 -0.3407 0.8705
vn -0.8999 -0.2357 0.3670
vn 0.4270 -0.2447 0.8705
vn 0.9302 -0.0110 0.3670
vn -0.4047 0.0632 0.9122
vn -0.9208 -0.0655 0.3846
vn 0.3774 0.1592 0.9122
vn 0.9093 0.1592 0.3846
vn -0.4516 0.4450 0.7733
vn -0.9405 0.0955 0.3260
vn 0.3306 0.5410 0.7733
vn 0.8895 0.3202 0.3260
vn -0.4865 0.7292 0.4812
vn -0.9552 0.2153 0.2029
vn 0.2957 0.8252 0.4812
vn 0.8748 0.4400 0.2029
vn -0.5025 0.8595 0.0938
vn -0.9620 0.2702 0.0395
vn 0.2797 0.9555 0.0938
vn 0.8680 0.4949 0.0395
vn -0.0967 0.9904 0.0990
vn -0.2671 0.2905 -0.9188
vn -0.2241 -0.1503 -0.9629
vn -0.1367 -0.5613 -0.8163
vn -0.0222 -0.8611 -0.5079
vn 0.0967 -0.9904 -0.0990
vn 0.1964 -0.9235 0.3295
vn 0.2572 -0.6737 0.6928
vn 0.2671 -0.2905 0.9188
vn 0.2241 0.1503 0.9629
vn 0.1367 0.5613 0.8163
vn 0.0222 0.8611 0.5079
vn -0.2572 0.6737 -0.6928
vn 0.9629 0.1182 -0.2425
vn -0.1964 0.9235 -0.3295
vn -0.5599 0.8022 -0.2073
vn -0.9638 0.2488 0.0959
vn 0.1989 0.8954 -0.3984
vn 0.8116 0.4668 -0.3513
vn -0.6158 0.5726 -0.5412
vn -0.9874 0.1521 -0.0449
vn 0.1430 0.6658 -0.7323
vn 0.7880 0.3700 -0.4920
vn -0.6249 0.2204 -0.7489
vn -0.9912 0.0036 -0.1324
vn 0.1339 0.3136 -0.9401
vn 0.7842 0.2215 -0.5796
vn -0.5854 -0.1847 -0.7894
vn -0.9745 -0.1672 -0.1495
vn 0.1735 -0.0915 -0.9806
vn 0.8009 0.0508 -0.5967
vn -0.5050 -0.5625 -0.6547
vn -0.9407 -0.3265 -0.0927
vn 0.2538 -0.4693 -0.8458
vn 0.8347 -0.1085 -0.5399
vn -0.3998 -0.8380 -0.3713
vn -0.8963 -0.4426 0.0268
vn 0.3590 -0.7449 -0.5624
vn 0.8791 -0.2247 -0.4204
vn -0.2906 -0.9568 0.0046
vn -0.8502 -0.4927 0.1852
vn 0.4683 -0.8637 -0.1866
vn 0.9251 -0.2748 -0.2620
vn -0.1989 -0.8954 0.3984
vn -0.8116 -0.4668 0.3513
vn 0.5599 -0.8022 0.2073
vn 0.9638 -0.2488 -0.0959
vn -0.1430 -0.6658 0.7323
vn -0.7880 -0.3700 0.4920
vn 0.6158 -0.5726 0.5412
vn 0.9874 -0.1521 0.0449
vn -0.1339 -0.3136 0.9401
vn -0.7842 -0.2215 0.5796
vn 0.6249 -0.2204 0.7489
vn 0.9912 -0.0036 0.1324
vn -0.1735 0.0915 0.9806
vn -0.8009 -0.0508 0.5967
vn 0.5854 0.1847 0.7894
vn 0.9745 0.1672 0.1495
vn -0.2538 0.4693 0.8458
vn -0.8347 0.1085 0.5399
vn 0.5050 0.5625 0.6547
vn 0.9407 0.3265 0.0927
vn -0.3590 0.7449 0.5624
vn -0.8791 0.2247 0.4204
vn 0.3998 0.8380 0.3713
vn 0.8963 0.4426 -0.0268
vn -0.4683 0.8637 0.1866
vn -0.9251 0.2748 0.2620
vn 0.2906 0.9568 -0.0046
vn 0.8502 0.4927 -0.1852
vn -0.9629 -0.1182 0.2425
vn -0.4695 -0.5906 -0.6563
vn 0.3127 -0.6866 -0.6564
vn -0.3127 0.6866 0.6563
vn 0.4695 0.5906 0.6564
vn 0.2239 0.6892 -0.6891
vn -0.5862 -0.4259 -0.6891
vn -0.7246 -0.0000 0.6891
vn -0.2239 0.6892 -0.6891
vn 0.6613 0.7053 0.2555
vn 0.4664 0.8469 0.2555
vn 0.6673 0.6992 -0.2567
vn 0.4587 0.8507 -0.2567
vn 0.9496 0.1819 0.2555
vn 0.8751 0.4110 0.2555
vn 0.9508 0.1734 -0.2567
vn 0.8711 0.4186 -0.2567
vn 0.8751 -0.4110 0.2555
vn 0.9496 -0.1819 0.2555
vn 0.8711 -0.4186 -0.2567
vn 0.9508 -0.1734 -0.2567
vn 0.4664 -0.8469 0.2555
vn 0.6613 -0.7053 0.2555
vn 0.4587 -0.8507 -0.2567
vn 0.6673 -0.6992 -0.2567
vn -0.1205 -0.9593 0.2555
vn 0.1205 -0.9593 0.2555
vn -0.1289 -0.9579 -0.2567
vn 0.1289 -0.9579 -0.2567
vn -0.6613 -0.7053 0.2555
vn -0.4664 -0.8469 0.2555
vn -0.6673 -0.6992 -0.2567
vn -0.4587 -0.8507 -0.2567
vn -0.9496 -0.1819 0.2555
vn -0.8751 -0.4110 0.2555
vn -0.9508 -0.1734 -0.2567
vn -0.8711 -0.4186 -0.2567
vn -0.8751 0.4110 0.2555
vn -0.9496 0.1819 0.2555
vn -0.8711 0.4186 -0.2567
vn -0.9508 0.1734 -0.2567
vn -0.4664 0.8469 0.2555
vn -0.6613 0.7053 0.2555
vn -0.4587 0.8507 -0.2567
vn -0.6673 0.6992 -0.2567
vn 0.1205 0.9593 0.2555
vn -0.1205 0.9593 0.2555
vn 0.1289 0.9579 -0.2567
vn -0.1289 0.9579 -0.2567
vn -0.3774 0.1592 0.9123
vn -0.4695 -0.5906 0.6564
vn -0.9552 -0.2153 -0.2029
vn -0.4047 -0.0632 -0.9123
vn -0.8819 0.3816 -0.2767
vn 0.9629 -0.1182 -0.2426
vn 0.9874 0.1521 0.0448
vn 0.3127 0.6866 0.6564
vn -0.4695 0.5906 0.6563
vn -0.3774 -0.1592 0.9123
vn -0.3306 -0.5411 0.7733
vn 0.4695 -0.5906 -0.6564
vn -0.3127 -0.6866 -0.6563
vn -0.3551 -0.3407 -0.8705
vn -0.4048 0.0632 -0.9122
vn -0.4695 0.5906 -0.6564
vn 0.3127 0.6866 -0.6563
vn -0.3127 -0.6866 0.6563
vn 0.4695 -0.5906 0.6563
vn -0.9874 0.1521 -0.0448
vn 0.9874 -0.1521 0.0448
s 0
f 83//1 2//1 80//1
f 17//2 20//2 14//2
f 23//3 26//3 20//3
f 29//4 32//4 26//4
f 35//5 38//5 32//5
f 41//6 44//6 38//6
f 47//7 50//7 44//7
f 53//8 56//8 50//8
f 59//9 62//9 56//9
f 65//10 68//10 62//10
f 71//11 74//11 68//11
f 77//12 80//12 74//12
f 11//13 14//13 8//13
f 76//14 52//14 28//14
f 5//15 8//15 2//15
f 8//16 3//16 2//16
f 3//17 7//17 1//17
f 5//18 12//18 11//18
f 6//19 10//19 12//19
f 14//20 9//20 8//20
f 15//21 7//21 9//21
f 17//22 12//22 18//22
f 12//23 16//23 18//23
f 20//24 15//24 14//24
f 21//25 13//25 15//25
f 23//26 18//26 24//26
f 24//27 16//27 22//27
f 26//28 21//28 20//28
f 21//29 25//29 19//29
f 23//30 30//30 29//30
f 30//31 22//31 28//31
f 26//32 33//32 27//32
f 27//33 31//33 25//33
f 29//34 36//34 35//34
f 30//35 34//35 36//35
f 32//36 39//36 33//36
f 39//37 31//37 33//37
f 35//38 42//38 41//38
f 36//39 40//39 42//39
f 44//40 39//40 38//40
f 45//41 37//41 39//41
f 41//42 48//42 47//42
f 48//43 40//43 46//43
f 50//44 45//44 44//44
f 45//45 49//45 43//45
f 47//46 54//46 53//46
f 48//47 52//47 54//47
f 56//48 51//48 50//48
f 57//49 49//49 51//49
f 59//50 54//50 60//50
f 54//51 58//51 60//51
f 62//52 57//52 56//52
f 63//53 55//53 57//53
f 65//54 60//54 66//54
f 66//55 58//55 64//55
f 68//56 63//56 62//56
f 63//57 67//57 61//57
f 65//58 72//58 71//58
f 72//59 64//59 70//59
f 68//60 75//60 69//60
f 69//61 73//61 67//61
f 71//62 78//62 77//62
f 72//63 76//63 78//63
f 74//64 81//64 75//64
f 81//65 73//65 75//65
f 77//66 84//66 83//66
f 78//67 82//67 84//67
f 2//68 81//68 80//68
f 3//69 79//69 81//69
f 83//70 6//70 5//70
f 6//71 82//71 4//71
f 19//72 43//72 67//72
f 86//73 101//73 119//73
f 94//74 114//74 98//74
f 245//75 87//75 91//75
f 109//76 122//76 125//76
f 99//77 114//77 118//77
f 94//78 108//78 112//78
f 252//79 97//79 102//79
f 243//80 95//80 247//80
f 240//81 85//81 88//81
f 86//82 255//82 101//82
f 251//83 95//83 97//83
f 88//84 85//84 104//84
f 115//85 129//85 131//85
f 107//86 129//86 111//86
f 126//87 139//87 142//87
f 116//88 131//88 135//88
f 104//89 85//89 121//89
f 86//90 119//90 136//90
f 124//91 146//91 128//91
f 143//92 156//92 159//92
f 133//93 148//93 152//93
f 121//94 85//94 138//94
f 86//95 136//95 153//95
f 132//96 146//96 148//96
f 160//97 173//97 176//97
f 150//98 165//98 169//98
f 138//99 85//99 155//99
f 86//100 153//100 170//100
f 149//101 163//101 165//101
f 141//102 163//102 145//102
f 177//103 190//103 193//103
f 167//104 182//104 186//104
f 155//105 85//105 172//105
f 86//106 170//106 187//106
f 162//107 182//107 166//107
f 158//108 180//108 162//108
f 189//109 85//109 206//109
f 184//110 199//110 203//110
f 172//111 85//111 189//111
f 86//112 187//112 204//112
f 183//113 197//113 199//113
f 175//114 197//114 179//114
f 201//115 216//115 220//115
f 192//116 214//116 196//116
f 86//117 204//117 221//117
f 200//118 214//118 216//118
f 194//119 207//119 210//119
f 211//120 224//120 227//120
f 206//121 85//121 223//121
f 86//122 221//122 238//122
f 213//123 233//123 217//123
f 209//124 231//124 213//124
f 228//125 241//125 244//125
f 218//126 233//126 237//126
f 86//127 238//127 255//127
f 230//128 250//128 234//128
f 226//129 248//129 230//129
f 235//130 250//130 254//130
f 223//131 85//131 240//131
f 90//132 93//132 92//132
f 93//133 91//133 92//133
f 97//134 100//134 99//134
f 100//135 98//135 99//135
f 107//136 110//136 109//136
f 110//137 108//137 109//137
f 114//138 117//138 116//138
f 117//139 115//139 116//139
f 124//140 127//140 126//140
f 127//141 125//141 126//141
f 131//142 134//142 133//142
f 134//143 132//143 133//143
f 141//144 144//144 143//144
f 144//145 142//145 143//145
f 148//146 151//146 150//146
f 151//147 149//147 150//147
f 158//148 161//148 160//148
f 161//149 159//149 160//149
f 165//150 168//150 167//150
f 168//151 166//151 167//151
f 175//152 178//152 177//152
f 178//153 176//153 177//153
f 182//154 185//154 184//154
f 185//155 183//155 184//155
f 192//156 195//156 194//156
f 195//157 193//157 194//157
f 199//158 202//158 201//158
f 202//159 200//159 201//159
f 209//160 212//160 211//160
f 212//161 210//161 211//161
f 216//162 219//162 218//162
f 219//163 217//163 218//163
f 226//164 229//164 228//164
f 229//165 227//165 228//165
f 233//166 236//166 235//166
f 236//167 234//167 235//167
f 243//168 246//168 245//168
f 246//169 244//169 245//169
f 250//170 253//170 252//170
f 253//171 251//171 252//171
f 94//172 93//172 90//172
f 93//173 95//173 91//173
f 94//174 100//174 96//174
f 100//175 95//175 96//175
f 111//176 110//176 107//176
f 110//177 112//177 108//177
f 111//178 117//178 113//178
f 117//179 112//179 113//179
f 119//180 103//180 120//180
f 120//181 102//181 118//181
f 105//182 89//182 106//182
f 106//183 88//183 104//183
f 128//184 127//184 124//184
f 127//185 129//185 125//185
f 128//186 134//186 130//186
f 134//187 129//187 130//187
f 122//188 106//188 123//188
f 106//189 121//189 123//189
f 135//190 120//190 118//190
f 137//191 119//191 120//191
f 145//192 144//192 141//192
f 144//193 146//193 142//193
f 145//194 151//194 147//194
f 151//195 146//195 147//195
f 122//196 140//196 139//196
f 123//197 138//197 140//197
f 135//198 154//198 137//198
f 154//199 136//199 137//199
f 162//200 161//200 158//200
f 161//201 163//201 159//201
f 162//202 168//202 164//202
f 168//203 163//203 164//203
f 152//204 171//204 154//204
f 171//205 153//205 154//205
f 155//206 140//206 138//206
f 157//207 139//207 140//207
f 179//208 178//208 175//208
f 178//209 180//209 176//209
f 179//210 185//210 181//210
f 185//211 180//211 181//211
f 186//212 171//212 169//212
f 171//213 187//213 170//213
f 172//214 157//214 155//214
f 157//215 173//215 156//215
f 196//216 195//216 192//216
f 195//217 197//217 193//217
f 196//218 202//218 198//218
f 202//219 197//219 198//219
f 203//220 188//220 186//220
f 205//221 187//221 188//221
f 172//222 191//222 174//222
f 191//223 173//223 174//223
f 213//224 212//224 209//224
f 212//225 214//225 210//225
f 213//226 219//226 215//226
f 219//227 214//227 215//227
f 206//228 191//228 189//228
f 208//229 190//229 191//229
f 204//230 222//230 221//230
f 205//231 220//231 222//231
f 230//232 229//232 226//232
f 229//233 231//233 227//233
f 230//234 236//234 232//234
f 236//235 231//235 232//235
f 223//236 208//236 206//236
f 225//237 207//237 208//237
f 221//238 239//238 238//238
f 239//239 220//239 237//239
f 247//240 246//240 243//240
f 246//241 248//241 244//241
f 247//242 253//242 249//242
f 253//243 248//243 249//243
f 255//244 239//244 256//244
f 256//245 237//245 254//245
f 224//246 242//246 241//246
f 225//247 240//247 242//247
f 255//248 103//248 101//248
f 256//249 102//249 103//249
f 87//250 242//250 89//250
f 89//251 240//251 88//251
f 92//252 105//252 108//252
f 339//253 258//253 336//253
f 273//254 276//254 270//254
f 279//255 282//255 276//255
f 285//256 288//256 282//256
f 291//257 294//257 288//257
f 297//258 300//258 294//258
f 303//259 306//259 300//259
f 309//260 312//260 306//260
f 312//261 321//261 318//261
f 321//262 324//262 318//262
f 324//263 333//263 330//263
f 330//264 339//264 336//264
f 267//265 270//265 264//265
f 332//72 308//72 284//72
f 261//266 264//266 258//266
f 264//267 259//267 258//267
f 259//268 263//268 257//268
f 261//269 268//269 267//269
f 262//270 266//270 268//270
f 270//271 265//271 264//271
f 265//272 269//272 263//272
f 267//273 274//273 273//273
f 268//274 272//274 274//274
f 270//275 277//275 271//275
f 271//276 275//276 269//276
f 279//277 274//277 280//277
f 280//278 272//278 278//278
f 282//279 277//279 276//279
f 283//280 275//280 277//280
f 285//281 280//281 286//281
f 280//282 284//282 286//282
f 282//283 289//283 283//283
f 289//284 281//284 283//284
f 291//285 286//285 292//285
f 292//286 284//286 290//286
f 288//287 295//287 289//287
f 295//288 287//288 289//288
f 291//289 298//289 297//289
f 298//290 290//290 296//290
f 300//291 295//291 294//291
f 301//292 293//292 295//292
f 297//293 304//293 303//293
f 304//294 296//294 302//294
f 300//295 307//295 301//295
f 307//296 299//296 301//296
f 303//297 310//297 309//297
f 304//298 308//298 310//298
f 306//299 313//299 307//299
f 313//300 305//300 307//300
f 315//301 310//301 316//301
f 310//302 314//302 316//302
f 318//303 313//303 312//303
f 319//304 311//304 313//304
f 315//305 322//305 321//305
f 316//306 320//306 322//306
f 318//307 325//307 319//307
f 319//308 323//308 317//308
f 321//309 328//309 327//309
f 322//310 326//310 328//310
f 324//311 331//311 325//311
f 325//312 329//312 323//312
f 327//313 334//313 333//313
f 334//314 326//314 332//314
f 336//315 331//315 330//315
f 337//316 329//316 331//316
f 333//317 340//317 339//317
f 340//318 332//318 338//318
f 336//319 259//319 337//319
f 259//320 335//320 337//320
f 339//321 262//321 261//321
f 262//322 338//322 260//322
f 275//14 299//14 323//14
f 423//323 342//323 420//323
f 357//324 360//324 354//324
f 363//325 366//325 360//325
f 369//326 372//326 366//326
f 372//327 381//327 378//327
f 381//328 384//328 378//328
f 384//329 393//329 390//329
f 393//330 396//330 390//330
f 399//331 402//331 396//331
f 402//332 411//332 408//332
f 411//333 414//333 408//333
f 417//334 420//334 414//334
f 351//335 354//335 348//335
f 416//336 392//336 368//336
f 345//337 348//337 342//337
f 342//338 349//338 343//338
f 349//339 341//339 343//339
f 351//340 346//340 352//340
f 346//341 350//341 352//341
f 354//342 349//342 348//342
f 349//343 353//343 347//343
f 357//344 352//344 358//344
f 358//345 350//345 356//345
f 360//346 355//346 354//346
f 361//347 353//347 355//347
f 363//348 358//348 364//348
f 364//349 356//349 362//349
f 360//350 367//350 361//350
f 367//351 359//351 361//351
f 363//352 370//352 369//352
f 364//353 368//353 370//353
f 366//354 373//354 367//354
f 367//355 371//355 365//355
f 369//356 376//356 375//356
f 370//357 374//357 376//357
f 372//358 379//358 373//358
f 379//359 371//359 373//359
f 381//360 376//360 382//360
f 382//361 374//361 380//361
f 378//362 385//362 379//362
f 385//363 377//363 379//363
f 387//364 382//364 388//364
f 382//365 386//365 388//365
f 390//366 385//366 384//366
f 385//367 389//367 383//367
f 387//368 394//368 393//368
f 388//369 392//369 394//369
f 396//370 391//370 390//370
f 397//371 389//371 391//371
f 393//372 400//372 399//372
f 394//373 398//373 400//373
f 402//374 397//374 396//374
f 403//375 395//375 397//375
f 399//376 406//376 405//376
f 400//377 404//377 406//377
f 402//378 409//378 403//378
f 403//379 407//379 401//379
f 405//380 412//380 411//380
f 412//381 404//381 410//381
f 408//382 415//382 409//382
f 409//383 413//383 407//383
f 411//384 418//384 417//384
f 412//385 416//385 418//385
f 420//386 415//386 414//386
f 421//387 413//387 415//387
f 423//388 418//388 424//388
f 418//389 422//389 424//389
f 420//390 343//390 421//390
f 421//391 341//391 419//391
f 423//392 346//392 345//392
f 346//393 422//393 344//393
f 359//394 383//394 407//394
f 507//395 426//395 504//395
f 441//396 444//396 438//396
f 444//397 453//397 450//397
f 453//398 456//398 450//398
f 456//399 465//399 462//399
f 462//400 471//400 468//400
f 471//401 474//401 468//401
f 477//402 480//402 474//402
f 480//403 489//403 486//403
f 486//404 495//404 492//404
f 492//405 501//405 498//405
f 501//406 504//406 498//406
f 435//407 438//407 432//407
f 500//408 476//408 452//408
f 429//409 432//409 426//409
f 426//410 433//410 427//410
f 427//411 431//411 425//411
f 435//412 430//412 436//412
f 430//413 434//413 436//413
f 438//414 433//414 432//414
f 439//415 431//415 433//415
f 435//416 442//416 441//416
f 436//417 440//417 442//417
f 438//418 445//418 439//418
f 445//419 437//419 439//419
f 447//420 442//420 448//420
f 442//421 446//421 448//421
f 444//422 451//422 445//422
f 451//423 443//423 445//423
f 447//424 454//424 453//424
f 454//425 446//425 452//425
f 450//426 457//426 451//426
f 457//427 449//427 451//427
f 453//428 460//428 459//428
f 460//429 452//429 458//429
f 456//430 463//430 457//430
f 463//431 455//431 457//431
f 459//432 466//432 465//432
f 460//433 464//433 466//433
f 468//434 463//434 462//434
f 469//435 461//435 463//435
f 471//436 466//436 472//436
f 472//437 464//437 470//437
f 474//438 469//438 468//438
f 469//439 473//439 467//439
f 471//440 478//440 477//440
f 472//441 476//441 478//441
f 480//442 475//442 474//442
f 475//443 479//443 473//443
f 483//444 478//444 484//444
f 478//445 482//445 484//445
f 486//446 481//446 480//446
f 481//447 485//447 479//447
f 483//448 490//448 489//448
f 484//449 488//449 490//449
f 486//450 493//450 487//450
f 487//451 491//451 485//451
f 489//452 496//452 495//452
f 496//453 488//453 494//453
f 498//454 493//454 492//454
f 493//455 497//455 491//455
f 495//456 502//456 501//456
f 502//457 494//457 500//457
f 498//458 505//458 499//458
f 505//459 497//459 499//459
f 507//460 502//460 508//460
f 502//461 506//461 508//461
f 426//462 505//462 504//462
f 427//463 503//463 505//463
f 507//464 430//464 429//464
f 508//465 428//465 430//465
f 443//466 467//466 491//466
f 591//467 510//467 588//467
f 525//468 528//468 522//468
f 531//469 534//469 528//469
f 537//470 540//470 534//470
f 543//471 546//471 540//471
f 549//472 552//472 546//472
f 552//473 561//473 558//473
f 561//474 564//474 558//474
f 567//475 570//475 564//475
f 570//476 579//476 576//476
f 576//477 585//477 582//477
f 582//478 591//478 588//478
f 519//479 522//479 516//479
f 584//466 560//466 536//466
f 513//480 516//480 510//480
f 510//481 517//481 511//481
f 517//482 509//482 511//482
f 513//483 520//483 519//483
f 514//484 518//484 520//484
f 522//485 517//485 516//485
f 523//486 515//486 517//486
f 519//487 526//487 525//487
f 520//488 524//488 526//488
f 528//489 523//489 522//489
f 529//490 521//490 523//490
f 525//491 532//491 531//491
f 526//492 530//492 532//492
f 528//493 535//493 529//493
f 535//494 527//494 529//494
f 537//495 532//495 538//495
f 532//496 536//496 538//496
f 534//497 541//497 535//497
f 541//498 533//498 535//498
f 537//499 544//499 543//499
f 538//500 542//500 544//500
f 546//501 541//501 540//501
f 547//502 539//502 541//502
f 543//503 550//503 549//503
f 544//504 548//504 550//504
f 552//505 547//505 546//505
f 553//506 545//506 547//506
f 555//507 550//507 556//507
f 550//508 554//508 556//508
f 552//509 559//509 553//509
f 553//510 557//510 551//510
f 555//511 562//511 561//511
f 562//512 554//512 560//512
f 564//513 559//513 558//513
f 559//514 563//514 557//514
f 567//515 562//515 568//515
f 568//516 560//516 566//516
f 570//517 565//517 564//517
f 571//518 563//518 565//518
f 573//519 568//519 574//519
f 574//520 566//520 572//520
f 576//521 571//521 570//521
f 571//522 575//522 569//522
f 573//523 580//523 579//523
f 580//524 572//524 578//524
f 582//525 577//525 576//525
f 577//526 581//526 575//526
f 579//527 586//527 585//527
f 580//528 584//528 586//528
f 588//529 583//529 582//529
f 589//530 581//530 583//530
f 591//531 586//531 592//531
f 586//532 590//532 592//532
f 510//533 589//533 588//533
f 511//534 587//534 589//534
f 513//535 592//535 514//535
f 514//536 590//536 512//536
f 527//408 551//408 575//408
f 675//537 594//537 672//537
f 606//538 615//538 612//538
f 615//539 618//539 612//539
f 621//540 624//540 618//540
f 624//541 633//541 630//541
f 633//542 636//542 630//542
f 639//543 642//543 636//543
f 642//544 651//544 648//544
f 651//545 654//545 648//545
f 657//546 660//546 654//546
f 660//547 669//547 666//547
f 669//548 672//548 666//548
f 603//549 606//549 600//549
f 668//550 644//550 620//550
f 597//551 600//551 594//551
f 600//552 595//552 594//552
f 595//553 599//553 593//553
f 603//554 598//554 604//554
f 598//555 602//555 604//555
f 600//556 607//556 601//556
f 601//557 605//557 599//557
f 609//558 604//558 610//558
f 610//559 602//559 608//559
f 612//560 607//560 606//560
f 613//561 605//561 607//561
f 609//562 616//562 615//562
f 616//563 608//563 614//563
f 612//564 619//564 613//564
f 613//565 617//565 611//565
f 615//566 622//566 621//566
f 622//567 614//567 620//567
f 618//568 625//568 619//568
f 619//569 623//569 617//569
f 621//570 628//570 627//570
f 622//571 626//571 628//571
f 624//572 631//572 625//572
f 625//573 629//573 623//573
f 633//574 628//574 634//574
f 634//575 626//575 632//575
f 636//576 631//576 630//576
f 631//577 635//577 629//577
f 639//578 634//578 640//578
f 634//579 638//579 640//579
f 642//580 637//580 636//580
f 637//581 641//581 635//581
f 639//582 646//582 645//582
f 640//583 644//583 646//583
f 642//584 649//584 643//584
f 643//585 647//585 641//585
f 645//586 652//586 651//586
f 646//587 650//587 652//587
f 648//588 655//588 649//588
f 655//589 647//589 649//589
f 657//590 652//590 658//590
f 658//591 650//591 656//591
f 660//592 655//592 654//592
f 655//593 659//593 653//593
f 657//594 664//594 663//594
f 658//595 662//595 664//595
f 660//596 667//596 661//596
f 667//597 659//597 661//597
f 663//598 670//598 669//598
f 664//599 668//599 670//599
f 672//600 667//600 666//600
f 673//601 665//601 667//601
f 669//602 676//602 675//602
f 670//603 674//603 676//603
f 594//604 673//604 672//604
f 673//605 593//605 671//605
f 597//606 676//606 598//606
f 598//607 674//607 596//607
f 611//608 635//608 659//608
f 83//1 5//1 2//1
f 17//2 23//2 20//2
f 23//3 29//3 26//3
f 29//4 35//4 32//4
f 35//5 41//5 38//5
f 41//6 47//6 44//6
f 47//7 53//7 50//7
f 53//8 59//8 56//8
f 59//9 65//9 62//9
f 65//10 71//10 68//10
f 71//11 77//11 74//11
f 77//12 83//12 80//12
f 11//13 17//13 14//13
f 16//14 10//14 4//14
f 4//14 82//14 76//14
f 76//14 70//14 64//14
f 64//14 58//14 52//14
f 52//14 46//14 40//14
f 40//14 34//14 28//14
f 28//14 22//14 16//14
f 16//14 4//14 76//14
f 76//14 64//14 52//14
f 52//14 40//14 28//14
f 28//14 16//14 76//14
f 5//15 11//15 8//15
f 8//16 9//16 3//16
f 3//17 9//17 7//17
f 5//18 6//18 12//18
f 6//19 4//19 10//19
f 14//20 15//20 9//20
f 15//21 13//21 7//21
f 17//22 11//22 12//22
f 12//23 10//23 16//23
f 20//24 21//24 15//24
f 21//25 19//25 13//25
f 23//26 17//26 18//26
f 24//27 18//27 16//27
f 26//28 27//28 21//28
f 21//29 27//29 25//29
f 23//30 24//30 30//30
f 30//31 24//31 22//31
f 26//32 32//32 33//32
f 27//33 33//33 31//33
f 29//34 30//34 36//34
f 30//35 28//35 34//35
f 32//609 38//609 39//609
f 39//37 37//37 31//37
f 35//610 36//610 42//610
f 36//39 34//39 40//39
f 44//40 45//40 39//40
f 45//41 43//41 37//41
f 41//42 42//42 48//42
f 48//43 42//43 40//43
f 50//44 51//44 45//44
f 45//45 51//45 49//45
f 47//46 48//46 54//46
f 48//47 46//47 52//47
f 56//48 57//48 51//48
f 57//49 55//49 49//49
f 59//50 53//50 54//50
f 54//51 52//51 58//51
f 62//52 63//52 57//52
f 63//53 61//53 55//53
f 65//54 59//54 60//54
f 66//55 60//55 58//55
f 68//56 69//56 63//56
f 63//57 69//57 67//57
f 65//58 66//58 72//58
f 72//59 66//59 64//59
f 68//60 74//60 75//60
f 69//61 75//61 73//61
f 71//62 72//62 78//62
f 72//63 70//63 76//63
f 74//611 80//611 81//611
f 81//65 79//65 73//65
f 77//612 78//612 84//612
f 78//67 76//67 82//67
f 2//68 3//68 81//68
f 3//69 1//69 79//69
f 83//70 84//70 6//70
f 6//71 84//71 82//71
f 79//72 1//72 7//72
f 7//72 13//72 19//72
f 19//72 25//72 31//72
f 31//72 37//72 43//72
f 43//72 49//72 55//72
f 55//72 61//72 67//72
f 67//72 73//72 79//72
f 79//72 7//72 19//72
f 19//72 31//72 43//72
f 43//72 55//72 67//72
f 67//72 79//72 19//72
f 94//74 112//74 114//74
f 91//75 243//75 245//75
f 245//75 241//75 87//75
f 87//75 92//75 91//75
f 125//76 107//76 109//76
f 109//76 105//76 122//76
f 122//76 126//76 125//76
f 118//77 102//77 99//77
f 99//77 98//77 114//77
f 114//77 116//77 118//77
f 94//78 90//78 108//78
f 102//79 254//79 252//79
f 252//613 251//613 97//613
f 97//79 99//79 102//79
f 243//80 91//80 95//80
f 251//83 247//83 95//83
f 115//85 111//85 129//85
f 107//86 125//86 129//86
f 142//87 124//87 126//87
f 126//87 122//87 139//87
f 139//87 143//87 142//87
f 135//88 118//88 116//88
f 116//88 115//88 131//88
f 131//88 133//88 135//88
f 124//91 142//91 146//91
f 159//92 141//92 143//92
f 143//92 139//92 156//92
f 156//92 160//92 159//92
f 152//93 135//93 133//93
f 133//93 132//93 148//93
f 148//93 150//93 152//93
f 132//96 128//96 146//96
f 176//97 158//97 160//97
f 160//97 156//97 173//97
f 173//97 177//97 176//97
f 169//98 152//98 150//98
f 150//98 149//98 165//98
f 165//98 167//98 169//98
f 149//101 145//101 163//101
f 141//102 159//102 163//102
f 193//103 175//103 177//103
f 177//103 173//103 190//103
f 190//103 194//103 193//103
f 186//104 169//104 167//104
f 167//104 166//104 182//104
f 182//104 184//104 186//104
f 162//107 180//107 182//107
f 158//108 176//108 180//108
f 203//110 186//110 184//110
f 184//614 183//614 199//614
f 199//110 201//110 203//110
f 183//113 179//113 197//113
f 175//114 193//114 197//114
f 220//115 203//115 201//115
f 201//115 200//115 216//115
f 216//115 218//115 220//115
f 192//116 210//116 214//116
f 200//118 196//118 214//118
f 210//615 192//615 194//615
f 194//119 190//119 207//119
f 207//119 211//119 210//119
f 227//120 209//120 211//120
f 211//120 207//120 224//120
f 224//120 228//120 227//120
f 213//123 231//123 233//123
f 209//124 227//124 231//124
f 244//125 226//125 228//125
f 228//125 224//125 241//125
f 241//125 245//125 244//125
f 237//126 220//126 218//126
f 218//126 217//126 233//126
f 233//126 235//126 237//126
f 230//128 248//128 250//128
f 226//129 244//129 248//129
f 254//130 237//130 235//130
f 235//616 234//616 250//616
f 250//130 252//130 254//130
f 94//617 96//617 93//617
f 93//618 96//618 95//618
f 94//619 98//619 100//619
f 100//620 97//620 95//620
f 111//621 113//621 110//621
f 110//622 113//622 112//622
f 111//623 115//623 117//623
f 117//624 114//624 112//624
f 119//180 101//180 103//180
f 120//181 103//181 102//181
f 105//182 87//182 89//182
f 106//183 89//183 88//183
f 128//625 130//625 127//625
f 127//626 130//626 129//626
f 128//627 132//627 134//627
f 134//628 131//628 129//628
f 122//188 105//188 106//188
f 106//189 104//189 121//189
f 135//190 137//190 120//190
f 137//191 136//191 119//191
f 145//629 147//629 144//629
f 144//630 147//630 146//630
f 145//631 149//631 151//631
f 151//632 148//632 146//632
f 122//196 123//196 140//196
f 123//197 121//197 138//197
f 135//198 152//198 154//198
f 154//199 153//199 136//199
f 162//633 164//633 161//633
f 161//634 164//634 163//634
f 162//635 166//635 168//635
f 168//636 165//636 163//636
f 152//204 169//204 171//204
f 171//205 170//205 153//205
f 155//206 157//206 140//206
f 157//207 156//207 139//207
f 179//637 181//637 178//637
f 178//638 181//638 180//638
f 179//639 183//639 185//639
f 185//640 182//640 180//640
f 186//212 188//212 171//212
f 171//213 188//213 187//213
f 172//214 174//214 157//214
f 157//215 174//215 173//215
f 196//641 198//641 195//641
f 195//642 198//642 197//642
f 196//643 200//643 202//643
f 202//644 199//644 197//644
f 203//220 205//220 188//220
f 205//221 204//221 187//221
f 172//222 189//222 191//222
f 191//223 190//223 173//223
f 213//645 215//645 212//645
f 212//646 215//646 214//646
f 213//647 217//647 219//647
f 219//648 216//648 214//648
f 206//228 208//228 191//228
f 208//229 207//229 190//229
f 204//230 205//230 222//230
f 205//231 203//231 220//231
f 230//649 232//649 229//649
f 229//650 232//650 231//650
f 230//651 234//651 236//651
f 236//652 233//652 231//652
f 223//236 225//236 208//236
f 225//237 224//237 207//237
f 221//238 222//238 239//238
f 239//239 222//239 220//239
f 247//653 249//653 246//653
f 246//654 249//654 248//654
f 247//655 251//655 253//655
f 253//656 250//656 248//656
f 255//244 238//244 239//244
f 256//245 239//245 237//245
f 224//246 225//246 242//246
f 225//247 223//247 240//247
f 255//248 256//248 103//248
f 256//249 254//249 102//249
f 87//250 241//250 242//250
f 89//251 242//251 240//251
f 108//252 90//252 92//252
f 92//252 87//252 105//252
f 105//252 109//252 108//252
f 339//253 261//253 258//253
f 273//254 279//254 276//254
f 279//255 285//255 282//255
f 285//256 291//256 288//256
f 291//257 297//257 294//257
f 297//258 303//258 300//258
f 303//259 309//259 306//259
f 309//260 315//260 312//260
f 312//261 315//261 321//261
f 321//262 327//262 324//262
f 324//263 327//263 333//263
f 330//264 333//264 339//264
f 267//265 273//265 270//265
f 272//72 266//72 260//72
f 260//72 338//72 332//72
f 332//72 326//72 320//72
f 320//72 314//72 308//72
f 308//72 302//72 296//72
f 296//72 290//72 284//72
f 284//72 278//72 272//72
f 272//72 260//72 332//72
f 332//72 320//72 308//72
f 308//72 296//72 284//72
f 284//72 272//72 332//72
f 261//266 267//266 264//266
f 264//267 265//267 259//267
f 259//268 265//268 263//268
f 261//269 262//269 268//269
f 262//270 260//270 266//270
f 270//271 271//271 265//271
f 265//272 271//272 269//272
f 267//273 268//273 274//273
f 268//274 266//274 272//274
f 270//275 276//275 277//275
f 271//276 277//276 275//276
f 279//277 273//277 274//277
f 280//278 274//278 272//278
f 282//279 283//279 277//279
f 283//280 281//280 275//280
f 285//657 279//657 280//657
f 280//282 278//282 284//282
f 282//283 288//283 289//283
f 289//284 287//284 281//284
f 291//285 285//285 286//285
f 292//286 286//286 284//286
f 288//287 294//287 295//287
f 295//288 293//288 287//288
f 291//658 292//658 298//658
f 298//290 292//290 290//290
f 300//291 301//291 295//291
f 301//292 299//292 293//292
f 297//293 298//293 304//293
f 304//294 298//294 296//294
f 300//295 306//295 307//295
f 307//296 305//296 299//296
f 303//297 304//297 310//297
f 304//298 302//298 308//298
f 306//299 312//299 313//299
f 313//300 311//300 305//300
f 315//301 309//301 310//301
f 310//659 308//659 314//659
f 318//303 319//303 313//303
f 319//304 317//304 311//304
f 315//305 316//305 322//305
f 316//306 314//306 320//306
f 318//307 324//307 325//307
f 319//308 325//308 323//308
f 321//660 322//660 328//660
f 322//310 320//310 326//310
f 324//311 330//311 331//311
f 325//312 331//312 329//312
f 327//313 328//313 334//313
f 334//314 328//314 326//314
f 336//315 337//315 331//315
f 337//316 335//316 329//316
f 333//317 334//317 340//317
f 340//661 334//661 332//661
f 336//319 258//319 259//319
f 259//320 257//320 335//320
f 339//321 340//321 262//321
f 262//322 340//322 338//322
f 335//14 257//14 263//14
f 263//14 269//14 275//14
f 275//14 281//14 287//14
f 287//14 293//14 299//14
f 299//14 305//14 311//14
f 311//14 317//14 323//14
f 323//14 329//14 335//14
f 335//14 263//14 275//14
f 275//14 287//14 299//14
f 299//14 311//14 323//14
f 323//14 335//14 275//14
f 423//323 345//323 342//323
f 357//324 363//324 360//324
f 363//325 369//325 366//325
f 369//326 375//326 372//326
f 372//327 375//327 381//327
f 381//328 387//328 384//328
f 384//329 387//329 393//329
f 393//330 399//330 396//330
f 399//331 405//331 402//331
f 402//332 405//332 411//332
f 411//333 417//333 414//333
f 417//334 423//334 420//334
f 351//335 357//335 354//335
f 356//336 350//336 344//336
f 344//336 422//336 416//336
f 416//662 410//662 404//662
f 404//336 398//336 392//336
f 392//336 386//336 380//336
f 380//336 374//336 368//336
f 368//336 362//336 356//336
f 356//336 344//336 416//336
f 416//336 404//336 392//336
f 392//336 380//336 368//336
f 368//336 356//336 416//336
f 345//337 351//337 348//337
f 342//338 348//338 349//338
f 349//339 347//339 341//339
f 351//340 345//340 346//340
f 346//341 344//341 350//341
f 354//342 355//342 349//342
f 349//343 355//343 353//343
f 357//344 351//344 352//344
f 358//345 352//345 350//345
f 360//346 361//346 355//346
f 361//347 359//347 353//347
f 363//348 357//348 358//348
f 364//349 358//349 356//349
f 360//350 366//350 367//350
f 367//351 365//351 359//351
f 363//352 364//352 370//352
f 364//353 362//353 368//353
f 366//354 372//354 373//354
f 367//355 373//355 371//355
f 369//356 370//356 376//356
f 370//357 368//357 374//357
f 372//358 378//358 379//358
f 379//359 377//359 371//359
f 381//360 375//360 376//360
f 382//361 376//361 374//361
f 378//362 384//362 385//362
f 385//363 383//363 377//363
f 387//364 381//364 382//364
f 382//365 380//365 386//365
f 390//366 391//366 385//366
f 385//367 391//367 389//367
f 387//368 388//368 394//368
f 388//369 386//369 392//369
f 396//370 397//370 391//370
f 397//371 395//371 389//371
f 393//372 394//372 400//372
f 394//373 392//373 398//373
f 402//374 403//374 397//374
f 403//375 401//375 395//375
f 399//376 400//376 406//376
f 400//377 398//377 404//377
f 402//378 408//378 409//378
f 403//379 409//379 407//379
f 405//380 406//380 412//380
f 412//381 406//381 404//381
f 408//382 414//382 415//382
f 409//383 415//383 413//383
f 411//384 412//384 418//384
f 412//385 410//385 416//385
f 420//386 421//386 415//386
f 421//387 419//387 413//387
f 423//388 417//388 418//388
f 418//663 416//663 422//663
f 420//390 342//390 343//390
f 421//391 343//391 341//391
f 423//392 424//392 346//392
f 346//393 424//393 422//393
f 419//394 341//394 347//394
f 347//394 353//394 359//394
f 359//394 365//394 371//394
f 371//394 377//394 383//394
f 383//394 389//394 395//394
f 395//394 401//394 407//394
f 407//394 413//394 419//394
f 419//394 347//394 359//394
f 359//394 371//394 383//394
f 383//394 395//394 407//394
f 407//394 419//394 359//394
f 507//395 429//395 426//395
f 441//396 447//396 444//396
f 444//397 447//397 453//397
f 453//398 459//398 456//398
f 456//399 459//399 465//399
f 462//400 465//400 471//400
f 471//401 477//401 474//401
f 477//402 483//402 480//402
f 480//403 483//403 489//403
f 486//404 489//404 495//404
f 492//405 495//405 501//405
f 501//406 507//406 504//406
f 435//407 441//407 438//407
f 440//408 434//408 428//408
f 428//408 506//408 500//408
f 500//408 494//408 488//408
f 488//408 482//408 476//408
f 476//408 470//408 464//408
f 464//408 458//408 452//408
f 452//408 446//408 440//408
f 440//408 428//408 500//408
f 500//408 488//408 476//408
f 476//408 464//408 452//408
f 452//408 440//408 500//408
f 429//409 435//409 432//409
f 426//410 432//410 433//410
f 427//411 433//411 431//411
f 435//412 429//412 430//412
f 430//413 428//413 434//413
f 438//664 439//664 433//664
f 439//415 437//415 431//415
f 435//665 436//665 442//665
f 436//417 434//417 440//417
f 438//418 444//418 445//418
f 445//419 443//419 437//419
f 447//420 441//420 442//420
f 442//421 440//421 446//421
f 444//422 450//422 451//422
f 451//423 449//423 443//423
f 447//666 448//666 454//666
f 454//425 448//425 446//425
f 450//426 456//426 457//426
f 457//427 455//427 449//427
f 453//667 454//667 460//667
f 460//429 454//429 452//429
f 456//430 462//430 463//430
f 463//431 461//431 455//431
f 459//432 460//432 466//432
f 460//433 458//433 464//433
f 468//434 469//434 463//434
f 469//435 467//435 461//435
f 471//436 465//436 466//436
f 472//437 466//437 464//437
f 474//438 475//438 469//438
f 469//439 475//439 473//439
f 471//440 472//440 478//440
f 472//441 470//441 476//441
f 480//668 481//668 475//668
f 475//443 481//443 479//443
f 483//669 477//669 478//669
f 478//445 476//445 482//445
f 486//446 487//446 481//446
f 481//447 487//447 485//447
f 483//670 484//670 490//670
f 484//449 482//449 488//449
f 486//450 492//450 493//450
f 487//451 493//451 491//451
f 489//671 490//671 496//671
f 496//453 490//453 488//453
f 498//454 499//454 493//454
f 493//455 499//455 497//455
f 495//456 496//456 502//456
f 502//457 496//457 494//457
f 498//458 504//458 505//458
f 505//459 503//459 497//459
f 507//460 501//460 502//460
f 502//461 500//461 506//461
f 426//462 427//462 505//462
f 427//463 425//463 503//463
f 507//464 508//464 430//464
f 508//465 506//465 428//465
f 503//466 425//466 431//466
f 431//466 437//466 443//466
f 443//466 449//466 455//466
f 455//466 461//466 467//466
f 467//466 473//466 479//466
f 479//466 485//466 491//466
f 491//466 497//466 503//466
f 503//466 431//466 443//466
f 443//466 455//466 467//466
f 467//466 479//466 491//466
f 491//466 503//466 443//466
f 591//467 513//467 510//467
f 525//468 531//468 528//468
f 531//469 537//469 534//469
f 537//470 543//470 540//470
f 543//471 549//471 546//471
f 549//472 555//472 552//472
f 552//473 555//473 561//473
f 561//474 567//474 564//474
f 567//475 573//475 570//475
f 570//476 573//476 579//476
f 576//477 579//477 585//477
f 582//478 585//478 591//478
f 519//479 525//479 522//479
f 524//466 518//466 512//466
f 512//466 590//466 584//466
f 584//466 578//466 572//466
f 572//466 566//466 560//466
f 560//466 554//466 548//466
f 548//466 542//466 536//466
f 536//466 530//466 524//466
f 524//466 512//466 584//466
f 584//466 572//466 560//466
f 560//466 548//466 536//466
f 536//466 524//466 584//466
f 513//480 519//480 516//480
f 510//481 516//481 517//481
f 517//482 515//482 509//482
f 513//483 514//483 520//483
f 514//484 512//484 518//484
f 522//672 523//672 517//672
f 523//486 521//486 515//486
f 519//673 520//673 526//673
f 520//488 518//488 524//488
f 528//489 529//489 523//489
f 529//490 527//490 521//490
f 525//491 526//491 532//491
f 526//492 524//492 530//492
f 528//493 534//493 535//493
f 535//494 533//494 527//494
f 537//495 531//495 532//495
f 532//496 530//496 536//496
f 534//497 540//497 541//497
f 541//498 539//498 533//498
f 537//499 538//499 544//499
f 538//500 536//500 542//500
f 546//501 547//501 541//501
f 547//502 545//502 539//502
f 543//503 544//503 550//503
f 544//504 542//504 548//504
f 552//505 553//505 547//505
f 553//506 551//506 545//506
f 555//507 549//507 550//507
f 550//508 548//508 554//508
f 552//509 558//509 559//509
f 553//510 559//510 557//510
f 555//511 556//511 562//511
f 562//512 556//512 554//512
f 564//674 565//674 559//674
f 559//514 565//514 563//514
f 567//675 561//675 562//675
f 568//516 562//516 560//516
f 570//517 571//517 565//517
f 571//518 569//518 563//518
f 573//519 567//519 568//519
f 574//520 568//520 566//520
f 576//521 577//521 571//521
f 571//522 577//522 575//522
f 573//523 574//523 580//523
f 580//524 574//524 572//524
f 582//525 583//525 577//525
f 577//526 583//526 581//526
f 579//527 580//527 586//527
f 580//528 578//528 584//528
f 588//529 589//529 583//529
f 589//530 587//530 581//530
f 591//531 585//531 586//531
f 586//532 584//532 590//532
f 510//533 511//533 589//533
f 511//534 509//534 587//534
f 513//535 591//535 592//535
f 514//536 592//536 590//536
f 587//408 509//408 515//408
f 515//408 521//408 527//408
f 527//408 533//408 539//408
f 539//408 545//408 551//408
f 551//408 557//408 563//408
f 563//408 569//408 575//408
f 575//408 581//408 587//408
f 587//408 515//408 527//408
f 527//408 539//408 551//408
f 551//408 563//408 575//408
f 575//408 587//408 527//408
f 675//537 597//537 594//537
f 606//538 609//538 615//538
f 615//539 621//539 618//539
f 621//540 627//540 624//540
f 624//541 627//541 633//541
f 633//542 639//542 636//542
f 639//543 645//543 642//543
f 642//544 645//544 651//544
f 651//545 657//545 654//545
f 657//546 663//546 660//546
f 660//547 663//547 669//547
f 669//548 675//548 672//548
f 603//549 609//549 606//549
f 608//550 602//550 596//550
f 596//550 674//550 668//550
f 668//550 662//550 656//550
f 656//550 650//550 644//550
f 644//550 638//550 632//550
f 632//550 626//550 620//550
f 620//550 614//550 608//550
f 608//550 596//550 668//550
f 668//550 656//550 644//550
f 644//550 632//550 620//550
f 620//550 608//550 668//550
f 597//551 603//551 600//551
f 600//552 601//552 595//552
f 595//553 601//553 599//553
f 603//554 597//554 598//554
f 598//555 596//555 602//555
f 600//556 606//556 607//556
f 601//676 607//676 605//676
f 609//558 603//558 604//558
f 610//559 604//559 602//559
f 612//560 613//560 607//560
f 613//561 611//561 605//561
f 609//562 610//562 616//562
f 616//563 610//563 608//563
f 612//564 618//564 619//564
f 613//565 619//565 617//565
f 615//566 616//566 622//566
f 622//567 616//567 614//567
f 618//568 624//568 625//568
f 619//569 625//569 623//569
f 621//570 622//570 628//570
f 622//571 620//571 626//571
f 624//572 630//572 631//572
f 625//573 631//573 629//573
f 633//574 627//574 628//574
f 634//575 628//575 626//575
f 636//576 637//576 631//576
f 631//577 637//577 635//577
f 639//578 633//578 634//578
f 634//579 632//579 638//579
f 642//580 643//580 637//580
f 637//581 643//581 641//581
f 639//582 640//582 646//582
f 640//583 638//583 644//583
f 642//584 648//584 649//584
f 643//585 649//585 647//585
f 645//586 646//586 652//586
f 646//677 644//677 650//677
f 648//588 654//588 655//588
f 655//589 653//589 647//589
f 657//590 651//590 652//590
f 658//591 652//591 650//591
f 660//592 661//592 655//592
f 655//593 661//593 659//593
f 657//594 658//594 664//594
f 658//595 656//595 662//595
f 660//596 666//596 667//596
f 667//597 665//597 659//597
f 663//598 664//598 670//598
f 664//599 662//599 668//599
f 672//600 673//600 667//600
f 673//601 671//601 665//601
f 669//602 670//602 676//602
f 670//603 668//603 674//603
f 594//604 595//604 673//604
f 673//605 595//605 593//605
f 597//606 675//606 676//606
f 598//607 676//607 674//607
f 671//608 593//608 599//608
f 599//608 605//608 611//608
f 611//608 617//608 623//608
f 623//608 629//608 635//608
f 635//608 641//608 647//608
f 647//608 653//608 659//608
f 659//608 665//608 671//608
f 671//608 599//608 611//608
f 611//608 623//608 635//608
f 635//608 647//608 659//608
f 659//608 671//608 611//608
