# Blender 4.0.2
# www.blender.org
o Headrest
v -0.155200 0.478725 1.570017
v -0.155200 0.479998 1.573411
v -0.160000 0.481058 1.572350
v -0.155200 0.478658 1.571450
v -0.157971 0.479099 1.571616
v -0.158594 0.480308 1.573100
v -0.158594 0.479408 1.570700
v -0.155200 0.630894 1.724308
v -0.155200 0.634288 1.725580
v -0.160000 0.631955 1.723247
v -0.155200 0.632855 1.725647
v -0.157971 0.632690 1.725207
v -0.158594 0.633605 1.724897
v -0.158594 0.631205 1.723997
v -0.155200 0.547314 1.501428
v -0.160000 0.549648 1.503761
v -0.155200 0.550708 1.502700
v -0.158594 0.547998 1.502111
v -0.157971 0.548913 1.501801
v -0.158594 0.550398 1.503011
v -0.155200 0.548748 1.501361
v -0.155200 0.702878 1.656991
v -0.155200 0.701605 1.653597
v -0.160000 0.700544 1.654658
v -0.155200 0.702944 1.655558
v -0.157971 0.702504 1.655393
v -0.158594 0.701294 1.653908
v -0.158594 0.702194 1.656308
v 0.155200 0.478725 1.570017
v 0.160000 0.481058 1.572350
v 0.155200 0.479998 1.573411
v 0.158594 0.479408 1.570700
v 0.157971 0.479099 1.571616
v 0.158594 0.480308 1.573100
v 0.155200 0.478658 1.571450
v 0.155200 0.634288 1.725580
v 0.155200 0.630894 1.724308
v 0.160000 0.631955 1.723247
v 0.155200 0.632855 1.725647
v 0.157971 0.632690 1.725207
v 0.158594 0.631205 1.723997
v 0.158594 0.633605 1.724897
v 0.155200 0.547314 1.501428
v 0.155200 0.550708 1.502700
v 0.160000 0.549648 1.503761
v 0.155200 0.548748 1.501361
v 0.157971 0.548913 1.501801
v 0.158594 0.550398 1.503011
v 0.158594 0.547998 1.502111
v 0.155200 0.702878 1.656991
v 0.160000 0.700544 1.654658
v 0.155200 0.701605 1.653597
v 0.158594 0.702194 1.656308
v 0.157971 0.702504 1.655393
v 0.158594 0.701294 1.653908
v 0.155200 0.702944 1.655558
vn -0.0000 -0.7071 0.7071
vn 1.0000 -0.0000 -0.0000
vn -0.0000 0.7071 0.7071
vn -1.0000 -0.0000 -0.0000
vn -0.0000 0.7071 -0.7071
vn -0.2273 -0.9589 -0.1697
vn -0.0971 -0.8218 0.5614
vn -0.5802 -0.7335 0.3541
vn -0.1271 -0.5939 0.7945
vn -0.1594 0.0458 0.9861
vn -0.6458 -0.1893 0.7396
vn -0.1594 -0.0458 -0.9861
vn -0.6458 0.1893 -0.7396
vn -0.1271 0.5939 -0.7945
vn -0.2273 0.9589 0.1697
vn -0.0971 0.8218 -0.5614
vn -0.5802 0.7335 -0.3541
vn 0.1594 -0.9861 -0.0458
vn 0.6458 -0.7396 0.1893
vn 0.1271 -0.7945 0.5939
vn 0.2273 0.1697 0.9589
vn 0.0971 -0.5614 0.8218
vn 0.5802 -0.3541 0.7335
vn 0.2273 -0.1697 -0.9589
vn 0.0971 0.5614 -0.8218
vn 0.5802 0.3541 -0.7335
vn 0.1594 0.9861 0.0458
vn 0.6458 0.7396 -0.1893
vn 0.1271 0.7945 -0.5939
vn -0.2739 -0.6801 -0.6801
vn -0.8565 -0.3649 -0.3649
vn -0.1284 -0.7013 0.7013
vn -0.6023 -0.5645 0.5645
vn -0.2739 0.6801 0.6801
vn -0.8565 0.3649 0.3649
vn -0.1284 0.7013 -0.7013
vn -0.6023 0.5645 -0.5645
vn -0.0000 -0.0464 -0.9989
vn -0.0000 0.5641 -0.8257
vn -0.0000 0.9989 0.0464
vn -0.0000 0.8257 -0.5641
vn 0.6023 0.5645 -0.5645
vn 0.1284 0.7013 -0.7013
vn 0.2739 -0.6801 -0.6801
vn 0.8565 -0.3649 -0.3649
vn 0.2739 0.6801 0.6801
vn 0.8565 0.3649 0.3649
vn 0.1284 -0.7013 0.7013
vn 0.6023 -0.5645 0.5645
vn -0.0000 -0.9989 -0.0464
vn -0.0000 -0.8257 0.5641
vn -0.0000 0.0464 0.9989
vn -0.0000 -0.5641 0.8257
vn -0.0000 -0.7071 -0.7071
vn -0.1594 -0.9861 -0.0458
vn -0.1271 -0.7945 0.5939
vn -0.6458 -0.7396 0.1893
vn -0.0971 -0.5614 0.8218
vn -0.2273 0.1697 0.9589
vn -0.5802 -0.3541 0.7335
vn -0.2273 -0.1697 -0.9589
vn -0.5802 0.3541 -0.7335
vn -0.0971 0.5614 -0.8218
vn -0.1594 0.9861 0.0458
vn -0.1271 0.7945 -0.5939
vn -0.6458 0.7396 -0.1893
vn 0.2273 -0.9589 -0.1697
vn 0.5802 -0.7335 0.3541
vn 0.0971 -0.8218 0.5614
vn 0.1594 0.0458 0.9861
vn 0.1271 -0.5939 0.7945
vn 0.6458 -0.1893 0.7396
vn 0.1594 -0.0458 -0.9861
vn 0.1271 0.5939 -0.7945
vn 0.6458 0.1893 -0.7396
vn 0.2273 0.9589 0.1697
vn 0.5802 0.7335 -0.3541
vn 0.0971 0.8218 -0.5614
s 0
f 37//1 2//1 31//1
f 51//2 30//2 45//2
f 22//3 36//3 50//3
f 10//4 16//4 3//4
f 23//5 44//5 17//5
f 1//6 5//6 7//6
f 2//7 5//7 4//7
f 3//8 5//8 6//8
f 8//9 12//9 14//9
f 9//10 12//10 11//10
f 10//11 12//11 13//11
f 15//12 19//12 21//12
f 16//13 19//13 18//13
f 17//14 19//14 20//14
f 22//15 26//15 28//15
f 23//16 26//16 25//16
f 24//17 26//17 27//17
f 29//18 33//18 35//18
f 30//19 33//19 32//19
f 31//20 33//20 34//20
f 36//21 40//21 42//21
f 37//22 40//22 39//22
f 38//23 40//23 41//23
f 43//24 47//24 49//24
f 44//25 47//25 46//25
f 45//26 47//26 48//26
f 50//27 54//27 56//27
f 51//28 54//28 53//28
f 52//29 54//29 55//29
f 1//30 18//30 15//30
f 7//31 16//31 18//31
f 8//32 6//32 2//32
f 14//33 3//33 6//33
f 22//34 13//34 9//34
f 28//35 10//35 13//35
f 17//36 27//36 23//36
f 20//37 24//37 27//37
f 15//38 46//38 43//38
f 21//39 44//39 46//39
f 50//40 25//40 22//40
f 56//41 23//41 25//41
f 45//42 55//42 51//42
f 48//43 52//43 55//43
f 43//44 32//44 29//44
f 49//45 30//45 32//45
f 36//46 53//46 50//46
f 42//47 51//47 53//47
f 31//48 41//48 37//48
f 34//49 38//49 41//49
f 29//50 4//50 1//50
f 35//51 2//51 4//51
f 9//52 39//52 36//52
f 11//53 37//53 39//53
f 43//54 1//54 15//54
f 37//1 8//1 2//1
f 51//2 38//2 30//2
f 22//3 9//3 36//3
f 10//4 24//4 16//4
f 23//5 52//5 44//5
f 1//55 4//55 5//55
f 2//56 6//56 5//56
f 3//57 7//57 5//57
f 8//58 11//58 12//58
f 9//59 13//59 12//59
f 10//60 14//60 12//60
f 15//61 18//61 19//61
f 16//62 20//62 19//62
f 17//63 21//63 19//63
f 22//64 25//64 26//64
f 23//65 27//65 26//65
f 24//66 28//66 26//66
f 29//67 32//67 33//67
f 30//68 34//68 33//68
f 31//69 35//69 33//69
f 36//70 39//70 40//70
f 37//71 41//71 40//71
f 38//72 42//72 40//72
f 43//73 46//73 47//73
f 44//74 48//74 47//74
f 45//75 49//75 47//75
f 50//76 53//76 54//76
f 51//77 55//77 54//77
f 52//78 56//78 54//78
f 1//30 7//30 18//30
f 7//31 3//31 16//31
f 8//32 14//32 6//32
f 14//33 10//33 3//33
f 22//34 28//34 13//34
f 28//35 24//35 10//35
f 17//36 20//36 27//36
f 20//37 16//37 24//37
f 15//38 21//38 46//38
f 21//39 17//39 44//39
f 50//40 56//40 25//40
f 56//41 52//41 23//41
f 45//42 48//42 55//42
f 48//43 44//43 52//43
f 43//44 49//44 32//44
f 49//45 45//45 30//45
f 36//46 42//46 53//46
f 42//47 38//47 51//47
f 31//48 34//48 41//48
f 34//49 30//49 38//49
f 29//50 35//50 4//50
f 35//51 31//51 2//51
f 9//52 11//52 39//52
f 11//53 8//53 37//53
f 43//54 29//54 1//54
