# Blender 4.0.2
# www.blender.org
o Mirror
v 0.384144 1.174450 0.930008
v 0.386510 1.177707 0.929122
v 0.386510 1.177707 0.926702
v 0.384144 1.174450 0.925816
v 0.386142 1.171700 0.930008
v 0.389971 1.172944 0.929122
v 0.389971 1.172944 0.926702
v 0.386142 1.171700 0.925816
v 0.386142 1.168300 0.930008
v 0.389971 1.167056 0.929122
v 0.389971 1.167056 0.926702
v 0.386142 1.168300 0.925816
v 0.384144 1.165550 0.930008
v 0.386510 1.162293 0.929122
v 0.386510 1.162293 0.926702
v 0.384144 1.165550 0.925816
v 0.380911 1.164500 0.930008
v 0.380911 1.160474 0.929122
v 0.380911 1.160474 0.926702
v 0.380911 1.164500 0.925816
v 0.377678 1.165550 0.930008
v 0.375311 1.162293 0.929122
v 0.375311 1.162293 0.926702
v 0.377678 1.165550 0.925816
v 0.380911 1.170000 0.925492
v 0.375680 1.168300 0.930008
v 0.371851 1.167056 0.929122
v 0.371851 1.167056 0.926702
v 0.375680 1.168300 0.925816
v 0.380911 1.170000 0.930332
v 0.375680 1.171700 0.930008
v 0.371851 1.172944 0.929122
v 0.371851 1.172944 0.926702
v 0.375680 1.171700 0.925816
v 0.377678 1.174450 0.930008
v 0.375311 1.177707 0.929122
v 0.375311 1.177707 0.926702
v 0.377678 1.174450 0.925816
v 0.380911 1.175500 0.930008
v 0.380911 1.179526 0.929122
v 0.380911 1.179526 0.926702
v 0.380911 1.175500 0.925816
v 0.387096 1.178513 0.927520
v 0.387096 1.178513 0.928304
v 0.387201 1.178658 0.927912
v 0.390918 1.173252 0.928304
v 0.390918 1.173252 0.927520
v 0.391088 1.173307 0.927912
v 0.390918 1.166748 0.928304
v 0.390918 1.166748 0.927520
v 0.391088 1.166693 0.927912
v 0.387096 1.161487 0.928304
v 0.387096 1.161487 0.927520
v 0.387201 1.161342 0.927912
v 0.380911 1.159477 0.928304
v 0.380911 1.159477 0.927520
v 0.380911 1.159299 0.927912
v 0.374726 1.161487 0.928304
v 0.374726 1.161487 0.927520
v 0.374621 1.161342 0.927912
v 0.370903 1.166748 0.928304
v 0.370903 1.166748 0.927520
v 0.370733 1.166693 0.927912
v 0.370903 1.173252 0.928304
v 0.370903 1.173252 0.927520
v 0.370733 1.173307 0.927912
v 0.374726 1.178513 0.928304
v 0.374726 1.178513 0.927520
v 0.374621 1.178658 0.927912
v 0.380911 1.180522 0.928304
v 0.380911 1.180522 0.927520
v 0.380911 1.180701 0.927912
v 0.268911 1.172885 0.927912
v 0.269511 1.173500 0.927912
v 0.269087 1.173313 0.927912
v 0.368911 1.172885 0.927912
v 0.368311 1.173500 0.927912
v 0.368735 1.173313 0.927912
v 0.268911 1.172599 0.926661
v 0.269511 1.173153 0.926394
v 0.269087 1.172985 0.926475
v 0.368911 1.172599 0.926661
v 0.368311 1.173153 0.926394
v 0.368735 1.172985 0.926475
v 0.268911 1.171798 0.925657
v 0.269511 1.172182 0.925176
v 0.269087 1.172066 0.925322
v 0.368911 1.171798 0.925657
v 0.368311 1.172182 0.925176
v 0.368735 1.172066 0.925322
v 0.268911 1.170642 0.925100
v 0.269511 1.170779 0.924500
v 0.269087 1.170737 0.924682
v 0.368911 1.170642 0.925100
v 0.368311 1.170779 0.924500
v 0.368735 1.170737 0.924682
v 0.268911 1.169358 0.925100
v 0.269511 1.169221 0.924500
v 0.269087 1.169263 0.924682
v 0.368911 1.169358 0.925100
v 0.368311 1.169221 0.924500
v 0.368735 1.169263 0.924682
v 0.268911 1.168201 0.925657
v 0.269511 1.167818 0.925176
v 0.269087 1.167934 0.925322
v 0.368911 1.168201 0.925657
v 0.368311 1.167818 0.925176
v 0.368735 1.167934 0.925322
v 0.268911 1.167401 0.926661
v 0.269511 1.166847 0.926394
v 0.269087 1.167015 0.926475
v 0.368911 1.167401 0.926661
v 0.368311 1.166847 0.926394
v 0.368735 1.167015 0.926475
v 0.268911 1.167115 0.927912
v 0.269511 1.166500 0.927912
v 0.269087 1.166687 0.927912
v 0.368911 1.167115 0.927912
v 0.368311 1.166500 0.927912
v 0.368735 1.166687 0.927912
v 0.268911 1.167401 0.929164
v 0.269511 1.166847 0.929431
v 0.269087 1.167015 0.929350
v 0.368911 1.167401 0.929164
v 0.368311 1.166847 0.929431
v 0.368735 1.167015 0.929350
v 0.268911 1.168201 0.930167
v 0.269511 1.167818 0.930649
v 0.269087 1.167934 0.930503
v 0.368911 1.168201 0.930167
v 0.368311 1.167818 0.930649
v 0.368735 1.167934 0.930503
v 0.268911 1.169358 0.930725
v 0.269511 1.169221 0.931324
v 0.269087 1.169263 0.931143
v 0.368911 1.169358 0.930725
v 0.368311 1.169221 0.931324
v 0.368735 1.169263 0.931143
v 0.268911 1.170642 0.930725
v 0.269511 1.170779 0.931324
v 0.269087 1.170737 0.931143
v 0.368911 1.170642 0.930725
v 0.368311 1.170779 0.931324
v 0.368735 1.170737 0.931143
v 0.268911 1.171798 0.930167
v 0.269511 1.172182 0.930649
v 0.269087 1.172066 0.930503
v 0.368911 1.171798 0.930167
v 0.368311 1.172182 0.930649
v 0.368735 1.172066 0.930503
v 0.268911 1.172599 0.929164
v 0.269511 1.173153 0.929431
v 0.269087 1.172985 0.929350
v 0.368911 1.172599 0.929164
v 0.368311 1.173153 0.929431
v 0.368735 1.172985 0.929350
v 0.368911 1.171834 0.927912
v 0.369511 1.172450 0.927912
v 0.369087 1.172263 0.927912
v 0.380911 1.171834 0.927912
v 0.380311 1.172450 0.927912
v 0.380735 1.172263 0.927912
v 0.368911 1.171653 0.927116
v 0.369511 1.172207 0.926849
v 0.369087 1.172039 0.926930
v 0.380911 1.171653 0.927116
v 0.380311 1.172207 0.926849
v 0.380735 1.172039 0.926930
v 0.368911 1.171144 0.926478
v 0.369511 1.171528 0.925997
v 0.369087 1.171411 0.926143
v 0.380911 1.171144 0.926478
v 0.380311 1.171528 0.925997
v 0.380735 1.171411 0.926143
v 0.368911 1.170408 0.926124
v 0.369511 1.170545 0.925524
v 0.369087 1.170504 0.925706
v 0.380911 1.170408 0.926124
v 0.380311 1.170545 0.925524
v 0.380735 1.170504 0.925706
v 0.368911 1.169592 0.926124
v 0.369511 1.169455 0.925524
v 0.369087 1.169496 0.925706
v 0.380911 1.169592 0.926124
v 0.380311 1.169455 0.925524
v 0.380735 1.169496 0.925706
v 0.368911 1.168856 0.926478
v 0.369511 1.168472 0.925997
v 0.369087 1.168589 0.926143
v 0.380911 1.168856 0.926478
v 0.380311 1.168472 0.925997
v 0.380735 1.168589 0.926143
v 0.368911 1.168347 0.927116
v 0.369511 1.167793 0.926849
v 0.369087 1.167961 0.926930
v 0.380911 1.168347 0.927116
v 0.380311 1.167793 0.926849
v 0.380735 1.167961 0.926930
v 0.368911 1.168165 0.927912
v 0.369511 1.167550 0.927912
v 0.369087 1.167737 0.927912
v 0.380911 1.168165 0.927912
v 0.380311 1.167550 0.927912
v 0.380735 1.167737 0.927912
v 0.368911 1.168347 0.928708
v 0.369511 1.167793 0.928975
v 0.369087 1.167961 0.928894
v 0.380911 1.168347 0.928708
v 0.380311 1.167793 0.928975
v 0.380735 1.167961 0.928894
v 0.368911 1.168856 0.929347
v 0.369511 1.168472 0.929828
v 0.369087 1.168589 0.929682
v 0.380911 1.168856 0.929347
v 0.380311 1.168472 0.929828
v 0.380735 1.168589 0.929682
v 0.368911 1.169592 0.929701
v 0.369511 1.169455 0.930301
v 0.369087 1.169496 0.930119
v 0.380911 1.169592 0.929701
v 0.380311 1.169455 0.930301
v 0.380735 1.169496 0.930119
v 0.368911 1.170408 0.929701
v 0.369511 1.170545 0.930301
v 0.369087 1.170504 0.930119
v 0.380911 1.170408 0.929701
v 0.380311 1.170545 0.930301
v 0.380735 1.170504 0.930119
v 0.368911 1.171144 0.929347
v 0.369511 1.171528 0.929828
v 0.369087 1.171411 0.929682
v 0.380911 1.171144 0.929347
v 0.380311 1.171528 0.929828
v 0.380735 1.171411 0.929682
v 0.368911 1.171653 0.928708
v 0.369511 1.172207 0.928975
v 0.369087 1.172039 0.928894
v 0.380911 1.171653 0.928708
v 0.380311 1.172207 0.928975
v 0.380735 1.172039 0.928894
vn 0.5287 0.3841 -0.7569
vn 0.0696 0.2143 0.9743
vn 0.0696 0.2143 -0.9743
vn 0.6535 -0.0000 0.7569
vn 0.0191 0.0588 0.9981
vn 0.0191 0.0588 -0.9981
vn 0.1823 0.1325 -0.9743
vn 0.2019 0.6215 -0.7569
vn 0.0500 0.0364 0.9981
vn 0.0500 0.0364 -0.9981
vn 0.2019 0.6215 0.7569
vn 0.1823 0.1325 0.9743
vn 0.2254 -0.0000 -0.9743
vn 0.6535 -0.0000 -0.7569
vn 0.0619 -0.0000 0.9981
vn 0.0619 -0.0000 -0.9981
vn 0.5287 -0.3841 0.7569
vn 0.2254 -0.0000 0.9743
vn 0.1823 -0.1325 -0.9743
vn 0.5287 -0.3841 -0.7569
vn 0.0500 -0.0364 0.9981
vn 0.0500 -0.0364 -0.9981
vn 0.2019 -0.6215 0.7569
vn 0.1823 -0.1325 0.9743
vn 0.2019 -0.6215 -0.7569
vn 0.0191 -0.0588 0.9981
vn 0.0191 -0.0588 -0.9981
vn -0.2019 -0.6215 0.7569
vn 0.0696 -0.2143 0.9743
vn 0.0696 -0.2143 -0.9743
vn -0.0191 -0.0588 0.9981
vn -0.0191 -0.0588 -0.9981
vn -0.5287 -0.3841 0.7569
vn -0.0696 -0.2143 0.9743
vn -0.0696 -0.2143 -0.9743
vn -0.2019 -0.6215 -0.7569
vn -0.0500 -0.0364 -0.9981
vn -0.6535 -0.0000 0.7569
vn -0.1823 -0.1325 0.9743
vn -0.1823 -0.1325 -0.9743
vn -0.5287 -0.3841 -0.7569
vn -0.0500 -0.0364 0.9981
vn -0.0619 -0.0000 -0.9981
vn -0.5287 0.3841 0.7569
vn -0.2254 -0.0000 0.9743
vn -0.2254 -0.0000 -0.9743
vn -0.6535 -0.0000 -0.7569
vn -0.0619 -0.0000 0.9981
vn -0.0500 0.0364 -0.9981
vn -0.2019 0.6215 0.7569
vn -0.1823 0.1325 0.9743
vn -0.1823 0.1325 -0.9743
vn -0.5287 0.3841 -0.7569
vn -0.0500 0.0364 0.9981
vn -0.0696 0.2143 0.9743
vn -0.0696 0.2143 -0.9743
vn -0.2019 0.6215 -0.7569
vn -0.0191 0.0588 0.9981
vn -0.0191 0.0588 -0.9981
vn 0.7421 0.5392 -0.3981
vn 0.7421 0.5392 0.3981
vn 0.9173 -0.0000 -0.3981
vn 0.9173 -0.0000 0.3981
vn 0.7421 -0.5392 -0.3981
vn 0.7421 -0.5392 0.3981
vn 0.2835 -0.8724 -0.3981
vn 0.2835 -0.8724 0.3981
vn -0.2835 -0.8724 0.3981
vn -0.2835 -0.8724 -0.3981
vn -0.7421 -0.5392 0.3981
vn -0.7421 -0.5392 -0.3981
vn -0.9173 -0.0000 0.3981
vn -0.9173 -0.0000 -0.3981
vn -0.7421 0.5392 0.3981
vn -0.7421 0.5392 -0.3981
vn -0.2835 0.8724 0.3981
vn -0.2835 0.8724 -0.3981
vn 0.2835 0.8724 0.3981
vn 0.2835 0.8724 -0.3981
vn 0.5287 0.3841 0.7569
vn -0.0000 0.9749 0.2225
vn -0.0000 0.4339 -0.9010
vn -0.0000 -0.0000 -1.0000
vn -0.0000 -0.4339 -0.9010
vn -0.0000 -0.7818 -0.6235
vn -0.0000 -0.9749 -0.2225
vn -0.0000 -0.9749 0.2225
vn -0.0000 -0.7818 0.6235
vn -0.0000 -0.4339 0.9010
vn -0.0000 -0.0000 1.0000
vn -0.0000 0.4339 0.9010
vn -0.0000 0.7818 0.6235
vn -0.0000 0.7818 -0.6235
vn 1.0000 -0.0000 -0.0000
vn -0.0000 0.9749 -0.2225
vn -0.3940 0.8960 -0.2045
vn -0.9219 0.3777 -0.0862
vn 0.3940 0.8961 -0.2045
vn 0.9219 0.3778 -0.0862
vn -0.3940 0.7186 -0.5730
vn -0.9219 0.3030 -0.2416
vn 0.3940 0.7186 -0.5730
vn 0.9219 0.3029 -0.2416
vn -0.3940 0.3988 -0.8281
vn -0.9219 0.1681 -0.3491
vn 0.3940 0.3988 -0.8281
vn 0.9219 0.1681 -0.3491
vn -0.3940 -0.0000 -0.9191
vn -0.9219 -0.0000 -0.3875
vn 0.3940 -0.0000 -0.9191
vn 0.9219 -0.0000 -0.3875
vn -0.3940 -0.3988 -0.8281
vn -0.9219 -0.1681 -0.3491
vn 0.3940 -0.3988 -0.8281
vn 0.9219 -0.1681 -0.3491
vn -0.3940 -0.7186 -0.5730
vn -0.9219 -0.3029 -0.2416
vn 0.3940 -0.7186 -0.5730
vn 0.9219 -0.3029 -0.2416
vn -0.3940 -0.8961 -0.2045
vn -0.9219 -0.3778 -0.0862
vn 0.3940 -0.8961 -0.2045
vn 0.9219 -0.3778 -0.0862
vn -0.3940 -0.8961 0.2045
vn -0.9219 -0.3777 0.0862
vn 0.3940 -0.8961 0.2045
vn 0.9219 -0.3778 0.0862
vn -0.3940 -0.7186 0.5730
vn -0.9219 -0.3029 0.2416
vn 0.3940 -0.7186 0.5730
vn 0.9219 -0.3029 0.2416
vn -0.3940 -0.3988 0.8281
vn -0.9219 -0.1681 0.3491
vn 0.3940 -0.3988 0.8281
vn 0.9219 -0.1681 0.3491
vn -0.3940 -0.0000 0.9191
vn -0.9219 -0.0000 0.3875
vn 0.3940 -0.0000 0.9191
vn 0.9219 -0.0000 0.3875
vn -0.3940 0.3988 0.8281
vn -0.9219 0.1681 0.3491
vn 0.3940 0.3988 0.8281
vn 0.9219 0.1681 0.3491
vn -0.3940 0.7186 0.5730
vn -0.9219 0.3029 0.2416
vn 0.3940 0.7186 0.5730
vn 0.9219 0.3029 0.2416
vn -0.3940 0.8960 0.2045
vn -0.9219 0.3778 0.0862
vn 0.3940 0.8961 0.2045
vn 0.9219 0.3778 0.0862
vn -1.0000 -0.0000 -0.0000
vn -0.3940 0.8961 -0.2045
vn -0.9219 0.3778 -0.0862
vn -0.9219 0.3029 -0.2416
vn -0.9219 -0.3778 0.0862
vn -0.3940 0.8961 0.2045
vn -0.3940 -0.8960 -0.2045
vn -0.9219 -0.3777 -0.0862
vn -0.3940 -0.8960 0.2045
vn -0.9219 -0.3030 0.2416
vn -0.9219 0.3030 0.2416
vn -0.9219 0.3777 0.0862
vn -1.0000 0.0001 -0.0000
s 0
f 43//1 7//1 3//1
f 40//2 1//2 2//2
f 41//3 4//3 42//3
f 6//4 49//4 46//4
f 39//5 30//5 1//5
f 25//6 42//6 4//6
f 4//7 7//7 8//7
f 41//8 43//8 3//8
f 1//9 30//9 5//9
f 25//10 4//10 8//10
f 40//11 44//11 70//11
f 1//12 6//12 2//12
f 7//13 12//13 8//13
f 47//14 11//14 7//14
f 5//15 30//15 9//15
f 25//16 8//16 12//16
f 10//17 52//17 49//17
f 6//18 9//18 10//18
f 11//19 16//19 12//19
f 50//20 15//20 11//20
f 9//21 30//21 13//21
f 25//22 12//22 16//22
f 14//23 55//23 52//23
f 9//24 14//24 10//24
f 53//25 19//25 15//25
f 13//26 30//26 17//26
f 25//27 16//27 20//27
f 18//28 58//28 55//28
f 14//29 17//29 18//29
f 15//30 20//30 16//30
f 17//31 30//31 21//31
f 25//32 20//32 24//32
f 22//33 61//33 58//33
f 17//34 22//34 18//34
f 19//35 24//35 20//35
f 19//36 59//36 23//36
f 25//37 24//37 29//37
f 27//38 64//38 61//38
f 22//39 26//39 27//39
f 23//40 29//40 24//40
f 23//41 62//41 28//41
f 21//42 30//42 26//42
f 25//43 29//43 34//43
f 32//44 67//44 64//44
f 27//45 31//45 32//45
f 28//46 34//46 29//46
f 28//47 65//47 33//47
f 26//48 30//48 31//48
f 25//49 34//49 38//49
f 36//50 70//50 67//50
f 32//51 35//51 36//51
f 33//52 38//52 34//52
f 33//53 68//53 37//53
f 31//54 30//54 35//54
f 36//55 39//55 40//55
f 37//56 42//56 38//56
f 37//57 71//57 41//57
f 35//58 30//58 39//58
f 25//59 38//59 42//59
f 43//60 48//60 47//60
f 48//61 44//61 46//61
f 47//62 51//62 50//62
f 48//63 49//63 51//63
f 53//64 51//64 54//64
f 51//65 52//65 54//65
f 56//66 54//66 57//66
f 54//67 55//67 57//67
f 58//68 57//68 55//68
f 60//69 56//69 57//69
f 61//70 60//70 58//70
f 63//71 59//71 60//71
f 64//72 63//72 61//72
f 66//73 62//73 63//73
f 67//74 66//74 64//74
f 66//75 68//75 65//75
f 70//76 69//76 67//76
f 72//77 68//77 69//77
f 70//78 45//78 72//78
f 72//79 43//79 71//79
f 2//80 46//80 44//80
f 152//81 77//81 74//81
f 86//82 95//82 92//82
f 95//83 98//83 92//83
f 101//84 104//84 98//84
f 107//85 110//85 104//85
f 113//86 116//86 110//86
f 119//87 122//87 116//87
f 125//88 128//88 122//88
f 131//89 134//89 128//89
f 137//90 140//90 134//90
f 143//91 146//91 140//91
f 149//92 152//92 146//92
f 83//93 86//93 80//93
f 148//94 124//94 100//94
f 77//95 80//95 74//95
f 74//96 81//96 75//96
f 75//97 79//97 73//97
f 77//98 84//98 83//98
f 84//99 76//99 82//99
f 86//100 81//100 80//100
f 87//101 79//101 81//101
f 83//102 90//102 89//102
f 84//103 88//103 90//103
f 86//104 93//104 87//104
f 93//105 85//105 87//105
f 89//106 96//106 95//106
f 90//107 94//107 96//107
f 98//108 93//108 92//108
f 99//109 91//109 93//109
f 95//110 102//110 101//110
f 96//111 100//111 102//111
f 104//112 99//112 98//112
f 105//113 97//113 99//113
f 107//114 102//114 108//114
f 108//115 100//115 106//115
f 110//116 105//116 104//116
f 111//117 103//117 105//117
f 107//118 114//118 113//118
f 114//119 106//119 112//119
f 116//120 111//120 110//120
f 117//121 109//121 111//121
f 113//122 120//122 119//122
f 114//123 118//123 120//123
f 122//124 117//124 116//124
f 117//125 121//125 115//125
f 119//126 126//126 125//126
f 126//127 118//127 124//127
f 128//128 123//128 122//128
f 123//129 127//129 121//129
f 125//130 132//130 131//130
f 126//131 130//131 132//131
f 128//132 135//132 129//132
f 135//133 127//133 129//133
f 131//134 138//134 137//134
f 132//135 136//135 138//135
f 140//136 135//136 134//136
f 141//137 133//137 135//137
f 137//138 144//138 143//138
f 138//139 142//139 144//139
f 140//140 147//140 141//140
f 147//141 139//141 141//141
f 149//142 144//142 150//142
f 150//143 142//143 148//143
f 152//144 147//144 146//144
f 147//145 151//145 145//145
f 149//146 156//146 155//146
f 156//147 148//147 154//147
f 152//148 75//148 153//148
f 75//149 151//149 153//149
f 155//150 78//150 77//150
f 156//151 76//151 78//151
f 91//152 115//152 139//152
f 239//81 158//81 236//81
f 173//82 176//82 170//82
f 179//83 182//83 176//83
f 185//84 188//84 182//84
f 191//85 194//85 188//85
f 197//86 200//86 194//86
f 203//87 206//87 200//87
f 209//88 212//88 206//88
f 215//89 218//89 212//89
f 221//90 224//90 218//90
f 227//91 230//91 224//91
f 233//92 236//92 230//92
f 167//93 170//93 164//93
f 232//94 208//94 184//94
f 161//95 164//95 158//95
f 158//153 165//153 159//153
f 165//154 157//154 159//154
f 161//98 168//98 167//98
f 162//99 166//99 168//99
f 170//100 165//100 164//100
f 165//155 169//155 163//155
f 173//102 168//102 174//102
f 168//103 172//103 174//103
f 176//104 171//104 170//104
f 177//105 169//105 171//105
f 173//106 180//106 179//106
f 180//107 172//107 178//107
f 182//108 177//108 176//108
f 183//109 175//109 177//109
f 179//110 186//110 185//110
f 180//111 184//111 186//111
f 182//112 189//112 183//112
f 183//113 187//113 181//113
f 185//114 192//114 191//114
f 186//115 190//115 192//115
f 194//116 189//116 188//116
f 195//117 187//117 189//117
f 191//118 198//118 197//118
f 192//119 196//119 198//119
f 200//120 195//120 194//120
f 201//121 193//121 195//121
f 197//122 204//122 203//122
f 198//123 202//123 204//123
f 200//124 207//124 201//124
f 207//156 199//156 201//156
f 203//126 210//126 209//126
f 204//127 208//127 210//127
f 206//128 213//128 207//128
f 207//129 211//129 205//129
f 215//130 210//130 216//130
f 210//131 214//131 216//131
f 218//132 213//132 212//132
f 219//133 211//133 213//133
f 215//134 222//134 221//134
f 216//135 220//135 222//135
f 224//136 219//136 218//136
f 225//137 217//137 219//137
f 221//138 228//138 227//138
f 222//139 226//139 228//139
f 224//140 231//140 225//140
f 225//141 229//141 223//141
f 233//142 228//142 234//142
f 228//143 232//143 234//143
f 230//144 237//144 231//144
f 237//145 229//145 231//145
f 233//146 240//146 239//146
f 240//147 232//147 238//147
f 158//157 237//157 236//157
f 159//149 235//149 237//149
f 239//150 162//150 161//150
f 240//151 160//151 162//151
f 175//152 199//152 223//152
f 43//1 47//1 7//1
f 40//2 39//2 1//2
f 41//3 3//3 4//3
f 6//4 10//4 49//4
f 4//7 3//7 7//7
f 41//8 71//8 43//8
f 40//11 2//11 44//11
f 1//12 5//12 6//12
f 7//13 11//13 12//13
f 47//14 50//14 11//14
f 10//17 14//17 52//17
f 6//18 5//18 9//18
f 11//19 15//19 16//19
f 50//20 53//20 15//20
f 14//23 18//23 55//23
f 9//24 13//24 14//24
f 53//25 56//25 19//25
f 18//28 22//28 58//28
f 14//29 13//29 17//29
f 15//30 19//30 20//30
f 22//33 27//33 61//33
f 17//34 21//34 22//34
f 19//35 23//35 24//35
f 19//36 56//36 59//36
f 27//38 32//38 64//38
f 22//39 21//39 26//39
f 23//40 28//40 29//40
f 23//41 59//41 62//41
f 32//44 36//44 67//44
f 27//45 26//45 31//45
f 28//46 33//46 34//46
f 28//47 62//47 65//47
f 36//50 40//50 70//50
f 32//51 31//51 35//51
f 33//52 37//52 38//52
f 33//53 65//53 68//53
f 36//55 35//55 39//55
f 37//56 41//56 42//56
f 37//57 68//57 71//57
f 43//60 45//60 48//60
f 48//61 45//61 44//61
f 47//62 48//62 51//62
f 48//63 46//63 49//63
f 53//64 50//64 51//64
f 51//65 49//65 52//65
f 56//66 53//66 54//66
f 54//67 52//67 55//67
f 58//68 60//68 57//68
f 60//69 59//69 56//69
f 61//70 63//70 60//70
f 63//71 62//71 59//71
f 64//72 66//72 63//72
f 66//73 65//73 62//73
f 67//74 69//74 66//74
f 66//75 69//75 68//75
f 70//76 72//76 69//76
f 72//77 71//77 68//77
f 70//78 44//78 45//78
f 72//79 45//79 43//79
f 2//80 6//80 46//80
f 152//81 155//81 77//81
f 86//82 89//82 95//82
f 95//83 101//83 98//83
f 101//84 107//84 104//84
f 107//85 113//85 110//85
f 113//86 119//86 116//86
f 119//87 125//87 122//87
f 125//88 131//88 128//88
f 131//89 137//89 134//89
f 137//90 143//90 140//90
f 143//91 149//91 146//91
f 149//92 155//92 152//92
f 83//93 89//93 86//93
f 88//94 82//94 76//94
f 76//94 154//94 148//94
f 148//94 142//94 136//94
f 136//94 130//94 124//94
f 124//94 118//94 112//94
f 112//94 106//94 100//94
f 100//94 94//94 88//94
f 88//94 76//94 148//94
f 148//94 136//94 124//94
f 124//94 112//94 100//94
f 100//94 88//94 148//94
f 77//95 83//95 80//95
f 74//153 80//153 81//153
f 75//154 81//154 79//154
f 77//98 78//98 84//98
f 84//99 78//99 76//99
f 86//100 87//100 81//100
f 87//155 85//155 79//155
f 83//102 84//102 90//102
f 84//103 82//103 88//103
f 86//104 92//104 93//104
f 93//105 91//105 85//105
f 89//106 90//106 96//106
f 90//107 88//107 94//107
f 98//108 99//108 93//108
f 99//109 97//109 91//109
f 95//110 96//110 102//110
f 96//111 94//111 100//111
f 104//112 105//112 99//112
f 105//113 103//113 97//113
f 107//114 101//114 102//114
f 108//115 102//115 100//115
f 110//116 111//116 105//116
f 111//117 109//117 103//117
f 107//118 108//118 114//118
f 114//119 108//119 106//119
f 116//158 117//158 111//158
f 117//159 115//159 109//159
f 113//122 114//122 120//122
f 114//123 112//123 118//123
f 122//160 123//160 117//160
f 117//156 123//156 121//156
f 119//126 120//126 126//126
f 126//127 120//127 118//127
f 128//128 129//128 123//128
f 123//161 129//161 127//161
f 125//130 126//130 132//130
f 126//131 124//131 130//131
f 128//132 134//132 135//132
f 135//133 133//133 127//133
f 131//134 132//134 138//134
f 132//135 130//135 136//135
f 140//136 141//136 135//136
f 141//137 139//137 133//137
f 137//138 138//138 144//138
f 138//139 136//139 142//139
f 140//140 146//140 147//140
f 147//141 145//141 139//141
f 149//142 143//142 144//142
f 150//143 144//143 142//143
f 152//144 153//144 147//144
f 147//162 153//162 151//162
f 149//146 150//146 156//146
f 156//147 150//147 148//147
f 152//157 74//157 75//157
f 75//163 73//163 151//163
f 155//150 156//150 78//150
f 156//151 154//151 76//151
f 151//152 73//152 79//152
f 79//152 85//152 91//152
f 91//152 97//152 103//152
f 103//164 109//164 115//164
f 115//152 121//152 127//152
f 127//152 133//152 139//152
f 139//152 145//152 151//152
f 151//152 79//152 91//152
f 91//152 103//152 115//152
f 115//152 127//152 139//152
f 139//152 151//152 91//152
f 239//81 161//81 158//81
f 173//82 179//82 176//82
f 179//83 185//83 182//83
f 185//84 191//84 188//84
f 191//85 197//85 194//85
f 197//86 203//86 200//86
f 203//87 209//87 206//87
f 209//88 215//88 212//88
f 215//89 221//89 218//89
f 221//90 227//90 224//90
f 227//91 233//91 230//91
f 233//92 239//92 236//92
f 167//93 173//93 170//93
f 172//94 166//94 160//94
f 160//94 238//94 232//94
f 232//94 226//94 220//94
f 220//94 214//94 208//94
f 208//94 202//94 196//94
f 196//94 190//94 184//94
f 184//94 178//94 172//94
f 172//94 160//94 232//94
f 232//94 220//94 208//94
f 208//94 196//94 184//94
f 184//94 172//94 232//94
f 161//95 167//95 164//95
f 158//153 164//153 165//153
f 165//154 163//154 157//154
f 161//98 162//98 168//98
f 162//99 160//99 166//99
f 170//100 171//100 165//100
f 165//155 171//155 169//155
f 173//102 167//102 168//102
f 168//103 166//103 172//103
f 176//104 177//104 171//104
f 177//105 175//105 169//105
f 173//106 174//106 180//106
f 180//107 174//107 172//107
f 182//108 183//108 177//108
f 183//109 181//109 175//109
f 179//110 180//110 186//110
f 180//111 178//111 184//111
f 182//112 188//112 189//112
f 183//113 189//113 187//113
f 185//114 186//114 192//114
f 186//115 184//115 190//115
f 194//116 195//116 189//116
f 195//117 193//117 187//117
f 191//118 192//118 198//118
f 192//119 190//119 196//119
f 200//120 201//120 195//120
f 201//121 199//121 193//121
f 197//122 198//122 204//122
f 198//123 196//123 202//123
f 200//124 206//124 207//124
f 207//156 205//156 199//156
f 203//126 204//126 210//126
f 204//127 202//127 208//127
f 206//128 212//128 213//128
f 207//129 213//129 211//129
f 215//130 209//130 210//130
f 210//131 208//131 214//131
f 218//132 219//132 213//132
f 219//133 217//133 211//133
f 215//134 216//134 222//134
f 216//135 214//135 220//135
f 224//136 225//136 219//136
f 225//137 223//137 217//137
f 221//138 222//138 228//138
f 222//139 220//139 226//139
f 224//140 230//140 231//140
f 225//141 231//141 229//141
f 233//142 227//142 228//142
f 228//143 226//143 232//143
f 230//144 236//144 237//144
f 237//145 235//145 229//145
f 233//146 234//146 240//146
f 240//147 234//147 232//147
f 158//157 159//157 237//157
f 159//149 157//149 235//149
f 239//150 240//150 162//150
f 240//151 238//151 160//151
f 235//152 157//152 163//152
f 163//152 169//152 175//152
f 175//152 181//152 187//152
f 187//152 193//152 199//152
f 199//152 205//152 211//152
f 211//152 217//152 223//152
f 223//152 229//152 235//152
f 235//152 163//152 175//152
f 175//152 187//152 199//152
f 199//152 211//152 223//152
f 223//152 235//152 175//152
