# Blender 4.0.2
# www.blender.org
o Probe
v 0.531343 1.168716 0.925150
v 0.531633 1.169477 0.924875
v 0.531328 1.169138 0.924958
v 0.543343 1.174716 0.925150
v 0.542560 1.174940 0.924875
v 0.543014 1.174981 0.924958
v 0.531641 1.168120 0.924339
v 0.532009 1.168725 0.923852
v 0.531681 1.168433 0.923999
v 0.543641 1.174120 0.924339
v 0.542936 1.174188 0.923852
v 0.543366 1.174276 0.923999
v 0.532067 1.167268 0.923897
v 0.532546 1.167650 0.923295
v 0.532184 1.167426 0.923478
v 0.544067 1.173268 0.923897
v 0.543473 1.173114 0.923295
v 0.543870 1.173269 0.923478
v 0.532537 1.166329 0.923913
v 0.533138 1.166466 0.923315
v 0.532739 1.166316 0.923496
v 0.544537 1.172329 0.923913
v 0.544065 1.171930 0.923315
v 0.544425 1.172159 0.923496
v 0.532957 1.165488 0.924382
v 0.533668 1.165407 0.923907
v 0.533236 1.165323 0.924051
v 0.544957 1.171489 0.924382
v 0.544595 1.170871 0.923907
v 0.544921 1.171166 0.924051
v 0.533244 1.164914 0.925213
v 0.534030 1.164683 0.924954
v 0.533575 1.164644 0.925033
v 0.545244 1.170914 0.925213
v 0.544957 1.170146 0.924954
v 0.545261 1.170487 0.925033
v 0.533342 1.164718 0.926240
v 0.534153 1.164436 0.926249
v 0.533691 1.164413 0.926247
v 0.545342 1.170718 0.926240
v 0.545080 1.169900 0.926249
v 0.545376 1.170256 0.926247
v 0.533230 1.164941 0.927260
v 0.534013 1.164717 0.927536
v 0.533559 1.164676 0.927452
v 0.545230 1.170941 0.927260
v 0.544940 1.170180 0.927536
v 0.545245 1.170519 0.927452
v 0.532932 1.165537 0.928072
v 0.533637 1.165469 0.928558
v 0.533207 1.165381 0.928411
v 0.544932 1.171538 0.928072
v 0.544564 1.170932 0.928558
v 0.544892 1.171224 0.928411
v 0.532506 1.166390 0.928513
v 0.533100 1.166543 0.929115
v 0.532703 1.166388 0.928933
v 0.544506 1.172390 0.928513
v 0.544027 1.172007 0.929115
v 0.544389 1.172231 0.928933
v 0.532036 1.167329 0.928497
v 0.532508 1.167728 0.929095
v 0.532148 1.167498 0.928914
v 0.544036 1.173329 0.928497
v 0.543435 1.173191 0.929095
v 0.543834 1.173341 0.928914
v 0.531616 1.168169 0.928028
v 0.531978 1.168787 0.928503
v 0.531652 1.168491 0.928359
v 0.543616 1.174169 0.928028
v 0.542905 1.174250 0.928503
v 0.543337 1.174334 0.928359
v 0.531329 1.168743 0.927197
v 0.531616 1.169511 0.927456
v 0.531312 1.169170 0.927378
v 0.543329 1.174744 0.927197
v 0.542543 1.174975 0.927456
v 0.542998 1.175013 0.927378
v 0.531231 1.168939 0.926170
v 0.531493 1.169758 0.926161
v 0.531197 1.169401 0.926164
v 0.543231 1.174939 0.926170
v 0.542420 1.175221 0.926161
v 0.542882 1.175244 0.926164
v 0.437286 1.169713 0.926205
v 0.437886 1.170329 0.926205
v 0.437462 1.170142 0.926205
v 0.532286 1.169713 0.926205
v 0.531686 1.170329 0.926205
v 0.532111 1.170142 0.926205
v 0.437286 1.169428 0.924954
v 0.437886 1.169982 0.924687
v 0.437462 1.169814 0.924768
v 0.532286 1.169428 0.924954
v 0.531686 1.169982 0.924687
v 0.532111 1.169814 0.924768
v 0.437286 1.168627 0.923950
v 0.437886 1.169011 0.923469
v 0.437462 1.168895 0.923615
v 0.532286 1.168627 0.923950
v 0.531686 1.169011 0.923469
v 0.532111 1.168895 0.923615
v 0.437286 1.167471 0.923393
v 0.437886 1.167608 0.922793
v 0.437462 1.167566 0.922975
v 0.532286 1.167471 0.923393
v 0.531686 1.167608 0.922793
v 0.532111 1.167566 0.922975
v 0.437286 1.166187 0.923393
v 0.437886 1.166050 0.922793
v 0.437462 1.166091 0.922975
v 0.532286 1.166187 0.923393
v 0.531686 1.166050 0.922793
v 0.532111 1.166091 0.922975
v 0.437286 1.165030 0.923950
v 0.437886 1.164647 0.923469
v 0.437462 1.164763 0.923615
v 0.532286 1.165030 0.923950
v 0.531686 1.164647 0.923469
v 0.532111 1.164763 0.923615
v 0.437286 1.164230 0.924954
v 0.437886 1.163675 0.924687
v 0.437462 1.163843 0.924768
v 0.532286 1.164230 0.924954
v 0.531686 1.163675 0.924687
v 0.532111 1.163843 0.924768
v 0.437286 1.163944 0.926205
v 0.437886 1.163329 0.926205
v 0.437462 1.163515 0.926205
v 0.532286 1.163944 0.926205
v 0.531686 1.163329 0.926205
v 0.532111 1.163515 0.926205
v 0.437286 1.164230 0.927457
v 0.437886 1.163675 0.927724
v 0.437462 1.163843 0.927643
v 0.532286 1.164230 0.927457
v 0.531686 1.163675 0.927724
v 0.532111 1.163843 0.927643
v 0.437286 1.165030 0.928460
v 0.437886 1.164647 0.928942
v 0.437462 1.164763 0.928796
v 0.532286 1.165030 0.928460
v 0.531686 1.164647 0.928942
v 0.532111 1.164763 0.928796
v 0.437286 1.166187 0.929017
v 0.437886 1.166050 0.929617
v 0.437462 1.166091 0.929436
v 0.532286 1.166187 0.929017
v 0.531686 1.166050 0.929617
v 0.532111 1.166091 0.929436
v 0.437286 1.167471 0.929017
v 0.437886 1.167608 0.929617
v 0.437462 1.167566 0.929436
v 0.532286 1.167471 0.929017
v 0.531686 1.167608 0.929617
v 0.532111 1.167566 0.929436
v 0.437286 1.168627 0.928460
v 0.437886 1.169011 0.928942
v 0.437462 1.168895 0.928796
v 0.532286 1.168627 0.928460
v 0.531686 1.169011 0.928942
v 0.532111 1.168895 0.928796
v 0.437286 1.169428 0.927457
v 0.437886 1.169982 0.927724
v 0.437462 1.169814 0.927643
v 0.532286 1.169428 0.927457
v 0.531686 1.169982 0.927724
v 0.532111 1.169814 0.927643
v 0.438624 1.168669 0.928963
v 0.438624 1.168669 0.923447
v 0.439450 1.167532 0.928963
v 0.439450 1.167532 0.923447
v 0.439450 1.166126 0.928963
v 0.439450 1.166126 0.923447
v 0.438624 1.164988 0.928963
v 0.438624 1.164988 0.923447
v 0.437286 1.164554 0.928963
v 0.437286 1.164554 0.923447
v 0.435949 1.164988 0.928963
v 0.435949 1.164988 0.923447
v 0.437286 1.166829 0.929390
v 0.435123 1.166126 0.928963
v 0.435123 1.166126 0.923447
v 0.437286 1.166829 0.923020
v 0.435123 1.167532 0.928963
v 0.435123 1.167532 0.923447
v 0.435949 1.168669 0.928963
v 0.435949 1.168669 0.923447
v 0.437286 1.169104 0.928963
v 0.437286 1.169104 0.923447
v 0.439155 1.170378 0.927234
v 0.439304 1.169605 0.928153
v 0.440084 1.169703 0.927234
v 0.439247 1.170046 0.927737
v 0.439557 1.169954 0.927625
v 0.439741 1.169688 0.927737
v 0.439659 1.170095 0.927260
v 0.439260 1.170522 0.926769
v 0.440189 1.169847 0.926769
v 0.440189 1.169847 0.925641
v 0.439260 1.170522 0.925641
v 0.439764 1.170239 0.926795
v 0.439821 1.170317 0.926205
v 0.440258 1.169897 0.926205
v 0.439764 1.170239 0.925616
v 0.439286 1.170603 0.926205
v 0.439155 1.170378 0.925176
v 0.440084 1.169703 0.925176
v 0.439304 1.169605 0.924257
v 0.439659 1.170095 0.925151
v 0.439557 1.169954 0.924786
v 0.439741 1.169688 0.924674
v 0.439247 1.170046 0.924674
v 0.441239 1.167509 0.927234
v 0.440884 1.168602 0.927234
v 0.440551 1.167889 0.928153
v 0.441126 1.168076 0.927260
v 0.440960 1.168022 0.927625
v 0.440764 1.168279 0.927737
v 0.440953 1.167699 0.927737
v 0.441409 1.167564 0.926769
v 0.441409 1.167564 0.925641
v 0.441054 1.168656 0.925641
v 0.441054 1.168656 0.926769
v 0.441494 1.167564 0.926205
v 0.441387 1.168161 0.926205
v 0.441295 1.168131 0.925616
v 0.441122 1.168706 0.926205
v 0.441295 1.168131 0.926795
v 0.441239 1.167509 0.925176
v 0.440551 1.167889 0.924257
v 0.440884 1.168602 0.925176
v 0.440953 1.167699 0.924674
v 0.440960 1.168022 0.924786
v 0.440764 1.168279 0.924674
v 0.441126 1.168076 0.925151
v 0.440884 1.165056 0.927234
v 0.441239 1.166148 0.927234
v 0.440551 1.165768 0.928153
v 0.441126 1.165581 0.927260
v 0.440960 1.165635 0.927625
v 0.440953 1.165958 0.927737
v 0.440764 1.165378 0.927737
v 0.441054 1.165001 0.926769
v 0.441054 1.165001 0.925641
v 0.441409 1.166093 0.925641
v 0.441409 1.166093 0.926769
v 0.441122 1.164951 0.926205
v 0.441387 1.165496 0.926205
v 0.441295 1.165526 0.925616
v 0.441494 1.166093 0.926205
v 0.441295 1.165526 0.926795
v 0.440884 1.165056 0.925176
v 0.440551 1.165768 0.924257
v 0.441239 1.166148 0.925176
v 0.440764 1.165378 0.924674
v 0.440960 1.165635 0.924786
v 0.440953 1.165958 0.924674
v 0.441126 1.165581 0.925151
v 0.439155 1.163280 0.927234
v 0.440084 1.163955 0.927234
v 0.439304 1.164052 0.928153
v 0.439659 1.163563 0.927260
v 0.439557 1.163704 0.927625
v 0.439741 1.163969 0.927737
v 0.439247 1.163611 0.927737
v 0.439260 1.163136 0.926769
v 0.439260 1.163136 0.925641
v 0.440189 1.163811 0.925641
v 0.440189 1.163811 0.926769
v 0.439286 1.163055 0.926205
v 0.439821 1.163341 0.926205
v 0.439764 1.163419 0.925616
v 0.440258 1.163761 0.926205
v 0.439764 1.163419 0.926795
v 0.439155 1.163280 0.925176
v 0.439304 1.164052 0.924257
v 0.440084 1.163955 0.925176
v 0.439247 1.163611 0.924674
v 0.439557 1.163704 0.924786
v 0.439741 1.163969 0.924674
v 0.439659 1.163563 0.925151
v 0.436712 1.162859 0.927234
v 0.437861 1.162859 0.927234
v 0.437286 1.163396 0.928153
v 0.437286 1.162792 0.927260
v 0.437286 1.162966 0.927625
v 0.437591 1.163073 0.927737
v 0.436982 1.163073 0.927737
v 0.436712 1.162681 0.926769
v 0.436712 1.162681 0.925641
v 0.437861 1.162681 0.925641
v 0.437861 1.162681 0.926769
v 0.436686 1.162600 0.926205
v 0.437286 1.162518 0.926205
v 0.437286 1.162614 0.925616
v 0.437887 1.162600 0.926205
v 0.437286 1.162614 0.926795
v 0.436712 1.162859 0.925176
v 0.437286 1.163396 0.924257
v 0.437861 1.162859 0.925176
v 0.436982 1.163073 0.924674
v 0.437286 1.162966 0.924786
v 0.437591 1.163073 0.924674
v 0.437286 1.162792 0.925151
v 0.434489 1.163955 0.927234
v 0.435418 1.163280 0.927234
v 0.435269 1.164052 0.928153
v 0.434914 1.163563 0.927260
v 0.435016 1.163704 0.927625
v 0.435326 1.163611 0.927737
v 0.434832 1.163969 0.927737
v 0.434384 1.163811 0.926769
v 0.434384 1.163811 0.925641
v 0.435313 1.163136 0.925641
v 0.435313 1.163136 0.926769
v 0.434315 1.163761 0.926205
v 0.434752 1.163341 0.926205
v 0.434809 1.163419 0.925616
v 0.435287 1.163055 0.926205
v 0.434809 1.163419 0.926795
v 0.434489 1.163955 0.925176
v 0.435269 1.164052 0.924257
v 0.435418 1.163280 0.925176
v 0.434832 1.163969 0.924674
v 0.435016 1.163704 0.924786
v 0.435326 1.163611 0.924674
v 0.434914 1.163563 0.925151
v 0.433334 1.166148 0.927234
v 0.433688 1.165056 0.927234
v 0.434022 1.165768 0.928153
v 0.433447 1.165581 0.927260
v 0.433613 1.165635 0.927625
v 0.433809 1.165378 0.927737
v 0.433620 1.165958 0.927737
v 0.433164 1.166093 0.926769
v 0.433164 1.166093 0.925641
v 0.433519 1.165001 0.925641
v 0.433519 1.165001 0.926769
v 0.433079 1.166093 0.926205
v 0.433186 1.165496 0.926205
v 0.433278 1.165526 0.925616
v 0.433450 1.164951 0.926205
v 0.433278 1.165526 0.926795
v 0.433334 1.166148 0.925176
v 0.434022 1.165768 0.924257
v 0.433688 1.165056 0.925176
v 0.433620 1.165958 0.924674
v 0.433613 1.165635 0.924786
v 0.433809 1.165378 0.924674
v 0.433447 1.165581 0.925151
v 0.433688 1.168602 0.927234
v 0.433334 1.167509 0.927234
v 0.434022 1.167889 0.928153
v 0.433447 1.168076 0.927260
v 0.433613 1.168022 0.927625
v 0.433620 1.167699 0.927737
v 0.433809 1.168279 0.927737
v 0.433519 1.168656 0.926769
v 0.433519 1.168656 0.925641
v 0.433164 1.167564 0.925641
v 0.433164 1.167564 0.926769
v 0.433450 1.168706 0.926205
v 0.433186 1.168161 0.926205
v 0.433278 1.168131 0.925616
v 0.433079 1.167564 0.926205
v 0.433278 1.168131 0.926795
v 0.433688 1.168602 0.925176
v 0.434022 1.167889 0.924257
v 0.433334 1.167509 0.925176
v 0.433809 1.168279 0.924674
v 0.433613 1.168022 0.924786
v 0.433620 1.167699 0.924674
v 0.433447 1.168076 0.925151
v 0.435418 1.170378 0.927234
v 0.434489 1.169703 0.927234
v 0.435269 1.169605 0.928153
v 0.434914 1.170095 0.927260
v 0.435016 1.169954 0.927625
v 0.434832 1.169688 0.927737
v 0.435326 1.170046 0.927737
v 0.435313 1.170522 0.926769
v 0.435313 1.170522 0.925641
v 0.434384 1.169847 0.925641
v 0.434384 1.169847 0.926769
v 0.435287 1.170603 0.926205
v 0.434752 1.170317 0.926205
v 0.434809 1.170239 0.925616
v 0.434315 1.169897 0.926205
v 0.434809 1.170239 0.926795
v 0.435418 1.170378 0.925176
v 0.435269 1.169605 0.924257
v 0.434489 1.169703 0.925176
v 0.435326 1.170046 0.924674
v 0.435016 1.169954 0.924786
v 0.434832 1.169688 0.924674
v 0.434914 1.170095 0.925151
v 0.437861 1.170798 0.927234
v 0.436712 1.170798 0.927234
v 0.437286 1.170261 0.928153
v 0.437286 1.170866 0.927260
v 0.437286 1.170691 0.927625
v 0.436982 1.170584 0.927737
v 0.437591 1.170584 0.927737
v 0.437861 1.170976 0.926769
v 0.437861 1.170976 0.925641
v 0.436712 1.170976 0.925641
v 0.436712 1.170976 0.926769
v 0.437887 1.171057 0.926205
v 0.437286 1.171140 0.926205
v 0.437286 1.171044 0.925616
v 0.436686 1.171057 0.926205
v 0.437286 1.171044 0.926795
v 0.437861 1.170798 0.925176
v 0.437286 1.170261 0.924257
v 0.436712 1.170798 0.925176
v 0.437591 1.170584 0.924674
v 0.437286 1.170691 0.924786
v 0.436982 1.170584 0.924674
v 0.437286 1.170866 0.925151
v 0.544286 1.172829 0.929355
v 0.544286 1.172829 0.923055
v 0.545468 1.174455 0.928498
v 0.544855 1.173612 0.929096
v 0.545181 1.174059 0.928853
v 0.546244 1.174549 0.927780
v 0.545317 1.175222 0.927780
v 0.545641 1.174693 0.928204
v 0.545826 1.174948 0.927780
v 0.546492 1.174890 0.926205
v 0.545566 1.175563 0.926205
v 0.546071 1.175285 0.926205
v 0.545317 1.175222 0.924630
v 0.546244 1.174549 0.924630
v 0.545641 1.174693 0.924206
v 0.545826 1.174948 0.924630
v 0.544855 1.173612 0.923314
v 0.545468 1.174455 0.923912
v 0.545181 1.174059 0.923557
v 0.545207 1.173128 0.929096
v 0.546198 1.173450 0.928498
v 0.545733 1.173299 0.928853
v 0.546881 1.173070 0.927780
v 0.546527 1.174159 0.927780
v 0.546477 1.173541 0.928204
v 0.546777 1.173638 0.927780
v 0.547282 1.173200 0.926205
v 0.546929 1.174289 0.926205
v 0.547174 1.173767 0.926205
v 0.546527 1.174159 0.924630
v 0.546881 1.173070 0.924630
v 0.546477 1.173541 0.924206
v 0.546777 1.173638 0.924630
v 0.546198 1.173450 0.923912
v 0.545207 1.173128 0.923314
v 0.545733 1.173299 0.923557
v 0.545207 1.172530 0.929096
v 0.546198 1.172208 0.928498
v 0.545733 1.172359 0.928853
v 0.546527 1.171499 0.927780
v 0.546881 1.172588 0.927780
v 0.546477 1.172117 0.928204
v 0.546777 1.172019 0.927780
v 0.546929 1.171368 0.926205
v 0.547282 1.172457 0.926205
v 0.547174 1.171891 0.926205
v 0.546881 1.172588 0.924630
v 0.546527 1.171499 0.924630
v 0.546477 1.172117 0.924206
v 0.546777 1.172019 0.924630
v 0.546198 1.172208 0.923912
v 0.545207 1.172530 0.923314
v 0.545733 1.172359 0.923557
v 0.544855 1.172046 0.929096
v 0.545468 1.171203 0.928498
v 0.545181 1.171598 0.928853
v 0.545317 1.170436 0.927780
v 0.546244 1.171109 0.927780
v 0.545641 1.170965 0.928204
v 0.545826 1.170710 0.927780
v 0.545566 1.170094 0.926205
v 0.546492 1.170767 0.926205
v 0.546071 1.170373 0.926205
v 0.546244 1.171109 0.924630
v 0.545317 1.170436 0.924630
v 0.545641 1.170965 0.924206
v 0.545826 1.170710 0.924630
v 0.545468 1.171203 0.923912
v 0.544855 1.172046 0.923314
v 0.545181 1.171598 0.923557
v 0.544286 1.171861 0.929096
v 0.544286 1.170819 0.928498
v 0.544286 1.171308 0.928853
v 0.543714 1.170287 0.927780
v 0.544859 1.170287 0.927780
v 0.544286 1.170525 0.928204
v 0.544286 1.170210 0.927780
v 0.543714 1.169865 0.926205
v 0.544859 1.169865 0.926205
v 0.544286 1.169793 0.926205
v 0.544859 1.170287 0.924630
v 0.543714 1.170287 0.924630
v 0.544286 1.170525 0.924206
v 0.544286 1.170210 0.924630
v 0.544286 1.170819 0.923912
v 0.544286 1.171861 0.923314
v 0.544286 1.171308 0.923557
v 0.543718 1.172046 0.929096
v 0.543105 1.171203 0.928498
v 0.543392 1.171598 0.928853
v 0.542329 1.171109 0.927780
v 0.543256 1.170436 0.927780
v 0.542932 1.170965 0.928204
v 0.542747 1.170710 0.927780
v 0.542081 1.170767 0.926205
v 0.543007 1.170094 0.926205
v 0.542502 1.170373 0.926205
v 0.543256 1.170436 0.924630
v 0.542329 1.171109 0.924630
v 0.542932 1.170965 0.924206
v 0.542747 1.170710 0.924630
v 0.543105 1.171203 0.923912
v 0.543718 1.172046 0.923314
v 0.543392 1.171598 0.923557
v 0.543366 1.172530 0.929096
v 0.542375 1.172208 0.928498
v 0.542840 1.172359 0.928853
v 0.541692 1.172588 0.927780
v 0.542046 1.171499 0.927780
v 0.542096 1.172117 0.928204
v 0.541796 1.172019 0.927780
v 0.541291 1.172457 0.926205
v 0.541644 1.171368 0.926205
v 0.541399 1.171891 0.926205
v 0.542046 1.171499 0.924630
v 0.541692 1.172588 0.924630
v 0.542096 1.172117 0.924206
v 0.541796 1.172019 0.924630
v 0.542375 1.172208 0.923912
v 0.543366 1.172530 0.923314
v 0.542840 1.172359 0.923557
v 0.543366 1.173128 0.929096
v 0.542375 1.173450 0.928498
v 0.542840 1.173299 0.928853
v 0.542046 1.174159 0.927780
v 0.541692 1.173070 0.927780
v 0.542096 1.173541 0.928204
v 0.541796 1.173638 0.927780
v 0.541644 1.174289 0.926205
v 0.541291 1.173200 0.926205
v 0.541399 1.173767 0.926205
v 0.541692 1.173070 0.924630
v 0.542046 1.174159 0.924630
v 0.542096 1.173541 0.924206
v 0.541796 1.173638 0.924630
v 0.542375 1.173450 0.923912
v 0.543366 1.173128 0.923314
v 0.542840 1.173299 0.923557
v 0.543718 1.173612 0.929096
v 0.543105 1.174455 0.928498
v 0.543392 1.174059 0.928853
v 0.543256 1.175222 0.927780
v 0.542329 1.174549 0.927780
v 0.542932 1.174693 0.928204
v 0.542747 1.174948 0.927780
v 0.543007 1.175563 0.926205
v 0.542081 1.174890 0.926205
v 0.542502 1.175285 0.926205
v 0.542329 1.174549 0.924630
v 0.543256 1.175222 0.924630
v 0.542932 1.174693 0.924206
v 0.542747 1.174948 0.924630
v 0.543105 1.174455 0.923912
v 0.543718 1.173612 0.923314
v 0.543392 1.174059 0.923557
v 0.544286 1.173797 0.929096
v 0.544286 1.174839 0.928498
v 0.544286 1.174350 0.928853
v 0.544859 1.175371 0.927780
v 0.543714 1.175371 0.927780
v 0.544286 1.175133 0.928204
v 0.544286 1.175448 0.927780
v 0.544859 1.175793 0.926205
v 0.543714 1.175793 0.926205
v 0.544286 1.175865 0.926205
v 0.543714 1.175371 0.924630
v 0.544859 1.175371 0.924630
v 0.544286 1.175133 0.924206
v 0.544286 1.175448 0.924630
v 0.544286 1.174839 0.923912
v 0.544286 1.173797 0.923314
v 0.544286 1.174350 0.923557
vn -0.4345 0.8689 -0.2370
vn 0.0066 -0.0133 -0.9999
vn 0.2000 -0.4000 -0.8944
vn 0.3538 -0.7075 -0.6118
vn 0.4374 -0.8749 -0.2080
vn 0.4345 -0.8689 0.2370
vn 0.3455 -0.6909 0.6350
vn 0.1880 -0.3761 0.9073
vn -0.0066 0.0133 0.9999
vn -0.2000 0.4000 0.8944
vn -0.3538 0.7075 0.6118
vn -0.4374 0.8749 0.2080
vn -0.1880 0.3761 -0.9073
vn 0.8944 0.4472 -0.0000
vn -0.3455 0.6909 -0.6350
vn -0.6700 0.4588 -0.5837
vn -0.9584 -0.1446 -0.2461
vn 0.0349 0.8113 -0.5837
vn 0.6907 0.6800 -0.2461
vn -0.5253 0.1694 -0.8339
vn -0.8974 -0.2666 -0.3516
vn 0.1796 0.5219 -0.8339
vn 0.7517 0.5580 -0.3516
vn -0.3463 -0.1884 -0.9190
vn -0.8220 -0.4174 -0.3874
vn 0.3585 0.1640 -0.9190
vn 0.8271 0.4071 -0.3874
vn -0.1686 -0.5439 -0.8221
vn -0.7471 -0.5673 -0.3466
vn 0.5363 -0.1914 -0.8221
vn 0.9020 0.2573 -0.3466
vn -0.0273 -0.8265 -0.5623
vn -0.6875 -0.6864 -0.2371
vn 0.6776 -0.4740 -0.5623
vn 0.9616 0.1381 -0.2371
vn 0.0496 -0.9803 -0.1912
vn -0.6551 -0.7513 -0.0806
vn 0.7545 -0.6279 -0.1912
vn 0.9940 0.0733 -0.0806
vn 0.0469 -0.9749 0.2178
vn -0.6562 -0.7490 0.0918
vn 0.7518 -0.6224 0.2178
vn 0.9929 0.0756 0.0918
vn -0.0349 -0.8113 0.5837
vn -0.6907 -0.6800 0.2461
vn 0.6700 -0.4588 0.5837
vn 0.9584 0.1446 0.2461
vn -0.1796 -0.5219 0.8339
vn -0.7517 -0.5580 0.3516
vn 0.5253 -0.1694 0.8339
vn 0.8974 0.2666 0.3516
vn -0.3585 -0.1640 0.9190
vn -0.8271 -0.4071 0.3874
vn 0.3463 0.1884 0.9190
vn 0.8220 0.4174 0.3874
vn -0.5363 0.1914 0.8221
vn -0.9020 -0.2573 0.3466
vn 0.1686 0.5439 0.8221
vn 0.7471 0.5673 0.3466
vn -0.6776 0.4740 0.5623
vn -0.9616 -0.1381 0.2371
vn 0.0273 0.8265 0.5623
vn 0.6875 0.6864 0.2371
vn -0.7545 0.6279 0.1912
vn -0.9940 -0.0733 0.0806
vn -0.0496 0.9803 0.1912
vn 0.6551 0.7513 0.0806
vn -0.7518 0.6224 -0.2178
vn -0.9929 -0.0756 -0.0918
vn -0.0469 0.9749 -0.2178
vn 0.6562 0.7490 -0.0918
vn -0.8944 -0.4472 -0.0000
vn -0.0000 0.9749 0.2225
vn -0.0000 0.4339 -0.9010
vn -0.0000 -0.0000 -1.0000
vn -0.0000 -0.4339 -0.9010
vn -0.0000 -0.7818 -0.6235
vn -0.0000 -0.9749 -0.2225
vn -0.0000 -0.9749 0.2225
vn -0.0000 -0.7818 0.6235
vn -0.0000 -0.4339 0.9010
vn -0.0000 -0.0000 1.0000
vn -0.0000 0.4339 0.9010
vn -0.0000 0.7818 0.6235
vn -0.0000 0.7818 -0.6235
vn 1.0000 -0.0000 -0.0000
vn -0.0000 0.9749 -0.2225
vn -0.3940 0.8961 -0.2045
vn -0.9219 0.3778 -0.0862
vn 0.3940 0.8961 -0.2045
vn 0.9219 0.3778 -0.0862
vn -0.3940 0.7186 -0.5730
vn -0.9219 0.3029 -0.2416
vn 0.3940 0.7186 -0.5730
vn 0.9219 0.3029 -0.2416
vn -0.3940 0.3988 -0.8281
vn -0.9219 0.1681 -0.3491
vn 0.3940 0.3988 -0.8281
vn 0.9219 0.1681 -0.3491
vn -0.3940 -0.0000 -0.9191
vn -0.9219 -0.0000 -0.3875
vn 0.3940 -0.0000 -0.9191
vn 0.9219 -0.0000 -0.3875
vn -0.3940 -0.3988 -0.8281
vn -0.9219 -0.1681 -0.3491
vn 0.3940 -0.3988 -0.8281
vn 0.9219 -0.1681 -0.3491
vn -0.3940 -0.7186 -0.5730
vn -0.9219 -0.3029 -0.2416
vn 0.3940 -0.7186 -0.5730
vn 0.9219 -0.3029 -0.2416
vn -0.3940 -0.8961 -0.2045
vn -0.9219 -0.3777 -0.0862
vn 0.3940 -0.8961 -0.2045
vn 0.9219 -0.3778 -0.0862
vn -0.3940 -0.8961 0.2045
vn -0.9219 -0.3777 0.0862
vn 0.3940 -0.8961 0.2045
vn 0.9219 -0.3778 0.0862
vn -0.3940 -0.7186 0.5731
vn -0.9219 -0.3029 0.2416
vn 0.3940 -0.7186 0.5730
vn 0.9219 -0.3029 0.2416
vn -0.3940 -0.3988 0.8281
vn -0.9219 -0.1681 0.3491
vn 0.3940 -0.3988 0.8281
vn 0.9219 -0.1681 0.3491
vn -0.3940 -0.0000 0.9191
vn -0.9219 -0.0000 0.3875
vn 0.3940 -0.0000 0.9191
vn 0.9219 -0.0000 0.3875
vn -0.3940 0.3988 0.8281
vn -0.9219 0.1681 0.3491
vn 0.3940 0.3988 0.8281
vn 0.9219 0.1681 0.3491
vn -0.3940 0.7186 0.5730
vn -0.9219 0.3029 0.2416
vn 0.3940 0.7186 0.5730
vn 0.9219 0.3029 0.2416
vn -0.3940 0.8960 0.2045
vn -0.9219 0.3778 0.0862
vn 0.3940 0.8961 0.2045
vn 0.9219 0.3778 0.0862
vn -1.0000 -0.0000 -0.0000
vn 0.5928 -0.0000 0.8054
vn 0.7602 0.5523 0.3421
vn 0.0598 0.1840 0.9811
vn 0.0598 0.1840 -0.9811
vn 0.4796 0.3484 -0.8054
vn 0.7602 0.5523 -0.3421
vn 0.1832 0.5638 0.8054
vn 0.1565 0.1137 0.9811
vn 0.1565 0.1137 -0.9811
vn 0.2904 0.8937 -0.3421
vn 0.2904 0.8937 0.3421
vn 0.1832 0.5638 -0.8054
vn 0.1935 -0.0000 0.9811
vn 0.1935 -0.0000 -0.9811
vn 0.5928 -0.0000 -0.8054
vn 0.9397 -0.0000 0.3421
vn 0.4796 -0.3484 0.8054
vn 0.9397 -0.0000 -0.3421
vn 0.1565 -0.1137 -0.9811
vn 0.4796 -0.3484 -0.8054
vn 0.7602 -0.5523 0.3421
vn 0.1832 -0.5638 0.8054
vn 0.7602 -0.5523 -0.3421
vn 0.1565 -0.1137 0.9811
vn 0.0598 -0.1840 -0.9811
vn 0.1832 -0.5638 -0.8054
vn 0.2904 -0.8937 0.3421
vn -0.1832 -0.5638 0.8054
vn 0.2904 -0.8937 -0.3421
vn 0.0598 -0.1840 0.9811
vn -0.0598 -0.1840 -0.9811
vn -0.1832 -0.5638 -0.8054
vn -0.2904 -0.8937 0.3421
vn -0.4796 -0.3484 0.8054
vn -0.2904 -0.8937 -0.3421
vn -0.0598 -0.1840 0.9811
vn -0.4796 -0.3484 -0.8054
vn -0.7602 -0.5523 0.3421
vn -0.5928 -0.0000 0.8054
vn -0.7602 -0.5523 -0.3421
vn -0.1565 -0.1137 0.9811
vn -0.1565 -0.1137 -0.9811
vn -0.9397 -0.0000 0.3421
vn -0.4796 0.3484 0.8054
vn -0.9397 -0.0000 -0.3421
vn -0.1935 -0.0000 0.9811
vn -0.1935 -0.0000 -0.9811
vn -0.5928 -0.0000 -0.8054
vn -0.1832 0.5638 0.8054
vn -0.7602 0.5523 -0.3421
vn -0.1565 0.1137 0.9811
vn -0.1565 0.1137 -0.9811
vn -0.4796 0.3484 -0.8054
vn -0.7602 0.5523 0.3421
vn -0.2904 0.8937 -0.3421
vn -0.0598 0.1840 0.9811
vn -0.0598 0.1840 -0.9811
vn -0.1832 0.5638 -0.8054
vn -0.2904 0.8937 0.3421
vn 0.4212 0.7909 0.4440
vn 0.4230 0.6505 0.6309
vn 0.6220 0.6450 0.4440
vn 0.4667 0.8721 0.1468
vn 0.6746 0.7207 0.1598
vn 0.6852 0.7134 -0.1468
vn 0.4769 0.8643 -0.1598
vn 0.4212 0.7909 -0.4440
vn 0.6220 0.6450 -0.4440
vn 0.4879 0.6033 -0.6309
vn 0.8823 0.1562 0.4440
vn 0.8056 0.3923 0.4440
vn 0.7245 0.2776 0.6309
vn 0.9694 0.1865 0.1598
vn 0.9737 0.1744 -0.1468
vn 0.8939 0.4189 -0.1598
vn 0.8902 0.4312 0.1468
vn 0.8823 0.1562 -0.4440
vn 0.7493 0.2012 -0.6309
vn 0.8056 0.3923 -0.4440
vn 0.8056 -0.3923 0.4440
vn 0.8823 -0.1562 0.4440
vn 0.7493 -0.2013 0.6309
vn 0.8939 -0.4189 0.1598
vn 0.8902 -0.4312 -0.1468
vn 0.9694 -0.1865 -0.1598
vn 0.9737 -0.1744 0.1468
vn 0.8056 -0.3923 -0.4440
vn 0.7245 -0.2776 -0.6309
vn 0.8823 -0.1562 -0.4440
vn 0.4212 -0.7909 0.4440
vn 0.6220 -0.6450 0.4440
vn 0.4879 -0.6033 0.6309
vn 0.4769 -0.8643 0.1598
vn 0.4667 -0.8721 -0.1468
vn 0.6746 -0.7207 -0.1598
vn 0.6852 -0.7134 0.1468
vn 0.4212 -0.7909 -0.4440
vn 0.4230 -0.6504 -0.6309
vn 0.6220 -0.6450 -0.4440
vn -0.1241 -0.8874 0.4440
vn 0.1241 -0.8874 0.4440
vn 0.0401 -0.7748 0.6309
vn -0.1221 -0.9796 0.1598
vn -0.1350 -0.9799 -0.1468
vn 0.1222 -0.9796 -0.1598
vn 0.1350 -0.9799 0.1468
vn -0.1241 -0.8874 -0.4440
vn -0.0401 -0.7748 -0.6309
vn 0.1241 -0.8874 -0.4440
vn -0.6220 -0.6450 0.4440
vn -0.4212 -0.7909 0.4440
vn -0.4230 -0.6504 0.6309
vn -0.6746 -0.7207 0.1598
vn -0.6852 -0.7134 -0.1468
vn -0.4769 -0.8643 -0.1598
vn -0.4667 -0.8721 0.1468
vn -0.6220 -0.6450 -0.4440
vn -0.4879 -0.6033 -0.6309
vn -0.4212 -0.7909 -0.4440
vn -0.8823 -0.1562 0.4440
vn -0.8056 -0.3922 0.4440
vn -0.7245 -0.2776 0.6309
vn -0.9694 -0.1865 0.1598
vn -0.9737 -0.1744 -0.1469
vn -0.8939 -0.4189 -0.1598
vn -0.8902 -0.4312 0.1468
vn -0.8823 -0.1562 -0.4440
vn -0.7493 -0.2013 -0.6309
vn -0.8056 -0.3923 -0.4440
vn -0.8056 0.3923 0.4440
vn -0.8823 0.1562 0.4440
vn -0.7493 0.2013 0.6309
vn -0.8939 0.4189 0.1598
vn -0.8902 0.4312 -0.1468
vn -0.9694 0.1865 -0.1598
vn -0.9737 0.1744 0.1468
vn -0.8056 0.3923 -0.4440
vn -0.7245 0.2776 -0.6309
vn -0.8823 0.1562 -0.4440
vn -0.4212 0.7909 0.4440
vn -0.6220 0.6450 0.4440
vn -0.4879 0.6033 0.6309
vn -0.4769 0.8643 0.1598
vn -0.4668 0.8721 -0.1468
vn -0.6746 0.7207 -0.1598
vn -0.6852 0.7134 0.1468
vn -0.4212 0.7909 -0.4440
vn -0.4229 0.6505 -0.6309
vn -0.6220 0.6450 -0.4440
vn 0.1241 0.8874 0.4440
vn -0.1241 0.8874 0.4440
vn -0.0401 0.7748 0.6309
vn 0.1222 0.9796 0.1598
vn 0.1350 0.9799 -0.1468
vn -0.1222 0.9796 -0.1598
vn -0.1350 0.9799 0.1468
vn 0.1241 0.8874 -0.4440
vn 0.0401 0.7748 -0.6309
vn -0.1241 0.8874 -0.4440
vn 0.6456 0.6763 0.3547
vn 0.4438 0.8230 0.3547
vn 0.6455 0.6763 -0.3547
vn 0.4438 0.8230 -0.3547
vn 0.9198 0.1677 0.3547
vn 0.8427 0.4049 0.3547
vn 0.9198 0.1677 -0.3547
vn 0.8427 0.4049 -0.3547
vn 0.8000 0.5812 -0.1491
vn 0.8000 0.5812 0.1491
vn 0.5823 0.4231 0.6942
vn 0.7028 0.5106 0.4953
vn 0.5823 0.4231 -0.6942
vn 0.7028 0.5106 -0.4953
vn 0.8427 -0.4050 0.3547
vn 0.9198 -0.1677 0.3547
vn 0.8427 -0.4050 -0.3547
vn 0.9198 -0.1677 -0.3547
vn 0.7198 -0.0000 -0.6942
vn 0.8687 -0.0000 -0.4953
vn 0.9888 -0.0000 0.1491
vn 0.9888 -0.0000 -0.1491
vn 0.8687 -0.0000 0.4953
vn 0.7198 -0.0000 0.6942
vn 0.4438 -0.8230 0.3547
vn 0.6456 -0.6763 0.3547
vn 0.4438 -0.8230 -0.3547
vn 0.6455 -0.6764 -0.3547
vn 0.5823 -0.4231 -0.6942
vn 0.7028 -0.5106 -0.4953
vn 0.8000 -0.5812 0.1491
vn 0.8000 -0.5812 -0.1491
vn 0.7028 -0.5106 0.4953
vn 0.5823 -0.4231 0.6942
vn -0.1247 -0.9266 0.3547
vn 0.1247 -0.9266 0.3547
vn -0.1247 -0.9266 -0.3547
vn 0.1247 -0.9266 -0.3547
vn 0.2224 -0.6846 -0.6942
vn 0.2685 -0.8262 -0.4953
vn 0.3056 -0.9404 0.1491
vn 0.3056 -0.9404 -0.1491
vn 0.2684 -0.8262 0.4953
vn 0.2224 -0.6846 0.6942
vn -0.6456 -0.6764 0.3547
vn -0.4438 -0.8230 0.3547
vn -0.6455 -0.6764 -0.3547
vn -0.4438 -0.8230 -0.3547
vn -0.2224 -0.6846 -0.6942
vn -0.2685 -0.8262 -0.4952
vn -0.3056 -0.9404 0.1491
vn -0.3056 -0.9404 -0.1491
vn -0.2685 -0.8262 0.4953
vn -0.2224 -0.6846 0.6942
vn -0.9198 -0.1677 0.3547
vn -0.8427 -0.4050 0.3547
vn -0.9198 -0.1677 -0.3547
vn -0.8427 -0.4050 -0.3547
vn -0.5823 -0.4231 -0.6942
vn -0.7028 -0.5106 -0.4953
vn -0.8000 -0.5812 0.1491
vn -0.8000 -0.5812 -0.1491
vn -0.7028 -0.5106 0.4953
vn -0.5823 -0.4231 0.6942
vn -0.8427 0.4049 0.3547
vn -0.9198 0.1677 0.3547
vn -0.8427 0.4050 -0.3547
vn -0.9198 0.1677 -0.3547
vn -0.8687 -0.0000 0.4953
vn -0.7198 -0.0000 0.6942
vn -0.8688 -0.0000 -0.4953
vn -0.7198 -0.0000 -0.6942
vn -0.9888 -0.0000 -0.1491
vn -0.9888 -0.0000 0.1491
vn -0.4438 0.8230 0.3547
vn -0.6456 0.6764 0.3547
vn -0.4438 0.8230 -0.3547
vn -0.6456 0.6763 -0.3547
vn -0.7028 0.5106 -0.4952
vn -0.5823 0.4231 -0.6942
vn -0.8000 0.5812 -0.1491
vn -0.8000 0.5812 0.1491
vn -0.5823 0.4231 0.6942
vn -0.7028 0.5106 0.4953
vn 0.1247 0.9266 0.3547
vn -0.1247 0.9266 0.3547
vn 0.1247 0.9266 -0.3547
vn -0.1247 0.9266 -0.3547
vn -0.2685 0.8262 -0.4953
vn -0.2224 0.6846 -0.6942
vn -0.3056 0.9404 -0.1491
vn -0.3056 0.9404 0.1491
vn -0.2224 0.6846 0.6942
vn -0.2685 0.8262 0.4953
vn 0.2685 0.8262 -0.4953
vn 0.2224 0.6846 -0.6942
vn 0.3056 0.9404 -0.1491
vn 0.3056 0.9404 0.1491
vn 0.2224 0.6846 0.6942
vn 0.2685 0.8262 0.4953
vn 0.4796 0.3484 0.8054
vn 0.5862 0.4259 -0.6892
vn 0.7840 0.5696 0.2469
vn 0.2194 0.1594 -0.9625
vn 0.7840 0.5696 -0.2469
vn 0.2239 0.6892 0.6892
vn 0.7246 -0.0000 0.6892
vn 0.2239 0.6892 -0.6892
vn 0.2994 0.9216 0.2469
vn 0.0838 0.2579 0.9625
vn 0.0838 0.2579 -0.9625
vn 0.2994 0.9216 -0.2469
vn 0.2194 0.1594 0.9625
vn 0.2712 -0.0000 -0.9625
vn 0.9690 -0.0000 -0.2469
vn 0.9690 -0.0000 0.2469
vn 0.5862 -0.4259 0.6892
vn 0.7246 -0.0000 -0.6892
vn 0.2712 -0.0000 0.9625
vn 0.2194 -0.1594 -0.9625
vn 0.7840 -0.5696 -0.2469
vn 0.7840 -0.5696 0.2469
vn 0.2239 -0.6892 0.6892
vn 0.5862 -0.4259 -0.6892
vn 0.2194 -0.1594 0.9625
vn 0.2994 -0.9216 -0.2469
vn 0.2994 -0.9216 0.2469
vn -0.2239 -0.6892 0.6892
vn 0.2239 -0.6892 -0.6892
vn 0.0838 -0.2579 0.9625
vn 0.0838 -0.2579 -0.9625
vn -0.2994 -0.9216 0.2469
vn -0.5862 -0.4259 0.6892
vn -0.2239 -0.6892 -0.6892
vn -0.0838 -0.2579 0.9625
vn -0.0838 -0.2579 -0.9625
vn -0.2994 -0.9216 -0.2469
vn -0.2712 -0.0000 0.9625
vn -0.5862 -0.4259 -0.6892
vn -0.2194 -0.1594 0.9625
vn -0.2194 -0.1594 -0.9625
vn -0.7840 -0.5696 -0.2469
vn -0.7840 -0.5696 0.2469
vn -0.5862 0.4259 0.6892
vn -0.7246 -0.0000 -0.6892
vn -0.9690 -0.0000 0.2469
vn -0.2712 -0.0000 -0.9625
vn -0.9690 -0.0000 -0.2469
vn -0.7246 -0.0000 0.6892
vn -0.2239 0.6892 0.6892
vn -0.5862 0.4259 -0.6892
vn -0.2194 0.1594 0.9625
vn -0.2194 0.1594 -0.9625
vn -0.7840 0.5696 -0.2469
vn -0.7840 0.5696 0.2469
vn -0.2239 0.6892 -0.6892
vn -0.0838 0.2579 0.9625
vn -0.0838 0.2579 -0.9625
vn -0.2994 0.9216 -0.2469
vn -0.2994 0.9216 0.2469
vn 0.5559 0.5825 0.5930
vn 0.3822 0.7087 0.5930
vn 0.3822 0.7087 -0.5930
vn 0.5559 0.5825 -0.5930
vn 0.7921 0.1444 0.5930
vn 0.7257 0.3487 0.5930
vn 0.7257 0.3487 -0.5930
vn 0.7921 0.1444 -0.5930
vn 0.7257 -0.3487 0.5930
vn 0.7921 -0.1444 0.5930
vn 0.7921 -0.1444 -0.5930
vn 0.7257 -0.3487 -0.5930
vn 0.3822 -0.7087 0.5930
vn 0.5559 -0.5825 0.5930
vn 0.5559 -0.5825 -0.5930
vn 0.3822 -0.7087 -0.5930
vn -0.1074 -0.7980 0.5930
vn 0.1074 -0.7980 0.5930
vn 0.1074 -0.7980 -0.5930
vn -0.1074 -0.7980 -0.5930
vn -0.5559 -0.5825 0.5930
vn -0.3822 -0.7087 0.5930
vn -0.3822 -0.7087 -0.5930
vn -0.5559 -0.5825 -0.5930
vn -0.7921 -0.1444 0.5930
vn -0.7257 -0.3487 0.5930
vn -0.7257 -0.3487 -0.5930
vn -0.7921 -0.1444 -0.5930
vn -0.7257 0.3487 0.5930
vn -0.7921 0.1444 0.5930
vn -0.7921 0.1444 -0.5930
vn -0.7257 0.3487 -0.5930
vn -0.3822 0.7087 0.5930
vn -0.5559 0.5825 0.5930
vn -0.5559 0.5825 -0.5930
vn -0.3822 0.7087 -0.5930
vn 0.1074 0.7980 0.5930
vn -0.1074 0.7980 0.5930
vn -0.1074 0.7980 -0.5930
vn 0.1074 0.7980 -0.5930
vn 0.6673 0.6992 0.2567
vn 0.4587 0.8507 0.2567
vn 0.6616 0.7056 -0.2540
vn 0.4666 0.8472 -0.2540
vn 0.9508 0.1734 0.2567
vn 0.8711 0.4186 0.2567
vn 0.9499 0.1819 -0.2540
vn 0.8755 0.4112 -0.2540
vn 0.3385 0.2459 -0.9083
vn 0.4911 0.3568 -0.7946
vn 0.4911 0.3568 0.7946
vn 0.3385 0.2459 0.9083
vn 0.8711 -0.4186 0.2567
vn 0.9508 -0.1734 0.2567
vn 0.8755 -0.4112 -0.2540
vn 0.9499 -0.1819 -0.2540
vn 0.4184 -0.0000 -0.9083
vn 0.6071 -0.0000 -0.7946
vn 0.6071 -0.0000 0.7946
vn 0.4184 -0.0000 0.9083
vn 0.4587 -0.8507 0.2567
vn 0.6673 -0.6992 0.2567
vn 0.4666 -0.8472 -0.2540
vn 0.6616 -0.7056 -0.2540
vn 0.3385 -0.2459 -0.9083
vn 0.4911 -0.3568 -0.7946
vn 0.4911 -0.3568 0.7946
vn 0.3385 -0.2459 0.9083
vn -0.1289 -0.9579 0.2567
vn 0.1289 -0.9579 0.2567
vn -0.1205 -0.9597 -0.2540
vn 0.1205 -0.9597 -0.2540
vn 0.1876 -0.5774 0.7946
vn 0.1293 -0.3979 0.9083
vn 0.1876 -0.5774 -0.7946
vn 0.1293 -0.3979 -0.9083
vn -0.6673 -0.6992 0.2567
vn -0.4587 -0.8507 0.2567
vn -0.6616 -0.7056 -0.2540
vn -0.4666 -0.8472 -0.2540
vn -0.1876 -0.5774 0.7946
vn -0.1293 -0.3979 0.9083
vn -0.1876 -0.5774 -0.7946
vn -0.1293 -0.3979 -0.9083
vn -0.9508 -0.1734 0.2567
vn -0.8711 -0.4186 0.2567
vn -0.9499 -0.1819 -0.2540
vn -0.8755 -0.4112 -0.2540
vn -0.4911 -0.3568 -0.7946
vn -0.3385 -0.2459 -0.9083
vn -0.3385 -0.2459 0.9083
vn -0.4911 -0.3568 0.7946
vn -0.8711 0.4186 0.2567
vn -0.9508 0.1734 0.2567
vn -0.8755 0.4112 -0.2540
vn -0.9499 0.1819 -0.2540
vn -0.6071 -0.0000 -0.7946
vn -0.4184 -0.0000 -0.9083
vn -0.4184 -0.0000 0.9083
vn -0.6071 -0.0000 0.7946
vn -0.4587 0.8507 0.2567
vn -0.6673 0.6992 0.2567
vn -0.4666 0.8472 -0.2540
vn -0.6616 0.7056 -0.2540
vn -0.4911 0.3568 -0.7946
vn -0.3385 0.2459 -0.9083
vn -0.3385 0.2459 0.9083
vn -0.4911 0.3568 0.7946
vn 0.1289 0.9579 0.2567
vn -0.1289 0.9579 0.2567
vn 0.1205 0.9597 -0.2540
vn -0.1205 0.9597 -0.2540
vn -0.1293 0.3979 0.9083
vn -0.1876 0.5774 0.7946
vn -0.1293 0.3979 -0.9083
vn -0.1876 0.5774 -0.7946
vn 0.1293 0.3979 0.9083
vn 0.1876 0.5774 0.7946
vn 0.1293 0.3979 -0.9083
vn 0.1876 0.5774 -0.7946
vn 0.5862 0.4259 0.6892
vn -0.9219 0.3777 -0.0862
vn -0.3940 0.7186 -0.5731
vn -0.9219 -0.3778 0.0862
vn -0.3940 -0.7186 0.5730
vn -0.3940 0.8961 0.2045
vn 0.3973 0.8131 0.4256
vn 0.4879 0.6033 0.6309
vn 0.6505 0.6291 0.4256
vn 0.4769 0.8643 0.1598
vn 0.6852 0.7134 0.1468
vn 0.6746 0.7207 -0.1598
vn 0.4668 0.8721 -0.1468
vn 0.3973 0.8131 -0.4256
vn 0.6505 0.6291 -0.4256
vn 0.4230 0.6504 -0.6309
vn 0.8960 0.1266 0.4256
vn 0.7993 0.4243 0.4256
vn 0.7493 0.2013 0.6309
vn 0.9737 0.1744 0.1468
vn 0.9694 0.1865 -0.1598
vn 0.8902 0.4312 -0.1468
vn 0.8939 0.4189 0.1598
vn 0.8960 0.1265 -0.4256
vn 0.7245 0.2776 -0.6309
vn 0.7993 0.4243 -0.4256
vn 0.7993 -0.4243 0.4256
vn 0.8960 -0.1266 0.4256
vn 0.7245 -0.2776 0.6309
vn 0.8902 -0.4312 0.1468
vn 0.8939 -0.4189 -0.1598
vn 0.9737 -0.1744 -0.1468
vn 0.9694 -0.1865 0.1598
vn 0.7993 -0.4243 -0.4256
vn 0.7493 -0.2013 -0.6309
vn 0.8960 -0.1266 -0.4256
vn 0.3972 -0.8131 0.4256
vn 0.6505 -0.6291 0.4256
vn 0.4230 -0.6505 0.6309
vn 0.4668 -0.8721 0.1468
vn 0.4769 -0.8643 -0.1598
vn 0.6852 -0.7134 -0.1468
vn 0.6746 -0.7207 0.1598
vn 0.3973 -0.8131 -0.4256
vn 0.4879 -0.6033 -0.6309
vn 0.6505 -0.6291 -0.4256
vn -0.1565 -0.8913 0.4256
vn 0.1565 -0.8913 0.4256
vn -0.0401 -0.7748 0.6309
vn -0.1350 -0.9799 0.1468
vn -0.1222 -0.9796 -0.1598
vn 0.1350 -0.9799 -0.1468
vn 0.1222 -0.9796 0.1598
vn -0.1565 -0.8913 -0.4256
vn 0.0401 -0.7748 -0.6309
vn 0.1565 -0.8913 -0.4256
vn -0.6505 -0.6291 0.4256
vn -0.3973 -0.8131 0.4256
vn -0.4879 -0.6033 0.6309
vn -0.6852 -0.7134 0.1468
vn -0.6746 -0.7207 -0.1598
vn -0.4667 -0.8721 -0.1468
vn -0.4769 -0.8643 0.1598
vn -0.6505 -0.6291 -0.4256
vn -0.4230 -0.6504 -0.6309
vn -0.3973 -0.8131 -0.4256
vn -0.8960 -0.1266 0.4256
vn -0.7993 -0.4243 0.4256
vn -0.7493 -0.2013 0.6309
vn -0.9737 -0.1744 0.1468
vn -0.9694 -0.1865 -0.1598
vn -0.8902 -0.4312 -0.1469
vn -0.8939 -0.4189 0.1598
vn -0.8960 -0.1266 -0.4256
vn -0.7245 -0.2776 -0.6309
vn -0.7993 -0.4243 -0.4256
vn -0.7993 0.4243 0.4256
vn -0.8960 0.1266 0.4256
vn -0.7245 0.2776 0.6309
vn -0.8902 0.4312 0.1468
vn -0.8939 0.4189 -0.1598
vn -0.9737 0.1744 -0.1468
vn -0.9694 0.1865 0.1598
vn -0.7993 0.4243 -0.4256
vn -0.7493 0.2013 -0.6309
vn -0.8960 0.1266 -0.4256
vn -0.3973 0.8131 0.4256
vn -0.6505 0.6291 0.4256
vn -0.4230 0.6504 0.6309
vn -0.4667 0.8721 0.1468
vn -0.4769 0.8643 -0.1598
vn -0.6852 0.7134 -0.1468
vn -0.6746 0.7207 0.1598
vn -0.3972 0.8131 -0.4256
vn -0.4879 0.6033 -0.6309
vn -0.6505 0.6291 -0.4256
vn 0.1565 0.8913 0.4256
vn -0.1565 0.8913 0.4256
vn 0.0401 0.7748 0.6309
vn 0.1350 0.9799 0.1468
vn 0.1222 0.9796 -0.1598
vn -0.1350 0.9799 -0.1468
vn -0.1222 0.9796 0.1598
vn 0.1565 0.8913 -0.4256
vn -0.0401 0.7748 -0.6309
vn -0.1565 0.8913 -0.4256
vn 0.6455 0.6764 0.3547
vn 0.6456 0.6763 -0.3547
vn 0.8427 0.4050 0.3547
vn 0.8427 0.4050 -0.3547
vn 0.7028 0.5106 0.4952
vn 0.8427 -0.4049 0.3547
vn 0.8427 -0.4049 -0.3547
vn 0.6455 -0.6764 0.3547
vn 0.2685 -0.8262 0.4953
vn -0.6456 -0.6763 0.3547
vn -0.6456 -0.6763 -0.3547
vn -0.2685 -0.8262 -0.4953
vn -0.8427 -0.4049 0.3547
vn -0.8427 -0.4049 -0.3547
vn -0.8687 -0.0000 -0.4953
vn -0.7028 0.5106 -0.4953
vn -0.2684 0.8262 -0.4953
vn 0.5862 0.4259 -0.6891
vn 0.6616 0.7056 0.2540
vn 0.4666 0.8472 0.2540
vn 0.6673 0.6992 -0.2567
vn 0.4587 0.8507 -0.2567
vn 0.9499 0.1819 0.2540
vn 0.8755 0.4112 0.2540
vn 0.9508 0.1734 -0.2567
vn 0.8711 0.4186 -0.2567
vn 0.8755 -0.4112 0.2540
vn 0.9499 -0.1819 0.2540
vn 0.8711 -0.4186 -0.2567
vn 0.9508 -0.1734 -0.2567
vn 0.4666 -0.8472 0.2540
vn 0.6616 -0.7056 0.2540
vn 0.4587 -0.8507 -0.2567
vn 0.6673 -0.6992 -0.2567
vn -0.1205 -0.9597 0.2540
vn 0.1205 -0.9597 0.2540
vn -0.1289 -0.9579 -0.2567
vn 0.1289 -0.9579 -0.2567
vn -0.6616 -0.7056 0.2540
vn -0.4666 -0.8472 0.2540
vn -0.6673 -0.6992 -0.2567
vn -0.4587 -0.8507 -0.2567
vn -0.9499 -0.1819 0.2540
vn -0.8755 -0.4112 0.2540
vn -0.9508 -0.1734 -0.2567
vn -0.8711 -0.4186 -0.2567
vn -0.8755 0.4112 0.2540
vn -0.9499 0.1819 0.2540
vn -0.8711 0.4186 -0.2567
vn -0.9508 0.1734 -0.2567
vn -0.4666 0.8472 0.2540
vn -0.6616 0.7056 0.2540
vn -0.4587 0.8507 -0.2567
vn -0.6673 0.6992 -0.2567
vn 0.1205 0.9597 0.2540
vn -0.1205 0.9597 0.2540
vn 0.1289 0.9579 -0.2567
vn -0.1289 0.9579 -0.2567
s 0
f 83//1 2//1 80//1
f 17//2 20//2 14//2
f 23//3 26//3 20//3
f 29//4 32//4 26//4
f 35//5 38//5 32//5
f 41//6 44//6 38//6
f 47//7 50//7 44//7
f 53//8 56//8 50//8
f 59//9 62//9 56//9
f 65//10 68//10 62//10
f 71//11 74//11 68//11
f 77//12 80//12 74//12
f 11//13 14//13 8//13
f 76//14 52//14 28//14
f 5//15 8//15 2//15
f 8//16 3//16 2//16
f 9//17 1//17 3//17
f 5//18 12//18 11//18
f 6//19 10//19 12//19
f 14//20 9//20 8//20
f 15//21 7//21 9//21
f 17//22 12//22 18//22
f 12//23 16//23 18//23
f 14//24 21//24 15//24
f 21//25 13//25 15//25
f 17//26 24//26 23//26
f 18//27 22//27 24//27
f 26//28 21//28 20//28
f 21//29 25//29 19//29
f 23//30 30//30 29//30
f 30//31 22//31 28//31
f 32//32 27//32 26//32
f 33//33 25//33 27//33
f 35//34 30//34 36//34
f 30//35 34//35 36//35
f 32//36 39//36 33//36
f 39//37 31//37 33//37
f 35//38 42//38 41//38
f 36//39 40//39 42//39
f 44//40 39//40 38//40
f 45//41 37//41 39//41
f 41//42 48//42 47//42
f 42//43 46//43 48//43
f 50//44 45//44 44//44
f 51//45 43//45 45//45
f 47//46 54//46 53//46
f 48//47 52//47 54//47
f 56//48 51//48 50//48
f 57//49 49//49 51//49
f 59//50 54//50 60//50
f 54//51 58//51 60//51
f 56//52 63//52 57//52
f 63//53 55//53 57//53
f 59//54 66//54 65//54
f 60//55 64//55 66//55
f 68//56 63//56 62//56
f 63//57 67//57 61//57
f 65//58 72//58 71//58
f 72//59 64//59 70//59
f 74//60 69//60 68//60
f 75//61 67//61 69//61
f 77//62 72//62 78//62
f 72//63 76//63 78//63
f 74//64 81//64 75//64
f 81//65 73//65 75//65
f 77//66 84//66 83//66
f 78//67 82//67 84//67
f 2//68 81//68 80//68
f 3//69 79//69 81//69
f 83//70 6//70 5//70
f 84//71 4//71 6//71
f 19//72 43//72 67//72
f 164//73 89//73 86//73
f 98//74 107//74 104//74
f 107//75 110//75 104//75
f 110//76 119//76 116//76
f 119//77 122//77 116//77
f 122//78 131//78 128//78
f 131//79 134//79 128//79
f 134//80 143//80 140//80
f 140//81 149//81 146//81
f 146//82 155//82 152//82
f 155//83 158//83 152//83
f 158//84 167//84 164//84
f 95//85 98//85 92//85
f 160//86 136//86 112//86
f 86//87 95//87 92//87
f 86//88 93//88 87//88
f 87//89 91//89 85//89
f 95//90 90//90 96//90
f 96//91 88//91 94//91
f 92//92 99//92 93//92
f 93//93 97//93 91//93
f 101//94 96//94 102//94
f 96//95 100//95 102//95
f 98//96 105//96 99//96
f 105//97 97//97 99//97
f 107//98 102//98 108//98
f 102//99 106//99 108//99
f 110//100 105//100 104//100
f 111//101 103//101 105//101
f 113//102 108//102 114//102
f 108//103 112//103 114//103
f 110//104 117//104 111//104
f 117//105 109//105 111//105
f 113//106 120//106 119//106
f 114//107 118//107 120//107
f 122//108 117//108 116//108
f 123//109 115//109 117//109
f 125//110 120//110 126//110
f 120//111 124//111 126//111
f 128//112 123//112 122//112
f 123//113 127//113 121//113
f 131//114 126//114 132//114
f 126//115 130//115 132//115
f 128//116 135//116 129//116
f 129//117 133//117 127//117
f 131//118 138//118 137//118
f 132//119 136//119 138//119
f 134//120 141//120 135//120
f 135//121 139//121 133//121
f 137//122 144//122 143//122
f 138//123 142//123 144//123
f 146//124 141//124 140//124
f 141//125 145//125 139//125
f 143//126 150//126 149//126
f 144//127 148//127 150//127
f 146//128 153//128 147//128
f 147//129 151//129 145//129
f 149//130 156//130 155//130
f 156//131 148//131 154//131
f 158//132 153//132 152//132
f 153//133 157//133 151//133
f 155//134 162//134 161//134
f 162//135 154//135 160//135
f 164//136 159//136 158//136
f 159//137 163//137 157//137
f 161//138 168//138 167//138
f 168//139 160//139 166//139
f 86//140 165//140 164//140
f 165//141 85//141 163//141
f 89//142 168//142 90//142
f 90//143 166//143 88//143
f 103//144 127//144 151//144
f 171//145 239//145 216//145
f 199//146 215//146 224//146
f 189//147 181//147 169//147
f 184//148 190//148 170//148
f 170//149 231//149 172//149
f 208//150 223//150 232//150
f 189//151 192//151 400//151
f 169//152 181//152 171//152
f 184//153 170//153 172//153
f 406//154 207//154 414//154
f 398//155 198//155 405//155
f 415//156 170//156 190//156
f 171//157 181//157 173//157
f 184//158 172//158 174//158
f 231//159 174//159 172//159
f 221//160 238//160 247//160
f 173//161 262//161 239//161
f 222//162 255//162 230//162
f 184//163 174//163 176//163
f 254//164 176//164 174//164
f 244//165 261//165 270//165
f 262//166 177//166 285//166
f 245//167 278//167 253//167
f 173//168 181//168 175//168
f 184//169 176//169 178//169
f 277//170 178//170 176//170
f 267//171 284//171 293//171
f 285//172 179//172 308//172
f 268//173 301//173 276//173
f 175//174 181//174 177//174
f 184//175 178//175 180//175
f 300//176 180//176 178//176
f 283//177 316//177 290//177
f 179//178 331//178 308//178
f 299//179 315//179 324//179
f 177//180 181//180 179//180
f 323//181 183//181 180//181
f 306//182 339//182 313//182
f 182//183 354//183 331//183
f 322//184 338//184 347//184
f 179//185 181//185 182//185
f 184//186 180//186 183//186
f 336//187 353//187 362//187
f 354//188 187//188 377//188
f 337//189 370//189 345//189
f 182//190 181//190 185//190
f 184//191 183//191 186//191
f 346//192 186//192 183//192
f 377//193 189//193 400//193
f 368//194 384//194 393//194
f 185//195 181//195 187//195
f 184//196 186//196 188//196
f 186//197 392//197 188//197
f 359//198 376//198 385//198
f 383//199 416//199 391//199
f 187//200 181//200 189//200
f 184//201 188//201 190//201
f 392//202 190//202 188//202
f 375//203 408//203 382//203
f 194//204 197//204 191//204
f 192//205 195//205 194//205
f 197//206 196//206 193//206
f 198//207 203//207 206//207
f 199//208 203//208 202//208
f 200//209 203//209 204//209
f 201//210 203//210 205//210
f 210//211 213//211 207//211
f 212//212 210//212 208//212
f 209//213 211//213 212//213
f 217//214 220//214 214//214
f 219//215 217//215 215//215
f 216//216 218//216 219//216
f 221//217 226//217 229//217
f 222//218 226//218 225//218
f 223//219 226//219 227//219
f 224//220 226//220 228//220
f 233//221 236//221 230//221
f 231//222 234//222 233//222
f 236//223 235//223 232//223
f 240//224 243//224 237//224
f 242//225 240//225 238//225
f 239//226 241//226 242//226
f 244//227 249//227 252//227
f 245//228 249//228 248//228
f 246//229 249//229 250//229
f 247//230 249//230 251//230
f 256//231 259//231 253//231
f 254//232 257//232 256//232
f 259//233 258//233 255//233
f 263//234 266//234 260//234
f 265//235 263//235 261//235
f 262//236 264//236 265//236
f 267//237 272//237 275//237
f 268//238 272//238 271//238
f 269//239 272//239 273//239
f 270//240 272//240 274//240
f 279//241 282//241 276//241
f 277//242 280//242 279//242
f 282//243 281//243 278//243
f 286//244 289//244 283//244
f 288//245 286//245 284//245
f 285//246 287//246 288//246
f 290//247 295//247 298//247
f 291//248 295//248 294//248
f 292//249 295//249 296//249
f 293//250 295//250 297//250
f 302//251 305//251 299//251
f 300//252 303//252 302//252
f 305//253 304//253 301//253
f 309//254 312//254 306//254
f 311//255 309//255 307//255
f 308//256 310//256 311//256
f 313//257 318//257 321//257
f 314//258 318//258 317//258
f 315//259 318//259 319//259
f 316//260 318//260 320//260
f 325//261 328//261 322//261
f 323//262 326//262 325//262
f 328//263 327//263 324//263
f 332//264 335//264 329//264
f 334//265 332//265 330//265
f 331//266 333//266 334//266
f 336//267 341//267 344//267
f 337//268 341//268 340//268
f 338//269 341//269 342//269
f 339//270 341//270 343//270
f 348//271 351//271 345//271
f 346//272 349//272 348//272
f 351//273 350//273 347//273
f 355//274 358//274 352//274
f 357//275 355//275 353//275
f 354//276 356//276 357//276
f 359//277 364//277 367//277
f 360//278 364//278 363//278
f 361//279 364//279 365//279
f 362//280 364//280 366//280
f 371//281 374//281 368//281
f 369//282 372//282 371//282
f 374//283 373//283 370//283
f 378//284 381//284 375//284
f 380//285 378//285 376//285
f 377//286 379//286 380//286
f 382//287 387//287 390//287
f 383//288 387//288 386//288
f 384//289 387//289 388//289
f 385//290 387//290 389//290
f 394//291 397//291 391//291
f 392//292 395//292 394//292
f 397//293 396//293 393//293
f 401//294 404//294 398//294
f 403//295 401//295 399//295
f 400//296 402//296 403//296
f 405//297 410//297 413//297
f 406//298 410//298 409//298
f 407//299 410//299 411//299
f 408//300 410//300 412//300
f 417//301 420//301 414//301
f 415//302 418//302 417//302
f 420//303 419//303 416//303
f 199//304 197//304 193//304
f 202//305 191//305 197//305
f 208//306 205//306 200//306
f 205//307 207//307 201//307
f 221//308 217//308 214//308
f 229//309 215//309 217//309
f 230//310 227//310 222//310
f 227//311 232//311 223//311
f 223//312 204//312 228//312
f 204//313 224//313 228//313
f 216//314 196//314 192//314
f 219//315 193//315 196//315
f 209//316 235//316 231//316
f 235//317 208//317 232//317
f 244//318 240//318 237//318
f 252//319 238//319 240//319
f 245//320 259//320 250//320
f 250//321 255//321 246//321
f 254//322 233//322 258//322
f 233//323 255//323 258//323
f 247//324 225//324 221//324
f 225//325 246//325 222//325
f 214//326 242//326 238//326
f 220//327 239//327 242//327
f 267//328 263//328 260//328
f 275//329 261//329 263//329
f 268//330 282//330 273//330
f 282//331 269//331 273//331
f 277//332 256//332 281//332
f 256//333 278//333 281//333
f 244//334 274//334 248//334
f 248//335 269//335 245//335
f 237//336 265//336 261//336
f 243//337 262//337 265//337
f 290//338 286//338 283//338
f 298//339 284//339 286//339
f 291//340 305//340 296//340
f 305//341 292//341 296//341
f 277//342 304//342 300//342
f 279//343 301//343 304//343
f 267//344 297//344 271//344
f 297//345 268//345 271//345
f 260//346 288//346 284//346
f 266//347 285//347 288//347
f 313//348 309//348 306//348
f 321//349 307//349 309//349
f 314//350 328//350 319//350
f 319//351 324//351 315//351
f 323//352 302//352 327//352
f 327//353 299//353 324//353
f 316//354 294//354 290//354
f 294//355 315//355 291//355
f 307//356 289//356 311//356
f 289//357 308//357 311//357
f 329//358 344//358 332//358
f 332//359 339//359 330//359
f 345//360 342//360 337//360
f 351//361 338//361 342//361
f 346//362 325//362 350//362
f 350//363 322//363 347//363
f 339//364 317//364 313//364
f 317//365 338//365 314//365
f 330//366 312//366 334//366
f 312//367 331//367 334//367
f 359//368 355//368 352//368
f 355//369 362//369 353//369
f 360//370 374//370 365//370
f 365//371 370//371 361//371
f 353//372 335//372 357//372
f 335//373 354//373 357//373
f 370//374 348//374 345//374
f 348//375 369//375 346//375
f 337//376 366//376 361//376
f 340//377 362//377 366//377
f 382//378 378//378 375//378
f 378//379 385//379 376//379
f 383//380 397//380 388//380
f 388//381 393//381 384//381
f 368//382 396//382 371//382
f 396//383 369//383 371//383
f 360//384 389//384 384//384
f 389//385 359//385 385//385
f 377//386 358//386 354//386
f 380//387 352//387 358//387
f 405//388 401//388 398//388
f 401//389 408//389 399//389
f 406//390 420//390 411//390
f 411//391 416//391 407//391
f 391//392 419//392 394//392
f 419//393 392//393 394//393
f 383//394 412//394 407//394
f 386//395 408//395 412//395
f 400//396 381//396 377//396
f 381//397 399//397 375//397
f 207//398 417//398 414//398
f 213//399 415//399 417//399
f 201//400 409//400 206//400
f 409//401 198//401 206//401
f 400//402 194//402 404//402
f 404//403 191//403 398//403
f 192//404 171//404 216//404
f 435//405 450//405 454//405
f 426//406 448//406 430//406
f 422//407 437//407 455//407
f 430//408 450//408 434//408
f 581//409 423//409 427//409
f 445//410 458//410 461//410
f 588//411 433//411 438//411
f 579//412 431//412 583//412
f 576//413 421//413 424//413
f 422//414 591//414 437//414
f 583//415 433//415 587//415
f 424//416 421//416 440//416
f 422//417 455//417 472//417
f 447//418 467//418 451//418
f 443//419 465//419 447//419
f 462//420 475//420 478//420
f 452//421 467//421 471//421
f 440//422 421//422 457//422
f 422//423 472//423 489//423
f 464//424 484//424 468//424
f 464//425 478//425 482//425
f 479//426 492//426 495//426
f 469//427 484//427 488//427
f 457//428 421//428 474//428
f 481//429 501//429 485//429
f 477//430 499//430 481//430
f 496//431 509//431 512//431
f 486//432 501//432 505//432
f 474//433 421//433 491//433
f 422//434 489//434 506//434
f 498//435 512//435 516//435
f 513//436 526//436 529//436
f 503//437 518//437 522//437
f 491//438 421//438 508//438
f 422//439 506//439 523//439
f 498//440 518//440 502//440
f 525//441 421//441 542//441
f 520//442 535//442 539//442
f 508//443 421//443 525//443
f 422//444 523//444 540//444
f 519//445 533//445 535//445
f 511//446 533//446 515//446
f 547//447 560//447 563//447
f 537//448 552//448 556//448
f 528//449 550//449 532//449
f 422//450 540//450 557//450
f 532//451 552//451 536//451
f 530//452 543//452 546//452
f 564//453 577//453 580//453
f 554//454 569//454 573//454
f 542//455 421//455 559//455
f 422//456 557//456 574//456
f 553//457 567//457 569//457
f 545//458 567//458 549//458
f 571//459 586//459 590//459
f 559//460 421//460 576//460
f 422//461 574//461 591//461
f 566//462 586//462 570//462
f 562//463 584//463 566//463
f 426//464 429//464 428//464
f 429//465 427//465 428//465
f 433//466 436//466 435//466
f 436//467 434//467 435//467
f 443//468 446//468 445//468
f 446//469 444//469 445//469
f 450//470 453//470 452//470
f 453//471 451//471 452//471
f 460//472 463//472 462//472
f 463//473 461//473 462//473
f 467//474 470//474 469//474
f 470//475 468//475 469//475
f 477//476 480//476 479//476
f 480//477 478//477 479//477
f 484//478 487//478 486//478
f 487//479 485//479 486//479
f 494//480 497//480 496//480
f 497//481 495//481 496//481
f 501//482 504//482 503//482
f 504//483 502//483 503//483
f 511//484 514//484 513//484
f 514//485 512//485 513//485
f 518//486 521//486 520//486
f 521//487 519//487 520//487
f 528//488 531//488 530//488
f 531//489 529//489 530//489
f 535//490 538//490 537//490
f 538//491 536//491 537//491
f 545//492 548//492 547//492
f 548//493 546//493 547//493
f 552//494 555//494 554//494
f 555//495 553//495 554//495
f 562//496 565//496 564//496
f 565//497 563//497 564//497
f 569//498 572//498 571//498
f 572//499 570//499 571//499
f 579//500 582//500 581//500
f 582//501 580//501 581//501
f 586//502 589//502 588//502
f 589//503 587//503 588//503
f 430//504 429//504 426//504
f 429//505 431//505 427//505
f 430//506 436//506 432//506
f 436//507 431//507 432//507
f 447//508 446//508 443//508
f 446//509 448//509 444//509
f 447//510 453//510 449//510
f 453//511 448//511 449//511
f 437//512 456//512 455//512
f 439//513 454//513 456//513
f 423//514 442//514 441//514
f 425//515 440//515 442//515
f 464//516 463//516 460//516
f 463//517 465//517 461//517
f 464//518 470//518 466//518
f 470//519 465//519 466//519
f 472//520 456//520 473//520
f 456//521 471//521 473//521
f 458//522 442//522 459//522
f 442//523 457//523 459//523
f 481//524 480//524 477//524
f 480//525 482//525 478//525
f 481//526 487//526 483//526
f 487//527 482//527 483//527
f 472//528 490//528 489//528
f 490//529 471//529 488//529
f 458//530 476//530 475//530
f 459//531 474//531 476//531
f 498//532 497//532 494//532
f 497//533 499//533 495//533
f 498//534 504//534 500//534
f 504//535 499//535 500//535
f 475//536 493//536 492//536
f 476//537 491//537 493//537
f 488//538 507//538 490//538
f 507//539 489//539 490//539
f 515//540 514//540 511//540
f 514//541 516//541 512//541
f 515//542 521//542 517//542
f 521//543 516//543 517//543
f 492//544 510//544 509//544
f 493//545 508//545 510//545
f 505//546 524//546 507//546
f 524//547 506//547 507//547
f 532//548 531//548 528//548
f 531//549 533//549 529//549
f 532//550 538//550 534//550
f 538//551 533//551 534//551
f 522//552 541//552 524//552
f 524//553 540//553 523//553
f 508//554 527//554 510//554
f 510//555 526//555 509//555
f 549//556 548//556 545//556
f 548//557 550//557 546//557
f 549//558 555//558 551//558
f 555//559 550//559 551//559
f 556//560 541//560 539//560
f 541//561 557//561 540//561
f 542//562 527//562 525//562
f 544//563 526//563 527//563
f 566//564 565//564 562//564
f 565//565 567//565 563//565
f 566//566 572//566 568//566
f 572//567 567//567 568//567
f 573//568 558//568 556//568
f 558//569 574//569 557//569
f 559//570 544//570 542//570
f 561//571 543//571 544//571
f 583//572 582//572 579//572
f 582//573 584//573 580//573
f 583//574 589//574 585//574
f 589//575 584//575 585//575
f 559//576 578//576 561//576
f 561//577 577//577 560//577
f 574//578 592//578 591//578
f 592//579 573//579 590//579
f 576//580 425//580 578//580
f 578//581 423//581 577//581
f 437//582 592//582 439//582
f 592//583 438//583 439//583
f 428//584 441//584 444//584
f 83//1 5//1 2//1
f 17//2 23//2 20//2
f 23//3 29//3 26//3
f 29//4 35//4 32//4
f 35//5 41//5 38//5
f 41//6 47//6 44//6
f 47//7 53//7 50//7
f 53//8 59//8 56//8
f 59//9 65//9 62//9
f 65//10 71//10 68//10
f 71//11 77//11 74//11
f 77//12 83//12 80//12
f 11//13 17//13 14//13
f 16//14 10//14 4//14
f 4//14 82//14 76//14
f 76//14 70//14 64//14
f 64//14 58//14 52//14
f 52//14 46//14 40//14
f 40//14 34//14 28//14
f 28//14 22//14 16//14
f 16//14 4//14 76//14
f 76//14 64//14 52//14
f 52//14 40//14 28//14
f 28//14 16//14 76//14
f 5//15 11//15 8//15
f 8//16 9//16 3//16
f 9//17 7//17 1//17
f 5//18 6//18 12//18
f 6//19 4//19 10//19
f 14//20 15//20 9//20
f 15//21 13//21 7//21
f 17//22 11//22 12//22
f 12//23 10//23 16//23
f 14//24 20//24 21//24
f 21//25 19//25 13//25
f 17//26 18//26 24//26
f 18//27 16//27 22//27
f 26//28 27//28 21//28
f 21//29 27//29 25//29
f 23//30 24//30 30//30
f 30//31 24//31 22//31
f 32//32 33//32 27//32
f 33//33 31//33 25//33
f 35//34 29//34 30//34
f 30//35 28//35 34//35
f 32//36 38//36 39//36
f 39//37 37//37 31//37
f 35//38 36//38 42//38
f 36//39 34//39 40//39
f 44//40 45//40 39//40
f 45//41 43//41 37//41
f 41//42 42//42 48//42
f 42//43 40//43 46//43
f 50//44 51//44 45//44
f 51//45 49//45 43//45
f 47//46 48//46 54//46
f 48//47 46//47 52//47
f 56//48 57//48 51//48
f 57//49 55//49 49//49
f 59//50 53//50 54//50
f 54//51 52//51 58//51
f 56//52 62//52 63//52
f 63//53 61//53 55//53
f 59//54 60//54 66//54
f 60//55 58//55 64//55
f 68//56 69//56 63//56
f 63//57 69//57 67//57
f 65//58 66//58 72//58
f 72//59 66//59 64//59
f 74//60 75//60 69//60
f 75//61 73//61 67//61
f 77//62 71//62 72//62
f 72//63 70//63 76//63
f 74//64 80//64 81//64
f 81//65 79//65 73//65
f 77//66 78//66 84//66
f 78//67 76//67 82//67
f 2//68 3//68 81//68
f 3//69 1//69 79//69
f 83//70 84//70 6//70
f 84//71 82//71 4//71
f 79//72 1//72 7//72
f 7//72 13//72 19//72
f 19//72 25//72 31//72
f 31//72 37//72 43//72
f 43//72 49//72 55//72
f 55//72 61//72 67//72
f 67//72 73//72 79//72
f 79//72 7//72 19//72
f 19//72 31//72 43//72
f 43//72 55//72 67//72
f 67//72 79//72 19//72
f 164//73 167//73 89//73
f 98//74 101//74 107//74
f 107//75 113//75 110//75
f 110//76 113//76 119//76
f 119//77 125//77 122//77
f 122//78 125//78 131//78
f 131//79 137//79 134//79
f 134//80 137//80 143//80
f 140//81 143//81 149//81
f 146//82 149//82 155//82
f 155//83 161//83 158//83
f 158//84 161//84 167//84
f 95//85 101//85 98//85
f 100//86 94//86 88//86
f 88//86 166//86 160//86
f 160//86 154//86 148//86
f 148//86 142//86 136//86
f 136//86 130//86 124//86
f 124//86 118//86 112//86
f 112//86 106//86 100//86
f 100//86 88//86 160//86
f 160//86 148//86 136//86
f 136//86 124//86 112//86
f 112//86 100//86 160//86
f 86//87 89//87 95//87
f 86//88 92//88 93//88
f 87//585 93//585 91//585
f 95//90 89//90 90//90
f 96//91 90//91 88//91
f 92//586 98//586 99//586
f 93//93 99//93 97//93
f 101//94 95//94 96//94
f 96//95 94//95 100//95
f 98//96 104//96 105//96
f 105//97 103//97 97//97
f 107//98 101//98 102//98
f 102//99 100//99 106//99
f 110//100 111//100 105//100
f 111//101 109//101 103//101
f 113//102 107//102 108//102
f 108//103 106//103 112//103
f 110//104 116//104 117//104
f 117//105 115//105 109//105
f 113//106 114//106 120//106
f 114//107 112//107 118//107
f 122//108 123//108 117//108
f 123//109 121//109 115//109
f 125//110 119//110 120//110
f 120//111 118//111 124//111
f 128//112 129//112 123//112
f 123//113 129//113 127//113
f 131//114 125//114 126//114
f 126//115 124//115 130//115
f 128//116 134//116 135//116
f 129//587 135//587 133//587
f 131//118 132//118 138//118
f 132//119 130//119 136//119
f 134//588 140//588 141//588
f 135//121 141//121 139//121
f 137//122 138//122 144//122
f 138//123 136//123 142//123
f 146//124 147//124 141//124
f 141//125 147//125 145//125
f 143//126 144//126 150//126
f 144//127 142//127 148//127
f 146//128 152//128 153//128
f 147//129 153//129 151//129
f 149//130 150//130 156//130
f 156//131 150//131 148//131
f 158//132 159//132 153//132
f 153//133 159//133 157//133
f 155//134 156//134 162//134
f 162//135 156//135 154//135
f 164//136 165//136 159//136
f 159//137 165//137 163//137
f 161//138 162//138 168//138
f 168//139 162//139 160//139
f 86//589 87//589 165//589
f 165//141 87//141 85//141
f 89//142 167//142 168//142
f 90//143 168//143 166//143
f 163//144 85//144 91//144
f 91//144 97//144 103//144
f 103//144 109//144 115//144
f 115//144 121//144 127//144
f 127//144 133//144 139//144
f 139//144 145//144 151//144
f 151//144 157//144 163//144
f 163//144 91//144 103//144
f 103//144 115//144 127//144
f 127//144 139//144 151//144
f 151//144 163//144 103//144
f 171//145 173//145 239//145
f 199//146 193//146 215//146
f 170//149 209//149 231//149
f 208//150 200//150 223//150
f 189//151 169//151 192//151
f 406//154 201//154 207//154
f 398//155 191//155 198//155
f 415//156 209//156 170//156
f 231//159 254//159 174//159
f 221//160 214//160 238//160
f 173//161 175//161 262//161
f 222//162 246//162 255//162
f 254//164 277//164 176//164
f 244//165 237//165 261//165
f 262//166 175//166 177//166
f 245//167 269//167 278//167
f 277//170 300//170 178//170
f 267//171 260//171 284//171
f 285//172 177//172 179//172
f 268//173 292//173 301//173
f 300//176 323//176 180//176
f 283//177 307//177 316//177
f 179//178 182//178 331//178
f 299//179 291//179 315//179
f 323//181 346//181 183//181
f 306//182 330//182 339//182
f 182//183 185//183 354//183
f 322//184 314//184 338//184
f 336//187 329//187 353//187
f 354//188 185//188 187//188
f 337//189 361//189 370//189
f 346//192 369//192 186//192
f 377//193 187//193 189//193
f 368//194 360//194 384//194
f 186//197 369//197 392//197
f 359//198 352//198 376//198
f 383//199 407//199 416//199
f 392//202 415//202 190//202
f 375//203 399//203 408//203
f 194//590 195//590 197//590
f 192//591 196//591 195//591
f 197//592 195//592 196//592
f 198//593 202//593 203//593
f 199//594 204//594 203//594
f 200//595 205//595 203//595
f 201//596 206//596 203//596
f 210//597 211//597 213//597
f 212//598 211//598 210//598
f 209//599 213//599 211//599
f 217//600 218//600 220//600
f 219//601 218//601 217//601
f 216//602 220//602 218//602
f 221//603 225//603 226//603
f 222//604 227//604 226//604
f 223//605 228//605 226//605
f 224//606 229//606 226//606
f 233//607 234//607 236//607
f 231//608 235//608 234//608
f 236//609 234//609 235//609
f 240//610 241//610 243//610
f 242//611 241//611 240//611
f 239//612 243//612 241//612
f 244//613 248//613 249//613
f 245//614 250//614 249//614
f 246//615 251//615 249//615
f 247//616 252//616 249//616
f 256//617 257//617 259//617
f 254//618 258//618 257//618
f 259//619 257//619 258//619
f 263//620 264//620 266//620
f 265//621 264//621 263//621
f 262//622 266//622 264//622
f 267//623 271//623 272//623
f 268//624 273//624 272//624
f 269//625 274//625 272//625
f 270//626 275//626 272//626
f 279//627 280//627 282//627
f 277//628 281//628 280//628
f 282//629 280//629 281//629
f 286//630 287//630 289//630
f 288//631 287//631 286//631
f 285//632 289//632 287//632
f 290//633 294//633 295//633
f 291//634 296//634 295//634
f 292//635 297//635 295//635
f 293//636 298//636 295//636
f 302//637 303//637 305//637
f 300//638 304//638 303//638
f 305//639 303//639 304//639
f 309//640 310//640 312//640
f 311//641 310//641 309//641
f 308//642 312//642 310//642
f 313//643 317//643 318//643
f 314//644 319//644 318//644
f 315//645 320//645 318//645
f 316//646 321//646 318//646
f 325//647 326//647 328//647
f 323//648 327//648 326//648
f 328//649 326//649 327//649
f 332//650 333//650 335//650
f 334//651 333//651 332//651
f 331//652 335//652 333//652
f 336//653 340//653 341//653
f 337//654 342//654 341//654
f 338//655 343//655 341//655
f 339//656 344//656 341//656
f 348//657 349//657 351//657
f 346//658 350//658 349//658
f 351//659 349//659 350//659
f 355//660 356//660 358//660
f 357//661 356//661 355//661
f 354//662 358//662 356//662
f 359//663 363//663 364//663
f 360//664 365//664 364//664
f 361//665 366//665 364//665
f 362//666 367//666 364//666
f 371//667 372//667 374//667
f 369//668 373//668 372//668
f 374//669 372//669 373//669
f 378//670 379//670 381//670
f 380//671 379//671 378//671
f 377//672 381//672 379//672
f 382//673 386//673 387//673
f 383//674 388//674 387//674
f 384//675 389//675 387//675
f 385//676 390//676 387//676
f 394//677 395//677 397//677
f 392//678 396//678 395//678
f 397//679 395//679 396//679
f 401//680 402//680 404//680
f 403//681 402//681 401//681
f 400//682 404//682 402//682
f 405//683 409//683 410//683
f 406//684 411//684 410//684
f 407//685 412//685 410//685
f 408//686 413//686 410//686
f 417//687 418//687 420//687
f 415//688 419//688 418//688
f 420//689 418//689 419//689
f 199//690 202//690 197//690
f 202//305 198//305 191//305
f 208//691 210//691 205//691
f 205//307 210//307 207//307
f 221//308 229//308 217//308
f 229//692 224//692 215//692
f 230//310 236//310 227//310
f 227//693 236//693 232//693
f 223//312 200//312 204//312
f 204//313 199//313 224//313
f 216//314 219//314 196//314
f 219//694 215//694 193//694
f 209//316 212//316 235//316
f 235//317 212//317 208//317
f 244//695 252//695 240//695
f 252//319 247//319 238//319
f 245//696 253//696 259//696
f 250//321 259//321 255//321
f 254//322 231//322 233//322
f 233//323 230//323 255//323
f 247//324 251//324 225//324
f 225//325 251//325 246//325
f 214//326 220//326 242//326
f 220//327 216//327 239//327
f 267//328 275//328 263//328
f 275//697 270//697 261//697
f 268//330 276//330 282//330
f 282//331 278//331 269//331
f 277//332 254//332 256//332
f 256//333 253//333 278//333
f 244//334 270//334 274//334
f 248//335 274//335 269//335
f 237//336 243//336 265//336
f 243//337 239//337 262//337
f 290//338 298//338 286//338
f 298//339 293//339 284//339
f 291//340 299//340 305//340
f 305//341 301//341 292//341
f 277//342 279//342 304//342
f 279//343 276//343 301//343
f 267//344 293//344 297//344
f 297//345 292//345 268//345
f 260//698 266//698 288//698
f 266//347 262//347 285//347
f 313//699 321//699 309//699
f 321//349 316//349 307//349
f 314//700 322//700 328//700
f 319//351 328//351 324//351
f 323//352 300//352 302//352
f 327//701 302//701 299//701
f 316//354 320//354 294//354
f 294//355 320//355 315//355
f 307//356 283//356 289//356
f 289//357 285//357 308//357
f 329//358 336//358 344//358
f 332//702 344//702 339//702
f 345//360 351//360 342//360
f 351//703 347//703 338//703
f 346//362 323//362 325//362
f 350//363 325//363 322//363
f 339//364 343//364 317//364
f 317//365 343//365 338//365
f 330//366 306//366 312//366
f 312//367 308//367 331//367
f 359//368 367//368 355//368
f 355//369 367//369 362//369
f 360//370 368//370 374//370
f 365//371 374//371 370//371
f 353//372 329//372 335//372
f 335//373 331//373 354//373
f 370//704 373//704 348//704
f 348//375 373//375 369//375
f 337//376 340//376 366//376
f 340//377 336//377 362//377
f 382//378 390//378 378//378
f 378//379 390//379 385//379
f 383//380 391//380 397//380
f 388//381 397//381 393//381
f 368//705 393//705 396//705
f 396//383 392//383 369//383
f 360//384 363//384 389//384
f 389//385 363//385 359//385
f 377//386 380//386 358//386
f 380//387 376//387 352//387
f 405//388 413//388 401//388
f 401//389 413//389 408//389
f 406//390 414//390 420//390
f 411//391 420//391 416//391
f 391//706 416//706 419//706
f 419//393 415//393 392//393
f 383//394 386//394 412//394
f 386//395 382//395 408//395
f 400//396 403//396 381//396
f 381//397 403//397 399//397
f 207//398 213//398 417//398
f 213//399 209//399 415//399
f 201//400 406//400 409//400
f 409//401 405//401 198//401
f 400//402 192//402 194//402
f 404//403 194//403 191//403
f 192//404 169//404 171//404
f 454//405 438//405 435//405
f 435//707 434//707 450//707
f 450//405 452//405 454//405
f 426//406 444//406 448//406
f 430//408 448//408 450//408
f 427//409 579//409 581//409
f 581//409 577//409 423//409
f 423//409 428//409 427//409
f 461//410 443//410 445//410
f 445//410 441//410 458//410
f 458//410 462//410 461//410
f 438//411 590//411 588//411
f 588//411 587//411 433//411
f 433//411 435//411 438//411
f 579//412 427//412 431//412
f 583//415 431//415 433//415
f 447//418 465//418 467//418
f 443//419 461//419 465//419
f 478//420 460//420 462//420
f 462//420 458//420 475//420
f 475//420 479//420 478//420
f 471//421 454//421 452//421
f 452//421 451//421 467//421
f 467//421 469//421 471//421
f 464//424 482//424 484//424
f 464//425 460//425 478//425
f 495//426 477//426 479//426
f 479//426 475//426 492//426
f 492//426 496//426 495//426
f 488//427 471//427 469//427
f 469//427 468//427 484//427
f 484//427 486//427 488//427
f 481//429 499//429 501//429
f 477//430 495//430 499//430
f 512//431 494//431 496//431
f 496//431 492//431 509//431
f 509//431 513//431 512//431
f 505//432 488//432 486//432
f 486//432 485//432 501//432
f 501//432 503//432 505//432
f 498//435 494//435 512//435
f 529//436 511//436 513//436
f 513//436 509//436 526//436
f 526//436 530//436 529//436
f 522//437 505//437 503//437
f 503//437 502//437 518//437
f 518//437 520//437 522//437
f 498//440 516//440 518//440
f 539//442 522//442 520//442
f 520//442 519//442 535//442
f 535//442 537//442 539//442
f 519//445 515//445 533//445
f 511//446 529//446 533//446
f 563//447 545//447 547//447
f 547//447 543//447 560//447
f 560//447 564//447 563//447
f 556//448 539//448 537//448
f 537//448 536//448 552//448
f 552//448 554//448 556//448
f 528//449 546//449 550//449
f 532//451 550//451 552//451
f 546//452 528//452 530//452
f 530//452 526//452 543//452
f 543//452 547//452 546//452
f 580//453 562//453 564//453
f 564//453 560//453 577//453
f 577//453 581//453 580//453
f 573//454 556//454 554//454
f 554//454 553//454 569//454
f 569//454 571//454 573//454
f 553//457 549//457 567//457
f 545//458 563//458 567//458
f 590//459 573//459 571//459
f 571//459 570//459 586//459
f 586//459 588//459 590//459
f 566//462 584//462 586//462
f 562//463 580//463 584//463
f 430//708 432//708 429//708
f 429//709 432//709 431//709
f 430//710 434//710 436//710
f 436//711 433//711 431//711
f 447//712 449//712 446//712
f 446//713 449//713 448//713
f 447//714 451//714 453//714
f 453//715 450//715 448//715
f 437//512 439//512 456//512
f 439//513 438//513 454//513
f 423//514 425//514 442//514
f 425//515 424//515 440//515
f 464//716 466//716 463//716
f 463//717 466//717 465//717
f 464//718 468//718 470//718
f 470//719 467//719 465//719
f 472//520 455//520 456//520
f 456//521 454//521 471//521
f 458//522 441//522 442//522
f 442//523 440//523 457//523
f 481//720 483//720 480//720
f 480//721 483//721 482//721
f 481//722 485//722 487//722
f 487//723 484//723 482//723
f 472//528 473//528 490//528
f 490//529 473//529 471//529
f 458//530 459//530 476//530
f 459//531 457//531 474//531
f 498//724 500//724 497//724
f 497//725 500//725 499//725
f 498//726 502//726 504//726
f 504//727 501//727 499//727
f 475//536 476//536 493//536
f 476//537 474//537 491//537
f 488//538 505//538 507//538
f 507//539 506//539 489//539
f 515//728 517//728 514//728
f 514//729 517//729 516//729
f 515//730 519//730 521//730
f 521//731 518//731 516//731
f 492//544 493//544 510//544
f 493//545 491//545 508//545
f 505//546 522//546 524//546
f 524//547 523//547 506//547
f 532//732 534//732 531//732
f 531//733 534//733 533//733
f 532//734 536//734 538//734
f 538//735 535//735 533//735
f 522//552 539//552 541//552
f 524//553 541//553 540//553
f 508//554 525//554 527//554
f 510//555 527//555 526//555
f 549//736 551//736 548//736
f 548//737 551//737 550//737
f 549//738 553//738 555//738
f 555//739 552//739 550//739
f 556//560 558//560 541//560
f 541//561 558//561 557//561
f 542//562 544//562 527//562
f 544//563 543//563 526//563
f 566//740 568//740 565//740
f 565//741 568//741 567//741
f 566//742 570//742 572//742
f 572//743 569//743 567//743
f 573//568 575//568 558//568
f 558//569 575//569 574//569
f 559//570 561//570 544//570
f 561//571 560//571 543//571
f 583//744 585//744 582//744
f 582//745 585//745 584//745
f 583//746 587//746 589//746
f 589//747 586//747 584//747
f 559//576 576//576 578//576
f 561//577 578//577 577//577
f 574//578 575//578 592//578
f 592//579 575//579 573//579
f 576//580 424//580 425//580
f 578//581 425//581 423//581
f 437//582 591//582 592//582
f 592//583 590//583 438//583
f 444//584 426//584 428//584
f 428//584 423//584 441//584
f 441//584 445//584 444//584
