# Blender 4.0.2
# www.blender.org
o Retractor_Minnesota
v 0.857518 0.921011 0.928287
v 0.857518 0.921000 0.928288
v 0.857500 0.921011 0.928288
v 0.857518 0.921003 0.928287
v 0.857507 0.921005 0.928288
v 0.857505 0.921003 0.928288
v 0.857505 0.921011 0.928287
v 0.857518 0.921000 0.929486
v 0.857518 0.921011 0.929487
v 0.857500 0.921011 0.929486
v 0.857518 0.921003 0.929487
v 0.857507 0.921005 0.929487
v 0.857505 0.921011 0.929487
v 0.857505 0.921003 0.929486
v 0.857518 0.938989 0.928287
v 0.857500 0.938989 0.928288
v 0.857518 0.939000 0.928288
v 0.857505 0.938989 0.928287
v 0.857507 0.938995 0.928288
v 0.857505 0.938997 0.928288
v 0.857518 0.938997 0.928287
v 0.857518 0.938989 0.929487
v 0.857518 0.939000 0.929486
v 0.857500 0.938989 0.929486
v 0.857518 0.938997 0.929487
v 0.857507 0.938995 0.929487
v 0.857505 0.938997 0.929486
v 0.857505 0.938989 0.929487
v 0.887482 0.921011 0.928287
v 0.887500 0.921011 0.928288
v 0.887482 0.921000 0.928288
v 0.887494 0.921011 0.928287
v 0.887492 0.921005 0.928288
v 0.887494 0.921003 0.928288
v 0.887482 0.921003 0.928287
v 0.887482 0.921011 0.929487
v 0.887482 0.921000 0.929486
v 0.887500 0.921011 0.929486
v 0.887482 0.921003 0.929487
v 0.887492 0.921005 0.929487
v 0.887494 0.921003 0.929486
v 0.887494 0.921011 0.929487
v 0.887482 0.938989 0.928287
v 0.887482 0.939000 0.928288
v 0.887500 0.938989 0.928288
v 0.887482 0.938997 0.928287
v 0.887492 0.938995 0.928288
v 0.887494 0.938997 0.928288
v 0.887494 0.938989 0.928287
v 0.887482 0.938989 0.929487
v 0.887500 0.938989 0.929486
v 0.887482 0.939000 0.929486
v 0.887494 0.938989 0.929487
v 0.887492 0.938995 0.929487
v 0.887494 0.938997 0.929486
v 0.887482 0.938997 0.929487
v 0.772500 0.933884 0.928887
v 0.773100 0.934500 0.928887
v 0.772675 0.934313 0.928887
v 0.847500 0.933884 0.928887
v 0.846900 0.934500 0.928887
v 0.847324 0.934313 0.928887
v 0.772500 0.933500 0.927202
v 0.773100 0.934054 0.926935
v 0.772675 0.933886 0.927016
v 0.847500 0.933500 0.927202
v 0.846900 0.934054 0.926935
v 0.847324 0.933886 0.927016
v 0.772500 0.932422 0.925850
v 0.773100 0.932806 0.925369
v 0.772675 0.932689 0.925515
v 0.847500 0.932422 0.925850
v 0.846900 0.932806 0.925369
v 0.847324 0.932689 0.925515
v 0.772500 0.930864 0.925100
v 0.773100 0.931001 0.924500
v 0.772675 0.930960 0.924682
v 0.847500 0.930864 0.925100
v 0.846900 0.931001 0.924500
v 0.847324 0.930960 0.924682
v 0.772500 0.929136 0.925100
v 0.773100 0.928999 0.924500
v 0.772675 0.929040 0.924682
v 0.847500 0.929136 0.925100
v 0.846900 0.928999 0.924500
v 0.847324 0.929040 0.924682
v 0.772500 0.927578 0.925850
v 0.773100 0.927194 0.925369
v 0.772675 0.927311 0.925515
v 0.847500 0.927578 0.925850
v 0.846900 0.927194 0.925369
v 0.847324 0.927311 0.925515
v 0.772500 0.926500 0.927202
v 0.773100 0.925946 0.926935
v 0.772675 0.926114 0.927016
v 0.847500 0.926500 0.927202
v 0.846900 0.925946 0.926935
v 0.847324 0.926114 0.927016
v 0.772500 0.926115 0.928887
v 0.773100 0.925500 0.928887
v 0.772675 0.925686 0.928887
v 0.847500 0.926115 0.928887
v 0.846900 0.925500 0.928887
v 0.847324 0.925686 0.928887
v 0.772500 0.926500 0.930573
v 0.773100 0.925946 0.930840
v 0.772675 0.926114 0.930759
v 0.847500 0.926500 0.930573
v 0.846900 0.925946 0.930840
v 0.847324 0.926114 0.930759
v 0.772500 0.927578 0.931924
v 0.773100 0.927194 0.932405
v 0.772675 0.927311 0.932260
v 0.847500 0.927578 0.931924
v 0.846900 0.927194 0.932405
v 0.847324 0.927311 0.932260
v 0.772500 0.929136 0.932674
v 0.773100 0.928999 0.933274
v 0.772675 0.929040 0.933092
v 0.847500 0.929136 0.932674
v 0.846900 0.928999 0.933274
v 0.847324 0.929040 0.933092
v 0.772500 0.930864 0.932674
v 0.773100 0.931001 0.933274
v 0.772675 0.930960 0.933092
v 0.847500 0.930864 0.932674
v 0.846900 0.931001 0.933274
v 0.847324 0.930960 0.933092
v 0.772500 0.932422 0.931924
v 0.773100 0.932806 0.932405
v 0.772675 0.932689 0.932260
v 0.847500 0.932422 0.931924
v 0.846900 0.932806 0.932405
v 0.847324 0.932689 0.932260
v 0.772500 0.933500 0.930573
v 0.773100 0.934054 0.930840
v 0.772675 0.933886 0.930759
v 0.847500 0.933500 0.930573
v 0.846900 0.934054 0.930840
v 0.847324 0.933886 0.930759
vn -0.0000 -1.0000 -0.0000
vn 1.0000 -0.0000 -0.0000
vn -0.0000 -0.0000 1.0000
vn -1.0000 -0.0000 -0.0000
vn -0.0000 1.0000 -0.0000
vn -0.0166 -0.0212 -0.9996
vn -0.0303 -0.1588 -0.9868
vn -0.1245 -0.0859 -0.9885
vn -0.0510 -0.2051 0.9774
vn -0.0127 -0.0276 0.9995
vn -0.0960 -0.0508 0.9941
vn -0.0127 0.0276 -0.9995
vn -0.0960 0.0508 -0.9941
vn -0.0510 0.2051 -0.9774
vn -0.0166 0.0212 0.9996
vn -0.0303 0.1588 0.9868
vn -0.1245 0.0859 0.9885
vn 0.0127 -0.0276 -0.9995
vn 0.0960 -0.0508 -0.9941
vn 0.0510 -0.2051 -0.9774
vn 0.0166 -0.0212 0.9996
vn 0.0303 -0.1588 0.9868
vn 0.1245 -0.0859 0.9885
vn 0.0166 0.0212 -0.9996
vn 0.0303 0.1588 -0.9868
vn 0.1245 0.0859 -0.9885
vn 0.0127 0.0276 0.9995
vn 0.0960 0.0508 0.9941
vn 0.0510 0.2051 0.9774
vn -0.0166 -0.0000 -0.9999
vn -0.0961 -0.0000 -0.9954
vn -0.2411 -0.9705 -0.0000
vn -0.8229 -0.5682 -0.0000
vn -0.0166 -0.0000 0.9999
vn -0.0961 -0.0000 0.9954
vn -0.2411 0.9705 -0.0000
vn -0.8229 0.5682 -0.0000
vn -0.0000 0.0276 -0.9996
vn -0.0000 0.1589 -0.9873
vn -0.0000 0.0276 0.9996
vn -0.0000 0.1589 0.9873
vn 0.8231 0.5679 -0.0000
vn 0.2412 0.9705 -0.0000
vn 0.0166 -0.0000 -0.9999
vn 0.0961 -0.0000 -0.9954
vn 0.0166 -0.0000 0.9999
vn 0.0961 -0.0000 0.9954
vn 0.2411 -0.9705 -0.0000
vn 0.8229 -0.5682 -0.0000
vn -0.0000 -0.0276 -0.9996
vn -0.0000 -0.1589 -0.9873
vn -0.0000 -0.0276 0.9996
vn -0.0000 -0.1589 0.9873
vn -0.0000 -0.0000 -1.0000
vn -0.0000 0.9749 0.2225
vn -0.0000 0.4339 -0.9010
vn -0.0000 -0.4339 -0.9010
vn -0.0000 -0.7818 -0.6235
vn -0.0000 -0.9749 -0.2225
vn -0.0000 -0.9749 0.2225
vn -0.0000 -0.7818 0.6235
vn -0.0000 -0.4339 0.9010
vn -0.0000 0.4339 0.9010
vn -0.0000 0.7818 0.6235
vn -0.0000 0.7818 -0.6235
vn -0.0000 0.9749 -0.2225
vn -0.3940 0.8961 -0.2045
vn -0.9219 0.3777 -0.0862
vn 0.3940 0.8961 -0.2045
vn 0.9219 0.3778 -0.0862
vn -0.3940 0.7186 -0.5730
vn -0.9219 0.3029 -0.2416
vn 0.3940 0.7186 -0.5730
vn 0.9219 0.3029 -0.2416
vn -0.3940 0.3988 -0.8281
vn -0.9219 0.1681 -0.3491
vn 0.3940 0.3988 -0.8281
vn 0.9219 0.1681 -0.3491
vn -0.3940 -0.0000 -0.9191
vn -0.9219 -0.0000 -0.3875
vn 0.3940 -0.0000 -0.9191
vn 0.9219 -0.0000 -0.3875
vn -0.3940 -0.3988 -0.8281
vn -0.9219 -0.1681 -0.3491
vn 0.3940 -0.3988 -0.8281
vn 0.9219 -0.1681 -0.3491
vn -0.3940 -0.7186 -0.5730
vn -0.9219 -0.3030 -0.2416
vn 0.3940 -0.7186 -0.5730
vn 0.9219 -0.3029 -0.2416
vn -0.3940 -0.8961 -0.2045
vn -0.9219 -0.3778 -0.0862
vn 0.3940 -0.8961 -0.2045
vn 0.9219 -0.3777 -0.0862
vn -0.3940 -0.8960 0.2045
vn -0.9219 -0.3778 0.0862
vn 0.3940 -0.8961 0.2045
vn 0.9219 -0.3778 0.0862
vn -0.3940 -0.7186 0.5730
vn -0.9219 -0.3029 0.2416
vn 0.3940 -0.7186 0.5730
vn 0.9219 -0.3029 0.2416
vn -0.3940 -0.3988 0.8281
vn -0.9219 -0.1681 0.3491
vn 0.3940 -0.3988 0.8281
vn 0.9219 -0.1681 0.3491
vn -0.3940 -0.0000 0.9191
vn -0.9219 -0.0000 0.3875
vn 0.3940 -0.0000 0.9191
vn 0.9219 -0.0000 0.3875
vn -0.3940 0.3988 0.8281
vn -0.9219 0.1681 0.3491
vn 0.3940 0.3988 0.8281
vn 0.9219 0.1681 0.3491
vn -0.3940 0.7186 0.5731
vn -0.9219 0.3029 0.2416
vn 0.3940 0.7186 0.5730
vn 0.9219 0.3029 0.2416
vn -0.3940 0.8961 0.2045
vn -0.9219 0.3778 0.0862
vn 0.3940 0.8961 0.2045
vn 0.9219 0.3778 0.0862
vn -0.0127 -0.0276 -0.9995
vn -0.0510 -0.2051 -0.9774
vn -0.0960 -0.0508 -0.9941
vn -0.0303 -0.1588 0.9868
vn -0.0166 -0.0212 0.9996
vn -0.1245 -0.0859 0.9885
vn -0.0166 0.0212 -0.9996
vn -0.1245 0.0859 -0.9885
vn -0.0303 0.1588 -0.9868
vn -0.0127 0.0276 0.9995
vn -0.0510 0.2051 0.9774
vn -0.0960 0.0508 0.9941
vn 0.0166 -0.0212 -0.9996
vn 0.1245 -0.0859 -0.9885
vn 0.0303 -0.1588 -0.9868
vn 0.0127 -0.0276 0.9995
vn 0.0510 -0.2051 0.9774
vn 0.0960 -0.0508 0.9941
vn 0.0127 0.0276 -0.9995
vn 0.0510 0.2051 -0.9774
vn 0.0960 0.0508 -0.9941
vn 0.0166 0.0212 0.9996
vn 0.1245 0.0859 0.9885
vn 0.0303 0.1588 0.9868
vn -0.0962 -0.0000 -0.9954
vn -0.2412 -0.9705 -0.0000
vn -0.8231 -0.5679 -0.0000
vn -0.0962 -0.0000 0.9954
vn -0.2412 0.9705 -0.0000
vn -0.8231 0.5679 -0.0000
vn -0.0000 0.1590 -0.9873
vn -0.0000 0.1590 0.9873
vn 0.8229 0.5681 -0.0000
vn 0.2411 0.9705 -0.0000
vn 0.0962 -0.0000 -0.9954
vn 0.0962 -0.0000 0.9954
vn 0.2412 -0.9705 -0.0000
vn 0.8231 -0.5679 -0.0000
vn -0.0000 -0.1590 -0.9873
vn -0.0000 -0.1590 0.9873
vn -0.9219 0.3778 -0.0862
vn 0.9219 0.3777 -0.0862
vn -0.9219 0.3030 -0.2416
vn -0.9219 -0.3029 -0.2416
vn -0.3940 -0.8960 -0.2045
vn 0.9219 -0.3778 -0.0862
vn -0.3940 -0.8961 0.2045
vn 0.9219 -0.3777 0.0862
vn -0.3940 -0.7186 0.5731
vn -0.3940 0.7186 0.5730
vn -0.3941 0.8960 0.2045
s 0
f 37//1 2//1 31//1
f 51//2 30//2 45//2
f 22//3 36//3 50//3
f 10//4 16//4 3//4
f 23//5 44//5 17//5
f 1//6 5//6 7//6
f 2//7 5//7 4//7
f 3//8 5//8 6//8
f 8//9 12//9 14//9
f 9//10 12//10 11//10
f 10//11 12//11 13//11
f 15//12 19//12 21//12
f 16//13 19//13 18//13
f 17//14 19//14 20//14
f 22//15 26//15 28//15
f 23//16 26//16 25//16
f 24//17 26//17 27//17
f 29//18 33//18 35//18
f 30//19 33//19 32//19
f 31//20 33//20 34//20
f 36//21 40//21 42//21
f 37//22 40//22 39//22
f 38//23 40//23 41//23
f 43//24 47//24 49//24
f 44//25 47//25 46//25
f 45//26 47//26 48//26
f 50//27 54//27 56//27
f 51//28 54//28 53//28
f 52//29 54//29 55//29
f 1//30 18//30 15//30
f 7//31 16//31 18//31
f 8//32 6//32 2//32
f 14//33 3//33 6//33
f 22//34 13//34 9//34
f 28//35 10//35 13//35
f 17//36 27//36 23//36
f 20//37 24//37 27//37
f 15//38 46//38 43//38
f 21//39 44//39 46//39
f 50//40 25//40 22//40
f 56//41 23//41 25//41
f 45//42 55//42 51//42
f 48//43 52//43 55//43
f 43//44 32//44 29//44
f 49//45 30//45 32//45
f 36//46 53//46 50//46
f 42//47 51//47 53//47
f 31//48 41//48 37//48
f 34//49 38//49 41//49
f 29//50 4//50 1//50
f 35//51 2//51 4//51
f 9//52 39//52 36//52
f 11//53 37//53 39//53
f 43//54 1//54 15//54
f 139//55 58//55 136//55
f 73//56 76//56 70//56
f 79//54 82//54 76//54
f 82//57 91//57 88//57
f 88//58 97//58 94//58
f 94//59 103//59 100//59
f 100//60 109//60 106//60
f 106//61 115//61 112//61
f 112//62 121//62 118//62
f 121//3 124//3 118//3
f 127//63 130//63 124//63
f 133//64 136//64 130//64
f 67//65 70//65 64//65
f 132//2 108//2 84//2
f 61//66 64//66 58//66
f 58//67 65//67 59//67
f 59//68 63//68 57//68
f 61//69 68//69 67//69
f 62//70 66//70 68//70
f 64//71 71//71 65//71
f 65//72 69//72 63//72
f 67//73 74//73 73//73
f 68//74 72//74 74//74
f 70//75 77//75 71//75
f 71//76 75//76 69//76
f 73//77 80//77 79//77
f 74//78 78//78 80//78
f 82//79 77//79 76//79
f 83//80 75//80 77//80
f 79//81 86//81 85//81
f 80//82 84//82 86//82
f 88//83 83//83 82//83
f 89//84 81//84 83//84
f 91//85 86//85 92//85
f 92//86 84//86 90//86
f 94//87 89//87 88//87
f 95//88 87//88 89//88
f 97//89 92//89 98//89
f 98//90 90//90 96//90
f 100//91 95//91 94//91
f 101//92 93//92 95//92
f 103//93 98//93 104//93
f 104//94 96//94 102//94
f 100//95 107//95 101//95
f 101//96 105//96 99//96
f 103//97 110//97 109//97
f 104//98 108//98 110//98
f 106//99 113//99 107//99
f 107//100 111//100 105//100
f 109//101 116//101 115//101
f 110//102 114//102 116//102
f 112//103 119//103 113//103
f 113//104 117//104 111//104
f 115//105 122//105 121//105
f 116//106 120//106 122//106
f 124//107 119//107 118//107
f 125//108 117//108 119//108
f 121//109 128//109 127//109
f 122//110 126//110 128//110
f 130//111 125//111 124//111
f 131//112 123//112 125//112
f 133//113 128//113 134//113
f 134//114 126//114 132//114
f 136//115 131//115 130//115
f 137//116 129//116 131//116
f 139//117 134//117 140//117
f 140//118 132//118 138//118
f 58//119 137//119 136//119
f 59//120 135//120 137//120
f 61//121 140//121 62//121
f 62//122 138//122 60//122
f 75//4 99//4 123//4
f 37//1 8//1 2//1
f 51//2 38//2 30//2
f 22//3 9//3 36//3
f 10//4 24//4 16//4
f 23//5 52//5 44//5
f 1//123 4//123 5//123
f 2//124 6//124 5//124
f 3//125 7//125 5//125
f 8//126 11//126 12//126
f 9//127 13//127 12//127
f 10//128 14//128 12//128
f 15//129 18//129 19//129
f 16//130 20//130 19//130
f 17//131 21//131 19//131
f 22//132 25//132 26//132
f 23//133 27//133 26//133
f 24//134 28//134 26//134
f 29//135 32//135 33//135
f 30//136 34//136 33//136
f 31//137 35//137 33//137
f 36//138 39//138 40//138
f 37//139 41//139 40//139
f 38//140 42//140 40//140
f 43//141 46//141 47//141
f 44//142 48//142 47//142
f 45//143 49//143 47//143
f 50//144 53//144 54//144
f 51//145 55//145 54//145
f 52//146 56//146 54//146
f 1//30 7//30 18//30
f 7//147 3//147 16//147
f 8//148 14//148 6//148
f 14//149 10//149 3//149
f 22//34 28//34 13//34
f 28//150 24//150 10//150
f 17//151 20//151 27//151
f 20//152 16//152 24//152
f 15//38 21//38 46//38
f 21//153 17//153 44//153
f 50//40 56//40 25//40
f 56//154 52//154 23//154
f 45//155 48//155 55//155
f 48//156 44//156 52//156
f 43//44 49//44 32//44
f 49//157 45//157 30//157
f 36//46 42//46 53//46
f 42//158 38//158 51//158
f 31//159 34//159 41//159
f 34//160 30//160 38//160
f 29//50 35//50 4//50
f 35//161 31//161 2//161
f 9//52 11//52 39//52
f 11//162 8//162 37//162
f 43//54 29//54 1//54
f 139//55 61//55 58//55
f 73//56 79//56 76//56
f 79//54 85//54 82//54
f 82//57 85//57 91//57
f 88//58 91//58 97//58
f 94//59 97//59 103//59
f 100//60 103//60 109//60
f 106//61 109//61 115//61
f 112//62 115//62 121//62
f 121//3 127//3 124//3
f 127//63 133//63 130//63
f 133//64 139//64 136//64
f 67//65 73//65 70//65
f 72//2 66//2 60//2
f 60//2 138//2 132//2
f 132//2 126//2 120//2
f 120//2 114//2 108//2
f 108//2 102//2 96//2
f 96//2 90//2 84//2
f 84//2 78//2 72//2
f 72//2 60//2 132//2
f 132//2 120//2 108//2
f 108//2 96//2 84//2
f 84//2 72//2 132//2
f 61//66 67//66 64//66
f 58//67 64//67 65//67
f 59//163 65//163 63//163
f 61//69 62//69 68//69
f 62//164 60//164 66//164
f 64//71 70//71 71//71
f 65//165 71//165 69//165
f 67//73 68//73 74//73
f 68//74 66//74 72//74
f 70//75 76//75 77//75
f 71//76 77//76 75//76
f 73//77 74//77 80//77
f 74//78 72//78 78//78
f 82//79 83//79 77//79
f 83//80 81//80 75//80
f 79//81 80//81 86//81
f 80//82 78//82 84//82
f 88//83 89//83 83//83
f 89//84 87//84 81//84
f 91//85 85//85 86//85
f 92//86 86//86 84//86
f 94//87 95//87 89//87
f 95//166 93//166 87//166
f 97//89 91//89 92//89
f 98//90 92//90 90//90
f 100//167 101//167 95//167
f 101//92 99//92 93//92
f 103//93 97//93 98//93
f 104//168 98//168 96//168
f 100//169 106//169 107//169
f 101//96 107//96 105//96
f 103//97 104//97 110//97
f 104//170 102//170 108//170
f 106//171 112//171 113//171
f 107//100 113//100 111//100
f 109//101 110//101 116//101
f 110//102 108//102 114//102
f 112//103 118//103 119//103
f 113//104 119//104 117//104
f 115//105 116//105 122//105
f 116//106 114//106 120//106
f 124//107 125//107 119//107
f 125//108 123//108 117//108
f 121//109 122//109 128//109
f 122//110 120//110 126//110
f 130//111 131//111 125//111
f 131//112 129//112 123//112
f 133//113 127//113 128//113
f 134//114 128//114 126//114
f 136//172 137//172 131//172
f 137//116 135//116 129//116
f 139//117 133//117 134//117
f 140//118 134//118 132//118
f 58//173 59//173 137//173
f 59//120 57//120 135//120
f 61//121 139//121 140//121
f 62//122 140//122 138//122
f 135//4 57//4 63//4
f 63//4 69//4 75//4
f 75//4 81//4 87//4
f 87//4 93//4 99//4
f 99//4 105//4 111//4
f 111//4 117//4 123//4
f 123//4 129//4 135//4
f 135//4 63//4 75//4
f 75//4 87//4 99//4
f 99//4 111//4 123//4
f 123//4 135//4 75//4
