# Blender 4.0.2
# www.blender.org
o RootPicker
v 0.863592 1.172154 0.930602
v 0.863883 1.172915 0.930327
v 0.863578 1.172576 0.930410
v 0.875592 1.178154 0.930602
v 0.874810 1.178378 0.930327
v 0.875264 1.178419 0.930410
v 0.863944 1.171450 0.929645
v 0.864313 1.172055 0.929158
v 0.863984 1.171763 0.929305
v 0.875944 1.177450 0.929645
v 0.875239 1.177518 0.929158
v 0.875670 1.177606 0.929305
v 0.864447 1.170444 0.929124
v 0.864927 1.170827 0.928522
v 0.864564 1.170603 0.928704
v 0.876447 1.176444 0.929124
v 0.875853 1.176291 0.928522
v 0.876250 1.176446 0.928704
v 0.865001 1.169336 0.929142
v 0.865603 1.169474 0.928544
v 0.865204 1.169324 0.928725
v 0.877001 1.175336 0.929142
v 0.876530 1.174937 0.928544
v 0.876890 1.175167 0.928725
v 0.865497 1.168345 0.929696
v 0.866208 1.168263 0.929221
v 0.865776 1.168180 0.929365
v 0.877497 1.174345 0.929696
v 0.877135 1.173727 0.929221
v 0.877462 1.174023 0.929365
v 0.865836 1.167667 0.930677
v 0.866623 1.167435 0.930418
v 0.866167 1.167397 0.930496
v 0.877836 1.173667 0.930677
v 0.877549 1.172899 0.930418
v 0.877853 1.173240 0.930496
v 0.865951 1.167436 0.931889
v 0.866763 1.167154 0.931898
v 0.866300 1.167131 0.931895
v 0.877951 1.173436 0.931889
v 0.877690 1.172617 0.931898
v 0.877986 1.172974 0.931895
v 0.865820 1.167699 0.933093
v 0.866603 1.167475 0.933368
v 0.866149 1.167434 0.933284
v 0.877820 1.173699 0.933093
v 0.877530 1.172938 0.933368
v 0.877834 1.173277 0.933284
v 0.865468 1.168403 0.934050
v 0.866173 1.168334 0.934537
v 0.865743 1.168246 0.934389
v 0.877468 1.174403 0.934050
v 0.877100 1.173797 0.934537
v 0.877428 1.174089 0.934389
v 0.864965 1.169408 0.934571
v 0.865559 1.169562 0.935173
v 0.865162 1.169407 0.934990
v 0.876965 1.175408 0.934571
v 0.876486 1.175025 0.935173
v 0.876848 1.175250 0.934990
v 0.864411 1.170516 0.934553
v 0.864883 1.170915 0.935151
v 0.864523 1.170686 0.934969
v 0.876411 1.176517 0.934553
v 0.875809 1.176379 0.935151
v 0.876209 1.176529 0.934969
v 0.863915 1.171508 0.933998
v 0.864277 1.172126 0.934474
v 0.863951 1.171830 0.934330
v 0.875915 1.177508 0.933998
v 0.875204 1.177589 0.934474
v 0.875636 1.177673 0.934330
v 0.863576 1.172186 0.933018
v 0.863863 1.172954 0.933277
v 0.863560 1.172613 0.933198
v 0.875576 1.178186 0.933018
v 0.874790 1.178417 0.933277
v 0.875245 1.178455 0.933198
v 0.863461 1.172417 0.931806
v 0.863723 1.173235 0.931797
v 0.863427 1.172879 0.931800
v 0.875461 1.178417 0.931806
v 0.874649 1.178699 0.931797
v 0.875112 1.178722 0.931800
v 0.779235 1.173934 0.930940
v 0.779835 1.174549 0.930940
v 0.779411 1.174363 0.930940
v 0.864235 1.173934 0.930940
v 0.863635 1.174549 0.930940
v 0.864059 1.174363 0.930940
v 0.779235 1.173598 0.929471
v 0.779835 1.174153 0.929204
v 0.779411 1.173985 0.929285
v 0.864235 1.173598 0.929471
v 0.863635 1.174153 0.929204
v 0.864059 1.173985 0.929285
v 0.779235 1.172659 0.928293
v 0.779835 1.173043 0.927812
v 0.779411 1.172927 0.927958
v 0.864235 1.172659 0.928293
v 0.863635 1.173043 0.927812
v 0.864059 1.172927 0.927958
v 0.779235 1.171302 0.927640
v 0.779835 1.171439 0.927040
v 0.779411 1.171398 0.927222
v 0.864235 1.171302 0.927640
v 0.863635 1.171439 0.927040
v 0.864059 1.171398 0.927222
v 0.779235 1.169796 0.927640
v 0.779835 1.169659 0.927040
v 0.779411 1.169701 0.927222
v 0.864235 1.169796 0.927640
v 0.863635 1.169659 0.927040
v 0.864059 1.169701 0.927222
v 0.779235 1.168439 0.928293
v 0.779835 1.168055 0.927812
v 0.779411 1.168171 0.927958
v 0.864235 1.168439 0.928293
v 0.863635 1.168055 0.927812
v 0.864059 1.168171 0.927958
v 0.779235 1.167500 0.929471
v 0.779835 1.166945 0.929204
v 0.779411 1.167113 0.929285
v 0.864235 1.167500 0.929471
v 0.863635 1.166945 0.929204
v 0.864059 1.167113 0.929285
v 0.779235 1.167165 0.930940
v 0.779835 1.166549 0.930940
v 0.779411 1.166736 0.930940
v 0.864235 1.167164 0.930940
v 0.863635 1.166549 0.930940
v 0.864059 1.166736 0.930940
v 0.779235 1.167500 0.932408
v 0.779835 1.166945 0.932675
v 0.779411 1.167113 0.932594
v 0.864235 1.167500 0.932408
v 0.863635 1.166945 0.932675
v 0.864059 1.167113 0.932594
v 0.779235 1.168439 0.933586
v 0.779835 1.168055 0.934067
v 0.779411 1.168171 0.933921
v 0.864235 1.168439 0.933586
v 0.863635 1.168055 0.934067
v 0.864059 1.168171 0.933921
v 0.779235 1.169796 0.934239
v 0.779835 1.169659 0.934839
v 0.779411 1.169701 0.934657
v 0.864235 1.169796 0.934239
v 0.863635 1.169659 0.934839
v 0.864059 1.169701 0.934657
v 0.779235 1.171302 0.934239
v 0.779835 1.171439 0.934839
v 0.779411 1.171398 0.934657
v 0.864235 1.171302 0.934239
v 0.863635 1.171439 0.934839
v 0.864059 1.171398 0.934657
v 0.779235 1.172659 0.933586
v 0.779835 1.173043 0.934067
v 0.779411 1.172927 0.933921
v 0.864235 1.172659 0.933586
v 0.863635 1.173043 0.934067
v 0.864059 1.172927 0.933921
v 0.779235 1.173599 0.932408
v 0.779835 1.174153 0.932675
v 0.779411 1.173985 0.932594
v 0.864235 1.173598 0.932408
v 0.863635 1.174153 0.932675
v 0.864059 1.173985 0.932594
v 0.876235 1.176549 0.934540
v 0.876235 1.176549 0.927340
v 0.877548 1.178357 0.933623
v 0.876936 1.177514 0.934220
v 0.877261 1.177962 0.933978
v 0.878421 1.178584 0.932740
v 0.877495 1.179257 0.932740
v 0.877818 1.178728 0.933164
v 0.878003 1.178983 0.932740
v 0.878705 1.178975 0.930940
v 0.877778 1.179648 0.930940
v 0.878284 1.179369 0.930940
v 0.877495 1.179257 0.929140
v 0.878421 1.178584 0.929140
v 0.877818 1.178728 0.928715
v 0.878003 1.178983 0.929140
v 0.876936 1.177514 0.927659
v 0.877548 1.178357 0.928257
v 0.877261 1.177962 0.927902
v 0.877369 1.176918 0.934220
v 0.878360 1.177240 0.933623
v 0.877895 1.177089 0.933978
v 0.879200 1.176911 0.932740
v 0.878846 1.177999 0.932740
v 0.878796 1.177381 0.933164
v 0.879096 1.177479 0.932740
v 0.879659 1.177060 0.930940
v 0.879305 1.178149 0.930940
v 0.879550 1.177626 0.930940
v 0.878846 1.177999 0.929140
v 0.879200 1.176911 0.929140
v 0.878796 1.177381 0.928715
v 0.879096 1.177479 0.929140
v 0.878360 1.177240 0.928257
v 0.877369 1.176918 0.927659
v 0.877895 1.177089 0.927902
v 0.877369 1.176180 0.934220
v 0.878360 1.175858 0.933623
v 0.877895 1.176010 0.933978
v 0.878846 1.175099 0.932740
v 0.879200 1.176188 0.932740
v 0.878796 1.175717 0.933164
v 0.879096 1.175619 0.932740
v 0.879305 1.174950 0.930940
v 0.879659 1.176039 0.930940
v 0.879550 1.175472 0.930940
v 0.879200 1.176188 0.929140
v 0.878846 1.175099 0.929140
v 0.878796 1.175717 0.928715
v 0.879096 1.175619 0.929140
v 0.878360 1.175858 0.928257
v 0.877369 1.176180 0.927659
v 0.877895 1.176010 0.927902
v 0.876936 1.175584 0.934220
v 0.877548 1.174741 0.933623
v 0.877261 1.175136 0.933978
v 0.877495 1.173841 0.932740
v 0.878421 1.174514 0.932740
v 0.877818 1.174370 0.933164
v 0.878003 1.174115 0.932740
v 0.877778 1.173451 0.930940
v 0.878705 1.174124 0.930940
v 0.878284 1.173729 0.930940
v 0.878421 1.174514 0.929140
v 0.877495 1.173841 0.929140
v 0.877818 1.174370 0.928715
v 0.878003 1.174115 0.929140
v 0.877548 1.174741 0.928257
v 0.876936 1.175584 0.927659
v 0.877261 1.175136 0.927902
v 0.876235 1.175356 0.934220
v 0.876235 1.174314 0.933623
v 0.876235 1.174803 0.933978
v 0.875662 1.173617 0.932740
v 0.876807 1.173617 0.932740
v 0.876235 1.173856 0.933164
v 0.876235 1.173540 0.932740
v 0.875662 1.173135 0.930940
v 0.876807 1.173135 0.930940
v 0.876235 1.173063 0.930940
v 0.876807 1.173617 0.929140
v 0.875662 1.173617 0.929140
v 0.876235 1.173856 0.928715
v 0.876235 1.173540 0.929140
v 0.876235 1.174314 0.928257
v 0.876235 1.175356 0.927659
v 0.876235 1.174803 0.927902
v 0.875534 1.175584 0.934220
v 0.874921 1.174741 0.933623
v 0.875209 1.175136 0.933978
v 0.874049 1.174514 0.932740
v 0.874975 1.173841 0.932740
v 0.874652 1.174370 0.933164
v 0.874466 1.174115 0.932740
v 0.873765 1.174124 0.930940
v 0.874691 1.173451 0.930940
v 0.874186 1.173729 0.930940
v 0.874975 1.173841 0.929140
v 0.874049 1.174514 0.929140
v 0.874652 1.174370 0.928715
v 0.874466 1.174115 0.929140
v 0.874921 1.174741 0.928257
v 0.875534 1.175584 0.927659
v 0.875209 1.175136 0.927902
v 0.875100 1.176180 0.934220
v 0.874109 1.175858 0.933623
v 0.874574 1.176010 0.933978
v 0.873270 1.176188 0.932740
v 0.873624 1.175099 0.932740
v 0.873673 1.175717 0.933164
v 0.873373 1.175619 0.932740
v 0.872811 1.176039 0.930940
v 0.873165 1.174950 0.930940
v 0.872920 1.175472 0.930940
v 0.873624 1.175099 0.929140
v 0.873270 1.176188 0.929140
v 0.873673 1.175717 0.928715
v 0.873373 1.175619 0.929140
v 0.874109 1.175858 0.928257
v 0.875100 1.176180 0.927659
v 0.874574 1.176010 0.927902
v 0.875100 1.176918 0.934220
v 0.874109 1.177240 0.933623
v 0.874574 1.177089 0.933978
v 0.873624 1.177999 0.932740
v 0.873270 1.176911 0.932740
v 0.873673 1.177381 0.933164
v 0.873373 1.177479 0.932740
v 0.873165 1.178149 0.930940
v 0.872811 1.177060 0.930940
v 0.872920 1.177626 0.930940
v 0.873270 1.176911 0.929140
v 0.873624 1.177999 0.929140
v 0.873673 1.177381 0.928715
v 0.873373 1.177479 0.929140
v 0.874109 1.177240 0.928257
v 0.875100 1.176918 0.927659
v 0.874574 1.177089 0.927902
v 0.875534 1.177514 0.934220
v 0.874921 1.178357 0.933623
v 0.875209 1.177962 0.933978
v 0.874975 1.179257 0.932740
v 0.874049 1.178584 0.932740
v 0.874652 1.178728 0.933164
v 0.874466 1.178983 0.932740
v 0.874691 1.179648 0.930940
v 0.873765 1.178975 0.930940
v 0.874186 1.179369 0.930940
v 0.874049 1.178584 0.929140
v 0.874975 1.179257 0.929140
v 0.874652 1.178728 0.928715
v 0.874466 1.178983 0.929140
v 0.874921 1.178357 0.928257
v 0.875534 1.177514 0.927659
v 0.875209 1.177962 0.927902
v 0.876235 1.177742 0.934220
v 0.876235 1.178784 0.933623
v 0.876235 1.178295 0.933978
v 0.876807 1.179481 0.932740
v 0.875662 1.179481 0.932740
v 0.876235 1.179242 0.933164
v 0.876235 1.179558 0.932740
v 0.876807 1.179963 0.930940
v 0.875662 1.179963 0.930940
v 0.876235 1.180035 0.930940
v 0.875662 1.179481 0.929140
v 0.876807 1.179481 0.929140
v 0.876235 1.179242 0.928715
v 0.876235 1.179558 0.929140
v 0.876235 1.178784 0.928257
v 0.876235 1.177742 0.927659
v 0.876235 1.178295 0.927902
vn -0.4345 0.8689 -0.2370
vn 0.0066 -0.0133 -0.9999
vn 0.2000 -0.4000 -0.8944
vn 0.3538 -0.7075 -0.6118
vn 0.4374 -0.8749 -0.2080
vn 0.4345 -0.8689 0.2370
vn 0.3455 -0.6909 0.6350
vn 0.1880 -0.3761 0.9073
vn -0.0066 0.0133 0.9999
vn -0.2000 0.4000 0.8944
vn -0.3538 0.7075 0.6118
vn -0.4374 0.8749 0.2080
vn -0.1880 0.3761 -0.9073
vn 0.8944 0.4472 -0.0000
vn -0.3455 0.6909 -0.6350
vn -0.6700 0.4588 -0.5837
vn -0.9584 -0.1446 -0.2461
vn 0.0349 0.8112 -0.5837
vn 0.6907 0.6800 -0.2461
vn -0.5253 0.1694 -0.8339
vn -0.8974 -0.2666 -0.3516
vn 0.1796 0.5219 -0.8339
vn 0.7517 0.5580 -0.3516
vn -0.3463 -0.1884 -0.9190
vn -0.8220 -0.4174 -0.3874
vn 0.3585 0.1640 -0.9190
vn 0.8271 0.4071 -0.3874
vn -0.1686 -0.5439 -0.8221
vn -0.7471 -0.5673 -0.3466
vn 0.5363 -0.1914 -0.8221
vn 0.9020 0.2573 -0.3466
vn -0.0273 -0.8265 -0.5623
vn -0.6875 -0.6864 -0.2371
vn 0.6776 -0.4740 -0.5623
vn 0.9616 0.1381 -0.2371
vn 0.0496 -0.9803 -0.1912
vn -0.6551 -0.7513 -0.0806
vn 0.7545 -0.6279 -0.1912
vn 0.9940 0.0733 -0.0806
vn 0.0469 -0.9749 0.2178
vn -0.6562 -0.7490 0.0918
vn 0.7518 -0.6224 0.2178
vn 0.9929 0.0756 0.0918
vn -0.0349 -0.8112 0.5837
vn -0.6907 -0.6800 0.2461
vn 0.6700 -0.4588 0.5837
vn 0.9584 0.1446 0.2461
vn -0.1796 -0.5219 0.8339
vn -0.7517 -0.5580 0.3516
vn 0.5253 -0.1694 0.8339
vn 0.8974 0.2666 0.3516
vn -0.3585 -0.1640 0.9190
vn -0.8271 -0.4071 0.3874
vn 0.3463 0.1884 0.9190
vn 0.8220 0.4174 0.3874
vn -0.5363 0.1914 0.8221
vn -0.9020 -0.2573 0.3466
vn 0.1686 0.5439 0.8221
vn 0.7471 0.5673 0.3466
vn -0.6776 0.4740 0.5623
vn -0.9616 -0.1381 0.2371
vn 0.0273 0.8265 0.5623
vn 0.6875 0.6864 0.2371
vn -0.7545 0.6279 0.1912
vn -0.9940 -0.0733 0.0806
vn -0.0496 0.9803 0.1912
vn 0.6551 0.7513 0.0806
vn -0.7518 0.6224 -0.2178
vn -0.9929 -0.0756 -0.0918
vn -0.0469 0.9749 -0.2178
vn 0.6562 0.7490 -0.0918
vn -0.8944 -0.4472 -0.0000
vn -0.0000 0.9749 0.2225
vn -0.0000 0.4339 -0.9010
vn -0.0000 -0.0000 -1.0000
vn -0.0000 -0.4339 -0.9010
vn -0.0000 -0.7818 -0.6235
vn -0.0000 -0.9749 -0.2225
vn -0.0000 -0.9749 0.2225
vn -0.0000 -0.7818 0.6235
vn -0.0000 -0.4339 0.9010
vn -0.0000 -0.0000 1.0000
vn -0.0000 0.4339 0.9010
vn -0.0000 0.7818 0.6235
vn -0.0000 0.7818 -0.6235
vn 1.0000 -0.0000 -0.0000
vn -0.0000 0.9749 -0.2225
vn -0.3940 0.8961 -0.2045
vn -0.9219 0.3778 -0.0862
vn 0.3940 0.8961 -0.2045
vn 0.9219 0.3778 -0.0862
vn -0.3940 0.7186 -0.5730
vn -0.9219 0.3029 -0.2416
vn 0.3940 0.7186 -0.5730
vn 0.9219 0.3029 -0.2416
vn -0.3940 0.3988 -0.8281
vn -0.9219 0.1681 -0.3491
vn 0.3940 0.3988 -0.8281
vn 0.9219 0.1681 -0.3491
vn -0.3940 -0.0000 -0.9191
vn -0.9219 -0.0000 -0.3875
vn 0.3940 -0.0000 -0.9191
vn 0.9219 -0.0000 -0.3875
vn -0.3940 -0.3988 -0.8281
vn -0.9219 -0.1681 -0.3491
vn 0.3940 -0.3988 -0.8281
vn 0.9219 -0.1681 -0.3491
vn -0.3940 -0.7186 -0.5730
vn -0.9219 -0.3029 -0.2416
vn 0.3940 -0.7186 -0.5730
vn 0.9219 -0.3029 -0.2416
vn -0.3940 -0.8961 -0.2045
vn -0.9219 -0.3778 -0.0862
vn 0.3940 -0.8961 -0.2045
vn 0.9219 -0.3778 -0.0862
vn -0.3940 -0.8961 0.2045
vn -0.9219 -0.3778 0.0862
vn 0.3940 -0.8961 0.2045
vn 0.9219 -0.3778 0.0862
vn -0.3940 -0.7186 0.5730
vn -0.9219 -0.3029 0.2416
vn 0.3940 -0.7186 0.5730
vn 0.9219 -0.3029 0.2416
vn -0.3940 -0.3988 0.8281
vn -0.9219 -0.1681 0.3491
vn 0.3940 -0.3988 0.8281
vn 0.9219 -0.1681 0.3491
vn -0.3940 -0.0000 0.9191
vn -0.9219 -0.0000 0.3875
vn 0.3940 -0.0000 0.9191
vn 0.9219 -0.0000 0.3875
vn -0.3940 0.3988 0.8281
vn -0.9219 0.1681 0.3491
vn 0.3940 0.3988 0.8281
vn 0.9219 0.1681 0.3491
vn -0.3940 0.7186 0.5730
vn -0.9219 0.3029 0.2416
vn 0.3940 0.7186 0.5730
vn 0.9219 0.3029 0.2416
vn -0.3940 0.8961 0.2045
vn -0.9219 0.3778 0.0862
vn 0.3940 0.8961 0.2045
vn 0.9219 0.3778 0.0862
vn -1.0000 -0.0000 -0.0000
vn 0.7840 0.5696 -0.2469
vn 0.2239 0.6892 0.6892
vn 0.7246 -0.0000 0.6892
vn 0.5862 0.4259 -0.6892
vn 0.7840 0.5696 0.2469
vn 0.2194 0.1594 -0.9625
vn 0.0838 0.2579 -0.9625
vn 0.2994 0.9216 -0.2469
vn 0.2194 0.1594 0.9625
vn 0.2239 0.6892 -0.6892
vn 0.2994 0.9216 0.2469
vn 0.0838 0.2579 0.9625
vn 0.5862 -0.4259 0.6892
vn 0.7246 -0.0000 -0.6892
vn 0.2712 -0.0000 0.9625
vn 0.2712 -0.0000 -0.9625
vn 0.9690 -0.0000 -0.2469
vn 0.9690 -0.0000 0.2469
vn 0.5862 -0.4259 -0.6892
vn 0.2194 -0.1594 0.9625
vn 0.2194 -0.1594 -0.9625
vn 0.7840 -0.5696 -0.2469
vn 0.7840 -0.5696 0.2469
vn 0.2239 -0.6892 0.6892
vn 0.0838 -0.2579 0.9625
vn 0.0838 -0.2579 -0.9625
vn 0.2994 -0.9216 -0.2469
vn 0.2994 -0.9216 0.2469
vn -0.2239 -0.6892 0.6892
vn 0.2239 -0.6892 -0.6892
vn -0.0838 -0.2579 -0.9625
vn -0.2994 -0.9216 -0.2469
vn -0.2994 -0.9216 0.2469
vn -0.5862 -0.4259 0.6892
vn -0.2239 -0.6892 -0.6892
vn -0.0838 -0.2579 0.9625
vn -0.2194 -0.1594 -0.9625
vn -0.7840 -0.5696 -0.2469
vn -0.7840 -0.5696 0.2469
vn -0.2712 -0.0000 0.9625
vn -0.5862 -0.4259 -0.6892
vn -0.2194 -0.1594 0.9625
vn -0.2712 -0.0000 -0.9625
vn -0.9690 -0.0000 -0.2469
vn -0.7246 -0.0000 0.6892
vn -0.5862 0.4259 0.6892
vn -0.7246 -0.0000 -0.6892
vn -0.9690 -0.0000 0.2469
vn -0.2194 0.1594 -0.9625
vn -0.7840 0.5696 -0.2469
vn -0.7840 0.5696 0.2469
vn -0.2239 0.6892 0.6892
vn -0.5862 0.4259 -0.6892
vn -0.2194 0.1594 0.9625
vn -0.2994 0.9216 -0.2469
vn -0.2994 0.9216 0.2469
vn -0.2239 0.6892 -0.6892
vn -0.0838 0.2579 0.9625
vn -0.0838 0.2579 -0.9625
vn 0.5559 0.5825 0.5930
vn 0.3822 0.7087 0.5930
vn 0.3822 0.7087 -0.5930
vn 0.5559 0.5825 -0.5930
vn 0.7921 0.1444 0.5930
vn 0.7257 0.3487 0.5930
vn 0.7257 0.3487 -0.5930
vn 0.7921 0.1444 -0.5930
vn 0.7257 -0.3487 0.5930
vn 0.7921 -0.1444 0.5930
vn 0.7921 -0.1444 -0.5930
vn 0.7257 -0.3487 -0.5930
vn 0.3822 -0.7087 0.5930
vn 0.5559 -0.5825 0.5930
vn 0.5559 -0.5825 -0.5930
vn 0.3822 -0.7087 -0.5930
vn -0.1074 -0.7980 0.5930
vn 0.1074 -0.7980 0.5930
vn 0.1074 -0.7980 -0.5930
vn -0.1074 -0.7980 -0.5930
vn -0.5559 -0.5825 0.5930
vn -0.3822 -0.7087 0.5930
vn -0.3822 -0.7087 -0.5930
vn -0.5559 -0.5825 -0.5930
vn -0.7921 -0.1444 0.5930
vn -0.7257 -0.3487 0.5930
vn -0.7257 -0.3487 -0.5930
vn -0.7921 -0.1444 -0.5930
vn -0.7257 0.3487 0.5930
vn -0.7921 0.1444 0.5930
vn -0.7921 0.1444 -0.5930
vn -0.7257 0.3487 -0.5930
vn -0.3822 0.7087 0.5930
vn -0.5559 0.5825 0.5930
vn -0.5559 0.5825 -0.5930
vn -0.3822 0.7087 -0.5930
vn 0.1074 0.7980 0.5930
vn -0.1074 0.7980 0.5930
vn -0.1074 0.7980 -0.5930
vn 0.1074 0.7980 -0.5930
vn 0.6673 0.6992 0.2567
vn 0.4587 0.8507 0.2567
vn 0.6615 0.7055 -0.2544
vn 0.4665 0.8471 -0.2544
vn 0.9508 0.1734 0.2567
vn 0.8711 0.4186 0.2567
vn 0.9498 0.1819 -0.2544
vn 0.8754 0.4111 -0.2544
vn 0.4911 0.3568 -0.7946
vn 0.3385 0.2459 -0.9083
vn 0.3385 0.2459 0.9083
vn 0.4911 0.3568 0.7946
vn 0.8711 -0.4186 0.2567
vn 0.9508 -0.1734 0.2567
vn 0.8754 -0.4111 -0.2544
vn 0.9498 -0.1819 -0.2544
vn 0.6071 -0.0000 -0.7946
vn 0.4184 -0.0000 -0.9083
vn 0.4184 -0.0000 0.9083
vn 0.6071 -0.0000 0.7946
vn 0.4587 -0.8507 0.2567
vn 0.6673 -0.6992 0.2567
vn 0.4665 -0.8471 -0.2544
vn 0.6615 -0.7055 -0.2544
vn 0.3385 -0.2459 0.9083
vn 0.4911 -0.3568 0.7946
vn 0.3385 -0.2459 -0.9083
vn 0.4911 -0.3568 -0.7946
vn -0.1289 -0.9579 0.2567
vn 0.1289 -0.9579 0.2567
vn -0.1205 -0.9596 -0.2544
vn 0.1205 -0.9596 -0.2544
vn 0.1293 -0.3979 0.9083
vn 0.1876 -0.5774 0.7946
vn 0.1293 -0.3979 -0.9083
vn 0.1876 -0.5774 -0.7946
vn -0.6673 -0.6992 0.2567
vn -0.4587 -0.8507 0.2567
vn -0.6615 -0.7055 -0.2544
vn -0.4665 -0.8471 -0.2544
vn -0.1293 -0.3979 -0.9083
vn -0.1876 -0.5774 -0.7946
vn -0.1876 -0.5774 0.7946
vn -0.1293 -0.3979 0.9083
vn -0.9508 -0.1734 0.2567
vn -0.8711 -0.4186 0.2567
vn -0.9498 -0.1819 -0.2544
vn -0.8754 -0.4111 -0.2544
vn -0.3385 -0.2459 -0.9083
vn -0.4911 -0.3568 -0.7946
vn -0.4911 -0.3568 0.7946
vn -0.3385 -0.2459 0.9083
vn -0.8711 0.4186 0.2567
vn -0.9508 0.1734 0.2567
vn -0.8754 0.4111 -0.2544
vn -0.9498 0.1819 -0.2544
vn -0.4184 -0.0000 -0.9083
vn -0.6071 -0.0000 -0.7946
vn -0.6071 -0.0000 0.7946
vn -0.4184 -0.0000 0.9083
vn -0.4587 0.8507 0.2567
vn -0.6673 0.6992 0.2567
vn -0.4665 0.8471 -0.2544
vn -0.6615 0.7055 -0.2544
vn -0.3385 0.2459 -0.9083
vn -0.4911 0.3568 -0.7946
vn -0.4911 0.3568 0.7946
vn -0.3385 0.2459 0.9083
vn 0.1289 0.9579 0.2567
vn -0.1289 0.9579 0.2567
vn 0.1205 0.9596 -0.2544
vn -0.1205 0.9596 -0.2544
vn -0.1876 0.5774 0.7946
vn -0.1293 0.3979 0.9083
vn -0.1876 0.5774 -0.7946
vn -0.1293 0.3979 -0.9083
vn 0.1876 0.5774 0.7946
vn 0.1293 0.3979 0.9083
vn 0.1876 0.5774 -0.7946
vn 0.1293 0.3979 -0.9083
vn 0.5862 0.4259 0.6892
vn 0.0349 0.8113 -0.5837
vn -0.0349 -0.8113 0.5837
vn -0.3940 -0.7186 -0.5731
vn -0.3940 0.7186 0.5731
vn 0.5862 0.4259 -0.6891
vn 0.6615 0.7055 0.2544
vn 0.4665 0.8471 0.2544
vn 0.6673 0.6992 -0.2567
vn 0.4587 0.8507 -0.2567
vn 0.9498 0.1819 0.2544
vn 0.8754 0.4111 0.2544
vn 0.9508 0.1734 -0.2567
vn 0.8711 0.4186 -0.2567
vn 0.8754 -0.4111 0.2544
vn 0.9498 -0.1819 0.2544
vn 0.8711 -0.4186 -0.2567
vn 0.9508 -0.1734 -0.2567
vn 0.4665 -0.8471 0.2544
vn 0.6615 -0.7055 0.2544
vn 0.4587 -0.8507 -0.2567
vn 0.6673 -0.6992 -0.2567
vn -0.1205 -0.9596 0.2544
vn 0.1205 -0.9596 0.2544
vn -0.1289 -0.9579 -0.2567
vn 0.1289 -0.9579 -0.2567
vn -0.6615 -0.7055 0.2544
vn -0.4665 -0.8471 0.2544
vn -0.6673 -0.6992 -0.2567
vn -0.4587 -0.8507 -0.2567
vn -0.9498 -0.1819 0.2544
vn -0.8754 -0.4111 0.2544
vn -0.9508 -0.1734 -0.2567
vn -0.8711 -0.4186 -0.2567
vn -0.8754 0.4111 0.2544
vn -0.9498 0.1819 0.2544
vn -0.8711 0.4186 -0.2567
vn -0.9508 0.1734 -0.2567
vn -0.4665 0.8471 0.2544
vn -0.6615 0.7055 0.2544
vn -0.4587 0.8507 -0.2567
vn -0.6673 0.6992 -0.2567
vn 0.1205 0.9596 0.2544
vn -0.1205 0.9596 0.2544
vn 0.1289 0.9579 -0.2567
vn -0.1289 0.9579 -0.2567
s 0
f 83//1 2//1 80//1
f 17//2 20//2 14//2
f 23//3 26//3 20//3
f 29//4 32//4 26//4
f 35//5 38//5 32//5
f 41//6 44//6 38//6
f 47//7 50//7 44//7
f 53//8 56//8 50//8
f 59//9 62//9 56//9
f 65//10 68//10 62//10
f 71//11 74//11 68//11
f 77//12 80//12 74//12
f 11//13 14//13 8//13
f 76//14 52//14 28//14
f 5//15 8//15 2//15
f 8//16 3//16 2//16
f 9//17 1//17 3//17
f 5//18 12//18 11//18
f 6//19 10//19 12//19
f 14//20 9//20 8//20
f 9//21 13//21 7//21
f 11//22 18//22 17//22
f 12//23 16//23 18//23
f 20//24 15//24 14//24
f 21//25 13//25 15//25
f 17//26 24//26 23//26
f 18//27 22//27 24//27
f 26//28 21//28 20//28
f 27//29 19//29 21//29
f 23//30 30//30 29//30
f 24//31 28//31 30//31
f 32//32 27//32 26//32
f 33//33 25//33 27//33
f 29//34 36//34 35//34
f 30//35 34//35 36//35
f 38//36 33//36 32//36
f 39//37 31//37 33//37
f 35//38 42//38 41//38
f 42//39 34//39 40//39
f 44//40 39//40 38//40
f 45//41 37//41 39//41
f 41//42 48//42 47//42
f 42//43 46//43 48//43
f 50//44 45//44 44//44
f 51//45 43//45 45//45
f 47//46 54//46 53//46
f 48//47 52//47 54//47
f 56//48 51//48 50//48
f 51//49 55//49 49//49
f 53//50 60//50 59//50
f 54//51 58//51 60//51
f 62//52 57//52 56//52
f 63//53 55//53 57//53
f 59//54 66//54 65//54
f 60//55 64//55 66//55
f 68//56 63//56 62//56
f 69//57 61//57 63//57
f 65//58 72//58 71//58
f 66//59 70//59 72//59
f 74//60 69//60 68//60
f 75//61 67//61 69//61
f 71//62 78//62 77//62
f 72//63 76//63 78//63
f 80//64 75//64 74//64
f 81//65 73//65 75//65
f 77//66 84//66 83//66
f 84//67 76//67 82//67
f 2//68 81//68 80//68
f 3//69 79//69 81//69
f 83//70 6//70 5//70
f 84//71 4//71 6//71
f 19//72 43//72 67//72
f 164//73 89//73 86//73
f 101//74 104//74 98//74
f 104//75 113//75 110//75
f 110//76 119//76 116//76
f 119//77 122//77 116//77
f 125//78 128//78 122//78
f 131//79 134//79 128//79
f 137//80 140//80 134//80
f 140//81 149//81 146//81
f 149//82 152//82 146//82
f 155//83 158//83 152//83
f 161//84 164//84 158//84
f 92//85 101//85 98//85
f 160//86 136//86 112//86
f 89//87 92//87 86//87
f 86//88 93//88 87//88
f 93//89 85//89 87//89
f 89//90 96//90 95//90
f 96//91 88//91 94//91
f 98//92 93//92 92//92
f 99//93 91//93 93//93
f 95//94 102//94 101//94
f 102//95 94//95 100//95
f 98//96 105//96 99//96
f 105//97 97//97 99//97
f 101//98 108//98 107//98
f 102//99 106//99 108//99
f 110//100 105//100 104//100
f 105//101 109//101 103//101
f 107//102 114//102 113//102
f 108//103 112//103 114//103
f 116//104 111//104 110//104
f 117//105 109//105 111//105
f 119//106 114//106 120//106
f 114//107 118//107 120//107
f 116//108 123//108 117//108
f 117//109 121//109 115//109
f 119//110 126//110 125//110
f 120//111 124//111 126//111
f 128//112 123//112 122//112
f 129//113 121//113 123//113
f 131//114 126//114 132//114
f 126//115 130//115 132//115
f 134//116 129//116 128//116
f 135//117 127//117 129//117
f 131//118 138//118 137//118
f 138//119 130//119 136//119
f 140//120 135//120 134//120
f 141//121 133//121 135//121
f 143//122 138//122 144//122
f 144//123 136//123 142//123
f 146//124 141//124 140//124
f 147//125 139//125 141//125
f 149//126 144//126 150//126
f 150//127 142//127 148//127
f 152//128 147//128 146//128
f 147//129 151//129 145//129
f 155//130 150//130 156//130
f 156//131 148//131 154//131
f 158//132 153//132 152//132
f 153//133 157//133 151//133
f 161//134 156//134 162//134
f 162//135 154//135 160//135
f 158//136 165//136 159//136
f 159//137 163//137 157//137
f 167//138 162//138 168//138
f 168//139 160//139 166//139
f 86//140 165//140 164//140
f 87//141 163//141 165//141
f 167//142 90//142 89//142
f 90//143 166//143 88//143
f 103//144 127//144 151//144
f 178//145 198//145 182//145
f 329//146 171//146 175//146
f 193//147 206//147 209//147
f 183//148 198//148 202//148
f 174//149 196//149 178//149
f 170//150 185//150 203//150
f 170//151 339//151 185//151
f 331//152 181//152 335//152
f 172//153 169//153 188//153
f 336//154 181//154 186//154
f 327//155 179//155 331//155
f 324//156 169//156 172//156
f 210//157 223//157 226//157
f 200//158 215//158 219//158
f 188//159 169//159 205//159
f 170//160 203//160 220//160
f 195//161 215//161 199//161
f 191//162 213//162 195//162
f 217//163 232//163 236//163
f 205//164 169//164 222//164
f 170//165 220//165 237//165
f 212//166 232//166 216//166
f 208//167 230//167 212//167
f 227//168 240//168 243//168
f 222//169 169//169 239//169
f 170//170 237//170 254//170
f 229//171 249//171 233//171
f 225//172 247//172 229//172
f 244//173 257//173 260//173
f 234//174 249//174 253//174
f 170//175 254//175 271//175
f 246//176 266//176 250//176
f 242//177 264//177 246//177
f 261//178 274//178 277//178
f 251//179 266//179 270//179
f 239//180 169//180 256//180
f 170//181 271//181 288//181
f 263//182 283//182 267//182
f 259//183 281//183 263//183
f 273//184 169//184 290//184
f 268//185 283//185 287//185
f 256//186 169//186 273//186
f 170//187 288//187 305//187
f 284//188 298//188 300//188
f 278//189 291//189 294//189
f 295//190 308//190 311//190
f 285//191 300//191 304//191
f 276//192 298//192 280//192
f 170//193 305//193 322//193
f 297//194 317//194 301//194
f 293//195 315//195 297//195
f 312//196 325//196 328//196
f 302//197 317//197 321//197
f 290//198 169//198 307//198
f 314//199 334//199 318//199
f 310//200 332//200 314//200
f 319//201 334//201 338//201
f 307//202 169//202 324//202
f 170//203 322//203 339//203
f 174//204 177//204 176//204
f 177//205 175//205 176//205
f 181//206 184//206 183//206
f 184//207 182//207 183//207
f 191//208 194//208 193//208
f 194//209 192//209 193//209
f 198//210 201//210 200//210
f 201//211 199//211 200//211
f 208//212 211//212 210//212
f 211//213 209//213 210//213
f 215//214 218//214 217//214
f 218//215 216//215 217//215
f 225//216 228//216 227//216
f 228//217 226//217 227//217
f 232//218 235//218 234//218
f 235//219 233//219 234//219
f 242//220 245//220 244//220
f 245//221 243//221 244//221
f 249//222 252//222 251//222
f 252//223 250//223 251//223
f 259//224 262//224 261//224
f 262//225 260//225 261//225
f 266//226 269//226 268//226
f 269//227 267//227 268//227
f 276//228 279//228 278//228
f 279//229 277//229 278//229
f 283//230 286//230 285//230
f 286//231 284//231 285//231
f 293//232 296//232 295//232
f 296//233 294//233 295//233
f 300//234 303//234 302//234
f 303//235 301//235 302//235
f 310//236 313//236 312//236
f 313//237 311//237 312//237
f 317//238 320//238 319//238
f 320//239 318//239 319//239
f 327//240 330//240 329//240
f 330//241 328//241 329//241
f 334//242 337//242 336//242
f 337//243 335//243 336//243
f 178//244 177//244 174//244
f 177//245 179//245 175//245
f 178//246 184//246 180//246
f 184//247 179//247 180//247
f 195//248 194//248 191//248
f 194//249 196//249 192//249
f 195//250 201//250 197//250
f 201//251 196//251 197//251
f 202//252 187//252 186//252
f 187//253 203//253 185//253
f 188//254 173//254 172//254
f 190//255 171//255 173//255
f 212//256 211//256 208//256
f 211//257 213//257 209//257
f 212//258 218//258 214//258
f 218//259 213//259 214//259
f 202//260 221//260 204//260
f 204//261 220//261 203//261
f 205//262 190//262 188//262
f 207//263 189//263 190//263
f 229//264 228//264 225//264
f 228//265 230//265 226//265
f 229//266 235//266 231//266
f 235//267 230//267 231//267
f 222//268 207//268 205//268
f 224//269 206//269 207//269
f 237//270 221//270 238//270
f 238//271 219//271 236//271
f 246//272 245//272 242//272
f 245//273 247//273 243//273
f 246//274 252//274 248//274
f 252//275 247//275 248//275
f 222//276 241//276 224//276
f 241//277 223//277 224//277
f 237//278 255//278 254//278
f 255//279 236//279 253//279
f 263//280 262//280 259//280
f 262//281 264//281 260//281
f 263//282 269//282 265//282
f 269//283 264//283 265//283
f 254//284 272//284 271//284
f 255//285 270//285 272//285
f 240//286 258//286 257//286
f 241//287 256//287 258//287
f 280//288 279//288 276//288
f 279//289 281//289 277//289
f 280//290 286//290 282//290
f 286//291 281//291 282//291
f 271//292 289//292 288//292
f 272//293 287//293 289//293
f 257//294 275//294 274//294
f 258//295 273//295 275//295
f 297//296 296//296 293//296
f 296//297 298//297 294//297
f 297//298 303//298 299//298
f 303//299 298//299 299//299
f 305//300 289//300 306//300
f 289//301 304//301 306//301
f 274//302 292//302 291//302
f 292//303 273//303 290//303
f 314//304 313//304 310//304
f 313//305 315//305 311//305
f 314//306 320//306 316//306
f 320//307 315//307 316//307
f 305//308 323//308 322//308
f 323//309 304//309 321//309
f 308//310 292//310 309//310
f 292//311 307//311 309//311
f 331//312 330//312 327//312
f 330//313 332//313 328//313
f 331//314 337//314 333//314
f 337//315 332//315 333//315
f 308//316 326//316 325//316
f 309//317 324//317 326//317
f 338//318 323//318 321//318
f 340//319 322//319 323//319
f 325//320 173//320 171//320
f 326//321 172//321 173//321
f 338//322 187//322 340//322
f 187//323 339//323 340//323
f 176//324 189//324 192//324
f 83//1 5//1 2//1
f 17//2 23//2 20//2
f 23//3 29//3 26//3
f 29//4 35//4 32//4
f 35//5 41//5 38//5
f 41//6 47//6 44//6
f 47//7 53//7 50//7
f 53//8 59//8 56//8
f 59//9 65//9 62//9
f 65//10 71//10 68//10
f 71//11 77//11 74//11
f 77//12 83//12 80//12
f 11//13 17//13 14//13
f 16//14 10//14 4//14
f 4//14 82//14 76//14
f 76//14 70//14 64//14
f 64//14 58//14 52//14
f 52//14 46//14 40//14
f 40//14 34//14 28//14
f 28//14 22//14 16//14
f 16//14 4//14 76//14
f 76//14 64//14 52//14
f 52//14 40//14 28//14
f 28//14 16//14 76//14
f 5//15 11//15 8//15
f 8//16 9//16 3//16
f 9//17 7//17 1//17
f 5//325 6//325 12//325
f 6//19 4//19 10//19
f 14//20 15//20 9//20
f 9//21 15//21 13//21
f 11//22 12//22 18//22
f 12//23 10//23 16//23
f 20//24 21//24 15//24
f 21//25 19//25 13//25
f 17//26 18//26 24//26
f 18//27 16//27 22//27
f 26//28 27//28 21//28
f 27//29 25//29 19//29
f 23//30 24//30 30//30
f 24//31 22//31 28//31
f 32//32 33//32 27//32
f 33//33 31//33 25//33
f 29//34 30//34 36//34
f 30//35 28//35 34//35
f 38//36 39//36 33//36
f 39//37 37//37 31//37
f 35//38 36//38 42//38
f 42//39 36//39 34//39
f 44//40 45//40 39//40
f 45//41 43//41 37//41
f 41//42 42//42 48//42
f 42//43 40//43 46//43
f 50//326 51//326 45//326
f 51//45 49//45 43//45
f 47//46 48//46 54//46
f 48//47 46//47 52//47
f 56//48 57//48 51//48
f 51//49 57//49 55//49
f 53//50 54//50 60//50
f 54//51 52//51 58//51
f 62//52 63//52 57//52
f 63//53 61//53 55//53
f 59//54 60//54 66//54
f 60//55 58//55 64//55
f 68//56 69//56 63//56
f 69//57 67//57 61//57
f 65//58 66//58 72//58
f 66//59 64//59 70//59
f 74//60 75//60 69//60
f 75//61 73//61 67//61
f 71//62 72//62 78//62
f 72//63 70//63 76//63
f 80//64 81//64 75//64
f 81//65 79//65 73//65
f 77//66 78//66 84//66
f 84//67 78//67 76//67
f 2//68 3//68 81//68
f 3//69 1//69 79//69
f 83//70 84//70 6//70
f 84//71 82//71 4//71
f 79//72 1//72 7//72
f 7//72 13//72 19//72
f 19//72 25//72 31//72
f 31//72 37//72 43//72
f 43//72 49//72 55//72
f 55//72 61//72 67//72
f 67//72 73//72 79//72
f 79//72 7//72 19//72
f 19//72 31//72 43//72
f 43//72 55//72 67//72
f 67//72 79//72 19//72
f 164//73 167//73 89//73
f 101//74 107//74 104//74
f 104//75 107//75 113//75
f 110//76 113//76 119//76
f 119//77 125//77 122//77
f 125//78 131//78 128//78
f 131//79 137//79 134//79
f 137//80 143//80 140//80
f 140//81 143//81 149//81
f 149//82 155//82 152//82
f 155//83 161//83 158//83
f 161//84 167//84 164//84
f 92//85 95//85 101//85
f 100//86 94//86 88//86
f 88//86 166//86 160//86
f 160//86 154//86 148//86
f 148//86 142//86 136//86
f 136//86 130//86 124//86
f 124//86 118//86 112//86
f 112//86 106//86 100//86
f 100//86 88//86 160//86
f 160//86 148//86 136//86
f 136//86 124//86 112//86
f 112//86 100//86 160//86
f 89//87 95//87 92//87
f 86//88 92//88 93//88
f 93//89 91//89 85//89
f 89//90 90//90 96//90
f 96//91 90//91 88//91
f 98//92 99//92 93//92
f 99//93 97//93 91//93
f 95//94 96//94 102//94
f 102//95 96//95 94//95
f 98//96 104//96 105//96
f 105//97 103//97 97//97
f 101//98 102//98 108//98
f 102//99 100//99 106//99
f 110//100 111//100 105//100
f 105//101 111//101 109//101
f 107//102 108//102 114//102
f 108//103 106//103 112//103
f 116//104 117//104 111//104
f 117//105 115//105 109//105
f 119//106 113//106 114//106
f 114//107 112//107 118//107
f 116//327 122//327 123//327
f 117//109 123//109 121//109
f 119//110 120//110 126//110
f 120//111 118//111 124//111
f 128//112 129//112 123//112
f 129//113 127//113 121//113
f 131//114 125//114 126//114
f 126//115 124//115 130//115
f 134//116 135//116 129//116
f 135//117 133//117 127//117
f 131//118 132//118 138//118
f 138//119 132//119 130//119
f 140//120 141//120 135//120
f 141//121 139//121 133//121
f 143//122 137//122 138//122
f 144//123 138//123 136//123
f 146//124 147//124 141//124
f 147//125 145//125 139//125
f 149//126 143//126 144//126
f 150//127 144//127 142//127
f 152//128 153//128 147//128
f 147//129 153//129 151//129
f 155//130 149//130 150//130
f 156//131 150//131 148//131
f 158//132 159//132 153//132
f 153//133 159//133 157//133
f 161//134 155//134 156//134
f 162//135 156//135 154//135
f 158//328 164//328 165//328
f 159//137 165//137 163//137
f 167//138 161//138 162//138
f 168//139 162//139 160//139
f 86//140 87//140 165//140
f 87//141 85//141 163//141
f 167//142 168//142 90//142
f 90//143 168//143 166//143
f 163//144 85//144 91//144
f 91//144 97//144 103//144
f 103//144 109//144 115//144
f 115//144 121//144 127//144
f 127//144 133//144 139//144
f 139//144 145//144 151//144
f 151//144 157//144 163//144
f 163//144 91//144 103//144
f 103//144 115//144 127//144
f 127//144 139//144 151//144
f 151//144 163//144 103//144
f 178//145 196//145 198//145
f 175//146 327//146 329//146
f 329//146 325//146 171//146
f 171//146 176//146 175//146
f 209//147 191//147 193//147
f 193//147 189//147 206//147
f 206//147 210//147 209//147
f 202//148 186//148 183//148
f 183//329 182//329 198//329
f 198//148 200//148 202//148
f 174//149 192//149 196//149
f 331//152 179//152 181//152
f 186//154 338//154 336//154
f 336//154 335//154 181//154
f 181//154 183//154 186//154
f 327//155 175//155 179//155
f 226//157 208//157 210//157
f 210//157 206//157 223//157
f 223//157 227//157 226//157
f 219//158 202//158 200//158
f 200//158 199//158 215//158
f 215//158 217//158 219//158
f 195//161 213//161 215//161
f 191//162 209//162 213//162
f 236//163 219//163 217//163
f 217//163 216//163 232//163
f 232//163 234//163 236//163
f 212//166 230//166 232//166
f 208//167 226//167 230//167
f 243//168 225//168 227//168
f 227//168 223//168 240//168
f 240//168 244//168 243//168
f 229//171 247//171 249//171
f 225//172 243//172 247//172
f 260//173 242//173 244//173
f 244//173 240//173 257//173
f 257//173 261//173 260//173
f 253//174 236//174 234//174
f 234//174 233//174 249//174
f 249//174 251//174 253//174
f 246//176 264//176 266//176
f 242//177 260//177 264//177
f 277//178 259//178 261//178
f 261//178 257//178 274//178
f 274//178 278//178 277//178
f 270//179 253//179 251//179
f 251//179 250//179 266//179
f 266//179 268//179 270//179
f 263//182 281//182 283//182
f 259//183 277//183 281//183
f 287//185 270//185 268//185
f 268//185 267//185 283//185
f 283//185 285//185 287//185
f 284//188 280//188 298//188
f 294//189 276//189 278//189
f 278//189 274//189 291//189
f 291//189 295//189 294//189
f 311//190 293//190 295//190
f 295//190 291//190 308//190
f 308//190 312//190 311//190
f 304//191 287//191 285//191
f 285//191 284//191 300//191
f 300//191 302//191 304//191
f 276//192 294//192 298//192
f 297//194 315//194 317//194
f 293//195 311//195 315//195
f 328//196 310//196 312//196
f 312//196 308//196 325//196
f 325//196 329//196 328//196
f 321//197 304//197 302//197
f 302//197 301//197 317//197
f 317//197 319//197 321//197
f 314//199 332//199 334//199
f 310//200 328//200 332//200
f 338//201 321//201 319//201
f 319//201 318//201 334//201
f 334//201 336//201 338//201
f 178//330 180//330 177//330
f 177//331 180//331 179//331
f 178//332 182//332 184//332
f 184//333 181//333 179//333
f 195//334 197//334 194//334
f 194//335 197//335 196//335
f 195//336 199//336 201//336
f 201//337 198//337 196//337
f 202//252 204//252 187//252
f 187//253 204//253 203//253
f 188//254 190//254 173//254
f 190//255 189//255 171//255
f 212//338 214//338 211//338
f 211//339 214//339 213//339
f 212//340 216//340 218//340
f 218//341 215//341 213//341
f 202//260 219//260 221//260
f 204//261 221//261 220//261
f 205//262 207//262 190//262
f 207//263 206//263 189//263
f 229//342 231//342 228//342
f 228//343 231//343 230//343
f 229//344 233//344 235//344
f 235//345 232//345 230//345
f 222//268 224//268 207//268
f 224//269 223//269 206//269
f 237//270 220//270 221//270
f 238//271 221//271 219//271
f 246//346 248//346 245//346
f 245//347 248//347 247//347
f 246//348 250//348 252//348
f 252//349 249//349 247//349
f 222//276 239//276 241//276
f 241//277 240//277 223//277
f 237//278 238//278 255//278
f 255//279 238//279 236//279
f 263//350 265//350 262//350
f 262//351 265//351 264//351
f 263//352 267//352 269//352
f 269//353 266//353 264//353
f 254//284 255//284 272//284
f 255//285 253//285 270//285
f 240//286 241//286 258//286
f 241//287 239//287 256//287
f 280//354 282//354 279//354
f 279//355 282//355 281//355
f 280//356 284//356 286//356
f 286//357 283//357 281//357
f 271//292 272//292 289//292
f 272//293 270//293 287//293
f 257//294 258//294 275//294
f 258//295 256//295 273//295
f 297//358 299//358 296//358
f 296//359 299//359 298//359
f 297//360 301//360 303//360
f 303//361 300//361 298//361
f 305//300 288//300 289//300
f 289//301 287//301 304//301
f 274//302 275//302 292//302
f 292//303 275//303 273//303
f 314//362 316//362 313//362
f 313//363 316//363 315//363
f 314//364 318//364 320//364
f 320//365 317//365 315//365
f 305//308 306//308 323//308
f 323//309 306//309 304//309
f 308//310 291//310 292//310
f 292//311 290//311 307//311
f 331//366 333//366 330//366
f 330//367 333//367 332//367
f 331//368 335//368 337//368
f 337//369 334//369 332//369
f 308//316 309//316 326//316
f 309//317 307//317 324//317
f 338//318 340//318 323//318
f 340//319 339//319 322//319
f 325//320 326//320 173//320
f 326//321 324//321 172//321
f 338//322 186//322 187//322
f 187//323 185//323 339//323
f 192//324 174//324 176//324
f 176//324 171//324 189//324
f 189//324 193//324 192//324
