# Blender 4.0.2
# www.blender.org
o Stool_Seat
v -0.750000 0.505563 0.562225
v -0.750000 0.540526 0.544000
v -0.750000 0.562504 0.522776
v -0.750000 0.570000 0.500000
v -0.750000 0.562504 0.477224
v -0.750000 0.505563 0.437775
v -0.735263 0.405000 0.585001
v -0.721530 0.456252 0.576210
v -0.709737 0.500263 0.562225
v -0.700688 0.534034 0.544000
v -0.695000 0.555263 0.522776
v -0.693060 0.562504 0.500000
v -0.695000 0.555263 0.477224
v -0.700688 0.534034 0.456000
v -0.709737 0.500263 0.437775
v -0.721530 0.456252 0.423790
v -0.735263 0.405000 0.414999
v -0.721530 0.399312 0.585001
v -0.695000 0.445263 0.576210
v -0.672218 0.484722 0.562225
v -0.654737 0.515000 0.544000
v -0.643748 0.534034 0.522776
v -0.640000 0.540526 0.500000
v -0.643748 0.534034 0.477224
v -0.654737 0.515000 0.456000
v -0.672218 0.484722 0.437775
v -0.695000 0.445263 0.423790
v -0.721530 0.399312 0.414999
v -0.709737 0.390263 0.585001
v -0.672218 0.427782 0.576210
v -0.640000 0.460000 0.562225
v -0.615278 0.484722 0.544000
v -0.599737 0.500263 0.522776
v -0.594437 0.505563 0.500000
v -0.599737 0.500263 0.477224
v -0.615278 0.484722 0.456000
v -0.640000 0.460000 0.437775
v -0.672218 0.427782 0.423790
v -0.709737 0.390263 0.414999
v -0.700688 0.378470 0.585001
v -0.654737 0.405000 0.576210
v -0.615278 0.427782 0.562225
v -0.585000 0.445263 0.544000
v -0.565966 0.456252 0.522776
v -0.559474 0.460000 0.500000
v -0.565966 0.456252 0.477224
v -0.585000 0.445263 0.456000
v -0.615278 0.427782 0.437775
v -0.654737 0.405000 0.423790
v -0.700688 0.378470 0.414999
v -0.695000 0.364737 0.585001
v -0.643748 0.378470 0.576210
v -0.599737 0.390263 0.562225
v -0.565966 0.399312 0.544000
v -0.544737 0.405000 0.522776
v -0.537496 0.406940 0.500000
v -0.544737 0.405000 0.477224
v -0.565966 0.399312 0.456000
v -0.599737 0.390263 0.437775
v -0.643748 0.378470 0.423790
v -0.695000 0.364737 0.414999
v -0.693060 0.350000 0.585001
v -0.640000 0.350000 0.576210
v -0.594437 0.350000 0.562225
v -0.559474 0.350000 0.544000
v -0.537496 0.350000 0.522776
v -0.530000 0.350000 0.500000
v -0.537496 0.350000 0.477224
v -0.559474 0.350000 0.456000
v -0.594437 0.350000 0.437775
v -0.640000 0.350000 0.423790
v -0.693060 0.350000 0.414999
v -0.695000 0.335263 0.585001
v -0.643748 0.321530 0.576210
v -0.599737 0.309737 0.562225
v -0.565966 0.300688 0.544000
v -0.544737 0.295000 0.522776
v -0.537496 0.293060 0.500000
v -0.544737 0.295000 0.477224
v -0.565966 0.300688 0.456000
v -0.599737 0.309737 0.437775
v -0.643748 0.321530 0.423790
v -0.695000 0.335263 0.414999
v -0.700688 0.321530 0.585001
v -0.654737 0.295000 0.576210
v -0.615278 0.272218 0.562225
v -0.585000 0.254737 0.544000
v -0.565966 0.243748 0.522776
v -0.559474 0.240000 0.500000
v -0.565966 0.243748 0.477224
v -0.585000 0.254737 0.456000
v -0.615278 0.272218 0.437775
v -0.654737 0.295000 0.423790
v -0.700688 0.321530 0.414999
v -0.709737 0.309737 0.585001
v -0.672218 0.272218 0.576210
v -0.640000 0.240000 0.562225
v -0.615278 0.215278 0.544000
v -0.599737 0.199737 0.522776
v -0.594437 0.194437 0.500000
v -0.599737 0.199737 0.477224
v -0.615278 0.215278 0.456000
v -0.640000 0.240000 0.437775
v -0.672218 0.272218 0.423790
v -0.709737 0.309737 0.414999
v -0.721530 0.300688 0.585001
v -0.695000 0.254737 0.576210
v -0.672218 0.215278 0.562225
v -0.654737 0.185000 0.544000
v -0.643748 0.165966 0.522776
v -0.640000 0.159474 0.500000
v -0.643748 0.165966 0.477224
v -0.654737 0.185000 0.456000
v -0.672218 0.215278 0.437775
v -0.695000 0.254737 0.423790
v -0.721530 0.300688 0.414999
v -0.735263 0.295000 0.585001
v -0.721530 0.243748 0.576210
v -0.709737 0.199737 0.562225
v -0.700688 0.165966 0.544000
v -0.695000 0.144737 0.522776
v -0.693060 0.137496 0.500000
v -0.695000 0.144737 0.477224
v -0.700688 0.165966 0.456000
v -0.709737 0.199737 0.437775
v -0.721530 0.243748 0.423790
v -0.735263 0.295000 0.414999
v -0.750000 0.293060 0.585001
v -0.750000 0.240000 0.576210
v -0.750000 0.194437 0.562225
v -0.750000 0.159474 0.544000
v -0.750000 0.137496 0.522776
v -0.750000 0.130000 0.500000
v -0.750000 0.137496 0.477224
v -0.750000 0.159474 0.456000
v -0.750000 0.194437 0.437775
v -0.750000 0.240000 0.423790
v -0.750000 0.293060 0.414999
v -0.764737 0.295000 0.585001
v -0.778470 0.243748 0.576210
v -0.790263 0.199737 0.562225
v -0.799312 0.165966 0.544000
v -0.805000 0.144737 0.522776
v -0.806940 0.137496 0.500000
v -0.805000 0.144737 0.477224
v -0.799312 0.165966 0.456000
v -0.790263 0.199737 0.437775
v -0.778470 0.243748 0.423790
v -0.764737 0.295000 0.414999
v -0.778470 0.300688 0.585001
v -0.805000 0.254737 0.576210
v -0.827782 0.215278 0.562225
v -0.845263 0.185000 0.544000
v -0.856252 0.165966 0.522776
v -0.860000 0.159474 0.500000
v -0.856252 0.165966 0.477224
v -0.845263 0.185000 0.456000
v -0.827782 0.215278 0.437775
v -0.805000 0.254737 0.423790
v -0.778470 0.300688 0.414999
v -0.750000 0.350000 0.412000
v -0.790263 0.309737 0.585001
v -0.827782 0.272218 0.576210
v -0.860000 0.240000 0.562225
v -0.884722 0.215278 0.544000
v -0.900263 0.199737 0.522776
v -0.905563 0.194437 0.500000
v -0.900263 0.199737 0.477224
v -0.884722 0.215278 0.456000
v -0.860000 0.240000 0.437775
v -0.827782 0.272218 0.423790
v -0.790263 0.309737 0.414999
v -0.750000 0.350000 0.588000
v -0.799312 0.321530 0.585001
v -0.845263 0.295000 0.576210
v -0.884722 0.272218 0.562225
v -0.915000 0.254737 0.544000
v -0.934034 0.243748 0.522776
v -0.940526 0.240000 0.500000
v -0.934034 0.243748 0.477224
v -0.915000 0.254737 0.456000
v -0.884722 0.272218 0.437775
v -0.845263 0.295000 0.423790
v -0.799312 0.321530 0.414999
v -0.805000 0.335263 0.585001
v -0.856252 0.321530 0.576210
v -0.900263 0.309737 0.562225
v -0.934034 0.300688 0.544000
v -0.955263 0.295000 0.522776
v -0.962504 0.293060 0.500000
v -0.955263 0.295000 0.477224
v -0.934034 0.300688 0.456000
v -0.900263 0.309737 0.437775
v -0.856252 0.321530 0.423790
v -0.805000 0.335263 0.414999
v -0.806940 0.350000 0.585001
v -0.860000 0.350000 0.576210
v -0.905563 0.350000 0.562225
v -0.940526 0.350000 0.544000
v -0.962504 0.350000 0.522776
v -0.970000 0.350000 0.500000
v -0.962504 0.350000 0.477224
v -0.940526 0.350000 0.456000
v -0.905563 0.350000 0.437775
v -0.860000 0.350000 0.423790
v -0.806940 0.350000 0.414999
v -0.805000 0.364737 0.585001
v -0.856252 0.378470 0.576210
v -0.900263 0.390263 0.562225
v -0.934034 0.399312 0.544000
v -0.955263 0.405000 0.522776
v -0.962504 0.406940 0.500000
v -0.955263 0.405000 0.477224
v -0.934034 0.399312 0.456000
v -0.900263 0.390263 0.437775
v -0.856252 0.378470 0.423790
v -0.805000 0.364737 0.414999
v -0.799312 0.378470 0.585001
v -0.845263 0.405000 0.576210
v -0.884722 0.427782 0.562225
v -0.915000 0.445263 0.544000
v -0.934034 0.456252 0.522776
v -0.940526 0.460000 0.500000
v -0.934034 0.456252 0.477224
v -0.915000 0.445263 0.456000
v -0.884722 0.427782 0.437775
v -0.845263 0.405000 0.423790
v -0.799312 0.378470 0.414999
v -0.790263 0.390263 0.585001
v -0.827782 0.427782 0.576210
v -0.860000 0.460000 0.562225
v -0.884722 0.484722 0.544000
v -0.900263 0.500263 0.522776
v -0.905563 0.505563 0.500000
v -0.900263 0.500263 0.477224
v -0.884722 0.484722 0.456000
v -0.860000 0.460000 0.437775
v -0.827782 0.427782 0.423790
v -0.790263 0.390263 0.414999
v -0.778470 0.399312 0.585001
v -0.805000 0.445263 0.576210
v -0.827782 0.484722 0.562225
v -0.845263 0.515000 0.544000
v -0.856252 0.534034 0.522776
v -0.860000 0.540525 0.500000
v -0.856252 0.534034 0.477224
v -0.845263 0.515000 0.456000
v -0.827782 0.484722 0.437775
v -0.805000 0.445263 0.423790
v -0.778470 0.399312 0.414999
v -0.764737 0.405000 0.585001
v -0.778470 0.456252 0.576210
v -0.790263 0.500263 0.562225
v -0.799312 0.534034 0.544000
v -0.805000 0.555263 0.522776
v -0.806940 0.562504 0.500000
v -0.805000 0.555263 0.477224
v -0.799312 0.534034 0.456000
v -0.790263 0.500263 0.437775
v -0.778470 0.456252 0.423790
v -0.764737 0.405000 0.414999
v -0.750000 0.406940 0.585001
v -0.750000 0.460000 0.576210
v -0.750000 0.540525 0.456000
v -0.750000 0.460000 0.423790
v -0.750000 0.406940 0.414999
vn 0.1241 0.9425 -0.3102
vn 0.0607 0.4614 0.8851
vn 0.0215 0.1634 -0.9863
vn 0.0069 0.0526 0.9986
vn 0.0911 0.6918 -0.7164
vn 0.0911 0.6918 0.7164
vn 0.0069 0.0526 -0.9986
vn 0.0215 0.1634 0.9863
vn 0.0607 0.4614 -0.8851
vn 0.1241 0.9425 0.3102
vn 0.0386 0.2932 0.9553
vn 0.0386 0.2932 -0.9553
vn 0.2670 0.6446 0.7164
vn 0.0203 0.0490 -0.9986
vn 0.0631 0.1523 0.9863
vn 0.1781 0.4300 -0.8851
vn 0.3638 0.8783 0.3102
vn 0.1132 0.2732 0.9553
vn 0.1132 0.2732 -0.9553
vn 0.3638 0.8783 -0.3102
vn 0.1781 0.4300 0.8851
vn 0.0631 0.1523 -0.9863
vn 0.0203 0.0490 0.9986
vn 0.2670 0.6446 -0.7164
vn 0.2833 0.3692 0.8851
vn 0.1003 0.1308 -0.9863
vn 0.0323 0.0421 0.9986
vn 0.4248 0.5536 -0.7164
vn 0.4248 0.5536 0.7164
vn 0.0323 0.0421 -0.9986
vn 0.1003 0.1308 0.9863
vn 0.2833 0.3692 -0.8851
vn 0.5787 0.7542 0.3102
vn 0.1800 0.2346 0.9553
vn 0.1800 0.2346 -0.9553
vn 0.5787 0.7542 -0.3102
vn 0.7542 0.5787 0.3102
vn 0.2346 0.1800 0.9553
vn 0.2346 0.1800 -0.9553
vn 0.7542 0.5787 -0.3102
vn 0.3692 0.2833 0.8851
vn 0.1308 0.1003 -0.9863
vn 0.0421 0.0323 0.9986
vn 0.5536 0.4248 -0.7164
vn 0.5536 0.4248 0.7164
vn 0.0421 0.0323 -0.9986
vn 0.1308 0.1003 0.9863
vn 0.3692 0.2833 -0.8851
vn 0.6446 0.2670 0.7164
vn 0.0490 0.0203 -0.9986
vn 0.1523 0.0631 0.9863
vn 0.4300 0.1781 -0.8851
vn 0.8783 0.3638 0.3102
vn 0.2732 0.1132 0.9553
vn 0.2732 0.1132 -0.9553
vn 0.8783 0.3638 -0.3102
vn 0.4300 0.1781 0.8851
vn 0.1523 0.0631 -0.9863
vn 0.0490 0.0203 0.9986
vn 0.6446 0.2670 -0.7164
vn 0.9425 0.1241 -0.3102
vn 0.4614 0.0607 0.8851
vn 0.1634 0.0215 -0.9863
vn 0.0526 0.0069 0.9986
vn 0.6918 0.0911 -0.7164
vn 0.6918 0.0911 0.7164
vn 0.0526 0.0069 -0.9986
vn 0.1634 0.0215 0.9863
vn 0.4614 0.0607 -0.8851
vn 0.9425 0.1241 0.3102
vn 0.2932 0.0386 0.9553
vn 0.2932 0.0386 -0.9553
vn 0.9425 -0.1241 0.3102
vn 0.2932 -0.0386 0.9553
vn 0.2932 -0.0386 -0.9553
vn 0.9425 -0.1241 -0.3102
vn 0.4614 -0.0607 0.8851
vn 0.1634 -0.0215 -0.9863
vn 0.0526 -0.0069 0.9986
vn 0.6918 -0.0911 -0.7164
vn 0.6918 -0.0911 0.7164
vn 0.0526 -0.0069 -0.9986
vn 0.1634 -0.0215 0.9863
vn 0.4614 -0.0607 -0.8851
vn 0.6446 -0.2670 -0.7164
vn 0.6446 -0.2670 0.7164
vn 0.0490 -0.0203 -0.9986
vn 0.1523 -0.0631 0.9863
vn 0.4300 -0.1781 -0.8851
vn 0.8783 -0.3638 0.3102
vn 0.2732 -0.1132 0.9553
vn 0.2732 -0.1132 -0.9553
vn 0.8783 -0.3638 -0.3102
vn 0.4300 -0.1781 0.8851
vn 0.1523 -0.0631 -0.9863
vn 0.0490 -0.0203 0.9986
vn 0.7542 -0.5787 -0.3102
vn 0.3692 -0.2833 0.8851
vn 0.1308 -0.1003 -0.9863
vn 0.0421 -0.0323 0.9986
vn 0.5536 -0.4248 -0.7164
vn 0.5536 -0.4248 0.7164
vn 0.0421 -0.0323 -0.9986
vn 0.1308 -0.1003 0.9863
vn 0.3692 -0.2833 -0.8851
vn 0.7542 -0.5787 0.3102
vn 0.2346 -0.1800 0.9553
vn 0.2346 -0.1800 -0.9553
vn 0.2833 -0.3692 -0.8851
vn 0.5787 -0.7542 0.3102
vn 0.1800 -0.2346 0.9553
vn 0.1800 -0.2346 -0.9553
vn 0.5787 -0.7542 -0.3102
vn 0.2833 -0.3692 0.8851
vn 0.1003 -0.1308 -0.9863
vn 0.0323 -0.0421 0.9986
vn 0.4248 -0.5536 -0.7164
vn 0.4248 -0.5536 0.7164
vn 0.0323 -0.0421 -0.9986
vn 0.1003 -0.1308 0.9863
vn 0.0203 -0.0490 0.9986
vn 0.2670 -0.6446 -0.7164
vn 0.2670 -0.6446 0.7164
vn 0.0203 -0.0490 -0.9986
vn 0.0631 -0.1523 0.9863
vn 0.1781 -0.4300 -0.8851
vn 0.3638 -0.8783 0.3102
vn 0.1132 -0.2732 0.9553
vn 0.1132 -0.2732 -0.9553
vn 0.3638 -0.8783 -0.3102
vn 0.1781 -0.4300 0.8851
vn 0.0631 -0.1523 -0.9863
vn 0.0386 -0.2932 -0.9553
vn 0.1241 -0.9425 -0.3102
vn 0.0607 -0.4614 0.8851
vn 0.0215 -0.1634 -0.9863
vn 0.0069 -0.0526 0.9986
vn 0.0911 -0.6918 -0.7164
vn 0.0911 -0.6918 0.7164
vn 0.0069 -0.0526 -0.9986
vn 0.0215 -0.1634 0.9863
vn 0.0607 -0.4614 -0.8851
vn 0.1241 -0.9425 0.3102
vn 0.0386 -0.2932 0.9553
vn -0.0215 -0.1634 0.9863
vn -0.0607 -0.4614 -0.8851
vn -0.1241 -0.9425 0.3102
vn -0.0386 -0.2932 0.9553
vn -0.0386 -0.2932 -0.9553
vn -0.1241 -0.9425 -0.3102
vn -0.0607 -0.4614 0.8851
vn -0.0215 -0.1634 -0.9863
vn -0.0069 -0.0526 0.9986
vn -0.0911 -0.6918 -0.7164
vn -0.0911 -0.6918 0.7164
vn -0.0069 -0.0526 -0.9986
vn -0.0631 -0.1523 -0.9863
vn -0.0203 -0.0490 0.9986
vn -0.2670 -0.6446 -0.7164
vn -0.2670 -0.6446 0.7164
vn -0.0203 -0.0490 -0.9986
vn -0.0631 -0.1523 0.9863
vn -0.1781 -0.4300 -0.8851
vn -0.3638 -0.8783 0.3102
vn -0.1132 -0.2732 0.9553
vn -0.1132 -0.2732 -0.9553
vn -0.3638 -0.8783 -0.3102
vn -0.1781 -0.4300 0.8851
vn -0.1800 -0.2346 0.9553
vn -0.1800 -0.2346 -0.9553
vn -0.5787 -0.7542 -0.3102
vn -0.2833 -0.3692 0.8851
vn -0.1003 -0.1308 -0.9863
vn -0.0323 -0.0421 0.9986
vn -0.4248 -0.5536 -0.7164
vn -0.4248 -0.5536 0.7164
vn -0.0323 -0.0421 -0.9986
vn -0.1003 -0.1308 0.9863
vn -0.2833 -0.3692 -0.8851
vn -0.5787 -0.7542 0.3102
vn -0.0421 -0.0323 -0.9986
vn -0.1308 -0.1003 0.9863
vn -0.3692 -0.2833 -0.8851
vn -0.7542 -0.5787 0.3102
vn -0.2346 -0.1800 0.9553
vn -0.2346 -0.1800 -0.9553
vn -0.7542 -0.5787 -0.3102
vn -0.3692 -0.2833 0.8851
vn -0.1308 -0.1003 -0.9863
vn -0.0421 -0.0323 0.9986
vn -0.5536 -0.4248 -0.7164
vn -0.5536 -0.4248 0.7164
vn -0.4300 -0.1781 0.8851
vn -0.1523 -0.0631 -0.9863
vn -0.0490 -0.0203 0.9986
vn -0.6446 -0.2670 -0.7164
vn -0.6446 -0.2670 0.7164
vn -0.0490 -0.0203 -0.9986
vn -0.1523 -0.0631 0.9863
vn -0.4300 -0.1781 -0.8851
vn -0.8783 -0.3638 0.3102
vn -0.2732 -0.1132 0.9553
vn -0.2732 -0.1132 -0.9553
vn -0.8783 -0.3638 -0.3102
vn -0.2932 -0.0386 0.9553
vn -0.2932 -0.0386 -0.9553
vn -0.9425 -0.1241 -0.3102
vn -0.4614 -0.0607 0.8851
vn -0.1634 -0.0215 -0.9863
vn -0.0526 -0.0069 0.9986
vn -0.6918 -0.0911 -0.7164
vn -0.6918 -0.0911 0.7164
vn -0.0526 -0.0069 -0.9986
vn -0.1634 -0.0215 0.9863
vn -0.4614 -0.0607 -0.8851
vn -0.9425 -0.1241 0.3102
vn -0.6918 0.0911 0.7164
vn -0.0526 0.0069 -0.9986
vn -0.1634 0.0215 0.9863
vn -0.4614 0.0607 -0.8851
vn -0.9425 0.1241 0.3102
vn -0.2932 0.0386 0.9553
vn -0.2932 0.0386 -0.9553
vn -0.9425 0.1241 -0.3102
vn -0.4614 0.0607 0.8851
vn -0.1634 0.0215 -0.9863
vn -0.0526 0.0069 0.9986
vn -0.6918 0.0911 -0.7164
vn -0.4300 0.1781 0.8851
vn -0.1523 0.0631 -0.9863
vn -0.0490 0.0203 0.9986
vn -0.6446 0.2670 -0.7164
vn -0.6446 0.2670 0.7164
vn -0.0490 0.0203 -0.9986
vn -0.1523 0.0631 0.9863
vn -0.4300 0.1781 -0.8851
vn -0.8783 0.3638 0.3102
vn -0.2732 0.1132 0.9553
vn -0.2732 0.1132 -0.9553
vn -0.8783 0.3638 -0.3102
vn -0.7542 0.5787 0.3102
vn -0.2346 0.1800 0.9553
vn -0.2346 0.1800 -0.9553
vn -0.7542 0.5787 -0.3102
vn -0.3692 0.2833 0.8851
vn -0.1308 0.1003 -0.9863
vn -0.0421 0.0323 0.9986
vn -0.5536 0.4248 -0.7164
vn -0.5536 0.4248 0.7164
vn -0.0421 0.0323 -0.9986
vn -0.1308 0.1003 0.9863
vn -0.3692 0.2833 -0.8851
vn -0.4248 0.5536 0.7164
vn -0.0323 0.0421 -0.9986
vn -0.1003 0.1308 0.9863
vn -0.2833 0.3692 -0.8851
vn -0.5787 0.7542 0.3102
vn -0.1800 0.2346 0.9553
vn -0.1800 0.2346 -0.9553
vn -0.5787 0.7542 -0.3102
vn -0.2833 0.3692 0.8851
vn -0.1003 0.1308 -0.9863
vn -0.0323 0.0421 0.9986
vn -0.4248 0.5536 -0.7164
vn -0.3638 0.8783 -0.3102
vn -0.1781 0.4300 0.8851
vn -0.0631 0.1523 -0.9863
vn -0.0203 0.0490 0.9986
vn -0.2670 0.6446 -0.7164
vn -0.2670 0.6446 0.7164
vn -0.0203 0.0490 -0.9986
vn -0.0631 0.1523 0.9863
vn -0.1781 0.4300 -0.8851
vn -0.3638 0.8783 0.3102
vn -0.1132 0.2732 0.9553
vn -0.1132 0.2732 -0.9553
vn -0.1241 0.9425 0.3102
vn -0.0386 0.2932 0.9553
vn -0.0386 0.2932 -0.9553
vn -0.1241 0.9425 -0.3102
vn -0.0607 0.4614 0.8851
vn -0.0215 0.1634 -0.9863
vn -0.0069 0.0526 0.9986
vn -0.0911 0.6918 -0.7164
vn -0.0911 0.6918 0.7164
vn -0.0069 0.0526 -0.9986
vn -0.0215 0.1634 0.9863
vn -0.0607 0.4614 -0.8851
s 0
f 4//1 13//1 5//1
f 1//2 10//2 2//2
f 265//3 17//3 266//3
f 262//4 173//4 7//4
f 264//5 13//5 14//5
f 2//6 11//6 3//6
f 161//7 266//7 17//7
f 263//8 7//8 8//8
f 264//9 15//9 6//9
f 3//10 12//10 4//10
f 1//11 8//11 9//11
f 6//12 16//12 265//12
f 11//13 21//13 22//13
f 161//14 17//14 28//14
f 7//15 19//15 8//15
f 14//16 26//16 15//16
f 11//17 23//17 12//17
f 8//18 20//18 9//18
f 15//19 27//19 16//19
f 12//20 24//20 13//20
f 9//21 21//21 10//21
f 16//22 28//22 17//22
f 7//23 173//23 18//23
f 13//24 25//24 14//24
f 20//25 32//25 21//25
f 27//26 39//26 28//26
f 18//27 173//27 29//27
f 24//28 36//28 25//28
f 21//29 33//29 22//29
f 161//30 28//30 39//30
f 18//31 30//31 19//31
f 26//32 36//32 37//32
f 22//33 34//33 23//33
f 19//34 31//34 20//34
f 27//35 37//35 38//35
f 23//36 35//36 24//36
f 33//37 45//37 34//37
f 30//38 42//38 31//38
f 37//39 49//39 38//39
f 34//40 46//40 35//40
f 31//41 43//41 32//41
f 38//42 50//42 39//42
f 29//43 173//43 40//43
f 35//44 47//44 36//44
f 33//45 43//45 44//45
f 161//46 39//46 50//46
f 29//47 41//47 30//47
f 37//48 47//48 48//48
f 44//49 54//49 55//49
f 161//50 50//50 61//50
f 40//51 52//51 41//51
f 48//52 58//52 59//52
f 44//53 56//53 45//53
f 41//54 53//54 42//54
f 49//55 59//55 60//55
f 45//56 57//56 46//56
f 42//57 54//57 43//57
f 49//58 61//58 50//58
f 40//59 173//59 51//59
f 46//60 58//60 47//60
f 56//61 68//61 57//61
f 53//62 65//62 54//62
f 61//63 71//63 72//63
f 51//64 173//64 62//64
f 57//65 69//65 58//65
f 55//66 65//66 66//66
f 161//67 61//67 72//67
f 51//68 63//68 52//68
f 59//69 69//69 70//69
f 55//70 67//70 56//70
f 52//71 64//71 53//71
f 60//72 70//72 71//72
f 66//73 78//73 67//73
f 63//74 75//74 64//74
f 70//75 82//75 71//75
f 67//76 79//76 68//76
f 64//77 76//77 65//77
f 71//78 83//78 72//78
f 62//79 173//79 73//79
f 68//80 80//80 69//80
f 66//81 76//81 77//81
f 161//82 72//82 83//82
f 62//83 74//83 63//83
f 70//84 80//84 81//84
f 79//85 91//85 80//85
f 77//86 87//86 88//86
f 161//87 83//87 94//87
f 73//88 85//88 74//88
f 81//89 91//89 92//89
f 78//90 88//90 89//90
f 74//91 86//91 75//91
f 82//92 92//92 93//92
f 78//93 90//93 79//93
f 75//94 87//94 76//94
f 82//95 94//95 83//95
f 73//96 173//96 84//96
f 89//97 101//97 90//97
f 86//98 98//98 87//98
f 94//99 104//99 105//99
f 84//100 173//100 95//100
f 90//101 102//101 91//101
f 87//102 99//102 88//102
f 161//103 94//103 105//103
f 84//104 96//104 85//104
f 92//105 102//105 103//105
f 88//106 100//106 89//106
f 85//107 97//107 86//107
f 92//108 104//108 93//108
f 103//109 113//109 114//109
f 99//110 111//110 100//110
f 97//111 107//111 108//111
f 103//112 115//112 104//112
f 100//113 112//113 101//113
f 97//114 109//114 98//114
f 105//115 115//115 116//115
f 95//116 173//116 106//116
f 101//117 113//117 102//117
f 98//118 110//118 99//118
f 161//119 105//119 116//119
f 95//120 107//120 96//120
f 106//121 173//121 117//121
f 112//122 124//122 113//122
f 110//123 120//123 121//123
f 161//124 116//124 127//124
f 106//125 118//125 107//125
f 114//126 124//126 125//126
f 110//127 122//127 111//127
f 107//128 119//128 108//128
f 114//129 126//129 115//129
f 112//130 122//130 123//130
f 108//131 120//131 109//131
f 115//132 127//132 116//132
f 125//133 137//133 126//133
f 123//134 133//134 134//134
f 119//135 131//135 120//135
f 126//136 138//136 127//136
f 117//137 173//137 128//137
f 123//138 135//138 124//138
f 121//139 131//139 132//139
f 161//140 127//140 138//140
f 117//141 129//141 118//141
f 125//142 135//142 136//142
f 121//143 133//143 122//143
f 118//144 130//144 119//144
f 128//145 140//145 129//145
f 136//146 146//146 147//146
f 132//147 144//147 133//147
f 130//148 140//148 141//148
f 136//149 148//149 137//149
f 134//150 144//150 145//150
f 130//151 142//151 131//151
f 137//152 149//152 138//152
f 128//153 173//153 139//153
f 134//154 146//154 135//154
f 132//155 142//155 143//155
f 161//156 138//156 149//156
f 149//157 159//157 160//157
f 139//158 173//158 150//158
f 145//159 157//159 146//159
f 143//160 153//160 154//160
f 161//161 149//161 160//161
f 139//162 151//162 140//162
f 147//163 157//163 158//163
f 143//164 155//164 144//164
f 141//165 151//165 152//165
f 147//166 159//166 148//166
f 145//167 155//167 156//167
f 141//168 153//168 142//168
f 151//169 164//169 152//169
f 158//170 171//170 159//170
f 156//171 167//171 168//171
f 152//172 165//172 153//172
f 159//173 172//173 160//173
f 150//174 173//174 162//174
f 156//175 169//175 157//175
f 154//176 165//176 166//176
f 161//177 160//177 172//177
f 150//178 163//178 151//178
f 158//179 169//179 170//179
f 154//180 167//180 155//180
f 161//181 172//181 184//181
f 162//182 175//182 163//182
f 170//183 181//183 182//183
f 166//184 179//184 167//184
f 164//185 175//185 176//185
f 170//186 183//186 171//186
f 168//187 179//187 180//187
f 164//188 177//188 165//188
f 172//189 183//189 184//189
f 162//190 173//190 174//190
f 168//191 181//191 169//191
f 165//192 178//192 166//192
f 176//193 188//193 177//193
f 183//194 195//194 184//194
f 174//195 173//195 185//195
f 180//196 192//196 181//196
f 178//197 188//197 189//197
f 161//198 184//198 195//198
f 174//199 186//199 175//199
f 181//200 193//200 182//200
f 178//201 190//201 179//201
f 175//202 187//202 176//202
f 182//203 194//203 183//203
f 180//204 190//204 191//204
f 187//205 197//205 198//205
f 193//206 205//206 194//206
f 191//207 201//207 202//207
f 187//208 199//208 188//208
f 194//209 206//209 195//209
f 185//210 173//210 196//210
f 191//211 203//211 192//211
f 188//212 200//212 189//212
f 161//213 195//213 206//213
f 185//214 197//214 186//214
f 192//215 204//215 193//215
f 189//216 201//216 190//216
f 199//217 211//217 200//217
f 161//218 206//218 217//218
f 196//219 208//219 197//219
f 203//220 215//220 204//220
f 200//221 212//221 201//221
f 198//222 208//222 209//222
f 204//223 216//223 205//223
f 202//224 212//224 213//224
f 198//225 210//225 199//225
f 205//226 217//226 206//226
f 196//227 173//227 207//227
f 202//228 214//228 203//228
f 209//229 221//229 210//229
f 216//230 228//230 217//230
f 207//231 173//231 218//231
f 213//232 225//232 214//232
f 210//233 222//233 211//233
f 161//234 217//234 228//234
f 207//235 219//235 208//235
f 215//236 225//236 226//236
f 211//237 223//237 212//237
f 208//238 220//238 209//238
f 215//239 227//239 216//239
f 213//240 223//240 224//240
f 222//241 234//241 223//241
f 220//242 230//242 231//242
f 226//243 238//243 227//243
f 224//244 234//244 235//244
f 220//245 232//245 221//245
f 227//246 239//246 228//246
f 218//247 173//247 229//247
f 224//248 236//248 225//248
f 221//249 233//249 222//249
f 161//250 228//250 239//250
f 219//251 229//251 230//251
f 226//252 236//252 237//252
f 232//253 244//253 233//253
f 161//254 239//254 250//254
f 229//255 241//255 230//255
f 237//256 247//256 248//256
f 233//257 245//257 234//257
f 231//258 241//258 242//258
f 237//259 249//259 238//259
f 235//260 245//260 246//260
f 231//261 243//261 232//261
f 239//262 249//262 250//262
f 229//263 173//263 240//263
f 235//264 247//264 236//264
f 246//265 256//265 257//265
f 242//266 254//266 243//266
f 249//267 261//267 250//267
f 240//268 173//268 251//268
f 246//269 258//269 247//269
f 243//270 255//270 244//270
f 161//271 250//271 261//271
f 240//272 252//272 241//272
f 248//273 258//273 259//273
f 244//274 256//274 245//274
f 241//275 253//275 242//275
f 248//276 260//276 249//276
f 255//277 4//277 256//277
f 253//278 263//278 1//278
f 259//279 265//279 260//279
f 256//280 5//280 257//280
f 254//281 1//281 2//281
f 261//282 265//282 266//282
f 251//283 173//283 262//283
f 257//284 264//284 258//284
f 255//285 2//285 3//285
f 161//286 261//286 266//286
f 251//287 263//287 252//287
f 258//288 6//288 259//288
f 4//1 12//1 13//1
f 1//2 9//2 10//2
f 265//3 16//3 17//3
f 264//5 5//5 13//5
f 2//6 10//6 11//6
f 263//8 262//8 7//8
f 264//9 14//9 15//9
f 3//10 11//10 12//10
f 1//11 263//11 8//11
f 6//12 15//12 16//12
f 11//13 10//13 21//13
f 7//15 18//15 19//15
f 14//16 25//16 26//16
f 11//17 22//17 23//17
f 8//18 19//18 20//18
f 15//19 26//19 27//19
f 12//20 23//20 24//20
f 9//21 20//21 21//21
f 16//22 27//22 28//22
f 13//24 24//24 25//24
f 20//25 31//25 32//25
f 27//26 38//26 39//26
f 24//28 35//28 36//28
f 21//29 32//29 33//29
f 18//31 29//31 30//31
f 26//32 25//32 36//32
f 22//33 33//33 34//33
f 19//34 30//34 31//34
f 27//35 26//35 37//35
f 23//36 34//36 35//36
f 33//37 44//37 45//37
f 30//38 41//38 42//38
f 37//39 48//39 49//39
f 34//40 45//40 46//40
f 31//41 42//41 43//41
f 38//42 49//42 50//42
f 35//44 46//44 47//44
f 33//45 32//45 43//45
f 29//47 40//47 41//47
f 37//48 36//48 47//48
f 44//49 43//49 54//49
f 40//51 51//51 52//51
f 48//52 47//52 58//52
f 44//53 55//53 56//53
f 41//54 52//54 53//54
f 49//55 48//55 59//55
f 45//56 56//56 57//56
f 42//57 53//57 54//57
f 49//58 60//58 61//58
f 46//60 57//60 58//60
f 56//61 67//61 68//61
f 53//62 64//62 65//62
f 61//63 60//63 71//63
f 57//65 68//65 69//65
f 55//66 54//66 65//66
f 51//68 62//68 63//68
f 59//69 58//69 69//69
f 55//70 66//70 67//70
f 52//71 63//71 64//71
f 60//72 59//72 70//72
f 66//73 77//73 78//73
f 63//74 74//74 75//74
f 70//75 81//75 82//75
f 67//76 78//76 79//76
f 64//77 75//77 76//77
f 71//78 82//78 83//78
f 68//80 79//80 80//80
f 66//81 65//81 76//81
f 62//83 73//83 74//83
f 70//84 69//84 80//84
f 79//85 90//85 91//85
f 77//86 76//86 87//86
f 73//88 84//88 85//88
f 81//89 80//89 91//89
f 78//90 77//90 88//90
f 74//91 85//91 86//91
f 82//92 81//92 92//92
f 78//93 89//93 90//93
f 75//94 86//94 87//94
f 82//95 93//95 94//95
f 89//97 100//97 101//97
f 86//98 97//98 98//98
f 94//99 93//99 104//99
f 90//101 101//101 102//101
f 87//102 98//102 99//102
f 84//104 95//104 96//104
f 92//105 91//105 102//105
f 88//106 99//106 100//106
f 85//107 96//107 97//107
f 92//108 103//108 104//108
f 103//109 102//109 113//109
f 99//110 110//110 111//110
f 97//111 96//111 107//111
f 103//112 114//112 115//112
f 100//113 111//113 112//113
f 97//114 108//114 109//114
f 105//115 104//115 115//115
f 101//117 112//117 113//117
f 98//118 109//118 110//118
f 95//120 106//120 107//120
f 112//122 123//122 124//122
f 110//123 109//123 120//123
f 106//125 117//125 118//125
f 114//126 113//126 124//126
f 110//127 121//127 122//127
f 107//128 118//128 119//128
f 114//129 125//129 126//129
f 112//130 111//130 122//130
f 108//131 119//131 120//131
f 115//132 126//132 127//132
f 125//133 136//133 137//133
f 123//134 122//134 133//134
f 119//135 130//135 131//135
f 126//136 137//136 138//136
f 123//138 134//138 135//138
f 121//139 120//139 131//139
f 117//141 128//141 129//141
f 125//142 124//142 135//142
f 121//143 132//143 133//143
f 118//144 129//144 130//144
f 128//145 139//145 140//145
f 136//146 135//146 146//146
f 132//147 143//147 144//147
f 130//148 129//148 140//148
f 136//149 147//149 148//149
f 134//150 133//150 144//150
f 130//151 141//151 142//151
f 137//152 148//152 149//152
f 134//154 145//154 146//154
f 132//155 131//155 142//155
f 149//157 148//157 159//157
f 145//159 156//159 157//159
f 143//160 142//160 153//160
f 139//162 150//162 151//162
f 147//163 146//163 157//163
f 143//164 154//164 155//164
f 141//165 140//165 151//165
f 147//166 158//166 159//166
f 145//167 144//167 155//167
f 141//168 152//168 153//168
f 151//169 163//169 164//169
f 158//170 170//170 171//170
f 156//171 155//171 167//171
f 152//172 164//172 165//172
f 159//173 171//173 172//173
f 156//175 168//175 169//175
f 154//176 153//176 165//176
f 150//178 162//178 163//178
f 158//179 157//179 169//179
f 154//180 166//180 167//180
f 162//182 174//182 175//182
f 170//183 169//183 181//183
f 166//184 178//184 179//184
f 164//185 163//185 175//185
f 170//186 182//186 183//186
f 168//187 167//187 179//187
f 164//188 176//188 177//188
f 172//189 171//189 183//189
f 168//191 180//191 181//191
f 165//192 177//192 178//192
f 176//193 187//193 188//193
f 183//194 194//194 195//194
f 180//196 191//196 192//196
f 178//197 177//197 188//197
f 174//199 185//199 186//199
f 181//200 192//200 193//200
f 178//201 189//201 190//201
f 175//202 186//202 187//202
f 182//203 193//203 194//203
f 180//204 179//204 190//204
f 187//205 186//205 197//205
f 193//206 204//206 205//206
f 191//207 190//207 201//207
f 187//208 198//208 199//208
f 194//209 205//209 206//209
f 191//211 202//211 203//211
f 188//212 199//212 200//212
f 185//214 196//214 197//214
f 192//215 203//215 204//215
f 189//216 200//216 201//216
f 199//217 210//217 211//217
f 196//219 207//219 208//219
f 203//220 214//220 215//220
f 200//221 211//221 212//221
f 198//222 197//222 208//222
f 204//223 215//223 216//223
f 202//224 201//224 212//224
f 198//225 209//225 210//225
f 205//226 216//226 217//226
f 202//228 213//228 214//228
f 209//229 220//229 221//229
f 216//230 227//230 228//230
f 213//232 224//232 225//232
f 210//233 221//233 222//233
f 207//235 218//235 219//235
f 215//236 214//236 225//236
f 211//237 222//237 223//237
f 208//238 219//238 220//238
f 215//239 226//239 227//239
f 213//240 212//240 223//240
f 222//241 233//241 234//241
f 220//242 219//242 230//242
f 226//243 237//243 238//243
f 224//244 223//244 234//244
f 220//245 231//245 232//245
f 227//246 238//246 239//246
f 224//248 235//248 236//248
f 221//249 232//249 233//249
f 219//251 218//251 229//251
f 226//252 225//252 236//252
f 232//253 243//253 244//253
f 229//255 240//255 241//255
f 237//256 236//256 247//256
f 233//257 244//257 245//257
f 231//258 230//258 241//258
f 237//259 248//259 249//259
f 235//260 234//260 245//260
f 231//261 242//261 243//261
f 239//262 238//262 249//262
f 235//264 246//264 247//264
f 246//265 245//265 256//265
f 242//266 253//266 254//266
f 249//267 260//267 261//267
f 246//269 257//269 258//269
f 243//270 254//270 255//270
f 240//272 251//272 252//272
f 248//273 247//273 258//273
f 244//274 255//274 256//274
f 241//275 252//275 253//275
f 248//276 259//276 260//276
f 255//277 3//277 4//277
f 253//278 252//278 263//278
f 259//279 6//279 265//279
f 256//280 4//280 5//280
f 254//281 253//281 1//281
f 261//282 260//282 265//282
f 257//284 5//284 264//284
f 255//285 254//285 2//285
f 251//287 262//287 263//287
f 258//288 264//288 6//288
