# Blender 4.0.2
# www.blender.org
o SuctionTip_Ti_b
v 1.150659 1.036670 0.926880
v 1.180659 1.021670 0.932880
v 1.150889 1.036791 0.926029
v 1.180889 1.021791 0.932029
v 1.150944 1.036557 0.925172
v 1.180944 1.021557 0.931172
v 1.150811 1.036014 0.924479
v 1.180811 1.021014 0.930479
v 1.150518 1.035271 0.924087
v 1.180518 1.020271 0.930087
v 1.150122 1.034474 0.924074
v 1.180122 1.019474 0.930074
v 1.149701 1.033781 0.924443
v 1.179702 1.018781 0.930443
v 1.149341 1.033329 0.925120
v 1.179340 1.018330 0.931120
v 1.149110 1.033209 0.925971
v 1.179110 1.018209 0.931971
v 1.149056 1.033443 0.926828
v 1.179056 1.018443 0.932828
v 1.149188 1.033986 0.927521
v 1.179188 1.018986 0.933521
v 1.149482 1.034729 0.927913
v 1.179482 1.019729 0.933913
v 1.149878 1.035526 0.927926
v 1.179878 1.020526 0.933926
v 1.150298 1.036219 0.927557
v 1.180298 1.021219 0.933557
vn 0.3972 0.8876 0.2333
vn 0.4702 0.8585 -0.2048
vn 0.4501 0.6593 -0.6023
vn 0.3409 0.3296 -0.8805
vn 0.1641 -0.0655 -0.9843
vn -0.0451 -0.4475 -0.8931
vn -0.2454 -0.7409 -0.6251
vn -0.3972 -0.8876 -0.2333
vn -0.4702 -0.8585 0.2048
vn -0.4501 -0.6593 0.6023
vn -0.3409 -0.3296 0.8805
vn -0.1641 0.0655 0.9843
vn 0.8805 -0.4402 0.1761
vn 0.0451 0.4475 0.8931
vn 0.2454 0.7409 0.6251
vn -0.8805 0.4402 -0.1761
vn 0.8804 -0.4402 0.1761
vn -0.8804 0.4402 -0.1761
s 0
f 2//1 3//1 1//1
f 4//2 5//2 3//2
f 6//3 7//3 5//3
f 8//4 9//4 7//4
f 10//5 11//5 9//5
f 12//6 13//6 11//6
f 14//7 15//7 13//7
f 16//8 17//8 15//8
f 18//9 19//9 17//9
f 20//10 21//10 19//10
f 22//11 23//11 21//11
f 24//12 25//12 23//12
f 26//13 18//13 10//13
f 26//14 27//14 25//14
f 28//15 1//15 27//15
f 7//16 15//16 23//16
f 2//1 4//1 3//1
f 4//2 6//2 5//2
f 6//3 8//3 7//3
f 8//4 10//4 9//4
f 10//5 12//5 11//5
f 12//6 14//6 13//6
f 14//7 16//7 15//7
f 16//8 18//8 17//8
f 18//9 20//9 19//9
f 20//10 22//10 21//10
f 22//11 24//11 23//11
f 24//12 26//12 25//12
f 6//13 4//13 2//13
f 2//13 28//13 26//13
f 26//13 24//13 22//13
f 22//13 20//13 18//13
f 18//13 16//13 14//13
f 14//17 12//17 10//17
f 10//17 8//17 6//17
f 6//13 2//13 26//13
f 26//13 22//13 18//13
f 18//13 14//13 10//13
f 10//13 6//13 26//13
f 26//14 28//14 27//14
f 28//15 2//15 1//15
f 27//16 1//16 3//16
f 3//16 5//16 7//16
f 7//16 9//16 11//16
f 11//16 13//16 15//16
f 15//16 17//16 19//16
f 19//18 21//18 23//18
f 23//18 25//18 27//18
f 27//16 3//16 7//16
f 7//16 11//16 15//16
f 15//16 19//16 23//16
f 23//16 27//16 7//16
