# Blender 4.0.2
# www.blender.org
o SuctionTip_SUS_b
v 1.080593 1.036503 0.926792
v 1.110593 1.021503 0.932792
v 1.080800 1.036612 0.926026
v 1.110800 1.021612 0.932026
v 1.080849 1.036401 0.925255
v 1.110849 1.021401 0.931255
v 1.080730 1.035913 0.924631
v 1.110730 1.020913 0.930631
v 1.080466 1.035244 0.924279
v 1.110466 1.020244 0.930279
v 1.080109 1.034526 0.924267
v 1.110109 1.019526 0.930267
v 1.079731 1.033903 0.924598
v 1.109731 1.018903 0.930598
v 1.079406 1.033496 0.925208
v 1.109406 1.018497 0.931208
v 1.079199 1.033388 0.925974
v 1.109199 1.018388 0.931974
v 1.079150 1.033599 0.926745
v 1.109150 1.018599 0.932745
v 1.079269 1.034087 0.927369
v 1.109269 1.019087 0.933369
v 1.079533 1.034756 0.927721
v 1.109533 1.019756 0.933721
v 1.079890 1.035473 0.927733
v 1.109890 1.020473 0.933733
v 1.080268 1.036097 0.927402
v 1.110268 1.021097 0.933402
vn 0.3972 0.8876 0.2333
vn 0.4702 0.8585 -0.2048
vn 0.4501 0.6593 -0.6023
vn 0.3409 0.3296 -0.8805
vn 0.1641 -0.0655 -0.9843
vn -0.0451 -0.4475 -0.8931
vn -0.2455 -0.7409 -0.6251
vn -0.3972 -0.8876 -0.2333
vn -0.4702 -0.8585 0.2048
vn -0.4501 -0.6593 0.6023
vn -0.3409 -0.3296 0.8805
vn -0.1641 0.0655 0.9843
vn 0.8805 -0.4402 0.1761
vn 0.0451 0.4475 0.8931
vn 0.2455 0.7409 0.6251
vn -0.8805 0.4402 -0.1761
vn 0.8804 -0.4402 0.1761
vn -0.8804 0.4402 -0.1761
s 0
f 2//1 3//1 1//1
f 4//2 5//2 3//2
f 6//3 7//3 5//3
f 8//4 9//4 7//4
f 10//5 11//5 9//5
f 12//6 13//6 11//6
f 14//7 15//7 13//7
f 16//8 17//8 15//8
f 18//9 19//9 17//9
f 20//10 21//10 19//10
f 22//11 23//11 21//11
f 24//12 25//12 23//12
f 26//13 18//13 10//13
f 26//14 27//14 25//14
f 28//15 1//15 27//15
f 7//16 15//16 23//16
f 2//1 4//1 3//1
f 4//2 6//2 5//2
f 6//3 8//3 7//3
f 8//4 10//4 9//4
f 10//5 12//5 11//5
f 12//6 14//6 13//6
f 14//7 16//7 15//7
f 16//8 18//8 17//8
f 18//9 20//9 19//9
f 20//10 22//10 21//10
f 22//11 24//11 23//11
f 24//12 26//12 25//12
f 6//13 4//13 2//13
f 2//13 28//13 26//13
f 26//17 24//17 22//17
f 22//17 20//17 18//17
f 18//13 16//13 14//13
f 14//13 12//13 10//13
f 10//13 8//13 6//13
f 6//13 2//13 26//13
f 26//13 22//13 18//13
f 18//13 14//13 10//13
f 10//13 6//13 26//13
f 26//14 28//14 27//14
f 28//15 2//15 1//15
f 27//16 1//16 3//16
f 3//18 5//18 7//18
f 7//18 9//18 11//18
f 11//16 13//16 15//16
f 15//16 17//16 19//16
f 19//16 21//16 23//16
f 23//16 25//16 27//16
f 27//16 3//16 7//16
f 7//16 11//16 15//16
f 15//16 19//16 23//16
f 23//16 27//16 7//16
