# Blender 4.0.2
# www.blender.org
o Suture_Packet_2
v 1.034883 1.023036 0.920500
v 1.034883 1.023036 0.923500
v 1.037388 1.040861 0.920500
v 1.037388 1.040861 0.923500
v 1.062611 1.019139 0.920500
v 1.062611 1.019139 0.923500
v 1.065116 1.036964 0.920500
v 1.065116 1.036964 0.923500
vn -0.9903 0.1392 -0.0000
vn 0.1392 0.9903 -0.0000
vn 0.9903 -0.1392 -0.0000
vn -0.1392 -0.9903 -0.0000
vn -0.0000 -0.0000 -1.0000
vn -0.0000 -0.0000 1.0000
s 0
f 2//1 3//1 1//1
f 4//2 7//2 3//2
f 8//3 5//3 7//3
f 6//4 1//4 5//4
f 7//5 1//5 3//5
f 4//6 6//6 8//6
f 2//1 4//1 3//1
f 4//2 8//2 7//2
f 8//3 6//3 5//3
f 6//4 2//4 1//4
f 7//5 5//5 1//5
f 4//6 2//6 6//6
