# Blender 4.0.2
# www.blender.org
o Suture_Packet
v 1.038177 1.008286 0.920500
v 1.038177 1.008286 0.923500
v 1.034434 1.025892 0.920500
v 1.034434 1.025892 0.923500
v 1.065565 1.014107 0.920500
v 1.065565 1.014107 0.923500
v 1.061822 1.031714 0.920500
v 1.061822 1.031714 0.923500
vn -0.9781 -0.2079 -0.0000
vn -0.2079 0.9781 -0.0000
vn 0.9781 0.2079 -0.0000
vn 0.2079 -0.9781 -0.0000
vn -0.0000 -0.0000 -1.0000
vn -0.0000 -0.0000 1.0000
s 0
f 2//1 3//1 1//1
f 4//2 7//2 3//2
f 8//3 5//3 7//3
f 6//4 1//4 5//4
f 7//5 1//5 3//5
f 4//6 6//6 8//6
f 2//1 4//1 3//1
f 4//2 8//2 7//2
f 8//3 6//3 5//3
f 6//4 2//4 1//4
f 7//5 5//5 1//5
f 4//6 2//6 6//6
